<svg width="96" height="100" viewBox="0 0 96 100" fill="none" xmlns="http://www.w3.org/2000/svg">
<rect width="96" height="99.75" rx="12" fill="#DCDCDC"/>
<path d="M66.75 28H29.25C25.832 28 23 30.832 23 34.25V65.5C23 69.0156 25.832 71.75 29.25 71.75H66.75C70.168 71.75 73 69.0156 73 65.5V34.25C73 30.832 70.2656 28 66.75 28ZM33.9375 34.25C36.4766 34.25 38.625 36.3984 38.625 38.9375C38.625 41.5742 36.5742 43.625 33.9375 43.625C31.2031 43.625 29.25 41.5742 29.25 38.9375C29.25 36.3984 31.3984 34.25 33.9375 34.25ZM66.6523 64.7188C66.3594 65.207 65.7734 65.5 65.2852 65.5H31.1055C30.4219 65.5 29.9336 65.207 29.6406 64.7188C29.4453 64.1328 29.4453 63.5469 29.8359 63.0586L36.6719 53.6836C36.9648 53.293 37.3555 53 37.9414 53C38.4297 53 38.8203 53.293 39.1133 53.6836L42.3359 58.0781L51.418 44.4062C51.7109 43.918 52.1992 43.625 52.7852 43.625C53.2734 43.625 53.7617 43.918 54.0547 44.4062L66.5547 63.1562C66.8477 63.5469 66.8477 64.2305 66.6523 64.7188Z" fill="#7D849D"/>
</svg>
