<svg width="22" height="29" viewBox="0 0 22 29" fill="none" xmlns="http://www.w3.org/2000/svg">
<path d="M14.5 0.5V7.5H21.5L14.5 0.5ZM12.75 7.5V0.5H3.125C1.64844 0.5 0.5 1.70312 0.5 3.125V25.875C0.5 27.3516 1.64844 28.5 3.125 28.5H18.875C20.2969 28.5 21.5 27.3516 21.5 25.875V9.25H14.5C13.5156 9.25 12.75 8.48438 12.75 7.5ZM16.25 19.3672C16.0312 19.6406 15.7031 19.75 15.375 19.75C14.9922 19.75 14.6641 19.6406 14.4453 19.3672L12.3125 17.2344V22.8125C12.3125 23.5781 11.7109 24.125 11 24.125C10.2344 24.125 9.6875 23.5781 9.6875 22.8125V17.2344L7.5 19.3672C7.00781 19.9141 6.1875 19.9141 5.69531 19.3672C5.14844 18.875 5.14844 18.0547 5.69531 17.5078L10.0703 13.1328C10.5625 12.6406 11.3828 12.6406 11.875 13.1328L16.25 17.5078C16.7969 18.0547 16.7969 18.875 16.25 19.3672Z" fill="#30A5DC"/>
</svg>
