<svg width="102" height="102" viewBox="0 0 102 102" fill="none" xmlns="http://www.w3.org/2000/svg">
<rect width="102" height="102" rx="12" fill="#DCDCDC"/>
<path d="M72.6523 28.375H35.1523C31.7344 28.375 28.9023 31.207 28.9023 34.625V65.875C28.9023 69.3906 31.7344 72.125 35.1523 72.125H72.6523C76.0703 72.125 78.9023 69.3906 78.9023 65.875V34.625C78.9023 31.207 76.168 28.375 72.6523 28.375ZM39.8398 34.625C42.3789 34.625 44.5273 36.7734 44.5273 39.3125C44.5273 41.9492 42.4766 44 39.8398 44C37.1055 44 35.1523 41.9492 35.1523 39.3125C35.1523 36.7734 37.3008 34.625 39.8398 34.625ZM72.5547 65.0938C72.2617 65.582 71.6758 65.875 71.1875 65.875H37.0078C36.3242 65.875 35.8359 65.582 35.543 65.0938C35.3477 64.5078 35.3477 63.9219 35.7383 63.4336L42.5742 54.0586C42.8672 53.668 43.2578 53.375 43.8438 53.375C44.332 53.375 44.7227 53.668 45.0156 54.0586L48.2383 58.4531L57.3203 44.7812C57.6133 44.293 58.1016 44 58.6875 44C59.1758 44 59.6641 44.293 59.957 44.7812L72.457 63.5312C72.75 63.9219 72.75 64.6055 72.5547 65.0938Z" fill="#7D849D"/>
</svg>
