<svg width="288" height="216" viewBox="0 0 288 216" fill="none" xmlns="http://www.w3.org/2000/svg">
<path d="M149.022 81.4191C149.022 81.4191 171.143 111.131 190.752 108.265C210.362 105.399 223.52 74.5911 223.52 74.5911L215.628 69.5758C215.628 69.5758 187.524 111.353 162.77 64.5605L149.022 81.4191Z" fill="#9A5AFF" fill-opacity="0.7"/>
<path opacity="0.08" d="M149.022 81.4191C149.022 81.4191 171.143 111.131 190.752 108.265C210.362 105.399 223.52 74.5911 223.52 74.5911L215.628 69.5758C215.628 69.5758 187.524 111.353 162.77 64.5605L149.022 81.4191Z" fill="black"/>
<path d="M166.335 68.0996C166.335 68.0996 172.527 71.7894 174.156 78.0586C175.785 84.3277 175.44 100.212 162.612 108.15C149.783 116.089 135.964 119.614 138.116 128.928L130.762 125.346L139.91 105.643L160.789 93.8496L166.335 68.0996Z" fill="#9A5AFF" fill-opacity="0.7"/>
<path opacity="0.45" d="M144.158 184.87C209.082 184.87 261.713 178.224 261.713 170.025C261.713 161.826 209.082 155.18 144.158 155.18C79.2338 155.18 26.6025 161.826 26.6025 170.025C26.6025 178.224 79.2338 184.87 144.158 184.87Z" fill="#E6E6E6"/>
<path d="M156.52 162.824C156.52 162.824 159.067 164.974 161.643 163.77C164.219 162.566 166.249 164.594 164.398 166.485C162.547 168.377 155.214 168.828 155.214 168.828L153.141 164.823L156.52 162.824Z" fill="#9A5AFF" fill-opacity="0.7"/>
<path d="M73.3477 146.36C73.3477 146.36 70.0185 146.245 68.7414 148.781C67.4642 151.318 64.6157 150.981 64.8884 148.351C65.161 145.722 70.6284 140.843 70.6284 140.843L74.7397 142.698L73.3477 146.36Z" fill="#9A5AFF" fill-opacity="0.7"/>
<path d="M174.694 53.4267C174.694 53.4267 175.412 58.3058 174.737 61.6016C174.679 61.9246 174.557 62.2326 174.377 62.5077C174.198 62.7828 173.966 63.0194 173.694 63.2036C173.422 63.3878 173.116 63.5159 172.793 63.5804C172.471 63.6448 172.139 63.6444 171.817 63.5791C170.16 63.2352 168.014 62.2751 167.326 59.7101L165.618 55.4973C165.365 54.6185 165.392 53.6829 165.696 52.8203C165.999 51.9576 166.564 51.2105 167.311 50.6826C169.973 48.5332 174.422 50.439 174.694 53.4267Z" fill="#F4A28C"/>
<path d="M169.012 55.3535L156.212 65.1907L162.146 71.8467L168.904 62.2603L169.012 55.3535Z" fill="#F4A28C"/>
<path d="M173.482 53.6991C171.965 53.8422 170.436 53.8085 168.926 53.5988C169.403 54.243 169.68 55.0124 169.723 55.812C169.766 56.6117 169.574 57.4065 169.17 58.0982C168.792 58.775 168.191 59.2995 167.468 59.5819C166.745 59.8642 165.947 59.8868 165.209 59.6458L164.944 53.3265C164.876 52.4243 165.053 51.5204 165.457 50.7107C165.861 49.9009 166.477 49.2154 167.24 48.7268C167.903 48.3037 168.59 47.9208 169.299 47.5804C171.079 46.7565 173.812 47.824 175.376 46.5057C175.535 46.3757 175.724 46.2885 175.925 46.2527C176.127 46.2169 176.335 46.2337 176.528 46.3014C176.721 46.3691 176.894 46.4855 177.029 46.6393C177.164 46.793 177.257 46.979 177.299 47.1792C177.687 49.085 177.507 52.1229 174.967 53.3194C174.497 53.5275 173.995 53.6559 173.482 53.6991Z" fill="#24285B"/>
<path d="M169.693 57.9188C169.693 57.9188 169.55 56.0273 168.136 56.2566C166.723 56.4859 166.909 59.2084 168.854 59.3589L169.693 57.9188Z" fill="#F4A28C"/>
<path d="M174.974 56.5215L176.445 58.3413C176.529 58.4444 176.585 58.5668 176.608 58.6973C176.632 58.8278 176.622 58.9621 176.58 59.0879C176.538 59.2136 176.465 59.3267 176.367 59.4166C176.269 59.5065 176.151 59.5704 176.022 59.6023L174.156 60.0537L174.974 56.5215Z" fill="#F4A28C"/>
<path opacity="0.31" d="M168.71 62.5327C168.135 61.6018 167.825 60.5315 167.814 59.4375C167.814 59.4375 164.822 61.329 166.773 65.2767L168.71 62.5327Z" fill="#CE8172"/>
<path d="M164.033 69.167C164.033 69.167 160.66 62.425 147.028 62.3605C133.395 62.296 100.01 80.1075 102.306 118.897L130.762 125.345C130.762 125.345 136.021 112.299 152.804 106.717C170.031 100.971 172.506 74.8486 164.033 69.167Z" fill="white"/>
<path d="M158.286 63.5786C158.286 63.5786 126.716 45.0793 102.192 47.9452C77.6674 50.8111 64.4941 79.1117 64.4941 79.1117L71.5687 84.127C71.5687 84.127 95.9637 55.8765 111.39 65.8856C126.816 75.8947 153.514 96.4288 158.286 63.5786Z" fill="#9A5AFF" fill-opacity="0.7"/>
<path d="M122.69 69.4608C122.69 69.4608 95.4255 83.4319 96.5017 117.643L113.722 123.554C113.722 123.554 116.054 88.6263 148.52 85.2231C148.52 85.2231 160.531 78.6316 161.651 67.7842C161.651 67.7842 163.279 63.7577 151.053 59.8027L122.69 69.4608Z" fill="#9A5AFF" fill-opacity="0.7"/>
<path d="M164.47 66.2153L163.803 70.292H166.113L166.336 65.9072L164.47 66.2153Z" fill="white"/>
<path opacity="0.08" d="M160.998 77.9082C160.998 77.9082 154.705 100.9 136.94 103.056C119.175 105.213 98.4531 100.728 98.4531 100.728C99.6368 96.2708 101.461 92.0088 103.87 88.0749C107.924 81.4117 126.895 87.8313 126.895 87.8313L160.998 77.9082Z" fill="black"/>
<path d="M161.766 66.1725C161.766 66.1725 160.036 70.6863 161.766 71.3956C162.641 71.761 163.724 71.2093 164.578 70.5788C165.008 70.2551 165.314 69.7941 165.444 69.2725C165.575 68.751 165.522 68.2005 165.296 67.713L164.578 66.1367L161.766 66.1725Z" fill="#FFD200"/>
<path d="M163.803 69.1677C163.803 69.1677 165.023 82.3579 146.188 92.7468C127.354 103.136 106.819 92.7468 106.819 92.7468L100.627 82.9669L113.721 80.2085C113.721 80.2085 143.921 92.9545 161.378 68.3223L163.803 69.1677Z" fill="#FFD200"/>
<path d="M98.8696 118.453C98.8696 118.453 94.4139 128.684 103.978 133.943C109.618 137.038 119.569 138.665 126.795 139.474C129.578 139.789 132.254 140.725 134.625 142.213C136.996 143.702 139.001 145.704 140.492 148.072L151.749 165.855L158.286 161.735L152.022 145.722C150.35 141.436 147.839 137.526 144.636 134.22C141.433 130.915 137.602 128.28 133.367 126.47L130.791 125.374L98.8696 118.453Z" fill="#24285B"/>
<path d="M120.494 133.077C120.494 133.077 120.975 150.516 105.908 153.138C90.84 155.76 71.9482 146.933 71.9482 146.933L75.2918 140.958C75.2918 140.958 106.388 150.516 104.236 131.171L120.494 133.077Z" fill="#24285B"/>
<path d="M158.285 62.9625L160.789 61.6729L164.47 66.2153L161.65 69.7976L158.285 62.9625Z" fill="white"/>
<path opacity="0.26" d="M64.4939 79.1338L63.2168 81.9925L69.9111 87.0078L71.5685 84.1491L64.4939 79.1338Z" fill="#9A5AFF" fill-opacity="0.7"/>
<path d="M72.3001 99.5096L70.1835 99.1442L71.0373 94.2722C71.1813 93.4299 70.9861 92.5649 70.4942 91.8657C70.0023 91.1665 69.2536 90.6898 68.4113 90.5394L60.7699 89.2067C59.9269 89.0589 59.0597 89.2513 58.3587 89.7417C57.6578 90.232 57.1805 90.9802 57.0317 91.8219L56.1779 96.6939L54.0254 96.3285L54.8792 91.4565C55.1262 90.053 55.9206 88.8046 57.0881 87.9852C58.2557 87.1659 59.7011 86.8425 61.1071 87.086L68.7628 88.4258C69.4592 88.547 70.1249 88.8041 70.7218 89.1822C71.3186 89.5604 71.835 90.0523 72.2415 90.6298C72.6479 91.2074 72.9364 91.8592 73.0905 92.5481C73.2446 93.237 73.2613 93.9494 73.1396 94.6448L72.3001 99.5096Z" fill="#9A5AFF" fill-opacity="0.7"/>
<path opacity="0.3" d="M72.3001 99.5096L70.1835 99.1442L71.0373 94.2722C71.1813 93.4299 70.9861 92.5649 70.4942 91.8657C70.0023 91.1665 69.2536 90.6898 68.4113 90.5394L60.7699 89.2067C59.9269 89.0589 59.0597 89.2513 58.3587 89.7417C57.6578 90.232 57.1805 90.9802 57.0317 91.8219L56.1779 96.6939L54.0254 96.3285L54.8792 91.4565C55.1262 90.053 55.9206 88.8046 57.0881 87.9852C58.2557 87.1659 59.7011 86.8425 61.1071 87.086L68.7628 88.4258C69.4592 88.547 70.1249 88.8041 70.7218 89.1822C71.3186 89.5604 71.835 90.0523 72.2415 90.6298C72.6479 91.2074 72.9364 91.8592 73.0905 92.5481C73.2446 93.237 73.2613 93.9494 73.1396 94.6448L72.3001 99.5096Z" fill="white"/>
<path d="M63.9195 82.5156C63.9195 82.5156 57.1176 89.7806 61.8746 91.6793C66.6316 93.5779 68.5402 93.5134 69.9106 87.0079L63.9195 82.5156Z" fill="#F4A28C"/>
<path d="M83.0532 99.0833L43.6494 92.209L38.904 119.332L78.3078 126.206L83.0532 99.0833Z" fill="#9A5AFF" fill-opacity="0.7"/>
<path opacity="0.08" d="M78.1265 98.2344C78.1265 98.2344 85.5669 125.389 39.7402 114.527L38.8936 119.334L78.2987 126.213L83.0485 99.087L78.1265 98.2344Z" fill="black"/>
<path opacity="0.4" d="M216.869 70.3849L218.017 67.9775L224.238 72.391L223.52 74.5906L216.869 70.3849Z" fill="#9A5AFF" fill-opacity="0.7"/>
<path d="M219.115 68.7586C219.115 68.7586 224.597 61.945 228.902 63.9726C233.207 66.0002 232.131 69.4106 224.238 72.3911L219.115 68.7586Z" fill="#F4A28C"/>
<path d="M244.505 53.05C252.098 50.636 257.779 47.1905 257.194 45.3543C256.608 43.5181 249.978 43.9865 242.385 46.4005C234.791 48.8145 229.11 52.26 229.696 54.0963C230.281 55.9325 236.911 55.4641 244.505 53.05Z" fill="#FFD200"/>
<path d="M229.698 54.0928C229.698 54.0928 234.721 74.7773 250.039 70.3854C265.358 65.9934 257.214 45.3447 257.214 45.3447L229.698 54.0928Z" fill="#FFD200"/>
<path opacity="0.08" d="M244.505 53.05C252.098 50.636 257.779 47.1905 257.194 45.3543C256.608 43.5181 249.978 43.9865 242.385 46.4005C234.791 48.8145 229.11 52.26 229.696 54.0963C230.281 55.9325 236.911 55.4641 244.505 53.05Z" fill="black"/>
<path d="M250.532 66.6546L247.059 67.7588L251.371 81.2832L254.844 80.179L250.532 66.6546Z" fill="#FFD200"/>
<path d="M259.766 75.6076L245.292 80.209L248.966 91.7331L263.44 87.1317L259.766 75.6076Z" fill="#24285B"/>
<path d="M256.113 80.1902L248.744 82.5137L250.6 88.3808L257.968 86.0573L256.113 80.1902Z" fill="#FFD200"/>
<path opacity="0.3" d="M256.113 80.1902L248.744 82.5137L250.6 88.3808L257.968 86.0573L256.113 80.1902Z" fill="white"/>
<path d="M243.015 70.0273L234.692 72.6711C232.76 73.2641 230.672 73.0719 228.882 72.1365C227.091 71.201 225.743 69.5978 225.13 67.6753C224.516 65.7527 224.687 63.666 225.606 61.8687C226.524 60.0714 228.116 58.7087 230.035 58.0766L233.077 57.1094L233.795 59.4236L230.752 60.3908C230.097 60.5992 229.488 60.9346 228.962 61.3777C228.436 61.8209 228.003 62.3631 227.687 62.9735C227.048 64.2063 226.926 65.6419 227.348 66.9644C227.769 68.287 228.7 69.3881 229.934 70.0257C231.169 70.6633 232.607 70.785 233.931 70.3641L242.254 67.7131L243.015 70.0273Z" fill="#FFD200"/>
<path d="M255.248 66.094L263.571 63.4502C265.511 62.8336 267.125 61.4731 268.059 59.6679C268.994 57.8627 269.172 55.7608 268.555 53.8245C267.937 51.8882 266.575 50.2761 264.767 49.3429C262.959 48.4098 260.854 48.232 258.915 48.8486L255.873 49.8158L256.648 52.1157L259.69 51.1484C260.346 50.94 261.036 50.8626 261.722 50.9207C262.408 50.9788 263.075 51.1711 263.686 51.4868C264.298 51.8025 264.841 52.2353 265.285 52.7606C265.728 53.2858 266.064 53.8932 266.273 54.5481C266.482 55.2029 266.559 55.8924 266.501 56.5772C266.443 57.262 266.25 57.9286 265.934 58.539C265.618 59.1494 265.184 59.6917 264.658 60.1348C264.132 60.578 263.524 60.9133 262.868 61.1217L254.495 63.787L255.248 66.094Z" fill="#FFD200"/>
<path opacity="0.3" d="M251.273 56.9726C251.467 59.8385 251.273 64.4454 248.346 67.34C248.346 67.34 255.822 68.0564 257.314 57.1016C257.379 56.605 257.318 56.1002 257.135 55.6338C256.952 55.1674 256.655 54.7546 256.27 54.4337C255.885 54.1128 255.425 53.8943 254.933 53.7983C254.44 53.7023 253.932 53.732 253.454 53.8847H253.347C252.702 54.0886 252.145 54.5052 251.769 55.0662C251.392 55.6273 251.217 56.2995 251.273 56.9726Z" fill="white"/>
<path d="M225.796 39.1082L225.271 40.4414L232.287 43.2012L232.813 41.868L225.796 39.1082Z" fill="#C9C9C9"/>
<path d="M233.589 31.6955L232.298 32.3203L235.586 39.0969L236.877 38.4722L233.589 31.6955Z" fill="#C9C9C9"/>
<path d="M243.507 32.8543L241.019 39.9326L242.367 40.4055L244.856 33.3272L243.507 32.8543Z" fill="#C9C9C9"/>
</svg>
