<svg width="20" height="21" viewBox="0 0 20 21" fill="none" xmlns="http://www.w3.org/2000/svg">
<path d="M10 0.5C4.45312 0.5 0 4.99219 0 10.5C0 16.0469 4.45312 20.5 10 20.5C15.5078 20.5 20 16.0469 20 10.5C20 4.99219 15.5078 0.5 10 0.5ZM15.8594 11.3984L11.8359 15.4219C11.3672 15.9297 10.5469 15.9297 10.0781 15.4219C9.57031 14.9531 9.57031 14.1328 10.0781 13.6641L11.9531 11.75H5C4.29688 11.75 3.75 11.2031 3.75 10.5C3.75 9.83594 4.29688 9.25 5 9.25H11.9531L10.0391 7.33594C9.53125 6.86719 9.53125 6.04688 10.0391 5.57812C10.5078 5.07031 11.3281 5.07031 11.7969 5.57812L15.8203 9.60156C16.1719 9.95312 16.25 10.3438 16.25 10.5C16.25 10.6953 16.1719 11.0859 15.8594 11.3984Z" fill="#7D849D"/>
</svg>
