<svg width="24" height="23" viewBox="0 0 24 23" fill="none" xmlns="http://www.w3.org/2000/svg">
<path d="M22.4844 19.8281L17.3281 14.6719C18.4883 12.9531 19.0898 10.8047 18.7891 8.48438C18.2305 4.53125 15.0078 1.35156 11.0977 0.835938C5.25391 0.105469 0.3125 5.04688 1.04297 10.8906C1.55859 14.8008 4.73828 18.0234 8.69141 18.582C11.0117 18.8828 13.1602 18.2812 14.9219 17.1211L20.0352 22.2773C20.7227 22.9219 21.7969 22.9219 22.4844 22.2773C23.1289 21.5898 23.1289 20.5156 22.4844 19.8281ZM4.39453 9.6875C4.39453 6.67969 6.84375 4.1875 9.89453 4.1875C12.9023 4.1875 15.3945 6.67969 15.3945 9.6875C15.3945 12.7383 12.9023 15.1875 9.89453 15.1875C6.84375 15.1875 4.39453 12.7383 4.39453 9.6875Z" fill="black"/>
</svg>
