<svg width="17" height="17" viewBox="0 0 17 17" fill="none" xmlns="http://www.w3.org/2000/svg">
<path d="M0.149414 8.5C0.149414 4.09375 3.71191 0.5 8.14941 0.5C12.5557 0.5 16.1494 4.09375 16.1494 8.5C16.1494 12.9375 12.5557 16.5 8.14941 16.5C3.71191 16.5 0.149414 12.9375 0.149414 8.5ZM11.7432 7.125C12.0869 6.78125 12.0869 6.25 11.7432 5.90625C11.3994 5.5625 10.8682 5.5625 10.5244 5.90625L7.14941 9.28125L5.74316 7.90625C5.39941 7.5625 4.86816 7.5625 4.52441 7.90625C4.18066 8.25 4.18066 8.78125 4.52441 9.125L6.52441 11.125C6.86816 11.4688 7.39941 11.4688 7.74316 11.125L11.7432 7.125Z" fill="#199BD8"/>
</svg>
