<svg id="ico_youtube" xmlns="http://www.w3.org/2000/svg" width="34" height="34" viewBox="0 0 34 34">
  <rect id="長方形_490" data-name="長方形 490" width="34" height="34" fill="none"/>
  <path id="パス_998" data-name="パス 998" d="M25.781-15.187a21.182,21.182,0,0,1,.469,3.844L26.3-9,26.25-6.656a21.431,21.431,0,0,1-.469,3.891,3.269,3.269,0,0,1-.844,1.406,3.249,3.249,0,0,1-1.453.844,33.341,33.341,0,0,1-5.719.469L13.5,0,9.234-.047A33.341,33.341,0,0,1,3.516-.516a3.249,3.249,0,0,1-1.453-.844,3.269,3.269,0,0,1-.844-1.406A21.431,21.431,0,0,1,.75-6.656L.7-9q0-1.031.047-2.344a21.182,21.182,0,0,1,.469-3.844,3.249,3.249,0,0,1,.844-1.453,3.249,3.249,0,0,1,1.453-.844,33.341,33.341,0,0,1,5.719-.469L13.5-18l4.266.047a33.341,33.341,0,0,1,5.719.469,3.249,3.249,0,0,1,1.453.844A3.249,3.249,0,0,1,25.781-15.187ZM10.875-5.156,17.578-9l-6.7-3.8Z" transform="translate(3.297 26)" fill="red"/>
</svg>
