<svg id="ico_spotify" xmlns="http://www.w3.org/2000/svg" width="34" height="34" viewBox="0 0 34 34">
  <rect id="長方形_493" data-name="長方形 493" width="34" height="34" fill="none"/>
  <path id="パス_1001" data-name="パス 1001" d="M11.625-20.625a11.269,11.269,0,0,1,5.812,1.57,11.747,11.747,0,0,1,4.242,4.242A11.269,11.269,0,0,1,23.25-9a11.269,11.269,0,0,1-1.57,5.812,11.747,11.747,0,0,1-4.242,4.242,11.269,11.269,0,0,1-5.812,1.57,11.269,11.269,0,0,1-5.812-1.57A11.747,11.747,0,0,1,1.57-3.187,11.269,11.269,0,0,1,0-9a11.269,11.269,0,0,1,1.57-5.812,11.747,11.747,0,0,1,4.242-4.242A11.269,11.269,0,0,1,11.625-20.625ZM16.359-3.516a.675.675,0,0,0,.492-.211.7.7,0,0,0,.211-.516.8.8,0,0,0-.117-.469,1.15,1.15,0,0,0-.352-.3q-4.5-2.672-11.109-1.219a.731.731,0,0,0-.609.8.718.718,0,0,0,.187.492.654.654,0,0,0,.516.211,3.805,3.805,0,0,0,.469-.047l.094-.047q5.812-1.219,9.7,1.125A.951.951,0,0,0,16.359-3.516Zm1.266-3.094a.86.86,0,0,0,.633-.258.86.86,0,0,0,.258-.633A1.048,1.048,0,0,0,18-8.437a14.4,14.4,0,0,0-3.891-1.57,18.291,18.291,0,0,0-4.453-.539,17.321,17.321,0,0,0-4.547.609.956.956,0,0,0-.75.984.825.825,0,0,0,.281.633.941.941,0,0,0,.656.258,2.017,2.017,0,0,0,.375-.047l.187-.047a14.53,14.53,0,0,1,5.953-.375,14.209,14.209,0,0,1,5.2,1.734l.094.047A1.167,1.167,0,0,0,17.625-6.609Zm1.453-3.562a1.071,1.071,0,0,0,.75-.3,1.01,1.01,0,0,0,.328-.773,1.2,1.2,0,0,0-.609-1.078,17.3,17.3,0,0,0-4.5-1.687,23.066,23.066,0,0,0-5.109-.562,18.8,18.8,0,0,0-5.531.75,1.124,1.124,0,0,0-.562.375,1.1,1.1,0,0,0-.234.727,1.1,1.1,0,0,0,.3.773,1.01,1.01,0,0,0,.773.328,2.011,2.011,0,0,0,.516-.094l.094-.047a18.805,18.805,0,0,1,6.75-.422,15.612,15.612,0,0,1,6.422,1.828A1.077,1.077,0,0,0,19.078-10.172Z" transform="translate(6 25.625)" fill="#1ed760"/>
</svg>
