<svg id="ico_rarible" xmlns="http://www.w3.org/2000/svg" width="34" height="34" viewBox="0 0 34 34">
  <rect id="長方形_947" data-name="長方形 947" width="34" height="34" fill="none"/>
  <g id="Rarible" transform="translate(-231 -54)">
    <path id="パス_39940" data-name="パス 39940" d="M240.8,59h14.4a4.8,4.8,0,0,1,4.8,4.8V78.2a4.8,4.8,0,0,1-4.8,4.8H240.8a4.8,4.8,0,0,1-4.8-4.8V63.8A4.8,4.8,0,0,1,240.8,59Z" fill="#feda08"/>
    <path id="パス_39941" data-name="パス 39941" d="M437.44,302.933a1.818,1.818,0,0,0,1.429-1.9c0-1.894-1.609-2.333-3.666-2.333H427v8.523h3.451V304.33h4.1c.631,0,1,.25,1,.868v2.022H439v-2.131A2.111,2.111,0,0,0,437.44,302.933Zm-2.833-.9h-4.156V301.2h4.156c.452,0,.727.061.727.417S435.059,302.032,434.607,302.032Z" transform="translate(-184.88 -232.019)" fill="#010101"/>
  </g>
</svg>
