<svg id="ico_dribbble" xmlns="http://www.w3.org/2000/svg" width="34" height="34" viewBox="0 0 34 34">
  <rect id="長方形_663" data-name="長方形 663" width="34" height="34" fill="none"/>
  <path id="パス_1085" data-name="パス 1085" d="M0-20.625a11.269,11.269,0,0,1,5.812,1.57,11.747,11.747,0,0,1,4.242,4.242A11.269,11.269,0,0,1,11.625-9a11.269,11.269,0,0,1-1.57,5.812A11.747,11.747,0,0,1,5.812,1.055,11.269,11.269,0,0,1,0,2.625a11.269,11.269,0,0,1-5.812-1.57,11.747,11.747,0,0,1-4.242-4.242A11.269,11.269,0,0,1-11.625-9a11.269,11.269,0,0,1,1.57-5.812,11.747,11.747,0,0,1,4.242-4.242A11.269,11.269,0,0,1,0-20.625Zm7.687,5.344a9.133,9.133,0,0,1-1.453,1.5,15.191,15.191,0,0,1-4.078,2.437q.422.937.844,1.969a20.348,20.348,0,0,1,4.594-.047q1.312.141,2.344.328a10.584,10.584,0,0,0-.609-3.3A9.628,9.628,0,0,0,7.687-15.281ZM6.562-16.406a9.677,9.677,0,0,0-4.172-2.227,9.9,9.9,0,0,0-4.734-.023,44.983,44.983,0,0,1,3.7,5.812A12.652,12.652,0,0,0,5.25-15,6.606,6.606,0,0,0,6.562-16.406ZM-4.219-17.953a9.771,9.771,0,0,0-3.562,2.812A9.634,9.634,0,0,0-9.7-11.016q1.266,0,3-.141A34.481,34.481,0,0,0-.563-12.234,52.526,52.526,0,0,0-4.219-17.953ZM-9.938-9a9.624,9.624,0,0,0,.68,3.586,10.207,10.207,0,0,0,1.9,3.07A14.291,14.291,0,0,1-3.891-6.328,13.354,13.354,0,0,1,1.078-9a13.706,13.706,0,0,0-.8-1.687,34.523,34.523,0,0,1-6.8,1.266q-1.969.141-3.422.141Zm3.844,7.828A9.26,9.26,0,0,0-1.242.867,10.058,10.058,0,0,0,3.891.141a38.905,38.905,0,0,0-2.109-7.5A14.874,14.874,0,0,0-3.281-4.547,10.5,10.5,0,0,0-6.094-1.172ZM5.531-.75A9.813,9.813,0,0,0,8.344-3.609,9.7,9.7,0,0,0,9.8-7.406a10.367,10.367,0,0,0-2.062-.422,13.04,13.04,0,0,0-4.125,0A40.857,40.857,0,0,1,5.531-.75Z" transform="translate(16.625 25.625)" fill="#ea4c89"/>
</svg>
