<svg id="ico_tumblr" xmlns="http://www.w3.org/2000/svg" width="34" height="34" viewBox="0 0 34 34">
  <rect id="長方形_491" data-name="長方形 491" width="34" height="34" fill="none"/>
  <path id="パス_999" data-name="パス 999" d="M12.715,1.312q.164-.164,0-.574l-.9-2.666a.44.44,0,0,0-.267-.308.835.835,0,0,0-.554.1,2.269,2.269,0,0,1-2.051.082A1.678,1.678,0,0,1,8.2-3.609V-9.064h3.445a.393.393,0,0,0,.287-.123.393.393,0,0,0,.123-.287v-3.363a.393.393,0,0,0-.123-.287.393.393,0,0,0-.287-.123h-3.4v-4.717a.393.393,0,0,0-.123-.287.393.393,0,0,0-.287-.123H4.922q-.615,0-.656.656a6.282,6.282,0,0,1-.82,2.707A4.847,4.847,0,0,1,.779-12.92a.7.7,0,0,0-.328.267.691.691,0,0,0-.123.39v2.789a.378.378,0,0,0,.123.308.435.435,0,0,0,.287.1H2.666v5.906A6.181,6.181,0,0,0,3.158-.7a4.743,4.743,0,0,0,1.8,2.3A6.394,6.394,0,0,0,8.7,2.625a7.747,7.747,0,0,0,2.543-.41A3.79,3.79,0,0,0,12.715,1.312Z" transform="translate(10.672 24)" fill="#324357"/>
</svg>
