<svg id="ico_discord" xmlns="http://www.w3.org/2000/svg" width="34" height="34" viewBox="0 0 34 34">
  <rect id="長方形_495" data-name="長方形 495" width="34" height="34" fill="none"/>
  <path id="パス_1003" data-name="パス 1003" d="M13.922-9.609a1.318,1.318,0,0,0-.352-.937,1.142,1.142,0,0,0-.867-.375,1.142,1.142,0,0,0-.867.375,1.318,1.318,0,0,0-.352.937,1.4,1.4,0,0,0,.352.961,1.111,1.111,0,0,0,.867.4,1.111,1.111,0,0,0,.867-.4A1.4,1.4,0,0,0,13.922-9.609ZM8.344-10.922a1.142,1.142,0,0,0-.867.375,1.318,1.318,0,0,0-.352.937,1.4,1.4,0,0,0,.352.961,1.111,1.111,0,0,0,.867.4,1.111,1.111,0,0,0,.867-.4,1.4,1.4,0,0,0,.352-.961,1.318,1.318,0,0,0-.352-.937A1.142,1.142,0,0,0,8.344-10.922ZM21-18.516a2.394,2.394,0,0,0-.727-1.758A2.341,2.341,0,0,0,18.562-21H2.437a2.341,2.341,0,0,0-1.711.727A2.394,2.394,0,0,0,0-18.516V-2.3A2.394,2.394,0,0,0,.727-.539,2.341,2.341,0,0,0,2.437.187H16.078l-.656-2.25.891.844Q18.375.656,19.828,1.969L21,3ZM17.578-7.172l-.187.281a4.1,4.1,0,0,1-.656.609,3.3,3.3,0,0,1-1.125.609,4.388,4.388,0,0,1-1.687.328l-.8-.937a5.276,5.276,0,0,0,1.266-.609,3.968,3.968,0,0,0,.7-.562l.188-.281a5.125,5.125,0,0,1-1.359.7,8.585,8.585,0,0,1-3.984.656A8.893,8.893,0,0,1,6.422-7.453l-.516-.281.234.281a6.12,6.12,0,0,0,.656.562,4.326,4.326,0,0,0,1.219.562l-.8.984a4.388,4.388,0,0,1-1.687-.328,3.3,3.3,0,0,1-1.125-.609,4.1,4.1,0,0,1-.656-.609l-.187-.281a14.145,14.145,0,0,1,.469-3.516,12.821,12.821,0,0,1,.8-2.484l.469-.984a6.415,6.415,0,0,1,1.641-.891,5.881,5.881,0,0,1,1.219-.328l.516-.047.094.141a11.118,11.118,0,0,0-1.781.7,8.154,8.154,0,0,0-1.031.609l-.328.281.7-.375a10.889,10.889,0,0,1,4.5-.844,9.242,9.242,0,0,1,4.453,1.219,3.726,3.726,0,0,0-.7-.516,10.671,10.671,0,0,0-2.25-1.031l.141-.187a4.72,4.72,0,0,1,1.031.141,6.771,6.771,0,0,1,2.344,1.125,17.515,17.515,0,0,1,.891,2.062A15.523,15.523,0,0,1,17.578-7.172Z" transform="translate(7 26)" fill="#5964f4"/>
</svg>
