<svg width="40" height="28" viewBox="0 0 40 28" fill="none" xmlns="http://www.w3.org/2000/svg">
<path d="M20.9844 10.8281L18.875 12.7266C16.0625 15.3984 12.7578 13.5703 11.7031 12.4453C9.875 10.4062 10.0156 7.17188 12.0547 5.27344L17.8203 0H17.3281C13.25 0 9.38281 1.61719 6.5 4.5L-0.25 4.57031C-1.51562 4.57031 -2.5 5.55469 -2.5 6.82031V18C-2.5 19.2656 -1.51562 20.25 -0.320312 20.25H7.69531L14.0234 26.0156C15.9922 27.6328 18.8047 27.2812 20.3516 25.3828L21.6875 26.4375C22.7422 27.2812 24.4297 27.2109 25.3438 26.0859L27.5234 23.3438L27.9453 23.6953C28.8594 24.4688 30.3359 24.3281 31.1094 23.3438L31.7422 22.5C32.5156 21.5156 32.375 20.1094 31.4609 19.3359L20.9844 10.8281ZM40.25 4.57031L33.5 4.5C30.6172 1.6875 26.6797 0.0703125 22.6016 0.0703125L21.9688 0C21.4062 0 20.9141 0.28125 20.4922 0.632812L13.6016 6.96094C13.5312 6.96094 13.5312 6.96094 13.5312 6.96094C12.4062 8.08594 12.4062 9.84375 13.3906 10.8984C14.0938 11.6719 15.8516 12.4453 17.3281 11.1094C17.3281 11.1094 17.3281 11.1094 17.3984 11.1094L23.0234 5.97656C23.4453 5.55469 24.1484 5.55469 24.5703 6.04688C24.9922 6.46875 24.9922 7.17188 24.5 7.59375L22.6719 9.28125L32.9375 17.5781C33.7812 18.2812 34.2734 19.2656 34.4844 20.25H40.25C41.4453 20.25 42.5 19.2656 42.5 18V6.82031C42.5 5.55469 41.4453 4.57031 40.25 4.57031Z" fill="#32E865"/>
</svg>
