<svg width="46" height="33" viewBox="0 0 46 33" fill="none" xmlns="http://www.w3.org/2000/svg">
<path d="M15.3359 5.25C15.3359 7.78125 13.2969 9.75 10.8359 9.75C8.30469 9.75 6.33594 7.78125 6.33594 5.25C6.33594 2.78906 8.30469 0.75 10.8359 0.75C13.2969 0.75 15.3359 2.78906 15.3359 5.25ZM2.75 16.5C2.75 14.0391 4.71875 12 7.25 12H14C14.8438 12 15.6172 12.2812 16.3203 12.7031C13.7188 13.7578 11.6797 16.0078 10.9766 18.75H5C3.73438 18.75 2.75 17.7656 2.75 16.5ZM29.6797 12.6328C30.3828 12.2812 31.1562 12 32 12H38.75C41.2109 12 43.25 14.0391 43.25 16.5C43.25 17.7656 42.1953 18.75 41 18.75H35.1641C34.4609 15.9375 32.3516 13.6875 29.6797 12.6328ZM27.9922 14.4609C30.2422 14.9531 32.0703 16.6406 32.8438 18.75C33.0547 19.4531 33.1953 20.2266 33.1953 21C33.1953 22.2656 32.2109 23.25 30.9453 23.25H15.1953C13.9297 23.25 12.9453 22.2656 12.9453 21C12.9453 20.2266 13.0859 19.4531 13.3672 18.75C14.0703 16.7109 15.8281 15.0938 18.0078 14.5312C18.5 14.3906 19.1328 14.25 19.6953 14.25H26.4453C27.0078 14.25 27.5 14.3203 27.9922 14.4609ZM40.0859 5.25C40.0859 7.78125 38.0469 9.75 35.5859 9.75C33.0547 9.75 31.0859 7.78125 31.0859 5.25C31.0859 2.78906 33.0547 0.75 35.5859 0.75C38.0469 0.75 40.0859 2.78906 40.0859 5.25ZM17.4453 6.375C17.4453 3.28125 19.9766 0.75 23.0703 0.75C26.1641 0.75 28.6953 3.28125 28.6953 6.375C28.6953 9.53906 26.1641 12 23.0703 12C19.9766 12 17.4453 9.53906 17.4453 6.375ZM43.25 27.75C44.4453 27.75 45.5 28.8047 45.5 30C45.5 31.2656 44.4453 32.25 43.25 32.25H2.75C1.48438 32.25 0.5 31.2656 0.5 30C0.5 28.8047 1.48438 27.75 2.75 27.75H43.25Z" fill="#D66EFB"/>
</svg>
