<svg xmlns="http://www.w3.org/2000/svg" width="24.099" height="24" viewBox="0 0 24.099 24">
  <g id="ico_allocation" transform="translate(0.025)">
    <rect id="長方形_740" data-name="長方形 740" width="24" height="24" transform="translate(0.025)" fill="none"/>
    <path id="合体_22" data-name="合体 22" d="M1499.975-2769.736l-.188-.033c-.105-.018-.214-.037-.319-.063a3.018,3.018,0,0,1-1.444-.817q-.934-.941-1.867-1.884l-.041-.041-.657-.662-.66-.667a.615.615,0,0,1-.174-.686.688.688,0,0,1,.156-.24,1.282,1.282,0,0,1,.925-.385,1.326,1.326,0,0,1,.9.351c.089.082.176.165.266.249l.116.109.108.1v-1.238q0-1.673,0-3.345a.966.966,0,0,1,.551-.935.94.94,0,0,1,.428-.1.971.971,0,0,1,.97.944c.007.391.005.793,0,1.139v.252c0,.084,0,.167,0,.252v.051a.985.985,0,0,1,1.326.427.96.96,0,0,1,.864-.12.971.971,0,0,1,.617.629,1.051,1.051,0,0,1,.509-.136.969.969,0,0,1,.966,1c.005.439,0,.885,0,1.316v.535c0,.358,0,.728-.017,1.1a3.126,3.126,0,0,1-2.391,2.819c-.1.022-.2.041-.316.058-.049.007-.1.015-.144.024h-.489Zm-4.81-4.738a.111.111,0,0,0-.005.187l.052.053.978.987q1.1,1.11,2.2,2.221a2.589,2.589,0,0,0,1.828.767,2.475,2.475,0,0,0,1.161-.29,2.56,2.56,0,0,0,1.425-2.385c.005-.624,0-1.269,0-1.824q0-.4,0-.792c0-.039,0-.069,0-.1a.434.434,0,0,0-.177-.328.419.419,0,0,0-.456-.049.447.447,0,0,0-.264.417c0,.083,0,.175,0,.289v.061c0,.065,0,.132,0,.2a.257.257,0,0,1-.26.257.26.26,0,0,1-.26-.256.337.337,0,0,1,0-.052v-.04c0-.1,0-.205,0-.309v-.142c0-.178,0-.363,0-.544a.451.451,0,0,0-.591-.442.45.45,0,0,0-.307.41c0,.133,0,.269,0,.4s0,.227,0,.326a.259.259,0,0,1-.26.283.23.23,0,0,1-.053,0,.268.268,0,0,1-.213-.292q0-.211,0-.421c0-.208,0-.422,0-.634a.449.449,0,0,0-.3-.427.429.429,0,0,0-.15-.027.455.455,0,0,0-.448.456c0,.112,0,.225,0,.335v.07q0,.16,0,.321a.254.254,0,0,1-.26.262.258.258,0,0,1-.261-.256c0-.026,0-.051,0-.077v-3.055c0-.043,0-.088,0-.131a.457.457,0,0,0-.45-.455.44.44,0,0,0-.108.013.464.464,0,0,0-.343.49v5.144a.284.284,0,0,1-.165.3.276.276,0,0,1-.1.021.333.333,0,0,1-.222-.109c-.336-.319-.628-.593-.893-.838a.791.791,0,0,0-.536-.21A.78.78,0,0,0,1495.166-2774.473Zm7.389-5.619a4.265,4.265,0,0,1,4.261-4.261,4.264,4.264,0,0,1,4.259,4.261,4.264,4.264,0,0,1-4.259,4.26A4.264,4.264,0,0,1,1502.555-2780.093Zm.549,0a3.716,3.716,0,0,0,3.712,3.711,3.715,3.715,0,0,0,3.71-3.711,3.714,3.714,0,0,0-3.71-3.71A3.715,3.715,0,0,0,1503.1-2780.093Zm-16.078,0a4.265,4.265,0,0,1,4.26-4.261,4.264,4.264,0,0,1,4.26,4.261,4.264,4.264,0,0,1-4.26,4.26A4.264,4.264,0,0,1,1487.025-2780.093Zm.549,0a3.715,3.715,0,0,0,3.711,3.711,3.715,3.715,0,0,0,3.711-3.711,3.715,3.715,0,0,0-3.711-3.71A3.715,3.715,0,0,0,1487.574-2780.093Zm16.879,2.03a.571.571,0,0,1-.105-.406,2.4,2.4,0,0,1,2.467-1.98,2.4,2.4,0,0,1,2.465,1.975.575.575,0,0,1-.1.406,2.921,2.921,0,0,1-2.364,1.1A2.923,2.923,0,0,1,1504.453-2778.062Zm.341-.354a.145.145,0,0,0,.027.1,2.464,2.464,0,0,0,1.991.914,2.461,2.461,0,0,0,2-.917.147.147,0,0,0,.026-.1,1.959,1.959,0,0,0-2.019-1.595A1.959,1.959,0,0,0,1504.795-2778.416Zm-15.871.354a.571.571,0,0,1-.105-.406,2.4,2.4,0,0,1,2.466-1.98,2.4,2.4,0,0,1,2.466,1.975.575.575,0,0,1-.1.406,2.92,2.92,0,0,1-2.363,1.1A2.923,2.923,0,0,1,1488.924-2778.062Zm.341-.354a.145.145,0,0,0,.027.1,2.465,2.465,0,0,0,1.992.914,2.46,2.46,0,0,0,1.994-.917.138.138,0,0,0,.026-.1,1.96,1.96,0,0,0-2.02-1.6A1.959,1.959,0,0,0,1489.265-2778.416Zm17.549-2.073a1.367,1.367,0,0,1-1.365-1.366,1.35,1.35,0,0,1,.4-.965,1.358,1.358,0,0,1,.967-.4,1.368,1.368,0,0,1,1.367,1.364,1.371,1.371,0,0,1-1.367,1.368ZM1506.815-2780.514ZM1506.816-2780.564Zm-.918-1.291a.919.919,0,0,0,.917.917.918.918,0,0,0,.917-.917.919.919,0,0,0-.917-.918A.919.919,0,0,0,1505.9-2781.855Zm-14.613,1.366a1.367,1.367,0,0,1-1.365-1.366,1.368,1.368,0,0,1,1.365-1.366,1.369,1.369,0,0,1,1.368,1.364,1.371,1.371,0,0,1-1.366,1.368ZM1491.286-2780.514ZM1491.286-2780.564Zm-.918-1.291a.918.918,0,0,0,.918.917.919.919,0,0,0,.917-.917.919.919,0,0,0-.917-.918A.919.919,0,0,0,1490.369-2781.855Zm4.421-3.885a4.265,4.265,0,0,1,4.26-4.26,4.265,4.265,0,0,1,4.261,4.26,4.265,4.265,0,0,1-4.261,4.261A4.265,4.265,0,0,1,1494.789-2785.74Zm.55,0a3.714,3.714,0,0,0,3.71,3.71,3.714,3.714,0,0,0,3.711-3.71,3.714,3.714,0,0,0-3.711-3.71A3.714,3.714,0,0,0,1495.339-2785.74Zm1.349,2.03a.566.566,0,0,1-.1-.406,2.4,2.4,0,0,1,2.467-1.979,2.4,2.4,0,0,1,2.465,1.975.569.569,0,0,1-.1.406,2.92,2.92,0,0,1-2.363,1.1A2.92,2.92,0,0,1,1496.688-2783.71Zm.342-.353a.146.146,0,0,0,.027.1,2.461,2.461,0,0,0,1.991.913,2.455,2.455,0,0,0,1.994-.917.14.14,0,0,0,.027-.1,1.959,1.959,0,0,0-2.019-1.593A1.956,1.956,0,0,0,1497.03-2784.063Zm2.019-2.074a1.368,1.368,0,0,1-1.365-1.366,1.367,1.367,0,0,1,1.365-1.365,1.369,1.369,0,0,1,1.368,1.365,1.367,1.367,0,0,1-1.366,1.367Zm0-.024h0Zm0-.051h0Zm-.918-1.291a.919.919,0,0,0,.918.917.919.919,0,0,0,.917-.917.918.918,0,0,0-.917-.917A.919.919,0,0,0,1498.133-2787.5Z" transform="translate(-1487.025 2791.975)" stroke="#fff" stroke-width="0.05"/>
  </g>
</svg>
