<svg id="ico_matic" xmlns="http://www.w3.org/2000/svg" width="24" height="24" viewBox="0 0 24 24">
  <rect id="長方形_993" data-name="長方形 993" width="24" height="24" fill="none"/>
  <g id="グループ_2352" data-name="グループ 2352" transform="translate(-484 -2876.558)">
    <g id="matic" transform="translate(484 2878)">
      <path id="パス_39951" data-name="パス 39951" d="M18.172,6.354a1.6,1.6,0,0,0-1.5,0L13.159,8.422,10.778,9.738,7.332,11.806a1.6,1.6,0,0,1-1.5,0L3.133,10.177a1.527,1.527,0,0,1-.752-1.316V5.728a1.546,1.546,0,0,1,.752-1.316L5.828,2.845a1.6,1.6,0,0,1,1.5,0l2.695,1.629a1.527,1.527,0,0,1,.752,1.316V7.858L13.159,6.48V4.349a1.546,1.546,0,0,0-.752-1.316L7.394.088a1.6,1.6,0,0,0-1.5,0L.752,3.1A1.378,1.378,0,0,0,0,4.349v5.89a1.546,1.546,0,0,0,.752,1.316L5.828,14.5a1.6,1.6,0,0,0,1.5,0L10.778,12.5l2.381-1.379,3.446-2.005a1.6,1.6,0,0,1,1.5,0L20.8,10.678a1.527,1.527,0,0,1,.752,1.316v3.133a1.546,1.546,0,0,1-.752,1.316L18.172,18.01a1.6,1.6,0,0,1-1.5,0l-2.695-1.567a1.527,1.527,0,0,1-.752-1.316V13.122L10.841,14.5v2.068a1.546,1.546,0,0,0,.752,1.316l5.076,2.945a1.6,1.6,0,0,0,1.5,0l5.076-2.945A1.527,1.527,0,0,0,24,16.568V10.615A1.546,1.546,0,0,0,23.248,9.3Z" transform="translate(0 0.1)" fill="#8247e5"/>
    </g>
  </g>
</svg>
