<svg id="ico_poll" xmlns="http://www.w3.org/2000/svg" width="24.1" height="24" viewBox="0 0 24.1 24">
  <rect id="長方形_740" data-name="長方形 740" width="24" height="24" transform="translate(0)" fill="none"/>
  <path id="合体_23" data-name="合体 23" d="M1470.687-2773.446l-2.69-1.112a6.343,6.343,0,0,1-2.893.692,6.353,6.353,0,0,1-2.289-.421,5.94,5.94,0,0,1-1.875-1.152,5.379,5.379,0,0,1-1.271-1.718,4.985,4.985,0,0,1-.468-2.113,4.99,4.99,0,0,1,.468-2.113,5.386,5.386,0,0,1,1.271-1.717,5.923,5.923,0,0,1,1.875-1.152,6.332,6.332,0,0,1,2.289-.421,6.335,6.335,0,0,1,2.289.421,5.925,5.925,0,0,1,1.875,1.152,5.413,5.413,0,0,1,1.271,1.717,4.989,4.989,0,0,1,.468,2.113,4.994,4.994,0,0,1-.37,1.887,5.284,5.284,0,0,1-.866,1.423l1.284,2.08a.3.3,0,0,1-.026.351.3.3,0,0,1-.229.105A.293.293,0,0,1,1470.687-2773.446Zm-2.592-1.718,1.966.812-.915-1.481a.3.3,0,0,1,.034-.36,4.693,4.693,0,0,0,.9-1.414,4.393,4.393,0,0,0,.326-1.662,4.392,4.392,0,0,0-.412-1.861,4.8,4.8,0,0,0-1.131-1.527,5.35,5.35,0,0,0-1.687-1.036,5.748,5.748,0,0,0-2.074-.382,5.741,5.741,0,0,0-2.074.382,5.354,5.354,0,0,0-1.687,1.036,4.807,4.807,0,0,0-1.13,1.527,4.395,4.395,0,0,0-.413,1.861,4.388,4.388,0,0,0,.413,1.861,4.81,4.81,0,0,0,1.13,1.528,5.358,5.358,0,0,0,1.688,1.036,5.74,5.74,0,0,0,2.074.381,5.705,5.705,0,0,0,2.733-.687.307.307,0,0,1,.143-.036A.294.294,0,0,1,1468.1-2775.165Zm-2-2.54a1.436,1.436,0,0,1-.557-.533,1.468,1.468,0,0,1-.2-.76,1.468,1.468,0,0,1,.2-.76,1.436,1.436,0,0,1,.557-.533,1.647,1.647,0,0,1,.793-.191,1.647,1.647,0,0,1,.793.191,1.435,1.435,0,0,1,.557.53,1.468,1.468,0,0,1,.2.763,1.463,1.463,0,0,1-.2.762,1.43,1.43,0,0,1-.557.531,1.647,1.647,0,0,1-.793.191A1.647,1.647,0,0,1,1466.1-2777.7Zm.315-2.1a.86.86,0,0,0-.331.331.964.964,0,0,0-.121.48.965.965,0,0,0,.121.48.86.86,0,0,0,.331.331.962.962,0,0,0,.478.12.959.959,0,0,0,.478-.12.86.86,0,0,0,.331-.331.965.965,0,0,0,.121-.48.965.965,0,0,0-.121-.48.86.86,0,0,0-.331-.331.959.959,0,0,0-.478-.12A.962.962,0,0,0,1466.411-2779.808Zm-2,2.255a.049.049,0,0,1-.039-.019l-1.449-1.779v1.748a.05.05,0,0,1-.05.051h-.515a.05.05,0,0,1-.05-.051v-2.788a.05.05,0,0,1,.05-.051h.427a.052.052,0,0,1,.039.018l1.449,1.78v-1.748a.05.05,0,0,1,.05-.051h.514a.05.05,0,0,1,.05.051v2.788a.05.05,0,0,1-.05.051Zm-17.339-1.3a.3.3,0,0,1-.027-.351l1.285-2.08a5.265,5.265,0,0,1-.866-1.423,4.975,4.975,0,0,1-.37-1.886,4.982,4.982,0,0,1,.468-2.113,5.374,5.374,0,0,1,1.271-1.718,5.942,5.942,0,0,1,1.875-1.152A6.327,6.327,0,0,1,1453-2790a6.33,6.33,0,0,1,2.289.421,5.942,5.942,0,0,1,1.875,1.152,5.388,5.388,0,0,1,1.271,1.718,4.982,4.982,0,0,1,.468,2.113,4.982,4.982,0,0,1-.468,2.112,5.391,5.391,0,0,1-1.271,1.718,5.919,5.919,0,0,1-1.875,1.152,6.331,6.331,0,0,1-2.289.421,6.338,6.338,0,0,1-2.893-.692l-2.69,1.112a.294.294,0,0,1-.114.022A.3.3,0,0,1,1447.071-2778.855Zm3.851-10.165a5.354,5.354,0,0,0-1.687,1.036,4.794,4.794,0,0,0-1.13,1.527,4.4,4.4,0,0,0-.412,1.862,4.375,4.375,0,0,0,.326,1.661,4.686,4.686,0,0,0,.9,1.414.3.3,0,0,1,.034.36l-.915,1.481,1.965-.812a.3.3,0,0,1,.257.014,5.71,5.71,0,0,0,2.734.687,5.743,5.743,0,0,0,2.073-.381,5.344,5.344,0,0,0,1.687-1.036,4.788,4.788,0,0,0,1.131-1.528,4.384,4.384,0,0,0,.412-1.86,4.394,4.394,0,0,0-.412-1.862,4.8,4.8,0,0,0-1.131-1.527,5.339,5.339,0,0,0-1.687-1.036,5.744,5.744,0,0,0-2.073-.382A5.744,5.744,0,0,0,1450.922-2789.021Zm3.882,6.184a1.344,1.344,0,0,1-.494-.253.047.047,0,0,1-.013-.058l.179-.4a.052.052,0,0,1,.033-.028.049.049,0,0,1,.043.01,1.361,1.361,0,0,0,.406.212,1.483,1.483,0,0,0,.483.084.829.829,0,0,0,.437-.092.255.255,0,0,0,.13-.221.2.2,0,0,0-.069-.16.561.561,0,0,0-.2-.111c-.086-.029-.205-.062-.355-.1a4.2,4.2,0,0,1-.522-.153.9.9,0,0,1-.358-.251.689.689,0,0,1-.154-.469.8.8,0,0,1,.134-.448.9.9,0,0,1,.4-.319,1.582,1.582,0,0,1,.64-.116,2.071,2.071,0,0,1,.515.066,1.412,1.412,0,0,1,.441.19.05.05,0,0,1,.019.06l-.163.4a.051.051,0,0,1-.031.029.051.051,0,0,1-.041,0,1.571,1.571,0,0,0-.371-.158,1.371,1.371,0,0,0-.373-.054.766.766,0,0,0-.428.1.27.27,0,0,0-.128.233.2.2,0,0,0,.069.158.578.578,0,0,0,.2.109c.085.029.205.062.355.1a3.792,3.792,0,0,1,.516.151.927.927,0,0,1,.36.25.673.673,0,0,1,.154.463.791.791,0,0,1-.133.447.911.911,0,0,1-.4.317,1.607,1.607,0,0,1-.642.116A2.166,2.166,0,0,1,1454.8-2782.837Zm-2.9.054a.05.05,0,0,1-.05-.05v-2.789a.05.05,0,0,1,.05-.05h2.037a.05.05,0,0,1,.05.05v.435a.05.05,0,0,1-.05.049h-1.469v.625h1.3a.05.05,0,0,1,.05.05v.427a.049.049,0,0,1-.05.05h-1.3v.67H1454a.05.05,0,0,1,.049.05v.435a.049.049,0,0,1-.049.05Zm-1.908,0a.05.05,0,0,1-.05-.05v-.962l-1.088-1.8a.048.048,0,0,1,0-.05.049.049,0,0,1,.043-.026h.554a.051.051,0,0,1,.042.024l.774,1.288.782-1.288a.049.049,0,0,1,.043-.024h.509a.05.05,0,0,1,.044.026.052.052,0,0,1,0,.05l-1.084,1.793v.97a.05.05,0,0,1-.05.05Z" transform="translate(-1447 2794)" />
</svg>
