<svg width="32" height="32" viewBox="0 0 32 32" fill="none" xmlns="http://www.w3.org/2000/svg">
<rect width="32" height="32" rx="4" fill="#E8F5FB"/>
<g clip-path="url(#clip0_4055_29781)">
<path d="M15.7188 13.0312C15.8125 13.0312 15.9062 13 16 13C17.6562 13 19 14.3438 19 16C19 17.6562 17.6562 19 16 19C14.3125 19 13 17.6562 13 16C13 15.9375 13 15.8438 13 15.75C13.2812 15.9062 13.625 16 14 16C15.0938 16 16 15.125 16 14C16 13.6562 15.875 13.3125 15.7188 13.0312ZM22 11.5312C23.4688 12.875 24.4375 14.5 24.9062 15.625C25 15.875 25 16.1562 24.9062 16.4062C24.4375 17.5 23.4688 19.125 22 20.5C20.5312 21.875 18.5 23 16 23C13.4688 23 11.4375 21.875 9.96875 20.5C8.5 19.125 7.53125 17.5 7.0625 16.4062C6.96875 16.1562 6.96875 15.875 7.0625 15.625C7.53125 14.5 8.5 12.875 9.96875 11.5312C11.4375 10.1562 13.4688 9 16 9C18.5 9 20.5312 10.1562 22 11.5312ZM16 11.5C13.5 11.5 11.5 13.5312 11.5 16C11.5 18.5 13.5 20.5 16 20.5C18.4688 20.5 20.5 18.5 20.5 16C20.5 13.5312 18.4688 11.5 16 11.5Z" fill="#199BD8"/>
</g>
<defs>
<clipPath id="clip0_4055_29781">
<rect width="16" height="16" fill="white" transform="translate(8 8)"/>
</clipPath>
</defs>
</svg>
