<svg width="20" height="18" viewBox="0 0 20 18" fill="none" xmlns="http://www.w3.org/2000/svg">
<path fill-rule="evenodd" clip-rule="evenodd" d="M9.37835 2.88622C7.66902 1.10486 4.79049 1.0794 2.92308 2.90387C2.91717 2.90965 2.91116 2.91534 2.90506 2.92092C1.09331 4.58038 1.06654 7.35771 2.92308 9.17156L2.92796 9.17632L9.93739 16.1469L17.0769 9.17156C17.0828 9.16578 17.0888 9.16009 17.0949 9.15451C18.9067 7.49505 18.9335 4.71772 17.0769 2.90387C15.2195 1.08919 12.3268 1.08919 10.4694 2.90387C10.3227 3.04722 10.125 3.12596 9.92021 3.12264C9.71541 3.11933 9.52038 3.03424 9.37835 2.88622ZM9.94652 1.31813C7.59468 -0.596128 4.12292 -0.413992 1.85838 1.79012C-0.631976 4.08049 -0.603142 7.87784 1.84702 10.2742C1.84785 10.275 1.84869 10.2759 1.84952 10.2767L9.39099 17.7763C9.68898 18.0727 10.1688 18.0748 10.4694 17.7811L18.1419 10.2851C20.6328 7.99388 20.603 4.19491 18.1505 1.79876C15.8724 -0.426948 12.397 -0.587158 9.94652 1.31813Z" fill="#9A5AFF"/>
</svg>
