<svg width="13" height="13" viewBox="0 0 13 13" fill="none" xmlns="http://www.w3.org/2000/svg">
<path d="M1.25 2C1.25 1.17969 1.90625 0.5 2.75 0.5H6.5C7.32031 0.5 8 1.17969 8 2V6.5H8.1875C9.3125 6.5 10.25 7.4375 10.25 8.5625V9.3125C10.25 9.64062 10.4844 9.875 10.8125 9.875C11.1172 9.875 11.375 9.64062 11.375 9.3125V5.70312C10.7188 5.53906 10.25 4.95312 10.25 4.25V2.75L9.5 2C9.28906 1.8125 9.28906 1.46094 9.5 1.25C9.6875 1.0625 10.0391 1.0625 10.25 1.25L12.0547 3.07812C12.3359 3.35938 12.5 3.73438 12.5 4.13281V9.3125C12.5 10.25 11.7266 11 10.8125 11C9.875 11 9.125 10.25 9.125 9.3125V8.5625C9.125 8.04688 8.70312 7.625 8.1875 7.625H8V11C8.39844 11 8.75 11.3516 8.75 11.75C8.75 12.1719 8.39844 12.5 8 12.5H1.25C0.828125 12.5 0.5 12.1719 0.5 11.75C0.5 11.3516 0.828125 11 1.25 11V2ZM2.75 4.625C2.75 4.83594 2.91406 5 3.125 5H6.125C6.3125 5 6.5 4.83594 6.5 4.625V2.375C6.5 2.1875 6.3125 2 6.125 2H3.125C2.91406 2 2.75 2.1875 2.75 2.375V4.625Z" fill="url(#paint0_linear_467_384)"/>
<defs>
<linearGradient id="paint0_linear_467_384" x1="-2" y1="-27.7297" x2="15.126" y2="-27.6918" gradientUnits="userSpaceOnUse">
<stop stop-color="#12B4FF"/>
<stop offset="1" stop-color="#E100FF"/>
</linearGradient>
</defs>
</svg>
