<svg id="ico_project" xmlns="http://www.w3.org/2000/svg" width="24" height="24.1" viewBox="0 0 24 24.1">
  <rect id="長方形_647" data-name="長方形 647" width="24" height="24" fill="none"/>
  <path id="合体_9" data-name="合体 9" d="M8.193,1618a.863.863,0,0,1-.976-.826.378.378,0,0,0-.3-.367.967.967,0,0,1-.725-.939c-.021-1.04-.01-2.082-.01-3.123a.273.273,0,0,1,.025-.159.5.5,0,0,0,.1-.469c-.022-.1-.057-.192-.081-.285a12.155,12.155,0,0,0-1.525-3.513q-.158-.244-.305-.5c-.124-.209-.238-.421-.338-.636a5.614,5.614,0,0,1-.417-1.175,6,6,0,0,1-.171-1.5,5.934,5.934,0,0,1,1.1-3.585.523.523,0,0,1,.051-.088,6.5,6.5,0,0,1,2.365-2.047,5.9,5.9,0,0,1,2.851-.669,5.905,5.905,0,0,1,2.851.669,6.5,6.5,0,0,1,2.364,2.047.468.468,0,0,1,.051.088,6.462,6.462,0,0,1,.929,5.083,5.611,5.611,0,0,1-.416,1.175q-.151.323-.339.637c-.1.167-.2.332-.305.495a12.129,12.129,0,0,0-1.524,3.513c-.025.094-.059.189-.081.285h0a.985.985,0,0,0,.042.337,2.192,2.192,0,0,1,.079.362c.006.97.009,1.94,0,2.911a1.074,1.074,0,0,1-.847,1.119c-.127.038-.149.1-.161.214a.911.911,0,0,1-.676.909,1.354,1.354,0,0,1-.325.031H8.193Zm.076-.7h3.161c.3,0,.368-.084.32-.407H7.9C7.911,1617.258,7.946,1617.295,8.268,1617.295ZM6.9,1613.445h0v2.206a.9.9,0,0,0,0,.156v0c.025.265.192.365.544.365h4.789c.432,0,.554-.122.554-.561q0-1.256,0-2.512c0-.082-.011-.164-.015-.244H6.9Zm2.31-14.568a6.379,6.379,0,0,0-1.849.521,5.793,5.793,0,0,0-.918.588,11.716,11.716,0,0,0-1.229,1.245,6.62,6.62,0,0,0-.735,1.465c-.057.157-.105.314-.148.47a5.735,5.735,0,0,0-.122,1.971,5.593,5.593,0,0,0,.63,2.023c.042.076.085.153.131.229l.22.367c.007.01.013.021.02.031a12.626,12.626,0,0,1,1.8,4.176.8.8,0,0,0,.026.082.282.282,0,0,0,.075.072.094.094,0,0,0,.04.014c.4.013.794.007,1.217.007v-.022c0-.352-.021-.669.009-.98a2.144,2.144,0,0,1,.188-.509.489.489,0,0,0,.064-.205,12.593,12.593,0,0,0-.6-2.689L8,1607.664c-.068-.176-.142-.349-.214-.524-.006-.013-.012-.028-.018-.041a1.091,1.091,0,0,1-.078-.22.025.025,0,0,0,0-.008.484.484,0,0,1,0-.23.339.339,0,0,1,.177-.238.514.514,0,0,1,.429,0,.5.5,0,0,1,.147.07.37.37,0,0,0,.088.05.366.366,0,0,0,.317-.059.738.738,0,0,1,.5-.1h0l.03.005a.84.84,0,0,1,.278.11.322.322,0,0,0,.385,0,.828.828,0,0,1,.277-.11l.03-.005h0a.736.736,0,0,1,.5.1.367.367,0,0,0,.317.059.354.354,0,0,0,.088-.05.519.519,0,0,1,.148-.07.512.512,0,0,1,.428,0,.341.341,0,0,1,.178.238.5.5,0,0,1,0,.23s0,.005,0,.008a1.035,1.035,0,0,1-.077.22l-.019.041c-.071.175-.147.347-.213.524-.009.023-.017.046-.025.068a12.6,12.6,0,0,0-.6,2.689.5.5,0,0,0,.065.205,2.141,2.141,0,0,1,.187.509c.031.311.01.628.009.98H12.57a.282.282,0,0,0,.075-.072.8.8,0,0,0,.025-.082,12.646,12.646,0,0,1,1.8-4.176l.019-.031.22-.367c.046-.076.089-.152.131-.229a5.574,5.574,0,0,0,.629-2.023,5.752,5.752,0,0,0-.121-1.97c-.042-.156-.092-.314-.148-.471a6.582,6.582,0,0,0-.735-1.465,11.708,11.708,0,0,0-1.228-1.245,5.855,5.855,0,0,0-.918-.588,6.385,6.385,0,0,0-1.85-.521,5.772,5.772,0,0,0-.63-.049A5.788,5.788,0,0,0,9.207,1598.877Zm-.118,13.239h1.5v-.5h-1.5Zm.134-5.025a.4.4,0,0,0-.1.016c-.16.051-.314.126-.446.182.239,1.038.483,2.09.731,3.164h.851c.248-1.074.491-2.126.732-3.164-.133-.056-.286-.13-.447-.182a.384.384,0,0,0-.094-.016.275.275,0,0,0-.137.029.893.893,0,0,1-.956,0,.274.274,0,0,0-.13-.029ZM2.9,1610.8a.353.353,0,0,1,0-.524q.521-.541,1.063-1.062a.349.349,0,1,1,.483.5c-.172.183-.353.355-.529.533s-.34.346-.516.514a.413.413,0,0,1-.282.127A.331.331,0,0,1,2.9,1610.8Zm13.385-.032q-.541-.521-1.062-1.063a.355.355,0,0,1,0-.508.351.351,0,0,1,.506.024c.183.172.355.353.533.53s.346.339.514.515a.354.354,0,0,1,.038.5.338.338,0,0,1-.253.115A.392.392,0,0,1,16.28,1610.771Zm1.515-6.59a.356.356,0,0,1-.363-.356.351.351,0,0,1,.375-.34c.25-.007.5,0,.751,0s.485-.005.728,0a.35.35,0,1,1,.011.7q-.375.007-.751.007T17.795,1604.182Zm-16.72,0c-.226,0-.453.006-.679,0a.365.365,0,0,1-.4-.347c0-.207.155-.351.408-.354.453,0,.905,0,1.358,0a.351.351,0,1,1,.012.7c-.1,0-.191.005-.286.005Zm14.2-5.774a.352.352,0,0,1,.015-.522c.158-.173.329-.333.495-.5s.316-.324.481-.478a.364.364,0,0,1,.526-.035.359.359,0,0,1-.039.538q-.475.485-.959.959a.419.419,0,0,1-.289.135A.328.328,0,0,1,15.27,1598.413Zm-11.38-.029c-.172-.158-.333-.329-.5-.495s-.324-.316-.478-.481a.364.364,0,0,1-.035-.526.359.359,0,0,1,.538.038q.485.475.959.96a.35.35,0,0,1,.036.519.332.332,0,0,1-.241.107A.419.419,0,0,1,3.891,1598.384Zm5.6-2.606c-.01-.234,0-.468,0-.7s-.006-.453,0-.679a.365.365,0,0,1,.347-.4c.207,0,.351.155.354.408q.007.679,0,1.358a.351.351,0,0,1-.342.392H9.839A.354.354,0,0,1,9.486,1595.777Z" transform="translate(2.165 -1593.95)" fill="#fff"/>
  <path id="合体_9_-_アウトライン" data-name="合体 9 - アウトライン" d="M9.554,1618.05H8.193a.914.914,0,0,1-1.025-.868c-.031-.177-.067-.267-.262-.328a1.014,1.014,0,0,1-.76-.985c-.015-.775-.013-1.564-.011-2.327q0-.4,0-.8v-.019a.266.266,0,0,1,.037-.173.449.449,0,0,0,.086-.426c-.012-.053-.029-.108-.045-.161s-.025-.082-.036-.123a12.161,12.161,0,0,0-1.518-3.5c-.1-.159-.206-.327-.306-.5-.126-.213-.241-.428-.341-.64a5.641,5.641,0,0,1-.42-1.186,6.077,6.077,0,0,1-.172-1.51,6,6,0,0,1,1.106-3.609.579.579,0,0,1,.054-.092,6.567,6.567,0,0,1,2.384-2.063,5.989,5.989,0,0,1,2.874-.674h.086a5.958,5.958,0,0,1,2.788.675,6.569,6.569,0,0,1,2.382,2.062.511.511,0,0,1,.054.093,6.513,6.513,0,0,1,.934,5.12,5.636,5.636,0,0,1-.419,1.185c-.1.213-.215.429-.342.641-.092.158-.2.326-.306.5a12.135,12.135,0,0,0-1.517,3.5c-.01.038-.022.076-.033.114-.017.056-.035.113-.047.17l-.007.032a.777.777,0,0,0,.028.2c.006.029.013.057.018.085a1.373,1.373,0,0,0,.034.133.881.881,0,0,1,.046.237c.008,1.175.008,2.072,0,2.911a1.129,1.129,0,0,1-.883,1.166c-.1.03-.115.073-.126.172a.949.949,0,0,1-.713.952,1.417,1.417,0,0,1-.337.032Zm.2-19.878a5.854,5.854,0,0,0-2.741.664,6.469,6.469,0,0,0-2.348,2.033.468.468,0,0,0-.046.08l0,.008a5.906,5.906,0,0,0-1.091,3.555A5.981,5.981,0,0,0,3.69,1606a5.544,5.544,0,0,0,.413,1.166c.1.209.211.422.336.632.1.17.2.336.3.494a12.26,12.26,0,0,1,1.531,3.527c.01.039.022.079.035.119s.034.111.047.168a.547.547,0,0,1-.107.512.232.232,0,0,0-.013.107v.02q0,.4,0,.8c0,.762,0,1.55.011,2.324a.919.919,0,0,0,.689.892.426.426,0,0,1,.331.406.812.812,0,0,0,.926.785q1.643,0,3.286,0a1.327,1.327,0,0,0,.313-.029c.389-.1.586-.367.638-.866a.252.252,0,0,1,.2-.257,1.026,1.026,0,0,0,.811-1.071c.007-.839.007-1.736,0-2.91a.8.8,0,0,0-.042-.21c-.013-.046-.027-.094-.036-.143,0-.027-.011-.054-.017-.081a.689.689,0,0,1-.025-.275l.008-.041h.006c.012-.047.026-.093.04-.138s.023-.074.032-.11a12.234,12.234,0,0,1,1.53-3.527c.11-.17.212-.336.3-.493.125-.21.239-.423.337-.633a5.538,5.538,0,0,0,.412-1.165,6.412,6.412,0,0,0-.921-5.043l0-.008a.412.412,0,0,0-.046-.079,6.473,6.473,0,0,0-2.347-2.033,5.86,5.86,0,0,0-2.742-.664Zm.1,19.173H8.268c-.352,0-.406-.06-.418-.455l0-.052h3.944l.006.043c.028.193.015.3-.045.37s-.152.094-.325.094Zm-1.9-.407c.011.3.045.307.316.307h3.161c.137,0,.214-.018.249-.06s.044-.115.028-.247Zm1.884-.712H7.442c-.389,0-.567-.123-.594-.41v-.008a.906.906,0,0,1,0-.16v-2.839h5.971l0,.047c0,.029,0,.058.006.088,0,.052.008.1.009.158q0,1.256,0,2.512c0,.468-.142.611-.6.611Zm-2.89-2.83v2.256a.882.882,0,0,0,0,.151v.009c.018.187.109.314.495.314h4.789c.4,0,.5-.1.5-.511q0-1.255,0-2.512c0-.049,0-.1-.009-.151l0-.043H6.947Zm.844-1.206c-.19,0-.415,0-.647-.008a.143.143,0,0,1-.064-.021.338.338,0,0,1-.089-.085l-.007-.012a.85.85,0,0,1-.028-.087,12.63,12.63,0,0,0-1.791-4.161l-.011-.017-.008-.012-.02-.033-.2-.338c-.049-.081-.094-.162-.132-.23a5.607,5.607,0,0,1-.636-2.042,5.815,5.815,0,0,1,.123-1.988c.046-.168.1-.328.149-.475a6.7,6.7,0,0,1,.741-1.476l.005-.006c.111-.117.222-.24.329-.359a7.255,7.255,0,0,1,.9-.891,5.874,5.874,0,0,1,.926-.593,6.452,6.452,0,0,1,1.866-.526,5.919,5.919,0,0,1,.636-.049h0a5.868,5.868,0,0,1,.635.049,6.46,6.46,0,0,1,1.865.525,5.93,5.93,0,0,1,.928.594,7.207,7.207,0,0,1,.9.889c.108.119.219.243.331.36l.005.006a6.66,6.66,0,0,1,.741,1.476c.056.155.107.315.15.475a5.828,5.828,0,0,1,.122,1.989,5.587,5.587,0,0,1-.635,2.041c-.038.069-.084.15-.133.231l-.22.367-.02.032a12.652,12.652,0,0,0-1.792,4.16.782.782,0,0,1-.025.082l0,.011h.053l-.106.1H11.259v-.1h0c0-.084,0-.165,0-.245a5.843,5.843,0,0,0-.013-.681,1.051,1.051,0,0,0-.112-.329c-.025-.054-.051-.111-.072-.167-.007-.018-.015-.036-.023-.054a.337.337,0,0,1-.044-.175,12.561,12.561,0,0,1,.606-2.7l0-.012c.007-.019.014-.039.021-.058.044-.117.093-.235.141-.349l.072-.175.02-.044a1,1,0,0,0,.074-.209l0-.006a.011.011,0,0,1,0,0,.441.441,0,0,0,0-.2.292.292,0,0,0-.152-.206.307.307,0,0,0-.163-.043.739.739,0,0,0-.227.044.476.476,0,0,0-.133.063.365.365,0,0,1-.46-.006.691.691,0,0,0-.463-.1l-.03.005a.78.78,0,0,0-.26.1.37.37,0,0,1-.437,0,.8.8,0,0,0-.262-.1l-.029-.005a.689.689,0,0,0-.463.1.409.409,0,0,1-.358.063.421.421,0,0,1-.1-.057.459.459,0,0,0-.133-.063.738.738,0,0,0-.227-.044.306.306,0,0,0-.161.041.291.291,0,0,0-.154.206.437.437,0,0,0,0,.208.046.046,0,0,1,0,.014,1.075,1.075,0,0,0,.074.205l.009.022.008.019.063.152c.051.122.1.249.152.375l.026.069a12.539,12.539,0,0,1,.6,2.7.332.332,0,0,1-.044.176c-.008.018-.016.036-.023.053-.021.056-.047.112-.072.165a1.074,1.074,0,0,0-.113.332,6.057,6.057,0,0,0-.013.683c0,.095,0,.192,0,.292v.072H7.791Zm-.716-.169a.226.226,0,0,0,.056.053.049.049,0,0,0,.018.008c.229.007.453.008.642.008h.521c0-.089,0-.177,0-.262a6.131,6.131,0,0,1,.013-.694,1.163,1.163,0,0,1,.122-.364c.024-.052.049-.106.069-.158.007-.019.016-.039.025-.059a.264.264,0,0,0,.036-.121,12.447,12.447,0,0,0-.6-2.679l-.025-.069c-.048-.124-.1-.25-.151-.371l-.063-.15-.009-.021-.008-.019a1.154,1.154,0,0,1-.082-.231v-.01a.533.533,0,0,1,0-.25.389.389,0,0,1,.2-.27.4.4,0,0,1,.209-.054.833.833,0,0,1,.258.049.549.549,0,0,1,.162.078.268.268,0,0,0,.349-.012.789.789,0,0,1,.525-.111h.006l.029.005a.9.9,0,0,1,.3.116.272.272,0,0,0,.334,0,.879.879,0,0,1,.293-.116l.035-.006a.792.792,0,0,1,.527.111.315.315,0,0,0,.275.054.3.3,0,0,0,.074-.042.571.571,0,0,1,.162-.078.834.834,0,0,1,.259-.049.4.4,0,0,1,.211.055.386.386,0,0,1,.2.271.538.538,0,0,1,0,.251v.005a.01.01,0,0,1,0,0,1.1,1.1,0,0,1-.081.229l-.019.042-.072.173c-.047.113-.1.23-.14.347-.007.019-.014.037-.02.055l0,.012a12.465,12.465,0,0,0-.6,2.679.269.269,0,0,0,.036.121c.009.02.018.041.026.061.02.053.045.108.07.161a1.139,1.139,0,0,1,.121.362,5.913,5.913,0,0,1,.013.692c0,.08,0,.161,0,.244h1.191a.256.256,0,0,0,.046-.047.679.679,0,0,0,.021-.069,12.751,12.751,0,0,1,1.805-4.193l.018-.03.22-.366c.048-.08.093-.159.13-.227a5.488,5.488,0,0,0,.623-2,5.727,5.727,0,0,0-.119-1.953c-.042-.156-.092-.313-.147-.465a6.565,6.565,0,0,0-.727-1.451c-.112-.118-.223-.24-.33-.359a7.138,7.138,0,0,0-.889-.877,5.828,5.828,0,0,0-.91-.583,6.366,6.366,0,0,0-1.834-.516,5.739,5.739,0,0,0-.623-.048,5.757,5.757,0,0,0-.624.048,6.351,6.351,0,0,0-1.835.517,5.765,5.765,0,0,0-.908.582,7.186,7.186,0,0,0-.892.879c-.107.118-.217.24-.328.357a6.6,6.6,0,0,0-.727,1.451c-.053.145-.1.3-.146.466a5.714,5.714,0,0,0-.12,1.953,5.508,5.508,0,0,0,.625,2.005c.037.067.082.146.13.226l.2.339.017.029.01.015.008.012a12.73,12.73,0,0,1,1.806,4.194C7.059,1611.973,7.067,1612,7.075,1612.02Zm3.562.146h-1.6v-.6h1.6Zm-1.5-.1h1.4v-.4h-1.4Zm-6.021-1.123a.381.381,0,0,1-.256-.1.39.39,0,0,1-.131-.277.439.439,0,0,1,.132-.318c.361-.375.719-.733,1.064-1.063a.43.43,0,0,1,.3-.123.389.389,0,0,1,.283.12.4.4,0,0,1-.025.575c-.117.124-.239.245-.358.362l-.172.172-.156.157c-.117.118-.238.24-.361.357A.461.461,0,0,1,3.118,1610.943Zm1.105-1.784a.33.33,0,0,0-.227.1c-.344.33-.7.687-1.061,1.061a.341.341,0,0,0-.1.246.291.291,0,0,0,.1.206.309.309,0,0,0,.437-.037c.122-.116.242-.238.358-.355l.156-.158.173-.172c.118-.117.24-.237.355-.36a.3.3,0,0,0,.025-.437A.289.289,0,0,0,4.224,1609.159Zm12.328,1.78a.444.444,0,0,1-.306-.131c-.364-.35-.722-.708-1.063-1.064a.406.406,0,0,1,0-.579.378.378,0,0,1,.265-.11.451.451,0,0,1,.309.134c.128.121.253.248.374.37l.159.161.14.139c.124.122.252.249.374.377a.4.4,0,0,1,.039.573A.388.388,0,0,1,16.551,1610.939Zm-1.107-1.785a.28.28,0,0,0-.2.082.307.307,0,0,0,.006.438c.341.355.7.712,1.061,1.062a.345.345,0,0,0,.236.1.288.288,0,0,0,.216-.1.305.305,0,0,0-.037-.437c-.121-.127-.249-.253-.372-.375l-.141-.139-.16-.161c-.12-.122-.245-.248-.372-.368A.353.353,0,0,0,15.444,1609.154ZM10.3,1610.5h-.93l-.009-.039q-.2-.876-.4-1.734l-.33-1.429-.009-.041.039-.016.108-.047a3.545,3.545,0,0,1,.342-.136.447.447,0,0,1,.108-.019H9.23a.322.322,0,0,1,.155.035.836.836,0,0,0,.906,0,.318.318,0,0,1,.155-.036h.007a.439.439,0,0,1,.109.019,3.445,3.445,0,0,1,.338.134l.113.049.039.016-.01.041-.443,1.914Zm-.85-.1h.771l.28-1.211.433-1.873-.076-.033a3.321,3.321,0,0,0-.328-.131.34.34,0,0,0-.082-.014h0a.224.224,0,0,0-.105.022.942.942,0,0,1-1.006,0,.226.226,0,0,0-.105-.022H9.225a.341.341,0,0,0-.082.014,3.459,3.459,0,0,0-.332.132l-.071.031.321,1.388Q9.254,1609.547,9.452,1610.4Zm9.094-6.163c-.254,0-.507,0-.752-.008a.407.407,0,0,1-.412-.407.4.4,0,0,1,.424-.389c.088,0,.183,0,.3,0l.454,0,.44,0c.11,0,.2,0,.29,0a.4.4,0,0,1,.432.378.388.388,0,0,1-.1.287.44.44,0,0,1-.319.133C19.037,1604.237,18.784,1604.24,18.546,1604.24Zm-.442-.708c-.114,0-.208,0-.3,0a.3.3,0,1,0-.013.6c.245.005.5.008.75.008s.49,0,.75-.007a.342.342,0,0,0,.247-.1.289.289,0,0,0,.076-.214.3.3,0,0,0-.335-.283c-.086,0-.178,0-.287,0l-.439,0Zm-16.613.708-.417,0-.412,0c-.1,0-.189,0-.268,0a.417.417,0,0,1-.444-.4.369.369,0,0,1,.1-.271.493.493,0,0,1,.355-.134l.68,0c.241,0,.463,0,.68,0a.4.4,0,0,1,.441.39.4.4,0,0,1-.428.409C1.694,1604.237,1.6,1604.239,1.491,1604.239Zm-.417-.1.417,0c.11,0,.2,0,.284-.005.208-.008.335-.126.332-.307s-.133-.29-.342-.292-.438,0-.678,0-.452,0-.679,0a.4.4,0,0,0-.284.1.271.271,0,0,0-.074.2c0,.176.137.291.348.3.078,0,.162,0,.265,0Zm14.426-5.574a.377.377,0,0,1-.265-.113.4.4,0,0,1,.013-.592c.112-.122.232-.24.348-.353l.149-.147.154-.156c.106-.108.216-.219.328-.324a.486.486,0,0,1,.329-.145.377.377,0,0,1,.265.11.369.369,0,0,1,.119.265.492.492,0,0,1-.157.345c-.342.349-.656.663-.96.96A.468.468,0,0,1,15.5,1598.562Zm1.056-1.729a.389.389,0,0,0-.261.118c-.111.1-.22.214-.325.321l-.155.156-.149.148c-.115.113-.234.229-.344.349a.3.3,0,1,0,.432.416c.3-.3.617-.61.959-.959a.394.394,0,0,0,.128-.273.271.271,0,0,0-.088-.194A.279.279,0,0,0,16.557,1596.833Zm-12.385,1.725a.467.467,0,0,1-.315-.137c-.122-.112-.24-.233-.354-.349l-.146-.148-.144-.143c-.111-.11-.226-.223-.335-.339a.415.415,0,0,1-.035-.594.369.369,0,0,1,.271-.12.487.487,0,0,1,.339.156c.328.322.651.645.96.961a.4.4,0,0,1,.036.589A.381.381,0,0,1,4.172,1598.557Zm-1.058-1.729a.272.272,0,0,0-.2.089.317.317,0,0,0,.036.457c.107.115.221.227.332.336l.145.143.147.148c.113.115.23.235.351.345a.308.308,0,0,0,.452.018.3.3,0,0,0-.036-.449c-.308-.315-.631-.638-.959-.96A.4.4,0,0,0,3.114,1596.828Zm6.725-.62a.406.406,0,0,1-.4-.429c-.007-.163-.005-.327,0-.487,0-.072,0-.145,0-.217s0-.138,0-.207c0-.155,0-.316,0-.475a.415.415,0,0,1,.4-.444h.009a.41.41,0,0,1,.4.457c0,.451,0,.908,0,1.359a.4.4,0,0,1-.391.442Zm0-2.158H9.834a.317.317,0,0,0-.3.348c-.006.157,0,.316,0,.47,0,.069,0,.138,0,.207s0,.146,0,.218c0,.158,0,.322,0,.482a.3.3,0,0,0,.3.333v.05l0-.05c.181,0,.293-.135.3-.343,0-.45,0-.907,0-1.357C10.134,1594.19,10.018,1594.05,9.841,1594.05Z" transform="translate(2.165 -1593.95)" fill="#fff"/>
</svg>
