<svg xmlns="http://www.w3.org/2000/svg" width="25.88" height="24" viewBox="0 0 25.88 24">
  <g id="ico_metamask" transform="translate(0 0)">
    <path id="パス_73" data-name="パス 73" d="M184.659,35.5,174.6,42.971l1.86-4.408Z" transform="translate(-160.113 -35.449)" fill="#e2761b"/>
    <path id="パス_73_-_アウトライン" data-name="パス 73 - アウトライン" d="M184.209,35a.051.051,0,0,1,.03.091l-10.059,7.471a.051.051,0,0,1-.077-.06l1.86-4.408a.051.051,0,0,1,.029-.028l8.2-3.063A.05.05,0,0,1,184.209,35Zm-9.94,7.37,9.624-7.148-7.844,2.931Z" transform="translate(-159.664 -35)" fill="#e2761b"/>
    <g id="グループ_242" data-name="グループ 242" transform="translate(0.212)">
      <path id="パス_74" data-name="パス 74" d="M44.4,35.5l9.978,7.542-1.769-4.479Z" transform="translate(-43.288 -35.449)" fill="#e4761b"/>
      <path id="パス_74_-_アウトライン" data-name="パス 74 - アウトライン" d="M43.951,35a.05.05,0,0,1,.018,0l8.209,3.063a.051.051,0,0,1,.029.029l1.769,4.479a.051.051,0,0,1-.077.059L43.92,35.091a.051.051,0,0,1,.03-.091Zm8.17,3.153-7.864-2.934,9.558,7.224Z" transform="translate(-42.838 -35)" fill="#e4761b"/>
      <path id="パス_75" data-name="パス 75" d="M214.479,206.8l-2.679,4.1,5.732,1.577,1.648-5.591Z" transform="translate(-193.765 -189.432)" fill="#e4761b"/>
      <path id="パス_75_-_アウトライン" data-name="パス 75 - アウトライン" d="M214.03,206.3h0l4.7.091a.051.051,0,0,1,.048.065l-1.648,5.591a.051.051,0,0,1-.062.034l-5.732-1.577a.051.051,0,0,1-.029-.076l2.679-4.1A.051.051,0,0,1,214.03,206.3Zm4.634.191-4.607-.089-2.626,4.023,5.617,1.546Z" transform="translate(-193.315 -188.982)" fill="#e4761b"/>
      <path id="パス_76" data-name="パス 76" d="M33.9,206.891l1.638,5.591L41.27,210.9l-2.679-4.1Z" transform="translate(-33.849 -189.432)" fill="#e4761b"/>
      <path id="パス_76_-_アウトライン" data-name="パス 76 - アウトライン" d="M38.141,206.3a.051.051,0,0,1,.042.023l2.679,4.1a.051.051,0,0,1-.029.076L35.1,212.081a.051.051,0,0,1-.062-.035L33.4,206.456a.051.051,0,0,1,.048-.065l4.691-.091Zm2.6,4.125L38.114,206.4l-4.6.089,1.605,5.479Z" transform="translate(-33.4 -188.982)" fill="#e4761b"/>
      <path id="パス_77" data-name="パス 77" d="M89.4,107.547l-1.6,2.416,5.692.253-.2-6.116Z" transform="translate(-82.3 -97.114)" fill="#e4761b"/>
      <path id="パス_77_-_アウトライン" data-name="パス 77 - アウトライン" d="M93.042,109.817h0l-5.692-.253a.051.051,0,0,1-.04-.078l1.6-2.416.009-.01,3.892-3.447a.051.051,0,0,1,.084.036l.2,6.116a.051.051,0,0,1-.051.052Zm-5.6-.35,5.548.246-.2-5.954-3.807,3.372Z" transform="translate(-81.851 -96.665)" fill="#e4761b"/>
      <path id="パス_78" data-name="パス 78" d="M178.674,106.918l-3.943-3.518-.131,6.187,5.682-.253Z" transform="translate(-160.325 -96.485)" fill="#e4761b"/>
      <path id="パス_78_-_アウトライン" data-name="パス 78 - アウトライン" d="M174.151,109.188a.051.051,0,0,1-.051-.052l.131-6.187a.051.051,0,0,1,.084-.037l3.943,3.518.008.01,1.607,2.416a.051.051,0,0,1-.04.078l-5.682.253Zm.18-6.127-.128,6.023,5.538-.246-1.554-2.336Z" transform="translate(-159.876 -96.036)" fill="#e4761b"/>
      <path id="パス_79" data-name="パス 79" d="M106.8,212.073l3.417-1.668-2.952-2.3Z" transform="translate(-99.38 -190.6)" fill="#e4761b"/>
      <path id="パス_79_-_アウトライン" data-name="パス 79 - アウトライン" d="M106.351,211.674a.051.051,0,0,1-.05-.056l.465-3.973a.051.051,0,0,1,.081-.034l2.952,2.3a.051.051,0,0,1-.009.085l-3.417,1.668A.05.05,0,0,1,106.351,211.674Zm.5-3.928-.444,3.792,3.261-1.592Z" transform="translate(-98.93 -190.151)" fill="#e4761b"/>
      <path id="パス_80" data-name="パス 80" d="M177.9,210.4l3.427,1.668-.475-3.973Z" transform="translate(-163.292 -190.6)" fill="#e4761b"/>
      <path id="パス_80_-_アウトライン" data-name="パス 80 - アウトライン" d="M180.878,211.674a.05.05,0,0,1-.022-.005L177.428,210a.051.051,0,0,1-.009-.085l2.952-2.3a.051.051,0,0,1,.081.034l.475,3.973a.051.051,0,0,1-.05.057Zm-3.332-1.729,3.271,1.592-.453-3.792Z" transform="translate(-162.842 -190.151)" fill="#e4761b"/>
    </g>
    <g id="グループ_243" data-name="グループ 243" transform="translate(7.582 19.754)">
      <path id="パス_81" data-name="パス 81" d="M181.327,232.568,177.9,230.9l.273,2.234-.03.94Z" transform="translate(-170.662 -230.849)" fill="#d7c1b3"/>
      <path id="パス_81_-_アウトライン" data-name="パス 81 - アウトライン" d="M177.693,233.675a.05.05,0,0,1-.051-.052l.03-.936-.272-2.23a.051.051,0,0,1,.072-.052l3.427,1.668a.051.051,0,0,1,0,.091l-3.185,1.506A.05.05,0,0,1,177.693,233.675Zm-.181-3.139.262,2.142a.051.051,0,0,1,0,.008l-.028.857,3.014-1.426Z" transform="translate(-170.212 -230.4)" fill="#d7c1b3"/>
      <path id="パス_82" data-name="パス 82" d="M106.8,232.568l3.184,1.506-.02-.94.253-2.234Z" transform="translate(-106.749 -230.849)" fill="#d7c1b3"/>
      <path id="パス_82_-_アウトライン" data-name="パス 82 - アウトライン" d="M109.535,233.675a.05.05,0,0,1-.022,0l-3.185-1.506a.051.051,0,0,1,0-.091l3.417-1.668a.051.051,0,0,1,.072.051l-.252,2.231.02.937a.051.051,0,0,1-.051.052Zm-3.068-1.558,3.016,1.426-.018-.858a.051.051,0,0,1,0-.007l.242-2.143Z" transform="translate(-106.3 -230.4)" fill="#d7c1b3"/>
    </g>
    <path id="パス_83" data-name="パス 83" d="M113.451,177.859l-2.851-.839,2.012-.92Z" transform="translate(-102.583 -161.835)" fill="#233447"/>
    <path id="パス_83_-_アウトライン" data-name="パス 83 - アウトライン" d="M113,177.46l-.014,0-2.851-.839a.051.051,0,0,1-.007-.094l2.012-.92a.051.051,0,0,1,.067.024l.839,1.759a.051.051,0,0,1-.046.072Zm-2.707-.9,2.612.769-.769-1.612Z" transform="translate(-102.134 -161.386)" fill="#233447"/>
    <path id="パス_84" data-name="パス 84" d="M179.7,177.859l.839-1.759,2.022.92Z" transform="translate(-164.697 -161.835)" fill="#233447"/>
    <path id="パス_84_-_アウトライン" data-name="パス 84 - アウトライン" d="M179.251,177.46a.051.051,0,0,1-.046-.072l.839-1.759a.051.051,0,0,1,.067-.024l2.022.92a.051.051,0,0,1-.007.095l-2.861.839Zm.863-1.743-.769,1.612,2.622-.769Z" transform="translate(-164.248 -161.386)" fill="#233447"/>
    <g id="グループ_244" data-name="グループ 244" transform="translate(4.903 12.799)">
      <path id="パス_85" data-name="パス 85" d="M82.979,210.9l.485-4.1-3.164.091Z" transform="translate(-80.249 -202.231)" fill="#cd6116"/>
      <path id="パス_85_-_アウトライン" data-name="パス 85 - アウトライン" d="M82.53,210.506a.051.051,0,0,1-.042-.022l-2.679-4.013a.051.051,0,0,1,.041-.079l3.164-.091a.051.051,0,0,1,.052.056l-.485,4.1a.051.051,0,0,1-.038.043Zm-2.586-4.016,2.552,3.823.462-3.91Z" transform="translate(-79.8 -201.781)" fill="#cd6116"/>
      <path id="パス_86" data-name="パス 86" d="M207,206.8l.485,4.1,2.679-4.013Z" transform="translate(-194.141 -202.231)" fill="#cd6116"/>
      <path id="パス_86_-_アウトライン" data-name="パス 86 - アウトライン" d="M206.551,206.3h0l3.164.091a.051.051,0,0,1,.041.079l-2.679,4.013a.051.051,0,0,1-.092-.022l-.485-4.1a.051.051,0,0,1,.05-.056Zm3.072.189-3.014-.087.462,3.91Z" transform="translate(-193.691 -201.781)" fill="#cd6116"/>
      <path id="パス_87" data-name="パス 87" d="M180.282,162.1l-5.682.253.526,2.922.839-1.759,2.022.92Z" transform="translate(-165.016 -162.049)" fill="#cd6116"/>
      <path id="パス_87_-_アウトライン" data-name="パス 87 - アウトライン" d="M179.832,161.6a.051.051,0,0,1,.036.086l-2.295,2.335a.051.051,0,0,1-.057.011l-1.977-.9-.818,1.714a.051.051,0,0,1-.1-.013l-.526-2.922a.051.051,0,0,1,.048-.059l5.682-.253Zm-2.306,2.325,2.18-2.218-5.5.244.488,2.71.772-1.617a.051.051,0,0,1,.067-.024Z" transform="translate(-164.567 -161.6)" fill="#cd6116"/>
      <path id="パス_88" data-name="パス 88" d="M90.1,164.435l2.022-.92.829,1.759.536-2.922L87.8,162.1Z" transform="translate(-86.991 -162.049)" fill="#cd6116"/>
      <path id="パス_88_-_アウトライン" data-name="パス 88 - アウトライン" d="M92.506,164.875a.051.051,0,0,1-.046-.029l-.808-1.714-1.977.9a.051.051,0,0,1-.057-.01l-2.3-2.335a.051.051,0,0,1,.038-.086l5.692.253a.051.051,0,0,1,.047.06l-.536,2.922a.051.051,0,0,1-.043.041Zm-.829-1.86a.051.051,0,0,1,.046.029l.762,1.617.5-2.71-5.5-.244,2.19,2.218,1.99-.905A.051.051,0,0,1,91.677,163.015Z" transform="translate(-86.542 -161.6)" fill="#cd6116"/>
    </g>
    <g id="グループ_245" data-name="グループ 245" transform="translate(5.661 12.799)">
      <path id="パス_89" data-name="パス 89" d="M87.8,162.1l2.386,4.65-.081-2.315Z" transform="translate(-87.749 -162.049)" fill="#e4751f"/>
      <path id="パス_89_-_アウトライン" data-name="パス 89 - アウトライン" d="M87.351,161.6a.05.05,0,0,1,.036.015l2.3,2.335a.051.051,0,0,1,.015.034l.081,2.315a.051.051,0,0,1-.1.025l-2.386-4.65a.051.051,0,0,1,.045-.074Zm2.255,2.407-2.06-2.087,2.132,4.156Z" transform="translate(-87.3 -161.6)" fill="#e4751f"/>
      <path id="パス_90" data-name="パス 90" d="M207.2,164.435l-.1,2.315,2.4-4.65Z" transform="translate(-194.989 -162.049)" fill="#e4751f"/>
      <path id="パス_90_-_アウトライン" data-name="パス 90 - アウトライン" d="M206.651,166.352l-.013,0a.051.051,0,0,1-.038-.051l.1-2.315a.051.051,0,0,1,.014-.033l2.295-2.335a.051.051,0,0,1,.081.059l-2.4,4.65A.051.051,0,0,1,206.651,166.352Zm.151-2.344-.09,2.066,2.138-4.149Z" transform="translate(-194.539 -161.6)" fill="#e4751f"/>
      <path id="パス_91" data-name="パス 91" d="M139.336,164.6l-.536,2.922.667,3.447.152-4.539Z" transform="translate(-133.594 -164.297)" fill="#e4751f"/>
      <path id="パス_91_-_アウトライン" data-name="パス 91 - アウトライン" d="M138.886,164.1h0a.051.051,0,0,1,.049.043l.283,1.83a.051.051,0,0,1,0,.009l-.152,4.539a.051.051,0,0,1-.1.008l-.667-3.447a.05.05,0,0,1,0-.019l.536-2.922A.051.051,0,0,1,138.886,164.1Zm.232,1.883-.237-1.53-.48,2.618.58,3Z" transform="translate(-133.144 -163.847)" fill="#e4751f"/>
      <path id="パス_92" data-name="パス 92" d="M172.173,164.6l-.273,1.82.121,4.549.677-3.447Z" transform="translate(-163.347 -164.297)" fill="#e4751f"/>
      <path id="パス_92_-_アウトライン" data-name="パス 92 - アウトライン" d="M171.724,164.1a.051.051,0,0,1,.05.042l.526,2.922a.051.051,0,0,1,0,.019l-.677,3.447a.051.051,0,0,1-.1-.008l-.121-4.549a.049.049,0,0,1,0-.009l.273-1.82a.051.051,0,0,1,.049-.043Zm.474,2.972-.47-2.611-.227,1.512.109,4.089Z" transform="translate(-162.898 -163.847)" fill="#e4751f"/>
    </g>
    <path id="パス_93" data-name="パス 93" d="M173.777,186.039l-.677,3.447.485.334,2.952-2.3.1-2.315Z" transform="translate(-158.765 -170.016)" fill="#f6851b"/>
    <path id="パス_93_-_アウトライン" data-name="パス 93 - アウトライン" d="M176.189,184.7a.051.051,0,0,1,.051.053l-.1,2.315a.051.051,0,0,1-.019.038l-2.952,2.3a.051.051,0,0,1-.06,0l-.485-.334a.051.051,0,0,1-.021-.051l.677-3.447a.051.051,0,0,1,.035-.039l2.861-.839Zm-.151,2.34.1-2.221-2.764.811-.665,3.385.427.294Z" transform="translate(-158.315 -169.566)" fill="#f6851b"/>
    <path id="パス_94" data-name="パス 94" d="M110.6,185.2l.081,2.315,2.952,2.3.485-.334-.667-3.447Z" transform="translate(-102.583 -170.016)" fill="#f6851b"/>
    <path id="パス_94_-_アウトライン" data-name="パス 94 - アウトライン" d="M110.151,184.7l.014,0,2.851.839a.051.051,0,0,1,.035.039l.667,3.447a.051.051,0,0,1-.021.051l-.485.334a.051.051,0,0,1-.06,0l-2.952-2.3a.051.051,0,0,1-.019-.038l-.081-2.315a.051.051,0,0,1,.051-.052Zm2.807.929-2.754-.811.078,2.221,2.9,2.268.427-.294Z" transform="translate(-102.134 -169.566)" fill="#f6851b"/>
    <path id="パス_95" data-name="パス 95" d="M114.23,248.906l.03-.94-.253-.222H110.2l-.233.222.02.94L106.8,247.4l1.112.91,2.254,1.567h3.872l2.265-1.567,1.112-.91Z" transform="translate(-99.167 -225.927)" fill="#c0ad9e"/>
    <path id="パス_95_-_アウトライン" data-name="パス 95 - アウトライン" d="M113.589,249.478h-3.872a.051.051,0,0,1-.029-.009l-2.254-1.567,0,0-1.112-.91a.051.051,0,0,1,.054-.085l3.111,1.471-.018-.858a.051.051,0,0,1,.016-.038l.233-.222a.051.051,0,0,1,.035-.014h3.811a.051.051,0,0,1,.033.013l.253.222a.051.051,0,0,1,.017.04l-.028.857,3.11-1.471a.051.051,0,0,1,.054.085l-1.112.91,0,0-2.265,1.567A.051.051,0,0,1,113.589,249.478Zm-3.856-.1h3.84l2.25-1.557.791-.647L113.8,248.5a.051.051,0,0,1-.072-.047l.03-.916-.221-.194h-3.772l-.2.193.02.918a.051.051,0,0,1-.072.047l-2.812-1.33.791.647Z" transform="translate(-98.718 -225.478)" fill="#c0ad9e"/>
    <path id="パス_96" data-name="パス 96" d="M142.124,227.934l-.485-.334h-2.8l-.485.334-.253,2.234.233-.222h3.811l.253.222Z" transform="translate(-127.303 -208.129)" fill="#161616"/>
    <path id="パス_96_-_アウトライン" data-name="パス 96 - アウトライン" d="M138.389,227.1h2.8a.051.051,0,0,1,.029.009l.485.334a.051.051,0,0,1,.022.036l.273,2.234a.051.051,0,0,1-.084.044l-.238-.21H137.9l-.218.208a.051.051,0,0,1-.085-.042l.253-2.234a.051.051,0,0,1,.022-.036l.485-.334A.051.051,0,0,1,138.389,227.1Zm2.785.1H138.4l-.453.312-.234,2.073.132-.126a.051.051,0,0,1,.035-.014h3.811a.051.051,0,0,1,.033.013l.153.135-.254-2.08Z" transform="translate(-126.854 -207.68)" fill="#161616"/>
    <g id="グループ_246" data-name="グループ 246">
      <path id="パス_97" data-name="パス 97" d="M188.05,43.456l.859-4.125L187.625,35.5,177.9,42.718l3.741,3.164,5.287,1.547,1.173-1.365L187.6,45.7l.809-.738-.627-.485.809-.617Z" transform="translate(-163.079 -35.449)" fill="#763d16"/>
      <path id="パス_97_-_アウトライン" data-name="パス 97 - アウトライン" d="M186.478,47.03l-.014,0-5.287-1.547a.05.05,0,0,1-.018-.01l-3.741-3.164a.051.051,0,0,1,0-.079l9.725-7.218a.051.051,0,0,1,.078.025l1.284,3.832a.051.051,0,0,1,0,.026l-.853,4.093.51.385a.051.051,0,0,1,0,.081l-.756.577.575.445a.051.051,0,0,1,0,.077l-.763.7.455.328a.051.051,0,0,1,.009.074l-1.173,1.365A.051.051,0,0,1,186.478,47.03Zm-5.263-1.643,5.246,1.535,1.116-1.3-.461-.332a.051.051,0,0,1,0-.078l.764-.7-.579-.448a.051.051,0,0,1,0-.08l.756-.576-.483-.364a.051.051,0,0,1-.019-.051l.857-4.111-1.257-3.752-9.618,7.139Z" transform="translate(-162.63 -35)" fill="#763d16"/>
      <path id="パス_98" data-name="パス 98" d="M31.8,39.332l.859,4.125-.546.4.809.617-.617.485.809.738-.505.364,1.163,1.365,5.287-1.547L42.8,42.718,33.074,35.5Z" transform="translate(-31.749 -35.449)" fill="#763d16"/>
      <path id="パス_98_-_アウトライン" data-name="パス 98 - アウトライン" d="M32.624,35a.051.051,0,0,1,.03.01l9.725,7.218a.051.051,0,0,1,0,.079l-3.741,3.164a.051.051,0,0,1-.018.01l-5.287,1.547a.051.051,0,0,1-.053-.016l-1.163-1.365a.051.051,0,0,1,.009-.074l.455-.328-.763-.7a.051.051,0,0,1,0-.077l.565-.445-.757-.577a.051.051,0,0,1,0-.081l.52-.385L31.3,38.892a.051.051,0,0,1,0-.026l1.274-3.832A.051.051,0,0,1,32.609,35Zm9.644,7.271L32.65,35.133,31.4,38.885,32.259,43a.051.051,0,0,1-.019.051l-.492.364.755.576a.051.051,0,0,1,0,.08l-.57.448.765.7a.051.051,0,0,1,0,.078l-.461.332,1.106,1.3,5.246-1.535Z" transform="translate(-31.3 -35)" fill="#763d16"/>
    </g>
    <path id="パス_99" data-name="パス 99" d="M213.176,139.747l-5.287-1.547,1.607,2.416-2.4,4.65,3.154-.04h4.7Z" transform="translate(-189.327 -127.767)" fill="#f6851b"/>
    <path id="パス_99_-_アウトライン" data-name="パス 99 - アウトライン" d="M207.439,137.7l.014,0,5.287,1.547a.051.051,0,0,1,.034.033l1.779,5.479a.051.051,0,0,1-.048.066h-4.7l-3.154.04a.051.051,0,0,1-.046-.074l2.382-4.624-1.591-2.391a.051.051,0,0,1,.042-.079Zm5.247,1.638-5.129-1.5,1.531,2.3a.05.05,0,0,1,0,.051l-2.357,4.576,3.07-.039h4.632Z" transform="translate(-188.878 -127.318)" fill="#f6851b"/>
    <path id="パス_100" data-name="パス 100" d="M40.946,138.2l-5.287,1.547L33.9,145.226h4.691l3.144.04-2.386-4.65Z" transform="translate(-33.637 -127.767)" fill="#f6851b"/>
    <path id="パス_100_-_アウトライン" data-name="パス 100 - アウトライン" d="M40.5,137.7a.051.051,0,0,1,.042.078l-1.581,2.392,2.372,4.624a.051.051,0,0,1-.046.074l-3.144-.04h-4.69a.051.051,0,0,1-.048-.066l1.759-5.479a.051.051,0,0,1,.034-.033l5.287-1.547Zm.705,7.065-2.348-4.576a.051.051,0,0,1,0-.051l1.521-2.3-5.129,1.5-1.73,5.388h4.622Z" transform="translate(-33.188 -127.318)" fill="#f6851b"/>
    <path id="パス_101" data-name="パス 101" d="M130.554,75.788l.334-5.833,1.537-4.155H125.6l1.516,4.155.354,5.833.121,1.84.01,4.529h2.8l.02-4.529Z" transform="translate(-116.067 -62.686)" fill="#f6851b"/>
    <path id="パス_101_-_アウトライン" data-name="パス 101 - アウトライン" d="M129.953,81.758h-2.8a.051.051,0,0,1-.051-.05l-.01-4.527-.121-1.838-.353-5.826L125.1,65.368a.051.051,0,0,1,.047-.068h6.824a.051.051,0,0,1,.047.068l-1.534,4.148-.333,5.826h0l-.131,1.838L130,81.708A.051.051,0,0,1,129.953,81.758Zm-2.75-.1h2.7l.02-4.479s0,0,0,0l.131-1.84.334-5.833a.051.051,0,0,1,0-.015L131.9,65.4h-6.679l1.492,4.087a.05.05,0,0,1,0,.014l.354,5.833.121,1.84s0,0,0,0Z" transform="translate(-115.617 -62.237)" fill="#f6851b"/>
  </g>
</svg>
