<svg width="126" height="32" viewBox="0 0 126 32" fill="none" xmlns="http://www.w3.org/2000/svg">
<ellipse cx="15.9956" cy="16" rx="15.8543" ry="15.8585" transform="rotate(0.51378 15.9956 16)" fill="url(#paint0_linear_432_5344)"/>
<path d="M6.87207 21.1076L8.01772 15.2218C8.42424 13.086 9.46132 11.2272 10.8954 9.77644C12.3629 8.2918 14.2542 7.36125 16.0003 7.36125C17.7498 7.36125 19.4973 8.23265 20.817 9.64092C22.1348 11.0472 22.985 12.9466 22.985 14.9366L22.985 22.9556C22.985 23.5408 23.4196 24.1019 24.0568 24.1019C24.694 24.1019 25.1285 23.5408 25.1285 22.9556L25.1285 15.1846C25.1285 9.62281 21.087 5.02734 16.0003 5.02734C10.9136 5.02734 6.87207 9.62281 6.87207 15.1846L6.87207 23.4929V21.1076Z" fill="white"/>
<circle cx="19.2155" cy="17.6696" r="1.33078" fill="white"/>
<path d="M48.2283 27.0201H40.8037V6.06344H48.2897C50.3964 6.06344 52.21 6.48298 53.7303 7.32207C55.2507 8.15433 56.42 9.35156 57.2381 10.9138C58.0631 12.476 58.4756 14.3451 58.4756 16.5213C58.4756 18.7043 58.0631 20.5803 57.2381 22.1493C56.42 23.7183 55.2439 24.9224 53.7099 25.7615C52.1827 26.6006 50.3555 27.0201 48.2283 27.0201ZM45.2319 23.2237H48.0443C49.3533 23.2237 50.4544 22.9918 51.3475 22.5279C52.2475 22.0572 52.9224 21.3307 53.3724 20.3483C53.8292 19.3592 54.0576 18.0835 54.0576 16.5213C54.0576 14.9727 53.8292 13.7073 53.3724 12.725C52.9224 11.7426 52.2509 11.0195 51.3577 10.5556C50.4646 10.0917 49.3635 9.85979 48.0545 9.85979H45.2319V23.2237Z" fill="#021118"/>
<path d="M70.7046 27.3271C69.0888 27.3271 67.698 26.9996 66.5321 26.3447C65.3731 25.683 64.4799 24.7484 63.8527 23.541C63.2255 22.3267 62.9118 20.8907 62.9118 19.233C62.9118 17.6162 63.2255 16.1973 63.8527 14.9762C64.4799 13.7551 65.3629 12.8034 66.5014 12.1212C67.6468 11.439 68.99 11.098 70.5308 11.098C71.5671 11.098 72.5318 11.2651 73.425 11.5994C74.3249 11.9268 75.109 12.4214 75.7771 13.0831C76.4521 13.7448 76.9771 14.5771 77.352 15.5799C77.727 16.5759 77.9145 17.7424 77.9145 19.0795V20.2767H64.6504V17.5753H73.8136C73.8136 16.9477 73.6772 16.3917 73.4045 15.9073C73.1318 15.423 72.7534 15.0444 72.2693 14.7715C71.7921 14.4918 71.2364 14.352 70.6024 14.352C69.941 14.352 69.3547 14.5055 68.8434 14.8124C68.3389 15.1126 67.9434 15.5185 67.6571 16.0301C67.3707 16.5349 67.2241 17.0977 67.2173 17.7185V20.287C67.2173 21.0646 67.3605 21.7366 67.6468 22.3028C67.94 22.869 68.3525 23.3056 68.8843 23.6126C69.4161 23.9196 70.0467 24.0731 70.7762 24.0731C71.2603 24.0731 71.7035 24.0048 72.1057 23.8684C72.508 23.732 72.8523 23.5273 73.1386 23.2544C73.425 22.9816 73.6431 22.6473 73.7931 22.2516L77.8225 22.5177C77.6179 23.4864 77.1986 24.3323 76.5646 25.0554C75.9373 25.7717 75.126 26.3311 74.1306 26.7336C73.142 27.1292 72 27.3271 70.7046 27.3271Z" fill="#021118"/>
<path d="M101.191 13.4003H96.7117C96.6299 12.8205 96.4629 12.3054 96.2106 11.8552C95.9584 11.3981 95.6345 11.0093 95.2391 10.6886C94.8436 10.368 94.3868 10.1224 93.8687 9.95188C93.3574 9.78134 92.8017 9.69607 92.2017 9.69607C91.1177 9.69607 90.1734 9.96553 89.3689 10.5045C88.5644 11.0366 87.9406 11.8142 87.4974 12.8375C87.0543 13.854 86.8327 15.0887 86.8327 16.5418C86.8327 18.0357 87.0543 19.291 87.4974 20.3074C87.9474 21.3239 88.5746 22.0913 89.3791 22.6098C90.1836 23.1282 91.1143 23.3875 92.171 23.3875C92.7642 23.3875 93.313 23.309 93.8176 23.1521C94.3289 22.9952 94.7823 22.7667 95.1777 22.4665C95.5732 22.1595 95.9004 21.7878 96.1595 21.3512C96.4254 20.9146 96.6095 20.4166 96.7117 19.8572L101.191 19.8776C101.075 20.8395 100.785 21.7673 100.322 22.6609C99.865 23.5478 99.248 24.3425 98.4707 25.0452C97.7003 25.741 96.7799 26.2936 95.7095 26.7029C94.6459 27.1054 93.4426 27.3066 92.0995 27.3066C90.2314 27.3066 88.561 26.8837 87.0883 26.0378C85.6225 25.1918 84.4635 23.9673 83.6112 22.3642C82.7658 20.7611 82.3431 18.8203 82.3431 16.5418C82.3431 14.2565 82.7726 12.3122 83.6317 10.7091C84.4907 9.10598 85.6566 7.88487 87.1292 7.04579C88.6019 6.19988 90.2586 5.77693 92.0995 5.77693C93.313 5.77693 94.438 5.94747 95.4743 6.28856C96.5174 6.62965 97.4412 7.12765 98.2458 7.78254C99.0503 8.43062 99.7048 9.22536 100.209 10.1668C100.721 11.1082 101.048 12.186 101.191 13.4003Z" fill="#021118"/>
<path d="M106.157 27.0201V11.3026H110.513V27.0201H106.157ZM108.345 9.27652C107.697 9.27652 107.142 9.06164 106.678 8.63186C106.221 8.19526 105.993 7.67339 105.993 7.06625C105.993 6.46593 106.221 5.95088 106.678 5.52111C107.142 5.08451 107.697 4.86621 108.345 4.86621C108.993 4.86621 109.545 5.08451 110.002 5.52111C110.465 5.95088 110.697 6.46593 110.697 7.06625C110.697 7.67339 110.465 8.19526 110.002 8.63186C109.545 9.06164 108.993 9.27652 108.345 9.27652Z" fill="#021118"/>
<path d="M115.875 27.0201V11.3026H120.099V14.045H120.262C120.549 13.0695 121.029 12.3327 121.704 11.8347C122.379 11.3299 123.156 11.0775 124.036 11.0775C124.254 11.0775 124.489 11.0911 124.742 11.1184C124.994 11.1457 125.215 11.1832 125.406 11.231V15.099C125.202 15.0376 124.919 14.983 124.557 14.9352C124.196 14.8875 123.865 14.8636 123.565 14.8636C122.925 14.8636 122.352 15.0034 121.847 15.2831C121.35 15.556 120.954 15.938 120.661 16.4292C120.375 16.9204 120.232 17.4866 120.232 18.1278V27.0201H115.875Z" fill="#021118"/>
<defs>
<linearGradient id="paint0_linear_432_5344" x1="7.92641" y1="27.8357" x2="27.3016" y2="8.10986" gradientUnits="userSpaceOnUse">
<stop stop-color="#12B4FF"/>
<stop offset="1" stop-color="#E100FF"/>
</linearGradient>
</defs>
</svg>
