<svg id="ico_workmint" xmlns="http://www.w3.org/2000/svg" width="24.122" height="24" viewBox="0 0 24.122 24">
  <rect id="長方形_750" data-name="長方形 750" width="24" height="24" transform="translate(0.122)" fill="none"/>
  <g id="グループ_1803" data-name="グループ 1803" transform="translate(-233.265 -2770.411)">
    <g id="グループ_1802" data-name="グループ 1802" transform="translate(233.387 2772.411)">
      <path id="前面オブジェクトで型抜き_35" data-name="前面オブジェクトで型抜き 35" d="M1334.725-2771.9h0l-.02-.1-.1.026-4.607-17.2,14.3-3.832.866,3.235a2.969,2.969,0,0,0-.623.156l-.7-2.6-13.059,3.5,4.3,16.051,13.059-3.5-1.081-4.036c.083.035.177.075.291.119.148.057.3.11.448.157l1.129,4.214-14.107,3.78v.006l-.1.022Zm.848-1.6h0l-.026-.1-3.921-14.631,11.736-3.145.565,2.109a2.073,2.073,0,0,0-.371.379l-.142.188-.506-1.89-10.494,2.813,3.614,13.487,10.494-2.812-1.071-4c.255.176.522.343.8.5l1.06,3.955-11.734,3.144Z" transform="translate(-1330.122 2792.877)" />
      <path id="合体_34" data-name="合体 34" d="M0,2.394V1.482C0,.665,1.11,0,2.475,0S4.951.665,4.951,1.482v.912c0,.817-1.11,1.482-2.475,1.482S0,3.211,0,2.394ZM.823.634a1.063,1.063,0,0,0-.617.847,1.063,1.063,0,0,0,.617.847,3.267,3.267,0,0,0,1.652.406,3.268,3.268,0,0,0,1.652-.406,1.063,1.063,0,0,0,.617-.847A1.063,1.063,0,0,0,4.128.634,3.269,3.269,0,0,0,2.475.228,3.268,3.268,0,0,0,.823.634Zm.9,1.4.434-.288.384.132.434-.288-.058-.348L3.356.959l.136.812-.869.576Zm-.284-.972L2.312.49l.9.308-.434.288L2.39.954l-.434.288.058.348-.434.288Zm.832.48-.017-.021a.184.184,0,0,1,.058-.265.269.269,0,0,1,.337.035.184.184,0,0,1-.041.286.267.267,0,0,1-.147.043A.257.257,0,0,1,2.276,1.546Zm.115-.206a.092.092,0,0,0-.021.143.135.135,0,0,0,.168.017.092.092,0,0,0,.029-.132l-.009-.01a.128.128,0,0,0-.095-.039A.134.134,0,0,0,2.391,1.34Z" transform="matrix(-0.309, 0.951, -0.951, -0.309, 13.77, 10.309)" />
      <path id="合体_37" data-name="合体 37" d="M0,1.574v-.6C0,.437.813,0,1.812,0S3.623.437,3.623.974v.6c0,.537-.813.974-1.812.974S0,2.111,0,1.574ZM.6.417C.311.574.151.772.151.974s.16.4.451.557A2.608,2.608,0,0,0,1.812,1.8a2.609,2.609,0,0,0,1.209-.267c.291-.157.451-.354.451-.557s-.16-.4-.451-.557A2.609,2.609,0,0,0,1.812.15,2.609,2.609,0,0,0,.6.417Zm.662.923.318-.189.281.087.318-.189L2.138.819,2.456.63l.1.534-.635.378ZM1.057.7,1.692.322l.655.2L2.03.714,1.749.627,1.431.816l.043.229-.318.189Zm.609.316L1.653,1A.114.114,0,0,1,1.7.829a.214.214,0,0,1,.246.023.114.114,0,0,1-.03.188.212.212,0,0,1-.108.028A.2.2,0,0,1,1.665,1.016ZM1.749.881a.057.057,0,0,0-.015.094.107.107,0,0,0,.123.011A.057.057,0,0,0,1.879.9L1.873.893A.1.1,0,0,0,1.8.867.106.106,0,0,0,1.749.881Z" transform="translate(6.207 7.307) rotate(30)" />
      <path id="合体_45" data-name="合体 45" d="M0,4.647V2.877C0,1.291,2.382,0,5.311,0s5.311,1.291,5.311,2.877v1.77c0,1.586-2.382,2.877-5.311,2.877S0,6.233,0,4.647ZM1.766,1.232C.913,1.694.443,2.278.443,2.877s.47,1.183,1.324,1.645a7.6,7.6,0,0,0,3.545.789,7.6,7.6,0,0,0,3.545-.789c.854-.462,1.324-1.047,1.324-1.645s-.47-1.183-1.324-1.645A7.6,7.6,0,0,0,5.311.443,7.6,7.6,0,0,0,1.766,1.232Zm1.94,2.724L4.638,3.4l.824.257.931-.559L6.268,2.42,7.2,1.861l.292,1.577L5.628,4.555ZM3.1,2.068,4.961.951l1.921.6-.931.559-.824-.257L4.2,2.411l.125.676-.931.559ZM4.882,3a.451.451,0,0,1-.037-.041.338.338,0,0,1,.125-.514.624.624,0,0,1,.722.068.337.337,0,0,1-.088.554.617.617,0,0,1-.316.084A.581.581,0,0,1,4.882,3Zm.247-.4a.169.169,0,0,0-.045.277.313.313,0,0,0,.361.033.168.168,0,0,0,.063-.256l-.018-.02a.29.29,0,0,0-.2-.076A.31.31,0,0,0,5.129,2.6Z" transform="matrix(0.799, 0.602, -0.602, 0.799, 15.517, 1.961)" />
    </g>
  </g>
</svg>
