<svg id="ico_outline" xmlns="http://www.w3.org/2000/svg" xmlns:xlink="http://www.w3.org/1999/xlink" width="24" height="24" viewBox="0 0 24 24">
  <defs>
    <clipPath id="clip-path">
      <rect id="長方形_741" data-name="長方形 741" width="17.778" height="20" fill="none"/>
    </clipPath>
  </defs>
  <rect id="長方形_742" data-name="長方形 742" width="24" height="24" fill="none"/>
  <g id="グループ_1778" data-name="グループ 1778" transform="translate(3 2)">
    <g id="グループ_1777" data-name="グループ 1777" clip-path="url(#clip-path)">
      <path id="パス_1111" data-name="パス 1111" d="M.011,56.267q0-3.412,0-6.824a3.546,3.546,0,0,1,.023-.6,1.175,1.175,0,0,1,1.145-.97q4.6-.006,9.192,0c.288,0,.474.169.468.407s-.195.391-.51.391H1.439a1.837,1.837,0,0,0-.25,0,.366.366,0,0,0-.363.371c-.006.141-.012.283-.012.425q0,6.8,0,13.6c0,.773.03.8.8.8H13.432c.484,0,.59-.093.6-.576.012-.466,0-.933,0-1.4q0-4.575,0-9.149a2.147,2.147,0,0,1,.01-.3.391.391,0,0,1,.769-.035,1.531,1.531,0,0,1,.022.323q0,5.174,0,10.349a3.291,3.291,0,0,1-.029.595,1.178,1.178,0,0,1-1.2.992q-6.186,0-12.373,0A1.231,1.231,0,0,1,0,63.366c.024-.924.01-1.85.01-2.774q0-2.162,0-4.325" transform="translate(0 -44.677)"/>
      <path id="パス_1112" data-name="パス 1112" d="M136.133,1.64a1.535,1.535,0,0,1-.417,1.043q-2.946,3.389-5.9,6.772a.833.833,0,0,1-.343.229c-.686.234-1.377.451-2.066.676a.409.409,0,0,1-.572-.485c.128-.713.245-1.427.38-2.138a.828.828,0,0,1,.177-.372q2.94-3.394,5.889-6.78A1.521,1.521,0,0,1,135.017.1a1.675,1.675,0,0,1,1.116,1.54M127.739,9.4c.146-.044.254-.085.366-.108a3.215,3.215,0,0,0,1.87-1.21c1.689-2.011,3.432-3.976,5.151-5.962a.717.717,0,0,0-.1-1.1.722.722,0,0,0-1.1.065q-2.9,3.326-5.8,6.657a.416.416,0,0,0-.113.161c-.095.488-.18.977-.272,1.493" transform="translate(-118.355 0)"/>
      <path id="パス_1113" data-name="パス 1113" d="M41.236,179.6h4.432a1.186,1.186,0,0,1,.25.009.4.4,0,0,1,.009.779.819.819,0,0,1-.2.011H36.763a1.44,1.44,0,0,1-.15,0,.4.4,0,0,1-.01-.794,2.066,2.066,0,0,1,.225,0h4.407" transform="translate(-33.818 -167.605)"/>
      <path id="パス_1114" data-name="パス 1114" d="M41.263,215.534H45.67a1.179,1.179,0,0,1,.249.009.4.4,0,0,1,.008.779.825.825,0,0,1-.2.011H36.764a1.438,1.438,0,0,1-.15,0,.4.4,0,0,1-.008-.794,2.089,2.089,0,0,1,.225,0h4.432" transform="translate(-33.819 -201.135)"/>
      <path id="パス_1115" data-name="パス 1115" d="M41.257,252.269H36.825a1.132,1.132,0,0,1-.225-.007.4.4,0,0,1,.011-.788.989.989,0,0,1,.175,0h8.94c.05,0,.1,0,.15,0a.4.4,0,1,1-.011.8c-.066,0-.134,0-.2,0H41.257" transform="translate(-33.84 -234.67)"/>
    </g>
  </g>
</svg>
