<svg id="ico_gas" xmlns="http://www.w3.org/2000/svg" width="75.017" height="90" viewBox="0 0 75.017 90">
  <path id="パス_39949" data-name="パス 39949" d="M53.339,0a8.313,8.313,0,0,1,4.6,2.347,7.961,7.961,0,0,1,2.082,5.7q-.012,23.506,0,47.012V56.25c.513,0,1,0,1.479,0a5.681,5.681,0,0,1,6.03,5.9c.026,1,0,1.992.006,2.988.011,1.481.742,2.377,1.9,2.346,1.14-.03,1.833-.9,1.834-2.337q.006-10.808,0-21.617V33.759a7.974,7.974,0,0,1-4.413-1.473,7.624,7.624,0,0,1-3.1-6.38c-.016-1.611,0-3.222-.006-4.833a2.789,2.789,0,0,1,.893-2.109c1.94-1.908,3.854-3.841,5.881-5.866-1-.977-1.957-1.907-2.905-2.849C66.542,9.176,65.449,8.113,64.4,7.008a1.831,1.831,0,0,1-.285-2.4,1.752,1.752,0,0,1,2.07-.725,3.208,3.208,0,0,1,1.075.724c2.314,2.284,4.6,4.594,6.913,6.882a2.7,2.7,0,0,1,.842,2.036Q75,39.448,75.009,65.37a5.439,5.439,0,0,1-3.38,5.38,5.334,5.334,0,0,1-5.973-.964,5.752,5.752,0,0,1-1.9-4.55c-.009-1,.009-1.992,0-2.988-.021-1.544-.706-2.222-2.269-2.259-.46-.011-.921,0-1.422,0V74.836a20.081,20.081,0,0,1,3.106.916A7.384,7.384,0,0,1,67.528,82.8c.033,1.64.023,3.281,0,4.921C67.509,89.3,66.787,90,65.186,90q-31.42,0-62.841,0C.717,90,.04,89.328.025,87.712c-.014-1.494.056-2.991-.014-4.481A7.645,7.645,0,0,1,7.439,75c.019-.381.056-.775.056-1.169q0-32.777,0-65.553c0-2.768.786-5.188,3.141-6.78A19.275,19.275,0,0,1,14.133,0ZM11.274,74.943H56.282V42.724q0-17.314,0-34.628c0-2.755-1.443-4.344-4.06-4.349q-18.46-.03-36.92-.006a3.931,3.931,0,0,0-3.011,1.2,4.211,4.211,0,0,0-1.021,3.078q.014,33,.007,66ZM63.666,86.214a33.642,33.642,0,0,0-.042-4.575c-.254-1.819-1.92-2.888-4.051-2.888q-25.8,0-51.594,0a6.384,6.384,0,0,0-.79.024,3.339,3.339,0,0,0-3.16,2.513,33.4,33.4,0,0,0-.354,4.926Zm7.572-68.566c-1.263,1.276-2.378,2.389-3.469,3.524a.984.984,0,0,0-.224.626c-.008,1.609-.049,3.222.037,4.828A3.505,3.505,0,0,0,71.238,29.9Z" transform="translate(0)" fill="#0ab4af"/>
  <path id="パス_39950" data-name="パス 39950" d="M86.893,60.383q-8.126,0-16.251,0c-1.8,0-2.445-.64-2.445-2.425q0-10.715,0-21.43c0-1.739.648-2.4,2.382-2.4q16.383-.007,32.766,0c1.688,0,2.34.652,2.342,2.335q.01,10.8,0,21.606c0,1.671-.667,2.311-2.366,2.312q-8.214.006-16.427,0m-14.912-3.79H101.9V37.911H71.981Z" transform="translate(-53.185 -26.613)" fill="#0ab4af"/>
  <g id="グループ_2952" data-name="グループ 2952" transform="translate(22.692 42.615)">
    <g id="グループ_2952-2" data-name="グループ 2952" transform="translate(0 0)">
      <path id="パス_29" data-name="パス 29" d="M47.194,206.135V212.5l-4.149,2.387v6.365l9.681-5.569V202.952l-9.681-5.569v6.365Z" transform="translate(-30.595 -197.383)" fill="#0ab4af"/>
      <path id="パス_30" data-name="パス 30" d="M26.786,214.887,22.637,212.5v-6.366l4.149-2.386v-6.365L17.1,202.952v12.731l9.682,5.569Z" transform="translate(-17.104 -197.383)" fill="#0ab4af"/>
      <path id="パス_31" data-name="パス 31" d="M39.937,219.349a2.772,2.772,0,1,0-2.772,2.771,2.772,2.772,0,0,0,2.772-2.771m-4.16,0a1.384,1.384,0,1,1,1.385,1.385,1.385,1.385,0,0,1-1.385-1.385" transform="translate(-26.095 -207.365)" fill="#0ab4af"/>
      <path id="パス_32" data-name="パス 32" d="M57.222,221.717V208.986h0l-5.532,3.183v6.366l5.532,3.183Z" transform="translate(-35.09 -203.417)" fill="#9dd0d1"/>
      <path id="パス_33" data-name="パス 33" d="M17.1,208.986v12.731l5.533-3.183v-6.366Z" transform="translate(-17.104 -203.417)" fill="#9dd0d1"/>
    </g>
  </g>
</svg>
