<svg id="ico_fileupload" xmlns="http://www.w3.org/2000/svg" width="24" height="24" viewBox="0 0 24 24">
  <rect id="長方形_644" data-name="長方形 644" width="24" height="24" fill="none"/>
  <path id="合体_21" data-name="合体 21" d="M2.083,18A2.025,2.025,0,0,1,0,15.867q0-5.6,0-11.207a.636.636,0,0,1,.192-.483Q2.151,2.188,4.1.189A.588.588,0,0,1,4.558,0q2,0,3.991,0H10.6a2.018,2.018,0,0,1,2.1,2.141q.005,3.429,0,6.859,0,3.411,0,6.821a2,2,0,0,1-1.158,1.963,2.225,2.225,0,0,1-.921.2Q8.241,18,5.856,18,3.969,18,2.083,18Zm8.615-.821a1.216,1.216,0,0,0,1.2-1.232q0-6.906,0-13.812A1.218,1.218,0,0,0,10.61.819q-2.783,0-5.566,0c-.059,0-.117.008-.189.013,0,.084,0,.151,0,.219,0,.65.009,1.3-.005,1.949a1.98,1.98,0,0,1-1.7,1.916,10.468,10.468,0,0,1-1.137.036c-.159,0-.318,0-.477,0-.237,0-.475,0-.732,0v.162q0,5.388,0,10.776a1.213,1.213,0,0,0,1.276,1.286H9.192C9.694,17.177,10.2,17.182,10.7,17.175ZM1.438,4.133H2.811a1.369,1.369,0,0,0,.2-.01A1.178,1.178,0,0,0,4.037,3.081c.032-.54.007-1.083.007-1.607ZM5.99,13.89a1.156,1.156,0,0,1-.025-.278q0-2.783,0-5.566V7.8l-.8.683c-.347.3-.693.6-1.043.889A.4.4,0,0,1,3.5,9.369a.428.428,0,0,1,.106-.621q1.209-1.037,2.42-2.071a.418.418,0,0,1,.663,0q1.2,1.028,2.4,2.061A.714.714,0,0,1,9.29,9a.378.378,0,0,1-.145.446.386.386,0,0,1-.478-.031c-.328-.272-.649-.552-.973-.828L6.767,7.8v.246q0,2.792,0,5.584a1.664,1.664,0,0,1,0,.206.4.4,0,0,1-.356.348l-.04,0A.38.38,0,0,1,5.99,13.89Z" transform="translate(6 3)"/>
</svg>
