<svg width="41" height="41" viewBox="0 0 41 41" fill="none" xmlns="http://www.w3.org/2000/svg">
<ellipse cx="20.4538" cy="20.459" rx="20.2726" ry="20.278" transform="rotate(0.51378 20.4538 20.459)" fill="url(#paint0_linear_2597_23574)"/>
<ellipse cx="20.4538" cy="20.459" rx="20.2726" ry="20.278" transform="rotate(0.51378 20.4538 20.459)" fill="url(#paint1_linear_2597_23574)"/>
<path d="M8.78809 26.9903L10.253 19.4642C10.7728 16.7332 12.0989 14.3564 13.9326 12.5013C15.8091 10.6029 18.2276 9.41304 20.4602 9.41304C22.6972 9.41304 24.9318 10.5273 26.6192 12.328C28.3043 14.1263 29.3915 16.5549 29.3915 19.0996V29.3533C29.3915 30.1016 29.9472 30.819 30.7619 30.819C31.5767 30.819 32.1323 30.1016 32.1323 29.3533V19.4167C32.1323 12.3049 26.9644 6.42871 20.4602 6.42871C13.956 6.42871 8.78809 12.3049 8.78809 19.4167V30.0404V26.9903Z" fill="white"/>
<circle cx="24.5718" cy="22.5947" r="1.70165" fill="white"/>
<defs>
<linearGradient id="paint0_linear_2597_23574" x1="10.1817" y1="7.48572" x2="46.8202" y2="31.4014" gradientUnits="userSpaceOnUse">
<stop stop-color="#2BB8FA"/>
<stop offset="1" stop-color="#49C2FB"/>
</linearGradient>
<linearGradient id="paint1_linear_2597_23574" x1="16.455" y1="-31.1159" x2="-14.9905" y2="-8.46137" gradientUnits="userSpaceOnUse">
<stop stop-color="#BD00FF"/>
<stop offset="1" stop-color="#BD00FF" stop-opacity="0"/>
</linearGradient>
</defs>
</svg>
