<svg width="33" height="28" viewBox="0 0 33 28" fill="none" xmlns="http://www.w3.org/2000/svg">
<path d="M32.6797 14.5C32.6797 15.7656 31.6953 16.75 30.5 16.75H8.91406L16.2969 24.2031C17.2109 25.0469 17.2109 26.5234 16.2969 27.3672C15.875 27.7891 15.3125 28 14.75 28C14.1172 28 13.5547 27.7891 13.1328 27.3672L1.88281 16.1172C0.96875 15.2734 0.96875 13.7969 1.88281 12.9531L13.1328 1.70312C13.9766 0.789062 15.4531 0.789062 16.2969 1.70312C17.2109 2.54688 17.2109 4.02344 16.2969 4.86719L8.91406 12.25H30.5C31.6953 12.25 32.6797 13.3047 32.6797 14.5Z" fill="white"/>
</svg>
