<svg width="20" height="23" viewBox="0 0 20 23" fill="none" xmlns="http://www.w3.org/2000/svg">
<path d="M11.375 2.125V2.98438C14.5117 3.62891 16.875 6.37891 16.875 9.6875V10.5039C16.875 12.5234 17.6055 14.5 18.9375 16.0039L19.2383 16.3477C19.625 16.7773 19.7109 17.3359 19.4961 17.8516C19.2812 18.3242 18.7656 18.625 18.25 18.625H1.75C1.19141 18.625 0.675781 18.3242 0.460938 17.8516C0.246094 17.3359 0.332031 16.7773 0.71875 16.3477L1.01953 16.0039C2.35156 14.5 3.125 12.5234 3.125 10.5039V9.6875C3.125 6.37891 5.44531 3.62891 8.625 2.98438V2.125C8.625 1.39453 9.22656 0.75 10 0.75C10.7305 0.75 11.375 1.39453 11.375 2.125ZM10 22.75C9.26953 22.75 8.53906 22.4922 8.02344 21.9766C7.50781 21.4609 7.25 20.7305 7.25 20H12.75C12.75 20.7305 12.4492 21.4609 11.9336 21.9766C11.418 22.4922 10.6875 22.75 10 22.75Z" fill="black"/>
</svg>
