<svg width="505" height="577" viewBox="0 0 505 577" fill="none" xmlns="http://www.w3.org/2000/svg">
<g clip-path="url(#clip0_314_7419)">
<g opacity="0.24">
<path d="M-149 551.218L-112.352 362.938C-99.3482 294.615 -66.1734 235.156 -20.2999 188.748C26.6446 141.256 87.1459 111.489 143 111.489C198.964 111.489 254.865 139.364 297.079 184.413C339.235 229.399 366.433 290.157 366.433 353.816L366.433 610.332C366.433 629.051 380.334 647 400.717 647C421.099 647 435 629.051 435 610.332L435 361.749C435 183.834 305.716 36.8306 143 36.8306C-19.7158 36.8306 -149 183.834 -149 361.749L-149 627.521L-149 551.218Z" fill="white"/>
<circle cx="245.852" cy="441.253" r="42.57" fill="white"/>
</g>
</g>
<defs>
<clipPath id="clip0_314_7419">
<rect x="505" y="577" width="505" height="577" rx="24" transform="rotate(-180 505 577)" fill="white"/>
</clipPath>
</defs>
</svg>
