<svg width="20" height="21" viewBox="0 0 20 21" fill="none" xmlns="http://www.w3.org/2000/svg">
<path d="M10 0.5C4.45312 0.5 0 4.99219 0 10.5C0 16.0469 4.45312 20.5 10 20.5C15.5078 20.5 20 16.0469 20 10.5C20 4.99219 15.5078 0.5 10 0.5ZM14.9219 12.3359L10.8984 16.3594C10.5469 16.7109 10.1562 16.75 10 16.75C9.80469 16.75 9.41406 16.7109 9.10156 16.3984L5.03906 12.3359C4.53125 11.8672 4.53125 11.0469 5.03906 10.5781C5.50781 10.0703 6.32812 10.0703 6.79688 10.5781L8.75 12.4922V5.5C8.75 4.83594 9.29688 4.25 10 4.25C10.6641 4.25 11.25 4.83594 11.25 5.5V12.4922L13.1641 10.5781C13.6328 10.0703 14.4531 10.0703 14.9219 10.5781C15.4297 11.0469 15.4297 11.8672 14.9219 12.3359Z" fill="#7D849D"/>
</svg>
