<svg width="371" height="279" viewBox="0 0 371 279" fill="none" xmlns="http://www.w3.org/2000/svg">
<path d="M154.836 99.0117C154.836 99.0117 119.455 103.139 106.829 112.81C94.2025 122.481 96.6537 137.297 137.788 129.514C178.923 121.731 154.836 99.0117 154.836 99.0117Z" fill="url(#paint0_linear_4755_27663)"/>
<path d="M154.836 99.0117C154.836 99.0117 119.455 103.139 106.829 112.81C94.2025 122.481 96.6537 137.297 137.788 129.514C178.923 121.731 154.836 99.0117 154.836 99.0117Z" fill="url(#paint1_linear_4755_27663)" fill-opacity="0.2"/>
<path opacity="0.08" d="M154.836 99.0117C154.836 99.0117 119.455 103.139 106.829 112.81C94.2025 122.481 96.6537 137.297 137.788 129.514C178.923 121.731 154.836 99.0117 154.836 99.0117Z" fill="black"/>
<path d="M140.832 74.7186C142.067 74.5678 143.266 74.2013 144.375 73.6359C146.225 72.7104 150.202 71.785 150.119 75.6719C150.063 78.1428 146.225 75.2184 145.966 78.5407C145.707 81.8631 146.178 86.0646 139.324 85.0188C133.071 84.0193 134.81 75.4868 140.832 74.7186Z" fill="#F4A28C"/>
<path d="M250.999 95.4682C277.176 95.4682 298.396 77.3328 298.396 54.9616C298.396 32.5905 277.176 14.4551 250.999 14.4551C224.822 14.4551 203.602 32.5905 203.602 54.9616C203.602 77.3328 224.822 95.4682 250.999 95.4682Z" fill="#24285B"/>
<path opacity="0.45" d="M181.18 258.762C236.553 258.762 281.441 252.386 281.441 244.52C281.441 236.654 236.553 230.277 181.18 230.277C125.808 230.277 80.9194 236.654 80.9194 244.52C80.9194 252.386 125.808 258.762 181.18 258.762Z" fill="#E6E6E6"/>
<g opacity="0.58">
<path d="M222.75 228.452C222.75 228.452 213.37 225.935 211.298 217.236C211.298 217.236 225.802 214.238 226.274 229.267L222.75 228.452Z" fill="url(#paint2_linear_4755_27663)"/>
<path d="M222.75 228.452C222.75 228.452 213.37 225.935 211.298 217.236C211.298 217.236 225.802 214.238 226.274 229.267L222.75 228.452Z" fill="url(#paint3_linear_4755_27663)" fill-opacity="0.2"/>
</g>
<g opacity="0.73">
<path d="M223.897 227.519C223.897 227.519 217.311 217.2 223.027 207.492C223.027 207.492 234.127 214.461 229.243 227.519H223.897Z" fill="url(#paint4_linear_4755_27663)"/>
<path d="M223.897 227.519C223.897 227.519 217.311 217.2 223.027 207.492C223.027 207.492 234.127 214.461 229.243 227.519H223.897Z" fill="url(#paint5_linear_4755_27663)" fill-opacity="0.2"/>
</g>
<path d="M225.58 227.519C225.58 227.519 228.993 216.571 239.455 214.461C239.455 214.461 241.444 221.55 232.74 227.519H225.58Z" fill="url(#paint6_linear_4755_27663)"/>
<path d="M225.58 227.519C225.58 227.519 228.993 216.571 239.455 214.461C239.455 214.461 241.444 221.55 232.74 227.519H225.58Z" fill="url(#paint7_linear_4755_27663)" fill-opacity="0.2"/>
<path d="M218.791 227.307L220.742 240.291H232.703L234.405 227.307H218.791Z" fill="#24285B"/>
<path d="M160.007 236.903C160.007 236.903 158.684 240.808 155.188 241.16C151.691 241.511 150.822 244.963 153.994 245.787C157.167 246.611 165.215 242.428 165.215 242.428L164.872 236.875L160.007 236.903Z" fill="url(#paint8_linear_4755_27663)"/>
<path d="M160.007 236.903C160.007 236.903 158.684 240.808 155.188 241.16C151.691 241.511 150.822 244.963 153.994 245.787C157.167 246.611 165.215 242.428 165.215 242.428L164.872 236.875L160.007 236.903Z" fill="url(#paint9_linear_4755_27663)" fill-opacity="0.2"/>
<path d="M196.785 232.545C196.785 232.545 197.812 236.543 195.074 238.754C192.336 240.966 193.51 244.307 196.618 243.289C199.726 242.271 204.176 234.331 204.176 234.331L201.142 230.277L196.785 232.545Z" fill="url(#paint10_linear_4755_27663)"/>
<path d="M196.785 232.545C196.785 232.545 197.812 236.543 195.074 238.754C192.336 240.966 193.51 244.307 196.618 243.289C199.726 242.271 204.176 234.331 204.176 234.331L201.142 230.277L196.785 232.545Z" fill="url(#paint11_linear_4755_27663)" fill-opacity="0.2"/>
<path d="M166.704 72.2199C166.704 72.2199 170.071 78.1334 170.913 82.7144C170.993 83.158 170.984 83.6131 170.888 84.0535C170.791 84.4939 170.609 84.911 170.351 85.2807C170.093 85.6504 169.765 85.9656 169.385 86.2081C169.005 86.4506 168.581 86.6156 168.138 86.6938C165.834 87.0824 162.588 86.9436 160.405 83.9915L156.085 79.4383C155.315 78.4341 154.876 77.2161 154.826 75.9518C154.776 74.6875 155.119 73.4387 155.807 72.3772C158.148 68.2405 164.835 68.5088 166.704 72.2199Z" fill="#F4A28C"/>
<path d="M157.667 80.4375L157.759 102.75L170.043 101.815L165.169 86.3603L157.667 80.4375Z" fill="#F4A28C"/>
<path d="M168.637 76.0605L171.412 77.6523C171.576 77.7406 171.715 77.8698 171.814 78.0274C171.914 78.1849 171.971 78.3655 171.98 78.5517C171.989 78.7378 171.951 78.9232 171.867 79.0899C171.784 79.2566 171.659 79.3989 171.505 79.5032L169.349 81.0394L168.637 76.0605Z" fill="#F4A28C"/>
<path opacity="0.31" d="M165.307 86.7958C163.802 86.6464 162.367 86.0898 161.154 85.1855C161.154 85.1855 160.729 90.0534 166.704 91.2194L165.307 86.7958Z" fill="#CE8172"/>
<path d="M252.729 29.6782C257.668 29.965 261.544 31.529 264.356 34.3054C265.683 35.5922 266.71 37.1558 267.364 38.8849C268.018 40.6141 268.283 42.4662 268.139 44.3094C268.117 46.6892 267.479 49.0228 266.289 51.0836C265.124 52.8605 264.532 53.9525 262.737 55.1741C261.39 56.1606 259.946 57.0071 258.427 57.7005C257.409 58.228 256.725 58.5242 256.457 58.7092C253.682 60.1992 252.118 61.6244 251.97 64.1971C251.878 65.8444 251.323 66.2793 249.741 66.1868L247.105 66.0295C245.523 65.9369 245.024 65.4464 245.116 63.7992C245.449 58.191 247.891 55.6275 252.082 53.1566C252.017 53.1566 254.755 51.6666 254.857 51.6019C255.711 51.1044 256.519 50.5314 257.271 49.8898C257.998 49.1825 258.621 48.3754 259.121 47.4929C259.557 46.4302 259.825 45.3063 259.916 44.1613C260.148 40.1449 257.335 37.2668 252.072 36.9614C246.994 36.6652 244.182 38.5439 242.091 42.5881C241.268 44.1983 240.732 44.4389 239.178 43.8096L236.079 42.5048C234.59 41.9588 234.229 40.9408 234.858 39.5896C238.151 32.4822 244.108 29.1784 252.729 29.6782ZM248.539 69.7035C251.702 69.8886 252.692 71.0084 252.507 74.1641V74.7656C252.322 77.9862 251.212 78.9209 248.048 78.7358H247.521C244.358 78.5507 243.368 77.5049 243.553 74.2752V73.6829C243.738 70.5179 244.848 69.5276 248.011 69.7127L248.539 69.7035Z" fill="#FFD200"/>
<path d="M165.205 98.1602H177.517C177.517 98.1602 216.95 101.557 217.579 121.065C218.208 140.573 192.706 179.543 192.706 179.543H150.211C150.211 179.543 101.325 98.1602 165.205 98.1602Z" fill="url(#paint12_linear_4755_27663)"/>
<path d="M165.205 98.1602H177.517C177.517 98.1602 216.95 101.557 217.579 121.065C218.208 140.573 192.706 179.543 192.706 179.543H150.211C150.211 179.543 101.325 98.1602 165.205 98.1602Z" fill="url(#paint13_linear_4755_27663)" fill-opacity="0.2"/>
<path opacity="0.08" d="M190.023 116.271C190.023 116.271 181.125 128.969 184.843 138.852C188.562 148.736 190.217 164.57 161.561 149.236L157.398 135.946L146.206 132.097L141.701 150.43L149.416 153.049C151.189 153.623 152.667 154.87 153.532 156.523C154.397 158.175 154.579 160.101 154.041 161.886C153.014 165.033 150.479 168.142 144.541 168.744L150.248 179.507H192.743L198.376 170.336L213.86 136.307L190.023 116.271Z" fill="black"/>
<path d="M157.685 84.8985C157.685 84.8985 154.836 79.679 151.432 77.3746C148.028 75.0703 150.812 67.6575 156.797 66.3341C161.274 65.3346 163.836 63.8632 163.873 61.3367C163.89 61.0687 163.979 60.8102 164.13 60.5885C164.282 60.3668 164.49 60.1902 164.734 60.0774C164.978 59.9645 165.247 59.9196 165.514 59.9475C165.781 59.9753 166.036 60.0748 166.251 60.2354C168.304 61.7809 170.404 64.3074 169.386 67.8056C168.987 69.0744 168.266 70.2181 167.294 71.1248C166.321 72.0315 165.13 72.6703 163.836 72.9788L159.803 74.0523C159.803 74.0523 165.205 81.3355 157.685 84.8985Z" fill="#24285B"/>
<path d="M162.56 80.5316C162.56 80.5316 161.422 78.1718 159.72 79.1805C158.018 80.1892 159.637 83.6041 162.218 82.8082L162.56 80.5316Z" fill="#F4A28C"/>
<path d="M213.305 66.252L189.912 84.4276L219.429 78.1439L213.305 66.252Z" fill="#24285B"/>
<path d="M190.227 122.167C186.971 110.266 201.243 101.409 210.577 109.535C215.026 113.421 218.818 118.419 219.965 124.629C223.268 142.471 233.84 158 217.653 168.568C201.465 179.137 163.152 155.686 163.152 155.686L168.424 146.108C168.424 146.108 187.6 153.706 199.495 153.04C207.7 152.586 194.824 138.973 190.227 122.167Z" fill="url(#paint14_linear_4755_27663)"/>
<path d="M190.227 122.167C186.971 110.266 201.243 101.409 210.577 109.535C215.026 113.421 218.818 118.419 219.965 124.629C223.268 142.471 233.84 158 217.653 168.568C201.465 179.137 163.152 155.686 163.152 155.686L168.424 146.108C168.424 146.108 187.6 153.706 199.495 153.04C207.7 152.586 194.824 138.973 190.227 122.167Z" fill="url(#paint15_linear_4755_27663)" fill-opacity="0.2"/>
<path d="M165.725 132.883L154.164 130.121L149.71 148.781L161.272 151.543L165.725 132.883Z" fill="#FFD200"/>
<path opacity="0.3" d="M190.227 122.167C186.971 110.266 201.243 101.409 210.577 109.535C215.026 113.421 218.818 118.419 219.965 124.629C223.268 142.471 233.84 158 217.653 168.568C201.465 179.137 163.152 155.686 163.152 155.686L168.424 146.108C168.424 146.108 187.6 153.706 199.495 153.04C207.7 152.586 194.824 138.973 190.227 122.167Z" fill="white"/>
<path d="M167.721 147.31C167.287 145.489 166.424 143.798 165.205 142.378C163.133 139.897 162.43 138.796 159.572 138.852C156.714 138.907 156.427 149.411 164.317 153.492L167.721 147.31Z" fill="#F4A28C"/>
<path d="M192.706 179.543C192.706 179.543 184.196 214.895 201.234 229.757L195.231 235.375C195.231 235.375 173.142 222.548 170.062 187.307L192.706 179.543Z" fill="#24285B"/>
<path d="M135.772 78.7168L139.324 85.0005L113.35 125.951C109.335 132.272 99.3362 129.653 99.2437 122.166C99.2437 118.714 100.289 114.559 103.369 109.654C114.525 91.8303 135.772 78.7168 135.772 78.7168Z" fill="url(#paint16_linear_4755_27663)"/>
<path d="M135.772 78.7168L139.324 85.0005L113.35 125.951C109.335 132.272 99.3362 129.653 99.2437 122.166C99.2437 118.714 100.289 114.559 103.369 109.654C114.525 91.8303 135.772 78.7168 135.772 78.7168Z" fill="url(#paint17_linear_4755_27663)" fill-opacity="0.2"/>
<path d="M133.126 66.6694L132.88 68.5039L142.516 69.7936L142.762 67.9591L133.126 66.6694Z" fill="#C9C9C9"/>
<path d="M140.59 54.9713L139.167 56.1543L145.381 63.6345L146.804 62.4515L140.59 54.9713Z" fill="#C9C9C9"/>
<path d="M152.767 51.9597L151.869 61.6445L153.711 61.8155L154.609 52.1307L152.767 51.9597Z" fill="#C9C9C9"/>
<path d="M150.211 179.543C150.211 179.543 141.479 212.544 158.693 236.874L165.649 236.541C165.649 236.541 155.567 203.623 170.543 191.583L192.743 179.552L150.211 179.543Z" fill="#24285B"/>
<defs>
<linearGradient id="paint0_linear_4755_27663" x1="119.303" y1="99.0117" x2="162.138" y2="131.306" gradientUnits="userSpaceOnUse">
<stop stop-color="#59CDFF"/>
<stop offset="1" stop-color="#C071FF"/>
</linearGradient>
<linearGradient id="paint1_linear_4755_27663" x1="130.974" y1="87.2305" x2="130.974" y2="141.196" gradientUnits="userSpaceOnUse">
<stop stop-color="#FA00FF"/>
<stop offset="1" stop-color="#FF2DEA" stop-opacity="0"/>
<stop offset="1" stop-color="#FF2DEA" stop-opacity="0"/>
</linearGradient>
<linearGradient id="paint2_linear_4755_27663" x1="215.955" y1="216.992" x2="229.128" y2="223.406" gradientUnits="userSpaceOnUse">
<stop stop-color="#59CDFF"/>
<stop offset="1" stop-color="#C071FF"/>
</linearGradient>
<linearGradient id="paint3_linear_4755_27663" x1="218.786" y1="212.568" x2="218.786" y2="232.835" gradientUnits="userSpaceOnUse">
<stop stop-color="#FA00FF"/>
<stop offset="1" stop-color="#FF2DEA" stop-opacity="0"/>
<stop offset="1" stop-color="#FF2DEA" stop-opacity="0"/>
</linearGradient>
<linearGradient id="paint4_linear_4755_27663" x1="223.739" y1="207.492" x2="234.002" y2="209.495" gradientUnits="userSpaceOnUse">
<stop stop-color="#59CDFF"/>
<stop offset="1" stop-color="#C071FF"/>
</linearGradient>
<linearGradient id="paint5_linear_4755_27663" x1="225.589" y1="200.273" x2="225.59" y2="233.34" gradientUnits="userSpaceOnUse">
<stop stop-color="#FA00FF"/>
<stop offset="1" stop-color="#FF2DEA" stop-opacity="0"/>
<stop offset="1" stop-color="#FF2DEA" stop-opacity="0"/>
</linearGradient>
<linearGradient id="paint6_linear_4755_27663" x1="229.956" y1="214.461" x2="242.877" y2="220.017" gradientUnits="userSpaceOnUse">
<stop stop-color="#59CDFF"/>
<stop offset="1" stop-color="#C071FF"/>
</linearGradient>
<linearGradient id="paint7_linear_4755_27663" x1="232.615" y1="209.754" x2="232.615" y2="231.315" gradientUnits="userSpaceOnUse">
<stop stop-color="#FA00FF"/>
<stop offset="1" stop-color="#FF2DEA" stop-opacity="0"/>
<stop offset="1" stop-color="#FF2DEA" stop-opacity="0"/>
</linearGradient>
<linearGradient id="paint8_linear_4755_27663" x1="156.131" y1="236.875" x2="166.834" y2="243.119" gradientUnits="userSpaceOnUse">
<stop stop-color="#59CDFF"/>
<stop offset="1" stop-color="#C071FF"/>
</linearGradient>
<linearGradient id="paint9_linear_4755_27663" x1="158.623" y1="233.624" x2="158.623" y2="248.516" gradientUnits="userSpaceOnUse">
<stop stop-color="#FA00FF"/>
<stop offset="1" stop-color="#FF2DEA" stop-opacity="0"/>
<stop offset="1" stop-color="#FF2DEA" stop-opacity="0"/>
</linearGradient>
<linearGradient id="paint10_linear_4755_27663" x1="196.846" y1="230.277" x2="207.336" y2="233.651" gradientUnits="userSpaceOnUse">
<stop stop-color="#59CDFF"/>
<stop offset="1" stop-color="#C071FF"/>
</linearGradient>
<linearGradient id="paint11_linear_4755_27663" x1="198.857" y1="225.519" x2="198.857" y2="247.314" gradientUnits="userSpaceOnUse">
<stop stop-color="#FA00FF"/>
<stop offset="1" stop-color="#FF2DEA" stop-opacity="0"/>
<stop offset="1" stop-color="#FF2DEA" stop-opacity="0"/>
</linearGradient>
<linearGradient id="paint12_linear_4755_27663" x1="158.842" y1="98.1602" x2="237.812" y2="131.179" gradientUnits="userSpaceOnUse">
<stop stop-color="#59CDFF"/>
<stop offset="1" stop-color="#C071FF"/>
</linearGradient>
<linearGradient id="paint13_linear_4755_27663" x1="174.959" y1="68.8243" x2="174.96" y2="203.201" gradientUnits="userSpaceOnUse">
<stop stop-color="#FA00FF"/>
<stop offset="1" stop-color="#FF2DEA" stop-opacity="0"/>
<stop offset="1" stop-color="#FF2DEA" stop-opacity="0"/>
</linearGradient>
<linearGradient id="paint14_linear_4755_27663" x1="182.825" y1="106.393" x2="242.616" y2="129.648" gradientUnits="userSpaceOnUse">
<stop stop-color="#59CDFF"/>
<stop offset="1" stop-color="#C071FF"/>
</linearGradient>
<linearGradient id="paint15_linear_4755_27663" x1="194.783" y1="82.9939" x2="194.783" y2="190.175" gradientUnits="userSpaceOnUse">
<stop stop-color="#FA00FF"/>
<stop offset="1" stop-color="#FF2DEA" stop-opacity="0"/>
<stop offset="1" stop-color="#FF2DEA" stop-opacity="0"/>
</linearGradient>
<linearGradient id="paint16_linear_4755_27663" x1="111.708" y1="78.7168" x2="151.385" y2="91.2121" gradientUnits="userSpaceOnUse">
<stop stop-color="#59CDFF"/>
<stop offset="1" stop-color="#C071FF"/>
</linearGradient>
<linearGradient id="paint17_linear_4755_27663" x1="119.284" y1="60.408" x2="119.284" y2="144.274" gradientUnits="userSpaceOnUse">
<stop stop-color="#FA00FF"/>
<stop offset="1" stop-color="#FF2DEA" stop-opacity="0"/>
<stop offset="1" stop-color="#FF2DEA" stop-opacity="0"/>
</linearGradient>
</defs>
</svg>
