<svg width="44" height="44" viewBox="0 0 44 44" fill="none" xmlns="http://www.w3.org/2000/svg">
<rect width="44" height="44" rx="4" fill="#FF3C3C" fill-opacity="0.1"/>
<g clip-path="url(#clip0_5622_30866)">
<path d="M31.7656 28.7891L23.4453 14.5703C22.7812 13.4766 21.1797 13.4766 20.5547 14.5703L12.1953 28.7891C11.5703 29.8828 12.3516 31.25 13.6406 31.25H30.3203C31.6094 31.25 32.3906 29.8828 31.7656 28.7891ZM21.0625 19.0625C21.0625 18.5547 21.4531 18.125 22 18.125C22.5078 18.125 22.9375 18.5547 22.9375 19.0625V24.0625C22.9375 24.6094 22.5078 25 22 25C21.5312 25 21.0625 24.6094 21.0625 24.0625V19.0625ZM22 28.75C21.2969 28.75 20.75 28.2031 20.75 27.5391C20.75 26.875 21.2969 26.3281 22 26.3281C22.6641 26.3281 23.2109 26.875 23.2109 27.5391C23.2109 28.2031 22.6641 28.75 22 28.75Z" fill="#FF3C3C" fill-opacity="0.8"/>
</g>
<defs>
<clipPath id="clip0_5622_30866">
<rect width="24" height="24" fill="white" transform="translate(10 10)"/>
</clipPath>
</defs>
</svg>
