<svg width="724" height="143" viewBox="0 0 724 143" fill="none" xmlns="http://www.w3.org/2000/svg">
<g opacity="0.25">
<path d="M825.254 265.125C792.579 235.161 705.872 151.867 620.437 58.3968C513.642 -58.441 473.548 -90.019 449.254 -55.1041C424.959 -20.1893 471.093 163.327 498.459 266.683C525.825 370.039 519.267 407.327 494.602 389.769C469.936 372.21 365.665 287.296 319.827 226.982" stroke="url(#paint0_linear_570_8441)"/>
<path d="M816.171 270.492C783.497 240.529 696.79 157.234 611.355 63.7639C504.56 -53.0738 464.466 -84.6518 440.171 -49.737C415.877 -14.8221 462.011 168.694 489.377 272.05C516.743 375.406 510.185 412.695 485.52 395.136C460.854 377.577 356.583 292.663 310.745 232.35" stroke="url(#paint1_linear_570_8441)"/>
<path d="M807.089 275.855C774.415 245.892 687.708 162.597 602.273 69.1272C495.478 -47.7106 455.384 -79.2885 431.089 -44.3737C406.795 -9.45883 452.929 174.058 480.295 277.413C507.661 380.769 501.103 418.058 476.437 400.499C451.772 382.94 347.501 298.026 301.662 237.713" stroke="url(#paint2_linear_570_8441)"/>
<path d="M798.007 281.219C765.333 251.256 678.626 167.961 593.191 74.491C486.396 -42.3468 446.302 -73.9248 422.007 -39.0099C397.713 -4.09506 443.847 179.421 471.213 282.777C498.579 386.133 492.021 423.422 467.355 405.863C442.69 388.304 338.419 303.39 292.58 243.077" stroke="url(#paint3_linear_570_8441)"/>
<path d="M788.925 286.585C756.251 256.621 669.544 173.327 584.109 79.8567C477.314 -36.9811 437.22 -68.559 412.925 -33.6442C388.631 1.27066 434.765 184.787 462.131 288.143C489.497 391.499 482.939 428.787 458.273 411.229C433.608 393.67 329.337 308.756 283.498 248.442" stroke="url(#paint4_linear_570_8441)"/>
<path d="M779.843 291.951C747.169 261.987 660.462 178.693 575.027 85.2224C468.232 -31.6153 428.138 -63.1933 403.843 -28.2785C379.548 6.63639 425.683 190.153 453.049 293.509C480.415 396.864 473.857 434.153 449.191 416.594C424.526 399.036 320.255 314.122 274.416 253.808" stroke="url(#paint5_linear_570_8441)"/>
<path d="M770.761 297.318C738.087 267.354 651.38 184.06 565.944 90.5896C459.15 -26.2482 419.056 -57.8261 394.761 -22.9113C370.466 12.0036 416.601 195.52 443.967 298.876C471.333 402.232 464.775 439.52 440.109 421.962C415.444 404.403 311.173 319.489 265.334 259.175" stroke="url(#paint6_linear_570_8441)"/>
<path d="M761.683 302.682C729.009 272.718 642.302 189.424 556.866 95.9534C450.072 -20.8844 409.978 -52.4624 385.683 -17.5475C361.388 17.3673 407.523 200.884 434.889 304.24C462.255 407.595 455.697 444.884 431.031 427.325C406.366 409.767 302.095 324.853 256.256 264.539" stroke="url(#paint7_linear_570_8441)"/>
<path d="M752.601 308.044C719.927 278.08 633.22 194.786 547.784 101.316C440.99 -15.5221 400.896 -47.1 376.601 -12.1852C352.306 22.7296 398.441 206.246 425.807 309.602C453.173 412.958 446.615 450.246 421.949 432.688C397.284 415.129 293.013 330.215 247.174 269.901" stroke="url(#paint8_linear_570_8441)"/>
<path d="M743.515 313.413C710.841 283.45 624.134 200.155 538.698 106.685C431.904 -10.1529 391.81 -41.7309 367.515 -6.81606C343.22 28.0988 389.355 211.615 416.721 314.971C444.087 418.327 437.529 455.616 412.863 438.057C388.198 420.498 283.927 335.584 238.088 275.27" stroke="url(#paint9_linear_570_8441)"/>
<path d="M734.437 318.779C701.763 288.816 615.056 205.521 529.62 112.051C422.826 -4.78672 382.732 -36.3647 358.437 -1.44985C334.142 33.465 380.276 216.981 407.642 320.337C435.008 423.693 428.451 460.982 403.785 443.423C379.12 425.864 274.849 340.95 229.01 280.637" stroke="url(#paint10_linear_570_8441)"/>
<path d="M725.355 324.139C692.681 294.176 605.974 210.881 520.538 117.411C413.744 0.573139 373.65 -31.0048 349.355 3.91001C325.06 38.8249 371.194 222.341 398.56 325.697C425.926 429.053 419.369 466.342 394.703 448.783C370.038 431.224 265.767 346.31 219.928 285.997" stroke="url(#paint11_linear_570_8441)"/>
<path d="M716.273 329.506C683.599 299.543 596.892 216.248 511.456 122.778C404.662 5.94033 364.568 -25.6376 340.273 9.2772C315.978 44.192 362.112 227.708 389.478 331.064C416.844 434.42 410.287 471.709 385.621 454.15C360.956 436.591 256.685 351.677 210.846 291.364" stroke="url(#paint12_linear_570_8441)"/>
<path d="M707.195 334.871C674.521 304.908 587.814 221.613 502.378 128.143C395.583 11.3051 355.49 -20.2729 331.195 14.6419C306.9 49.5568 353.034 233.073 380.4 336.429C407.766 439.785 401.208 477.074 376.543 459.515C351.877 441.956 247.607 357.042 201.768 296.728" stroke="url(#paint13_linear_570_8441)"/>
<path d="M698.109 340.236C665.435 310.272 578.728 226.978 493.292 133.508C386.497 16.6698 346.404 -14.9082 322.109 20.0067C297.814 54.9215 343.948 238.438 371.314 341.794C398.68 445.15 392.122 482.438 367.457 464.88C342.792 447.321 238.521 362.407 192.682 302.093" stroke="url(#paint14_linear_570_8441)"/>
<path d="M689.027 345.604C656.353 315.64 569.646 232.346 484.21 138.876C377.415 22.038 337.322 -9.53999 313.027 25.3749C288.732 60.2897 334.866 243.806 362.232 347.162C389.598 450.518 383.04 487.806 358.375 470.248C333.71 452.689 229.439 367.775 183.6 307.461" stroke="url(#paint15_linear_570_8441)"/>
<path d="M679.945 350.966C647.271 321.003 560.564 237.708 475.128 144.238C368.333 27.4003 328.24 -4.17769 303.945 30.7372C279.65 65.652 325.784 249.168 353.15 352.524C380.516 455.88 373.958 493.169 349.293 475.61C324.627 458.051 220.357 373.137 174.518 312.824" stroke="url(#paint16_linear_570_8441)"/>
<path d="M670.863 356.333C638.189 326.37 551.482 243.075 466.046 149.605C359.251 32.7675 319.158 1.1895 294.863 36.1044C270.568 71.0192 316.702 254.536 344.068 357.891C371.434 461.247 364.876 498.536 340.211 480.977C315.545 463.419 211.275 378.505 165.436 318.191" stroke="url(#paint17_linear_570_8441)"/>
<path d="M661.781 361.699C629.107 331.736 542.4 248.441 456.964 154.971C350.169 38.1332 310.076 6.55522 285.781 41.4701C261.486 76.3849 307.62 259.901 334.986 363.257C362.352 466.613 355.794 503.902 331.129 486.343C306.463 468.784 202.193 383.87 156.354 323.557" stroke="url(#paint18_linear_570_8441)"/>
<path d="M652.703 367.057C620.029 337.094 533.322 253.799 447.886 160.329C341.091 43.4911 300.998 11.9131 276.703 46.828C252.408 81.7428 298.542 265.259 325.908 368.615C353.274 471.971 346.716 509.26 322.051 491.701C297.385 474.142 193.115 389.228 147.276 328.915" stroke="url(#paint19_linear_570_8441)"/>
<path d="M643.617 372.426C610.943 342.463 524.236 259.168 438.8 165.698C332.005 48.8602 291.912 17.2823 267.617 52.1971C243.322 87.112 289.456 270.628 316.822 373.984C344.188 477.34 337.63 514.629 312.965 497.07C288.299 479.511 184.029 394.597 138.19 334.284" stroke="url(#paint20_linear_570_8441)"/>
<path d="M634.539 377.79C601.865 347.827 515.158 264.532 429.722 171.062C322.927 54.224 282.834 22.646 258.539 57.5609C234.244 92.4757 280.378 275.992 307.744 379.348C335.11 482.704 328.552 519.992 303.887 502.434C279.221 484.875 174.951 399.961 129.112 339.647" stroke="url(#paint21_linear_570_8441)"/>
<path d="M625.453 383.156C592.779 353.192 506.072 269.898 420.636 176.428C313.841 59.5897 273.748 28.0118 249.453 62.9266C225.158 97.8415 271.292 281.358 298.658 384.714C326.024 488.069 319.466 525.358 294.801 507.799C270.135 490.241 165.865 405.327 120.026 345.013" stroke="url(#paint22_linear_570_8441)"/>
<path d="M616.375 388.522C583.701 358.558 496.993 275.264 411.558 181.794C304.763 64.956 264.669 33.378 240.375 68.2928C216.08 103.208 262.214 286.724 289.58 390.08C316.946 493.436 310.388 530.724 285.723 513.166C261.057 495.607 156.786 410.693 110.948 350.379" stroke="url(#paint23_linear_570_8441)"/>
<path d="M607.293 393.887C574.619 363.923 487.911 280.629 402.476 187.158C295.681 70.3207 255.587 38.7427 231.293 73.6576C206.998 108.572 253.132 292.089 280.498 395.445C307.864 498.8 301.306 536.089 276.641 518.53C251.975 500.972 147.704 416.058 101.866 355.744" stroke="url(#paint24_linear_570_8441)"/>
<path d="M598.207 399.251C565.533 369.288 478.826 285.993 393.39 192.523C286.595 75.6854 246.502 44.1075 222.207 79.0223C197.912 113.937 244.046 297.454 271.412 400.809C298.778 504.165 292.22 541.454 267.555 523.895C242.889 506.336 138.618 421.422 92.7797 361.109" stroke="url(#paint25_linear_570_8441)"/>
</g>
<defs>
<linearGradient id="paint0_linear_570_8441" x1="1127.76" y1="-459.995" x2="1367.8" y2="-51.3305" gradientUnits="userSpaceOnUse">
<stop stop-color="#12B4FF"/>
<stop offset="1" stop-color="#E100FF"/>
</linearGradient>
<linearGradient id="paint1_linear_570_8441" x1="1118.68" y1="-454.628" x2="1358.72" y2="-45.9633" gradientUnits="userSpaceOnUse">
<stop stop-color="#12B4FF"/>
<stop offset="1" stop-color="#E100FF"/>
</linearGradient>
<linearGradient id="paint2_linear_570_8441" x1="1109.6" y1="-449.265" x2="1349.64" y2="-40.6" gradientUnits="userSpaceOnUse">
<stop stop-color="#12B4FF"/>
<stop offset="1" stop-color="#E100FF"/>
</linearGradient>
<linearGradient id="paint3_linear_570_8441" x1="1100.52" y1="-443.901" x2="1340.55" y2="-35.2362" gradientUnits="userSpaceOnUse">
<stop stop-color="#12B4FF"/>
<stop offset="1" stop-color="#E100FF"/>
</linearGradient>
<linearGradient id="paint4_linear_570_8441" x1="1091.44" y1="-438.535" x2="1331.47" y2="-29.8705" gradientUnits="userSpaceOnUse">
<stop stop-color="#12B4FF"/>
<stop offset="1" stop-color="#E100FF"/>
</linearGradient>
<linearGradient id="paint5_linear_570_8441" x1="1082.35" y1="-433.169" x2="1322.39" y2="-24.5048" gradientUnits="userSpaceOnUse">
<stop stop-color="#12B4FF"/>
<stop offset="1" stop-color="#E100FF"/>
</linearGradient>
<linearGradient id="paint6_linear_570_8441" x1="1073.27" y1="-427.802" x2="1313.31" y2="-19.1376" gradientUnits="userSpaceOnUse">
<stop stop-color="#12B4FF"/>
<stop offset="1" stop-color="#E100FF"/>
</linearGradient>
<linearGradient id="paint7_linear_570_8441" x1="1064.19" y1="-422.438" x2="1304.23" y2="-13.7738" gradientUnits="userSpaceOnUse">
<stop stop-color="#12B4FF"/>
<stop offset="1" stop-color="#E100FF"/>
</linearGradient>
<linearGradient id="paint8_linear_570_8441" x1="1055.11" y1="-417.076" x2="1295.15" y2="-8.41154" gradientUnits="userSpaceOnUse">
<stop stop-color="#12B4FF"/>
<stop offset="1" stop-color="#E100FF"/>
</linearGradient>
<linearGradient id="paint9_linear_570_8441" x1="1046.03" y1="-411.707" x2="1286.06" y2="-3.0424" gradientUnits="userSpaceOnUse">
<stop stop-color="#12B4FF"/>
<stop offset="1" stop-color="#E100FF"/>
</linearGradient>
<linearGradient id="paint10_linear_570_8441" x1="1036.95" y1="-406.341" x2="1276.98" y2="2.32382" gradientUnits="userSpaceOnUse">
<stop stop-color="#12B4FF"/>
<stop offset="1" stop-color="#E100FF"/>
</linearGradient>
<linearGradient id="paint11_linear_570_8441" x1="1027.87" y1="-400.981" x2="1267.9" y2="7.68368" gradientUnits="userSpaceOnUse">
<stop stop-color="#12B4FF"/>
<stop offset="1" stop-color="#E100FF"/>
</linearGradient>
<linearGradient id="paint12_linear_570_8441" x1="1018.78" y1="-395.614" x2="1258.82" y2="13.0509" gradientUnits="userSpaceOnUse">
<stop stop-color="#12B4FF"/>
<stop offset="1" stop-color="#E100FF"/>
</linearGradient>
<linearGradient id="paint13_linear_570_8441" x1="1009.71" y1="-390.249" x2="1249.74" y2="18.4156" gradientUnits="userSpaceOnUse">
<stop stop-color="#12B4FF"/>
<stop offset="1" stop-color="#E100FF"/>
</linearGradient>
<linearGradient id="paint14_linear_570_8441" x1="1000.62" y1="-384.884" x2="1240.66" y2="23.7804" gradientUnits="userSpaceOnUse">
<stop stop-color="#12B4FF"/>
<stop offset="1" stop-color="#E100FF"/>
</linearGradient>
<linearGradient id="paint15_linear_570_8441" x1="991.538" y1="-379.516" x2="1231.57" y2="29.1485" gradientUnits="userSpaceOnUse">
<stop stop-color="#12B4FF"/>
<stop offset="1" stop-color="#E100FF"/>
</linearGradient>
<linearGradient id="paint16_linear_570_8441" x1="982.456" y1="-374.154" x2="1222.49" y2="34.5108" gradientUnits="userSpaceOnUse">
<stop stop-color="#12B4FF"/>
<stop offset="1" stop-color="#E100FF"/>
</linearGradient>
<linearGradient id="paint17_linear_570_8441" x1="973.374" y1="-368.787" x2="1213.41" y2="39.878" gradientUnits="userSpaceOnUse">
<stop stop-color="#12B4FF"/>
<stop offset="1" stop-color="#E100FF"/>
</linearGradient>
<linearGradient id="paint18_linear_570_8441" x1="964.292" y1="-363.421" x2="1204.33" y2="45.2437" gradientUnits="userSpaceOnUse">
<stop stop-color="#12B4FF"/>
<stop offset="1" stop-color="#E100FF"/>
</linearGradient>
<linearGradient id="paint19_linear_570_8441" x1="955.214" y1="-358.063" x2="1195.25" y2="50.6016" gradientUnits="userSpaceOnUse">
<stop stop-color="#12B4FF"/>
<stop offset="1" stop-color="#E100FF"/>
</linearGradient>
<linearGradient id="paint20_linear_570_8441" x1="946.128" y1="-352.694" x2="1186.16" y2="55.9708" gradientUnits="userSpaceOnUse">
<stop stop-color="#12B4FF"/>
<stop offset="1" stop-color="#E100FF"/>
</linearGradient>
<linearGradient id="paint21_linear_570_8441" x1="937.05" y1="-347.33" x2="1177.09" y2="61.3346" gradientUnits="userSpaceOnUse">
<stop stop-color="#12B4FF"/>
<stop offset="1" stop-color="#E100FF"/>
</linearGradient>
<linearGradient id="paint22_linear_570_8441" x1="927.964" y1="-341.964" x2="1168" y2="66.7003" gradientUnits="userSpaceOnUse">
<stop stop-color="#12B4FF"/>
<stop offset="1" stop-color="#E100FF"/>
</linearGradient>
<linearGradient id="paint23_linear_570_8441" x1="918.886" y1="-336.598" x2="1158.92" y2="72.0665" gradientUnits="userSpaceOnUse">
<stop stop-color="#12B4FF"/>
<stop offset="1" stop-color="#E100FF"/>
</linearGradient>
<linearGradient id="paint24_linear_570_8441" x1="909.804" y1="-331.233" x2="1149.84" y2="77.4312" gradientUnits="userSpaceOnUse">
<stop stop-color="#12B4FF"/>
<stop offset="1" stop-color="#E100FF"/>
</linearGradient>
<linearGradient id="paint25_linear_570_8441" x1="900.718" y1="-325.869" x2="1140.75" y2="82.796" gradientUnits="userSpaceOnUse">
<stop stop-color="#12B4FF"/>
<stop offset="1" stop-color="#E100FF"/>
</linearGradient>
</defs>
</svg>
