<svg width="32" height="33" viewBox="0 0 32 33" fill="none" xmlns="http://www.w3.org/2000/svg">
<rect y="0.0625" width="32" height="32" rx="4" fill="white"/>
<path d="M23.3125 9.34375C24 10.0312 24 11.125 23.3125 11.8125L22.375 12.75L19.3125 9.6875L20.25 8.75C20.9375 8.0625 22.0312 8.0625 22.7188 8.75L23.3125 9.34375ZM13.375 15.625L18.5938 10.4062L21.6562 13.4688L16.4375 18.6875C16.25 18.875 16 19.0312 15.75 19.125L12.9688 20.0312C12.6875 20.125 12.4062 20.0625 12.2188 19.8438C12 19.6562 11.9375 19.3438 12.0312 19.0938L12.9375 16.3125C13.0312 16.0625 13.1875 15.8125 13.375 15.625ZM14 10.0625C14.5312 10.0625 15 10.5312 15 11.0625C15 11.625 14.5312 12.0625 14 12.0625H11C10.4375 12.0625 10 12.5312 10 13.0625V21.0625C10 21.625 10.4375 22.0625 11 22.0625H19C19.5312 22.0625 20 21.625 20 21.0625V18.0625C20 17.5312 20.4375 17.0625 21 17.0625C21.5312 17.0625 22 17.5312 22 18.0625V21.0625C22 22.7188 20.6562 24.0625 19 24.0625H11C9.3125 24.0625 8 22.7188 8 21.0625V13.0625C8 11.4062 9.3125 10.0625 11 10.0625H14Z" fill="#199BD8"/>
</svg>
