<svg width="22" height="20" viewBox="0 0 22 20" fill="none" xmlns="http://www.w3.org/2000/svg">
<path d="M2.97917 6.22257C2.05606 7.31382 1.35166 8.59601 0.933594 10.0015C2.22489 14.338 6.24235 17.5 10.9983 17.5C11.9909 17.5 12.9513 17.3623 13.8615 17.1049M5.22687 4.22763C6.88312 3.13558 8.86695 2.5 10.9992 2.5C15.7552 2.5 19.7727 5.66205 21.064 9.99852C20.352 12.3919 18.8098 14.4277 16.7712 15.772M5.22687 4.22763L1.99924 1M5.22687 4.22763L8.87792 7.87868M16.7712 15.772L19.9992 19M16.7712 15.772L13.1206 12.1213M13.1206 12.1213C13.6635 11.5784 13.9992 10.8284 13.9992 10C13.9992 8.34315 12.6561 7 10.9992 7C10.1708 7 9.42081 7.33579 8.87792 7.87868M13.1206 12.1213L8.87792 7.87868" stroke="#0F172A" stroke-width="1.5" stroke-linecap="round" stroke-linejoin="round"/>
</svg>
