<svg width="71" height="82" viewBox="0 0 71 82" fill="none" xmlns="http://www.w3.org/2000/svg">
<path d="M55.8019 15.8414H12.0134C6.15872 15.8414 1.4126 20.5875 1.4126 26.4422V79.9996" stroke="url(#paint0_linear_281_5021)" stroke-width="2.65019" stroke-linecap="round"/>
<path d="M7.50698 80L45.201 80C51.0556 79.9999 55.8018 75.2538 55.8018 69.3992L55.8018 15.8417" stroke="#15B3FF" stroke-width="2.65019" stroke-linecap="round"/>
<path d="M45.6752 23.1265C45.8886 22.5497 46.7045 22.5497 46.9179 23.1265L47.4604 24.5926C47.6617 25.1367 48.0907 25.5656 48.6347 25.767L50.1009 26.3095C50.6777 26.5229 50.6777 27.3388 50.1009 27.5522L48.6347 28.0947C48.0907 28.296 47.6617 28.725 47.4604 29.2691L46.9179 30.7352C46.7045 31.312 45.8886 31.312 45.6752 30.7352L45.1326 29.2691C44.9313 28.725 44.5024 28.296 43.9583 28.0947L42.4922 27.5522C41.9154 27.3388 41.9154 26.5229 42.4922 26.3095L43.9583 25.767C44.5024 25.5656 44.9313 25.1367 45.1326 24.5926L45.6752 23.1265Z" stroke="#12B4FF" stroke-width="1.3251"/>
<path d="M60.1969 3.5884C60.4103 3.01157 61.2262 3.01157 61.4396 3.58839L62.6239 6.78894C62.8253 7.33299 63.2542 7.76195 63.7983 7.96327L66.9988 9.14758C67.5757 9.36102 67.5756 10.1769 66.9988 10.3903L63.7983 11.5746C63.2542 11.7759 62.8253 12.2049 62.6239 12.749L61.4396 15.9495C61.2262 16.5263 60.4103 16.5263 60.1969 15.9495L59.0126 12.749C58.8113 12.2049 58.3823 11.776 57.8383 11.5746L54.6377 10.3903C54.0609 10.1769 54.0609 9.36102 54.6377 9.14758L57.8383 7.96327C58.3823 7.76195 58.8113 7.333 59.0126 6.78894L60.1969 3.5884Z" stroke="#DE04FF" stroke-width="1.3251"/>
<path d="M63.1013 35.5355C63.3147 34.9587 64.1306 34.9587 64.344 35.5355L64.4586 35.8454C64.66 36.3894 65.0889 36.8184 65.633 37.0197L65.9428 37.1343C66.5196 37.3478 66.5196 38.1636 65.9428 38.3771L65.633 38.4917C65.0889 38.693 64.66 39.122 64.4586 39.6661L64.344 39.9759C64.1306 40.5527 63.3147 40.5527 63.1013 39.9759L62.9866 39.6661C62.7853 39.122 62.3563 38.693 61.8123 38.4917L61.5025 38.3771C60.9256 38.1636 60.9256 37.3478 61.5025 37.1343L61.8123 37.0197C62.3563 36.8184 62.7853 36.3894 62.9866 35.8454L63.1013 35.5355Z" stroke="#12B4FF" stroke-width="1.3251"/>
<path d="M21.2801 56.0373V72.3429H17.5858L11.6942 63.7761H11.5986V72.3429H7.17188V56.0373H10.9298L16.726 64.5723H16.8534V56.0373H21.2801Z" fill="url(#paint1_linear_281_5021)"/>
<path d="M24.3082 72.3429V56.0373H35.7731V59.6041H28.735V62.4067H35.0725V65.9735H28.735V72.3429H24.3082Z" fill="url(#paint2_linear_281_5021)"/>
<path d="M37.8896 59.6041V56.0373H52.0616V59.6041H47.1571V72.3429H42.7941V59.6041H37.8896Z" fill="url(#paint3_linear_281_5021)"/>
<defs>
<linearGradient id="paint0_linear_281_5021" x1="1.4126" y1="-81.263" x2="56.205" y2="-81.1602" gradientUnits="userSpaceOnUse">
<stop stop-color="#12B4FF"/>
<stop offset="1" stop-color="#E100FF"/>
</linearGradient>
<linearGradient id="paint1_linear_281_5021" x1="7.17188" y1="31.3584" x2="52.3928" y2="31.6339" gradientUnits="userSpaceOnUse">
<stop stop-color="#12B4FF"/>
<stop offset="1" stop-color="#E100FF"/>
</linearGradient>
<linearGradient id="paint2_linear_281_5021" x1="7.17188" y1="31.3584" x2="52.3928" y2="31.6339" gradientUnits="userSpaceOnUse">
<stop stop-color="#12B4FF"/>
<stop offset="1" stop-color="#E100FF"/>
</linearGradient>
<linearGradient id="paint3_linear_281_5021" x1="7.17188" y1="31.3584" x2="52.3928" y2="31.6339" gradientUnits="userSpaceOnUse">
<stop stop-color="#12B4FF"/>
<stop offset="1" stop-color="#E100FF"/>
</linearGradient>
</defs>
</svg>
