<svg width="16" height="17" viewBox="0 0 16 17" fill="none" xmlns="http://www.w3.org/2000/svg">
<path d="M6.28125 10.1172C6.71875 10.1172 7.0625 9.77344 7.0625 9.33594C7.0625 8.92969 6.71875 8.55469 6.28125 8.55469C5.84375 8.55469 5.5 8.92969 5.5 9.33594C5.5 9.77344 5.84375 10.1172 6.28125 10.1172ZM15.75 8.55469C15.75 4.27344 12.2812 0.804688 8 0.804688C3.71875 0.804688 0.25 4.27344 0.25 8.55469C0.25 12.8359 3.71875 16.3047 8 16.3047C12.2812 16.3047 15.75 12.8359 15.75 8.55469ZM11.5938 7.27344C12.6875 7.27344 13.0312 8.74219 12.0625 9.24219C12.0938 9.39844 12.125 9.55469 12.125 9.74219C12.125 11.3672 10.2812 12.7109 8 12.7109C5.71875 12.7109 3.875 11.3672 3.875 9.74219C3.875 9.55469 3.875 9.39844 3.90625 9.24219C2.9375 8.74219 3.28125 7.27344 4.375 7.27344C4.65625 7.27344 4.9375 7.39844 5.125 7.58594C5.8125 7.11719 6.75 6.80469 7.78125 6.77344L8.40625 4.05469C8.40625 3.96094 8.5 3.89844 8.59375 3.92969L10.5312 4.33594C10.6562 4.08594 10.9062 3.92969 11.2188 3.92969C11.6562 3.92969 12 4.27344 12 4.71094C12 5.11719 11.6562 5.46094 11.2188 5.46094C10.7812 5.46094 10.4375 5.11719 10.4375 4.71094L8.71875 4.30469L8.15625 6.77344C9.21875 6.80469 10.1562 7.11719 10.8438 7.58594C11.0625 7.39844 11.3125 7.27344 11.5938 7.27344ZM9.4375 10.8984C8.875 11.4922 7.0625 11.4609 6.53125 10.8984C6.46875 10.8359 6.34375 10.8359 6.25 10.8984C6.1875 10.9922 6.1875 11.1172 6.25 11.1797C6.96875 11.8984 9 11.8984 9.71875 11.1797C9.78125 11.1172 9.78125 10.9922 9.71875 10.8984C9.625 10.8359 9.53125 10.8359 9.4375 10.8984ZM9.6875 8.55469C9.25 8.55469 8.90625 8.92969 8.90625 9.33594C8.90625 9.77344 9.28125 10.1172 9.6875 10.1172C10.125 10.1172 10.4688 9.77344 10.4688 9.33594C10.4688 8.92969 10.125 8.55469 9.6875 8.55469Z" fill="url(#paint0_linear_2627_800)"/>
<path d="M6.28125 10.1172C6.71875 10.1172 7.0625 9.77344 7.0625 9.33594C7.0625 8.92969 6.71875 8.55469 6.28125 8.55469C5.84375 8.55469 5.5 8.92969 5.5 9.33594C5.5 9.77344 5.84375 10.1172 6.28125 10.1172ZM15.75 8.55469C15.75 4.27344 12.2812 0.804688 8 0.804688C3.71875 0.804688 0.25 4.27344 0.25 8.55469C0.25 12.8359 3.71875 16.3047 8 16.3047C12.2812 16.3047 15.75 12.8359 15.75 8.55469ZM11.5938 7.27344C12.6875 7.27344 13.0312 8.74219 12.0625 9.24219C12.0938 9.39844 12.125 9.55469 12.125 9.74219C12.125 11.3672 10.2812 12.7109 8 12.7109C5.71875 12.7109 3.875 11.3672 3.875 9.74219C3.875 9.55469 3.875 9.39844 3.90625 9.24219C2.9375 8.74219 3.28125 7.27344 4.375 7.27344C4.65625 7.27344 4.9375 7.39844 5.125 7.58594C5.8125 7.11719 6.75 6.80469 7.78125 6.77344L8.40625 4.05469C8.40625 3.96094 8.5 3.89844 8.59375 3.92969L10.5312 4.33594C10.6562 4.08594 10.9062 3.92969 11.2188 3.92969C11.6562 3.92969 12 4.27344 12 4.71094C12 5.11719 11.6562 5.46094 11.2188 5.46094C10.7812 5.46094 10.4375 5.11719 10.4375 4.71094L8.71875 4.30469L8.15625 6.77344C9.21875 6.80469 10.1562 7.11719 10.8438 7.58594C11.0625 7.39844 11.3125 7.27344 11.5938 7.27344ZM9.4375 10.8984C8.875 11.4922 7.0625 11.4609 6.53125 10.8984C6.46875 10.8359 6.34375 10.8359 6.25 10.8984C6.1875 10.9922 6.1875 11.1172 6.25 11.1797C6.96875 11.8984 9 11.8984 9.71875 11.1797C9.78125 11.1172 9.78125 10.9922 9.71875 10.8984C9.625 10.8359 9.53125 10.8359 9.4375 10.8984ZM9.6875 8.55469C9.25 8.55469 8.90625 8.92969 8.90625 9.33594C8.90625 9.77344 9.28125 10.1172 9.6875 10.1172C10.125 10.1172 10.4688 9.77344 10.4688 9.33594C10.4688 8.92969 10.125 8.55469 9.6875 8.55469Z" fill="url(#paint1_linear_2627_800)" fill-opacity="0.2"/>
<defs>
<linearGradient id="paint0_linear_2627_800" x1="3.46341" y1="-3.44531" x2="25.9903" y2="5.54501" gradientUnits="userSpaceOnUse">
<stop stop-color="#59CDFF"/>
<stop offset="1" stop-color="#C071FF"/>
</linearGradient>
<linearGradient id="paint1_linear_2627_800" x1="8" y1="-12.0965" x2="8.00016" y2="27.5314" gradientUnits="userSpaceOnUse">
<stop stop-color="#FA00FF"/>
<stop offset="1" stop-color="#FF2DEA" stop-opacity="0"/>
<stop offset="1" stop-color="#FF2DEA" stop-opacity="0"/>
</linearGradient>
</defs>
</svg>
