<svg width="76" height="81" viewBox="0 0 76 81" fill="none" xmlns="http://www.w3.org/2000/svg">
<circle cx="38.2971" cy="40.8019" r="13.6633" stroke="url(#paint0_linear_281_5129)" stroke-width="1.59012" stroke-linecap="round"/>
<path d="M32.6458 49.1863V33.0182H39.0245C40.2456 33.0182 41.2877 33.2367 42.1508 33.6735C43.0192 34.1051 43.6797 34.7182 44.1323 35.5129C44.5902 36.3024 44.8192 37.2313 44.8192 38.2997C44.8192 39.3734 44.5876 40.297 44.1244 41.0707C43.6613 41.8391 42.9902 42.4286 42.1113 42.8391C41.2377 43.2496 40.1798 43.4548 38.9377 43.4548H34.6668V40.7075H38.3851C39.0377 40.7075 39.5798 40.6181 40.0114 40.4391C40.4429 40.2602 40.764 39.9918 40.9745 39.6339C41.1903 39.276 41.2982 38.8313 41.2982 38.2997C41.2982 37.7629 41.1903 37.3103 40.9745 36.9418C40.764 36.5734 40.4403 36.2945 40.0035 36.105C39.5719 35.9103 39.0272 35.8129 38.3693 35.8129H36.0641V49.1863H32.6458ZM41.3771 41.8286L45.3955 49.1863H41.6219L37.6904 41.8286H41.3771Z" fill="url(#paint1_linear_281_5129)"/>
<circle cx="60.2773" cy="11.693" r="10.693" stroke="url(#paint2_linear_281_5129)" stroke-width="0.600001" stroke-linecap="round"/>
<path d="M59.7579 17.0909V6.18181H60.4567V17.0909H59.7579ZM61.6116 9.78266C61.5775 9.43891 61.4312 9.17187 61.1726 8.98153C60.9141 8.79119 60.5633 8.69602 60.1201 8.69602C59.8189 8.69602 59.5647 8.73863 59.3573 8.82386C59.1499 8.90624 58.9908 9.0213 58.88 9.16903C58.7721 9.31676 58.7181 9.48437 58.7181 9.67187C58.7124 9.82812 58.7451 9.96448 58.8161 10.081C58.89 10.1974 58.9908 10.2983 59.1187 10.3835C59.2465 10.4659 59.3942 10.5383 59.5618 10.6008C59.7295 10.6605 59.9084 10.7116 60.0988 10.7543L60.8829 10.9418C61.2635 11.027 61.613 11.1406 61.9312 11.2827C62.2493 11.4247 62.5249 11.5994 62.7579 11.8068C62.9908 12.0142 63.1712 12.2585 63.2991 12.5398C63.4297 12.821 63.4965 13.1435 63.4993 13.5071C63.4965 14.0412 63.3601 14.5043 63.0902 14.8963C62.8232 15.2855 62.4368 15.5881 61.9312 15.804C61.4283 16.017 60.8218 16.1236 60.1116 16.1236C59.407 16.1236 58.7934 16.0156 58.2706 15.7997C57.7508 15.5838 57.3445 15.2642 57.0519 14.8409C56.7621 14.4148 56.6101 13.8878 56.5959 13.2599H58.3814C58.4013 13.5526 58.4851 13.7969 58.6329 13.9929C58.7834 14.1861 58.9837 14.3324 59.2337 14.4318C59.4866 14.5284 59.7721 14.5767 60.0902 14.5767C60.4027 14.5767 60.6741 14.5312 60.9042 14.4403C61.1371 14.3494 61.3175 14.223 61.4454 14.0611C61.5732 13.8991 61.6371 13.7131 61.6371 13.5028C61.6371 13.3068 61.5789 13.142 61.4624 13.0085C61.3488 12.875 61.1812 12.7614 60.9596 12.6676C60.7408 12.5739 60.4723 12.4886 60.1542 12.4119L59.2039 12.1733C58.4681 11.9943 57.8871 11.7145 57.461 11.3338C57.0348 10.9531 56.8232 10.4403 56.826 9.79545C56.8232 9.26704 56.9638 8.80539 57.2479 8.4105C57.5348 8.01562 57.9283 7.70738 58.4283 7.48579C58.9283 7.2642 59.4965 7.1534 60.1329 7.1534C60.7806 7.1534 61.3459 7.2642 61.8289 7.48579C62.3147 7.70738 62.6925 8.01562 62.9624 8.4105C63.2323 8.80539 63.3715 9.26278 63.38 9.78266H61.6116Z" fill="url(#paint3_linear_281_5129)"/>
<circle cx="11.5644" cy="59.2179" r="10.693" stroke="url(#paint4_linear_281_5129)" stroke-width="0.600001" stroke-linecap="round"/>
<path d="M11.045 64.6157V53.7066H11.7438V64.6157H11.045ZM12.8987 57.3074C12.8646 56.9637 12.7183 56.6966 12.4597 56.5063C12.2012 56.316 11.8504 56.2208 11.4072 56.2208C11.106 56.2208 10.8518 56.2634 10.6444 56.3486C10.437 56.431 10.2779 56.5461 10.1671 56.6938C10.0592 56.8415 10.0052 57.0091 10.0052 57.1966C9.99951 57.3529 10.0322 57.4893 10.1032 57.6057C10.1771 57.7222 10.2779 57.8231 10.4058 57.9083C10.5336 57.9907 10.6813 58.0631 10.8489 58.1256C11.0166 58.1853 11.1955 58.2364 11.3859 58.279L12.17 58.4665C12.5507 58.5518 12.9001 58.6654 13.2183 58.8074C13.5364 58.9495 13.812 59.1242 14.045 59.3316C14.2779 59.539 14.4583 59.7833 14.5862 60.0645C14.7168 60.3458 14.7836 60.6682 14.7864 61.0319C14.7836 61.566 14.6472 62.029 14.3774 62.4211C14.1103 62.8103 13.7239 63.1128 13.2183 63.3288C12.7154 63.5418 12.1089 63.6484 11.3987 63.6484C10.6941 63.6484 10.0805 63.5404 9.55775 63.3245C9.03787 63.1086 8.63162 62.789 8.339 62.3657C8.04923 61.9396 7.89724 61.4126 7.88303 60.7847H9.66855C9.68843 61.0773 9.77224 61.3217 9.91997 61.5177C10.0705 61.7109 10.2708 61.8572 10.5208 61.9566C10.7737 62.0532 11.0592 62.1015 11.3774 62.1015C11.6899 62.1015 11.9612 62.056 12.1913 61.9651C12.4242 61.8742 12.6046 61.7478 12.7325 61.5859C12.8603 61.4239 12.9242 61.2378 12.9242 61.0276C12.9242 60.8316 12.866 60.6668 12.7495 60.5333C12.6359 60.3998 12.4683 60.2861 12.2467 60.1924C12.0279 60.0986 11.7595 60.0134 11.4413 59.9367L10.491 59.6981C9.7552 59.5191 9.17423 59.2393 8.74809 58.8586C8.32196 58.4779 8.11031 57.9651 8.11315 57.3202C8.11031 56.7918 8.25093 56.3302 8.53502 55.9353C8.82196 55.5404 9.21542 55.2322 9.71542 55.0106C10.2154 54.789 10.7836 54.6782 11.42 54.6782C12.0677 54.6782 12.633 54.789 13.116 55.0106C13.6018 55.2322 13.9796 55.5404 14.2495 55.9353C14.5194 56.3302 14.6586 56.7876 14.6671 57.3074H12.8987Z" fill="url(#paint5_linear_281_5129)"/>
<circle cx="64.4357" cy="69.911" r="10.693" stroke="url(#paint6_linear_281_5129)" stroke-width="0.600001" stroke-linecap="round"/>
<path d="M63.9163 75.3089V64.3998H64.6152V75.3089H63.9163ZM65.77 68.0007C65.7359 67.6569 65.5896 67.3899 65.3311 67.1995C65.0726 67.0092 64.7217 66.914 64.2785 66.914C63.9774 66.914 63.7231 66.9566 63.5157 67.0419C63.3084 67.1243 63.1493 67.2393 63.0385 67.387C62.9305 67.5348 62.8765 67.7024 62.8765 67.8899C62.8709 68.0461 62.9035 68.1825 62.9745 68.299C63.0484 68.4155 63.1493 68.5163 63.2771 68.6015C63.4049 68.6839 63.5527 68.7564 63.7203 68.8189C63.8879 68.8785 64.0669 68.9297 64.2572 68.9723L65.0413 69.1598C65.422 69.245 65.7714 69.3586 66.0896 69.5007C66.4078 69.6427 66.6834 69.8174 66.9163 70.0248C67.1493 70.2322 67.3297 70.4765 67.4575 70.7578C67.5882 71.039 67.6549 71.3615 67.6578 71.7251C67.6549 72.2592 67.5186 72.7223 67.2487 73.1143C66.9817 73.5035 66.5953 73.8061 66.0896 74.022C65.5868 74.2351 64.9802 74.3416 64.27 74.3416C63.5655 74.3416 62.9518 74.2336 62.4291 74.0177C61.9092 73.8018 61.503 73.4822 61.2103 73.0589C60.9206 72.6328 60.7686 72.1058 60.7544 71.478H62.5399C62.5598 71.7706 62.6436 72.0149 62.7913 72.2109C62.9419 72.4041 63.1422 72.5504 63.3922 72.6498C63.645 72.7464 63.9305 72.7947 64.2487 72.7947C64.5612 72.7947 64.8325 72.7493 65.0626 72.6584C65.2956 72.5674 65.476 72.441 65.6038 72.2791C65.7317 72.1172 65.7956 71.9311 65.7956 71.7209C65.7956 71.5248 65.7373 71.3601 65.6209 71.2265C65.5072 71.093 65.3396 70.9794 65.118 70.8856C64.8993 70.7919 64.6308 70.7067 64.3126 70.6299L63.3623 70.3913C62.6265 70.2123 62.0456 69.9325 61.6194 69.5518C61.1933 69.1711 60.9816 68.6584 60.9845 68.0135C60.9816 67.4851 61.1223 67.0234 61.4064 66.6285C61.6933 66.2336 62.0868 65.9254 62.5868 65.7038C63.0868 65.4822 63.6549 65.3714 64.2913 65.3714C64.939 65.3714 65.5044 65.4822 65.9873 65.7038C66.4731 65.9254 66.851 66.2336 67.1209 66.6285C67.3907 67.0234 67.5299 67.4808 67.5385 68.0007H65.77Z" fill="url(#paint7_linear_281_5129)"/>
<circle cx="15.7228" cy="18.2277" r="10.693" stroke="url(#paint8_linear_281_5129)" stroke-width="0.600001" stroke-linecap="round"/>
<path d="M15.2034 23.6255V12.7164H15.9023V23.6255H15.2034ZM17.0571 16.3172C17.023 15.9735 16.8767 15.7064 16.6182 15.5161C16.3597 15.3257 16.0088 15.2306 15.5656 15.2306C15.2645 15.2306 15.0102 15.2732 14.8028 15.3584C14.5955 15.4408 14.4364 15.5558 14.3256 15.7036C14.2176 15.8513 14.1636 16.0189 14.1636 16.2064C14.158 16.3627 14.1906 16.499 14.2617 16.6155C14.3355 16.732 14.4364 16.8328 14.5642 16.9181C14.6921 17.0004 14.8398 17.0729 15.0074 17.1354C15.175 17.1951 15.354 17.2462 15.5443 17.2888L16.3284 17.4763C16.7091 17.5615 17.0585 17.6752 17.3767 17.8172C17.6949 17.9593 17.9705 18.134 18.2034 18.3414C18.4364 18.5487 18.6168 18.7931 18.7446 19.0743C18.8753 19.3556 18.9421 19.678 18.9449 20.0416C18.9421 20.5757 18.8057 21.0388 18.5358 21.4309C18.2688 21.8201 17.8824 22.1226 17.3767 22.3385C16.8739 22.5516 16.2673 22.6581 15.5571 22.6581C14.8526 22.6581 14.2389 22.5502 13.7162 22.3343C13.1963 22.1184 12.7901 21.7987 12.4974 21.3755C12.2077 20.9493 12.0557 20.4223 12.0415 19.7945H13.827C13.8469 20.0871 13.9307 20.3314 14.0784 20.5274C14.229 20.7206 14.4293 20.8669 14.6793 20.9664C14.9321 21.063 15.2176 21.1112 15.5358 21.1112C15.8483 21.1112 16.1196 21.0658 16.3497 20.9749C16.5827 20.884 16.7631 20.7576 16.8909 20.5956C17.0188 20.4337 17.0827 20.2476 17.0827 20.0374C17.0827 19.8414 17.0244 19.6766 16.908 19.5431C16.7943 19.4095 16.6267 19.2959 16.4051 19.2022C16.1864 19.1084 15.9179 19.0232 15.5997 18.9465L14.6494 18.7078C13.9136 18.5289 13.3327 18.249 12.9065 17.8683C12.4804 17.4877 12.2688 16.9749 12.2716 16.33C12.2688 15.8016 12.4094 15.3399 12.6935 14.9451C12.9804 14.5502 13.3739 14.2419 13.8739 14.0203C14.3739 13.7987 14.9421 13.6879 15.5784 13.6879C16.2261 13.6879 16.7915 13.7987 17.2744 14.0203C17.7602 14.2419 18.1381 14.5502 18.408 14.9451C18.6779 15.3399 18.8171 15.7973 18.8256 16.3172H17.0571Z" fill="url(#paint9_linear_281_5129)"/>
<line x1="27.6679" y1="30.7029" x2="23.4457" y2="26.4807" stroke="url(#paint10_linear_281_5129)" stroke-width="1.59012" stroke-linecap="round"/>
<line x1="57.965" y1="60.4061" x2="48.3963" y2="50.8375" stroke="url(#paint11_linear_281_5129)" stroke-width="1.59012" stroke-linecap="round"/>
<line x1="25.2275" y1="47.273" x2="20.4113" y2="52.0892" stroke="url(#paint12_linear_281_5129)" stroke-width="1.59012" stroke-linecap="round"/>
<line x1="53.7427" y1="20.5403" x2="45.9562" y2="28.3268" stroke="url(#paint13_linear_281_5129)" stroke-width="1.59012" stroke-linecap="round"/>
<defs>
<linearGradient id="paint0_linear_281_5129" x1="24.6338" y1="-14.2207" x2="52.163" y2="-14.1598" gradientUnits="userSpaceOnUse">
<stop stop-color="#12B4FF"/>
<stop offset="1" stop-color="#E100FF"/>
</linearGradient>
<linearGradient id="paint1_linear_281_5129" x1="32.6458" y1="8.54769" x2="45.49" y2="8.5701" gradientUnits="userSpaceOnUse">
<stop stop-color="#12B4FF"/>
<stop offset="1" stop-color="#E100FF"/>
</linearGradient>
<linearGradient id="paint2_linear_281_5129" x1="49.5842" y1="-31.3681" x2="71.1288" y2="-31.3205" gradientUnits="userSpaceOnUse">
<stop stop-color="#12B4FF"/>
<stop offset="1" stop-color="#E100FF"/>
</linearGradient>
<linearGradient id="paint3_linear_281_5129" x1="56.1187" y1="-31.9675" x2="64.0981" y2="-31.9611" gradientUnits="userSpaceOnUse">
<stop stop-color="#12B4FF"/>
<stop offset="1" stop-color="#E100FF"/>
</linearGradient>
<linearGradient id="paint4_linear_281_5129" x1="0.871338" y1="16.1567" x2="22.4159" y2="16.2044" gradientUnits="userSpaceOnUse">
<stop stop-color="#12B4FF"/>
<stop offset="1" stop-color="#E100FF"/>
</linearGradient>
<linearGradient id="paint5_linear_281_5129" x1="7.40576" y1="15.5573" x2="15.3853" y2="15.5637" gradientUnits="userSpaceOnUse">
<stop stop-color="#12B4FF"/>
<stop offset="1" stop-color="#E100FF"/>
</linearGradient>
<linearGradient id="paint6_linear_281_5129" x1="53.7427" y1="26.8498" x2="75.2872" y2="26.8975" gradientUnits="userSpaceOnUse">
<stop stop-color="#12B4FF"/>
<stop offset="1" stop-color="#E100FF"/>
</linearGradient>
<linearGradient id="paint7_linear_281_5129" x1="60.2771" y1="26.2505" x2="68.2566" y2="26.2569" gradientUnits="userSpaceOnUse">
<stop stop-color="#12B4FF"/>
<stop offset="1" stop-color="#E100FF"/>
</linearGradient>
<linearGradient id="paint8_linear_281_5129" x1="5.02979" y1="-24.8335" x2="26.5744" y2="-24.7859" gradientUnits="userSpaceOnUse">
<stop stop-color="#12B4FF"/>
<stop offset="1" stop-color="#E100FF"/>
</linearGradient>
<linearGradient id="paint9_linear_281_5129" x1="11.5642" y1="-25.433" x2="19.5437" y2="-25.4266" gradientUnits="userSpaceOnUse">
<stop stop-color="#12B4FF"/>
<stop offset="1" stop-color="#E100FF"/>
</linearGradient>
<linearGradient id="paint10_linear_281_5129" x1="27.722" y1="31.7731" x2="22.4274" y2="26.2984" gradientUnits="userSpaceOnUse">
<stop stop-color="#12B4FF"/>
<stop offset="1" stop-color="#E100FF"/>
</linearGradient>
<linearGradient id="paint11_linear_281_5129" x1="58.0191" y1="61.4763" x2="47.6189" y2="50.356" gradientUnits="userSpaceOnUse">
<stop stop-color="#12B4FF"/>
<stop offset="1" stop-color="#E100FF"/>
</linearGradient>
<linearGradient id="paint12_linear_281_5129" x1="26.2978" y1="47.2188" x2="20.204" y2="53.0902" gradientUnits="userSpaceOnUse">
<stop stop-color="#12B4FF"/>
<stop offset="1" stop-color="#E100FF"/>
</linearGradient>
<linearGradient id="paint13_linear_281_5129" x1="54.8129" y1="20.4861" x2="45.5928" y2="29.206" gradientUnits="userSpaceOnUse">
<stop stop-color="#12B4FF"/>
<stop offset="1" stop-color="#E100FF"/>
</linearGradient>
</defs>
</svg>
