<svg width="365" height="275" viewBox="0 0 365 275" fill="none" xmlns="http://www.w3.org/2000/svg">
<path d="M188.87 103.659C188.87 103.659 216.925 141.487 241.796 137.838C266.666 134.189 283.355 94.9657 283.355 94.9657L273.345 88.5805C273.345 88.5805 237.701 141.769 206.306 82.1953L188.87 103.659Z" fill="url(#paint0_linear_5911_30589)"/>
<path d="M188.87 103.659C188.87 103.659 216.925 141.487 241.796 137.838C266.666 134.189 283.355 94.9657 283.355 94.9657L273.345 88.5805C273.345 88.5805 237.701 141.769 206.306 82.1953L188.87 103.659Z" fill="url(#paint1_linear_5911_30589)" fill-opacity="0.2"/>
<path opacity="0.08" d="M188.87 103.659C188.87 103.659 216.925 141.487 241.796 137.838C266.666 134.189 283.355 94.9657 283.355 94.9657L273.345 88.5805C273.345 88.5805 237.701 141.769 206.306 82.1953L188.87 103.659Z" fill="black"/>
<path d="M210.828 86.7031C210.828 86.7031 218.682 91.4008 220.747 99.3823C222.813 107.364 222.376 127.587 206.105 137.694C189.835 147.8 172.308 152.288 175.038 164.147L165.71 159.586L177.313 134.501L203.794 119.487L210.828 86.7031Z" fill="url(#paint2_linear_5911_30589)"/>
<path d="M210.828 86.7031C210.828 86.7031 218.682 91.4008 220.747 99.3823C222.813 107.364 222.376 127.587 206.105 137.694C189.835 147.8 172.308 152.288 175.038 164.147L165.71 159.586L177.313 134.501L203.794 119.487L210.828 86.7031Z" fill="url(#paint3_linear_5911_30589)" fill-opacity="0.2"/>
<path opacity="0.45" d="M182.7 235.371C265.043 235.371 331.795 226.909 331.795 216.471C331.795 206.032 265.043 197.57 182.7 197.57C100.358 197.57 33.606 206.032 33.606 216.471C33.606 226.909 100.358 235.371 182.7 235.371Z" fill="#E6E6E6"/>
<path d="M198.379 207.297C198.379 207.297 201.61 210.033 204.877 208.501C208.144 206.968 210.719 209.55 208.371 211.958C206.023 214.366 196.723 214.941 196.723 214.941L194.093 209.842L198.379 207.297Z" fill="url(#paint4_linear_5911_30589)"/>
<path d="M198.379 207.297C198.379 207.297 201.61 210.033 204.877 208.501C208.144 206.968 210.719 209.55 208.371 211.958C206.023 214.366 196.723 214.941 196.723 214.941L194.093 209.842L198.379 207.297Z" fill="url(#paint5_linear_5911_30589)" fill-opacity="0.2"/>
<path d="M92.8922 186.336C92.8922 186.336 88.6698 186.19 87.05 189.419C85.4302 192.648 81.8175 192.22 82.1633 188.872C82.5091 185.524 89.4433 179.312 89.4433 179.312L94.6576 181.675L92.8922 186.336Z" fill="url(#paint6_linear_5911_30589)"/>
<path d="M92.8922 186.336C92.8922 186.336 88.6698 186.19 87.05 189.419C85.4302 192.648 81.8175 192.22 82.1633 188.872C82.5091 185.524 89.4433 179.312 89.4433 179.312L94.6576 181.675L92.8922 186.336Z" fill="url(#paint7_linear_5911_30589)" fill-opacity="0.2"/>
<path d="M221.43 68.0164C221.43 68.0164 222.34 74.2283 221.484 78.4243C221.41 78.8354 221.255 79.2276 221.028 79.5779C220.801 79.9281 220.506 80.2293 220.161 80.4638C219.816 80.6983 219.428 80.8614 219.019 80.9435C218.61 81.0256 218.189 81.025 217.781 80.9419C215.679 80.504 212.958 79.2817 212.084 76.0161L209.918 70.6525C209.598 69.5337 209.632 68.3426 210.017 67.2443C210.402 66.146 211.118 65.1948 212.066 64.5227C215.442 61.7862 221.084 64.2126 221.43 68.0164Z" fill="#F4A28C"/>
<path d="M214.223 70.4766L197.988 83.0007L205.514 91.4748L214.086 79.2699L214.223 70.4766Z" fill="#F4A28C"/>
<path d="M219.892 68.3631C217.968 68.5453 216.028 68.5024 214.114 68.2354C214.718 69.0555 215.069 70.0351 215.124 71.0531C215.179 72.0712 214.935 73.0831 214.423 73.9638C213.944 74.8255 213.181 75.4933 212.264 75.8527C211.348 76.2122 210.335 76.241 209.4 75.9341L209.063 67.8887C208.976 66.7401 209.201 65.5893 209.714 64.5584C210.227 63.5274 211.008 62.6546 211.975 62.0326C212.816 61.4939 213.688 61.0065 214.587 60.5731C216.844 59.5241 220.311 60.8833 222.294 59.2049C222.495 59.0392 222.735 58.9283 222.991 58.8827C223.247 58.8372 223.51 58.8585 223.755 58.9447C224 59.0309 224.219 59.1791 224.39 59.3748C224.562 59.5706 224.68 59.8074 224.733 60.0623C225.225 62.4887 224.997 66.3563 221.776 67.8796C221.179 68.1446 220.542 68.308 219.892 68.3631Z" fill="#24285B"/>
<path d="M215.087 73.7423C215.087 73.7423 214.905 71.3342 213.112 71.6261C211.32 71.918 211.556 75.3843 214.022 75.5758L215.087 73.7423Z" fill="#F4A28C"/>
<path d="M221.784 71.9609L223.65 74.2779C223.756 74.4091 223.827 74.5649 223.857 74.7311C223.887 74.8972 223.875 75.0682 223.821 75.2283C223.768 75.3884 223.675 75.5323 223.551 75.6468C223.427 75.7613 223.277 75.8426 223.113 75.8833L220.747 76.458L221.784 71.9609Z" fill="#F4A28C"/>
<path opacity="0.31" d="M213.84 79.6125C213.11 78.4274 212.717 77.0648 212.703 75.6719C212.703 75.6719 208.908 78.08 211.383 83.1061L213.84 79.6125Z" fill="#CE8172"/>
<path d="M207.907 88.0565C207.907 88.0565 203.63 79.4729 186.34 79.3908C169.05 79.3088 126.708 101.985 129.62 151.37L165.711 159.58C165.711 159.58 172.381 142.969 193.666 135.863C215.515 128.548 218.654 95.29 207.907 88.0565Z" fill="white"/>
<path d="M200.618 80.9439C200.618 80.9439 160.578 57.3916 129.474 61.0403C98.3707 64.689 81.6631 100.72 81.6631 100.72L90.6357 107.105C90.6357 107.105 121.576 71.138 141.141 83.8811C160.706 96.6242 194.567 122.767 200.618 80.9439Z" fill="url(#paint8_linear_5911_30589)"/>
<path d="M200.618 80.9439C200.618 80.9439 160.578 57.3916 129.474 61.0403C98.3707 64.689 81.6631 100.72 81.6631 100.72L90.6357 107.105C90.6357 107.105 121.576 71.138 141.141 83.8811C160.706 96.6242 194.567 122.767 200.618 80.9439Z" fill="url(#paint9_linear_5911_30589)" fill-opacity="0.2"/>
<path d="M155.473 88.4367C155.473 88.4367 120.893 106.224 122.258 149.78L144.098 157.306C144.098 157.306 147.056 112.837 188.233 108.505C188.233 108.505 203.467 100.113 204.886 86.3022C204.886 86.3022 206.952 81.1758 191.445 76.1406L155.473 88.4367Z" fill="url(#paint10_linear_5911_30589)"/>
<path d="M155.473 88.4367C155.473 88.4367 120.893 106.224 122.258 149.78L144.098 157.306C144.098 157.306 147.056 112.837 188.233 108.505C188.233 108.505 203.467 100.113 204.886 86.3022C204.886 86.3022 206.952 81.1758 191.445 76.1406L155.473 88.4367Z" fill="url(#paint11_linear_5911_30589)" fill-opacity="0.2"/>
<path d="M208.463 84.2985L207.616 89.4888H210.546L210.829 83.9062L208.463 84.2985Z" fill="white"/>
<path opacity="0.08" d="M204.058 99.1875C204.058 99.1875 196.077 128.459 173.546 131.205C151.014 133.95 124.733 128.24 124.733 128.24C126.235 122.566 128.549 117.14 131.604 112.131C136.745 103.648 160.806 111.821 160.806 111.821L204.058 99.1875Z" fill="black"/>
<path d="M205.031 84.2487C205.031 84.2487 202.838 89.9954 205.031 90.8985C206.142 91.3637 207.516 90.6613 208.599 89.8586C209.144 89.4465 209.531 88.8595 209.697 88.1955C209.863 87.5315 209.796 86.8307 209.509 86.2099L208.599 84.2031L205.031 84.2487Z" fill="#FFD200"/>
<path d="M207.616 88.0607C207.616 88.0607 209.163 104.854 185.276 118.08C161.388 131.307 135.344 118.08 135.344 118.08L127.491 105.629L144.098 102.117C144.098 102.117 182.4 118.345 204.54 86.9844L207.616 88.0607Z" fill="#FFD200"/>
<path d="M125.261 150.812C125.261 150.812 119.61 163.838 131.74 170.534C138.893 174.474 151.514 176.545 160.678 177.576C164.208 177.976 167.602 179.168 170.61 181.063C173.617 182.958 176.16 185.507 178.05 188.522L192.328 211.162L200.618 205.917L192.674 185.53C190.553 180.073 187.369 175.095 183.306 170.886C179.244 166.678 174.385 163.324 169.014 161.02L165.747 159.624L125.261 150.812Z" fill="#24285B"/>
<path d="M152.688 169.426C152.688 169.426 153.298 191.629 134.188 194.967C115.078 198.306 91.1177 187.068 91.1177 187.068L95.3583 179.46C95.3583 179.46 134.798 191.629 132.068 167L152.688 169.426Z" fill="#24285B"/>
<path d="M200.618 80.1575L203.794 78.5156L208.462 84.2988L204.886 88.8597L200.618 80.1575Z" fill="white"/>
<g opacity="0.26">
<path d="M81.6628 100.75L80.043 104.39L88.5333 110.775L90.6354 107.135L81.6628 100.75Z" fill="url(#paint12_linear_5911_30589)"/>
<path d="M81.6628 100.75L80.043 104.39L88.5333 110.775L90.6354 107.135L81.6628 100.75Z" fill="url(#paint13_linear_5911_30589)" fill-opacity="0.2"/>
</g>
<path d="M91.5639 126.691L88.8794 126.226L89.9623 120.023C90.1449 118.951 89.8973 117.85 89.2735 116.96C88.6496 116.069 87.7001 115.462 86.6317 115.271L76.9402 113.574C75.8711 113.386 74.7712 113.631 73.8822 114.255C72.9932 114.88 72.3878 115.832 72.1991 116.904L71.1162 123.106L68.3862 122.641L69.4691 116.438C69.7823 114.652 70.7899 113.062 72.2707 112.019C73.7515 110.976 75.5846 110.564 77.3679 110.874L87.0776 112.58C87.9609 112.734 88.8051 113.062 89.5621 113.543C90.3191 114.025 90.9741 114.651 91.4896 115.386C92.0051 116.121 92.371 116.951 92.5664 117.828C92.7619 118.705 92.783 119.612 92.6286 120.498L91.5639 126.691Z" fill="url(#paint14_linear_5911_30589)"/>
<path d="M91.5639 126.691L88.8794 126.226L89.9623 120.023C90.1449 118.951 89.8973 117.85 89.2735 116.96C88.6496 116.069 87.7001 115.462 86.6317 115.271L76.9402 113.574C75.8711 113.386 74.7712 113.631 73.8822 114.255C72.9932 114.88 72.3878 115.832 72.1991 116.904L71.1162 123.106L68.3862 122.641L69.4691 116.438C69.7823 114.652 70.7899 113.062 72.2707 112.019C73.7515 110.976 75.5846 110.564 77.3679 110.874L87.0776 112.58C87.9609 112.734 88.8051 113.062 89.5621 113.543C90.3191 114.025 90.9741 114.651 91.4896 115.386C92.0051 116.121 92.371 116.951 92.5664 117.828C92.7619 118.705 92.783 119.612 92.6286 120.498L91.5639 126.691Z" fill="url(#paint15_linear_5911_30589)" fill-opacity="0.2"/>
<path opacity="0.3" d="M91.5639 126.691L88.8794 126.226L89.9623 120.023C90.1449 118.951 89.8973 117.85 89.2735 116.96C88.6496 116.069 87.7001 115.462 86.6317 115.271L76.9402 113.574C75.8711 113.386 74.7712 113.631 73.8822 114.255C72.9932 114.88 72.3878 115.832 72.1991 116.904L71.1162 123.106L68.3862 122.641L69.4691 116.438C69.7823 114.652 70.7899 113.062 72.2707 112.019C73.7515 110.976 75.5846 110.564 77.3679 110.874L87.0776 112.58C87.9609 112.734 88.8051 113.062 89.5621 113.543C90.3191 114.025 90.9741 114.651 91.4896 115.386C92.0051 116.121 92.371 116.951 92.5664 117.828C92.7619 118.705 92.783 119.612 92.6286 120.498L91.5639 126.691Z" fill="white"/>
<path d="M80.9349 105.055C80.9349 105.055 72.3081 114.304 78.3414 116.721C84.3747 119.139 86.7953 119.057 88.5334 110.774L80.9349 105.055Z" fill="#F4A28C"/>
<path d="M105.202 126.15L55.2261 117.398L49.2075 151.93L99.183 160.682L105.202 126.15Z" fill="url(#paint16_linear_5911_30589)"/>
<path d="M105.202 126.15L55.2261 117.398L49.2075 151.93L99.183 160.682L105.202 126.15Z" fill="url(#paint17_linear_5911_30589)" fill-opacity="0.2"/>
<path opacity="0.08" d="M98.9531 125.07C98.9531 125.07 108.39 159.642 50.2681 145.813L49.1943 151.934L99.1715 160.691L105.196 126.156L98.9531 125.07Z" fill="black"/>
<g opacity="0.4">
<path d="M274.919 89.6118L276.375 86.5469L284.265 92.1659L283.355 94.9662L274.919 89.6118Z" fill="url(#paint18_linear_5911_30589)"/>
<path d="M274.919 89.6118L276.375 86.5469L284.265 92.1659L283.355 94.9662L274.919 89.6118Z" fill="url(#paint19_linear_5911_30589)" fill-opacity="0.2"/>
</g>
<path d="M277.768 87.5419C277.768 87.5419 284.72 78.8672 290.18 81.4486C295.64 84.0301 294.275 88.372 284.265 92.1667L277.768 87.5419Z" fill="#F4A28C"/>
<path d="M309.97 67.5416C319.6 64.4681 326.806 60.0815 326.063 57.7437C325.321 55.4059 316.912 56.0023 307.281 59.0757C297.65 62.1491 290.445 66.5358 291.188 68.8736C291.93 71.2113 300.339 70.615 309.97 67.5416Z" fill="#FFD200"/>
<path d="M291.19 68.8642C291.19 68.8642 297.56 95.1986 316.989 89.607C336.417 84.0154 326.089 57.7266 326.089 57.7266L291.19 68.8642Z" fill="#FFD200"/>
<path opacity="0.08" d="M309.97 67.5416C319.6 64.4681 326.806 60.0815 326.063 57.7437C325.321 55.4059 316.912 56.0023 307.281 59.0757C297.65 62.1491 290.445 66.5358 291.188 68.8736C291.93 71.2113 300.339 70.615 309.97 67.5416Z" fill="black"/>
<path d="M317.613 84.8599L313.208 86.2656L318.677 103.484L323.082 102.078L317.613 84.8599Z" fill="#FFD200"/>
<path d="M329.325 96.2589L310.968 102.117L315.628 116.789L333.985 110.931L329.325 96.2589Z" fill="#24285B"/>
<path d="M324.691 102.097L315.346 105.055L317.699 112.524L327.045 109.566L324.691 102.097Z" fill="#FFD200"/>
<path opacity="0.3" d="M324.691 102.097L315.346 105.055L317.699 112.524L327.045 109.566L324.691 102.097Z" fill="white"/>
<path d="M308.08 89.1574L297.524 92.5233C295.074 93.2782 292.426 93.0336 290.156 91.8427C287.885 90.6517 286.175 88.6106 285.397 86.1629C284.619 83.7151 284.836 81.0585 286.001 78.7703C287.166 76.4821 289.184 74.7471 291.618 73.9424L295.476 72.7109L296.386 75.6573L292.528 76.8887C291.696 77.154 290.925 77.581 290.258 78.1452C289.591 78.7093 289.041 79.3997 288.64 80.1769C287.83 81.7464 287.676 83.5741 288.21 85.2579C288.745 86.9417 289.925 88.3436 291.49 89.1553C293.056 89.967 294.88 90.122 296.559 89.5861L307.115 86.2111L308.08 89.1574Z" fill="#FFD200"/>
<path d="M323.596 84.1503L334.152 80.7844C336.611 79.9994 338.658 78.2672 339.844 75.9689C341.029 73.6706 341.255 70.9946 340.472 68.5294C339.688 66.0642 337.96 64.0118 335.668 62.8237C333.375 61.6357 330.705 61.4093 328.246 62.1943L324.387 63.4257L325.37 66.3538L329.229 65.1224C330.06 64.8571 330.936 64.7585 331.806 64.8325C332.675 64.9064 333.522 65.1513 334.297 65.5532C335.073 65.9551 335.761 66.5062 336.324 67.1749C336.887 67.8436 337.313 68.6169 337.578 69.4506C337.842 70.2844 337.941 71.1622 337.867 72.034C337.793 72.9058 337.549 73.7545 337.148 74.5317C336.747 75.3088 336.197 75.9992 335.53 76.5634C334.863 77.1276 334.092 77.5545 333.26 77.8198L322.64 81.2131L323.596 84.1503Z" fill="#FFD200"/>
<path opacity="0.3" d="M318.554 72.5335C318.8 76.1822 318.554 82.0474 314.841 85.7326C314.841 85.7326 324.324 86.6448 326.216 72.6977C326.299 72.0655 326.22 71.4227 325.989 70.8289C325.757 70.2351 325.38 69.7096 324.891 69.3011C324.403 68.8925 323.82 68.6143 323.195 68.4921C322.571 68.3699 321.926 68.4077 321.321 68.602H321.184C320.366 68.8616 319.66 69.392 319.183 70.1063C318.705 70.8206 318.483 71.6764 318.554 72.5335Z" fill="white"/>
<path d="M286.241 49.787L285.574 51.4844L294.473 54.998L295.14 53.3006L286.241 49.787Z" fill="#C9C9C9"/>
<path d="M296.125 40.353L294.487 41.1484L298.657 49.7761L300.295 48.9806L296.125 40.353Z" fill="#C9C9C9"/>
<path d="M308.704 41.832L305.548 50.8438L307.259 51.4458L310.415 42.4341L308.704 41.832Z" fill="#C9C9C9"/>
<defs>
<linearGradient id="paint0_linear_5911_30589" x1="218.253" y1="82.1953" x2="288.904" y2="129.862" gradientUnits="userSpaceOnUse">
<stop stop-color="#59CDFF"/>
<stop offset="1" stop-color="#C071FF"/>
</linearGradient>
<linearGradient id="paint1_linear_5911_30589" x1="236.113" y1="62.0487" x2="236.113" y2="154.333" gradientUnits="userSpaceOnUse">
<stop stop-color="#FA00FF"/>
<stop offset="1" stop-color="#FF2DEA" stop-opacity="0"/>
<stop offset="1" stop-color="#FF2DEA" stop-opacity="0"/>
</linearGradient>
<linearGradient id="paint2_linear_5911_30589" x1="183.097" y1="86.7031" x2="239.269" y2="102.887" gradientUnits="userSpaceOnUse">
<stop stop-color="#59CDFF"/>
<stop offset="1" stop-color="#C071FF"/>
</linearGradient>
<linearGradient id="paint3_linear_5911_30589" x1="193.665" y1="58.7874" x2="193.665" y2="186.659" gradientUnits="userSpaceOnUse">
<stop stop-color="#FA00FF"/>
<stop offset="1" stop-color="#FF2DEA" stop-opacity="0"/>
<stop offset="1" stop-color="#FF2DEA" stop-opacity="0"/>
</linearGradient>
<linearGradient id="paint4_linear_5911_30589" x1="198.816" y1="207.297" x2="208.962" y2="215.341" gradientUnits="userSpaceOnUse">
<stop stop-color="#59CDFF"/>
<stop offset="1" stop-color="#C071FF"/>
</linearGradient>
<linearGradient id="paint5_linear_5911_30589" x1="201.686" y1="204.541" x2="201.686" y2="217.163" gradientUnits="userSpaceOnUse">
<stop stop-color="#FA00FF"/>
<stop offset="1" stop-color="#FF2DEA" stop-opacity="0"/>
<stop offset="1" stop-color="#FF2DEA" stop-opacity="0"/>
</linearGradient>
<linearGradient id="paint6_linear_5911_30589" x1="86.0328" y1="179.313" x2="97.7281" y2="184.058" gradientUnits="userSpaceOnUse">
<stop stop-color="#59CDFF"/>
<stop offset="1" stop-color="#C071FF"/>
</linearGradient>
<linearGradient id="paint7_linear_5911_30589" x1="88.3989" y1="174.874" x2="88.399" y2="195.205" gradientUnits="userSpaceOnUse">
<stop stop-color="#FA00FF"/>
<stop offset="1" stop-color="#FF2DEA" stop-opacity="0"/>
<stop offset="1" stop-color="#FF2DEA" stop-opacity="0"/>
</linearGradient>
<linearGradient id="paint8_linear_5911_30589" x1="118.655" y1="60.6563" x2="181.961" y2="125.359" gradientUnits="userSpaceOnUse">
<stop stop-color="#59CDFF"/>
<stop offset="1" stop-color="#C071FF"/>
</linearGradient>
<linearGradient id="paint9_linear_5911_30589" x1="141.141" y1="43.9131" x2="141.141" y2="120.608" gradientUnits="userSpaceOnUse">
<stop stop-color="#FA00FF"/>
<stop offset="1" stop-color="#FF2DEA" stop-opacity="0"/>
<stop offset="1" stop-color="#FF2DEA" stop-opacity="0"/>
</linearGradient>
<linearGradient id="paint10_linear_5911_30589" x1="147.955" y1="76.1406" x2="225.213" y2="107.579" gradientUnits="userSpaceOnUse">
<stop stop-color="#59CDFF"/>
<stop offset="1" stop-color="#C071FF"/>
</linearGradient>
<linearGradient id="paint11_linear_5911_30589" x1="163.598" y1="46.8834" x2="163.599" y2="180.9" gradientUnits="userSpaceOnUse">
<stop stop-color="#FA00FF"/>
<stop offset="1" stop-color="#FF2DEA" stop-opacity="0"/>
<stop offset="1" stop-color="#FF2DEA" stop-opacity="0"/>
</linearGradient>
<linearGradient id="paint12_linear_5911_30589" x1="83.3369" y1="100.75" x2="93.1226" y2="104.877" gradientUnits="userSpaceOnUse">
<stop stop-color="#59CDFF"/>
<stop offset="1" stop-color="#C071FF"/>
</linearGradient>
<linearGradient id="paint13_linear_5911_30589" x1="85.3392" y1="97.1364" x2="85.3392" y2="113.689" gradientUnits="userSpaceOnUse">
<stop stop-color="#FA00FF"/>
<stop offset="1" stop-color="#FF2DEA" stop-opacity="0"/>
<stop offset="1" stop-color="#FF2DEA" stop-opacity="0"/>
</linearGradient>
<linearGradient id="paint14_linear_5911_30589" x1="75.9567" y1="110.773" x2="95.2563" y2="122.553" gradientUnits="userSpaceOnUse">
<stop stop-color="#59CDFF"/>
<stop offset="1" stop-color="#C071FF"/>
</linearGradient>
<linearGradient id="paint15_linear_5911_30589" x1="80.5584" y1="105.036" x2="80.5585" y2="131.319" gradientUnits="userSpaceOnUse">
<stop stop-color="#FA00FF"/>
<stop offset="1" stop-color="#FF2DEA" stop-opacity="0"/>
<stop offset="1" stop-color="#FF2DEA" stop-opacity="0"/>
</linearGradient>
<linearGradient id="paint16_linear_5911_30589" x1="70.7672" y1="120.12" x2="107.447" y2="150.802" gradientUnits="userSpaceOnUse">
<stop stop-color="#59CDFF"/>
<stop offset="1" stop-color="#C071FF"/>
</linearGradient>
<linearGradient id="paint17_linear_5911_30589" x1="82.3833" y1="109.327" x2="72.3997" y2="166.336" gradientUnits="userSpaceOnUse">
<stop stop-color="#FA00FF"/>
<stop offset="1" stop-color="#FF2DEA" stop-opacity="0"/>
<stop offset="1" stop-color="#FF2DEA" stop-opacity="0"/>
</linearGradient>
<linearGradient id="paint18_linear_5911_30589" x1="277.826" y1="86.5469" x2="286.327" y2="90.3128" gradientUnits="userSpaceOnUse">
<stop stop-color="#59CDFF"/>
<stop offset="1" stop-color="#C071FF"/>
</linearGradient>
<linearGradient id="paint19_linear_5911_30589" x1="279.592" y1="83.512" x2="279.592" y2="97.4137" gradientUnits="userSpaceOnUse">
<stop stop-color="#FA00FF"/>
<stop offset="1" stop-color="#FF2DEA" stop-opacity="0"/>
<stop offset="1" stop-color="#FF2DEA" stop-opacity="0"/>
</linearGradient>
</defs>
</svg>
