<svg width="20" height="20" viewBox="0 0 20 20" fill="none" xmlns="http://www.w3.org/2000/svg">
<path fill-rule="evenodd" clip-rule="evenodd" d="M20 10C20 15.5228 15.5228 20 10 20C4.47715 20 0 15.5228 0 10C0 4.47715 4.47715 0 10 0C15.5228 0 20 4.47715 20 10ZM10.3586 7.38295C9.38597 7.78751 7.44204 8.62484 4.52684 9.89494C4.05346 10.0832 3.80548 10.2674 3.7829 10.4474C3.74475 10.7518 4.12586 10.8716 4.64482 11.0348C4.71542 11.057 4.78856 11.08 4.86355 11.1043C5.37413 11.2703 6.06095 11.4645 6.418 11.4722C6.74188 11.4792 7.10337 11.3457 7.50246 11.0716C10.2262 9.23301 11.6322 8.30368 11.7205 8.28365C11.7828 8.26951 11.8691 8.25174 11.9276 8.30371C11.986 8.35568 11.9803 8.45411 11.9741 8.48051C11.9363 8.64146 10.4404 10.0322 9.6662 10.752C9.42486 10.9764 9.25366 11.1355 9.21866 11.1719C9.14027 11.2533 9.06037 11.3303 8.98358 11.4043C8.50924 11.8616 8.15352 12.2045 9.00328 12.7645C9.41163 13.0336 9.7384 13.2561 10.0644 13.4781C10.4204 13.7206 10.7755 13.9624 11.2349 14.2636C11.352 14.3403 11.4638 14.42 11.5727 14.4976C11.987 14.793 12.3592 15.0584 12.8191 15.016C13.0863 14.9914 13.3623 14.7402 13.5025 13.9908C13.8338 12.2198 14.485 8.38256 14.6354 6.80132C14.6486 6.66278 14.632 6.48548 14.6187 6.40765C14.6054 6.32982 14.5776 6.21893 14.4764 6.13684C14.3566 6.03962 14.1716 6.01912 14.0889 6.02058C13.7128 6.0272 13.1357 6.22786 10.3586 7.38295Z" fill="#727E83"/>
</svg>
