<svg width="75" height="80" viewBox="0 0 75 80" fill="none" xmlns="http://www.w3.org/2000/svg">
<path d="M10.2588 55.8977L40.1344 63.7232C45.7979 65.2067 51.5918 61.8181 53.0753 56.1545L64.3536 13.0972" stroke="url(#paint0_linear_281_5064)" stroke-linecap="round"/>
<path d="M11.7305 59.5687L40.9281 69.6329C46.4632 71.5408 52.4969 68.6004 54.4048 63.0653L68.9096 20.9851" stroke="url(#paint1_linear_281_5064)" stroke-linecap="round"/>
<path d="M13.8098 62.9146L41.9524 75.634C47.2874 78.0453 53.567 75.6751 55.9783 70.34L74.3098 29.7803" stroke="url(#paint2_linear_281_5064)" stroke-linecap="round"/>
<path d="M57.1105 7.95406L21.5192 1.8048C15.7501 0.808038 10.2652 4.67682 9.26844 10.446L1.69054 54.3061" stroke="url(#paint3_linear_281_5064)" stroke-width="2.65019" stroke-linecap="round"/>
<path d="M6.84942 55.1976L37.282 60.4555C43.0512 61.4523 48.5361 57.5835 49.5328 51.8143L57.1107 7.95423" stroke="#15B3FF" stroke-width="2.65019" stroke-linecap="round"/>
<path d="M37.6994 21.1178C37.8765 20.8125 38.3379 20.8922 38.4022 21.2392C38.4929 21.7286 38.7929 22.1539 39.2235 22.4036C39.5289 22.5807 39.4491 23.0421 39.1021 23.1064C38.6127 23.1971 38.1874 23.4971 37.9377 23.9277C37.7606 24.2331 37.2993 24.1533 37.2349 23.8063C37.1442 23.3169 36.8442 22.8916 36.4136 22.6419C36.1083 22.4648 36.188 22.0035 36.535 21.9391C37.0244 21.8484 37.4497 21.5484 37.6994 21.1178Z" stroke="#12B4FF" stroke-width="1.3251"/>
<path d="M45.6451 14.6109L45.3127 15.184L45.6451 14.6109L45.5259 14.5418C44.9938 14.2332 45.1327 13.4293 45.7375 13.3172L45.8729 13.2921C46.4433 13.1863 46.939 12.8366 47.2301 12.3348L46.6569 12.0024L47.2301 12.3348L47.2992 12.2156C47.6077 11.6836 48.4116 11.8225 48.5238 12.4272L48.5489 12.5627C48.6546 13.133 49.0043 13.6288 49.5061 13.9198L49.6253 13.9889C50.1574 14.2974 50.0185 15.1014 49.4137 15.2135L49.2783 15.2386C48.7079 15.3444 48.2122 15.694 47.9212 16.1959L47.852 16.315C47.5435 16.8471 46.7396 16.7082 46.6274 16.1034L46.6023 15.968C46.4966 15.3976 46.1469 14.9019 45.6451 14.6109Z" stroke="#DE04FF" stroke-width="1.3251"/>
<path d="M46.8789 29.7256C46.9649 29.5772 47.189 29.616 47.2203 29.7846C47.3006 30.2178 47.5662 30.5944 47.9474 30.8154C48.0958 30.9015 48.057 31.1256 47.8884 31.1569C47.4552 31.2372 47.0786 31.5028 46.8576 31.884C46.7716 32.0323 46.5474 31.9936 46.5162 31.825C46.4358 31.3917 46.1702 31.0152 45.789 30.7941C45.6407 30.7081 45.6794 30.484 45.848 30.4527C46.2813 30.3724 46.6578 30.1068 46.8789 29.7256Z" stroke="#12B4FF" stroke-width="1.3251"/>
<g clip-path="url(#clip0_281_5064)">
<path fill-rule="evenodd" clip-rule="evenodd" d="M30.5827 23.96C28.565 23.6114 26.6468 24.9644 26.2982 26.9821L25.9375 29.0697C24.7846 28.8705 23.6884 29.6436 23.4892 30.7966L22.6777 35.4937C22.4785 36.6466 23.2517 37.7427 24.4046 37.9419L31.7112 39.2043C32.8641 39.4035 33.9602 38.6303 34.1594 37.4774L34.971 32.7803C35.1702 31.6274 34.397 30.5313 33.2441 30.3321L33.6047 28.2445C33.9533 26.2268 32.6003 24.3086 30.5827 23.96ZM32.2003 30.1517L32.5609 28.0641C32.8099 26.623 31.8435 25.2528 30.4023 25.0038C28.9611 24.7548 27.591 25.7213 27.342 27.1624L26.9813 29.25L32.2003 30.1517Z" fill="url(#paint4_linear_281_5064)"/>
</g>
<defs>
<linearGradient id="paint0_linear_281_5064" x1="29.2538" y1="147.098" x2="-11.1565" y2="136.441" gradientUnits="userSpaceOnUse">
<stop stop-color="#12B4FF"/>
<stop offset="1" stop-color="#E100FF"/>
</linearGradient>
<linearGradient id="paint1_linear_281_5064" x1="23.7685" y1="151.945" x2="-15.7193" y2="138.26" gradientUnits="userSpaceOnUse">
<stop stop-color="#12B4FF"/>
<stop offset="1" stop-color="#E100FF"/>
</linearGradient>
<linearGradient id="paint2_linear_281_5064" x1="17.2594" y1="156.008" x2="-20.7947" y2="138.733" gradientUnits="userSpaceOnUse">
<stop stop-color="#12B4FF"/>
<stop offset="1" stop-color="#E100FF"/>
</linearGradient>
<linearGradient id="paint3_linear_281_5064" x1="25.2741" y1="-82.193" x2="71.6375" y2="-74.093" gradientUnits="userSpaceOnUse">
<stop stop-color="#12B4FF"/>
<stop offset="1" stop-color="#E100FF"/>
</linearGradient>
<linearGradient id="paint4_linear_281_5064" x1="28.6631" y1="0.851009" x2="40.2264" y2="2.86957" gradientUnits="userSpaceOnUse">
<stop stop-color="#12B4FF"/>
<stop offset="1" stop-color="#E100FF"/>
</linearGradient>
<clipPath id="clip0_281_5064">
<rect width="16.9481" height="16.9481" fill="white" transform="translate(22.4126 21.4735) rotate(9.80248)"/>
</clipPath>
</defs>
</svg>
