<svg width="22" height="20" viewBox="0 0 22 20" fill="none" xmlns="http://www.w3.org/2000/svg">
<path d="M19.25 0.125C19.9805 0.125 20.625 0.769531 20.625 1.5C20.625 2.27344 19.9805 2.875 19.25 2.875H3.4375C3.05078 2.875 2.75 3.21875 2.75 3.5625C2.75 3.94922 3.05078 4.25 3.4375 4.25H19.25C20.7539 4.25 22 5.49609 22 7V16.625C22 18.1719 20.7539 19.375 19.25 19.375H2.75C1.20312 19.375 0 18.1719 0 16.625V2.875C0 1.37109 1.20312 0.125 2.75 0.125H19.25ZM17.875 13.1875C18.6055 13.1875 19.25 12.5859 19.25 11.8125C19.25 11.082 18.6055 10.4375 17.875 10.4375C17.1016 10.4375 16.5 11.082 16.5 11.8125C16.5 12.5859 17.1016 13.1875 17.875 13.1875Z" fill="black"/>
</svg>
