<svg width="288" height="216" viewBox="0 0 288 216" fill="none"
    xmlns="http://www.w3.org/2000/svg">
    <path d="M149.022 81.4191C149.022 81.4191 171.143 111.131 190.752 108.265C210.362 105.399 223.52 74.5911 223.52 74.5911L215.628 69.5758C215.628 69.5758 187.524 111.353 162.77 64.5605L149.022 81.4191Z" fill="#9A5AFF" fill-opacity="0.7"/>
    <path opacity="0.08" d="M149.022 81.4191C149.022 81.4191 171.143 111.131 190.752 108.265C210.362 105.399 223.52 74.5911 223.52 74.5911L215.628 69.5758C215.628 69.5758 187.524 111.353 162.77 64.5605L149.022 81.4191Z" fill="black"/>
    <path d="M166.335 68.0996C166.335 68.0996 172.527 71.7894 174.156 78.0586C175.785 84.3277 175.44 100.212 162.612 108.15C149.783 116.089 135.964 119.614 138.116 128.928L130.762 125.346L139.91 105.643L160.789 93.8496L166.335 68.0996Z" fill="#9A5AFF" fill-opacity="0.7"/>
    <path opacity="0.45" d="M144.158 184.87C209.082 184.87 261.713 178.224 261.713 170.025C261.713 161.826 209.082 155.18 144.158 155.18C79.2338 155.18 26.6025 161.826 26.6025 170.025C26.6025 178.224 79.2338 184.87 144.158 184.87Z" fill="#E6E6E6"/>
    <path d="M156.52 162.824C156.52 162.824 159.067 164.974 161.643 163.77C164.219 162.566 166.249 164.594 164.398 166.485C162.547 168.377 155.214 168.828 155.214 168.828L153.141 164.823L156.52 162.824Z" fill="#9A5AFF" fill-opacity="0.7"/>
    <path d="M73.3477 146.36C73.3477 146.36 70.0185 146.245 68.7414 148.781C67.4642 151.318 64.6157 150.981 64.8884 148.351C65.161 145.722 70.6284 140.843 70.6284 140.843L74.7397 142.698L73.3477 146.36Z" fill="#9A5AFF" fill-opacity="0.7"/>
    <path d="M174.694 53.4267C174.694 53.4267 175.412 58.3058 174.737 61.6016C174.679 61.9246 174.557 62.2326 174.377 62.5077C174.198 62.7828 173.966 63.0194 173.694 63.2036C173.422 63.3878 173.116 63.5159 172.793 63.5804C172.471 63.6448 172.139 63.6444 171.817 63.5791C170.16 63.2352 168.014 62.2751 167.326 59.7101L165.618 55.4973C165.365 54.6185 165.392 53.6829 165.696 52.8203C165.999 51.9576 166.564 51.2105 167.311 50.6826C169.973 48.5332 174.422 50.439 174.694 53.4267Z" fill="#F4A28C"/>
    <path d="M169.012 55.3535L156.212 65.1907L162.146 71.8467L168.904 62.2603L169.012 55.3535Z" fill="#F4A28C"/>
    <path d="M173.482 53.6986C171.965 53.8417 170.436 53.8081 168.926 53.5983C169.403 54.2425 169.68 55.0119 169.723 55.8115C169.766 56.6112 169.574 57.406 169.17 58.0977C168.792 58.7745 168.191 59.2991 167.468 59.5814C166.745 59.8637 165.947 59.8863 165.209 59.6453L164.944 53.326C164.876 52.4238 165.053 51.5199 165.457 50.7102C165.861 49.9004 166.477 49.2149 167.24 48.7263C167.903 48.3032 168.59 47.9204 169.299 47.58C171.079 46.756 173.812 47.8236 175.376 46.5052C175.535 46.3752 175.724 46.288 175.925 46.2522C176.127 46.2164 176.335 46.2332 176.528 46.3009C176.721 46.3686 176.894 46.485 177.029 46.6388C177.164 46.7925 177.257 46.9785 177.299 47.1787C177.687 49.0845 177.507 52.1224 174.967 53.3189C174.497 53.527 173.995 53.6554 173.482 53.6986Z" fill="#24285B"/>
    <path d="M169.693 57.9188C169.693 57.9188 169.55 56.0273 168.136 56.2566C166.723 56.4859 166.909 59.2084 168.854 59.3589L169.693 57.9188Z" fill="#F4A28C"/>
    <path d="M174.974 56.5215L176.445 58.3413C176.529 58.4444 176.585 58.5668 176.608 58.6973C176.632 58.8278 176.622 58.9621 176.58 59.0879C176.538 59.2136 176.465 59.3267 176.367 59.4166C176.269 59.5065 176.151 59.5704 176.022 59.6023L174.156 60.0537L174.974 56.5215Z" fill="#F4A28C"/>
    <path opacity="0.31" d="M168.71 62.5327C168.135 61.6018 167.825 60.5315 167.814 59.4375C167.814 59.4375 164.822 61.329 166.773 65.2767L168.71 62.5327Z" fill="#CE8172"/>
    <path d="M164.033 69.1675C164.033 69.1675 160.66 62.4255 147.028 62.361C133.395 62.2965 100.01 80.108 102.306 118.898L130.762 125.346C130.762 125.346 136.021 112.299 152.804 106.718C170.031 100.972 172.506 74.8491 164.033 69.1675Z" fill="white"/>
    <path d="M158.286 63.5786C158.286 63.5786 126.716 45.0793 102.192 47.9452C77.6674 50.8111 64.4941 79.1117 64.4941 79.1117L71.5687 84.127C71.5687 84.127 95.9637 55.8765 111.39 65.8856C126.816 75.8947 153.514 96.4288 158.286 63.5786Z" fill="#9A5AFF" fill-opacity="0.7"/>
    <path d="M122.69 69.4612C122.69 69.4612 95.4255 83.4324 96.5017 117.644L113.722 123.555C113.722 123.555 116.054 88.6268 148.52 85.2236C148.52 85.2236 160.531 78.6321 161.651 67.7847C161.651 67.7847 163.279 63.7581 151.053 59.8032L122.69 69.4612Z" fill="#9A5AFF" fill-opacity="0.7"/>
    <path d="M164.47 66.2153L163.803 70.292H166.113L166.336 65.9072L164.47 66.2153Z" fill="white"/>
    <path opacity="0.08" d="M160.998 77.9082C160.998 77.9082 154.705 100.9 136.94 103.056C119.175 105.213 98.4531 100.728 98.4531 100.728C99.6368 96.2708 101.461 92.0088 103.87 88.0749C107.924 81.4117 126.895 87.8313 126.895 87.8313L160.998 77.9082Z" fill="black"/>
    <path d="M161.766 66.1725C161.766 66.1725 160.036 70.6863 161.766 71.3956C162.641 71.761 163.724 71.2093 164.578 70.5788C165.008 70.2551 165.314 69.7941 165.444 69.2725C165.575 68.751 165.522 68.2005 165.296 67.713L164.578 66.1367L161.766 66.1725Z" fill="#FFD200"/>
    <path d="M163.803 69.1672C163.803 69.1672 165.023 82.3574 146.188 92.7463C127.354 103.135 106.819 92.7463 106.819 92.7463L100.627 82.9664L113.721 80.208C113.721 80.208 143.921 92.954 161.378 68.3218L163.803 69.1672Z" fill="#FFD200"/>
    <path d="M98.8696 118.453C98.8696 118.453 94.4139 128.684 103.978 133.943C109.618 137.038 119.569 138.665 126.795 139.474C129.578 139.789 132.254 140.725 134.625 142.213C136.996 143.702 139.001 145.704 140.492 148.072L151.749 165.855L158.286 161.735L152.022 145.722C150.35 141.436 147.839 137.526 144.636 134.22C141.433 130.915 137.602 128.28 133.367 126.47L130.791 125.374L98.8696 118.453Z" fill="#24285B"/>
    <path d="M120.494 133.077C120.494 133.077 120.975 150.516 105.908 153.138C90.84 155.76 71.9482 146.933 71.9482 146.933L75.2918 140.958C75.2918 140.958 106.388 150.516 104.236 131.171L120.494 133.077Z" fill="#24285B"/>
    <path d="M158.285 62.9625L160.789 61.6729L164.47 66.2153L161.65 69.7976L158.285 62.9625Z" fill="white"/>
    <path opacity="0.26" d="M64.4939 79.1333L63.2168 81.992L69.9111 87.0073L71.5685 84.1486L64.4939 79.1333Z" fill="#9A5AFF" fill-opacity="0.7"/>
    <path d="M72.3001 99.5096L70.1835 99.1442L71.0373 94.2722C71.1813 93.4299 70.9861 92.5649 70.4942 91.8657C70.0023 91.1665 69.2536 90.6898 68.4113 90.5394L60.7699 89.2067C59.9269 89.0589 59.0597 89.2513 58.3587 89.7417C57.6578 90.232 57.1805 90.9802 57.0317 91.8219L56.1779 96.6939L54.0254 96.3285L54.8792 91.4565C55.1262 90.053 55.9206 88.8046 57.0881 87.9852C58.2557 87.1659 59.7011 86.8425 61.1071 87.086L68.7628 88.4258C69.4592 88.547 70.1249 88.8041 70.7218 89.1822C71.3186 89.5604 71.835 90.0523 72.2415 90.6298C72.6479 91.2074 72.9364 91.8592 73.0905 92.5481C73.2446 93.237 73.2613 93.9494 73.1396 94.6448L72.3001 99.5096Z" fill="#9A5AFF" fill-opacity="0.7"/>
    <path opacity="0.3" d="M72.3001 99.5096L70.1835 99.1442L71.0373 94.2722C71.1813 93.4299 70.9861 92.5649 70.4942 91.8657C70.0023 91.1665 69.2536 90.6898 68.4113 90.5394L60.7699 89.2067C59.9269 89.0589 59.0597 89.2513 58.3587 89.7417C57.6578 90.232 57.1805 90.9802 57.0317 91.8219L56.1779 96.6939L54.0254 96.3285L54.8792 91.4565C55.1262 90.053 55.9206 88.8046 57.0881 87.9852C58.2557 87.1659 59.7011 86.8425 61.1071 87.086L68.7628 88.4258C69.4592 88.547 70.1249 88.8041 70.7218 89.1822C71.3186 89.5604 71.835 90.0523 72.2415 90.6298C72.6479 91.2074 72.9364 91.8592 73.0905 92.5481C73.2446 93.237 73.2613 93.9494 73.1396 94.6448L72.3001 99.5096Z" fill="white"/>
    <path d="M63.9195 82.5151C63.9195 82.5151 57.1176 89.7801 61.8746 91.6788C66.6316 93.5774 68.5402 93.513 69.9106 87.0074L63.9195 82.5151Z" fill="#F4A28C"/>
    <path d="M83.0532 99.0833L43.6494 92.209L38.904 119.332L78.3078 126.206L83.0532 99.0833Z" fill="#9A5AFF" fill-opacity="0.7"/>
    <path opacity="0.08" d="M78.1265 98.2344C78.1265 98.2344 85.5669 125.389 39.7402 114.527L38.8936 119.334L78.2987 126.213L83.0485 99.087L78.1265 98.2344Z" fill="black"/>
    <path opacity="0.4" d="M216.869 70.3854L218.017 67.978L224.238 72.3915L223.52 74.5911L216.869 70.3854Z" fill="#9A5AFF" fill-opacity="0.7"/>
    <path d="M219.115 68.7591C219.115 68.7591 224.597 61.9455 228.902 63.9731C233.207 66.0007 232.131 69.4111 224.238 72.3916L219.115 68.7591Z" fill="#F4A28C"/>
    <path d="M244.505 53.05C252.098 50.636 257.779 47.1905 257.194 45.3543C256.608 43.5181 249.978 43.9865 242.385 46.4005C234.791 48.8145 229.11 52.26 229.696 54.0963C230.281 55.9325 236.911 55.4641 244.505 53.05Z" fill="#FFD200"/>
    <path d="M229.698 54.0928C229.698 54.0928 234.721 74.7773 250.039 70.3854C265.358 65.9934 257.214 45.3447 257.214 45.3447L229.698 54.0928Z" fill="#FFD200"/>
    <path opacity="0.08" d="M244.505 53.05C252.098 50.636 257.779 47.1905 257.194 45.3543C256.608 43.5181 249.978 43.9865 242.385 46.4005C234.791 48.8145 229.11 52.26 229.696 54.0963C230.281 55.9325 236.911 55.4641 244.505 53.05Z" fill="black"/>
    <path d="M250.532 66.6546L247.059 67.7588L251.371 81.2832L254.844 80.179L250.532 66.6546Z" fill="#FFD200"/>
    <path d="M259.766 75.6081L245.292 80.2095L248.966 91.7336L263.44 87.1322L259.766 75.6081Z" fill="#24285B"/>
    <path d="M256.113 80.1902L248.744 82.5137L250.6 88.3808L257.968 86.0573L256.113 80.1902Z" fill="#FFD200"/>
    <path opacity="0.3" d="M256.113 80.1902L248.744 82.5137L250.6 88.3808L257.968 86.0573L256.113 80.1902Z" fill="white"/>
    <path d="M243.015 70.0269L234.692 72.6706C232.76 73.2636 230.672 73.0714 228.882 72.136C227.091 71.2005 225.743 69.5973 225.13 67.6748C224.516 65.7522 224.687 63.6656 225.606 61.8683C226.524 60.071 228.116 58.7082 230.035 58.0761L233.077 57.1089L233.795 59.4231L230.752 60.3903C230.097 60.5987 229.488 60.9341 228.962 61.3772C228.436 61.8204 228.003 62.3626 227.687 62.973C227.048 64.2058 226.926 65.6414 227.348 66.9639C227.769 68.2865 228.7 69.3876 229.934 70.0252C231.169 70.6628 232.607 70.7845 233.931 70.3636L242.254 67.7126L243.015 70.0269Z" fill="#FFD200"/>
    <path d="M255.248 66.0935L263.571 63.4497C265.511 62.8331 267.125 61.4726 268.059 59.6674C268.994 57.8622 269.172 55.7603 268.555 53.824C267.937 51.8877 266.575 50.2756 264.767 49.3425C262.959 48.4093 260.854 48.2315 258.915 48.8481L255.873 49.8153L256.648 52.1152L259.69 51.1479C260.346 50.9395 261.036 50.8622 261.722 50.9202C262.408 50.9783 263.075 51.1706 263.686 51.4863C264.298 51.802 264.841 52.2348 265.285 52.7601C265.728 53.2854 266.064 53.8927 266.273 54.5476C266.482 55.2025 266.559 55.8919 266.501 56.5767C266.443 57.2615 266.25 57.9281 265.934 58.5385C265.618 59.1489 265.184 59.6912 264.658 60.1343C264.132 60.5775 263.524 60.9128 262.868 61.1212L254.495 63.7865L255.248 66.0935Z" fill="#FFD200"/>
    <path opacity="0.3" d="M251.273 56.9731C251.467 59.839 251.273 64.4459 248.346 67.3405C248.346 67.3405 255.822 68.0569 257.314 57.1021C257.379 56.6055 257.318 56.1006 257.135 55.6342C256.952 55.1679 256.655 54.7551 256.27 54.4342C255.885 54.1133 255.425 53.8948 254.933 53.7988C254.44 53.7028 253.932 53.7325 253.454 53.8851H253.347C252.702 54.0891 252.145 54.5057 251.769 55.0667C251.392 55.6278 251.217 56.2999 251.273 56.9731Z" fill="white"/>
    <path d="M225.796 39.1077L225.271 40.4409L232.287 43.2007L232.813 41.8675L225.796 39.1077Z" fill="#C9C9C9"/>
    <path d="M233.589 31.696L232.298 32.3208L235.586 39.0974L236.877 38.4726L233.589 31.696Z" fill="#C9C9C9"/>
    <path d="M243.507 32.8548L241.019 39.9331L242.367 40.406L244.856 33.3277L243.507 32.8548Z" fill="#C9C9C9"/>
</svg>
