<svg id="icon_success" xmlns="http://www.w3.org/2000/svg" width="80" height="85.229" viewBox="0 0 80 85.229">
  <g id="グループ_3192" data-name="グループ 3192" transform="translate(-643 -366.773)">
    <g id="グループ_1527" data-name="グループ 1527" transform="translate(-0.001 18)">
      <path id="パス_469" data-name="パス 469" d="M67.7,20.434a2.813,2.813,0,0,1-2.81-2.81V13.878a2.813,2.813,0,0,1,2.81-2.81l.92,0c1.89,0,1.89.255,1.89.94V19.5c0,.686,0,.94-1.89.94Z" transform="translate(598.443 358.434)" fill="#fff"/>
      <path id="パス_470" data-name="パス 470" d="M69.057,12.438a8.279,8.279,0,0,1,.952.039V19.9a8.17,8.17,0,0,1-.952.041l-.431,0-.491,0a1.875,1.875,0,0,1-1.873-1.873V14.315a1.876,1.876,0,0,1,1.873-1.873l.491,0Zm0-1.873c-.3,0-.605,0-.922,0a3.757,3.757,0,0,0-3.746,3.746v3.746a3.757,3.757,0,0,0,3.746,3.746c.317,0,.626.006.922.006,1.618,0,2.825-.135,2.825-1.879V12.442c0-1.742-1.206-1.877-2.825-1.877" transform="translate(598.006 357.998)" fill="#0ab4af"/>
      <path id="パス_471" data-name="パス 471" d="M84.779,20.44c-1.89,0-1.89-.257-1.89-.94V12.007c0-.686,0-.942,1.89-.942l.92.006a2.812,2.812,0,0,1,2.81,2.81v3.746a2.813,2.813,0,0,1-2.81,2.81Z" transform="translate(614.159 358.434)" fill="#fff"/>
      <path id="パス_472" data-name="パス 472" d="M85.216,12.438l.429,0,.491,0a1.876,1.876,0,0,1,1.873,1.873v3.746a1.875,1.875,0,0,1-1.873,1.873l-.491,0-.429,0a8.185,8.185,0,0,1-.953-.041V12.477a8.319,8.319,0,0,1,.953-.039m0-1.873c-1.62,0-2.827.135-2.827,1.877v7.493c0,1.744,1.206,1.879,2.827,1.879.294,0,.6-.006.92-.006a3.757,3.757,0,0,0,3.746-3.746V14.315a3.757,3.757,0,0,0-3.746-3.746c-.317,0-.626,0-.92,0" transform="translate(613.723 357.998)" fill="#0ab4af"/>
      <rect id="長方形_67" data-name="長方形 67" width="11.239" height="14.985" transform="translate(665.207 408.713)" fill="#fff"/>
      <path id="パス_473" data-name="パス 473" d="M76.628,46.485H67.262V33.373h9.366ZM78.5,31.5H65.389V48.358H78.5Z" transform="translate(598.879 376.277)" fill="#0ab4af"/>
      <rect id="長方形_68" data-name="長方形 68" width="11.239" height="14.985" transform="translate(689.558 408.713)" fill="#fff"/>
      <path id="パス_474" data-name="パス 474" d="M89.628,46.485H80.262V33.373h9.366ZM91.5,31.5H78.389V48.358H91.5Z" transform="translate(610.23 376.277)" fill="#0ab4af"/>
      <path id="パス_475" data-name="パス 475" d="M78.974,50.239a2.139,2.139,0,0,1-1.562-.446c-.6-.609-.562-2.083-.524-3.789.009-.448.019-.91.019-1.384A5.626,5.626,0,0,1,82.525,39h7.493a5.625,5.625,0,0,1,5.619,5.619c0,.648.03,1.276.056,1.869.066,1.455.129,2.832-.369,3.353a2.02,2.02,0,0,1-1.454.4Z" transform="translate(608.903 382.825)" fill="#fff"/>
      <path id="パス_476" data-name="パス 476" d="M90.456,40.373a4.689,4.689,0,0,1,4.683,4.683c0,.663.028,1.3.056,1.912a8.374,8.374,0,0,1-.1,2.654,1.671,1.671,0,0,1-.785.116H79.41a1.535,1.535,0,0,1-.892-.165c-.322-.326-.283-2-.258-3.113.009-.453.021-.923.021-1.4a4.687,4.687,0,0,1,4.683-4.683Zm0-1.873H82.964a6.575,6.575,0,0,0-6.556,6.556c0,3.606-.6,6.556,3,6.556h14.9c3.6,0,2.7-2.95,2.7-6.556A6.576,6.576,0,0,0,90.456,38.5" transform="translate(608.467 382.389)" fill="#0ab4af"/>
      <path id="パス_477" data-name="パス 477" d="M65.837,50.239a2.088,2.088,0,0,1-1.506-.421c-.545-.562-.5-1.952-.446-3.559.017-.524.036-1.073.036-1.639A5.625,5.625,0,0,1,69.54,39h7.493a5.626,5.626,0,0,1,5.619,5.619c0,.508.011,1,.024,1.478.043,1.669.081,3.113-.5,3.705a2.114,2.114,0,0,1-1.543.436Z" transform="translate(597.539 382.825)" fill="#fff"/>
      <path id="パス_478" data-name="パス 478" d="M77.469,40.373a4.689,4.689,0,0,1,4.683,4.683c0,.515.011,1.019.022,1.5.03,1.083.071,2.718-.229,3.027a1.549,1.549,0,0,1-.873.154h-14.8a1.623,1.623,0,0,1-.832-.135c-.268-.279-.214-1.907-.184-2.879.019-.534.037-1.094.037-1.669a4.687,4.687,0,0,1,4.683-4.683Zm0-1.873H69.976a6.575,6.575,0,0,0-6.556,6.556c0,3.606-.751,6.556,2.851,6.556h14.8c3.608,0,2.952-2.95,2.952-6.556A6.576,6.576,0,0,0,77.469,38.5" transform="translate(597.104 382.389)" fill="#0ab4af"/>
      <rect id="長方形_69" data-name="長方形 69" width="16.858" height="5.619" transform="translate(674.572 384.362)" fill="#fff"/>
      <path id="パス_483" data-name="パス 483" d="M87.247,24.119H72.262V20.373H87.247ZM89.12,18.5H70.389v7.493H89.12Z" transform="translate(603.245 364.926)" fill="#0ab4af"/>
      <rect id="長方形_70" data-name="長方形 70" width="44.955" height="25.69" rx="12.845" transform="translate(660.425 388.109)" fill="#fff"/>
      <path id="パス_484" data-name="パス 484" d="M96.223,22.373a11.583,11.583,0,0,1,11.57,11.57v.678A11.583,11.583,0,0,1,96.223,46.19H76.28A11.581,11.581,0,0,1,64.711,34.622v-.678A11.582,11.582,0,0,1,76.28,22.373Zm0-1.873H76.28A13.442,13.442,0,0,0,62.838,33.943v.678A13.442,13.442,0,0,0,76.28,48.063H96.223a13.442,13.442,0,0,0,13.443-13.442v-.678A13.443,13.443,0,0,0,96.223,20.5" transform="translate(596.652 366.672)" fill="#0ab4af"/>
      <path id="パス_485" data-name="パス 485" d="M61.694,21.445A6.552,6.552,0,0,0,67.147,15H65.274a4.673,4.673,0,0,1-4.364,4.649l-.358.028A4.685,4.685,0,0,1,55.908,15H54.035a6.544,6.544,0,0,0,5.775,6.475A25.685,25.685,0,0,0,71.21,39.2l1.013-1.575A23.806,23.806,0,0,1,61.694,21.445" transform="translate(588.966 361.871)" fill="#0ab4af"/>
      <path id="パス_486" data-name="パス 486" d="M105.221,15h-1.873a4.683,4.683,0,1,1-9.366,0H92.109a6.551,6.551,0,0,0,5.453,6.444A23.816,23.816,0,0,1,87.035,37.627L88.048,39.2a25.687,25.687,0,0,0,11.4-17.724A6.544,6.544,0,0,0,105.221,15" transform="translate(617.779 361.87)" fill="#0ab4af"/>
      <path id="パス_487" data-name="パス 487" d="M74.162,11.619a2.81,2.81,0,1,1,0-5.619h9.366a2.81,2.81,0,0,1,0,5.619Z" transform="translate(604.086 354.012)" fill="#fff"/>
      <path id="パス_488" data-name="パス 488" d="M83.963,7.373a1.873,1.873,0,1,1,0,3.746H74.6a1.873,1.873,0,1,1,0-3.746Zm0-1.873H74.6a3.746,3.746,0,1,0,0,7.493h9.366a3.746,3.746,0,1,0,0-7.493" transform="translate(603.648 353.575)" fill="#0ab4af"/>
      <path id="パス_489" data-name="パス 489" d="M77.442,28.6a10.3,10.3,0,1,1,0-20.6h10.3a10.3,10.3,0,1,1,0,20.6Z" transform="translate(600.408 355.758)" fill="#fff"/>
      <path id="パス_490" data-name="パス 490" d="M88.181,9.373a9.366,9.366,0,1,1,0,18.731h-10.3a9.366,9.366,0,1,1,0-18.731Zm0-1.873h-10.3a11.239,11.239,0,1,0,0,22.478h10.3a11.239,11.239,0,1,0,0-22.478" transform="translate(599.972 355.321)" fill="#0ab4af"/>
      <rect id="長方形_71" data-name="長方形 71" width="1.873" height="8.41" transform="translate(681.994 352.021)" fill="#0ab4af"/>
      <path id="パス_491" data-name="パス 491" d="M76.88,7.056a3.278,3.278,0,1,1,3.278-3.278A3.282,3.282,0,0,1,76.88,7.056" transform="translate(606.051 349.209)" fill="#fff"/>
      <path id="パス_492" data-name="パス 492" d="M77.316,1.873a2.341,2.341,0,1,1-2.341,2.341,2.345,2.345,0,0,1,2.341-2.341m0-1.873A4.215,4.215,0,1,0,81.53,4.215,4.226,4.226,0,0,0,77.316,0" transform="translate(605.613 348.773)" fill="#0ab4af"/>
      <path id="パス_493" data-name="パス 493" d="M73.109,13.708a2.617,2.617,0,0,0-2.615,2.615c0,1.442,1.173-.385,2.615-.385s2.615,1.827,2.615.385a2.617,2.617,0,0,0-2.615-2.615" transform="translate(603.336 360.742)" fill="#0ab4af"/>
      <path id="パス_494" data-name="パス 494" d="M80.109,13.708a2.617,2.617,0,0,0-2.615,2.615c0,1.442,1.173-.385,2.615-.385s2.615,1.827,2.615.385a2.617,2.617,0,0,0-2.615-2.615" transform="translate(609.449 360.742)" fill="#0ab4af"/>
      <path id="パス_495" data-name="パス 495" d="M95.487,30.215a1.84,1.84,0,0,0-1.587.937H70.85a1.845,1.845,0,0,0-1.587-.937,1.873,1.873,0,1,0,0,3.746,1.851,1.851,0,0,0,1.587-.937H93.9a1.846,1.846,0,0,0,1.587.937,1.873,1.873,0,0,0,0-3.746" transform="translate(600.627 375.155)" fill="#0ab4af"/>
      <path id="パス_496" data-name="パス 496" d="M77.636,26.215H75.763L73.89,31.835h5.619Z" transform="translate(606.302 371.663)" fill="#0ab4af"/>
      <rect id="長方形_72" data-name="長方形 72" width="1.873" height="5.619" transform="translate(675.286 397.877)" fill="#0ab4af"/>
      <rect id="長方形_73" data-name="長方形 73" width="1.873" height="5.619" transform="translate(671.539 397.877)" fill="#0ab4af"/>
      <rect id="長方形_74" data-name="長方形 74" width="1.873" height="5.619" transform="translate(689.334 397.877)" fill="#0ab4af"/>
      <rect id="長方形_75" data-name="長方形 75" width="1.873" height="5.619" transform="translate(692.588 397.877)" fill="#0ab4af"/>
    </g>
    <path id="パス_40078" data-name="パス 40078" d="M64.914,47.183a1.024,1.024,0,0,1-1.025-1.023,3.591,3.591,0,0,1,3.565-3.66H78.87a3.568,3.568,0,0,1,3.565,3.565,1.1,1.1,0,0,1-1.09,1.118Z" transform="translate(597.569 403.881)" fill="#fff"/>
    <path id="パス_40079" data-name="パス 40079" d="M79.308,43.873a2.637,2.637,0,0,1,2.628,2.658.159.159,0,0,1-.152.152H65.349a.093.093,0,0,1-.086-.086v-.1a2.63,2.63,0,0,1,2.628-2.628Zm0-1.873H67.891a4.514,4.514,0,0,0-4.5,4.5v.1a1.966,1.966,0,0,0,1.959,1.959H81.784a2.032,2.032,0,0,0,2.025-2.025V46.5a4.514,4.514,0,0,0-4.5-4.5" transform="translate(597.134 403.445)" fill="#0ab4af"/>
    <path id="パス_40080" data-name="パス 40080" d="M78.065,47.183a1.024,1.024,0,0,1-1.023-1.023,3.591,3.591,0,0,1,3.565-3.66H92.023a3.569,3.569,0,0,1,3.565,3.565A1.1,1.1,0,0,1,94.5,47.183Z" transform="translate(609.054 403.881)" fill="#fff"/>
    <path id="パス_40081" data-name="パス 40081" d="M92.46,43.873a2.637,2.637,0,0,1,2.628,2.658.159.159,0,0,1-.152.152H78.5a.093.093,0,0,1-.086-.086v-.1a2.63,2.63,0,0,1,2.628-2.628Zm0-1.873H81.043a4.514,4.514,0,0,0-4.5,4.5v.1A1.966,1.966,0,0,0,78.5,48.556H94.936a2.032,2.032,0,0,0,2.025-2.025V46.5a4.514,4.514,0,0,0-4.5-4.5" transform="translate(608.617 403.445)" fill="#0ab4af"/>
  </g>
</svg>
