<svg width="350" height="280" viewBox="0 0 350 280" fill="none"
    xmlns="http://www.w3.org/2000/svg">
    <path d="M131.29 118.836C132.61 121.242 132.633 124.096 131.361 126.525C131.149 126.926 131.762 127.279 131.974 126.878C133.364 124.213 133.34 121.1 131.903 118.483C131.667 118.058 131.078 118.436 131.29 118.836Z" fill="#161616"/>
    <path d="M132.162 118.954C132.963 118.553 133.906 118.058 134.825 118.27C136.191 118.553 136.239 119.662 136.333 120.794C136.427 122.303 136.356 123.907 135.367 125.133C135.084 125.487 135.579 125.982 135.862 125.628C137.228 123.954 137.393 121.336 136.875 119.285C136.215 116.808 133.529 117.492 131.832 118.341C131.408 118.53 131.762 119.143 132.162 118.954Z" fill="#161616"/>
    <path d="M132.162 127.02C133.482 127.185 134.801 126.666 135.673 125.652C135.956 125.298 135.461 124.803 135.178 125.157C134.424 126.053 133.341 126.478 132.162 126.336C131.715 126.265 131.715 126.973 132.162 127.02Z" fill="#161616"/>
    <path d="M131.95 87.7772C132.256 87.1876 133.105 85.584 134.047 87.0697C134.212 87.3056 134.212 87.9659 134.259 88.2017C134.353 88.697 134.518 89.2158 134.872 89.5931C136.05 90.8195 136.875 88.8149 138.1 89.4752C139.655 90.3006 137.629 92.0458 138.901 93.0127C139.207 93.2486 139.561 93.2486 139.914 93.1071C140.15 93.0127 140.338 92.8005 140.574 92.6826C141.446 92.3052 141.752 93.0835 141.823 93.7674C141.846 93.9796 141.964 94.0976 142.176 94.1211C142.435 94.1447 142.671 94.1683 142.93 94.1919C143.378 94.2391 143.378 93.5316 142.93 93.4844C142.671 93.4608 142.435 93.4372 142.176 93.4136C142.294 93.5316 142.412 93.6495 142.53 93.7674C142.459 93.1306 142.341 92.3052 141.752 91.9279C141.116 91.5034 140.692 91.8807 140.103 92.1637C139.82 92.3052 139.584 92.7769 139.184 92.2109C139.042 91.9986 139.349 91.3383 139.396 91.1025C139.49 90.7251 139.537 90.395 139.419 90.0176C139.231 89.4281 138.712 88.9328 138.123 88.7441C137.393 88.4847 137.04 88.7913 136.38 88.98C135.791 89.1451 135.202 89.0979 134.99 88.4611C134.919 88.2253 134.895 87.9423 134.872 87.7065C134.801 87.3291 134.754 86.9282 134.565 86.5745C133.599 84.8057 131.926 86.2915 131.337 87.4942C131.125 87.8244 131.738 88.1781 131.95 87.7772Z" fill="#161616"/>
    <path d="M136.521 85.5839C137.087 85.0415 137.605 84.8057 138.218 85.3245C138.713 85.749 138.619 85.8905 138.76 86.4565C138.854 86.7867 138.948 87.0933 139.231 87.3291C139.585 87.6357 139.985 87.6357 140.433 87.5885C140.857 87.5414 141.352 87.2584 141.705 87.7064C141.87 87.9187 141.847 88.3904 141.847 88.6498C141.87 89.3573 141.87 90.2063 142.671 90.4657C142.907 90.5364 143.166 90.4185 143.378 90.4893C143.661 90.3714 143.779 90.4421 143.802 90.7487C143.897 90.9374 143.944 91.126 143.92 91.3619C144.038 91.9043 144.25 92.3052 144.674 92.6825C145.004 92.9891 145.499 92.4939 145.169 92.1873C144.462 91.5269 144.957 90.6072 144.368 90.0176C143.755 89.4044 142.789 90.3006 142.577 89.1686C142.412 88.296 142.742 87.1169 141.587 86.8103C140.763 86.598 139.891 87.4234 139.443 86.2914C139.255 85.8198 139.325 85.3009 138.996 84.8529C138.218 83.8388 136.781 84.3576 136.003 85.0887C135.673 85.3953 136.192 85.9141 136.521 85.5839Z" fill="#161616"/>
    <path d="M223.326 129.425C222.619 129.355 223.679 127.963 223.891 127.845C224.457 127.539 225.116 127.704 225.541 128.152C226.459 129.142 225.682 130.605 224.433 130.746C223.985 130.793 223.985 131.501 224.433 131.454C225.47 131.336 226.389 130.652 226.624 129.614C226.86 128.6 226.247 127.515 225.305 127.114C224.386 126.737 223.373 127.091 222.831 127.916C222.36 128.624 222.242 130.039 223.349 130.133C223.773 130.18 223.773 129.473 223.326 129.425Z" fill="#161616"/>
    <path d="M218.566 127.987C218.071 127.539 218.66 126.643 219.226 127.138C219.815 127.633 219.013 128.317 218.471 127.916C218.118 127.633 217.765 128.246 218.118 128.529C218.613 128.907 219.367 128.789 219.815 128.341C220.333 127.822 220.215 127.02 219.673 126.572C219.131 126.124 218.354 126.147 217.93 126.737C217.553 127.256 217.6 128.01 218.071 128.458C218.401 128.789 218.919 128.293 218.566 127.987Z" fill="#161616"/>
    <path d="M300.304 97.6823C300.54 102.069 298.349 106.29 294.649 108.649C294.272 108.884 294.626 109.498 295.003 109.262C298.914 106.785 301.247 102.328 301.011 97.6823C300.988 97.2342 300.281 97.2342 300.304 97.6823Z" fill="#161616"/>
    <path d="M300.776 98.201C303.038 99.8518 302.119 102.847 300.87 104.804C299.692 106.667 297.783 108.884 295.333 108.507C294.885 108.436 294.696 109.12 295.144 109.191C298.089 109.615 300.328 107.139 301.695 104.828C303.061 102.54 303.58 99.3802 301.129 97.5878C300.752 97.3284 300.399 97.9416 300.776 98.201Z" fill="#161616"/>
    <path d="M102.426 77.2119C103.911 79.6645 104.806 82.3766 105.018 85.2302C105.065 85.6783 105.772 85.6783 105.725 85.2302C105.49 82.2351 104.594 79.4287 103.039 76.8581C102.78 76.4572 102.167 76.811 102.426 77.2119Z" fill="#E8E8E8"/>
    <path d="M105.301 76.4337C106.526 78.6505 107.209 81.056 107.374 83.5794C107.398 84.0275 108.105 84.0275 108.081 83.5794C107.916 80.9381 107.186 78.4147 105.913 76.0799C105.701 75.679 105.089 76.0328 105.301 76.4337Z" fill="#E8E8E8"/>
    <path d="M102.238 81.7399C104.288 80.3956 106.597 79.6881 109.071 79.641C109.519 79.641 109.519 78.9335 109.071 78.9335C106.503 78.9806 104.052 79.7353 101.884 81.1503C101.507 81.3861 101.861 81.9993 102.238 81.7399Z" fill="#E8E8E8"/>
    <path d="M102.167 84.6171C104.736 83.0606 107.54 82.0701 110.509 81.622C110.956 81.5513 110.768 80.8674 110.32 80.9381C107.281 81.3862 104.429 82.4239 101.814 84.0039C101.437 84.2398 101.79 84.8529 102.167 84.6171Z" fill="#E8E8E8"/>
    <path d="M240.526 96.2437C239.443 96.7861 239.018 98.2011 239.937 99.1208C240.432 99.6161 240.856 99.4746 241.445 99.6633C241.822 99.7812 242.246 100.017 242.176 100.394C242.129 100.654 241.869 100.866 241.728 101.078C241.492 101.385 241.21 101.739 241.115 102.116C241.021 102.564 241.139 103.012 241.492 103.319C242.011 103.767 242.694 103.484 243.26 103.767C244.438 104.333 242.294 106.809 244.108 107.281C244.556 107.399 244.744 106.715 244.296 106.597C243.542 106.408 244.485 104.97 244.556 104.521C244.603 104.121 244.532 103.72 244.226 103.437C243.425 102.658 241.068 103.484 242.27 101.503C242.647 100.89 243.33 100.135 242.883 99.3331C242.741 99.0737 242.506 98.9322 242.223 98.8614C241.94 98.8143 241.492 98.8614 241.21 98.8378C239.961 98.7671 239.82 97.3757 240.88 96.8333C241.28 96.6682 240.927 96.055 240.526 96.2437Z" fill="#E8E8E8"/>
    <path d="M245.757 100.206C244.979 100.512 244.956 101.361 245.427 101.998C245.733 102.446 246.228 102.54 246.629 102.847C247.618 103.578 246.747 104.191 246.582 105.04C246.299 106.502 247.854 106.007 248.302 106.95C248.679 107.729 248.537 108.601 249.503 108.955C249.928 109.12 250.116 108.436 249.692 108.271C249.009 108.035 249.103 106.738 248.726 106.219C248.608 106.031 248.443 105.913 248.278 105.771C248.184 105.701 248.043 105.724 247.972 105.677C247.807 105.653 247.689 105.535 247.642 105.3C247.312 105.087 247.265 104.875 247.548 104.639C247.76 103.979 248.184 103.578 247.736 102.894C247.571 102.635 247.265 102.446 247.006 102.281C246.794 102.139 245.262 101.196 245.969 100.913C246.37 100.724 246.181 100.041 245.757 100.206Z" fill="#E8E8E8"/>
    <path d="M291.28 147.82C289.56 146.594 289.843 144.024 291.704 143.08C293.118 142.373 295.05 143.033 295.78 144.424C296.511 145.816 295.875 147.773 294.484 148.504C293.024 149.259 291.209 148.599 290.385 147.254C290.149 146.877 289.536 147.231 289.772 147.608C290.832 149.377 293.283 150.155 295.097 148.976C296.817 147.844 297.359 145.226 296.087 143.575C294.838 141.972 292.34 141.594 290.762 142.892C288.924 144.377 289.065 147.089 290.95 148.457C291.304 148.693 291.657 148.08 291.28 147.82Z" fill="#E8E8E8"/>
    <path d="M128.651 154.612C128.91 153.763 129.287 153.528 129.735 153.928C129.853 153.976 129.971 154.046 130.065 154.094C130.23 154.141 130.442 154.188 130.607 154.164C130.96 154.117 131.243 153.905 131.408 153.622C131.997 152.679 131.337 151.759 130.748 151.028C130.442 150.674 129.876 150.202 129.947 149.66C130.041 148.622 130.654 149.047 131.172 148.976C131.549 148.929 131.879 148.787 132.068 148.434C132.256 148.127 132.209 147.726 132.162 147.396C132.138 147.207 132.068 146.995 132.068 146.806C131.903 146.311 132.138 146.004 132.775 145.887C133.081 146.099 133.34 146.358 133.552 146.688C133.811 147.066 134.424 146.712 134.165 146.335C133.529 145.438 131.644 144.212 131.337 146.075C131.196 147.019 132.068 148.009 130.678 148.245C129.994 148.363 129.523 148.363 129.311 149.165C129.122 149.825 129.382 150.462 129.782 150.981C129.971 151.216 130.183 151.429 130.371 151.641C130.607 151.877 130.772 152.136 130.89 152.443C130.607 152.726 130.348 153.009 130.065 153.292C129.853 153.339 129.311 152.891 129.005 152.867C127.638 152.773 126.908 154.612 128.274 155.202C128.722 155.391 129.075 154.777 128.651 154.612Z" fill="#E8E8E8"/>
    <path d="M134.401 153.598C134.024 152.985 133.435 152.042 133.694 151.264C133.882 150.674 134.683 150.415 135.037 149.943C135.579 149.212 135.508 148.245 135.013 147.514C134.919 147.702 134.801 147.868 134.707 148.056C136.05 148.151 137.181 147.349 137.582 146.052C137.723 145.604 137.04 145.438 136.898 145.863C136.592 146.853 135.744 147.419 134.707 147.349C134.448 147.325 134.259 147.655 134.401 147.891C134.707 148.339 134.825 148.976 134.518 149.471C134.236 149.896 133.859 149.919 133.552 150.226C133.27 150.509 133.081 150.792 133.01 151.216C132.822 152.183 133.34 153.15 133.812 153.952C134.024 154.353 134.636 153.999 134.401 153.598Z" fill="#E8E8E8"/>
    <path d="M206.361 31.7433C207.609 33.1819 208.387 34.8563 208.717 36.7194C208.787 37.1674 209.471 36.9788 209.4 36.5307C209.047 34.5497 208.175 32.7574 206.855 31.2244C206.549 30.8943 206.054 31.3895 206.361 31.7433Z" fill="#E8E8E8"/>
    <path d="M206.973 31.814C207.774 31.0829 210.979 28.2057 212.157 29.0312C212.746 29.4557 213.264 30.4226 213.641 31.0593C214.113 31.8612 214.49 32.7102 214.796 33.5827C214.937 34.0072 215.621 33.8186 215.479 33.3941C215.079 32.2857 214.584 31.2008 213.948 30.2103C213.547 29.5736 212.935 28.4887 212.204 28.1822C211.379 27.8284 210.366 28.5595 209.683 28.9604C208.528 29.6207 207.468 30.4226 206.478 31.3187C206.149 31.6253 206.643 32.1206 206.973 31.814Z" fill="#E8E8E8"/>
    <path d="M209.471 37.1674C211.309 35.6109 213.312 34.3374 215.526 33.3705C215.951 33.1818 215.574 32.5686 215.173 32.7573C212.911 33.7478 210.861 35.0685 208.976 36.6721C208.623 36.9551 209.117 37.4504 209.471 37.1674Z" fill="#E8E8E8"/>
    <path d="M213.571 30.5169C214.466 29.7622 216.469 27.852 217.576 29.1019C218.378 29.9981 218.896 31.4602 219.367 32.5451C219.556 32.9696 220.168 32.5922 219.98 32.1913C219.532 31.1772 219.061 30.2103 218.495 29.267C218.213 28.7717 217.859 28.0171 217.27 27.8048C216.587 27.569 215.856 28.0642 215.314 28.3944C214.513 28.8661 213.783 29.4085 213.076 29.9981C212.723 30.3282 213.241 30.8235 213.571 30.5169Z" fill="#E8E8E8"/>
    <path d="M211.827 34.8326C212.934 35.3279 213.877 35.9882 214.749 36.8372C214.914 37.0023 215.173 36.9551 215.314 36.7665C216.351 35.2807 217.718 34.1487 219.367 33.3705C219.791 33.1818 219.414 32.5686 219.013 32.7573C217.246 33.5827 215.809 34.8091 214.702 36.3891C214.89 36.3656 215.079 36.342 215.267 36.3184C214.372 35.4222 213.358 34.7383 212.204 34.2195C211.756 34.0544 211.403 34.644 211.827 34.8326Z" fill="#E8E8E8"/>
    <path d="M216.964 61.0573C216.917 60.7979 216.846 60.5385 216.799 60.2791C217.011 60.0668 217.223 59.8781 217.482 59.7366C217.624 59.6423 217.789 59.548 217.93 59.4301C218.213 59.1942 218.401 58.9584 218.543 58.6282C218.708 58.2037 218.66 57.8028 218.613 57.3547C218.59 57.2132 218.566 57.0481 218.543 56.9066C218.519 56.7416 218.613 54.8313 219.367 55.4445C219.721 55.7275 220.216 55.2322 219.862 54.9492C219.344 54.5247 218.802 54.5955 218.331 55.0436C217.529 55.8218 217.906 56.7416 217.954 57.6849C218.024 59.0999 216.186 59.1706 216.021 60.4677C215.951 61.0573 216.186 61.5997 216.799 61.7176C217.223 61.812 217.412 61.1281 216.964 61.0573Z" fill="#EC615B"/>
    <path d="M219.556 59.0999C220.121 59.5479 220.922 59.2178 221.04 58.4867C221.158 57.8499 220.734 57.2604 220.781 56.6236C220.852 55.751 221.441 54.9964 222.242 54.6898C222.666 54.5247 222.478 53.8408 222.053 54.0059C221.276 54.2889 220.663 54.8077 220.333 55.5859C220.168 55.9397 220.074 56.3406 220.074 56.7415C220.074 56.9302 220.098 57.1189 220.121 57.2839C220.121 57.2839 220.475 58.9112 220.074 58.581C219.697 58.3216 219.202 58.8169 219.556 59.0999Z" fill="#EC615B"/>
    <path d="M158.764 136.925C158.34 136.689 158.293 136.147 158.599 135.793C158.906 135.439 159.471 135.298 159.919 135.368C160.296 135.439 160.72 135.628 160.885 136.005C161.073 136.43 160.791 137.161 160.225 137.09C159.778 137.019 159.589 137.703 160.037 137.774C160.838 137.892 161.545 137.349 161.663 136.524C161.804 135.651 161.097 134.944 160.296 134.732C159.471 134.496 158.434 134.755 157.94 135.51C157.492 136.194 157.68 137.161 158.434 137.538C158.811 137.75 159.165 137.137 158.764 136.925Z" fill="#EC615B"/>
    <path d="M121.536 53.4635C121.677 52.9918 121.819 52.4966 121.936 52.0249C122.078 52.0721 122.219 52.1192 122.36 52.1664C122.549 52.19 122.738 52.3079 122.926 52.3551C123.185 52.4258 123.492 52.4494 123.751 52.3786C124.363 52.1664 124.552 51.5768 124.552 50.9872C124.552 50.3976 124.34 49.7609 124.811 49.2892C125.188 48.9119 125.824 48.7704 126.319 48.8883C127.945 49.2656 127.78 51.3174 127.073 52.4258C126.837 52.8031 127.45 53.1569 127.686 52.7796C128.463 51.5296 128.652 49.643 127.379 48.6289C126.437 47.8742 124.835 48.0157 124.104 49.0062C123.609 49.6666 123.939 50.2561 123.798 51.0108C123.562 52.2607 121.795 51.1051 120.994 51.3881C119.486 51.9306 119.934 53.8408 121.277 54.1946C121.771 54.2653 121.96 53.5814 121.536 53.4635Z" fill="#EC615B"/>
    <path d="M274.786 156.9C275.281 156.523 275.823 156.499 276.412 156.806C276.671 156.947 277.025 156.711 276.93 156.405C276.718 155.98 276.765 155.603 277.119 155.273C277.284 154.542 277.661 154.494 278.226 155.108C278.391 155.438 278.862 155.249 278.886 154.919C278.886 154.612 278.91 154.282 278.957 153.976C279.027 153.221 279.522 153.032 280.394 153.386C280.582 153.811 281.172 153.433 281.007 153.032C280.724 152.372 279.97 152.16 279.31 152.419C278.32 152.82 278.203 153.999 278.179 154.919C278.391 154.848 278.627 154.801 278.839 154.73C278.509 154.023 277.661 153.763 276.954 154.117C276.058 154.589 276.011 155.697 276.247 156.57C276.412 156.428 276.6 156.31 276.765 156.169C275.964 155.768 275.21 155.792 274.433 156.263C274.056 156.523 274.409 157.136 274.786 156.9Z" fill="#EC615B"/>
    <path d="M256.478 59.1943C255.206 59.5716 254.31 60.6564 254.145 62.0007C253.981 63.2742 254.735 64.8543 256.148 64.9958C257.185 65.0901 258.222 63.9109 257.586 62.944C256.902 61.8828 255.583 62.661 255.041 63.4157C253.509 65.6089 254.876 69.9011 258.033 68.887C258.905 68.604 259.989 67.5428 259.494 66.5287C258.882 65.2788 257.515 66.623 257.161 67.3305C256.431 68.7927 256.243 70.8916 257.751 71.9293C258.929 72.7311 260.554 72.2123 260.931 70.8208C261.026 70.5143 260.578 70.1841 260.342 70.4671C258.717 72.5188 259.965 75.3488 262.604 75.4432C263.052 75.4668 263.052 74.7593 262.604 74.7357C260.625 74.6649 259.588 72.5424 260.837 70.9859C260.649 70.868 260.437 70.7501 260.248 70.6322C259.895 71.9764 258.245 71.7642 257.609 70.7737C257.044 69.8539 257.232 68.604 257.751 67.6843C257.868 67.4484 258.505 66.34 258.882 67.0475C259.07 67.4248 258.363 67.9673 258.128 68.1088C257.397 68.5097 256.431 68.3918 255.866 67.7786C255.276 67.1654 255.088 66.2221 255.159 65.3967C255.206 64.9486 255.3 64.4298 255.512 64.0524C255.606 63.9109 255.724 63.7694 255.818 63.6279C256.407 63.0619 256.384 63.227 255.724 64.1468C255.253 64.1939 254.852 62.8968 254.829 62.5903C254.805 62.2837 254.852 61.9771 254.923 61.6941C255.159 60.8215 255.795 60.1612 256.667 59.9018C257.114 59.7603 256.926 59.0763 256.478 59.1943Z" fill="#EC615B"/>
    <path d="M129.712 73.6037C129.523 73.0377 129.618 72.4953 130.042 72.0472C130.513 71.5519 131.078 71.6227 131.667 71.717C132.092 71.7878 132.421 71.8349 132.822 71.5991C133.128 71.4104 133.34 71.0567 133.482 70.7501C133.576 70.5143 133.647 70.2784 133.694 70.0426C133.717 69.8775 133.765 69.7124 133.788 69.5709C133.835 69.0049 134.236 68.7691 134.966 68.8634C134.943 69.2879 135.532 69.3115 135.65 68.9578C135.838 68.4154 136.074 67.8494 136.568 67.5192C137.299 67.0239 138.336 67.1183 138.477 68.1324C138.548 68.5804 139.207 68.3918 139.16 67.9437C139.019 66.9768 138.1 66.3636 137.134 66.5051C135.956 66.6702 135.32 67.7786 134.99 68.7927C135.225 68.8163 135.461 68.8634 135.673 68.887C135.72 68.1795 135.06 67.7314 134.377 67.8258C133.27 67.9673 133.223 69.2172 132.987 70.0426C132.822 70.6322 132.681 71.0803 131.856 71.0567C131.62 71.0567 131.338 70.8916 131.078 70.8916C130.631 70.8916 130.183 71.0567 129.83 71.3161C129.052 71.9057 128.722 72.8962 129.028 73.8159C129.17 74.2169 129.853 74.0518 129.712 73.6037Z" fill="#5222D0"/>
    <path d="M261.615 96.4795C263.307 96.4795 264.678 95.0119 264.678 93.2014C264.678 91.391 263.307 89.9233 261.615 89.9233C259.923 89.9233 258.552 91.391 258.552 93.2014C258.552 95.0119 259.923 96.4795 261.615 96.4795Z" fill="#5222D0"/>
    <path d="M95.9234 97.2106C97.0425 97.2106 97.9497 96.3131 97.9497 95.206C97.9497 94.0989 97.0425 93.2014 95.9234 93.2014C94.8042 93.2014 93.897 94.0989 93.897 95.206C93.897 96.3131 94.8042 97.2106 95.9234 97.2106Z" fill="#5222D0"/>
    <path d="M125.918 182.582C126.855 182.582 127.615 181.759 127.615 180.743C127.615 179.727 126.855 178.903 125.918 178.903C124.981 178.903 124.222 179.727 124.222 180.743C124.222 181.759 124.981 182.582 125.918 182.582Z" fill="#5222D0"/>
    <path d="M258.056 100.559C260.021 100.559 261.614 99.0495 261.614 97.187C261.614 95.3245 260.021 93.8146 258.056 93.8146C256.091 93.8146 254.499 95.3245 254.499 97.187C254.499 99.0495 256.091 100.559 258.056 100.559Z" fill="#EC615B"/>
    <path d="M187.628 28.1114C188.63 28.1114 189.443 27.2033 189.443 26.0832C189.443 24.9631 188.63 24.0551 187.628 24.0551C186.626 24.0551 185.814 24.9631 185.814 26.0832C185.814 27.2033 186.626 28.1114 187.628 28.1114Z" fill="#EC615B"/>
    <path d="M287.203 136.217C288.609 136.217 289.748 134.95 289.748 133.387C289.748 131.824 288.609 130.557 287.203 130.557C285.798 130.557 284.659 131.824 284.659 133.387C284.659 134.95 285.798 136.217 287.203 136.217Z" fill="#EC615B"/>
    <path d="M88.8073 121.596C91.6181 121.596 93.8968 119.262 93.8968 116.384C93.8968 113.505 91.6181 111.172 88.8073 111.172C85.9964 111.172 83.7178 113.505 83.7178 116.384C83.7178 119.262 85.9964 121.596 88.8073 121.596Z" fill="#EC615B"/>
    <path d="M124.269 255.195C119.698 248.309 113.571 240.809 114.373 232.036C114.255 232.154 114.137 232.272 114.019 232.39C114.726 232.367 115.339 232.484 115.998 232.767C116.258 232.885 116.635 232.697 116.517 232.367C116.281 231.706 115.857 231.329 115.386 230.834C114.514 229.914 114.443 228.971 114.49 227.768C114.561 225.858 114.231 224.112 113.43 222.367C113.359 222.532 113.289 222.721 113.218 222.886C113.831 222.674 114.443 222.462 115.056 222.249C115.221 222.179 115.362 222.013 115.292 221.825C113.784 217.438 114.538 212.509 114.867 208.005C115.221 203.194 115.692 198.407 116.258 193.619C116.069 193.713 115.904 193.831 115.716 193.926C118.873 195.954 120.57 199.421 121.889 202.793C123.397 206.637 124.693 210.552 125.777 214.538C128.039 222.745 129.406 231.211 129.877 239.725C130.136 244.465 130.112 249.229 129.806 253.969C129.783 254.417 130.489 254.417 130.513 253.969C131.62 236.517 128.958 218.712 122.502 202.439C121.112 198.925 119.321 195.411 116.069 193.313C115.81 193.147 115.574 193.36 115.527 193.619C114.938 198.572 114.467 203.524 114.113 208.477C113.784 212.934 113.124 217.698 114.585 222.013C114.655 221.872 114.75 221.73 114.82 221.589C114.208 221.801 113.595 222.013 112.982 222.226C112.747 222.296 112.676 222.532 112.77 222.745C113.242 223.782 113.595 224.867 113.713 226.023C113.807 226.99 113.666 227.933 113.736 228.9C113.784 229.56 113.901 230.173 114.302 230.739C114.773 231.4 115.527 231.824 115.81 232.602C115.975 232.461 116.163 232.343 116.328 232.201C115.574 231.871 114.82 231.706 113.996 231.73C113.784 231.73 113.666 231.895 113.642 232.084C112.841 240.998 119.014 248.615 123.656 255.596C123.915 255.926 124.528 255.573 124.269 255.195Z" fill="#E8E8E8"/>
    <path d="M116.281 195.27C121.653 209.703 124.881 224.914 125.8 240.291C126.059 244.63 126.13 248.993 126.036 253.356C126.036 253.804 126.743 253.804 126.743 253.356C127.096 237.979 125.187 222.556 121.064 207.722C119.886 203.453 118.496 199.232 116.964 195.081C116.823 194.657 116.139 194.845 116.281 195.27Z" fill="#E8E8E8"/>
    <path d="M114.373 210.175C117.86 212.344 120.711 215.339 122.714 218.948C122.926 219.349 123.538 218.995 123.326 218.594C121.276 214.891 118.331 211.802 114.726 209.561C114.349 209.326 113.996 209.939 114.373 210.175Z" fill="#E8E8E8"/>
    <path d="M115.08 201.472C117.059 202.958 118.661 204.798 119.91 206.92C120.145 207.321 120.758 206.967 120.522 206.566C119.203 204.326 117.506 202.416 115.433 200.859C115.08 200.6 114.726 201.213 115.08 201.472Z" fill="#E8E8E8"/>
    <path d="M125.447 229.56C125.871 226.636 126.696 223.782 127.921 221.094C128.109 220.693 127.497 220.315 127.308 220.74C126.059 223.499 125.211 226.376 124.763 229.395C124.693 229.819 125.376 230.008 125.447 229.56Z" fill="#E8E8E8"/>
    <path d="M127.144 216.165C129.311 208.972 133.058 202.463 136.804 196.001C136.592 195.977 136.38 195.954 136.168 195.907C138.1 205.34 139.702 214.821 140.928 224.372C141.045 224.254 141.163 224.136 141.281 224.018C140.456 223.971 139.632 223.924 138.807 223.876C138.524 223.853 138.312 224.301 138.548 224.49C139.962 225.575 139.82 227.461 139.655 229.065C139.443 231.187 139.208 233.286 138.972 235.409C139.113 235.291 139.278 235.173 139.42 235.079C138.783 234.937 138.171 234.89 137.511 234.89C137.252 234.89 137.063 235.196 137.205 235.432C139.019 238.545 136.192 241.8 134.872 244.488C133.553 247.2 132.704 250.125 132.28 253.12C132.209 253.568 132.893 253.757 132.963 253.308C133.458 249.677 134.636 246.233 136.451 243.05C137.817 240.644 139.396 237.791 137.817 235.079C137.723 235.267 137.605 235.432 137.511 235.621C138.1 235.597 138.666 235.645 139.231 235.786C139.467 235.833 139.655 235.692 139.679 235.456C139.938 233.027 140.315 230.598 140.433 228.169C140.503 226.659 140.291 225.032 139.043 224.042C138.948 224.254 138.878 224.442 138.783 224.655C139.608 224.702 140.433 224.749 141.257 224.796C141.422 224.796 141.634 224.631 141.611 224.443C140.362 214.844 138.76 205.269 136.804 195.789C136.733 195.482 136.309 195.459 136.168 195.694C132.398 202.203 128.628 208.783 126.437 216.023C126.342 216.401 127.026 216.589 127.144 216.165Z" fill="#E8E8E8"/>
    <path d="M136.144 196.779C133.764 210.835 132.139 225.032 131.267 239.276C131.243 239.725 131.95 239.725 131.974 239.276C132.822 225.103 134.448 210.976 136.804 196.968C136.898 196.52 136.215 196.331 136.144 196.779Z" fill="#E8E8E8"/>
    <path d="M129.004 211.047C129.971 214.325 131.102 217.533 132.374 220.693C132.539 221.117 133.222 220.929 133.057 220.504C131.785 217.344 130.677 214.113 129.688 210.859C129.546 210.41 128.863 210.599 129.004 211.047Z" fill="#E8E8E8"/>
    <path d="M48.4681 224.961C56.55 222.297 65.4095 220.551 73.9392 220.999C78.3689 221.235 82.5866 222.603 86.7807 223.877C90.857 225.103 94.9333 226.376 99.0332 227.556C103.651 228.876 108.317 229.938 113.1 230.268C113.548 230.291 113.548 229.584 113.1 229.56C104.288 228.994 95.7816 225.881 87.3933 223.334C83.4113 222.131 79.4528 220.787 75.2822 220.386C70.9938 219.985 66.6348 220.386 62.3935 220.976C57.5868 221.66 52.8507 222.768 48.256 224.277C47.8555 224.419 48.044 225.103 48.4681 224.961Z" fill="#E8E8E8"/>
    <path d="M73.6094 220.716C80.4896 219.207 87.3935 217.698 94.1795 215.74C100.848 213.806 107.351 210.764 114.302 209.915C114.75 209.868 114.75 209.161 114.302 209.208C107.445 210.057 101.036 213.005 94.4386 214.938C87.5348 216.967 80.4897 218.5 73.4445 220.056C72.9732 220.127 73.1617 220.811 73.6094 220.716Z" fill="#E8E8E8"/>
    <path d="M124.504 208.311C126.389 208.194 128.298 208.17 130.183 208.241C130.63 208.264 130.63 207.557 130.183 207.533C128.274 207.462 126.389 207.486 124.504 207.604C124.057 207.651 124.057 208.359 124.504 208.311Z" fill="#E8E8E8"/>
    <path d="M57.5163 252.86C65.4333 251.728 73.2796 253.733 81.0552 254.959C84.7545 255.549 88.4774 255.903 92.2238 255.808C96.4179 255.69 100.612 255.266 104.759 255.997C105.207 256.068 105.395 255.384 104.948 255.313C100.871 254.606 96.7949 254.959 92.6715 255.101C88.5245 255.242 84.4482 254.818 80.3719 254.158C72.7376 252.908 65.0798 251.092 57.3278 252.2C56.8801 252.247 57.0686 252.931 57.5163 252.86Z" fill="#E8E8E8"/>
    <path d="M104.594 262.105C104.688 261.374 107.492 261.704 107.987 261.704C108.6 261.704 110.862 261.35 111.168 262.011C111.215 261.846 111.262 261.681 111.286 261.515C110.131 262.294 108.859 262.624 107.469 262.53C107.021 262.506 107.021 263.213 107.469 263.237C108.977 263.331 110.367 262.954 111.639 262.129C111.804 262.011 111.851 261.822 111.757 261.633C111.545 261.185 111.191 261.067 110.72 260.997C109.613 260.832 108.388 260.973 107.28 260.973C106.22 260.973 104.028 260.572 103.864 262.081C103.816 262.553 104.547 262.553 104.594 262.105Z" fill="#E8E8E8"/>
    <path d="M105.112 250.431C104.665 250.667 104.193 250.596 103.722 250.219C103.699 250.408 103.675 250.596 103.651 250.785C104.24 250.337 104.924 250.054 105.678 250.078C106.29 250.101 106.832 250.431 107.445 250.455C108.01 250.478 108.529 250.243 109.094 250.172C109.99 250.03 110.814 250.219 111.616 250.667C112.016 250.879 112.37 250.29 111.969 250.054C111.38 249.724 110.791 249.488 110.108 249.441C109.141 249.346 108.246 249.865 107.327 249.747C106.573 249.653 105.961 249.346 105.159 249.417C104.453 249.488 103.84 249.771 103.274 250.196C103.109 250.313 103.015 250.596 103.204 250.762C103.84 251.28 104.5 251.445 105.277 251.162C105.725 250.974 105.536 250.29 105.112 250.431Z" fill="#E8E8E8"/>
    <path d="M69.3916 260.431C70.5933 261.916 72.1955 260.525 73.5386 260.242C74.646 260.006 75.5178 260.667 76.6017 260.667C77.7563 260.667 79.0051 260.124 80.0183 260.855C80.3953 261.115 80.7487 260.501 80.3717 260.242C79.7591 259.794 79.0993 259.723 78.3453 259.77C77.2143 259.865 76.319 260.006 75.188 259.652C74.4104 259.393 73.7507 259.393 72.9731 259.676C72.0306 260.03 70.6875 260.973 69.8393 259.935C69.6036 259.582 69.0853 260.101 69.3916 260.431Z" fill="#E8E8E8"/>
    <path d="M145.498 255.714C147.053 255.101 148.302 255.289 149.928 255.478C150.941 255.596 151.648 255.242 152.544 254.841C153.486 254.417 154.122 254.629 154.97 255.101C155.324 255.289 155.654 255.455 156.054 255.525C157.256 255.761 158.882 254.959 159.895 255.832C160.248 256.138 160.743 255.62 160.39 255.337C159.494 254.582 158.528 254.747 157.421 254.841C156.502 254.912 155.795 254.747 155.018 254.299C154.546 254.04 154.099 253.804 153.557 253.804C153.062 253.804 152.614 254.016 152.167 254.205C151.106 254.676 150.47 254.818 149.292 254.629C147.902 254.417 146.629 254.488 145.31 255.006C144.886 255.195 145.074 255.879 145.498 255.714Z" fill="#E8E8E8"/>
    <path d="M300.563 217.839C308.928 213.995 317.34 210.127 326.152 207.439C335.035 204.75 344.272 203.43 353.555 203.642C358.833 203.76 364.111 204.373 369.295 205.434C369.743 205.529 369.931 204.845 369.484 204.75C360.247 202.84 350.752 202.416 341.397 203.524C332.114 204.609 323.231 207.345 314.583 210.859C309.729 212.84 304.946 215.033 300.186 217.226C299.809 217.415 300.163 218.028 300.563 217.839Z" fill="#E8E8E8"/>
    <path d="M338.852 218.617C344.366 216.613 350.021 215.056 355.794 214.019C358.763 213.476 361.732 213.099 364.748 212.816C366.915 212.627 370.945 211.708 372.5 213.783C372.759 214.137 373.395 213.783 373.112 213.429C371.769 211.637 369.437 211.802 367.41 211.92C364.206 212.108 360.978 212.462 357.797 212.957C351.27 213.972 344.861 215.67 338.664 217.934C338.24 218.099 338.428 218.783 338.852 218.617Z" fill="#E8E8E8"/>
    <path d="M300.587 203.477C307.043 202.062 313.806 202.817 319.767 205.67C320.167 205.859 320.544 205.246 320.12 205.057C313.971 202.133 307.043 201.331 300.399 202.793C299.951 202.887 300.139 203.571 300.587 203.477Z" fill="#E8E8E8"/>
    <path d="M314.984 235.928C315.997 234.725 317.599 236.093 318.659 236.517C319.531 236.871 320.215 236.777 321.063 236.399C322.429 235.786 323.537 236.328 324.904 236.281C326.317 236.234 327.472 234.89 328.768 236.069C329.098 236.376 329.616 235.88 329.263 235.574C328.414 234.819 327.495 234.678 326.435 235.055C325.893 235.267 325.493 235.527 324.88 235.574C324.409 235.597 323.937 235.479 323.466 235.432C322.901 235.362 322.335 235.267 321.793 235.362C320.898 235.527 320.191 236.234 319.201 235.975C318.494 235.786 317.905 235.291 317.222 235.008C316.256 234.63 315.149 234.56 314.442 235.409C314.183 235.786 314.677 236.281 314.984 235.928Z" fill="#E8E8E8"/>
    <path d="M342.151 254.04C340.643 249.229 339.96 244.229 340.148 239.182C339.96 239.276 339.795 239.394 339.606 239.489C340.125 239.748 340.667 240.008 341.185 240.267C341.444 240.385 341.704 240.243 341.727 239.96C342.057 235.102 343.141 230.362 344.908 225.81C344.743 225.881 344.555 225.952 344.39 226.023C344.672 226.164 344.955 226.306 345.261 226.471C345.379 226.541 345.591 226.541 345.686 226.424C347.523 224.112 349.55 221.99 351.812 220.08C351.623 220.056 351.435 220.032 351.246 220.009C352.919 222.344 352.801 225.409 352.684 228.145C352.542 231.187 352.142 234.182 351.458 237.154C350.115 242.908 347.783 248.38 344.555 253.332C344.295 253.709 344.908 254.063 345.167 253.686C348.584 248.474 351.034 242.649 352.33 236.541C352.966 233.569 353.343 230.551 353.438 227.532C353.508 224.843 353.532 221.919 351.882 219.632C351.741 219.443 351.505 219.396 351.317 219.561C349.055 221.471 347.029 223.57 345.191 225.905C345.332 225.881 345.474 225.858 345.615 225.858C345.332 225.716 345.049 225.575 344.743 225.409C344.531 225.292 344.319 225.409 344.225 225.622C342.434 230.22 341.374 235.031 341.02 239.96C341.209 239.866 341.374 239.748 341.562 239.654C341.044 239.394 340.502 239.135 339.983 238.876C339.748 238.758 339.465 238.899 339.441 239.182C339.253 244.276 339.936 249.347 341.468 254.205C341.609 254.653 342.293 254.464 342.151 254.04Z" fill="#E8E8E8"/>
    <path d="M352.637 236.163C354.239 232.72 356.124 229.419 358.244 226.282C358.103 226.329 357.985 226.4 357.844 226.447C359.21 226.801 359.964 225.551 360.671 224.608C361.967 222.862 363.593 221.471 365.502 220.41C365.337 220.339 365.148 220.268 364.983 220.198C367.127 226.895 365.761 233.829 361.755 239.536C359.87 242.224 357.702 244.795 355.488 247.224C353.273 249.606 350.846 251.752 347.924 253.238C347.523 253.45 347.877 254.063 348.277 253.851C351.246 252.342 353.744 250.148 355.982 247.719C358.339 245.149 360.648 242.437 362.603 239.559C366.538 233.782 367.811 226.73 365.667 220.032C365.596 219.82 365.36 219.702 365.148 219.82C363.876 220.528 362.698 221.377 361.637 222.414C361.166 222.886 360.718 223.405 360.294 223.947C359.776 224.608 359.093 226.046 358.032 225.787C357.867 225.74 357.726 225.81 357.632 225.952C355.511 229.088 353.626 232.39 352.024 235.833C351.835 236.211 352.448 236.588 352.637 236.163Z" fill="#E8E8E8"/>
    <path d="M349.314 224.207C347.688 228.64 345.709 233.098 344.649 237.72C343.565 242.437 342.905 247.271 342.104 252.035C342.033 252.483 342.717 252.672 342.787 252.224C343.612 247.46 344.248 242.602 345.332 237.909C346.392 233.286 348.372 228.853 349.997 224.395C350.162 223.971 349.479 223.782 349.314 224.207Z" fill="#E8E8E8"/>
    <path d="M361.731 227.721C359.116 231.918 356.501 236.116 353.885 240.29C351.505 244.111 348.937 247.861 347.288 252.059C347.123 252.483 347.806 252.672 347.971 252.247C349.668 247.979 352.33 244.135 354.757 240.243C357.278 236.187 359.823 232.131 362.344 228.051C362.58 227.673 361.967 227.32 361.731 227.721Z" fill="#E8E8E8"/>
    <path d="M343.094 228.593C343.329 230.975 343.895 233.263 344.767 235.479C344.931 235.904 345.615 235.715 345.45 235.291C344.602 233.145 344.036 230.904 343.8 228.593C343.753 228.145 343.046 228.121 343.094 228.593Z" fill="#E8E8E8"/>
    <path d="M345.026 239.937C347.735 237.602 350.233 235.055 352.542 232.319C352.825 231.966 352.33 231.47 352.047 231.824C349.738 234.56 347.241 237.107 344.531 239.442C344.177 239.748 344.696 240.243 345.026 239.937Z" fill="#E8E8E8"/>
    <path d="M355.794 228.735C355.582 231.117 355.629 233.475 355.935 235.833C355.982 236.281 356.689 236.281 356.642 235.833C356.336 233.475 356.289 231.093 356.501 228.735C356.548 228.263 355.841 228.263 355.794 228.735Z" fill="#E8E8E8"/>
    <path d="M78.251 152.23C74.8345 151.287 72.3604 147.962 72.4075 144.401C72.4547 140.415 76.0362 136.17 80.2067 136.264C84.5894 136.382 86.9456 141.712 86.5215 145.556C86.0267 150.131 81.4791 153.009 77.12 151.806C76.6724 151.688 76.4839 152.372 76.9315 152.49C80.4424 153.457 84.2359 152.089 86.1209 148.929C88.0059 145.745 87.3697 141.524 85.3669 138.528C83.3405 135.51 79.5234 134.755 76.3896 136.571C73.3972 138.34 71.3472 141.995 71.7714 145.486C72.1955 148.929 74.7167 151.971 78.0625 152.891C78.5102 153.032 78.6987 152.348 78.251 152.23Z" fill="#E8E8E8"/>
    <path d="M71.1353 170.13C71.8657 170.979 72.8317 171.545 73.9627 171.663C74.5518 171.734 75.1409 171.663 75.7064 171.451C76.6017 171.144 77.3322 170.484 78.3689 170.673C79.6649 170.885 80.6309 171.781 81.9976 171.616C83.482 171.451 84.7779 170.39 86.3331 170.507C87.7468 170.625 88.9485 171.592 90.3387 171.875C91.5639 172.135 92.3415 171.687 93.3782 171.144C96.0408 169.729 99.0804 171.522 101.861 170.578C102.285 170.437 102.096 169.753 101.672 169.894C99.1746 170.72 96.5592 169.352 94.038 170.083C92.6478 170.484 91.776 171.522 90.1973 171.121C88.9956 170.814 87.9589 170.083 86.7336 169.871C85.5791 169.658 84.5659 170.059 83.5056 170.46C82.8929 170.696 82.2332 170.956 81.5499 170.956C80.7016 170.956 79.9947 170.484 79.2407 170.201C78.1569 169.8 77.3557 169.941 76.319 170.413C74.6225 171.191 72.9024 171.168 71.6301 169.635C71.3473 169.281 70.8289 169.776 71.1353 170.13Z" fill="#E8E8E8"/>
    <path d="M89.3488 163.975C91.2102 165.013 93.3544 163.48 95.1923 164.447C95.9227 164.824 96.394 165.437 97.2894 165.319C98.0198 165.225 98.5853 164.659 99.1508 164.234C100.423 163.244 101.46 163.48 102.85 164.046C103.887 164.47 104.876 164.73 105.984 164.706C108.482 164.659 110.956 163.574 113.43 164.399C113.854 164.541 114.042 163.857 113.618 163.715C111.498 163.008 109.377 163.621 107.233 163.881C105.96 164.046 104.759 164.022 103.557 163.55C102.567 163.173 101.578 162.607 100.47 162.749C99.7399 162.843 99.1979 163.267 98.6324 163.715C98.1612 164.093 97.7135 164.564 97.0773 164.564C96.4411 164.588 96.0641 164.093 95.5222 163.81C93.6843 162.796 91.493 164.352 89.6787 163.338C89.3017 163.126 88.9482 163.739 89.3488 163.975Z" fill="#E8E8E8"/>
    <path d="M298.419 149.259C299.833 148.882 300.846 148.882 302.095 149.707C302.708 150.108 303.344 150.414 304.074 150.556C305.37 150.792 306.713 150.485 307.962 150.155C309.494 149.731 311.049 149.165 312.651 149.165C314.347 149.165 315.738 150.344 317.458 150.202C320.662 149.919 322.665 146.735 326.105 147.113C329.098 147.443 332.066 149.33 335.012 147.891C335.412 147.702 335.059 147.089 334.658 147.278C331.595 148.764 328.273 146.264 325.116 146.382C323.678 146.429 322.453 147.042 321.228 147.75C319.743 148.646 318.117 149.872 316.256 149.424C315.408 149.235 314.677 148.764 313.829 148.575C313.169 148.433 312.51 148.433 311.85 148.504C310.389 148.646 308.999 149.141 307.609 149.518C305.983 149.943 304.286 150.249 302.755 149.33C302.118 148.929 301.553 148.457 300.799 148.316C299.927 148.15 299.055 148.386 298.231 148.599C297.807 148.693 297.971 149.377 298.419 149.259Z" fill="#E8E8E8"/>
    <path d="M324.079 155.485C325.422 154.707 326.977 154.565 328.39 155.225C329.239 155.603 329.898 156.098 330.865 156.027C333.056 155.862 334.564 153.928 336.849 154.966C337.533 155.273 338.192 155.603 338.97 155.485C339.936 155.32 340.619 154.542 341.491 154.211C343.635 153.386 346.062 154.589 348.301 154.093C348.748 153.999 348.56 153.315 348.112 153.41C345.897 153.881 343.612 152.749 341.421 153.48C340.407 153.81 339.63 154.777 338.522 154.777C337.415 154.777 336.543 153.881 335.389 153.905C333.268 153.952 331.571 156.074 329.404 155.037C327.472 154.093 325.634 153.81 323.678 154.942C323.325 155.084 323.678 155.697 324.079 155.485Z" fill="#E8E8E8"/>
    <path d="M305.723 190.718C307.231 190.247 308.292 190.624 309.658 191.214C310.412 191.52 311.119 191.591 311.92 191.449C312.91 191.237 313.805 190.766 314.771 190.506C316.232 190.129 317.057 190.931 318.329 191.426C320.214 192.157 321.746 190.813 323.489 190.388C325.704 189.846 327.731 191.426 329.969 191.096C330.417 191.025 330.228 190.341 329.781 190.412C327.613 190.742 325.657 189.185 323.466 189.681C322.429 189.917 321.534 190.483 320.521 190.789C319.036 191.237 318.188 190.435 316.892 189.917C315.125 189.233 313.57 190.365 311.873 190.742C310.648 191.025 309.823 190.412 308.716 190.034C307.655 189.681 306.572 189.728 305.535 190.058C305.087 190.176 305.276 190.86 305.723 190.718Z" fill="#E8E8E8"/>
    <path opacity="0.22" d="M350.987 262.294C319.437 268.331 287.863 274.345 256.313 280.382C218.542 268.591 180.795 256.799 143.024 245.007C193.377 245.196 243.731 245.361 294.06 245.55C313.051 251.139 332.019 256.728 350.987 262.294Z" fill="#666666"/>
    <path opacity="0.19" d="M314.324 253.379C287.722 259.77 261.096 266.161 234.494 272.552C204.475 263.379 174.433 254.205 144.415 245.007C185.131 241.588 225.87 238.168 266.586 234.748C282.491 240.974 298.395 247.177 314.324 253.379Z" fill="#666666"/>
    <path d="M142.907 173.691C143.26 197.204 143.637 220.716 143.991 244.253C173.821 250.997 203.627 257.719 233.457 264.464C233.41 237.248 233.34 210.033 233.292 182.818C203.156 179.752 173.02 176.71 142.907 173.691Z" fill="white" stroke="#161616" stroke-width="2" stroke-miterlimit="10"/>
    <path d="M299.126 167.489C299.009 193.43 298.891 219.372 298.773 245.314C277.072 251.705 255.347 258.072 233.646 264.463C233.575 236.942 233.505 209.444 233.434 181.922C255.324 177.134 277.237 172.323 299.126 167.489Z" fill="white" stroke="#161616" stroke-width="2" stroke-miterlimit="10"/>
    <path d="M232.68 182.582C202.873 179.493 173.09 176.403 143.307 173.314C162.935 168.314 182.562 163.315 202.19 158.315C234.282 161.404 266.398 164.494 298.49 167.607C276.553 172.583 254.616 177.583 232.68 182.582Z" fill="white" stroke="#161616" stroke-width="2" stroke-miterlimit="10"/>
    <path d="M254.499 163.385C246.841 162.867 239.207 162.348 231.549 161.829C216.469 167.347 201.389 172.866 186.332 178.384C186.191 203.406 186.05 228.428 185.885 253.45C192.647 255.077 199.41 256.681 206.172 258.308C205.889 232.39 205.583 206.496 205.3 180.578C221.7 174.87 238.099 169.116 254.499 163.385Z" fill="#161616" stroke="#161616" stroke-width="2" stroke-miterlimit="10"/>
    <path d="M261.096 256.115C267.34 254.205 273.608 252.294 279.852 250.384C279.64 224.466 279.404 198.572 279.192 172.654C248.608 169.045 218 165.437 187.416 161.829C182.115 163.15 176.837 164.47 171.535 165.814C201.46 170.46 231.384 175.083 261.332 179.729C261.261 205.199 261.19 230.645 261.096 256.115Z" fill="#161616" stroke="#161616" stroke-width="2" stroke-miterlimit="10"/>
    <path d="M262.675 128.246C264.843 129.142 265.196 134.755 264.018 139.142C259.494 155.957 230.206 162.772 228.816 160.202C228.227 159.093 233.269 156.994 243.872 146.476C255.559 134.873 259.824 127.091 262.675 128.246Z" fill="white" stroke="#161616" stroke-width="2" stroke-miterlimit="10"/>
    <path d="M202.402 139.307C202.968 141.972 204.358 145.061 213.288 153.645C219.273 159.4 222.289 162.277 223.137 161.711C224.857 160.532 219.155 149.188 213.736 141.099C210.955 136.948 206.078 129.708 203.604 130.652C201.837 131.312 201.695 135.981 202.402 139.307Z" fill="white" stroke="#161616" stroke-width="2" stroke-miterlimit="10"/>
    <path d="M224.881 171.569C228.342 171.569 231.149 168.602 231.149 164.942C231.149 161.282 228.342 158.315 224.881 158.315C221.419 158.315 218.613 161.282 218.613 164.942C218.613 168.602 221.419 171.569 224.881 171.569Z" fill="#161616" stroke="#161616" stroke-width="2" stroke-miterlimit="10"/>
    <path d="M224.999 162.253C228.556 158.787 232.162 155.108 235.767 151.263C243.731 142.773 250.823 134.401 257.114 126.289C258.481 126.124 261.167 125.959 262.298 127.491C263.947 129.685 261.332 134.024 260.107 136.076C253.863 146.476 233.999 157.537 224.999 162.253Z" fill="#161616" stroke="#161616" stroke-width="2" stroke-miterlimit="10"/>
    <path d="M203.84 130.298C204.711 129.496 207.421 131.123 209.023 132.09C222.313 140.085 223.938 158.999 224.198 162.442C213.359 148.433 201.648 132.35 203.84 130.298Z" fill="#161616" stroke="#161616" stroke-width="2" stroke-miterlimit="10"/>
    <path d="M147.831 186.426C158.576 186.615 169.367 186.568 180.088 187.063C190.927 187.558 201.672 189.068 212.369 190.931C218.401 191.992 224.433 193.147 230.465 194.327C230.913 194.421 231.101 193.737 230.654 193.643C220.098 191.591 209.518 189.563 198.844 188.124C188.053 186.686 177.261 186.214 166.375 186.025C160.202 185.931 154.005 185.813 147.831 185.719C147.384 185.719 147.384 186.426 147.831 186.426Z" fill="#161616"/>
    <path d="M239.371 193.973C257.42 188.549 275.823 184.327 294.461 181.356C294.908 181.285 294.72 180.601 294.272 180.672C275.658 183.643 257.255 187.865 239.183 193.289C238.759 193.407 238.947 194.091 239.371 193.973Z" fill="#161616"/>
    <path d="M206.95 226.447C206.95 233.593 206.95 240.715 206.95 247.861C206.95 248.309 207.657 248.309 207.657 247.861C207.657 240.715 207.657 233.593 207.657 226.447C207.657 225.999 206.95 225.999 206.95 226.447Z" fill="#161616"/>
    <path d="M209.282 243.592C209.282 247.153 209.282 250.738 209.282 254.299C209.282 254.747 209.989 254.747 209.989 254.299C209.989 250.738 209.989 247.153 209.989 243.592C209.989 243.121 209.282 243.121 209.282 243.592Z" fill="#161616"/>
    <path d="M258.057 208.264C258.057 213.972 258.057 219.679 258.057 225.386C258.057 225.834 258.764 225.834 258.764 225.386C258.764 219.679 258.764 213.972 258.764 208.264C258.764 207.816 258.057 207.816 258.057 208.264Z" fill="#161616"/>
    <path d="M259.329 232.013C259.329 235.857 259.329 239.725 259.329 243.569C259.329 244.017 260.036 244.017 260.036 243.569C260.036 239.725 260.036 235.857 260.036 232.013C260.036 231.565 259.329 231.565 259.329 232.013Z" fill="#161616"/>
    <path d="M173.208 207.345C173.208 210.434 173.208 213.523 173.208 216.613C173.208 217.061 173.915 217.061 173.915 216.613C173.915 213.523 173.915 210.434 173.915 207.345C173.915 206.897 173.208 206.897 173.208 207.345Z" fill="#161616"/>
    <path d="M171.205 219.113C171.205 221.613 171.205 224.112 171.205 226.612C171.205 227.06 171.912 227.06 171.912 226.612C171.912 224.112 171.912 221.613 171.912 219.113C171.912 218.665 171.205 218.665 171.205 219.113Z" fill="#161616"/>
    <path opacity="0.21" d="M297.618 245.219C276.318 251.705 255.017 258.214 233.717 264.699C233.717 237.626 233.717 210.552 233.717 183.478C255.135 178.573 276.553 173.668 297.972 168.786C297.877 194.256 297.76 219.726 297.618 245.219Z" fill="#666666"/>
    <path opacity="0.21" d="M299.032 245.526C277.331 251.469 255.653 257.412 233.952 263.355C233.811 239.654 233.669 215.976 233.504 192.275C243.094 201.071 252.708 209.868 262.298 218.688C274.456 214.655 286.638 210.623 298.796 206.59C298.89 219.561 298.961 232.555 299.032 245.526Z" fill="#666666"/>
    <path opacity="0.14" d="M263.735 129.473C262.581 129.237 261.355 137.184 257.326 143.717C253.674 149.636 246.393 156.57 230.347 160.579C232.421 160.39 235.578 159.966 239.277 158.881C243.118 157.773 259.329 153.056 263.594 140.392C265.337 135.156 264.678 129.661 263.735 129.473Z" fill="#666666"/>
    <path opacity="0.2" d="M205.56 179.988C212.369 184.61 219.202 189.233 226.012 193.855C219.744 192.77 213.5 191.709 207.233 190.624C207.492 203.218 208.528 217.344 210.932 232.673C212.511 242.743 214.466 252.106 216.634 260.69C213.312 259.77 209.966 258.851 206.643 257.907C206.29 231.942 205.937 205.953 205.56 179.988Z" fill="#666666"/>
    <path opacity="0.13" d="M207.209 180.2C217.223 178.762 227.261 177.323 237.275 175.884C232.869 175.295 228.462 174.705 224.056 174.139C221.017 175.271 218.519 176.05 216.775 176.568C214.985 177.087 213.642 177.417 211.639 178.196C209.73 178.927 208.199 179.681 207.209 180.2Z" fill="#666666"/>
    <path d="M288.782 240.008C288.122 240.621 287.486 241.257 286.826 241.871C287.957 246.234 289.088 250.596 290.219 254.959C291.115 254.511 292.033 254.087 292.929 253.639C291.562 249.087 290.172 244.536 288.782 240.008Z" fill="#161616" stroke="#161616" stroke-width="3" stroke-miterlimit="10"/>
    <path d="M290.078 237.956C289.418 237.767 288.782 237.579 288.122 237.39C288.004 235.126 287.863 232.862 287.745 230.598C291.586 229.206 295.45 227.815 299.291 226.4C299.621 226.494 299.974 226.589 300.304 226.683C296.911 230.433 293.494 234.206 290.078 237.956Z" fill="#161616" stroke="#161616" stroke-width="3" stroke-miterlimit="10"/>
    <path d="M289.96 230.598C290.054 233.098 290.172 235.574 290.266 238.074C293.541 237.13 296.793 236.211 300.068 235.267C300.115 232.461 300.163 229.678 300.233 226.872C296.793 228.122 293.377 229.348 289.96 230.598Z" fill="white" stroke="#161616" stroke-width="3" stroke-miterlimit="10"/>
    <path d="M288.876 239.937C292.929 238.899 296.958 237.862 301.011 236.824C300.869 238.027 300.799 239.394 300.846 240.88C301.011 244.795 302.047 248.002 303.013 250.219C299.644 251.351 296.275 252.507 292.905 253.639C291.562 249.064 290.219 244.512 288.876 239.937Z" fill="white" stroke="#161616" stroke-width="3" stroke-miterlimit="10"/>
    <path d="M293.046 237.225C293.023 237.649 293.094 238.074 293.258 238.475C293.423 238.899 294.107 238.71 293.942 238.286C293.8 237.932 293.753 237.578 293.753 237.225C293.777 236.777 293.07 236.777 293.046 237.225Z" fill="#161616"/>
    <path d="M295.214 236.847C295.167 237.225 295.238 237.602 295.379 237.932C295.45 238.097 295.615 238.239 295.803 238.168C295.968 238.121 296.133 237.909 296.039 237.744C295.921 237.437 295.874 237.154 295.898 236.847C295.921 236.659 295.733 236.494 295.544 236.494C295.356 236.494 295.214 236.659 295.214 236.847Z" fill="#161616"/>
    <path d="M292.222 254.205C292.717 256.516 294.931 258.615 296.746 260.03C298.749 261.586 301.105 262.506 303.602 262.789C304.05 262.836 304.05 262.129 303.602 262.082C301.176 261.799 298.843 260.855 296.934 259.275C295.332 257.955 293.353 256.068 292.905 254.016C292.811 253.568 292.128 253.757 292.222 254.205Z" fill="#161616"/>
    <path d="M293.871 253.592C296.18 257.106 299.244 260.36 303.579 261.068C304.027 261.138 304.215 260.454 303.768 260.384C299.597 259.7 296.699 256.61 294.46 253.238C294.225 252.837 293.612 253.191 293.871 253.592Z" fill="#161616"/>
    <path d="M303.956 260.643C304.121 259.912 304.357 259.204 304.71 258.52C304.852 258.261 305.064 258.002 305.158 257.742C304.946 257.318 304.875 257.341 304.993 257.789C305.04 258.025 305.064 258.261 305.087 258.52C305.134 259.181 305.087 259.818 305.016 260.478C304.993 260.761 305.016 261.728 304.828 261.94C304.639 262.152 304.215 262.129 303.98 262.152C303.532 262.176 303.532 262.883 303.98 262.86C304.451 262.836 304.946 263.048 305.323 262.648C305.7 262.223 305.629 261.398 305.7 260.879C305.818 259.983 305.865 259.063 305.77 258.143C305.723 257.719 305.747 257.129 305.346 256.917C305.252 256.87 305.087 256.846 304.993 256.917C304.027 257.672 303.532 259.37 303.273 260.478C303.155 260.902 303.838 261.091 303.956 260.643Z" fill="#161616"/>
    <path d="M299.314 251.705C301.506 254.37 304.899 255.643 308.292 255.195C308.739 255.125 308.551 254.464 308.103 254.511C304.946 254.936 301.812 253.662 299.809 251.21C299.526 250.856 299.032 251.351 299.314 251.705Z" fill="#161616"/>
    <path d="M297.429 252.601C300.068 255.455 303.815 257.035 307.702 256.917C308.15 256.893 308.15 256.186 307.702 256.209C303.98 256.327 300.445 254.842 297.924 252.106C297.641 251.752 297.123 252.271 297.429 252.601Z" fill="#161616"/>
    <path d="M308.81 254.747C308.928 254.299 309.069 253.851 309.234 253.427C309.281 253.285 309.705 251.941 309.87 251.941C309.752 251.846 309.634 251.776 309.54 251.681C309.776 252.389 309.611 253.379 309.54 254.087C309.446 254.959 309.257 255.808 309.022 256.657C308.904 257.106 309.587 257.294 309.705 256.846C309.964 255.95 310.153 255.03 310.247 254.087C310.318 253.309 310.483 252.247 310.224 251.493C310.176 251.351 310.035 251.233 309.894 251.233C308.833 251.304 308.362 253.757 308.15 254.559C308.009 255.007 308.692 255.195 308.81 254.747Z" fill="#161616"/>
    <path d="M307.443 256.87C308.009 257.106 308.598 257.2 309.211 257.082C309.658 257.011 309.47 256.327 309.022 256.398C308.622 256.469 308.197 256.422 307.797 256.257C307.396 256.068 307.019 256.681 307.443 256.87Z" fill="#161616"/>
    <path d="M294.555 257.105C294.649 256.539 295.144 256.186 295.709 256.257C296.157 256.304 296.157 255.596 295.709 255.549C294.861 255.455 294.013 256.068 293.871 256.917C293.777 257.365 294.46 257.554 294.555 257.105Z" fill="#161616"/>
    <path d="M296.628 259.204C296.722 258.733 297.076 258.403 297.523 258.308C297.971 258.214 297.783 257.53 297.335 257.624C296.652 257.766 296.086 258.308 295.945 258.992C295.85 259.464 296.51 259.653 296.628 259.204Z" fill="#161616"/>
    <path d="M298.82 260.879C298.985 260.384 299.385 260.03 299.904 259.935C300.351 259.841 300.163 259.157 299.715 259.252C298.961 259.393 298.372 259.959 298.136 260.69C297.995 261.115 298.678 261.303 298.82 260.879Z" fill="#161616"/>
    <path d="M301.129 260.053C300.587 260.431 300.328 261.044 300.445 261.704C300.516 262.152 301.199 261.964 301.129 261.516C301.082 261.185 301.223 260.855 301.482 260.667C301.859 260.407 301.506 259.794 301.129 260.053Z" fill="#161616"/>
    <path d="M304.781 258.025C304.333 259.228 304.569 260.785 304.569 262.058C304.569 262.506 305.276 262.506 305.276 262.058C305.276 260.855 305.04 259.346 305.464 258.214C305.606 257.789 304.922 257.601 304.781 258.025Z" fill="#161616"/>
    <path d="M300.987 254.488C300.987 254.11 301.223 253.78 301.6 253.686C302.047 253.568 301.859 252.884 301.411 253.002C300.752 253.167 300.28 253.804 300.28 254.488C300.28 254.936 300.987 254.936 300.987 254.488Z" fill="#161616"/>
    <path d="M299.079 253.238C299.267 252.861 299.621 252.625 300.045 252.554C300.233 252.53 300.328 252.295 300.281 252.129C300.233 251.917 300.045 251.846 299.856 251.894C299.267 251.988 298.749 252.365 298.466 252.908C298.278 253.285 298.89 253.639 299.079 253.238Z" fill="#161616"/>
    <path d="M304.781 255.879C304.781 255.691 304.875 255.525 305.063 255.431C305.464 255.219 305.111 254.606 304.71 254.818C304.309 255.03 304.074 255.455 304.097 255.879C304.074 256.327 304.781 256.327 304.781 255.879Z" fill="#161616"/>
    <path d="M291.68 233.734C292.151 233.734 292.622 233.734 293.094 233.734C293.541 233.734 293.541 233.027 293.094 233.027C292.622 233.027 292.151 233.027 291.68 233.027C291.232 233.027 291.232 233.734 291.68 233.734Z" fill="#161616"/>
    <path d="M297.311 232.225C297.665 231.871 298.018 231.518 298.372 231.164C298.702 230.834 298.183 230.338 297.877 230.669C297.523 231.022 297.17 231.376 296.817 231.73C296.51 232.036 297.005 232.532 297.311 232.225Z" fill="#161616"/>
    <path d="M294.649 234.772C295.309 234.984 296.016 234.678 296.369 234.112C296.605 233.711 295.992 233.357 295.757 233.758C295.568 234.088 295.191 234.206 294.838 234.112C294.39 233.97 294.225 234.654 294.649 234.772Z" fill="#161616"/>
    <path d="M299.456 242.13C298.23 242.484 297.005 242.838 295.78 243.191C295.615 242.861 295.403 242.389 295.309 241.776C295.191 241.092 295.238 240.526 295.309 240.149C296.628 239.89 297.948 239.63 299.267 239.371C299.149 239.725 299.031 240.338 299.149 241.069C299.22 241.517 299.338 241.871 299.456 242.13Z" fill="#EC615B"/>
    <path opacity="0.24" d="M292.411 229.82C292.481 232.178 292.576 234.56 292.646 236.918C295.073 236.281 297.5 235.668 299.927 235.031C299.951 232.437 299.974 229.867 299.974 227.273C297.477 228.145 294.932 228.971 292.411 229.82Z" fill="#666666"/>
    <path opacity="0.24" d="M292.411 239.512C292.741 241.116 293.165 242.814 293.636 244.559C294.413 247.366 295.309 249.936 296.228 252.247C298.348 251.516 300.445 250.809 302.566 250.078C302.048 248.969 301.553 247.649 301.152 246.139C300.233 242.555 300.351 239.418 300.634 237.272C297.901 238.027 295.167 238.781 292.411 239.512Z" fill="#666666"/>
    <path d="M168.802 51.8361C168.896 53.7464 169.061 56.5292 169.367 59.8545C170.121 68.1322 170.569 75.278 172.478 80.938C173.915 85.2066 177.308 93.2013 185.79 101.243C185.296 102.87 184.494 104.922 183.151 107.139C181.502 109.851 179.617 111.785 178.203 113.035C171.229 106.219 167.577 99.4273 165.645 95.0408C160.908 84.2396 160.791 74.4054 160.696 67.1181C160.626 61.1987 161.121 56.2226 161.639 52.6616C160.791 51.8597 159.495 50.6098 157.869 49.1241C154.9 46.4356 153.769 45.563 153.958 45.1856C154.122 44.8555 155.348 44.8791 160.437 46.695C156.055 41.0586 154.099 38.0399 154.57 37.5918C154.994 37.1909 157.35 38.8889 161.662 42.6858C158.458 34.7146 157.94 32.3327 158.364 32.1205C158.788 31.9082 160.437 33.8185 165.055 41.4831C164.325 35.3042 164.561 33.9128 164.938 33.8185C165.597 33.677 167.058 37.5211 167.482 38.6766C168.472 41.318 169.014 43.582 169.297 45.1149C173.279 41.9783 174.08 42.2613 174.268 42.45C174.952 43.0631 173.137 46.1761 172.69 46.9544C171.394 49.2184 169.909 50.8221 168.802 51.8361Z" fill="white" stroke="#161616" stroke-width="2" stroke-miterlimit="10"/>
    <path opacity="0.15" d="M158.576 32.4978C158.175 32.7101 159.66 36.6721 161.592 40.0445C162.134 40.9642 162.464 41.4123 165.315 45.7045C166.469 47.4496 167.412 48.8646 168.048 49.808C167.223 53.204 166.328 57.8735 166.092 63.4863C165.927 67.4011 165.668 75.1601 168.401 84.4519C171.37 94.5456 176.531 101.833 180.301 106.243C182.115 104.616 183.929 102.988 185.743 101.361C177.944 93.8616 174.504 86.3386 172.925 82.07C170.687 75.9855 170.074 70.1368 169.532 65.0428C168.943 59.7365 168.873 55.2557 168.92 51.9776C170.122 51.0343 171.912 49.3835 173.232 46.8129C173.515 46.2469 175.07 43.2518 174.292 42.5915C173.467 41.884 170.475 44.148 169.226 45.1149C166.469 35.9881 165.362 33.9364 164.914 34.0307C164.655 34.0779 164.584 34.8326 164.49 36.0353C164.302 38.488 164.726 40.4926 165.126 41.7425C165.103 41.7896 165.103 41.7896 158.576 32.4978Z" fill="#666666"/>
    <path opacity="0.2" d="M173.656 44.7375C172.69 45.1856 170.64 46.2941 169.014 48.6524C167.529 50.7985 167.129 52.8738 167.011 53.935C166.681 57.2367 166.61 61.01 167.035 65.09C168.519 79.6173 175.329 90.277 179.735 95.9605C176.695 90.9373 172.784 83.2256 170.545 73.1555C168.613 64.524 168.543 57.0245 168.896 51.6239C169.815 50.657 170.852 49.4306 171.841 47.9213C172.595 46.7893 173.184 45.7045 173.656 44.7375Z" fill="#666666"/>
    <path d="M208.976 100.04C207.35 100.795 205.984 101.314 205.182 102.8C203.604 105.7 205.701 109.568 206.219 110.535C207.539 112.988 209.424 114.497 210.861 115.393C215.432 113.412 222.265 109.639 228.321 102.682C236.144 93.6965 238.406 84.1689 239.584 79.0513C241.162 72.0706 241.233 66.104 241.021 62.0477C242.176 60.0431 243.849 57.2131 245.993 53.8171C247.878 50.7985 248.914 49.2184 248.514 48.7939C248.208 48.4873 247.029 48.7467 242.859 51.7418C244.367 45.8695 244.862 42.8273 244.32 42.615C243.801 42.4264 242.341 44.8083 239.937 49.7844C240.291 42.9924 240.126 39.5492 239.442 39.4549C238.735 39.337 237.44 43.0395 235.555 50.5155C234.447 45.3507 233.646 42.8037 233.128 42.8509C232.515 42.9216 232.326 46.577 232.515 53.7935C228.957 51.8361 226.931 51.1286 226.436 51.7182C225.753 52.5436 228.038 55.7981 233.293 61.5289C233.41 63.7457 233.387 67.2832 232.539 71.4575C232.114 73.5564 229.098 88.3195 218.825 94.1682C215.503 96.0785 212.416 98.4368 208.976 100.04Z" fill="white" stroke="#161616" stroke-width="2" stroke-miterlimit="10"/>
    <path opacity="0.16" d="M244.32 42.5679C243.943 42.45 243.306 44.6197 240.715 48.3458C240.102 49.242 239.819 49.5722 239.584 50.2797C238.947 52.3314 240.078 53.6285 240.031 55.3501C239.984 56.5764 239.348 58.298 236.426 60.3733C236.921 62.1421 237.463 64.6655 237.628 67.7078C238.264 79.8532 231.902 88.7441 229.687 92.4467C227.59 95.9606 221.323 105.064 206.078 110.653C206.195 111.243 206.62 112.87 208.08 114.167C208.976 114.969 209.918 115.323 210.484 115.464C213.641 114.167 218.024 111.95 222.548 108.224C229.687 102.328 233.151 95.8898 234.8 92.7297C241.469 80.0418 241.469 67.6606 241.021 61.4818C242.364 59.3593 243.542 57.4962 244.461 56.034C247.76 50.7985 248.796 49.1241 248.396 48.7232C248.184 48.5109 247.477 48.6053 245.191 50.1618C244.414 50.6334 243.636 51.1287 242.859 51.6003C244.532 44.5489 244.649 42.6623 244.32 42.5679Z" fill="#666666"/>
    <path opacity="0.28" d="M245.286 54.6897C239.866 58.0149 238.594 60.845 238.476 62.8731C238.429 63.675 238.571 63.8872 238.735 65.7974C238.735 65.7974 238.594 69.2878 238.641 73.6507C238.712 79.8767 236.144 85.5131 233.01 92.3523C231.36 95.937 228.91 100.654 225.281 105.818C227.897 103.224 230.701 99.899 233.222 95.7719C241.28 82.4473 241.28 68.8633 240.809 62.3307C242.293 59.7601 243.778 57.2131 245.286 54.6897Z" fill="#666666"/>
    <path opacity="0.11" d="M226.365 52.1191C231.62 54.8076 233.104 55.2557 233.269 55.0199C233.41 54.7841 232.539 53.8643 231.737 53.3455C231.408 53.1332 230.96 52.921 230.065 52.5436C228.462 51.8597 228.038 51.8126 227.732 51.8126C227.119 51.789 226.648 51.9776 226.365 52.1191Z" fill="#666666"/>
    <path d="M156.29 200.789C156.102 201.968 157.185 203.359 159.306 206.166C160.437 207.651 161.474 208.783 162.157 209.514C161.097 211.425 159.235 215.528 160.154 220.433C160.437 222.014 160.932 224.631 162.346 224.961C164.796 225.551 168.448 218.877 169.886 215.717C171.511 212.156 172.218 208.925 172.572 206.637C170.121 203.336 167.647 200.034 165.197 196.732C160.319 197.157 156.596 198.713 156.29 200.789Z" fill="#161616" stroke="#161616" stroke-width="2" stroke-miterlimit="10"/>
    <path d="M185.131 150.391C186.686 162.112 184.282 166.734 181.573 168.715C179.122 170.508 176.695 169.918 170.899 171.592C165.833 173.078 161.945 175.201 159.377 176.851C159.707 179.21 160.39 182.228 161.757 185.507C163.924 190.695 166.94 194.35 169.085 196.544C168.66 197.44 166.893 200.883 162.77 202.628C159.424 204.067 156.408 203.548 155.301 203.312C151.531 199.822 145.734 193.336 143.119 183.785C142.058 179.894 140.762 174.87 142.671 169.258C143.873 165.744 145.734 163.763 149.481 159.801C150.706 158.504 156.055 152.962 165.527 147.915C171.064 144.967 173.868 143.481 177.19 144.165C181.408 145.085 184.023 148.622 185.131 150.391Z" fill="#EC615B"/>
    <path opacity="0.21" d="M179.617 149.683C175.8 151.995 170.498 155.367 164.372 159.777C153.769 167.418 148.915 171.498 147.171 175.743C145.475 179.87 146.677 187.417 161.992 202.392C162.817 202.227 164.113 201.826 165.409 200.93C167.506 199.491 168.472 197.558 168.825 196.685C167.105 194.916 165.055 192.416 163.217 189.115C160.602 184.398 159.565 179.988 159.118 176.993C163.924 173.621 168.142 172.229 171.205 171.592C175.776 170.625 179.476 171.003 182.303 168.078C183.74 166.593 184.306 164.895 184.824 163.338C186.285 158.975 185.743 155.108 185.296 153.103C183.411 151.995 181.502 150.839 179.617 149.683Z" fill="#666666"/>
    <path opacity="0.16" d="M178.203 153.009C177.709 155.178 176.907 157.607 175.706 160.154C171.512 168.927 164.608 173.786 160.767 176.05C163.854 173.998 166.587 172.913 168.519 172.3C169.179 172.088 169.862 171.899 177.096 170.012C180.395 169.14 181.337 168.904 182.327 167.961C182.916 167.395 183.882 166.239 184.636 162.041C185.013 159.895 185.39 156.758 185.131 152.867C182.798 152.914 180.489 152.962 178.203 153.009Z" fill="#666666"/>
    <path opacity="0.17" d="M159.141 176.333C158.505 179.328 157.751 185.082 159.73 191.803C160.979 196.048 162.935 199.256 164.443 201.355C165.15 200.954 166.139 200.27 167.105 199.185C167.93 198.242 168.449 197.322 168.778 196.614C167.058 194.846 164.985 192.346 163.171 189.02C160.437 184.021 159.495 179.351 159.141 176.333Z" fill="#666666"/>
    <path d="M172.713 199.609C174.268 201.803 175.847 203.972 177.402 206.165C176.554 208.406 174.409 215.033 177.567 220.268C178.109 221.164 179.075 222.768 180.418 222.792C183.269 222.839 185.366 215.764 185.79 214.396C186.497 212.061 187.227 208.453 186.803 203.807C185.743 196.992 180.795 193.313 177.402 194.067C174.292 194.751 172.878 199.138 172.713 199.609Z" fill="#161616" stroke="#161616" stroke-width="2" stroke-miterlimit="10"/>
    <path d="M201.86 149.613C203.863 162.253 199.786 166.64 198.302 167.937C196.912 169.14 195.569 169.611 188.052 172.111C185.248 173.054 181.125 174.422 176.082 176.073C176.412 178.431 177.096 181.45 178.462 184.728C180.63 189.917 183.646 193.572 185.79 195.765C185.366 196.661 183.599 200.105 179.475 201.85C176.13 203.288 173.114 202.769 172.006 202.534C168.236 199.043 162.44 192.558 159.824 183.007C158.764 179.115 157.468 174.092 159.377 168.479C160.578 164.965 162.44 162.984 166.186 159.022C167.411 157.725 172.76 152.183 182.232 147.136C187.769 144.188 190.573 142.703 193.896 143.387C198.16 144.283 200.752 147.844 201.86 149.613Z" fill="#EC615B"/>
    <path opacity="0.21" d="M186.356 149.094C185.602 151.428 184.117 155.202 181.29 159.187C174.268 169.045 166.351 169.635 164.089 175.153C162.393 179.28 163.595 186.827 178.91 201.802C179.829 201.425 181.007 200.859 182.232 199.939C184 198.619 185.107 197.133 185.767 196.095C184.023 194.279 181.997 191.78 180.159 188.525C177.449 183.69 176.318 179.186 175.8 176.073C181.149 174.257 185.461 172.913 188.335 172.017C194.084 170.272 197.03 169.517 199.315 166.616C200.729 164.8 201.318 162.89 201.695 161.64C202.873 157.796 202.543 154.447 202.213 152.513C196.935 151.405 191.657 150.249 186.356 149.094Z" fill="#666666"/>
    <path opacity="0.16" d="M195.121 152.396C194.626 154.589 193.849 157.018 192.623 159.541C187.77 169.47 179.122 174.328 175.069 176.238C179.169 174.941 182.869 173.762 186.097 172.724C186.097 172.724 187.77 172.182 191.869 170.72C197.1 168.833 197.996 168.361 198.891 167.465C200.47 165.862 200.894 164.069 201.53 161.451C202.001 159.447 202.52 156.287 202.025 152.278C199.739 152.325 197.43 152.372 195.121 152.396Z" fill="#666666"/>
    <path opacity="0.17" d="M176.059 175.743C175.423 178.738 174.669 184.492 176.648 191.214C177.897 195.459 179.852 198.666 181.36 200.765C182.067 200.364 183.057 199.68 184.023 198.595C184.848 197.652 185.366 196.732 185.696 196.025C183.976 194.256 181.902 191.756 180.088 188.431C177.355 183.431 176.412 178.762 176.059 175.743Z" fill="#666666"/>
    <path d="M185.178 99.6868C180.607 103.083 178.439 108.295 177.944 109.521C177.638 110.252 176.766 112.563 176.365 115.747C175.894 119.379 176.271 122.421 176.648 124.426C176.813 127.232 176.719 131.878 174.763 137.161C173.373 140.958 171.488 143.788 170.003 145.698C173.019 148.009 178.698 151.759 186.78 153.504C193.26 154.919 198.773 154.494 202.237 153.928C204.263 148.198 206.243 141.665 207.868 134.401C209.4 127.562 210.413 121.195 211.049 115.44C210.036 114.945 207.067 113.389 205.559 109.946C205.465 109.733 203.297 104.616 205.701 101.55C207.138 99.734 209.164 99.9462 209.164 99.3802C209.164 97.8709 194.791 92.5646 185.178 99.6868Z" fill="white" stroke="#161616" stroke-width="2" stroke-miterlimit="10"/>
    <path opacity="0.13" d="M191.469 97.2105C190.998 98.0595 190.833 100.324 190.833 101.597C190.833 102.941 190.974 104.073 191.139 104.875C191.139 106.974 193.401 117.351 191.822 127.209C190.008 138.529 183.905 147.254 180.937 151.051C183.316 152.16 186.874 153.48 191.375 154.07C195.852 154.636 199.598 154.259 202.19 153.811C203.886 148.952 205.489 143.599 206.902 137.774C208.835 129.803 210.036 122.374 210.767 115.747C209.541 114.945 205.677 112.21 204.735 107.469C204.475 106.101 204.004 103.79 205.394 101.715C206.643 99.8283 208.646 99.2387 209.353 99.0736C200.164 95.6304 192.741 94.8993 191.469 97.2105Z" fill="#666666"/>
    <path opacity="0.17" d="M204.782 109.049C205.088 113.176 205.017 118.27 203.886 123.954C200.941 138.882 192.553 148.858 188.029 153.48C189.914 153.976 192.435 154.447 195.427 154.447C198.114 154.471 200.399 154.117 202.166 153.716C205.442 144.99 208.34 134.826 209.965 123.364C210.342 120.723 210.649 118.152 210.861 115.629C209.824 115.016 208.41 114.002 207.044 112.445C205.983 111.219 205.253 110.016 204.782 109.049Z" fill="#666666"/>
    <path opacity="0.14" d="M188.712 100.606C189.89 102.823 192.152 104.215 194.579 104.262C198.396 104.356 201.483 101.078 201.035 99.9226C200.729 99.1207 198.396 98.6491 188.712 100.606Z" fill="#666666"/>
    <path d="M182.209 69.9246C181.455 69.8539 180.748 73.9102 179.122 80.1834C176.577 90.0648 175.046 92.6118 176.648 96.0078C176.931 96.5974 178.062 98.9557 180.536 99.899C183.128 100.89 186.874 100.229 188.689 98.0124C192.812 92.9655 184.659 82.4474 182.916 71.7405C182.821 71.2689 182.633 69.9718 182.209 69.9246Z" fill="#5222D0"/>
    <path d="M188.948 94.5928C189.16 95.4654 189.395 96.8096 189.183 98.4133C189.066 99.4038 188.806 100.229 188.571 100.89C189.584 101.173 191.139 101.479 193.001 101.385C195.192 101.267 196.912 100.63 197.925 100.158C197.572 99.3802 197.242 98.5312 196.935 97.5643C196.394 95.8899 196.111 94.3334 195.946 92.9891C195.616 93.3901 194.509 94.5692 192.624 94.9701C190.856 95.3475 189.443 94.8051 188.948 94.5928Z" fill="white" stroke="#161616" stroke-width="2" stroke-miterlimit="10"/>
    <path d="M182.421 72.6367C180.088 78.7684 180.253 87.0933 184.919 93.0363C185.649 93.9796 186.356 94.6635 186.827 95.088C190.079 95.3946 192.576 94.8758 194.084 94.4277C195.145 94.1211 196.229 93.7909 197.383 93.0127C199.951 91.2911 201.012 88.6969 201.412 87.4234C202.166 88.0366 202.755 88.1309 203.156 88.1074C205.277 87.9659 207.468 84.0274 206.172 81.3861C205.465 79.9475 203.957 79.3579 203.344 79.1693C202.873 77.3062 201.153 71.5519 195.734 68.3209C194.344 67.4955 190.173 65.0193 186.615 66.7173C184.259 67.8257 183.34 70.2312 182.421 72.6367Z" fill="white" stroke="#161616" stroke-width="2" stroke-miterlimit="10"/>
    <path d="M189.584 96.0078C189.513 96.0314 189.419 96.055 189.348 96.1021C188.971 96.2436 189.042 96.7625 189.443 96.7861C191.398 96.9747 193.825 95.6776 195.404 94.6164C195.781 94.357 195.427 93.7438 195.05 94.0032C193.566 94.9937 191.28 96.2436 189.443 96.0786C189.466 96.3144 189.513 96.5502 189.537 96.7625C189.608 96.7389 189.702 96.7153 189.772 96.6681C190.197 96.5266 190.008 95.8427 189.584 96.0078Z" fill="#161616"/>
    <path d="M189.654 96.3379C191.162 96.1257 192.647 95.7248 194.061 95.1588C194.485 94.9937 194.296 94.3098 193.872 94.4748C192.435 95.0408 190.974 95.4418 189.466 95.654C189.018 95.7248 189.207 96.4087 189.654 96.3379Z" fill="#161616"/>
    <path d="M189.749 95.9606C190.267 96.0077 190.809 95.9842 191.328 95.8427C191.775 95.7247 191.587 95.0408 191.139 95.1587C190.691 95.2767 190.22 95.3002 189.749 95.2531C189.301 95.2059 189.301 95.9134 189.749 95.9606Z" fill="#161616"/>
    <path d="M194.108 83.886C194.555 83.886 194.555 83.1785 194.108 83.1785C193.66 83.1785 193.66 83.886 194.108 83.886Z" fill="#161616"/>
    <path d="M196.299 83.5321C196.299 83.5086 196.299 83.485 196.299 83.485C196.299 83.2963 196.134 83.1312 195.946 83.1312C195.757 83.1312 195.592 83.2963 195.592 83.485C195.592 83.5086 195.592 83.5321 195.592 83.5321C195.592 83.7208 195.757 83.8859 195.946 83.8859C196.134 83.8623 196.299 83.7208 196.299 83.5321Z" fill="#161616"/>
    <path d="M195.192 85.2538C195.639 85.2538 195.639 84.5463 195.192 84.5463C194.744 84.5463 194.744 85.2538 195.192 85.2538Z" fill="#161616"/>
    <path d="M183.104 82.2822C183.552 82.2822 183.552 81.5747 183.104 81.5747C182.657 81.5747 182.657 82.2822 183.104 82.2822Z" fill="#161616"/>
    <path d="M184.777 81.7634C185.225 81.7634 185.225 81.0559 184.777 81.0559C184.33 81.0559 184.306 81.7634 184.777 81.7634Z" fill="#161616"/>
    <path d="M184.376 83.4143C184.824 83.4143 184.824 82.7068 184.376 82.7068C183.905 82.7068 183.905 83.4143 184.376 83.4143Z" fill="#161616"/>
    <path d="M181.219 77.0939C180.748 76.4572 179.593 74.712 179.641 72.3301C179.664 70.6793 180.23 69.4765 180.536 68.8398C181.596 66.6701 183.198 65.4909 184.518 64.5712C185.743 63.6986 188.029 62.0949 191.28 61.7883C195.592 61.3638 198.868 63.4863 201.13 64.9721C205.489 67.8257 207.468 71.5283 207.892 72.3301C208.622 73.7451 208.999 74.9714 209.588 76.8109C210.225 78.8391 210.225 79.4051 211.285 84.0746C212.322 88.6733 212.463 88.8384 212.369 89.8525C212.086 93.3193 209.848 95.654 209.494 96.0313C206.337 99.2387 202.237 99.0736 200.847 99.0264C198.962 98.9557 198.161 98.4368 197.854 98.2246C195.993 96.8803 195.875 94.3569 195.875 93.8381C196.606 93.4136 197.572 92.7533 198.467 91.7392C200.211 89.7818 200.753 87.6357 200.941 86.5744C202.755 87.1168 204.57 86.4093 205.324 85.0887C206.384 83.1548 204.9 80.3484 203.227 80.1126C202.967 80.0654 202.261 80.0418 201.342 80.8201C200.588 79.0749 199.245 76.5515 196.865 74.0517C193.943 70.9623 190.809 69.3822 188.924 68.5803C187.864 69.0284 186.285 69.8774 184.754 71.3632C182.492 73.4857 181.596 75.8676 181.219 77.0939Z" fill="#5222D0"/>
    <path opacity="0.14" d="M195.121 72.2122C196.087 73.7687 197.595 76.7402 197.525 80.6078C197.383 89.711 188.642 94.805 188.1 95.088C188.665 95.1823 194.179 96.0549 198.019 92.1401C200.046 90.0647 200.658 87.6592 200.847 86.5508C201.247 86.6923 202.143 86.9046 203.18 86.598C203.439 86.5272 204.947 86.0792 205.442 84.6642C205.677 84.0274 205.607 83.4378 205.559 83.1077C205.536 82.7067 205.442 81.7634 204.735 80.938C204.476 80.655 204.075 80.1833 203.415 80.0418C202.355 79.8296 201.53 80.6078 201.412 80.7022C200.87 79.4051 200.046 77.8014 198.821 76.1034C197.501 74.429 196.205 73.1319 195.121 72.2122Z" fill="#666666"/>
    <path opacity="0.18" d="M194.391 101.078C193.684 99.0736 192.977 97.0454 192.293 95.0408C193.448 94.6635 194.626 94.2626 195.781 93.8853C196.417 95.9606 197.03 98.0595 197.666 100.135C196.582 100.465 195.498 100.772 194.391 101.078Z" fill="#666666"/>
    <path opacity="0.21" d="M201.106 85.5132C200.517 86.8339 199.48 88.7677 197.619 90.6072C194.556 93.6494 191.068 94.6399 189.49 94.9937C190.173 95.0408 194.296 95.3238 197.36 92.7768C199.033 91.3854 199.904 89.6167 199.904 89.6167C200.352 88.6969 200.611 87.7536 200.729 87.3527C200.918 86.6216 201.035 85.9849 201.106 85.5132Z" fill="#666666"/>
    <path opacity="0.18" d="M195.946 100.795C195.262 98.7199 194.603 96.621 193.919 94.5456C194.508 94.357 195.098 94.1447 195.687 93.9561C196.323 96.0314 196.983 98.1067 197.619 100.182C197.077 100.371 196.511 100.583 195.946 100.795Z" fill="#666666"/>
    <path d="M188.948 77.1646C188.312 79.688 187.793 82.235 187.369 84.8056C187.299 85.2301 187.157 85.7254 187.605 85.9612C188.123 86.2442 189.372 85.8433 189.914 85.7254C190.362 85.631 190.173 84.9471 189.726 85.0415C189.349 85.1358 188.665 85.348 188.312 85.3009C187.841 85.2301 187.958 85.3245 188.1 84.782C188.288 83.9802 188.382 83.1076 188.547 82.3058C188.877 80.655 189.231 79.0041 189.631 77.3769C189.749 76.9288 189.066 76.7401 188.948 77.1646Z" fill="#161616"/>
    <path d="M183.033 79.5702C183.952 78.509 185.555 78.4854 186.497 79.4995C186.733 79.7589 187.11 79.3815 186.874 79.1221C185.743 77.8958 183.764 77.9194 182.656 79.1929C182.444 79.4523 182.821 79.8296 183.033 79.5702Z" fill="#161616"/>
    <path d="M192.718 79.8296C193.967 79.0278 195.639 79.3815 196.441 80.655C196.629 80.938 197.077 80.6786 196.888 80.3956C195.946 78.8863 193.943 78.4146 192.435 79.3815C192.152 79.5466 192.435 80.0183 192.718 79.8296Z" fill="#161616"/>
    <path d="M184.495 75.4902C185.343 75.0422 186.285 75.0657 187.11 75.5374C187.416 75.7025 187.676 75.2544 187.369 75.0893C186.38 74.5233 185.225 74.4997 184.212 75.0422C183.929 75.1837 184.188 75.6553 184.495 75.4902Z" fill="#161616"/>
    <path d="M193.001 75.6318C194.155 75.4431 195.263 75.7497 196.181 76.4336C196.464 76.6459 196.723 76.1742 196.441 75.9855C195.38 75.2073 194.132 74.9243 192.859 75.1129C192.529 75.1837 192.671 75.6789 193.001 75.6318Z" fill="#161616"/>
    <path d="M185.484 88.7205C188.076 89.5224 190.809 88.9328 192.859 87.164C193.118 86.9518 192.741 86.5745 192.482 86.7867C190.574 88.4375 188.029 88.9564 185.626 88.2017C185.296 88.0838 185.154 88.6026 185.484 88.7205Z" fill="#161616"/>
    <path d="M173.665 419.192C176.625 419.192 178.833 417.448 179.249 414.808H176.561C176.241 415.976 175.169 416.696 173.713 416.696C171.809 416.696 170.625 415.304 170.625 413.08C170.625 410.824 171.793 409.464 173.713 409.464C175.137 409.464 176.145 410.136 176.497 411.32H179.233C178.865 408.664 176.737 406.968 173.777 406.968C170.241 406.968 167.889 409.4 167.889 413.096C167.889 416.84 170.113 419.192 173.665 419.192ZM183.064 419V406.936H180.6V419H183.064ZM184.48 414.984C184.48 417.512 186.336 419.192 188.896 419.192C191.44 419.192 193.296 417.512 193.296 414.984C193.296 412.456 191.44 410.76 188.896 410.76C186.336 410.76 184.48 412.456 184.48 414.984ZM186.96 414.968C186.96 413.768 187.744 412.968 188.896 412.968C190.032 412.968 190.816 413.768 190.816 414.968C190.816 416.184 190.032 416.984 188.896 416.984C187.744 416.984 186.96 416.184 186.96 414.968ZM194.149 416.472C194.149 418.088 195.477 419.208 197.589 419.208C199.669 419.208 201.125 418.168 201.125 416.456C201.125 415.176 200.405 414.568 199.093 414.28L197.605 413.96C197.045 413.832 196.741 413.624 196.741 413.256C196.741 412.824 197.093 412.536 197.653 412.536C198.245 412.536 198.581 412.904 198.581 413.448H200.917C200.917 411.832 199.621 410.744 197.765 410.744C195.845 410.744 194.421 411.704 194.421 413.368C194.421 414.776 195.141 415.416 196.613 415.736L198.085 416.056C198.677 416.184 198.805 416.44 198.805 416.68C198.805 417.096 198.453 417.368 197.685 417.368C196.933 417.368 196.517 417.032 196.485 416.472H194.149ZM206.124 419.208C208.316 419.208 209.9 418.072 210.188 416.296H207.932C207.756 416.872 207.1 417.208 206.172 417.208C205.084 417.208 204.492 416.712 204.348 415.656L210.156 415.624V415C210.156 412.392 208.588 410.744 206.076 410.744C203.66 410.744 201.98 412.488 201.98 414.984C201.98 417.448 203.708 419.208 206.124 419.208ZM206.092 412.744C207.084 412.744 207.708 413.288 207.708 414.136H204.38C204.572 413.176 205.116 412.744 206.092 412.744Z" fill="url(#paint0_linear_1541_41066)"/>
    <path d="M151 395H227V393H151V395ZM234 402V424H236V402H234ZM227 431H151V433H227V431ZM144 424V402H142V424H144ZM151 431C147.134 431 144 427.866 144 424H142C142 428.971 146.029 433 151 433V431ZM234 424C234 427.866 230.866 431 227 431V433C231.971 433 236 428.971 236 424H234ZM227 395C230.866 395 234 398.134 234 402H236C236 397.029 231.971 393 227 393V395ZM151 393C146.029 393 142 397.029 142 402H144C144 398.134 147.134 395 151 395V393Z" fill="url(#paint1_linear_1541_41066)"/>
</svg>
