<svg width="46" height="46" viewBox="0 0 46 46" fill="none" xmlns="http://www.w3.org/2000/svg">
<path opacity="0.4" d="M30.8168 41.5097H14.4646C8.06966 41.5097 3.77361 37.0246 3.77361 30.3479V14.9373C3.77361 8.26066 8.06966 3.77362 14.4646 3.77362H30.8187C37.2137 3.77362 41.5097 8.26066 41.5097 14.9373V30.3479C41.5097 37.0246 37.2137 41.5097 30.8168 41.5097Z" fill="#9499AE"/>
<path fill-rule="evenodd" clip-rule="evenodd" d="M21.2171 16.3681C21.2171 18.953 19.1133 21.0568 16.5284 21.0568C13.9416 21.0568 11.8397 18.953 11.8397 16.3681C11.8397 13.7831 13.9416 11.6775 16.5284 11.6775C19.1133 11.6775 21.2171 13.7831 21.2171 16.3681ZM36.6048 26.5806C37.0444 27.007 37.3595 27.4938 37.567 28.0127C38.1954 29.5825 37.8689 31.4693 37.1972 33.024C36.401 34.875 34.8765 36.2731 32.9557 36.8844C32.1029 37.158 31.2085 37.275 30.3161 37.275H14.5027C12.9291 37.275 11.5367 36.909 10.3952 36.2222C9.68006 35.792 9.55364 34.8014 10.0838 34.1561C10.9706 33.0806 11.8461 32.0014 12.7291 30.9127C14.4122 28.8297 15.5461 28.2259 16.8065 28.7561C17.3178 28.9749 17.8311 29.3051 18.3594 29.6523C19.7669 30.5844 21.7235 31.8636 24.3009 30.4749C26.0627 29.5116 27.0853 27.8632 27.9755 26.4284L27.9934 26.3994C28.0533 26.3034 28.1127 26.2074 28.1719 26.1117C28.4746 25.6227 28.7727 25.141 29.1104 24.6976C29.5293 24.1485 31.084 22.4315 33.0934 23.6541C34.3746 24.424 35.4519 25.4655 36.6048 26.5806Z" fill="#9499AE"/>
</svg>
