<svg width="12" height="13" viewBox="0 0 12 13" fill="none" xmlns="http://www.w3.org/2000/svg">
<path d="M0 6.5C0 3.19531 2.67188 0.5 6 0.5C9.30469 0.5 12 3.19531 12 6.5C12 9.82812 9.30469 12.5 6 12.5C2.67188 12.5 0 9.82812 0 6.5ZM6 9.125C6.30469 9.125 6.5625 8.89062 6.5625 8.5625V7.0625H8.0625C8.36719 7.0625 8.625 6.82812 8.625 6.5C8.625 6.19531 8.36719 5.9375 8.0625 5.9375H6.5625V4.4375C6.5625 4.13281 6.30469 3.875 6 3.875C5.67188 3.875 5.4375 4.13281 5.4375 4.4375V5.9375H3.9375C3.60938 5.9375 3.375 6.19531 3.375 6.5C3.375 6.82812 3.60938 7.0625 3.9375 7.0625H5.4375V8.5625C5.4375 8.89062 5.67188 9.125 6 9.125Z" fill="url(#paint0_linear_1547_13477)"/>
<path d="M0 6.5C0 3.19531 2.67188 0.5 6 0.5C9.30469 0.5 12 3.19531 12 6.5C12 9.82812 9.30469 12.5 6 12.5C2.67188 12.5 0 9.82812 0 6.5ZM6 9.125C6.30469 9.125 6.5625 8.89062 6.5625 8.5625V7.0625H8.0625C8.36719 7.0625 8.625 6.82812 8.625 6.5C8.625 6.19531 8.36719 5.9375 8.0625 5.9375H6.5625V4.4375C6.5625 4.13281 6.30469 3.875 6 3.875C5.67188 3.875 5.4375 4.13281 5.4375 4.4375V5.9375H3.9375C3.60938 5.9375 3.375 6.19531 3.375 6.5C3.375 6.82812 3.60938 7.0625 3.9375 7.0625H5.4375V8.5625C5.4375 8.89062 5.67188 9.125 6 9.125Z" fill="url(#paint1_linear_1547_13477)" fill-opacity="0.2"/>
<defs>
<linearGradient id="paint0_linear_1547_13477" x1="1.46341" y1="-6" x2="23.9903" y2="2.99032" gradientUnits="userSpaceOnUse">
<stop stop-color="#59CDFF"/>
<stop offset="1" stop-color="#C071FF"/>
</linearGradient>
<linearGradient id="paint1_linear_1547_13477" x1="6" y1="-14.6512" x2="6.00016" y2="24.9767" gradientUnits="userSpaceOnUse">
<stop stop-color="#FA00FF"/>
<stop offset="1" stop-color="#FF2DEA" stop-opacity="0"/>
<stop offset="1" stop-color="#FF2DEA" stop-opacity="0"/>
</linearGradient>
</defs>
</svg>
