<svg width="16" height="16" viewBox="0 0 16 16" fill="none" xmlns="http://www.w3.org/2000/svg">
<path d="M6.28125 9.5625C6.71875 9.5625 7.0625 9.21875 7.0625 8.78125C7.0625 8.375 6.71875 8 6.28125 8C5.84375 8 5.5 8.375 5.5 8.78125C5.5 9.21875 5.84375 9.5625 6.28125 9.5625ZM15.75 8C15.75 3.71875 12.2812 0.25 8 0.25C3.71875 0.25 0.25 3.71875 0.25 8C0.25 12.2812 3.71875 15.75 8 15.75C12.2812 15.75 15.75 12.2812 15.75 8ZM11.5938 6.71875C12.6875 6.71875 13.0312 8.1875 12.0625 8.6875C12.0938 8.84375 12.125 9 12.125 9.1875C12.125 10.8125 10.2812 12.1562 8 12.1562C5.71875 12.1562 3.875 10.8125 3.875 9.1875C3.875 9 3.875 8.84375 3.90625 8.6875C2.9375 8.1875 3.28125 6.71875 4.375 6.71875C4.65625 6.71875 4.9375 6.84375 5.125 7.03125C5.8125 6.5625 6.75 6.25 7.78125 6.21875L8.40625 3.5C8.40625 3.40625 8.5 3.34375 8.59375 3.375L10.5312 3.78125C10.6562 3.53125 10.9062 3.375 11.2188 3.375C11.6562 3.375 12 3.71875 12 4.15625C12 4.5625 11.6562 4.90625 11.2188 4.90625C10.7812 4.90625 10.4375 4.5625 10.4375 4.15625L8.71875 3.75L8.15625 6.21875C9.21875 6.25 10.1562 6.5625 10.8438 7.03125C11.0625 6.84375 11.3125 6.71875 11.5938 6.71875ZM9.4375 10.3438C8.875 10.9375 7.0625 10.9062 6.53125 10.3438C6.46875 10.2812 6.34375 10.2812 6.25 10.3438C6.1875 10.4375 6.1875 10.5625 6.25 10.625C6.96875 11.3438 9 11.3438 9.71875 10.625C9.78125 10.5625 9.78125 10.4375 9.71875 10.3438C9.625 10.2812 9.53125 10.2812 9.4375 10.3438ZM9.6875 8C9.25 8 8.90625 8.375 8.90625 8.78125C8.90625 9.21875 9.28125 9.5625 9.6875 9.5625C10.125 9.5625 10.4688 9.21875 10.4688 8.78125C10.4688 8.375 10.125 8 9.6875 8Z" fill="#9A5AFF"/>
</svg>
