<svg width="14" height="19" viewBox="0 0 14 19" fill="none" xmlns="http://www.w3.org/2000/svg">
<path d="M1.80469 8.25H12.1562C13.0938 8.25 13.6016 7.11719 12.8984 6.41406L7.74219 1.10156C7.54688 0.867188 7.27344 0.75 7 0.75C6.72656 0.75 6.41406 0.867188 6.21875 1.10156L1.0625 6.41406C0.359375 7.11719 0.867188 8.25 1.80469 8.25ZM12.1562 10.75H1.80469C0.867188 10.75 0.359375 11.9219 1.0625 12.625L6.21875 17.9375C6.41406 18.1719 6.6875 18.25 7 18.25C7.27344 18.25 7.54688 18.1719 7.74219 17.9375L12.8984 12.625C13.6016 11.9219 13.0938 10.75 12.1562 10.75Z" fill="black"/>
</svg>
