<svg id="ico_failure" xmlns="http://www.w3.org/2000/svg" width="80.001" height="71.932" viewBox="0 0 80.001 71.932">
  <path id="合体_73" data-name="合体 73" d="M6.664,19.923a3.93,3.93,0,1,1,1.1-2l7.212,3.948-1.094,2Zm25.257-4.906,2.454-7.846a3.914,3.914,0,1,1,2.18.676L34.1,15.7Z" transform="translate(9.141 10.759)" fill="#0ab4af" stroke="rgba(0,0,0,0)" stroke-width="1"/>
  <path id="パス_40083" data-name="パス 40083" d="M19.249,38.5A19.249,19.249,0,1,1,38.5,19.249,19.27,19.27,0,0,1,19.249,38.5" transform="translate(12.252 31.473) rotate(-22)" fill="#fff"/>
  <path id="パス_554" data-name="パス 554" d="M20.042,2.144A17.668,17.668,0,0,1,37.731,20.082,18.248,18.248,0,0,1,19.8,38.259,17.668,17.668,0,0,1,2.113,20.322,18.248,18.248,0,0,1,20.042,2.144m.015-2.279A20.528,20.528,0,0,0-.135,20.337a19.877,19.877,0,0,0,19.922,20.2A20.529,20.529,0,0,0,39.979,20.067,19.875,19.875,0,0,0,20.057-.135" transform="translate(11.18 30.844) rotate(-22)" fill="#0ab4af"/>
  <path id="パス_555" data-name="パス 555" d="M21.395,0A7.492,7.492,0,0,0,14.1,6.813c-.594,4.146-5.033,4.749-6.345,4.838-.062-.1-.107-.2-.174-.29A5.377,5.377,0,0,0,4.025,9.224a5.374,5.374,0,0,0-4.025,1l1.358,1.838A3.136,3.136,0,1,1,5.09,17.107l1.358,1.838a5.269,5.269,0,0,0,2.128-5.069c2.9-.357,7.115-2.039,7.789-6.735A5.178,5.178,0,0,1,21.4,2.286Z" transform="translate(0 53.313) rotate(-22)" fill="#0ab4af"/>
  <path id="パス_556" data-name="パス 556" d="M17.377,9.224a5.384,5.384,0,0,0-3.556,2.137c-.069.091-.112.194-.174.29-1.314-.089-5.75-.693-6.347-4.838A7.493,7.493,0,0,0,.007,0L0,2.286A5.179,5.179,0,0,1,5.037,7.14c.677,4.7,4.889,6.381,7.789,6.735a5.27,5.27,0,0,0,2.126,5.069l1.36-1.838a3.137,3.137,0,0,1,3.732-5.042l1.36-1.838a5.4,5.4,0,0,0-4.027-1" transform="translate(53.058 31.886) rotate(-22)" fill="#0ab4af"/>
  <path id="パス_557" data-name="パス 557" d="M11.272,5.494A19.707,19.707,0,0,1,0,1.876L1.305,0A16.95,16.95,0,0,0,21.212.046l1.364,1.835a19.877,19.877,0,0,1-11.3,3.613" transform="translate(34.637 64.286) rotate(-22)" fill="#0ab4af"/>
  <path id="パス_558" data-name="パス 558" d="M5.958,3.792A10.408,10.408,0,0,1,0,1.879L1.3,0a7.921,7.921,0,0,0,9.3.023l1.337,1.854A10.53,10.53,0,0,1,5.958,3.792" transform="translate(42.032 68.416) rotate(-22)" fill="#0ab4af"/>
  <g id="グループ_2199" data-name="グループ 2199" transform="translate(8.508)">
    <path id="パス_39898" data-name="パス 39898" d="M10829.346,17403.887a2.219,2.219,0,0,1-.837-.162c-1.167-.477-1.822-1.859-2.19-3.3-.268.076-.481.139-.674.189-.162.049-.31.088-.456.131a11.674,11.674,0,0,1-3.042.547c-.042,0-.083,0-.123,0-1.2-.031-1.612-.574-1.743-1.021-.415-1.426,1.806-3.385,3.384-4.566a9.821,9.821,0,0,1-2.133-.336c-.728-.2-2.945-.828-2.953-2.4a2.648,2.648,0,0,1,1.142-1.937,5.425,5.425,0,0,1-.643-.258,4.446,4.446,0,0,1-1.4-.963,1.6,1.6,0,0,1-.461-1.3c.144-1.066,1.453-1.955,4.119-2.791a33.92,33.92,0,0,1,3.54-.887.709.709,0,0,1,.128-.012.683.683,0,0,1,.123,1.354,32.364,32.364,0,0,0-3.395.852c-3.034.947-3.161,1.66-3.162,1.666-.012.078.169.408,1.1.854a4.871,4.871,0,0,0,1.6.434q.76-.442,1.746-.895c1.182-.551,2.624-1.127,4.188-1.678a10.8,10.8,0,0,1,3.386-5.33,4.021,4.021,0,0,1,1.218-.678,1.4,1.4,0,0,1,1.222.125c.852.561.943,1.99.3,4.641-.009.037-.018.07-.026.109a.283.283,0,0,1,.044.063.882.882,0,0,1-.185,1.121,3.155,3.155,0,0,1-.256.248c-.364,1.2-.83,2.516-1.35,3.807.436-.158.87-.3,1.3-.424.053-.018.105-.033.158-.049a7.523,7.523,0,0,1,2.748-2.895,1.528,1.528,0,0,1,2.164.422c.842,1.33.1,4.311-.869,6.656-.159.381-.325.756-.5,1.127a.961.961,0,0,1-.367.73,18.8,18.8,0,0,1-4.764,5.98A3.376,3.376,0,0,1,10829.346,17403.887Zm-1.715-3.844c.326,1.311.819,2.186,1.393,2.416.4.168.929,0,1.555-.486a15.986,15.986,0,0,0,3.41-3.863l-.29.1c-.722.25-1.6.523-2.6.824-.144.469-.263.887-.353,1.227a.682.682,0,0,1-1.32-.346c.007-.025.047-.172.117-.42C10828.932,17399.67,10828.292,17399.852,10827.631,17400.043Zm-6.037-.2c.149.064.855.258,3.219-.416.148-.041.295-.086.46-.131l.779-.223c-.015-.1-.028-.2-.039-.291a19.967,19.967,0,0,1-.16-2.031,1.9,1.9,0,0,1-.01-.406c0-.166,0-.334,0-.5-.313.2-.618.41-.918.621C10822.458,17398.223,10821.629,17399.475,10821.594,17399.846Zm5.732-1.541c.014.1.025.2.038.3,0,.031.009.059.012.092.937-.268,1.823-.523,2.641-.77.18-.551.395-1.184.646-1.863-.437-.033-.856-.059-1.245-.07C10828.306,17397.916,10827.665,17398.236,10827.326,17398.3Zm4.74-2.1c-.161.422-.313.844-.453,1.246q.6-.185,1.123-.357c.78-.254,1.322-.453,1.7-.609-.108-.018-.227-.031-.358-.047-.235-.029-.472-.055-.706-.084C10832.928,17396.3,10832.49,17396.248,10832.066,17396.2Zm-4.854.422a.811.811,0,0,0,.031.133,5.364,5.364,0,0,0,.489-.639.851.851,0,0,0-.5.248.174.174,0,0,0-.03.072C10827.209,17396.5,10827.21,17396.566,10827.213,17396.625Zm5.379-1.736.938.111c.233.025.47.055.7.08a8.39,8.39,0,0,1,1.285.225,13.41,13.41,0,0,0,1.4-5.271c-.019-.652-.183-.793-.186-.793a.044.044,0,0,0-.02,0,.877.877,0,0,0-.349.111,4.407,4.407,0,0,0-1.357,1.184c1.018-.164,1.391-.016,1.622.307a.832.832,0,0,1-.029.986,9.628,9.628,0,0,1-3.553,2.027C10832.892,17394.2,10832.74,17394.543,10832.592,17394.889Zm-1.951-.193.535.047c.034-.082.068-.164.1-.246-.183.061-.364.119-.544.172A.776.776,0,0,1,10830.641,17394.7Zm-9.05-3.338c-1.591.979-1.648,1.521-1.648,1.592,0,.205.415.664,1.957,1.1a10.8,10.8,0,0,0,3.828.252c.057-.035.114-.068.172-.105a28.6,28.6,0,0,1,.438-3.473A14.6,14.6,0,0,1,10821.591,17391.357Zm6.234-1.109a26.563,26.563,0,0,0-.492,3.125c.8-.428,1.622-.826,2.447-1.184.481-1.1.93-2.248,1.313-3.352A25.437,25.437,0,0,1,10827.825,17390.248Zm4.235,2.512q-.472.17-.945.354c.326-.107.638-.221.936-.33A.119.119,0,0,1,10832.061,17392.76Zm-5.344-3.744c-.529.2-1.039.391-1.523.59.477-.111.97-.25,1.479-.41C10826.687,17389.135,10826.7,17389.076,10826.717,17389.016Zm1.575-.557c-.018.061-.036.117-.055.178.558-.217,1.072-.443,1.533-.66C10829.271,17388.133,10828.776,17388.291,10828.292,17388.459Zm3.988-5.789a2.164,2.164,0,0,0-.87.475,8.827,8.827,0,0,0-2.536,3.684c.637-.2,1.285-.4,1.936-.594a10.606,10.606,0,0,1,1.156-.277c.048-.182.09-.363.129-.537C10832.539,17383.418,10832.348,17382.807,10832.28,17382.67Z" transform="translate(-10817.204 -17381.301)" fill="#0ab4af"/>
  </g>
</svg>
