<svg id="ico_fileupload" xmlns="http://www.w3.org/2000/svg" width="54" height="54" viewBox="0 0 54 54">
  <rect id="長方形_644" data-name="長方形 644" width="54" height="54" fill="none"/>
  <path id="合体_21" data-name="合体 21" d="M4.669,40.33A4.538,4.538,0,0,1,.006,35.558Q0,23,0,10.444A1.425,1.425,0,0,1,.43,9.362Q4.821,4.9,9.192.424A1.319,1.319,0,0,1,10.215,0q4.472.009,8.945.006h4.6a4.522,4.522,0,0,1,4.709,4.8q.012,7.685,0,15.371,0,7.643,0,15.287a4.484,4.484,0,0,1-2.6,4.4,4.985,4.985,0,0,1-2.064.453q-5.343.028-10.687.025Q8.9,40.338,4.669,40.33Zm19.306-1.84a2.724,2.724,0,0,0,2.693-2.76q0-15.476,0-30.952a2.729,2.729,0,0,0-2.887-2.943q-6.237-.009-12.473,0c-.131,0-.263.018-.424.029,0,.187,0,.339,0,.49,0,1.456.02,2.912-.012,4.368a4.437,4.437,0,0,1-3.8,4.294,23.459,23.459,0,0,1-2.547.082c-.357,0-.713,0-1.069,0-.532.008-1.063,0-1.641,0v.363q0,12.074,0,24.148a2.718,2.718,0,0,0,2.859,2.881q7.966,0,15.931,0C21.724,38.493,22.849,38.506,23.974,38.49ZM3.223,9.262c1,0,2.039,0,3.076,0a3.068,3.068,0,0,0,.451-.023A2.64,2.64,0,0,0,9.048,6.9c.071-1.209.016-2.426.016-3.6Zm10.2,21.866a2.59,2.59,0,0,1-.056-.623q0-6.236,0-12.472v-.546l-1.8,1.532c-.779.664-1.554,1.333-2.336,1.993A.906.906,0,0,1,7.848,21,.959.959,0,0,1,8.084,19.6q2.71-2.323,5.423-4.642a.937.937,0,0,1,1.486,0q2.7,2.3,5.387,4.619a1.6,1.6,0,0,1,.439.587.847.847,0,0,1-.325,1,.865.865,0,0,1-1.072-.068c-.734-.61-1.454-1.236-2.18-1.856l-2.077-1.772v.552q0,6.257,0,12.514a3.73,3.73,0,0,1-.011.461.9.9,0,0,1-.8.78c-.03,0-.059,0-.089,0A.851.851,0,0,1,13.423,31.129Z" transform="translate(13.446 6.723)" fill="#b9ccd5"/>
</svg>
