<svg id="ico_voteowners" xmlns="http://www.w3.org/2000/svg" width="44" height="44" viewBox="0 0 44 44">
  <g id="グループ_1249" data-name="グループ 1249" transform="translate(-542 -649)">
    <rect id="長方形_507" data-name="長方形 507" width="44" height="44" transform="translate(542 649)" fill="none"/>
  </g>
  <g id="グループ_1257" data-name="グループ 1257" transform="translate(-545 -928)">
    <g id="グループ_1250" data-name="グループ 1250" transform="translate(-10 412)">
      <circle id="楕円形_101" data-name="楕円形 101" cx="7" cy="7" r="7" transform="translate(562 522)" fill="#8b9199"/>
      <path id="長方形_506" data-name="長方形 506" d="M11,0h0A11,11,0,0,1,22,11v5a0,0,0,0,1,0,0H0a0,0,0,0,1,0,0V11A11,11,0,0,1,11,0Z" transform="translate(558 538)" fill="#8b9199"/>
    </g>
    <g id="グループ_1256" data-name="グループ 1256" transform="translate(73.036 271.974)">
      <g id="グループ_1265" data-name="グループ 1265" transform="matrix(0.883, 0.469, -0.469, 0.883, 502.896, 674.169)">
        <path id="合体_4" data-name="合体 4" d="M1.361,8.143A4.684,4.684,0,0,1,.091,4.958,5.217,5.217,0,0,1,5.533,0a5.217,5.217,0,0,1,5.442,4.958A5.217,5.217,0,0,1,5.533,9.917a5.821,5.821,0,0,1-2.794-.7L0,10.346Z" transform="translate(0.242 0.242)" fill="#fff"/>
        <path id="合体_4_-_アウトライン" data-name="合体 4 - アウトライン" d="M-1436.134,10.83a.242.242,0,0,1-.184-.085.242.242,0,0,1-.021-.284l1.266-2.05a5.079,5.079,0,0,1-.856-1.4,4.8,4.8,0,0,1-.356-1.815,4.792,4.792,0,0,1,.45-2.032,5.183,5.183,0,0,1,1.223-1.653,5.72,5.72,0,0,1,1.806-1.11A6.108,6.108,0,0,1-1430.6,0a6.108,6.108,0,0,1,2.205.406,5.721,5.721,0,0,1,1.806,1.11,5.186,5.186,0,0,1,1.223,1.653,4.792,4.792,0,0,1,.45,2.032,4.792,4.792,0,0,1-.45,2.032,5.186,5.186,0,0,1-1.223,1.653,5.721,5.721,0,0,1-1.806,1.11,6.108,6.108,0,0,1-2.205.406,6.1,6.1,0,0,1-2.807-.677l-2.633,1.088A.241.241,0,0,1-1436.134,10.83ZM-1430.6.484a5.627,5.627,0,0,0-2.031.373,5.241,5.241,0,0,0-1.654,1.016,4.7,4.7,0,0,0-1.11,1.5A4.311,4.311,0,0,0-1435.8,5.2a4.312,4.312,0,0,0,.32,1.632,4.619,4.619,0,0,0,.886,1.388.242.242,0,0,1,.028.291l-.968,1.567,2.048-.846a.242.242,0,0,1,.208.011,5.6,5.6,0,0,0,2.678.673,5.625,5.625,0,0,0,2.031-.373,5.239,5.239,0,0,0,1.654-1.016,4.7,4.7,0,0,0,1.11-1.5A4.311,4.311,0,0,0-1425.4,5.2a4.311,4.311,0,0,0-.405-1.828,4.7,4.7,0,0,0-1.11-1.5A5.239,5.239,0,0,0-1428.57.857,5.625,5.625,0,0,0-1430.6.484Z" transform="translate(1436.376 0)" fill="#d5bd0c"/>
        <text id="NO" transform="translate(5.623 6.609)" fill="#d5bd0c" font-size="4" font-family="Montserrat-SemiBold, Montserrat" font-weight="600"><tspan x="-3" y="0">NO</tspan></text>
      </g>
      <g id="グループ_1266" data-name="グループ 1266" transform="translate(495.812 667.225)">
        <path id="合体_4-2" data-name="合体 4" d="M1.361,8.143A4.684,4.684,0,0,1,.091,4.958,5.217,5.217,0,0,1,5.533,0a5.217,5.217,0,0,1,5.442,4.958A5.217,5.217,0,0,1,5.533,9.917a5.821,5.821,0,0,1-2.794-.7L0,10.346Z" transform="translate(0.242 0.242)" fill="#fff"/>
        <path id="合体_4_-_アウトライン-2" data-name="合体 4 - アウトライン" d="M-1436.134,10.83a.242.242,0,0,1-.184-.085.242.242,0,0,1-.021-.284l1.266-2.05a5.079,5.079,0,0,1-.856-1.4,4.8,4.8,0,0,1-.356-1.815,4.792,4.792,0,0,1,.45-2.032,5.183,5.183,0,0,1,1.223-1.653,5.72,5.72,0,0,1,1.806-1.11A6.108,6.108,0,0,1-1430.6,0a6.108,6.108,0,0,1,2.205.406,5.721,5.721,0,0,1,1.806,1.11,5.186,5.186,0,0,1,1.223,1.653,4.792,4.792,0,0,1,.45,2.032,4.792,4.792,0,0,1-.45,2.032,5.186,5.186,0,0,1-1.223,1.653,5.721,5.721,0,0,1-1.806,1.11,6.108,6.108,0,0,1-2.205.406,6.1,6.1,0,0,1-2.807-.677l-2.633,1.088A.241.241,0,0,1-1436.134,10.83ZM-1430.6.484a5.627,5.627,0,0,0-2.031.373,5.241,5.241,0,0,0-1.654,1.016,4.7,4.7,0,0,0-1.11,1.5A4.311,4.311,0,0,0-1435.8,5.2a4.312,4.312,0,0,0,.32,1.632,4.619,4.619,0,0,0,.886,1.388.242.242,0,0,1,.028.291l-.968,1.567,2.048-.846a.242.242,0,0,1,.208.011,5.6,5.6,0,0,0,2.678.673,5.625,5.625,0,0,0,2.031-.373,5.239,5.239,0,0,0,1.654-1.016,4.7,4.7,0,0,0,1.11-1.5A4.311,4.311,0,0,0-1425.4,5.2a4.311,4.311,0,0,0-.405-1.828,4.7,4.7,0,0,0-1.11-1.5A5.239,5.239,0,0,0-1428.57.857,5.625,5.625,0,0,0-1430.6.484Z" transform="translate(1436.376 0)" fill="#0baad9"/>
        <text id="YES" transform="translate(5.623 6.609)" fill="#0baad9" font-size="4" font-family="Montserrat-SemiBold, Montserrat" font-weight="600"><tspan x="-3" y="0">YES</tspan></text>
      </g>
    </g>
  </g>
</svg>
