<?xml version="1.0" standalone="no"?>
<!DOCTYPE svg PUBLIC "-//W3C//DTD SVG 20010904//EN"
 "http://www.w3.org/TR/2001/REC-SVG-20010904/DTD/svg10.dtd">
<svg version="1.0" xmlns="http://www.w3.org/2000/svg"
 width="700.000000pt" height="700.000000pt" viewBox="0 0 700.000000 700.000000"
 preserveAspectRatio="xMidYMid meet">
<metadata>
Created by potrace 1.14, written by Peter Selinger 2001-2017
</metadata>
<g transform="translate(0.000000,700.000000) scale(0.100000,-0.100000)"
fill="#000000" stroke="none">
<path d="M3269 6966 c-2 -2 -42 -7 -89 -10 -47 -4 -125 -13 -175 -21 -49 -7
-107 -16 -127 -19 -152 -23 -450 -107 -639 -181 -532 -207 -1001 -541 -1374
-975 -343 -400 -579 -848 -716 -1358 -30 -112 -34 -129 -45 -187 -3 -16 -11
-61 -19 -100 -8 -38 -17 -95 -21 -125 -4 -30 -8 -66 -10 -80 -26 -194 -26
-601 1 -810 3 -19 7 -57 10 -83 14 -124 65 -349 117 -522 64 -214 189 -502
304 -705 88 -155 249 -385 369 -526 74 -86 310 -323 385 -385 36 -30 67 -57
70 -60 3 -3 50 -39 105 -80 439 -330 955 -553 1490 -644 17 -3 40 -7 53 -9 32
-7 199 -25 291 -32 159 -13 505 -7 612 11 13 2 49 6 79 9 60 7 88 11 165 26
28 5 66 12 85 15 57 10 289 71 385 103 226 74 496 198 710 327 101 61 306 203
352 243 10 9 43 37 73 62 77 62 140 120 248 230 469 471 793 1079 926 1735 24
118 27 138 46 284 13 95 24 300 24 421 -1 107 -12 333 -18 352 -3 7 -7 40 -10
73 -9 92 -15 129 -47 280 -95 449 -282 883 -545 1261 -163 235 -449 542 -669
717 -407 326 -869 553 -1365 673 -113 27 -235 47 -470 79 -48 7 -555 16 -561
11z"/>
</g>
</svg>
