<svg width="32" height="32" viewBox="0 0 32 32" fill="none" xmlns="http://www.w3.org/2000/svg">
<rect width="32" height="32" rx="4" fill="#E8F5FB"/>
<g clip-path="url(#clip0_3821_26079)">
<path d="M23.3125 9.28125C24 9.96875 24 11.0625 23.3125 11.75L22.375 12.6875L19.3125 9.625L20.25 8.6875C20.9375 8 22.0312 8 22.7188 8.6875L23.3125 9.28125ZM13.375 15.5625L18.5938 10.3438L21.6562 13.4062L16.4375 18.625C16.25 18.8125 16 18.9688 15.75 19.0625L12.9688 19.9688C12.6875 20.0625 12.4062 20 12.2188 19.7812C12 19.5938 11.9375 19.2812 12.0312 19.0312L12.9375 16.25C13.0312 16 13.1875 15.75 13.375 15.5625ZM14 10C14.5312 10 15 10.4688 15 11C15 11.5625 14.5312 12 14 12H11C10.4375 12 10 12.4688 10 13V21C10 21.5625 10.4375 22 11 22H19C19.5312 22 20 21.5625 20 21V18C20 17.4688 20.4375 17 21 17C21.5312 17 22 17.4688 22 18V21C22 22.6562 20.6562 24 19 24H11C9.3125 24 8 22.6562 8 21V13C8 11.3438 9.3125 10 11 10H14Z" fill="#199BD8"/>
</g>
<defs>
<clipPath id="clip0_3821_26079">
<rect width="16" height="16" fill="white" transform="translate(8 8)"/>
</clipPath>
</defs>
</svg>
