<svg width="20" height="18" viewBox="0 0 20 18" fill="none" xmlns="http://www.w3.org/2000/svg">
<path d="M20 6.07503C20 7.71985 19.2857 9.15907 18.1633 10.2899L10.5102 17.7944C10.3061 17.8972 10.2041 18 10 18C9.79592 18 9.59184 17.8972 9.4898 17.7944L1.83673 10.1871C0.714286 9.05627 0 7.51425 0 5.86943C0 4.3274 0.714286 2.88818 1.83673 1.75737C3.06122 0.626549 4.59184 -0.093061 6.22449 0.00974046C7.55102 0.00974046 8.77551 0.523748 9.79592 1.34616C12.2449 -0.607069 15.7143 -0.401466 17.9592 1.86017C19.2857 2.88818 20 4.4302 20 6.07503Z" fill="#9A5AFF"/>
</svg>
