<svg id="ico_like" xmlns="http://www.w3.org/2000/svg" width="44" height="44" viewBox="0 0 44 44">
  <rect id="長方形_499" data-name="長方形 499" width="44" height="44" fill="none"/>
  <path id="パス_39894" data-name="パス 39894" d="M23.361,2.137A4.522,4.522,0,0,1,22.91,5.3a4.851,4.851,0,0,1-.125,1.755,4.685,4.685,0,0,1-.727,1.6,4.467,4.467,0,0,1-1.4,3.409,6.039,6.039,0,0,1-4.261,1.354h-1.1a15.486,15.486,0,0,1-3.86-.451,20.279,20.279,0,0,1-2.507-.852q-.9-.351-1.3-.5a4.257,4.257,0,0,0-1.253-.2,1.732,1.732,0,0,1-.576.852,1.494,1.494,0,0,1-.978.351H1.6a1.542,1.542,0,0,1-1.128-.476A1.542,1.542,0,0,1,0,11.01V-1.021A1.542,1.542,0,0,1,.476-2.149,1.542,1.542,0,0,1,1.6-2.625H6.567a17.593,17.593,0,0,0,1.7-2.03,24.16,24.16,0,0,1,1.755-2.131,3.934,3.934,0,0,0,.451-1.454,11.3,11.3,0,0,1,.9-2.607,2.452,2.452,0,0,1,2.206-1.4A4.744,4.744,0,0,1,17.094-11a5.569,5.569,0,0,1,1.3,4.01,6.288,6.288,0,0,1-.451,2.306h1.8a4.081,4.081,0,0,1,3.058,1.3A4.212,4.212,0,0,1,24.063-.369,4.906,4.906,0,0,1,23.361,2.137ZM20.3,4.844a2.472,2.472,0,0,0,.777-1.729,2.159,2.159,0,0,0-.526-1.579q.351,0,.727-.6a2.414,2.414,0,0,0,.376-1.3,1.9,1.9,0,0,0-.551-1.3,1.765,1.765,0,0,0-1.354-.6H14.538a3.486,3.486,0,0,1,.251-1.253A6.889,6.889,0,0,1,15.24-4.58q.351-.7.5-1.1a3.608,3.608,0,0,0,.251-1.3,4.5,4.5,0,0,0-.3-1.9,2.222,2.222,0,0,0-2.105-.952,2.868,2.868,0,0,0-.451.852,10.058,10.058,0,0,0-.251,1.053q-.2,1-.351,1.5a3.742,3.742,0,0,1-.852,1.354,20.669,20.669,0,0,0-1.454,1.8A19.9,19.9,0,0,1,8.572-1.221a2.572,2.572,0,0,1-1.6,1H6.417V9.105a7.684,7.684,0,0,1,1.855.251,18.453,18.453,0,0,1,1.8.6q1.5.5,2.306.7a10.56,10.56,0,0,0,2.657.351h1.855a2.815,2.815,0,0,0,2.156-.752A2.889,2.889,0,0,0,19.6,7.7a1.962,1.962,0,0,0,.852-1.228A2.108,2.108,0,0,0,20.3,4.844ZM4.411,9.406a1.2,1.2,0,0,0-1.2-1.2,1.2,1.2,0,1,0,0,2.406,1.2,1.2,0,0,0,1.2-1.2Z" transform="translate(9.167 21.417)" fill="#fff"/>
</svg>
