<svg id="button_view2" xmlns="http://www.w3.org/2000/svg" width="44" height="44" viewBox="0 0 44 44">
    <path id="パス_39895" data-name="パス 39895" d="M42.357,1.629a3.263,3.263,0,0,1,.521,1.787A3.263,3.263,0,0,1,42.357,5.2a23.827,23.827,0,0,1-8.71,8.635,23.694,23.694,0,0,1-12.208,3.275A23.694,23.694,0,0,1,9.231,13.838,23.827,23.827,0,0,1,.521,5.2,3.263,3.263,0,0,1,0,3.416,3.263,3.263,0,0,1,.521,1.629a23.827,23.827,0,0,1,8.71-8.635,23.7,23.7,0,0,1,12.208-3.275A23.7,23.7,0,0,1,33.648-7.006,23.827,23.827,0,0,1,42.357,1.629ZM21.439,13.54A9.7,9.7,0,0,0,26.5,12.163a10.483,10.483,0,0,0,3.685-3.685,9.7,9.7,0,0,0,1.377-5.062,9.7,9.7,0,0,0-1.377-5.062A10.483,10.483,0,0,0,26.5-5.331a9.992,9.992,0,0,0-10.124,0,10.483,10.483,0,0,0-3.685,3.685,9.7,9.7,0,0,0-1.377,5.062,9.7,9.7,0,0,0,1.377,5.062,10.483,10.483,0,0,0,3.685,3.685A9.7,9.7,0,0,0,21.439,13.54ZM29.181,3.416a7.457,7.457,0,0,1-2.27,5.471,7.457,7.457,0,0,1-5.471,2.27,7.457,7.457,0,0,1-5.471-2.27A7.457,7.457,0,0,1,13.7,3.416a7.773,7.773,0,0,1,.893-3.648,3.089,3.089,0,0,0,.931,2.27,3.089,3.089,0,0,0,2.27.931,3.089,3.089,0,0,0,2.27-.931,3.089,3.089,0,0,0,.931-2.27,3.089,3.089,0,0,0-.931-2.27,3.089,3.089,0,0,0-2.27-.931,7.773,7.773,0,0,1,3.648-.893,7.457,7.457,0,0,1,5.471,2.27A7.457,7.457,0,0,1,29.181,3.416Z" transform="translate(2.167 18.417)" fill="#fff"/>
    <rect id="長方形_496" data-name="長方形 496" width="22" height="22" fill="none"/>
</svg>
