<svg id="ico_behance" xmlns="http://www.w3.org/2000/svg" width="34" height="34" viewBox="0 0 34 34">
  <rect id="長方形_486" data-name="長方形 486" width="34" height="34" fill="none"/>
  <path id="パス_997" data-name="パス 997" d="M10.875-9.891a3.979,3.979,0,0,1,2.273,1.523,4.572,4.572,0,0,1,.773,2.7,4.173,4.173,0,0,1-1.828,3.656A6.5,6.5,0,0,1,8.062-.844H0V-17.484H7.828a6.943,6.943,0,0,1,3.75.844,3.637,3.637,0,0,1,1.547,3.328A3.577,3.577,0,0,1,10.875-9.891ZM3.656-14.625v3.891h3.7a2.439,2.439,0,0,0,1.617-.492,1.879,1.879,0,0,0,.586-1.523q0-1.875-2.484-1.875ZM7.547-3.656q2.719,0,2.719-2.2,0-2.391-2.625-2.391H3.656v4.594Zm10.078-11.3v-1.641h6.75v1.641ZM27-6.7l-.047.609H18.281a3.166,3.166,0,0,0,.773,2.3,2.9,2.9,0,0,0,2.18.8,3.332,3.332,0,0,0,1.617-.422,1.994,1.994,0,0,0,1.008-1.172h2.906A5.394,5.394,0,0,1,21.141-.562,5.914,5.914,0,0,1,16.664-2.3,6.293,6.293,0,0,1,15-6.844a6.775,6.775,0,0,1,.773-3.234,5.817,5.817,0,0,1,2.18-2.3,6.074,6.074,0,0,1,3.187-.844A5.446,5.446,0,0,1,25.5-11.3,7,7,0,0,1,27-6.7ZM18.281-8.156h5.391a2.965,2.965,0,0,0-.75-1.9,2.454,2.454,0,0,0-1.852-.68,2.73,2.73,0,0,0-1.945.7A2.768,2.768,0,0,0,18.281-8.156Z" transform="translate(4 26)" fill="#0057ff"/>
</svg>
