<svg id="ico_weibo" xmlns="http://www.w3.org/2000/svg" width="34" height="34" viewBox="0 0 34 34">
  <rect id="長方形_492" data-name="長方形 492" width="34" height="34" fill="none"/>
  <path id="パス_1000" data-name="パス 1000" d="M19.078-12.656a.723.723,0,0,0,.164.773.822.822,0,0,0,.75.234.7.7,0,0,0,.586-.539,2.814,2.814,0,0,0-.07-2.109,3.207,3.207,0,0,0-1.406-1.57,3.015,3.015,0,0,0-2.133-.3.655.655,0,0,0-.562.539.894.894,0,0,0,.164.773.739.739,0,0,0,.773.234,1.393,1.393,0,0,1,1.43.469A1.431,1.431,0,0,1,19.078-12.656Zm-9,12.609a14.45,14.45,0,0,0,6.187-1.312,9.271,9.271,0,0,0,3.75-2.977,3.894,3.894,0,0,0,.8-3.4,3.876,3.876,0,0,0-2.766-2.437,1.073,1.073,0,0,1-.422-.187q-.094-.094,0-.422a2.457,2.457,0,0,0,.023-2.367,2.337,2.337,0,0,0-2.039-.82,8.673,8.673,0,0,0-3.328.8h-.047q-.7.234-.516-.281a3.051,3.051,0,0,0,0-2.484,1.9,1.9,0,0,0-1.8-.82,6.267,6.267,0,0,0-2.883.914,15.657,15.657,0,0,0-3.469,2.672A14.956,14.956,0,0,0,.937-9.75,6.93,6.93,0,0,0,0-6.469,4.712,4.712,0,0,0,1.5-3.047a9.563,9.563,0,0,0,3.727,2.2A14.832,14.832,0,0,0,10.078-.047Zm6.75-6.891a3.7,3.7,0,0,1-.75,2.484,6.51,6.51,0,0,1-2.437,1.969,10.017,10.017,0,0,1-3.562.984A10.18,10.18,0,0,1,6.4-1.781,6.673,6.673,0,0,1,3.609-3.234a3.444,3.444,0,0,1-1.2-2.273,3.51,3.51,0,0,1,.75-2.461A6.767,6.767,0,0,1,5.6-9.937a9.8,9.8,0,0,1,3.539-.984,10.18,10.18,0,0,1,3.68.281,6.673,6.673,0,0,1,2.789,1.453A3.531,3.531,0,0,1,16.828-6.937Zm-.516-12.422a.89.89,0,0,0-.7.633.926.926,0,0,0,.188.891.809.809,0,0,0,.891.258,4.435,4.435,0,0,1,3.07.445,4.5,4.5,0,0,1,2.062,2.273,4.307,4.307,0,0,1,.117,3.094.806.806,0,0,0,.188.914,1,1,0,0,0,.867.281.828.828,0,0,0,.68-.633,5.966,5.966,0,0,0-.187-4.406A5.918,5.918,0,0,0,20.672-18.7,6.183,6.183,0,0,0,16.312-19.359Zm-3.7,14.578a2.778,2.778,0,0,0-.023-2.555A3.108,3.108,0,0,0,10.5-8.906a4.3,4.3,0,0,0-2.859.234A3.829,3.829,0,0,0,5.625-6.8a2.886,2.886,0,0,0-.07,2.508A3.061,3.061,0,0,0,7.547-2.578a4.115,4.115,0,0,0,2.977-.187A3.728,3.728,0,0,0,12.609-4.781ZM8.578-6.187a.983.983,0,0,1,.609.656,1.128,1.128,0,0,1-.141.937,1.5,1.5,0,0,1-.82.656,1.251,1.251,0,0,1-1.008-.047,1.046,1.046,0,0,1-.586-.68A1.094,1.094,0,0,1,6.8-5.555a1.533,1.533,0,0,1,.8-.633A1.338,1.338,0,0,1,8.578-6.187ZM10.125-6.8a.3.3,0,0,1,.234.234.459.459,0,0,1-.047.352.63.63,0,0,1-.3.258.446.446,0,0,1-.4,0,.419.419,0,0,1-.234-.258.37.37,0,0,1,.07-.328.816.816,0,0,1,.3-.258A.4.4,0,0,1,10.125-6.8Z" transform="translate(5 26.497)" fill="#df0011"/>
</svg>
