<svg id="ico_opensea" xmlns="http://www.w3.org/2000/svg" width="34" height="34" viewBox="0 0 34 34">
  <rect id="長方形_946" data-name="長方形 946" width="34" height="34" fill="none"/>
  <g id="opensea" transform="translate(5 5)">
    <path id="パス_39937" data-name="パス 39937" d="M24,12A12,12,0,1,1,12,0,12,12,0,0,1,24,12Z" fill="#2081e2"/>
    <path id="パス_39938" data-name="パス 39938" d="M22.154,32.723l.052-.081,3.122-4.883a.107.107,0,0,1,.187.014,6.651,6.651,0,0,1,.761,3.527,5.513,5.513,0,0,1-.614,1.343c-.036.068-.075.134-.117.2a.106.106,0,0,1-.089.047h-3.21A.107.107,0,0,1,22.154,32.723Z" transform="translate(-16.234 -20.32)" fill="#fff"/>
    <path id="パス_39939" data-name="パス 39939" d="M33.695,26.511v.773a.111.111,0,0,1-.067.1,3.844,3.844,0,0,0-1.413.962c-.878,1.222-1.549,2.969-3.048,2.969H22.913A4.019,4.019,0,0,1,18.9,27.289v-.072a.107.107,0,0,1,.107-.107h3.487a.119.119,0,0,1,.113.132,1.19,1.19,0,0,0,.125.669,1.227,1.227,0,0,0,1.1.683h1.726V27.247H23.851a.11.11,0,0,1-.089-.173l.062-.091c.162-.229.392-.586.621-.991a7.764,7.764,0,0,0,.43-.859c.025-.053.044-.107.064-.16.033-.094.068-.181.092-.269s.044-.152.064-.224a3.474,3.474,0,0,0,.083-.787c0-.107,0-.219-.015-.327s-.02-.234-.035-.351-.028-.206-.048-.313c-.025-.157-.059-.312-.1-.469l-.014-.059c-.03-.107-.054-.21-.089-.317-.1-.337-.21-.665-.328-.972-.043-.122-.092-.239-.142-.356-.073-.176-.147-.337-.215-.488-.035-.069-.064-.132-.094-.2s-.068-.145-.1-.215c-.025-.053-.053-.1-.073-.152l-.211-.39a.069.069,0,0,1,.078-.1l1.319.358h.009l.174.048.191.054.07.02v-.784A.682.682,0,0,1,26.236,18a.669.669,0,0,1,.48.2.689.689,0,0,1,.2.485v1.164l.141.039a.112.112,0,0,1,.032.016l.147.111c.049.039.1.088.166.137.127.1.279.234.445.386.044.038.088.078.127.117.215.2.455.434.684.693.064.073.127.147.191.224s.132.157.191.234c.078.1.161.211.234.323.035.053.074.107.107.16.094.142.176.289.255.435.033.068.068.142.1.215a3.135,3.135,0,0,1,.2.6.742.742,0,0,1,.028.132v.01a1.132,1.132,0,0,1,.025.186,1.991,1.991,0,0,1-.035.615,2.24,2.24,0,0,1-.073.258c-.03.084-.059.171-.1.254a3.442,3.442,0,0,1-.265.5c-.033.059-.073.122-.112.181s-.088.122-.127.18c-.054.074-.112.152-.171.221a2.344,2.344,0,0,1-.166.21c-.083.1-.161.19-.244.279-.049.058-.1.117-.157.17s-.107.112-.157.161c-.083.083-.152.147-.21.2l-.136.125a.111.111,0,0,1-.073.027h-1.05v1.348h1.322a1.236,1.236,0,0,0,.8-.3,9.646,9.646,0,0,0,.817-.8.1.1,0,0,1,.051-.031l3.651-1.055A.108.108,0,0,1,33.695,26.511Z" transform="translate(-13.86 -13.2)" fill="#fff"/>
  </g>
</svg>
