<svg id="ico_github" xmlns="http://www.w3.org/2000/svg" width="34" height="34" viewBox="0 0 34 34">
  <rect id="長方形_494" data-name="長方形 494" width="34" height="34" fill="none"/>
  <path id="パス_1002" data-name="パス 1002" d="M7.781-2.391q0,.188-.258.211t-.258-.164q0-.187.234-.187a.384.384,0,0,1,.211.047Q7.781-2.437,7.781-2.391ZM6.328-2.578q.047-.187.281-.117t.211.187a.219.219,0,0,1-.117.164.2.2,0,0,1-.187,0,.626.626,0,0,1-.164-.117Q6.281-2.531,6.328-2.578Zm2.062-.094q.234,0,.258.141T8.437-2.3a.519.519,0,0,1-.164-.023q-.07-.023-.094-.164T8.391-2.672Zm3.094-17.953a12.027,12.027,0,0,1,5.906,1.5,11.156,11.156,0,0,1,4.266,4.078A11.227,11.227,0,0,1,23.25-9.187a11.731,11.731,0,0,1-2.18,6.961,11.156,11.156,0,0,1-5.7,4.242.613.613,0,0,1-.586-.094.6.6,0,0,1-.211-.469V-2.484a2.642,2.642,0,0,0-.8-2.156,13.314,13.314,0,0,0,2.578-.469,4.2,4.2,0,0,0,2.016-1.406,6.027,6.027,0,0,0,.8-3.328,3.42,3.42,0,0,0-.328-1.547,5.482,5.482,0,0,0-.891-1.172,3.759,3.759,0,0,0,.234-1.125,5.285,5.285,0,0,0-.328-2.062,2.134,2.134,0,0,0-1.312.188,12.756,12.756,0,0,0-1.312.656l-.609.422a10.622,10.622,0,0,0-2.977-.422,10.141,10.141,0,0,0-2.93.422l-.609-.422a10.54,10.54,0,0,0-1.359-.656,2.017,2.017,0,0,0-1.266-.187,4.345,4.345,0,0,0-.328,2.062,2.669,2.669,0,0,0,.187,1.078,5.993,5.993,0,0,0-.82,1.289,3.679,3.679,0,0,0-.258,1.477,6.072,6.072,0,0,0,.75,3.281A3.814,3.814,0,0,0,6.984-5.109a13.176,13.176,0,0,0,2.531.469,2.556,2.556,0,0,0-.75,1.594,2.782,2.782,0,0,1-1.547.281A2.267,2.267,0,0,1,5.344-4.031a2.44,2.44,0,0,0-.75-.844,4.839,4.839,0,0,0-.7-.328L3.562-5.25q-.516,0-.539.164t.211.352l.234.187a2.338,2.338,0,0,1,.656.609,3.043,3.043,0,0,1,.469.75l.187.375a1.9,1.9,0,0,0,.891,1.078,3.48,3.48,0,0,0,1.359.422A4.976,4.976,0,0,0,8.2-1.359l.516-.047.047,2.859a.6.6,0,0,1-.211.469.613.613,0,0,1-.586.094A11.265,11.265,0,0,1,2.2-2.227,11.645,11.645,0,0,1,0-9.187,11.508,11.508,0,0,1,1.5-15a10.894,10.894,0,0,1,4.125-4.125A11.6,11.6,0,0,1,11.484-20.625ZM4.547-4.453q.094-.094.234.047t.047.234q-.094.094-.234-.047T4.547-4.453Zm-.516-.375a.186.186,0,0,1,.234-.023q.141.07.094.187t-.211.023Q3.984-4.734,4.031-4.828ZM5.578-3.187a.14.14,0,0,1,.141-.023.348.348,0,0,1,.164.094.348.348,0,0,1,.094.164.14.14,0,0,1-.023.141q-.141.141-.328-.047a.27.27,0,0,1-.094-.187A.191.191,0,0,1,5.578-3.187Zm-.562-.656a.214.214,0,0,1,.164-.023A.214.214,0,0,1,5.3-3.75q.141.187,0,.281-.047.047-.117,0a1.532,1.532,0,0,0-.164-.094Q4.922-3.8,5.016-3.844Z" transform="translate(5 26.625)" fill="#24292f"/>
</svg>
