<svg xmlns="http://www.w3.org/2000/svg" xmlns:xlink="http://www.w3.org/1999/xlink" width="164.729" height="38.328" viewBox="0 0 164.729 38.328">
  <defs>
    <clipPath id="clip-path">
      <rect id="長方形_474" data-name="長方形 474" width="164.729" height="38.328" fill="none"/>
    </clipPath>
    <clipPath id="clip-path-3">
      <rect id="長方形_471" data-name="長方形 471" width="8.884" height="20.443" fill="none"/>
    </clipPath>
  </defs>
  <g id="logo" transform="translate(0)">
    <g id="グループ_1126" data-name="グループ 1126" transform="translate(0)">
      <g id="グループ_1134" data-name="グループ 1134" clip-path="url(#clip-path)">
        <g id="グループ_1133" data-name="グループ 1133" transform="translate(0 0)">
          <g id="グループ_1132" data-name="グループ 1132" clip-path="url(#clip-path)">
            <path id="パス_942" data-name="パス 942" d="M65.768,15.734a2.553,2.553,0,0,1,.755-1.819,2.741,2.741,0,0,1,.825-.554,2.458,2.458,0,0,1,1-.208h9.795a2.452,2.452,0,0,1,1,.208,2.731,2.731,0,0,1,.825.554,2.545,2.545,0,0,1,.755,1.819v2.329h-2.58V15.734H68.349V28.626h9.795V26.31h2.58v2.317a2.524,2.524,0,0,1-.2,1,2.6,2.6,0,0,1-.554.825,2.57,2.57,0,0,1-.825.553,2.512,2.512,0,0,1-1,.2H68.349a2.518,2.518,0,0,1-1-.2,2.571,2.571,0,0,1-1.378-1.378,2.512,2.512,0,0,1-.2-1Z" transform="translate(-15.08 -3.016)" fill="#fff"/>
            <path id="パス_943" data-name="パス 943" d="M106.8,19.6q0,3.778-3.222,4.306l3.4,7.3h-2.858l-3.349-7.214H95.114v7.214H92.533V13.153h9.884q4.381,0,4.381,4.394ZM95.114,21.412h7.164a2.045,2.045,0,0,0,1.486-.453,2.046,2.046,0,0,0,.453-1.486v-1.8a2.047,2.047,0,0,0-.453-1.485,2.045,2.045,0,0,0-1.486-.453H95.114Z" transform="translate(-21.217 -3.016)" fill="#fff"/>
            <path id="パス_944" data-name="パス 944" d="M118.628,13.153h13.156v2.581H121.209V20.9h9.027v2.581h-9.027v5.149h10.575v2.581H118.628Z" transform="translate(-27.201 -3.016)" fill="#fff"/>
            <path id="パス_945" data-name="パス 945" d="M150.247,13.153l6.961,18.054h-2.581l-1.6-4.154h-8.146l-1.6,4.154H140.7l6.963-18.054Zm-4.381,11.319h6.169l-3.071-7.957Z" transform="translate(-32.262 -3.016)" fill="#fff"/>
            <path id="パス_946" data-name="パス 946" d="M179.9,21.79a3.682,3.682,0,0,1,1.032.5,2.974,2.974,0,0,1,.794.836,4.073,4.073,0,0,1,.5,1.2,6.472,6.472,0,0,1,.176,1.586v.906q0,4.381-4.381,4.381h-9.883V13.153H177.5q4.381,0,4.381,4.394v.328a5.535,5.535,0,0,1-.485,2.486,3.043,3.043,0,0,1-1.5,1.429m-9.228-6.106V20.82h6.937a1.788,1.788,0,0,0,1.34-.51,2.173,2.173,0,0,0,.409-1.454V17.672a2.145,2.145,0,0,0-.452-1.511,1.957,1.957,0,0,0-1.474-.479Zm0,7.655v5.339h7.276a1.957,1.957,0,0,0,1.474-.479,2.123,2.123,0,0,0,.452-1.5V25.3a2.1,2.1,0,0,0-.452-1.5,1.994,1.994,0,0,0-1.474-.466Z" transform="translate(-38.553 -3.016)" fill="#fff"/>
            <path id="パス_947" data-name="パス 947" d="M209.134,28.626a2.529,2.529,0,0,1-.2,1A2.584,2.584,0,0,1,207.554,31a2.518,2.518,0,0,1-1,.2H196.241a2.518,2.518,0,0,1-1-.2,2.582,2.582,0,0,1-1.379-1.378,2.528,2.528,0,0,1-.2-1V15.734a2.544,2.544,0,0,1,.755-1.82,2.75,2.75,0,0,1,.825-.554,2.47,2.47,0,0,1,1-.207h10.311a2.47,2.47,0,0,1,1,.207,2.728,2.728,0,0,1,.824.554,2.554,2.554,0,0,1,.756,1.82Zm-12.892,0h10.311V15.733H196.241Z" transform="translate(-44.405 -3.016)" fill="#fff"/>
            <path id="パス_948" data-name="パス 948" d="M32.6,14.053V24.275l-6.662,3.833v10.22l15.546-8.943V8.942L25.941,0V10.221Z" transform="translate(-5.948 0)" fill="#0ab4af"/>
            <path id="パス_949" data-name="パス 949" d="M15.547,28.108,8.884,24.275V14.053l6.663-3.832V0L0,8.942V29.385l15.547,8.943Z" transform="translate(0 0)" fill="#0ab4af"/>
            <g id="グループ_1128" data-name="グループ 1128" transform="translate(26.655 8.942)" opacity="0.4">
              <g id="グループ_1127" data-name="グループ 1127">
                <g id="グループ_1126-2" data-name="グループ 1126" clip-path="url(#clip-path-3)">
                  <path id="パス_950" data-name="パス 950" d="M43.469,32.046V11.6h0l-8.883,5.111V26.936l8.883,5.111Z" transform="translate(-34.585 -11.603)" fill="#fff"/>
                </g>
              </g>
            </g>
            <g id="グループ_1131" data-name="グループ 1131" transform="translate(0 8.942)" opacity="0.4">
              <g id="グループ_1130" data-name="グループ 1130">
                <g id="グループ_1129" data-name="グループ 1129" clip-path="url(#clip-path-3)">
                  <path id="パス_951" data-name="パス 951" d="M0,11.6V32.046H0l8.883-5.111V16.714L0,11.6Z" transform="translate(0 -11.603)" fill="#fff"/>
                </g>
              </g>
            </g>
            <path id="パス_952" data-name="パス 952" d="M26.191,23.645A4.45,4.45,0,1,0,21.74,28.1a4.451,4.451,0,0,0,4.451-4.45m-6.68,0a2.223,2.223,0,1,1,2.223,2.223,2.223,2.223,0,0,1-2.223-2.223" transform="translate(-3.964 -4.402)" fill="#0ab4af"/>
          </g>
        </g>
      </g>
    </g>
  </g>
</svg>
