<svg width="41" height="40" viewBox="0 0 41 40" fill="none" xmlns="http://www.w3.org/2000/svg">
<path d="M0.935091 20C0.935091 8.98438 9.84134 0 20.9351 0C31.9507 0 40.9351 8.98438 40.9351 20C40.9351 31.0938 31.9507 40 20.9351 40C9.84134 40 0.935091 31.0938 0.935091 20ZM20.9351 28.75C21.9507 28.75 22.8101 27.9688 22.8101 26.875V21.875H27.8101C28.8257 21.875 29.6851 21.0938 29.6851 20C29.6851 18.9844 28.8257 18.125 27.8101 18.125H22.8101V13.125C22.8101 12.1094 21.9507 11.25 20.9351 11.25C19.8413 11.25 19.0601 12.1094 19.0601 13.125V18.125H14.0601C12.9663 18.125 12.1851 18.9844 12.1851 20C12.1851 21.0938 12.9663 21.875 14.0601 21.875H19.0601V26.875C19.0601 27.9688 19.8413 28.75 20.9351 28.75Z" fill="#32E865"/>
</svg>
