<svg width="41" height="41" viewBox="0 0 41 41" fill="none" xmlns="http://www.w3.org/2000/svg">
<path d="M0.428684 20.9985C0.428684 9.98291 9.33493 0.998535 20.4287 0.998535C31.4443 0.998535 40.4287 9.98291 40.4287 20.9985C40.4287 32.0923 31.4443 40.9985 20.4287 40.9985C9.33493 40.9985 0.428684 32.0923 0.428684 20.9985ZM20.4287 29.7485C21.4443 29.7485 22.3037 28.9673 22.3037 27.8735V22.8735H27.3037C28.3193 22.8735 29.1787 22.0923 29.1787 20.9985C29.1787 19.9829 28.3193 19.1235 27.3037 19.1235H22.3037V14.1235C22.3037 13.1079 21.4443 12.2485 20.4287 12.2485C19.3349 12.2485 18.5537 13.1079 18.5537 14.1235V19.1235H13.5537C12.4599 19.1235 11.6787 19.9829 11.6787 20.9985C11.6787 22.0923 12.4599 22.8735 13.5537 22.8735H18.5537V27.8735C18.5537 28.9673 19.3349 29.7485 20.4287 29.7485Z" fill="url(#paint0_linear_2600_24566)"/>
<path d="M0.428684 20.9985C0.428684 9.98291 9.33493 0.998535 20.4287 0.998535C31.4443 0.998535 40.4287 9.98291 40.4287 20.9985C40.4287 32.0923 31.4443 40.9985 20.4287 40.9985C9.33493 40.9985 0.428684 32.0923 0.428684 20.9985ZM20.4287 29.7485C21.4443 29.7485 22.3037 28.9673 22.3037 27.8735V22.8735H27.3037C28.3193 22.8735 29.1787 22.0923 29.1787 20.9985C29.1787 19.9829 28.3193 19.1235 27.3037 19.1235H22.3037V14.1235C22.3037 13.1079 21.4443 12.2485 20.4287 12.2485C19.3349 12.2485 18.5537 13.1079 18.5537 14.1235V19.1235H13.5537C12.4599 19.1235 11.6787 19.9829 11.6787 20.9985C11.6787 22.0923 12.4599 22.8735 13.5537 22.8735H18.5537V27.8735C18.5537 28.9673 19.3349 29.7485 20.4287 29.7485Z" fill="url(#paint1_linear_2600_24566)" fill-opacity="0.2"/>
<defs>
<linearGradient id="paint0_linear_2600_24566" x1="12.4718" y1="-0.00146322" x2="51.9826" y2="15.7671" gradientUnits="userSpaceOnUse">
<stop stop-color="#59CDFF"/>
<stop offset="1" stop-color="#C071FF"/>
</linearGradient>
<linearGradient id="paint1_linear_2600_24566" x1="20.4287" y1="-15.1751" x2="20.429" y2="54.33" gradientUnits="userSpaceOnUse">
<stop stop-color="#FA00FF"/>
<stop offset="1" stop-color="#FF2DEA" stop-opacity="0"/>
<stop offset="1" stop-color="#FF2DEA" stop-opacity="0"/>
</linearGradient>
</defs>
</svg>
