<svg width="37" height="33" viewBox="0 0 37 33" fill="none" xmlns="http://www.w3.org/2000/svg">
<path id="image" d="M32.4297 0.75H5.42969C2.96875 0.75 0.929688 2.78906 0.929688 5.25V27.75C0.929688 30.2812 2.96875 32.25 5.42969 32.25H32.4297C34.8906 32.25 36.9297 30.2812 36.9297 27.75V5.25C36.9297 2.78906 34.9609 0.75 32.4297 0.75ZM8.80469 5.25C10.6328 5.25 12.1797 6.79688 12.1797 8.625C12.1797 10.5234 10.7031 12 8.80469 12C6.83594 12 5.42969 10.5234 5.42969 8.625C5.42969 6.79688 6.97656 5.25 8.80469 5.25ZM32.3594 27.1875C32.1484 27.5391 31.7266 27.75 31.375 27.75H6.76562C6.27344 27.75 5.92188 27.5391 5.71094 27.1875C5.57031 26.7656 5.57031 26.3438 5.85156 25.9922L10.7734 19.2422C10.9844 18.9609 11.2656 18.75 11.6875 18.75C12.0391 18.75 12.3203 18.9609 12.5312 19.2422L14.8516 22.4062L21.3906 12.5625C21.6016 12.2109 21.9531 12 22.375 12C22.7266 12 23.0781 12.2109 23.2891 12.5625L32.2891 26.0625C32.5 26.3438 32.5 26.8359 32.3594 27.1875Z" fill="#9A5AFF"/>
</svg>
