<svg width="18" height="19" viewBox="0 0 18 19" fill="none" xmlns="http://www.w3.org/2000/svg">
<circle cx="9" cy="9.5" r="9" fill="#46A6FF" fill-opacity="0.4"/>
<path d="M11 12.6875H10.25V7.4375C10.25 7.03906 9.89844 6.6875 9.5 6.6875H8C7.57812 6.6875 7.25 7.03906 7.25 7.4375C7.25 7.85938 7.57812 8.1875 8 8.1875H8.75V12.6875H8C7.57812 12.6875 7.25 13.0156 7.25 13.4375C7.25 13.8359 7.57812 14.1875 8 14.1875H11C11.3984 14.1875 11.75 13.8359 11.75 13.4375C11.75 13.0156 11.3984 12.6875 11 12.6875ZM9.5 5.1875C10.1094 5.1875 10.625 4.69531 10.625 4.0625C10.625 3.45312 10.1094 2.96094 9.5 2.96094C8.86719 2.96094 8.375 3.45312 8.375 4.08594C8.375 4.69531 8.86719 5.1875 9.5 5.1875Z" fill="#46A6FF"/>
</svg>
