<svg width="14" height="14" viewBox="0 0 14 14" fill="none" xmlns="http://www.w3.org/2000/svg">
<path fill-rule="evenodd" clip-rule="evenodd" d="M8.06659 3.86659C8.06659 3.40436 7.66214 2.99992 7.19992 2.99992C6.7377 2.99992 6.33325 3.40436 6.33325 3.86659C6.33325 4.32881 6.67992 4.73325 7.19992 4.73325C7.71992 4.73325 8.06659 4.32881 8.06659 3.86659ZM6.22214 10.3333H8.44436C8.7777 10.3333 8.99992 10.1759 8.99992 9.86134C8.99992 9.54673 8.7777 9.337 8.44436 9.337H7.99992C7.94436 9.337 7.88881 9.28456 7.88881 9.23213V6.71527C7.88881 6.13849 7.38881 5.66658 6.7777 5.66658H6.22214C5.88881 5.66658 5.66658 5.87632 5.66658 6.19093C5.66658 6.50554 5.88881 6.71527 6.22214 6.71527H6.66658C6.72214 6.71527 6.7777 6.76771 6.7777 6.82014V9.17969C6.7777 9.23213 6.72214 9.28456 6.66658 9.28456H6.22214C5.88881 9.28456 5.66658 9.4943 5.66658 9.80891C5.66658 10.1235 5.88881 10.3333 6.22214 10.3333ZM6.99992 0.333252C3.33325 0.333252 0.333252 3.33325 0.333252 6.99992C0.333252 10.6666 3.33325 13.6666 6.99992 13.6666C10.6666 13.6666 13.6666 10.6666 13.6666 6.99992C13.6666 3.33325 10.6666 0.333252 6.99992 0.333252Z" fill="#46A6FF"/>
</svg>
