<svg xmlns="http://www.w3.org/2000/svg" width="139.47" height="67.254" viewBox="0 0 139.47 67.254">
  <g id="グループ_1529" data-name="グループ 1529" transform="translate(-2052.045 -907.906) rotate(22)">
    <g id="グループ_1531" data-name="グループ 1531" transform="matrix(0.995, -0.105, 0.105, 0.995, 9.525, 244.565)">
      <path id="パス_497" data-name="パス 497" d="M131.46,21.918l-5.407-6.6a4.085,4.085,0,1,0-1.836,1.5l5.409,6.607Z" transform="translate(2149.787 47.941)" fill="#0ab4af"/>
      <path id="パス_498" data-name="パス 498" d="M140.813,8.981a4.066,4.066,0,0,0-3.384,6.332l-5.407,6.6,1.836,1.5,5.407-6.6a4.07,4.07,0,1,0,1.549-7.833" transform="translate(2168.193 47.941)" fill="#0ab4af"/>
      <path id="パス_499" data-name="パス 499" d="M139.574,51.954a19.973,19.973,0,1,1,19.973-19.973,20,20,0,0,1-19.973,19.973" transform="translate(2151.157 52.093)" fill="#fff"/>
      <path id="パス_500" data-name="パス 500" d="M140.26,13.88a18.787,18.787,0,1,1-18.787,18.787A18.809,18.809,0,0,1,140.26,13.88m0-2.372a21.159,21.159,0,1,0,21.159,21.159A21.159,21.159,0,0,0,140.26,11.508" transform="translate(2150.471 51.407)" fill="#0ab4af"/>
      <path id="パス_501" data-name="パス 501" d="M126.3,24.494c0,1.463-.432,2.649-.963,2.649s-.96-1.186-.96-2.649.429-2.649.96-2.649.963,1.186.963,2.649" transform="translate(2157.704 65.584)" fill="#0ab4af"/>
      <path id="パス_502" data-name="パス 502" d="M126.02,21.345c1.305,0,2.149,1.505,2.149,3.835s-.843,3.835-2.149,3.835-2.146-1.505-2.146-3.835S124.716,21.345,126.02,21.345Z" transform="translate(2157.018 64.898)" fill="#0ab4af"/>
      <path id="パス_504" data-name="パス 504" d="M132.511,21.345c1.3,0,2.146,1.505,2.146,3.835s-.842,3.835-2.146,3.835-2.149-1.505-2.149-3.835S131.205,21.345,132.511,21.345Z" transform="translate(2165.916 64.899)" fill="#0ab4af"/>
      <path id="パス_503" data-name="パス 503" d="M130.862,24.494c0-1.463.432-2.649.963-2.649s.96,1.186.96,2.649-.429,2.649-.96,2.649-.963-1.186-.963-2.649" transform="translate(2166.602 65.584)" fill="#0ab4af"/>
      <path id="パス_505" data-name="パス 505" d="M129.4,14.733l.735,1.492,1.646.237-1.191,1.162.28,1.639-1.47-.775-1.47.775.28-1.639-1.191-1.162,1.646-.237Z" transform="translate(2161.332 55.829)" fill="#0ab4af"/>
      <path id="パス_506" data-name="パス 506" d="M132.937,19.152a7.774,7.774,0,0,0-7.568,7.07c-.619,4.3-5.222,4.928-6.586,5.021-.064-.1-.109-.206-.178-.3a5.63,5.63,0,0,0-7.869-1.176l1.409,1.907a3.255,3.255,0,0,1,5.156,3.1,3.23,3.23,0,0,1-1.283,2.134l1.409,1.907a5.465,5.465,0,0,0,2.208-5.26c3.012-.368,7.383-2.115,8.082-6.989.7-4.845,4.764-5.032,5.227-5.037Z" transform="translate(2139 61.891)" fill="#0ab4af"/>
      <path id="パス_507" data-name="パス 507" d="M154.284,29.071a5.6,5.6,0,0,1-3.69-2.183c-.071-.093-.114-.2-.178-.294-1.364.089-5.969.7-6.588,4.935a7.735,7.735,0,0,1-7.568,6.955l-.007-2.332A5.35,5.35,0,0,0,141.48,31.2c.7-4.8,5.075-6.512,8.085-6.873a5.472,5.472,0,0,1,2.2-5.173l1.411,1.873a3.182,3.182,0,0,0-1.283,2.1,3.135,3.135,0,0,0,.6,2.377,3.234,3.234,0,0,0,2.132,1.262,3.316,3.316,0,0,0,2.419-.592l1.411,1.875a5.674,5.674,0,0,1-4.179,1.024" transform="translate(2173.946 50.171)" fill="#0ab4af"/>
      <path id="パス_508" data-name="パス 508" d="M134.954,35.117h-.047a20.526,20.526,0,0,1-11.67-3.776l1.352-1.948a17.69,17.69,0,0,0,20.657.049l.076-.052,1.344,1.954-.076.052A20.5,20.5,0,0,1,134.954,35.117Z" transform="translate(2156.144 75.931)" fill="#0ab4af"/>
      <path id="パス_509" data-name="パス 509" d="M131.76,36.219a10.83,10.83,0,0,1-6.2-1.988l1.352-1.948a8.222,8.222,0,0,0,9.654.023l.038-.026,1.344,1.954-.038.026A10.825,10.825,0,0,1,131.76,36.219Z" transform="translate(2159.335 79.896)" fill="#0ab4af"/>
    </g>
    <g id="長方形_634" data-name="長方形 634" transform="translate(2345.024 31.757) rotate(9)" fill="#fff" stroke="#0ab4af" stroke-width="2">
      <rect width="34" height="34" rx="6" stroke="none"/>
      <rect x="1" y="1" width="32" height="32" rx="5" fill="none"/>
    </g>
    <g id="グループ_1530" data-name="グループ 1530" transform="translate(0.866 -0.5)">
      <circle id="楕円形_118" data-name="楕円形 118" cx="11" cy="11" r="11" transform="translate(2342.594 60.216)" fill="#0ab4af"/>
      <path id="パス_1074" data-name="パス 1074" d="M0,6.589,5.8,9.641,9.565,0" transform="translate(2349.495 65.258) rotate(11)" fill="none" stroke="#fff" stroke-linecap="round" stroke-linejoin="round" stroke-width="2"/>
    </g>
  </g>
</svg>
