<svg id="ico_tokenweighted" xmlns="http://www.w3.org/2000/svg" width="44" height="44" viewBox="0 0 44 44">
  <rect id="長方形_507" data-name="長方形 507" width="44" height="44" fill="none"/>
  <path id="合体_54" data-name="合体 54" d="M1564,25.5v-4a3.8,3.8,0,0,1,.454-1.769,3.791,3.791,0,0,1-.454-1.773v-4a3.785,3.785,0,0,1,.43-1.733A3.778,3.778,0,0,1,1564,10.5v-4c0-3.584,5.383-6.5,12-6.5s12,2.916,12,6.5v4a3.778,3.778,0,0,1-.43,1.726,3.787,3.787,0,0,1,.43,1.733v4a3.792,3.792,0,0,1-.454,1.773A3.8,3.8,0,0,1,1588,21.5v4c0,3.584-5.383,6.5-12,6.5S1564,29.083,1564,25.5Zm1-4c0,1.352,1.062,2.672,2.991,3.717a18.881,18.881,0,0,0,16.018,0c1.929-1.045,2.991-2.365,2.991-3.717a2.68,2.68,0,0,0-.123-.8c-1.914,2.216-6.069,3.755-10.877,3.755s-8.963-1.539-10.877-3.755A2.685,2.685,0,0,0,1565,21.5Zm0-7.542c0,1.352,1.062,2.672,2.991,3.717a18.881,18.881,0,0,0,16.018,0c1.929-1.045,2.991-2.365,2.991-3.717a2.654,2.654,0,0,0-.105-.735C1584.989,15.451,1580.822,17,1576,17s-8.989-1.549-10.894-3.776A2.655,2.655,0,0,0,1565,13.958Zm2.991-11.175C1566.062,3.828,1565,5.148,1565,6.5s1.062,2.672,2.991,3.717A17.171,17.171,0,0,0,1576,12a17.174,17.174,0,0,0,8.009-1.783C1585.938,9.172,1587,7.852,1587,6.5s-1.062-2.672-2.991-3.717a18.881,18.881,0,0,0-16.018,0Zm4.383,6.155,2.105-1.262,1.861.58,2.1-1.263-.282-1.525,2.1-1.263.66,3.562-4.21,2.524ZM1571,4.674l4.209-2.525L1579.55,3.5l-2.1,1.263-1.861-.58-2.1,1.262.283,1.526-2.1,1.263Zm4.032,2.107a1,1,0,0,1-.083-.092.764.764,0,0,1,.283-1.161,1.411,1.411,0,0,1,1.632.154.763.763,0,0,1-.2,1.253,1.4,1.4,0,0,1-.715.19A1.311,1.311,0,0,1,1575.031,6.781Zm.557-.9a.382.382,0,0,0-.1.626.707.707,0,0,0,.816.076.38.38,0,0,0,.141-.579c-.013-.015-.026-.031-.041-.046a.657.657,0,0,0-.458-.172A.7.7,0,0,0,1575.589,5.879Z" transform="translate(-1554 6)" fill="#8b9199"/>
</svg>
