<svg width="20" height="19" viewBox="0 0 20 19" fill="none" xmlns="http://www.w3.org/2000/svg">
<path d="M9.0625 5.75C9.0625 6.64844 8.35938 7.3125 7.5 7.3125C6.60156 7.3125 5.9375 6.64844 5.9375 5.75C5.9375 4.89062 6.60156 4.1875 7.5 4.1875C8.35938 4.1875 9.0625 4.89062 9.0625 5.75ZM4.10156 2.15625C4.60938 1.25781 5.50781 0.75 6.52344 0.75H13.4375C14.4531 0.75 15.3516 1.25781 15.8594 2.15625L19.2969 8.09375C19.8047 8.99219 19.8047 10.0469 19.2969 10.9062L15.8594 16.8828C15.3516 17.7812 14.4531 18.2891 13.4375 18.2891H6.52344C5.50781 18.2891 4.60938 17.7812 4.10156 16.8828L0.664062 10.9062C0.15625 10.0469 0.15625 8.99219 0.664062 8.09375L4.10156 2.15625ZM3.94531 12.8984L6.17188 10.4375C6.32812 10.2422 6.60156 10.1641 6.83594 10.125C7.10938 10.125 7.34375 10.2422 7.53906 10.4375L9.0625 12L11.8359 8.64062C12.0312 8.44531 12.3047 8.32812 12.5781 8.32812C12.8516 8.32812 13.125 8.44531 13.2812 8.64062L16.3281 12.3125L17.6953 9.96875C17.8516 9.69531 17.8516 9.34375 17.6953 9.03125L14.2578 3.09375C14.0625 2.78125 13.75 2.625 13.4375 2.625H6.52344C6.21094 2.625 5.89844 2.78125 5.70312 3.09375L2.26562 9.03125C2.10938 9.34375 2.10938 9.69531 2.26562 9.96875L3.94531 12.8984Z" fill="#FF3C3C"/>
</svg>
