<svg width="325" height="245" viewBox="0 0 325 245" fill="none" xmlns="http://www.w3.org/2000/svg">
<path opacity="0.3" d="M242.531 46.4203C271.156 56.2291 298.423 83.1202 299.252 117.837C300.081 152.554 290.599 187.921 238.445 201.631C189.459 214.512 73.1252 219.209 42.1608 176.016C12.9108 135.334 22.214 69.2886 73.304 48.1675C109.111 33.3608 186.623 27.2821 242.531 46.4203Z" fill="#E6E6E6"/>
<path d="M155.553 62.8984C155.553 62.8984 139.921 78.9323 130.943 92.5363C121.964 106.14 96.5494 72.3335 96.5494 72.3335L91.5444 78.2659C91.5444 78.2659 112.247 120.955 138.336 110.236C164.426 99.517 181.188 68.7577 155.553 62.8984Z" fill="#E6E8EE"/>
<path opacity="0.46" d="M155.553 62.8984C155.553 62.8984 139.921 78.9323 130.943 92.5363C121.964 106.14 96.5494 72.3335 96.5494 72.3335L91.5444 78.2659C91.5444 78.2659 112.247 120.955 138.336 110.236C164.426 99.517 181.188 68.7577 155.553 62.8984Z" fill="white"/>
<path d="M189.312 62.0281C189.312 62.0281 171.99 50.2363 153.181 64.6449C134.371 79.0534 158.73 129.91 158.73 129.91L193.927 131.08C193.927 131.08 237.047 92.6899 189.312 62.0281Z" fill="#E6E8EE"/>
<path opacity="0.08" d="M184.982 74.0781C184.982 74.0781 169.406 81.2946 179.392 96.3857C189.378 111.477 179.465 127.088 157.698 127.714L181.448 133.654L208.431 118.563L205.221 98.1736L184.982 74.0781Z" fill="black"/>
<path d="M167.172 40.957C167.172 40.957 166.936 45.8329 167.879 49.0836C167.971 49.3935 168.125 49.6818 168.33 49.9318C168.535 50.1818 168.788 50.3884 169.074 50.5397C169.36 50.6909 169.673 50.7838 169.995 50.8129C170.317 50.8419 170.642 50.8066 170.95 50.7089C171.964 50.4656 172.886 49.9353 173.606 49.1816C174.327 48.4279 174.815 47.4826 175.012 46.4587L176.312 42.1191C176.483 41.2255 176.371 40.301 175.993 39.4738C175.614 38.6466 174.988 37.9579 174.2 37.5031C171.38 35.634 167.164 37.9826 167.172 40.957Z" fill="#F4A28C"/>
<path d="M176.101 42.9219L179.238 58.6713L170.43 59.7765L171.69 47.871L176.101 42.9219Z" fill="#F4A28C"/>
<path d="M168.391 41.1136C169.906 41.1202 171.417 40.9456 172.892 40.5935C172.476 41.2753 172.271 42.0644 172.301 42.8622C172.332 43.66 172.596 44.4311 173.062 45.0794C173.501 45.7133 174.145 46.1761 174.885 46.3894C175.625 46.6027 176.417 46.5533 177.125 46.2496L176.8 39.9596C176.785 39.0587 176.527 38.1785 176.052 37.4129C175.577 36.6472 174.903 36.0248 174.102 35.6119C173.411 35.2519 172.697 34.9371 171.966 34.6692C170.121 34.0109 167.521 35.3193 165.847 34.1572C165.678 34.0425 165.482 33.9736 165.278 33.957C165.074 33.9405 164.87 33.9769 164.684 34.0627C164.499 34.1486 164.338 34.281 164.219 34.447C164.1 34.6131 164.025 34.8072 164.003 35.0105C163.8 36.9284 164.255 39.8865 166.879 40.8779C167.366 41.042 167.877 41.1217 168.391 41.1136Z" fill="#24285B"/>
<path d="M172.534 44.9475C172.534 44.9475 172.534 43.0621 173.924 43.1515C175.313 43.2409 175.41 45.9715 173.493 46.2965L172.534 44.9475Z" fill="#F4A28C"/>
<path d="M167.18 44.0547L165.888 45.9888C165.822 46.1003 165.784 46.226 165.776 46.3554C165.768 46.4847 165.792 46.6141 165.844 46.7326C165.897 46.8511 165.977 46.9553 166.078 47.0366C166.178 47.1178 166.297 47.1738 166.424 47.1997L168.309 47.4841L167.18 44.0547Z" fill="#F4A28C"/>
<path opacity="0.31" d="M171.307 50.4766C172.396 50.1548 173.368 49.5222 174.102 48.6562C174.102 48.6562 174.102 51.59 170.982 54.6131L171.307 50.4766Z" fill="#CE8172"/>
<path d="M183.625 81.2291C182 71.2008 194.261 64.9758 201.5 72.1354C206.635 77.182 211.348 84.3741 212.006 94.0285C213.541 116.328 207.131 136.149 193.854 133.402C180.578 130.655 160.786 102.521 160.786 102.521L165.124 98.1162C165.124 98.1162 184.511 118.116 193.204 115.304C199.379 113.305 186.201 96.9378 183.625 81.2291Z" fill="#E6E8EE"/>
<path opacity="0.46" d="M183.625 81.2291C182 71.2008 194.261 64.9758 201.5 72.1354C206.635 77.182 211.348 84.3741 212.006 94.0285C213.541 116.328 207.131 136.149 193.854 133.402C180.578 130.655 160.786 102.521 160.786 102.521L165.124 98.1162C165.124 98.1162 184.511 118.116 193.204 115.304C199.379 113.305 186.201 96.9378 183.625 81.2291Z" fill="white"/>
<path d="M165.124 98.1182C165.124 98.1182 162.622 87.261 160.785 87.4317C158.949 87.6023 160.785 94.2824 160.785 94.2824C160.785 94.2824 157.917 88.797 156.39 88.5938C154.862 88.3906 158.77 95.7533 158.77 95.7533C158.77 95.7533 154.001 91.4381 152.465 92.7384C150.93 94.0386 158.795 98.9959 158.795 98.9959C158.795 98.9959 157.852 102.572 160.785 102.49L165.124 98.1182Z" fill="#F4A28C"/>
<path d="M96.5495 72.334C96.5495 72.334 89.9114 64.76 87.352 69.0833C84.7926 73.4067 93.0395 76.5192 93.0395 76.5192L96.5495 72.334Z" fill="#F4A28C"/>
<path d="M240.443 129.641H80.2832V141.245H240.443V129.641Z" fill="#E6E6E6"/>
<path d="M235.617 141.25H85.1255V209.693H235.617V141.25Z" fill="#E6E6E6"/>
<path d="M139.165 201.581V149.367L183.593 175.47L139.165 201.581Z" fill="#FFD200"/>
<path opacity="0.08" d="M235.625 141.25V160.819C166.043 158.608 115.164 180.193 85.1421 198.25V141.25H235.625Z" fill="black"/>
<path d="M89.1964 129.629L86.4258 113.961H106.08L107.786 127.321L116.797 127.443V129.629H89.1964Z" fill="#24285B"/>
<path d="M276.908 65.3984H272.691V197.139H276.908V65.3984Z" fill="#E6E6E6"/>
<path d="M276.914 178.114L273.391 175.797L251.971 208.375L255.494 210.693L276.914 178.114Z" fill="#E6E6E6"/>
<path d="M294.085 210.724L297.608 208.406L276.188 175.828L272.665 178.145L294.085 210.724Z" fill="#E6E6E6"/>
<path d="M278.501 61.6953H271.091V69.1068H278.501V61.6953Z" fill="#B3B3B3"/>
<path d="M281.06 52.75H268.328C266.968 52.75 265.866 53.8524 265.866 55.2124V62.3557C265.866 63.7156 266.968 64.818 268.328 64.818H281.06C282.42 64.818 283.522 63.7156 283.522 62.3557V55.2124C283.522 53.8524 282.42 52.75 281.06 52.75Z" fill="#E6E6E6"/>
<path d="M238.875 34.5445C251.875 31.3751 265.452 41.0945 269.141 56.2588C272.829 71.4231 265.249 86.2705 252.216 89.4399L238.875 34.5445Z" fill="#B3B3B3"/>
<path d="M54.7054 97.3838C57.8376 97.3838 60.3767 94.8442 60.3767 91.7115C60.3767 88.5787 57.8376 86.0391 54.7054 86.0391C51.5733 86.0391 49.0342 88.5787 49.0342 91.7115C49.0342 94.8442 51.5733 97.3838 54.7054 97.3838Z" fill="#B3B3B3"/>
<path d="M48.5146 124.781H51.334V101.393H48.5146V124.781Z" fill="#E6E6E6"/>
<path d="M42.6562 87.6801H46.6456L47.5069 84.2344H52.3331L53.1944 87.6801H57.1837C57.5085 87.6822 57.8193 87.8122 58.0489 88.0418C58.2785 88.2715 58.4085 88.5824 58.4106 88.9072V96.5462C58.4106 96.8717 58.2814 97.1838 58.0513 97.4139C57.8212 97.6441 57.5091 97.7733 57.1837 97.7733H42.6562C42.3323 97.7712 42.0223 97.641 41.794 97.4111C41.5656 97.1812 41.4375 96.8703 41.4375 96.5462V88.9072C41.4396 88.5838 41.5684 88.2741 41.7963 88.0447C42.0242 87.8152 42.3329 87.6843 42.6562 87.6801Z" fill="#E6E6E6"/>
<path d="M43.4687 94.9766H52.9668V89.6292H43.4687V94.9766Z" fill="#FFD200"/>
<path d="M46.8246 101.945H53.0239V97.7682H46.8246V101.945Z" fill="#B3B3B3"/>
<path d="M48.1976 211.055H51.6426L51.6426 125.798H48.1976L48.1976 211.055Z" fill="#E6E6E6"/>
<path d="M69.0744 209.911L72.4443 209.195L54.7512 125.796L51.3812 126.511L69.0744 209.911Z" fill="#E6E6E6"/>
<path d="M48.4706 126.504L45.1006 125.789L27.4074 209.189L30.7774 209.904L48.4706 126.504Z" fill="#E6E6E6"/>
<path d="M45.0534 127.219H54.7871V124.366H45.0534V127.219Z" fill="#B3B3B3"/>
<path opacity="0.58" d="M225.063 121.446C225.063 121.446 218.563 119.674 217.189 113.652C217.189 113.652 227.216 111.629 227.5 121.974L225.063 121.446Z" fill="#E6E8EE"/>
<path opacity="0.73" d="M225.818 120.8C225.818 120.8 221.301 113.656 225.274 106.984C225.274 106.984 232.895 111.86 229.515 120.8H225.818Z" fill="#E6E8EE"/>
<path d="M226.98 120.806C226.98 120.806 229.369 113.257 236.592 111.867C236.592 111.867 237.941 116.743 231.912 120.863L226.98 120.806Z" fill="#E6E8EE"/>
<path d="M222.292 120.641L223.6 129.612L231.863 129.645L233.082 120.681L222.292 120.641Z" fill="#24285B"/>
</svg>
