<svg id="ico_bookmark2" xmlns="http://www.w3.org/2000/svg" width="24" height="24" viewBox="0 0 24 24">
  <g id="グループ_1574" data-name="グループ 1574" transform="translate(-638 -92)">
    <rect id="長方形_644" data-name="長方形 644" width="24" height="24" transform="translate(638 92)" fill="none"/>
    <g id="グループ_1573" data-name="グループ 1573" transform="translate(643 95.999)">
      <g id="グループ_1576" data-name="グループ 1576" transform="translate(1 0)">
        <path id="パス_1078" data-name="パス 1078" d="M0,8.578Q0,5.44,0,2.3A2.106,2.106,0,0,1,2.063,0Q6,0,9.935,0a2.028,2.028,0,0,1,2.01,1.734A2.842,2.842,0,0,1,12,2.3q0,6.325,0,12.65a1.291,1.291,0,0,1-.713,1.259A1.04,1.04,0,0,1,10,15.939Q8.2,14.148,6.378,12.369a.468.468,0,0,0-.761,0q-1.826,1.8-3.653,3.593a1.012,1.012,0,0,1-1.254.245A1.269,1.269,0,0,1,0,14.989q0-3.205,0-6.411m.7.011v6.2c0,.064,0,.127,0,.191a.53.53,0,0,0,.287.519.426.426,0,0,0,.517-.132q1.813-1.785,3.63-3.566a1.113,1.113,0,0,1,1.689-.008l2.163,2.124c.5.489.994.98,1.494,1.465a.432.432,0,0,0,.758-.2,1.058,1.058,0,0,0,.026-.264q0-6.307,0-12.613A1.364,1.364,0,0,0,9.884.782q-3.9,0-7.805,0a1.524,1.524,0,0,0-.392.043A1.419,1.419,0,0,0,.7,2.311Q.7,5.45.7,8.589" transform="translate(0 0)" />
        <path id="パス_1078_-_アウトライン" data-name="パス 1078 - アウトライン" d="M1.186,16.483a1.209,1.209,0,0,1-.544-.138,1.42,1.42,0,0,1-.791-1.356q0-2.333,0-4.667V6.838q0-2.269,0-4.537A2.265,2.265,0,0,1,2.062-.149q3.936,0,7.873,0a2.182,2.182,0,0,1,2.157,1.854,2.993,2.993,0,0,1,.055.6c0,4.2,0,8.381,0,12.65a1.442,1.442,0,0,1-.8,1.394,1.19,1.19,0,0,1-1.454-.3c-.924-.915-1.867-1.841-2.778-2.736l-.848-.833A.421.421,0,0,0,6,12.326a.429.429,0,0,0-.277.154L4.465,13.717q-1.2,1.178-2.4,2.356A1.255,1.255,0,0,1,1.186,16.483ZM6.074.15H2.063A1.954,1.954,0,0,0,.15,2.3q0,2.269,0,4.537v3.484q0,2.333,0,4.667a1.123,1.123,0,0,0,.626,1.088.913.913,0,0,0,.409.106.969.969,0,0,0,.673-.324q1.2-1.179,2.4-2.357l1.258-1.237A.7.7,0,0,1,6,12.026a.694.694,0,0,1,.483.237l.848.833c.912.9,1.855,1.822,2.779,2.737a1.008,1.008,0,0,0,.707.347.915.915,0,0,0,.4-.1,1.146,1.146,0,0,0,.63-1.125c0-4.269,0-8.449,0-12.649a2.694,2.694,0,0,0-.049-.537A1.871,1.871,0,0,0,9.935.151ZM1.162,15.693a.564.564,0,0,1-.238-.057.671.671,0,0,1-.372-.652c0-.05,0-.1,0-.15V6.786q0-2.238,0-4.476A1.568,1.568,0,0,1,1.648.681,1.647,1.647,0,0,1,2.078.634q3.9,0,7.805,0A1.506,1.506,0,0,1,11.417,2.3c0,4.149,0,8.367,0,12.446v.168a1.21,1.21,0,0,1-.031.3.584.584,0,0,1-.558.469.651.651,0,0,1-.449-.2c-.36-.35-.724-.708-1.077-1.054l-.419-.412L6.72,11.9a1.059,1.059,0,0,0-.733-.341,1.079,1.079,0,0,0-.746.349l-1.55,1.522q-1.04,1.021-2.08,2.043A.64.64,0,0,1,1.162,15.693ZM6.884.932l-4.806,0a1.363,1.363,0,0,0-.353.038,1.266,1.266,0,0,0-.874,1.34q0,2.238,0,4.475v8.048c0,.049,0,.1,0,.146,0,.26.117.345.2.385a.248.248,0,0,0,.108.028.365.365,0,0,0,.239-.131q1.039-1.023,2.08-2.044L5.031,11.7a1.37,1.37,0,0,1,.956-.435,1.35,1.35,0,0,1,.943.427l2.163,2.124.419.412c.352.346.715.7,1.075,1.053a.354.354,0,0,0,.24.111.29.29,0,0,0,.268-.245.936.936,0,0,0,.022-.226v-.168c0-4.079,0-8.3,0-12.446A1.214,1.214,0,0,0,9.883.932Z" transform="translate(0 0)" />
      </g>
    </g>
  </g>
</svg>
