<svg id="ico_personal" xmlns="http://www.w3.org/2000/svg" width="24" height="24" viewBox="0 0 24 24">
  <rect id="長方形_645" data-name="長方形 645" width="24" height="24" fill="none"/>
  <path id="合体_11" data-name="合体 11" d="M.314,16.629a1.629,1.629,0,0,1-.3-1.163c.455-3.6,3.848-6.316,7.893-6.316s7.428,2.708,7.891,6.3a1.631,1.631,0,0,1-.3,1.163A9.384,9.384,0,0,1,7.9,20.15,9.391,9.391,0,0,1,.314,16.629Zm.68-1.051a.725.725,0,0,0,.134.519A8.377,8.377,0,0,0,7.9,19.211a8.369,8.369,0,0,0,6.782-3.128.725.725,0,0,0,.132-.519c-.4-3.122-3.373-5.476-6.909-5.476S1.39,12.449.995,15.578ZM7.9,8.52a4.265,4.265,0,1,1,.006,0ZM4.633,4.26A3.274,3.274,0,1,0,7.907.986,3.278,3.278,0,0,0,4.633,4.26Z" transform="translate(4 2)" fill="#fff"/>
</svg>
