<svg id="ico_follow" xmlns="http://www.w3.org/2000/svg" width="24" height="24" viewBox="0 0 24 24">
  <rect id="長方形_649" data-name="長方形 649" width="24" height="24" fill="none"/>
  <g id="グループ_1694" data-name="グループ 1694" transform="translate(-0.095 0)">
    <path id="前面オブジェクトで型抜き_18" data-name="前面オブジェクトで型抜き 18" d="M4.677,12.742h0A6.062,6.062,0,0,1,.2,10.528a1.014,1.014,0,0,1-.2-.736,4.971,4.971,0,0,1,5.143-4A5.658,5.658,0,0,1,8.5,6.864c-.183.108-.368.227-.552.358a4.956,4.956,0,0,0-2.8-.835,4.341,4.341,0,0,0-4.5,3.476.451.451,0,0,0,.088.329,5.4,5.4,0,0,0,4.032,1.96c-.036.19-.067.388-.09.589Zm.476-7.348h0A2.74,2.74,0,0,1,2.374,2.7,2.637,2.637,0,0,1,3.188.79,2.8,2.8,0,0,1,5.151,0,2.741,2.741,0,0,1,7.929,2.693,2.744,2.744,0,0,1,5.153,5.394Zm0-4.77A2.106,2.106,0,0,0,3.019,2.7,2.106,2.106,0,0,0,5.152,4.769,2.106,2.106,0,0,0,7.285,2.7,2.106,2.106,0,0,0,5.152.624Z" transform="translate(2.095 2)" />
    <g id="グループ_1692" data-name="グループ 1692" transform="translate(7.245 8.3)">
      <path id="前面オブジェクトで型抜き_10" data-name="前面オブジェクトで型抜き 10" d="M7.351,14.7A7.35,7.35,0,1,1,14.7,7.349,7.359,7.359,0,0,1,7.351,14.7ZM6.794,5.019v6.164c0,.025,0,.05,0,.074a.625.625,0,0,0,.532.579.64.64,0,0,0,.079,0,.6.6,0,0,0,.576-.423.9.9,0,0,0,.036-.278V5.019l2.266,2.362L10.3,7.4a1.147,1.147,0,0,0,.089.088.614.614,0,0,0,.385.139.584.584,0,0,0,.174-.026.616.616,0,0,0,.41-.418A.649.649,0,0,0,11.39,7a.679.679,0,0,0-.215-.478l-.7-.727-.7-.727-.7-.724L8.852,4.1l-.917-.955a1.47,1.47,0,0,0-.2-.166L7.714,2.96l-.049-.039a.279.279,0,0,0-.173-.061H7.323a.279.279,0,0,0-.174.061c-.021.018-.044.035-.067.052l-.014.01a1.523,1.523,0,0,0-.189.161q-.913.948-1.823,1.9l-.94.98-.479.5a.879.879,0,0,0-.093.106.645.645,0,0,0-.028.7.562.562,0,0,0,.628.284A.772.772,0,0,0,4.51,7.4c.7-.729,1.409-1.462,2.094-2.178l.187-.2Z" transform="translate(0 0)" />
    </g>
  </g>
</svg>
