<svg id="ico_follower" xmlns="http://www.w3.org/2000/svg" width="24" height="24" viewBox="0 0 24 24">
  <rect id="長方形_649" data-name="長方形 649" width="24" height="24" fill="none"/>
  <g id="グループ_1695" data-name="グループ 1695" transform="translate(-0.048 1)">
    <path id="前面オブジェクトで型抜き_19" data-name="前面オブジェクトで型抜き 19" d="M1443.5-2746.864h0a4.684,4.684,0,0,1-3.346-1.585.7.7,0,0,1-.149-.528,3.729,3.729,0,0,1,3.9-2.867,4.606,4.606,0,0,1,1.891.4c-.108.1-.219.214-.33.332a4.09,4.09,0,0,0-1.561-.306,3.259,3.259,0,0,0-3.414,2.493.308.308,0,0,0,.066.236,4.175,4.175,0,0,0,3.005,1.4c-.023.136-.044.278-.061.423Zm.405-5.267h0a2.03,2.03,0,0,1-2.1-1.936,2.027,2.027,0,0,1,2.105-1.933,2.028,2.028,0,0,1,2.107,1.931A2.03,2.03,0,0,1,1443.907-2752.131Zm0-3.422a1.558,1.558,0,0,0-1.617,1.487,1.558,1.558,0,0,0,1.617,1.487,1.558,1.558,0,0,0,1.617-1.487A1.558,1.558,0,0,0,1443.906-2755.552Z" transform="translate(-1438.953 2761)" />
    <path id="前面オブジェクトで型抜き_21" data-name="前面オブジェクトで型抜き 21" d="M1455.45-2746.867h0c-.016-.139-.036-.281-.061-.422a4.159,4.159,0,0,0,2.959-1.406.311.311,0,0,0,.065-.236,3.261,3.261,0,0,0-3.413-2.487,4.044,4.044,0,0,0-1.527.292c-.107-.114-.218-.226-.332-.333a4.622,4.622,0,0,1,1.859-.385,3.732,3.732,0,0,1,3.9,2.86.7.7,0,0,1-.147.528,4.67,4.67,0,0,1-3.3,1.589Zm-.448-5.263h0a2.028,2.028,0,0,1-2.1-1.936,1.842,1.842,0,0,1,.617-1.366A2.19,2.19,0,0,1,1455-2756a2.028,2.028,0,0,1,2.107,1.931A2.03,2.03,0,0,1,1455-2752.131Zm0-3.422a1.558,1.558,0,0,0-1.617,1.487,1.558,1.558,0,0,0,1.617,1.487,1.558,1.558,0,0,0,1.617-1.487A1.558,1.558,0,0,0,1455-2755.552Z" transform="translate(-1436 2761)" />
    <path id="前面オブジェクトで型抜き_20" data-name="前面オブジェクトで型抜き 20" d="M1444.225-2748.482h0a.688.688,0,0,1-.123-.494,3.729,3.729,0,0,1,3.9-2.867,3.734,3.734,0,0,1,3.9,2.86.7.7,0,0,1-.127.5c-.13-.076-.269-.152-.415-.225a.306.306,0,0,0,.057-.224,3.263,3.263,0,0,0-3.414-2.487,3.259,3.259,0,0,0-3.414,2.493.3.3,0,0,0,.054.219c-.132.066-.272.141-.414.225Zm3.777-3.649h0a2.03,2.03,0,0,1-2.1-1.936A2.027,2.027,0,0,1,1448-2756a2.028,2.028,0,0,1,2.107,1.931A2.03,2.03,0,0,1,1448-2752.131Zm0-3.422a1.558,1.558,0,0,0-1.617,1.487,1.558,1.558,0,0,0,1.617,1.487,1.558,1.558,0,0,0,1.617-1.487A1.558,1.558,0,0,0,1448-2755.552Z" transform="translate(-1436 2757)" />
    <g id="グループ_1693" data-name="グループ 1693" transform="translate(109.805 2791.757) rotate(180)">
      <path id="前面オブジェクトで型抜き_10" data-name="前面オブジェクトで型抜き 10" d="M7,14a7,7,0,1,1,7-7A7.009,7.009,0,0,1,7,14ZM6.47,4.78v5.87c0,.024,0,.047,0,.071a.6.6,0,0,0,.507.551.61.61,0,0,0,.076,0,.574.574,0,0,0,.548-.4.856.856,0,0,0,.035-.265V4.78L9.795,7.029l.017.017A1.093,1.093,0,0,0,9.9,7.13a.585.585,0,0,0,.367.132.557.557,0,0,0,.165-.025.586.586,0,0,0,.391-.4.618.618,0,0,0,.027-.176.646.646,0,0,0-.2-.455l-.665-.692-.665-.692-.662-.689L8.43,3.9l-.873-.91a1.4,1.4,0,0,0-.188-.158l-.023-.017L7.3,2.781a.265.265,0,0,0-.165-.058H6.974a.265.265,0,0,0-.165.058c-.02.017-.042.033-.064.049l-.013.01a1.45,1.45,0,0,0-.18.154q-.87.9-1.737,1.808l-.9.933-.457.477a.837.837,0,0,0-.088.1.614.614,0,0,0-.027.665.535.535,0,0,0,.6.271.735.735,0,0,0,.348-.2c.671-.695,1.342-1.393,1.994-2.074l.178-.186Z" transform="translate(90.757 2769.757)" />
    </g>
  </g>
</svg>
