<svg id="ico_view" xmlns="http://www.w3.org/2000/svg" width="24" height="24" viewBox="0 0 24 24">
  <rect id="長方形_497" data-name="長方形 497" width="24" height="24" fill="none"/>
  <path id="パス_39895" data-name="パス 39895" d="M15.559-5.906a1.2,1.2,0,0,1,.191.656,1.2,1.2,0,0,1-.191.656,8.752,8.752,0,0,1-3.2,3.172,8.7,8.7,0,0,1-4.484,1.2,8.7,8.7,0,0,1-4.484-1.2,8.752,8.752,0,0,1-3.2-3.172A1.2,1.2,0,0,1,0-5.25a1.2,1.2,0,0,1,.191-.656,8.752,8.752,0,0,1,3.2-3.172,8.7,8.7,0,0,1,4.484-1.2,8.7,8.7,0,0,1,4.484,1.2A8.752,8.752,0,0,1,15.559-5.906ZM7.875-1.531a3.561,3.561,0,0,0,1.859-.506,3.85,3.85,0,0,0,1.354-1.354,3.561,3.561,0,0,0,.506-1.859,3.561,3.561,0,0,0-.506-1.859A3.85,3.85,0,0,0,9.734-8.463a3.561,3.561,0,0,0-1.859-.506,3.561,3.561,0,0,0-1.859.506A3.85,3.85,0,0,0,4.662-7.109,3.561,3.561,0,0,0,4.156-5.25a3.561,3.561,0,0,0,.506,1.859A3.85,3.85,0,0,0,6.016-2.037,3.561,3.561,0,0,0,7.875-1.531ZM10.719-5.25a2.739,2.739,0,0,1-.834,2.01,2.739,2.739,0,0,1-2.01.834,2.739,2.739,0,0,1-2.01-.834,2.739,2.739,0,0,1-.834-2.01,2.855,2.855,0,0,1,.328-1.34,1.135,1.135,0,0,0,.342.834,1.135,1.135,0,0,0,.834.342,1.135,1.135,0,0,0,.834-.342,1.135,1.135,0,0,0,.342-.834,1.135,1.135,0,0,0-.342-.834,1.135,1.135,0,0,0-.834-.342,2.855,2.855,0,0,1,1.34-.328,2.739,2.739,0,0,1,2.01.834A2.739,2.739,0,0,1,10.719-5.25Z" transform="translate(4 17)" fill="#8b9199"/>
  <rect id="長方形_496" data-name="長方形 496" width="24" height="24" fill="none"/>
</svg>
