<svg id="ico_bookmark" xmlns="http://www.w3.org/2000/svg" width="24" height="24" viewBox="0 0 24 24">
  <path id="パス_1004" data-name="パス 1004" d="M9.187-12.25a1.266,1.266,0,0,1,.93.383,1.266,1.266,0,0,1,.383.93V1.75L5.25-1.312,0,1.75V-10.937a1.266,1.266,0,0,1,.383-.93,1.266,1.266,0,0,1,.93-.383Zm0,11.7V-10.773a.158.158,0,0,0-.055-.109.158.158,0,0,0-.109-.055H1.477a.158.158,0,0,0-.109.055.158.158,0,0,0-.055.109V-.547l3.937-2.3Z" transform="translate(7 17)" fill="#8b9199"/>
  <rect id="長方形_500" data-name="長方形 500" width="24" height="24" fill="none"/>
</svg>
