<svg id="ico_location" xmlns="http://www.w3.org/2000/svg" width="24" height="24" viewBox="0 0 24 24">
  <rect id="長方形_858" data-name="長方形 858" width="24" height="24" fill="none"/>
  <path id="パス_32590" data-name="パス 32590" d="M4.7,1.477a.627.627,0,0,0,.547.273A.627.627,0,0,0,5.8,1.477L7.629-1.148Q9-3.117,9.434-3.8a7.7,7.7,0,0,0,.848-1.654A4.977,4.977,0,0,0,10.5-7a5.067,5.067,0,0,0-.711-2.625,5.35,5.35,0,0,0-1.914-1.914A5.067,5.067,0,0,0,5.25-12.25a5.067,5.067,0,0,0-2.625.711A5.35,5.35,0,0,0,.711-9.625,5.067,5.067,0,0,0,0-7,4.977,4.977,0,0,0,.219-5.455,7.7,7.7,0,0,0,1.066-3.8q.437.684,1.8,2.652Q3.992.437,4.7,1.477ZM5.25-4.812a2.106,2.106,0,0,1-1.545-.643A2.106,2.106,0,0,1,3.062-7a2.106,2.106,0,0,1,.643-1.545A2.106,2.106,0,0,1,5.25-9.187a2.106,2.106,0,0,1,1.545.643A2.106,2.106,0,0,1,7.437-7a2.106,2.106,0,0,1-.643,1.545A2.106,2.106,0,0,1,5.25-4.812Z" transform="translate(7 17)" fill="#8b9199"/>
</svg>
