<svg width="18" height="21" viewBox="0 0 18 21" fill="none" xmlns="http://www.w3.org/2000/svg">
<path d="M7.63281 1.20312C8.57031 0.682292 9.50781 0.682292 10.4453 1.20312L16.4219 4.64062C17.3333 5.21354 17.8021 6.02083 17.8281 7.0625V13.9766C17.8021 15.0443 17.3333 15.8516 16.4219 16.3984L10.4453 19.875C9.50781 20.3698 8.57031 20.3698 7.63281 19.875L1.65625 16.3984C0.744792 15.8516 0.276042 15.0443 0.25 13.9766V7.0625C0.276042 6.02083 0.744792 5.21354 1.65625 4.64062L7.63281 1.20312ZM4 7.17969C3.84375 6.86719 3.60938 6.73698 3.29688 6.78906C2.98438 6.86719 2.8151 7.07552 2.78906 7.41406V13.6641C2.8151 14.0286 3.02344 14.237 3.41406 14.2891C3.80469 14.237 4.01302 14.0286 4.03906 13.6641V10.6562L5.32812 13.8984C5.45833 14.1849 5.69271 14.3021 6.03125 14.25C6.34375 14.1719 6.51302 13.9766 6.53906 13.6641V7.41406C6.51302 7.02344 6.30469 6.8151 5.91406 6.78906C5.52344 6.8151 5.3151 7.02344 5.28906 7.41406V10.4219L4 7.17969ZM7.78906 13.6641C7.8151 14.0286 8.02344 14.237 8.41406 14.2891C8.80469 14.237 9.01302 14.0286 9.03906 13.6641V11.1641H10.2891C10.6797 11.112 10.888 10.9036 10.9141 10.5391C10.888 10.1484 10.6797 9.9401 10.2891 9.91406H9.03906V8.03906H10.2891C10.6797 7.98698 10.888 7.77865 10.9141 7.41406C10.888 7.02344 10.6797 6.8151 10.2891 6.78906H8.41406C8.02344 6.8151 7.8151 7.02344 7.78906 7.41406V13.6641ZM12.1641 6.78906C11.7734 6.8151 11.5651 7.02344 11.5391 7.41406C11.5651 7.77865 11.7734 7.98698 12.1641 8.03906H12.7891V13.6641C12.8151 14.0286 13.0234 14.237 13.4141 14.2891C13.8047 14.237 14.013 14.0286 14.0391 13.6641V8.03906H14.6641C15.0547 7.98698 15.263 7.77865 15.2891 7.41406C15.263 7.02344 15.0547 6.8151 14.6641 6.78906H12.1641Z" fill="#199BD8"/>
</svg>
