<svg id="ico_profilephoto" xmlns="http://www.w3.org/2000/svg" xmlns:xlink="http://www.w3.org/1999/xlink" width="40" height="40" viewBox="0 0 40 40">
  <defs>
    <clipPath id="clip-path">
      <circle id="楕円形_32" data-name="楕円形 32" cx="20" cy="20" r="20" fill="#b7b7b7"/>
    </clipPath>
  </defs>
  <g id="グループ_967" data-name="グループ 967">
    <circle id="楕円形_31" data-name="楕円形 31" cx="20" cy="20" r="20" fill="#b7b7b7"/>
    <g id="マスクグループ_4" data-name="マスクグループ 4" clip-path="url(#clip-path)">
      <g id="グループ_967-2" data-name="グループ 967" transform="translate(-6.793 4.983)">
        <path id="パス_828" data-name="パス 828" d="M1.882,6.276A1.884,1.884,0,0,1,0,4.394V1.885A1.884,1.884,0,0,1,1.882,0L2.5,0C3.764,0,3.764.171,3.764.63V5.649c0,.459,0,.63-1.266.63Z" transform="translate(13.62 13.883)" fill="#fff"/>
        <path id="パス_829" data-name="パス 829" d="M3.127,1.255a5.545,5.545,0,0,1,.637.026V6.252a5.473,5.473,0,0,1-.637.028H2.838l-.329,0A1.256,1.256,0,0,1,1.255,5.021V2.512A1.257,1.257,0,0,1,2.509,1.257h.617ZM3.127,0,2.509,0A2.517,2.517,0,0,0,0,2.512V5.021A2.517,2.517,0,0,0,2.509,7.531c.212,0,.419,0,.617,0,1.084,0,1.892-.09,1.892-1.258V1.257C5.019.09,4.211,0,3.127,0" transform="translate(12.991 13.256)" fill="#0ab4af"/>
        <path id="パス_830" data-name="パス 830" d="M1.266,6.28C0,6.28,0,6.108,0,5.65V.631C0,.172,0,0,1.266,0l.616,0A1.884,1.884,0,0,1,3.764,1.886V4.4A1.884,1.884,0,0,1,1.882,6.277Z" transform="translate(36.203 13.883)" fill="#fff"/>
        <path id="パス_831" data-name="パス 831" d="M1.893,1.255h.616A1.257,1.257,0,0,1,3.764,2.512V5.021A1.256,1.256,0,0,1,2.509,6.276l-.329,0H1.893a5.484,5.484,0,0,1-.639-.028V1.281a5.573,5.573,0,0,1,.639-.026M1.893,0C.808,0,0,.09,0,1.257V6.276C0,7.444.808,7.534,1.893,7.534c.2,0,.4,0,.616,0A2.517,2.517,0,0,0,5.019,5.021V2.512A2.517,2.517,0,0,0,2.509,0L1.893,0" transform="translate(35.576 13.256)" fill="#0ab4af"/>
        <rect id="長方形_405" data-name="長方形 405" width="7.528" height="10.038" transform="translate(14.874 40.15)" fill="#fff"/>
        <path id="パス_832" data-name="パス 832" d="M7.528,10.038H1.255V1.255H7.528ZM8.783,0H0V11.292H8.783Z" transform="translate(14.246 39.523)" fill="#0ab4af"/>
        <rect id="長方形_406" data-name="長方形 406" width="7.528" height="10.038" transform="translate(31.186 40.15)" fill="#fff"/>
        <path id="パス_833" data-name="パス 833" d="M7.528,10.038H1.255V1.255H7.528ZM8.783,0H0V11.292H8.783Z" transform="translate(30.557 39.523)" fill="#0ab4af"/>
        <path id="パス_834" data-name="パス 834" d="M1.41,7.528a1.433,1.433,0,0,1-1.046-.3c-.4-.408-.376-1.4-.351-2.538.006-.3.013-.61.013-.927A3.769,3.769,0,0,1,3.788,0H8.807a3.768,3.768,0,0,1,3.764,3.764c0,.434.02.854.038,1.252.044.975.087,1.9-.247,2.246a1.353,1.353,0,0,1-.974.266Z" transform="translate(28.65 48.933)" fill="#fff"/>
        <path id="パス_835" data-name="パス 835" d="M9.436,1.255a3.141,3.141,0,0,1,3.137,3.137c0,.444.019.873.038,1.281a5.609,5.609,0,0,1-.068,1.778,1.12,1.12,0,0,1-.526.078H2.037a1.028,1.028,0,0,1-.6-.11,5.194,5.194,0,0,1-.173-2.085c.006-.3.014-.619.014-.941A3.14,3.14,0,0,1,4.417,1.255ZM9.436,0H4.417A4.4,4.4,0,0,0,.025,4.391c0,2.415-.4,4.391,2.011,4.391h9.98c2.414,0,1.811-1.976,1.811-4.391A4.405,4.405,0,0,0,9.436,0" transform="translate(28.023 48.306)" fill="#0ab4af"/>
        <path id="パス_836" data-name="パス 836" d="M1.328,7.528A1.4,1.4,0,0,1,.319,7.246c-.365-.376-.335-1.307-.3-2.384.011-.351.024-.719.024-1.1A3.768,3.768,0,0,1,3.809,0H8.827a3.769,3.769,0,0,1,3.764,3.764c0,.34.008.671.016.99.029,1.118.054,2.085-.332,2.482a1.416,1.416,0,0,1-1.034.292Z" transform="translate(12.321 48.933)" fill="#fff"/>
        <path id="パス_837" data-name="パス 837" d="M9.454,1.255a3.141,3.141,0,0,1,3.137,3.137c0,.345.008.683.015,1.006a5.188,5.188,0,0,1-.153,2.028,1.038,1.038,0,0,1-.585.1H1.953a1.087,1.087,0,0,1-.557-.09,5.323,5.323,0,0,1-.123-1.928c.013-.358.025-.733.025-1.118A3.14,3.14,0,0,1,4.435,1.255ZM9.454,0H4.435A4.4,4.4,0,0,0,.044,4.391c0,2.415-.5,4.391,1.91,4.391h9.915c2.417,0,1.977-1.976,1.977-4.391A4.405,4.405,0,0,0,9.454,0" transform="translate(11.694 48.306)" fill="#0ab4af"/>
        <path id="パス_838" data-name="パス 838" d="M.686,3.137A.686.686,0,0,1,0,2.452,2.4,2.4,0,0,1,2.388,0h7.647a2.39,2.39,0,0,1,2.388,2.388.735.735,0,0,1-.73.749Z" transform="translate(12.364 53.325)" fill="#fff"/>
        <path id="パス_839" data-name="パス 839" d="M10.662,1.255a1.766,1.766,0,0,1,1.76,1.78.106.106,0,0,1-.1.1H1.312a.062.062,0,0,1-.058-.058V3.015a1.762,1.762,0,0,1,1.76-1.76Zm0-1.255H3.015A3.023,3.023,0,0,0,0,3.015v.064A1.317,1.317,0,0,0,1.312,4.391H12.321a1.361,1.361,0,0,0,1.356-1.356v-.02A3.023,3.023,0,0,0,10.662,0" transform="translate(11.738 52.697)" fill="#0ab4af"/>
        <path id="パス_840" data-name="パス 840" d="M.685,3.137A.686.686,0,0,1,0,2.452,2.4,2.4,0,0,1,2.388,0h7.647a2.391,2.391,0,0,1,2.388,2.388.735.735,0,0,1-.729.749Z" transform="translate(28.867 53.325)" fill="#fff"/>
        <path id="パス_841" data-name="パス 841" d="M10.662,1.255a1.766,1.766,0,0,1,1.76,1.78.106.106,0,0,1-.1.1H1.312a.062.062,0,0,1-.058-.058V3.015a1.762,1.762,0,0,1,1.76-1.76Zm0-1.255H3.015A3.023,3.023,0,0,0,0,3.015v.064A1.317,1.317,0,0,0,1.312,4.391H12.321a1.361,1.361,0,0,0,1.356-1.356v-.02A3.023,3.023,0,0,0,10.662,0" transform="translate(28.239 52.697)" fill="#0ab4af"/>
        <rect id="長方形_407" data-name="長方形 407" width="11.292" height="3.764" transform="translate(21.148 23.839)" fill="#fff"/>
        <path id="パス_842" data-name="パス 842" d="M11.292,3.764H1.255V1.255H11.292ZM12.547,0H0V5.019H12.547Z" transform="translate(20.52 23.212)" fill="#0ab4af"/>
        <rect id="長方形_408" data-name="長方形 408" width="30.113" height="17.208" rx="8.604" transform="translate(11.672 26.349)" fill="#fff"/>
        <path id="パス_843" data-name="パス 843" d="M22.363,1.255A7.759,7.759,0,0,1,30.113,9v.454a7.759,7.759,0,0,1-7.75,7.749H9A7.758,7.758,0,0,1,1.255,9.459V9A7.758,7.758,0,0,1,9,1.255Zm0-1.255H9A9,9,0,0,0,0,9v.454a9,9,0,0,0,9,9H22.363a9,9,0,0,0,9-9V9a9,9,0,0,0-9-9" transform="translate(11.045 25.721)" fill="#0ab4af"/>
        <path id="パス_844" data-name="パス 844" d="M5.13,11.9a4.389,4.389,0,0,1,3.652,4.317H7.528A3.131,3.131,0,0,0,4.6,13.1l-.24-.019a3.138,3.138,0,0,0-3.11,3.134H0a4.384,4.384,0,0,1,3.868-4.338A17.208,17.208,0,0,1,11.5,0l.679,1.055A15.949,15.949,0,0,0,5.13,11.9" transform="translate(0 35.033)" fill="#0ab4af"/>
        <path id="パス_845" data-name="パス 845" d="M12.182,16.213H10.927a3.137,3.137,0,1,0-6.273,0H3.4A4.388,4.388,0,0,1,7.051,11.9,15.956,15.956,0,0,0,0,1.054L.679,0A17.209,17.209,0,0,1,8.314,11.874a4.384,4.384,0,0,1,3.868,4.339" transform="translate(41.405 35.034)" fill="#0ab4af"/>
        <path id="パス_846" data-name="パス 846" d="M1.882,3.764A1.882,1.882,0,0,1,1.882,0H8.156a1.882,1.882,0,1,1,0,3.764Z" transform="translate(21.727 7.528)" fill="#fff"/>
        <path id="パス_847" data-name="パス 847" d="M8.783,1.255a1.255,1.255,0,0,1,0,2.509H2.509a1.255,1.255,0,1,1,0-2.509ZM8.783,0H2.509a2.509,2.509,0,1,0,0,5.019H8.783A2.509,2.509,0,0,0,8.783,0" transform="translate(21.099 6.901)" fill="#0ab4af"/>
        <path id="パス_848" data-name="パス 848" d="M6.9,13.8A6.9,6.9,0,1,1,6.9,0h6.9a6.9,6.9,0,1,1,0,13.8Z" transform="translate(16.443 10.038)" fill="#fff"/>
        <path id="パス_849" data-name="パス 849" d="M14.429,1.255a6.274,6.274,0,1,1,0,12.547h-6.9a6.274,6.274,0,1,1,0-12.547Zm0-1.255h-6.9a7.528,7.528,0,1,0,0,15.056h6.9A7.528,7.528,0,1,0,14.429,0" transform="translate(15.815 9.41)" fill="#0ab4af"/>
        <rect id="長方形_409" data-name="長方形 409" width="1.255" height="5.634" transform="translate(26.119 2.176)" fill="#0ab4af"/>
        <path id="パス_850" data-name="パス 850" d="M2.2,4.391a2.2,2.2,0,1,1,2.2-2.2,2.2,2.2,0,0,1-2.2,2.2" transform="translate(24.551 0.627)" fill="#fff"/>
        <path id="パス_851" data-name="パス 851" d="M2.823,1.255A1.568,1.568,0,1,1,1.255,2.823,1.571,1.571,0,0,1,2.823,1.255M2.823,0A2.823,2.823,0,1,0,5.646,2.823,2.831,2.831,0,0,0,2.823,0" transform="translate(23.922 0)" fill="#0ab4af"/>
        <path id="パス_852" data-name="パス 852" d="M1.752,0A1.752,1.752,0,1,0,3.5,1.752,1.753,1.753,0,0,0,1.752,0" transform="translate(20.651 17.199)" fill="#0ab4af"/>
        <path id="パス_853" data-name="パス 853" d="M1.752,0A1.752,1.752,0,1,0,3.5,1.752,1.753,1.753,0,0,0,1.752,0" transform="translate(29.434 17.199)" fill="#0ab4af"/>
        <path id="パス_854" data-name="パス 854" d="M18.821,0a1.233,1.233,0,0,0-1.063.627H2.317A1.236,1.236,0,0,0,1.255,0a1.255,1.255,0,0,0,0,2.509,1.24,1.24,0,0,0,1.063-.627h15.44a1.237,1.237,0,0,0,1.063.627,1.255,1.255,0,0,0,0-2.509" transform="translate(16.757 37.911)" fill="#0ab4af"/>
        <path id="パス_855" data-name="パス 855" d="M2.509,0H1.255L0,3.764H3.764Z" transform="translate(24.911 32.892)" fill="#0ab4af"/>
        <rect id="長方形_410" data-name="長方形 410" width="1.255" height="3.764" transform="translate(21.626 32.892)" fill="#0ab4af"/>
        <rect id="長方形_411" data-name="長方形 411" width="1.255" height="3.764" transform="translate(19.116 32.892)" fill="#0ab4af"/>
        <rect id="長方形_412" data-name="長方形 412" width="1.255" height="3.764" transform="translate(31.036 32.892)" fill="#0ab4af"/>
        <rect id="長方形_413" data-name="長方形 413" width="1.255" height="3.764" transform="translate(33.216 32.892)" fill="#0ab4af"/>
      </g>
    </g>
  </g>
  <circle id="楕円形_33" data-name="楕円形 33" cx="20" cy="20" r="20" fill="none"/>
</svg>
