<svg xmlns="http://www.w3.org/2000/svg" xmlns:xlink="http://www.w3.org/1999/xlink" width="136" height="136.209" viewBox="0 0 136 136.209">
  <defs>
    <clipPath id="clip-path">
      <rect id="長方形_414" data-name="長方形 414" width="4.213" height="9.695" fill="none"/>
    </clipPath>
  </defs>
  <g id="figure_tokenfunding" transform="translate(0 0.209)">
    <rect id="長方形_887" data-name="長方形 887" width="136" height="136" fill="none"/>
    <g id="グループ_2003" data-name="グループ 2003" transform="translate(1)">
      <g id="グループ_2002" data-name="グループ 2002" transform="translate(58.91 103.131)">
        <circle id="楕円形_65" data-name="楕円形 65" cx="6.163" cy="6.163" r="6.163" transform="translate(2.739 0)" fill="#b9ccd5"/>
        <path id="長方形_461" data-name="長方形 461" d="M8.9,0h0a8.9,8.9,0,0,1,8.9,8.9V19.173a0,0,0,0,1,0,0H0a0,0,0,0,1,0,0V8.9A8.9,8.9,0,0,1,8.9,0Z" transform="translate(0 13.695)" fill="#b9ccd5"/>
      </g>
      <g id="グループ_2003-2" data-name="グループ 2003" transform="translate(24.66 93.145)">
        <circle id="楕円形_65-2" data-name="楕円形 65" cx="6.163" cy="6.163" r="6.163" transform="translate(2.739)" fill="#b9ccd5"/>
        <path id="長方形_461-2" data-name="長方形 461" d="M8.9,0h0a8.9,8.9,0,0,1,8.9,8.9V19.173a0,0,0,0,1,0,0H0a0,0,0,0,1,0,0V8.9A8.9,8.9,0,0,1,8.9,0Z" transform="translate(0 13.695)" fill="#b9ccd5"/>
      </g>
      <g id="グループ_2004" data-name="グループ 2004" transform="translate(91.791 93.145)">
        <circle id="楕円形_65-3" data-name="楕円形 65" cx="6.163" cy="6.163" r="6.163" transform="translate(2.739)" fill="#b9ccd5"/>
        <path id="長方形_461-3" data-name="長方形 461" d="M8.9,0h0a8.9,8.9,0,0,1,8.9,8.9V19.173a0,0,0,0,1,0,0H0a0,0,0,0,1,0,0V8.9A8.9,8.9,0,0,1,8.9,0Z" transform="translate(0 13.695)" fill="#b9ccd5"/>
      </g>
      <g id="グループ_2005" data-name="グループ 2005" transform="translate(0 54.55)">
        <circle id="楕円形_65-4" data-name="楕円形 65" cx="6.163" cy="6.163" r="6.163" transform="translate(2.739)" fill="#b9ccd5"/>
        <path id="長方形_461-4" data-name="長方形 461" d="M8.9,0h0a8.9,8.9,0,0,1,8.9,8.9V19.173a0,0,0,0,1,0,0H0a0,0,0,0,1,0,0V8.9A8.9,8.9,0,0,1,8.9,0Z" transform="translate(0 13.695)" fill="#b9ccd5"/>
      </g>
      <g id="グループ_2006" data-name="グループ 2006" transform="translate(116.452 54.55)">
        <circle id="楕円形_65-5" data-name="楕円形 65" cx="6.163" cy="6.163" r="6.163" transform="translate(2.739)" fill="#b9ccd5"/>
        <path id="長方形_461-5" data-name="長方形 461" d="M8.9,0h0a8.9,8.9,0,0,1,8.9,8.9V19.173a0,0,0,0,1,0,0H0a0,0,0,0,1,0,0V8.9A8.9,8.9,0,0,1,8.9,0Z" transform="translate(0 13.695)" fill="#b9ccd5"/>
      </g>
      <g id="グループ_2007" data-name="グループ 2007" transform="translate(35.823)">
        <g id="グループ_1102" data-name="グループ 1102" transform="translate(0)">
          <path id="パス_924" data-name="パス 924" d="M63.527,104.827c0,14.31-13.662,16.669-30.514,16.669S2.5,119.137,2.5,104.827,16.162,69.674,33.014,69.674s30.514,20.843,30.514,35.153" transform="translate(-1.709 -44.618)" fill="none" stroke="#0ab4af" stroke-width="2"/>
          <path id="パス_926" data-name="パス 926" d="M78.45,8.654c-1.248-1.317-3.3-1.536-5.623-.826a4.855,4.855,0,0,1-5.639-2.206C66.052,3.678,64.562,2.5,62.932,2.5s-3.12,1.178-4.257,3.122a4.854,4.854,0,0,1-5.639,2.206c-2.321-.71-4.375-.492-5.623.826-2.524,2.665-.793,8.813,3.866,13.732,3.4,3.595,7.428,5.536,10.334,5.282a6.089,6.089,0,0,1,1.052.014q.133.011.267.011t.267-.011a6.086,6.086,0,0,1,1.052-.014c2.906.254,6.93-1.687,10.334-5.282,4.659-4.919,6.39-11.067,3.866-13.732" transform="translate(-31.627 -1.709)" fill="none" stroke="#0ab4af" stroke-width="2"/>
          <path id="パス_928" data-name="パス 928" d="M78.639,75.723H54.863a3.025,3.025,0,1,1,0-6.05H78.639a3.025,3.025,0,0,1,0,6.05" transform="translate(-35.447 -47.642)" fill="#b9ccd5"/>
          <rect id="長方形_463" data-name="長方形 463" width="62.608" height="77.668" fill="none"/>
        </g>
        <g id="グループ_1101" data-name="グループ 1101" transform="translate(15.065 36.183)">
          <g id="パス_935" data-name="パス 935" fill="none">
            <path d="M15.75,0A15.75,15.75,0,1,1,0,15.75,15.75,15.75,0,0,1,15.75,0Z" stroke="none"/>
            <path d="M 15.74950695037842 0.9999961853027344 C 11.80977630615234 0.9999961853027344 8.105846405029297 2.534217834472656 5.320026397705078 5.320026397705078 C 2.534217834472656 8.105846405029297 0.9999961853027344 11.80977630615234 0.9999961853027344 15.74950695037842 C 0.9999961853027344 19.68923568725586 2.534217834472656 23.39316558837891 5.320026397705078 26.17898750305176 C 8.105846405029297 28.96479797363281 11.80977630615234 30.4990177154541 15.74950695037842 30.4990177154541 C 19.68923568725586 30.4990177154541 23.39316558837891 28.96479797363281 26.17898750305176 26.17898750305176 C 28.96479797363281 23.39316558837891 30.4990177154541 19.68923568725586 30.4990177154541 15.74950695037842 C 30.4990177154541 11.80977630615234 28.96479797363281 8.105846405029297 26.17898750305176 5.320026397705078 C 23.39316558837891 2.534217834472656 19.68923568725586 0.9999961853027344 15.74950695037842 0.9999961853027344 M 15.74950695037842 -3.814697265625e-06 C 24.44771575927734 -3.814697265625e-06 31.4990177154541 7.051296234130859 31.4990177154541 15.74950695037842 C 31.4990177154541 24.44771575927734 24.44771575927734 31.4990177154541 15.74950695037842 31.4990177154541 C 7.051296234130859 31.4990177154541 -3.814697265625e-06 24.44771575927734 -3.814697265625e-06 15.74950695037842 C -3.814697265625e-06 7.051296234130859 7.051296234130859 -3.814697265625e-06 15.74950695037842 -3.814697265625e-06 Z" stroke="none" fill="#ccc"/>
          </g>
          <g id="グループ_1078" data-name="グループ 1078" transform="translate(7.426 6.747)">
            <path id="パス_913" data-name="パス 913" d="M23.307,0V4.847l3.16,1.818v4.848l-3.16,1.818v4.847l7.373-4.241v-9.7Z" transform="translate(-13.826 0)" fill="#0ab4af"/>
            <path id="パス_914" data-name="パス 914" d="M7.373,0,0,4.241v9.7l7.373,4.241V13.33l-3.16-1.818V6.665l3.16-1.818Z" transform="translate(0 0)" fill="#0ab4af"/>
            <g id="グループ_970" data-name="グループ 970" transform="translate(12.641 4.241)" opacity="0.4">
              <g id="グループ_969" data-name="グループ 969" transform="translate(0 0)">
                <g id="グループ_968" data-name="グループ 968" clip-path="url(#clip-path)">
                  <path id="パス_860" data-name="パス 860" d="M35.288,20.121v-9.7l-4.213,2.423V17.7Z" transform="translate(-31.074 -10.425)" fill="#fff"/>
                </g>
              </g>
            </g>
            <g id="グループ_973" data-name="グループ 973" transform="translate(0 4.241)" opacity="0.4">
              <g id="グループ_972" data-name="グループ 972" transform="translate(0 0)">
                <g id="グループ_971" data-name="グループ 971" clip-path="url(#clip-path)">
                  <path id="パス_861" data-name="パス 861" d="M0,10.425v9.7L4.213,17.7V12.849Z" transform="translate(0 -10.425)" fill="#fff"/>
                </g>
              </g>
            </g>
            <path id="パス_862" data-name="パス 862" d="M19.756,19.358a2.111,2.111,0,1,0-2.111,2.111,2.111,2.111,0,0,0,2.111-2.111m-3.168,0a1.054,1.054,0,1,1,1.054,1.054,1.054,1.054,0,0,1-1.054-1.054" transform="translate(-9.215 -10.231)" fill="#0ab4af"/>
          </g>
        </g>
      </g>
      <g id="グループ_2008" data-name="グループ 2008" transform="translate(18.541 58.961)">
        <path id="パス_916" data-name="パス 916" d="M245.513,726.814l-10.64-6.6" transform="translate(-149.461 -717.258)" fill="none" stroke="#ccc" stroke-width="1.5"/>
        <path id="パス_917" data-name="パス 917" d="M10.64,6.6,0,0" transform="translate(11.035 3.299) rotate(120)" fill="none" stroke="#ccc" stroke-width="1.5"/>
        <path id="パス_918" data-name="パス 918" d="M208,740.51v11.325" transform="translate(-159.413 -712.046)" fill="none" stroke="#ccc" stroke-width="1.5"/>
        <path id="パス_929" data-name="パス 929" d="M10.64,6.6,0,0" transform="matrix(0.883, 0.469, -0.469, 0.883, 73.682, 19.751)" fill="none" stroke="#ccc" stroke-width="1.5"/>
        <path id="パス_930" data-name="パス 930" d="M10.64,0,0,6.6" transform="matrix(-0.883, 0.469, -0.469, -0.883, 28.277, 25.578)" fill="none" stroke="#ccc" stroke-width="1.5"/>
      </g>
    </g>
  </g>
</svg>
