<svg id="figure_shared" xmlns="http://www.w3.org/2000/svg" xmlns:xlink="http://www.w3.org/1999/xlink" width="136" height="136" viewBox="0 0 136 136">
  <defs>
    <clipPath id="clip-path">
      <rect id="長方形_890" data-name="長方形 890" width="136" height="90.745" fill="none"/>
    </clipPath>
  </defs>
  <g id="グループ_2016" data-name="グループ 2016" transform="translate(-640 -3037)">
    <g id="グループ_2015" data-name="グループ 2015" transform="translate(640 3060)">
      <g id="グループ_2014" data-name="グループ 2014" transform="translate(0 0)" clip-path="url(#clip-path)">
        <g id="グループ_2020" data-name="グループ 2020" transform="translate(88.665 11.773)">
          <path id="パス_39862" data-name="パス 39862" d="M47.413,5.578a3.675,3.675,0,0,1,2.564,3.269,24.824,24.824,0,0,0,5.276,12.018A29.05,29.05,0,0,0,58.6,24a1.525,1.525,0,0,0,1.091.135,55.654,55.654,0,0,1,11.124-.724,49.227,49.227,0,0,1,4.911.494A11,11,0,0,1,83.1,28.663a41.032,41.032,0,0,1,5.141,9.76,7.213,7.213,0,0,1-.236,6.173c-1.87,3.714-3.807,7.38-6.981,10.2A12.091,12.091,0,0,1,79.3,56.174a1.729,1.729,0,0,0-.907,1.718c.034,10.147.03,11.955.027,22.1,0,2.418-1.133,4-3.153,4.457a4.157,4.157,0,0,1-5.025-3.7c-.03-.395-.034-.793-.036-1.192,0-9.094,0-9.849,0-18.945,0-1.37-.61-2.058-1.741-2.011a1.213,1.213,0,0,0-1.277,1.123,6.828,6.828,0,0,0-.042,1.019c0,9.123,0,9.908,0,19.031,0,2.237-.933,3.752-2.686,4.411a4.217,4.217,0,0,1-5.763-3.813c-.053-1.163-.019-2.33-.021-3.5C58.617,60,58.543,51.453,58.543,34.57a2.6,2.6,0,0,0-1.619-2.748A26.816,26.816,0,0,1,44.36,17.029a46.315,46.315,0,0,1-1.743-6.3,4,4,0,0,1,2.819-4.942c.152-.055.3-.137.443-.207ZM78.448,33.9V47.293c.106.032.209.065.314.1.992-1.9,1.988-3.8,2.969-5.713a.849.849,0,0,0,.1-.566A24.156,24.156,0,0,0,78.448,33.9" transform="translate(-42.486 -5.578)" fill="#b9ccd5"/>
          <path id="パス_39863" data-name="パス 39863" d="M58.646,6.676a7.169,7.169,0,0,1,.038,14.338,7.259,7.259,0,0,1-7.217-7.2,7.224,7.224,0,0,1,7.179-7.139" transform="translate(-32.516 -4.359)" fill="#b9ccd5"/>
        </g>
        <g id="グループ_2017" data-name="グループ 2017" transform="translate(2.989 11.598)">
          <g id="グループ_2021" data-name="グループ 2021" transform="translate(0)">
            <path id="パス_39864" data-name="パス 39864" d="M41.411,5.495a3.675,3.675,0,0,0-2.564,3.269,24.824,24.824,0,0,1-5.276,12.018,29.049,29.049,0,0,1-3.347,3.13,1.525,1.525,0,0,1-1.091.135,55.654,55.654,0,0,0-11.124-.724,49.228,49.228,0,0,0-4.911.494A11,11,0,0,0,5.721,28.58,41.032,41.032,0,0,0,.58,38.341a7.213,7.213,0,0,0,.236,6.173c1.87,3.714,3.807,7.38,6.981,10.2a12.254,12.254,0,0,0,1.726,1.384,1.724,1.724,0,0,1,.907,1.716c-.034,10.147-.03,11.955-.027,22.1,0,2.418,1.133,4,3.153,4.457a4.157,4.157,0,0,0,5.025-3.7c.03-.395.034-.793.036-1.192,0-9.094,0-9.849,0-18.945,0-1.37.61-2.058,1.741-2.011a1.213,1.213,0,0,1,1.277,1.123,6.83,6.83,0,0,1,.042,1.019c0,9.123,0,9.908,0,19.031,0,2.237.933,3.752,2.686,4.411a4.217,4.217,0,0,0,5.763-3.813c.053-1.163.019-2.33.021-3.5.055-16.881.129-25.424.129-42.306A2.6,2.6,0,0,1,31.9,31.739,26.816,26.816,0,0,0,44.465,16.946a46.315,46.315,0,0,0,1.743-6.3A4,4,0,0,0,43.389,5.7c-.152-.055-.3-.137-.443-.207ZM10.376,33.816V47.21c-.106.032-.209.065-.314.1-.992-1.9-1.988-3.8-2.969-5.713a.849.849,0,0,1-.1-.566,24.156,24.156,0,0,1,3.381-7.215" transform="translate(0 -5.495)" fill="#b9ccd5"/>
            <path id="パス_39865" data-name="パス 39865" d="M13.338,6.592A7.169,7.169,0,0,0,13.3,20.93a7.259,7.259,0,0,0,7.217-7.2,7.224,7.224,0,0,0-7.179-7.139" transform="translate(6.87 -4.277)" fill="#b9ccd5"/>
          </g>
        </g>
        <g id="グループ_2018" data-name="グループ 2018" transform="translate(45.193 0.995)">
          <g id="グループ_2019" data-name="グループ 2019" transform="translate(0 0)">
            <path id="パス_39868" data-name="パス 39868" d="M2.425,60.223c-.047,0-.094,0-.144,0a2.4,2.4,0,0,1-.064-4.8c.78-.094.936-.271.938-1.049q.006-10.408,0-20.818c0-.762-.086-.936-1-1.051a2.4,2.4,0,0,1,.025-4.785c.825-.1.969-.257.971-1.07q.006-10.377,0-20.754c0-.827-.144-.992-.959-1.092A2.426,2.426,0,0,1,0,2.4,2.469,2.469,0,0,1,2.228.009,2.409,2.409,0,0,1,4.8,2.092c.177,1.018.226,1.057,1.273,1.057H20.057c1.028,0,1.1-.062,1.246-1.065A2.443,2.443,0,0,1,23.662,0h.029a2.426,2.426,0,0,1,2.385,2.1c.135.967.226,1.045,1.2,1.045H41.386c.944,0,1.033-.076,1.187-1.01a2.41,2.41,0,0,1,4.8.207A2.441,2.441,0,0,1,45.162,4.8c-.78.1-.936.273-.938,1.047q-.006,10.408,0,20.818c0,.8.142.946.994,1.051a2.4,2.4,0,0,1-.023,4.785c-.825.1-.971.259-.971,1.072q-.006,10.38,0,20.757c0,.8.082.969,1.026,1.1a2.427,2.427,0,0,1,2.125,2.478,2.457,2.457,0,0,1-2.39,2.316,2.412,2.412,0,0,1-2.394-2.02c-.213-1.125-.213-1.125-1.349-1.125H27.318c-1.022,0-1.092.06-1.244,1.067a2.447,2.447,0,0,1-2.359,2.078h-.029A2.428,2.428,0,0,1,21.3,58.117c-.133-.953-.234-1.039-1.2-1.039H5.989c-.94,0-1.028.074-1.185,1.01a2.44,2.44,0,0,1-2.379,2.135m0-59.2a1.057,1.057,0,0,0-.113,0A1.441,1.441,0,0,0,1.027,2.408a1.412,1.412,0,0,0,1.3,1.375,1.825,1.825,0,0,1,1.858,2.11q.006,10.377,0,20.754a1.818,1.818,0,0,1-1.876,2.09,1.378,1.378,0,0,0-.018,2.747c1.363.17,1.893.751,1.895,2.069q.006,10.411,0,20.818A1.81,1.81,0,0,1,2.343,56.44a1.409,1.409,0,0,0-1.316,1.4,1.427,1.427,0,0,0,1.316,1.351,1.412,1.412,0,0,0,1.449-1.273c.238-1.433.751-1.87,2.2-1.87H20.1c1.478,0,2.016.468,2.219,1.924A1.418,1.418,0,0,0,23.689,59.2H23.7a1.413,1.413,0,0,0,1.357-1.2c.226-1.507.733-1.942,2.258-1.942H41.243c1.634,0,2.053.347,2.359,1.958A1.4,1.4,0,0,0,44.96,59.2h.014a1.379,1.379,0,0,0,.138-2.751C43.7,56.257,43.2,55.7,43.2,54.334q-.006-10.377,0-20.757a1.816,1.816,0,0,1,1.876-2.09,1.378,1.378,0,0,0,.016-2.747c-1.359-.17-1.891-.751-1.893-2.071q-.006-10.411,0-20.818a1.81,1.81,0,0,1,1.837-2.065,1.406,1.406,0,0,0,1.316-1.4,1.385,1.385,0,0,0-2.765-.074c-.234,1.429-.747,1.866-2.2,1.868H27.277c-1.492,0-2.01-.452-2.217-1.928a1.4,1.4,0,0,0-1.369-1.219h-.016a1.406,1.406,0,0,0-1.355,1.205c-.222,1.5-.729,1.942-2.262,1.942H6.071c-1.55,0-2.02-.392-2.283-1.909a1.417,1.417,0,0,0-1.363-1.24" transform="translate(0.001 0)" fill="#0ab4af" stroke="#0ab4af" stroke-linecap="round" stroke-linejoin="round" stroke-width="1"/>
            <path id="パス_39869" data-name="パス 39869" d="M31.472,4.381H6.815a2.493,2.493,0,0,0-2.49,2.49V44.12a2.493,2.493,0,0,0,2.49,2.49H31.472a2.493,2.493,0,0,0,2.49-2.49V6.871a2.493,2.493,0,0,0-2.49-2.49M5.351,25.119V17.825l17.776-7.653,2.794,21.34Zm20.654-.866,6.93,3.6v5.84L26.976,31.84l.023,0Zm6.93-17.382V26.7l-7.093-3.683L23.54,5.407h7.932a1.466,1.466,0,0,1,1.464,1.464M6.815,5.407H22.5l.484,3.707L5.351,16.708V6.871A1.466,1.466,0,0,1,6.815,5.407M5.351,44.12V26.193l12.36,3.843L10.151,45.584H6.815A1.466,1.466,0,0,1,5.351,44.12m26.121,1.464H11.292L18.7,30.344l14.233,4.424V44.12a1.466,1.466,0,0,1-1.464,1.464" transform="translate(4.555 4.613)" fill="#b9ccd5"/>
          </g>
        </g>
      </g>
    </g>
  </g>
  <rect id="長方形_889" data-name="長方形 889" width="136" height="136" fill="none"/>
</svg>
