<svg id="ico_logout" xmlns="http://www.w3.org/2000/svg" width="24" height="24" viewBox="0 0 24 24">
  <rect id="長方形_648" data-name="長方形 648" width="24" height="24" fill="none"/>
  <g id="グループ_1204" data-name="グループ 1204" transform="translate(2 3)">
    <g id="グループ_1581" data-name="グループ 1581">
      <path id="パス_957" data-name="パス 957" d="M110.983,54.692a4.545,4.545,0,0,1-.356.435q-3,2.886-6,5.766a.674.674,0,0,1-.7.214.586.586,0,0,1-.3-.941,1.824,1.824,0,0,1,.148-.149l4.9-4.7c.048-.047.094-.1.169-.174h-.265q-5.917,0-11.834,0a1.157,1.157,0,0,1-.345-.04.588.588,0,0,1-.408-.634.619.619,0,0,1,.578-.522c.071-.005.143,0,.215,0h12.059c-.076-.078-.122-.128-.171-.174q-2.464-2.365-4.926-4.733a.892.892,0,0,1-.245-.41.531.531,0,0,1,.285-.589.632.632,0,0,1,.7.03,1.522,1.522,0,0,1,.157.14q3,2.874,5.991,5.751a4.532,4.532,0,0,1,.356.435Z" transform="translate(-90.983 -45.545)" fill="#fff"/>
      <path id="パス_958" data-name="パス 958" d="M0,3.226c.051-.211.091-.425.154-.633A3.718,3.718,0,0,1,3.706.005C5.164,0,6.622,0,8.08,0a.618.618,0,0,1,.669.59A.617.617,0,0,1,8.08,1.2q-2.119,0-4.237,0A2.453,2.453,0,0,0,1.25,3.7q0,5.3,0,10.6a2.453,2.453,0,0,0,2.592,2.493q2.119,0,4.237,0a.6.6,0,0,1,.628.808.583.583,0,0,1-.568.387c-1.53,0-3.06.029-4.589-.008A3.671,3.671,0,0,1,.037,14.891.8.8,0,0,0,0,14.769V3.226" transform="translate(0 -0.001)" fill="#fff"/>
    </g>
  </g>
</svg>
