<svg width="133" height="41" viewBox="0 0 133 41" fill="none" xmlns="http://www.w3.org/2000/svg">
<ellipse cx="20.4533" cy="20.459" rx="20.2726" ry="20.278" transform="rotate(0.51378 20.4533 20.459)" fill="url(#paint0_linear_2802_23530)"/>
<ellipse cx="20.4533" cy="20.459" rx="20.2726" ry="20.278" transform="rotate(0.51378 20.4533 20.459)" fill="url(#paint1_linear_2802_23530)"/>
<path d="M8.78809 26.9903L10.253 19.4642C10.7728 16.7332 12.0989 14.3564 13.9326 12.5013C15.8091 10.6029 18.2276 9.41305 20.4602 9.41305C22.6972 9.41305 24.9318 10.5273 26.6192 12.328C28.3043 14.1263 29.3915 16.5549 29.3915 19.0996V29.3533C29.3915 30.1016 29.9472 30.819 30.7619 30.819C31.5767 30.819 32.1323 30.1016 32.1323 29.3533V19.4167C32.1323 12.3049 26.9644 6.42871 20.4602 6.42871C13.956 6.42871 8.78809 12.3049 8.78809 19.4167V30.0404V26.9903Z" fill="white"/>
<circle cx="24.5718" cy="22.5947" r="1.70165" fill="white"/>
<path d="M51.6169 31.37C51.3903 31.37 51.2152 31.3083 51.0916 31.1848C50.968 31.0408 50.9062 30.8659 50.9062 30.6601V10.5052C50.9062 10.2789 50.968 10.104 51.0916 9.98051C51.2152 9.83647 51.3903 9.76445 51.6169 9.76445H58.6304C60.752 9.76445 62.4616 10.0834 63.7593 10.7213C65.057 11.3591 66.0045 12.3057 66.6018 13.5609C67.1992 14.7955 67.5081 16.3181 67.5287 18.1289C67.5493 19.0548 67.5596 19.8676 67.5596 20.5672C67.5596 21.2668 67.5493 22.0693 67.5287 22.9747C67.4875 24.8678 67.1683 26.4419 66.5709 27.6971C65.9942 28.9317 65.0673 29.8576 63.7902 30.4749C62.5337 31.0717 60.8653 31.37 58.7849 31.37H51.6169ZM53.9341 28.7465H58.6304C60.0517 28.7465 61.1846 28.551 62.0291 28.16C62.8736 27.7691 63.4812 27.1415 63.852 26.2773C64.2434 25.4131 64.4493 24.271 64.4699 22.8513C64.5111 22.2339 64.5317 21.699 64.5317 21.2463C64.5317 20.773 64.5317 20.31 64.5317 19.8573C64.5317 19.3841 64.5111 18.8491 64.4699 18.2524C64.4287 16.2564 63.955 14.7852 63.0487 13.8386C62.1424 12.8715 60.6181 12.388 58.476 12.388H53.9341V28.7465Z" fill="#303548"/>
<path d="M79.7469 31.6787C77.6254 31.6787 75.9363 31.0305 74.6799 29.7342C73.4234 28.4173 72.7334 26.6271 72.6098 24.3636C72.5892 24.0961 72.5789 23.7566 72.5789 23.3451C72.5789 22.913 72.5892 22.5632 72.6098 22.2957C72.6922 20.8347 73.032 19.559 73.6294 18.4684C74.2267 17.3573 75.0403 16.5033 76.0702 15.9066C77.1207 15.3099 78.3463 15.0115 79.7469 15.0115C81.3124 15.0115 82.6203 15.3407 83.6708 15.9992C84.7419 16.6577 85.5555 17.5939 86.1117 18.8079C86.6678 20.022 86.9459 21.4417 86.9459 23.0673V23.592C86.9459 23.8184 86.8738 23.9933 86.7296 24.1167C86.606 24.2402 86.4412 24.3019 86.2353 24.3019H75.545C75.545 24.3225 75.545 24.3636 75.545 24.4254C75.545 24.4871 75.545 24.5385 75.545 24.5797C75.5862 25.4233 75.7716 26.2155 76.1011 26.9563C76.4307 27.6765 76.9044 28.2629 77.5224 28.7156C78.1403 29.1683 78.8818 29.3947 79.7469 29.3947C80.4885 29.3947 81.1064 29.2815 81.6008 29.0551C82.0951 28.8288 82.4968 28.5819 82.8057 28.3144C83.1147 28.0263 83.3207 27.8102 83.4237 27.6662C83.609 27.3987 83.7532 27.2444 83.8562 27.2032C83.9592 27.1415 84.124 27.1106 84.3506 27.1106H85.8336C86.0396 27.1106 86.2044 27.1724 86.328 27.2958C86.4721 27.3987 86.5339 27.553 86.5133 27.7588C86.4927 28.0675 86.328 28.4481 86.019 28.9008C85.71 29.3329 85.2672 29.765 84.6904 30.1971C84.1137 30.6293 83.4134 30.9893 82.5895 31.2774C81.7655 31.5449 80.818 31.6787 79.7469 31.6787ZM75.545 22.1722H84.0107V22.0796C84.0107 21.1537 83.8356 20.3306 83.4855 19.6104C83.1559 18.8902 82.6718 18.3244 82.0333 17.9128C81.3948 17.4807 80.6327 17.2647 79.7469 17.2647C78.8612 17.2647 78.0991 17.4807 77.4606 17.9128C76.8426 18.3244 76.3689 18.8902 76.0393 19.6104C75.7098 20.3306 75.545 21.1537 75.545 22.0796V22.1722Z" fill="#303548"/>
<path d="M100.373 31.6787C98.4777 31.6787 96.902 31.3289 95.6455 30.6293C94.4096 29.9296 93.4724 28.9523 92.8339 27.6971C92.1954 26.4419 91.8452 24.9809 91.7834 23.3142C91.7628 22.4706 91.7525 21.5652 91.7525 20.5981C91.7525 19.631 91.7628 18.705 91.7834 17.8202C91.8452 16.1535 92.1954 14.6926 92.8339 13.4374C93.4724 12.1822 94.4096 11.2048 95.6455 10.5052C96.902 9.8056 98.4777 9.4558 100.373 9.4558C101.794 9.4558 103.04 9.65128 104.111 10.0422C105.182 10.4332 106.068 10.9579 106.768 11.6164C107.489 12.2748 108.035 13.0156 108.406 13.8386C108.777 14.6411 108.983 15.4745 109.024 16.3387C109.044 16.5239 108.983 16.6782 108.838 16.8017C108.715 16.9252 108.56 16.9869 108.375 16.9869H106.676C106.49 16.9869 106.326 16.9354 106.181 16.8326C106.058 16.7297 105.965 16.5445 105.903 16.277C105.553 14.672 104.894 13.5711 103.926 12.9744C102.978 12.3777 101.784 12.0793 100.342 12.0793C98.694 12.0793 97.386 12.5526 96.4179 13.4991C95.4498 14.4251 94.9246 15.9169 94.8422 17.9746C94.7804 19.6619 94.7804 21.3903 94.8422 23.1599C94.9246 25.2176 95.4498 26.7197 96.4179 27.6662C97.386 28.5922 98.694 29.0551 100.342 29.0551C101.784 29.0551 102.978 28.7568 103.926 28.16C104.894 27.5633 105.553 26.4625 105.903 24.8575C105.965 24.59 106.058 24.4048 106.181 24.3019C106.326 24.199 106.49 24.1476 106.676 24.1476H108.375C108.56 24.1476 108.715 24.2093 108.838 24.3328C108.983 24.4562 109.044 24.6106 109.024 24.7958C108.983 25.66 108.777 26.5036 108.406 27.3267C108.035 28.1292 107.489 28.8597 106.768 29.5181C106.068 30.1766 105.182 30.7013 104.111 31.0922C103.04 31.4832 101.794 31.6787 100.373 31.6787Z" fill="#303548"/>
<path d="M115.018 31.37C114.812 31.37 114.637 31.3083 114.493 31.1848C114.369 31.0408 114.308 30.8659 114.308 30.6601V16.0301C114.308 15.8243 114.369 15.6597 114.493 15.5362C114.637 15.3922 114.812 15.3202 115.018 15.3202H116.501C116.707 15.3202 116.872 15.3922 116.996 15.5362C117.119 15.6597 117.181 15.8243 117.181 16.0301V30.6601C117.181 30.8659 117.119 31.0408 116.996 31.1848C116.872 31.3083 116.707 31.37 116.501 31.37H115.018ZM114.771 12.3263C114.565 12.3263 114.39 12.2645 114.246 12.1411C114.122 11.997 114.06 11.8221 114.06 11.6164V9.94964C114.06 9.74387 114.122 9.57926 114.246 9.4558C114.39 9.31176 114.565 9.23975 114.771 9.23975H116.718C116.924 9.23975 117.088 9.31176 117.212 9.4558C117.356 9.57926 117.428 9.74387 117.428 9.94964V11.6164C117.428 11.8221 117.356 11.997 117.212 12.1411C117.088 12.2645 116.924 12.3263 116.718 12.3263H114.771Z" fill="#303548"/>
<path d="M124.348 31.37C124.142 31.37 123.967 31.3083 123.822 31.1848C123.699 31.0408 123.637 30.8659 123.637 30.6601V16.0609C123.637 15.8552 123.699 15.6803 123.822 15.5362C123.967 15.3922 124.142 15.3202 124.348 15.3202H125.769C125.975 15.3202 126.15 15.3922 126.294 15.5362C126.438 15.6803 126.51 15.8552 126.51 16.0609V17.419C126.922 16.7194 127.489 16.1947 128.21 15.8449C128.931 15.4951 129.796 15.3202 130.805 15.3202H132.041C132.247 15.3202 132.412 15.3922 132.535 15.5362C132.659 15.6597 132.721 15.8243 132.721 16.0301V17.2955C132.721 17.5013 132.659 17.6659 132.535 17.7894C132.412 17.9128 132.247 17.9746 132.041 17.9746H130.187C129.075 17.9746 128.199 18.3038 127.561 18.9622C126.922 19.6001 126.603 20.4746 126.603 21.5858V30.6601C126.603 30.8659 126.531 31.0408 126.387 31.1848C126.243 31.3083 126.068 31.37 125.862 31.37H124.348Z" fill="#303548"/>
<defs>
<linearGradient id="paint0_linear_2802_23530" x1="10.1812" y1="7.48572" x2="46.8197" y2="31.4014" gradientUnits="userSpaceOnUse">
<stop stop-color="#2BB8FA"/>
<stop offset="1" stop-color="#49C2FB"/>
</linearGradient>
<linearGradient id="paint1_linear_2802_23530" x1="16.4546" y1="-31.1159" x2="-14.991" y2="-8.46137" gradientUnits="userSpaceOnUse">
<stop stop-color="#BD00FF"/>
<stop offset="1" stop-color="#BD00FF" stop-opacity="0"/>
</linearGradient>
</defs>
</svg>
