<svg width="24" height="21" viewBox="0 0 24 21" fill="none" xmlns="http://www.w3.org/2000/svg">
<path d="M10.7109 3C10.7109 3.54688 10.5677 4.02865 10.2812 4.44531L11.4531 6.86719C11.8177 6.78906 12.2083 6.75 12.625 6.75C14.0573 6.77604 15.2812 7.23177 16.2969 8.11719L19.5 5.73438C19.5 5.68229 19.5 5.60417 19.5 5.5C19.526 4.79688 19.7734 4.21094 20.2422 3.74219C20.7109 3.27344 21.2969 3.02604 22 3C22.7031 3.02604 23.2891 3.27344 23.7578 3.74219C24.2266 4.21094 24.474 4.79688 24.5 5.5C24.474 6.20312 24.2266 6.78906 23.7578 7.25781C23.2891 7.72656 22.7031 7.97396 22 8C21.6354 8 21.2969 7.9349 20.9844 7.80469L17.7812 10.1484C18.0938 10.8255 18.25 11.5677 18.25 12.375C18.25 13 18.1589 13.5859 17.9766 14.1328L20.7891 15.8125C21.1536 15.6042 21.5573 15.5 22 15.5C22.7031 15.526 23.2891 15.7734 23.7578 16.2422C24.2266 16.7109 24.474 17.2969 24.5 18C24.474 18.7031 24.2266 19.2891 23.7578 19.7578C23.2891 20.2266 22.7031 20.474 22 20.5C21.2969 20.474 20.7109 20.2266 20.2422 19.7578C19.7734 19.2891 19.526 18.7031 19.5 18V17.9609L16.6875 16.2812C15.6198 17.375 14.2656 17.9479 12.625 18C11.2708 17.974 10.099 17.5573 9.10938 16.75C8.09375 15.9427 7.44271 14.901 7.15625 13.625H4.14844C3.67969 14.4062 2.96354 14.8229 2 14.875C1.29688 14.849 0.710938 14.6016 0.242188 14.1328C-0.226562 13.6641 -0.473958 13.0781 -0.5 12.375C-0.473958 11.6719 -0.226562 11.0859 0.242188 10.6172C0.710938 10.1484 1.29688 9.90104 2 9.875C2.96354 9.92708 3.67969 10.3438 4.14844 11.125H7.15625C7.46875 9.79688 8.14583 8.72917 9.1875 7.92188L8.01562 5.5C7.36458 5.42188 6.83073 5.14844 6.41406 4.67969C5.9974 4.23698 5.77604 3.67708 5.75 3C5.77604 2.29688 6.02344 1.71094 6.49219 1.24219C6.96094 0.773438 7.54688 0.526042 8.25 0.5C8.95312 0.526042 9.53906 0.773438 10.0078 1.24219C10.4766 1.71094 10.724 2.29688 10.75 3H10.7109ZM12.625 14.25C13.1458 14.224 13.5885 14.0417 13.9531 13.7031C14.2917 13.3385 14.474 12.8958 14.5 12.375C14.474 11.8542 14.2917 11.4115 13.9531 11.0469C13.5885 10.7083 13.1458 10.526 12.625 10.5C12.1042 10.526 11.6615 10.7083 11.2969 11.0469C10.9323 11.4115 10.737 11.8542 10.7109 12.375C10.737 12.8958 10.9323 13.3385 11.2969 13.7031C11.6615 14.0417 12.1042 14.224 12.625 14.25Z" fill="#D66EFB"/>
</svg>
