<svg width="18" height="19" viewBox="0 0 18 19" fill="none" xmlns="http://www.w3.org/2000/svg">
<path d="M7.75 2C7.75 1.63542 7.86719 1.33594 8.10156 1.10156C8.33594 0.867188 8.63542 0.75 9 0.75H11.5C11.8646 0.75 12.1641 0.867188 12.3984 1.10156C12.6328 1.33594 12.75 1.63542 12.75 2V4.5C12.75 4.86458 12.6328 5.16406 12.3984 5.39844C12.1641 5.63281 11.8646 5.75 11.5 5.75H9C8.63542 5.75 8.33594 5.63281 8.10156 5.39844C7.86719 5.16406 7.75 4.86458 7.75 4.5V2ZM5.64062 6.29688C6.31771 6.01042 6.89062 6.17969 7.35938 6.80469L8.60938 8.95312C8.76562 9.26562 8.80469 9.57812 8.72656 9.89062C8.64844 10.2031 8.45312 10.4635 8.14062 10.6719L5.99219 11.9219C5.67969 12.0781 5.35417 12.1172 5.01562 12.0391C4.70312 11.9609 4.44271 11.7656 4.23438 11.4531L3.02344 9.30469C2.84115 8.99219 2.80208 8.66667 2.90625 8.32812C2.98438 8.01562 3.17969 7.75521 3.49219 7.54688L5.64062 6.29688ZM14 7C14.3646 7 14.6641 7.11719 14.8984 7.35156C15.1328 7.58594 15.25 7.88542 15.25 8.25V10.75C15.25 11.1146 15.1328 11.4141 14.8984 11.6484C14.6641 11.8828 14.3646 12 14 12H11.5C11.1354 12 10.8359 11.8828 10.6016 11.6484C10.3672 11.4141 10.25 11.1146 10.25 10.75V8.25C10.25 7.88542 10.3672 7.58594 10.6016 7.35156C10.8359 7.11719 11.1354 7 11.5 7H14ZM16.5 13.25C16.8646 13.25 17.1641 13.3672 17.3984 13.6016C17.6328 13.8359 17.75 14.1354 17.75 14.5V17C17.75 17.3646 17.6328 17.6641 17.3984 17.8984C17.1641 18.1328 16.8646 18.25 16.5 18.25H14C13.6354 18.25 13.3359 18.1328 13.1016 17.8984C12.8672 17.6641 12.75 17.3646 12.75 17V14.5C12.75 14.1354 12.8672 13.8359 13.1016 13.6016C13.3359 13.3672 13.6354 13.25 14 13.25H16.5ZM6.5 14.5C6.5 14.1354 6.61719 13.8359 6.85156 13.6016C7.08594 13.3672 7.38542 13.25 7.75 13.25H10.25C10.6146 13.25 10.9141 13.3672 11.1484 13.6016C11.3828 13.8359 11.5 14.1354 11.5 14.5V17C11.5 17.3646 11.3828 17.6641 11.1484 17.8984C10.9141 18.1328 10.6146 18.25 10.25 18.25H7.75C7.38542 18.25 7.08594 18.1328 6.85156 17.8984C6.61719 17.6641 6.5 17.3646 6.5 17V14.5ZM4 13.25C4.36458 13.25 4.66406 13.3672 4.89844 13.6016C5.13281 13.8359 5.25 14.1354 5.25 14.5V17C5.25 17.3646 5.13281 17.6641 4.89844 17.8984C4.66406 18.1328 4.36458 18.25 4 18.25H1.5C1.13542 18.25 0.835938 18.1328 0.601562 17.8984C0.367188 17.6641 0.25 17.3646 0.25 17V14.5C0.25 14.1354 0.367188 13.8359 0.601562 13.6016C0.835938 13.3672 1.13542 13.25 1.5 13.25H4Z" fill="#D66EFB"/>
</svg>
