<svg width="434" height="326" viewBox="0 0 434 326" fill="none" xmlns="http://www.w3.org/2000/svg">
<path d="M61.0566 110.358C65.8847 106.422 72.4217 105.852 78.389 106.938C84.7632 108.078 90.5678 111.145 96.4537 113.723C102.53 116.41 108.714 118.337 115.386 118.663C122.032 119.016 128.677 118.066 135.133 116.437C148.614 113.045 160.982 106.531 173.921 101.618C180.403 99.1483 187.103 97.0041 193.992 96.027C197.736 95.4842 201.506 95.3485 205.276 95.7556C208.857 96.1356 212.356 96.977 215.855 97.8455C223.585 99.7725 231.288 101.455 239.209 102.405C247.373 103.382 255.619 103.708 263.837 103.437C264.353 103.41 264.353 102.595 263.837 102.622C248.919 103.165 234.001 101.564 219.516 97.9541C212.6 96.217 205.737 94.4257 198.549 94.7785C191.578 95.1313 184.689 96.977 178.125 99.2297C164.97 103.762 152.601 110.412 139.256 114.456C132.475 116.492 125.45 117.903 118.343 117.93C111.128 117.957 104.347 116.275 97.7557 113.398C91.2459 110.575 84.8717 107.074 77.7923 105.988C71.7707 105.065 65.3423 105.798 60.487 109.761C60.0802 110.113 60.6498 110.711 61.0566 110.358Z" fill="#31223E"/>
<path d="M207.148 85.5503C225.945 93.6657 247.291 92.3086 266.523 86.4189C276.938 83.2162 287.3 78.9278 298.394 78.9549C309.569 78.9821 320.174 82.8905 331.105 84.6275C341.033 86.2017 351.964 86.0117 360.481 80.0406C360.915 79.742 360.508 79.0364 360.074 79.3349C352.208 84.8447 342.226 85.3332 333.004 84.0847C322.561 82.6733 312.525 79.0364 301.974 78.2764C291.423 77.5164 281.468 80.692 271.568 83.949C261.694 87.1788 251.713 89.703 241.324 90.3001C229.824 90.9787 218.187 89.4316 207.582 84.8447C207.093 84.6275 206.687 85.3332 207.148 85.5503Z" fill="#31223E"/>
<path d="M50.6952 153.214C56.6354 148.98 63.6605 146.374 70.9298 145.669C74.5645 145.316 78.2263 145.452 81.8067 146.076C85.5227 146.727 89.1031 147.976 92.6563 149.224C99.2475 151.504 105.784 153.241 112.728 151.64C118.723 150.256 124.148 147.134 129.464 144.176C135.73 140.675 142.239 137.092 149.509 136.441C150.024 136.386 150.024 135.572 149.509 135.626C136.543 136.793 126.806 146.537 114.708 150.256C111.643 151.206 108.443 151.694 105.242 151.504C101.309 151.26 97.4844 150.039 93.7956 148.763C90.0795 147.487 86.3635 146.103 82.4576 145.37C79.0942 144.746 75.6495 144.556 72.2589 144.773C64.3929 145.262 56.7167 147.949 50.2883 152.536C49.8543 152.807 50.2612 153.513 50.6952 153.214Z" fill="#31223E"/>
<path d="M122.601 163.637C133.153 152.481 148.668 147.922 163.668 147.786C172.374 147.705 181.054 148.953 189.544 150.771C197.627 152.481 205.466 154.707 213.82 153.594C222.554 152.427 230.719 148.682 238.53 144.746C238.992 144.502 238.585 143.796 238.124 144.04C230.691 147.786 222.961 151.341 214.688 152.644C210.457 153.296 206.198 153.241 201.967 152.563C197.681 151.884 193.504 150.744 189.246 149.849C173.731 146.592 157.212 145.207 141.968 150.5C134.455 153.106 127.511 157.258 122.032 163.039C121.679 163.447 122.249 164.017 122.601 163.637Z" fill="#31223E"/>
<path d="M248.322 171.752C252.743 173.299 257.273 171.86 261.315 169.933C265.844 167.762 270.103 165.075 274.741 163.148C279.379 161.221 284.37 159.918 289.415 160.542C294.027 161.112 298.285 163.175 302.327 165.374C306.151 167.463 309.921 169.743 313.99 171.345C318.52 173.109 323.402 173.95 328.257 173.842C338.212 173.625 346.675 168.658 355.761 165.292C364.251 162.144 375.562 160.732 382.37 168.115C382.723 168.495 383.292 167.925 382.94 167.545C377.596 161.764 369.079 161.112 361.756 162.659C352.208 164.668 343.962 170.503 334.36 172.376C329.234 173.38 323.863 173.245 318.791 172.023C314.071 170.883 309.84 168.658 305.609 166.296C301.784 164.152 297.905 161.927 293.701 160.651C289.334 159.321 284.777 159.294 280.356 160.38C274.958 161.709 269.994 164.342 265.139 167.002C260.121 169.716 254.317 173.028 248.485 170.992C248.051 170.802 247.834 171.589 248.322 171.752Z" fill="#31223E"/>
<path d="M319.74 184.834C330.97 185.513 340.219 177.886 350.825 175.579C353.646 174.955 356.629 174.683 359.504 175.172C362.081 175.606 364.414 176.665 366.638 178.022C370.463 180.356 374.179 183.368 378.844 183.694C384.513 184.074 389.531 180.546 393.762 177.234C394.169 176.909 393.6 176.339 393.193 176.665C389.07 179.867 384.133 183.368 378.6 182.853C373.799 182.419 370.002 178.944 365.96 176.692C356.656 171.48 346.702 175.579 337.778 179.514C332.055 182.011 326.115 184.427 319.767 184.047C319.225 183.993 319.225 184.807 319.74 184.834Z" fill="#31223E"/>
<path d="M63.7148 236.729C67.6478 232.983 73.4795 231.518 78.7145 232.956C84.1936 234.449 87.7197 239.172 92.1139 242.429C100.875 248.915 112.81 247.884 122.439 244.057C133.804 239.552 143.27 231.409 154.608 226.822C160.141 224.569 166.136 223.131 172.157 223.538C178.016 223.945 183.007 226.469 187.645 229.889C192.256 233.282 196.596 237.299 201.994 239.443C207.772 241.723 214.281 241.234 219.706 238.222C220.167 237.977 219.76 237.272 219.299 237.516C213.766 240.583 207.148 240.854 201.37 238.303C196.542 236.159 192.582 232.576 188.378 229.428C184.065 226.198 179.481 223.674 174.056 222.914C168.469 222.154 162.772 223.104 157.483 224.868C145.901 228.749 136.353 236.756 125.368 241.886C115.224 246.636 102.177 248.861 92.5478 241.723C87.7469 238.167 83.9766 233.092 77.7923 231.898C72.5573 230.893 66.9968 232.468 63.1452 236.159C62.7655 236.512 63.3351 237.109 63.7148 236.729Z" fill="#31223E"/>
<path d="M167.926 251.874C172.402 248.97 177.718 247.586 183.061 248.02C187.944 248.427 192.555 250.245 197.03 252.064C201.37 253.828 205.764 255.674 210.43 256.434C215.312 257.221 220.249 256.624 224.941 255.185C230.556 253.448 235.764 250.68 240.89 247.884C241.351 247.64 240.944 246.934 240.483 247.178C231.098 252.254 220.791 257.601 209.779 255.484C200.584 253.72 192.501 248.02 183.034 247.206C177.555 246.744 172.076 248.183 167.492 251.168C167.085 251.467 167.492 252.172 167.926 251.874Z" fill="#31223E"/>
<path d="M270.32 270.276C276.233 264.739 283.502 260.749 291.341 258.713C295.329 257.682 299.424 257.166 303.547 257.193C308.131 257.248 312.688 257.981 317.245 258.415C326.087 259.256 334.577 257.763 342.85 254.534C350.743 251.467 358.175 246.147 366.665 244.844C376.593 243.324 384.269 249.92 390.589 256.678C390.941 257.058 391.511 256.488 391.158 256.108C385.951 250.544 379.82 244.79 371.9 243.894C363.22 242.917 355.327 248.02 347.787 251.521C339.107 255.565 329.749 258.333 320.12 257.791C315.319 257.519 310.572 256.651 305.744 256.406C301.648 256.189 297.526 256.488 293.511 257.329C284.642 259.148 276.369 263.436 269.75 269.651C269.371 270.059 269.94 270.629 270.32 270.276Z" fill="#31223E"/>
<path d="M111.508 98.7683C119.102 104.658 129.003 102.052 137.276 99.3383C147.529 95.9456 157.917 93.8014 168.767 93.5843C169.282 93.5843 169.282 92.77 168.767 92.77C158.785 92.96 148.939 94.6699 139.446 97.7641C130.847 100.56 120.16 104.495 112.077 98.1983C111.67 97.8726 111.101 98.4426 111.508 98.7683Z" fill="#161616"/>
<path d="M184.635 49.4248C193.803 48.7463 202.645 46.195 211.515 44.0508C220.737 41.798 229.986 40.3053 239.507 41.3366C249.109 42.368 258.412 45.2722 267.825 47.3349C276.884 49.3434 286.079 50.2662 295.356 49.8048C305.798 49.2891 316.106 47.0906 325.843 43.3451C326.331 43.1551 326.114 42.368 325.626 42.558C307.914 49.3705 288.575 50.809 270.022 46.9549C260.772 45.0279 251.713 42.2052 242.355 40.8481C233.323 39.5453 224.507 40.2781 215.61 42.2323C205.303 44.4851 195.186 47.7963 184.635 48.5834C184.119 48.6649 184.119 49.4791 184.635 49.4248Z" fill="#161616"/>
<path d="M331.431 117.442C339.351 114.51 347.57 118.69 355.49 119.45C359.749 119.857 363.98 119.45 368.13 118.473C372.199 117.496 376.159 116.057 380.309 115.433C384.757 114.755 389.504 115.026 393.355 117.55C393.789 117.849 394.196 117.143 393.762 116.845C386.927 112.393 378.573 114.782 371.358 116.79C366.828 118.066 362.298 118.989 357.579 118.799C353.076 118.636 348.763 117.387 344.369 116.465C340.002 115.569 335.499 115.08 331.241 116.655C330.726 116.817 330.943 117.604 331.431 117.442Z" fill="#161616"/>
<path d="M54.9537 199.789C61.8432 193.655 71.5537 199.083 79.2027 200.25C88.0452 201.608 96.8877 199.165 105.323 196.803C105.839 196.668 105.622 195.881 105.106 196.016C95.7756 198.622 86.1194 201.2 76.436 198.893C69.3566 197.211 60.704 193.628 54.3569 199.219C53.9772 199.545 54.5468 200.115 54.9537 199.789Z" fill="#161616"/>
<path d="M141.697 276.003C143.894 273.397 147.285 271.986 150.702 272.42C152.655 272.664 154.445 273.56 156.236 274.347C157.727 274.998 159.246 275.541 160.792 275.976C167.438 277.821 174.571 277.55 181.054 275.27C181.542 275.107 181.325 274.32 180.837 274.483C173.568 277.007 165.539 277.007 158.297 274.293C155.151 273.126 152.221 271.253 148.722 271.524C145.766 271.741 143.026 273.153 141.1 275.406C140.775 275.84 141.371 276.41 141.697 276.003Z" fill="#161616"/>
<path d="M187.862 273.777C192.799 272.338 197.871 271.633 203.025 271.66C203.54 271.66 203.54 270.846 203.025 270.846C197.817 270.819 192.663 271.551 187.645 272.99C187.157 273.153 187.347 273.94 187.862 273.777Z" fill="#161616"/>
<path d="M194.318 62.8057C199.119 66.4969 203.703 70.4596 208.097 74.6665C208.477 75.0194 209.046 74.4494 208.667 74.0966C204.245 69.8625 199.58 65.8727 194.725 62.1271C194.318 61.7743 193.911 62.48 194.318 62.8057Z" fill="#161616"/>
<path d="M147.285 77.1093C147.746 74.558 148.234 72.0067 148.695 69.4283C148.803 68.9126 148.017 68.6954 147.908 69.2111C147.447 71.7624 146.959 74.3137 146.498 76.8922C146.417 77.4079 147.203 77.625 147.285 77.1093Z" fill="#161616"/>
<path d="M303.683 93.2856C304.552 93.2856 305.256 92.5808 305.256 91.7114C305.256 90.842 304.552 90.1372 303.683 90.1372C302.814 90.1372 302.11 90.842 302.11 91.7114C302.11 92.5808 302.814 93.2856 303.683 93.2856Z" fill="#282828"/>
<path d="M98.1354 223.294C99.1691 223.294 100.007 222.455 100.007 221.421C100.007 220.387 99.1691 219.548 98.1354 219.548C97.1018 219.548 96.2638 220.387 96.2638 221.421C96.2638 222.455 97.1018 223.294 98.1354 223.294Z" fill="#282828"/>
<path d="M89.0759 53.6317C91.4428 53.6317 93.3616 51.7117 93.3616 49.3433C93.3616 46.9749 91.4428 45.0549 89.0759 45.0549C86.709 45.0549 84.7903 46.9749 84.7903 49.3433C84.7903 51.7117 86.709 53.6317 89.0759 53.6317Z" fill="#282828"/>
<path d="M97.6743 57.7845C98.4683 57.7845 99.1119 57.1404 99.1119 56.346C99.1119 55.5515 98.4683 54.9075 97.6743 54.9075C96.8804 54.9075 96.2367 55.5515 96.2367 56.346C96.2367 57.1404 96.8804 57.7845 97.6743 57.7845Z" fill="#282828"/>
<path d="M179.806 299.209C181.574 299.209 183.007 297.775 183.007 296.006C183.007 294.237 181.574 292.803 179.806 292.803C178.039 292.803 176.606 294.237 176.606 296.006C176.606 297.775 178.039 299.209 179.806 299.209Z" fill="#282828"/>
<path d="M328.556 59.2228C330.114 59.2228 331.377 57.9591 331.377 56.4001C331.377 54.8412 330.114 53.5774 328.556 53.5774C326.998 53.5774 325.735 54.8412 325.735 56.4001C325.735 57.9591 326.998 59.2228 328.556 59.2228Z" fill="#282828"/>
<path d="M332.163 53.0076C333.122 53.0076 333.899 52.2299 333.899 51.2705C333.899 50.3112 333.122 49.5334 332.163 49.5334C331.204 49.5334 330.427 50.3112 330.427 51.2705C330.427 52.2299 331.204 53.0076 332.163 53.0076Z" fill="#282828"/>
<path d="M93.3887 49.1263C95.7556 49.1263 97.6743 47.2063 97.6743 44.8379C97.6743 42.4695 95.7556 40.5496 93.3887 40.5496C91.0218 40.5496 89.1031 42.4695 89.1031 44.8379C89.1031 47.2063 91.0218 49.1263 93.3887 49.1263Z" fill="#7C7C7C"/>
<path d="M91.2459 225.818C92.4293 225.818 93.3887 224.858 93.3887 223.674C93.3887 222.49 92.4293 221.53 91.2459 221.53C90.0624 221.53 89.1031 222.49 89.1031 223.674C89.1031 224.858 90.0624 225.818 91.2459 225.818Z" fill="#7C7C7C"/>
<path d="M166.57 292.993C167.618 292.993 168.469 292.143 168.469 291.094C168.469 290.044 167.618 289.194 166.57 289.194C165.521 289.194 164.671 290.044 164.671 291.094C164.671 292.143 165.521 292.993 166.57 292.993Z" fill="#7C7C7C"/>
<path d="M318.14 49.5335C320.627 49.5335 322.643 47.5163 322.643 45.028C322.643 42.5396 320.627 40.5225 318.14 40.5225C315.653 40.5225 313.637 42.5396 313.637 45.028C313.637 47.5163 315.653 49.5335 318.14 49.5335Z" fill="#7C7C7C"/>
<path d="M244.009 117.767C244.549 117.767 244.986 117.33 244.986 116.79C244.986 116.25 244.549 115.813 244.009 115.813C243.47 115.813 243.033 116.25 243.033 116.79C243.033 117.33 243.47 117.767 244.009 117.767Z" fill="#7C7C7C"/>
<path d="M234.001 59.603C233.431 60.933 232.889 62.29 232.319 63.62C232.129 64.1085 232.916 64.3257 233.106 63.8371C233.675 62.5072 234.218 61.1501 234.787 59.8202C234.977 59.3316 234.191 59.1145 234.001 59.603Z" fill="#878787"/>
<path d="M233.865 60.2544C234.869 61.3129 235.655 62.5071 236.171 63.8642C236.36 64.3527 237.147 64.1356 236.957 63.6471C236.36 62.1543 235.52 60.8515 234.435 59.6844C234.082 59.3044 233.485 59.8744 233.865 60.2544Z" fill="#878787"/>
<path d="M232.536 64.3254C233.323 65.7911 234.218 67.1753 235.221 68.4781C235.547 68.8852 236.252 68.4781 235.926 68.071C234.923 66.741 234.028 65.3568 233.241 63.9183C232.97 63.4569 232.292 63.864 232.536 64.3254Z" fill="#878787"/>
<path d="M236.225 63.9184C235.899 65.4384 235.601 66.9583 235.275 68.4782C235.167 68.9939 235.954 69.2111 236.062 68.6954C236.388 67.1754 236.686 65.6555 237.011 64.1356C237.12 63.647 236.333 63.4299 236.225 63.9184Z" fill="#878787"/>
<path d="M310.41 175.796C309.759 176.99 309.325 178.266 309.135 179.623C309.053 180.139 309.84 180.356 309.921 179.84C310.111 178.564 310.491 177.37 311.115 176.23C311.359 175.742 310.654 175.335 310.41 175.796Z" fill="#878787"/>
<path d="M310.355 176.04C310.898 177.479 311.522 178.863 312.227 180.193C312.471 180.654 313.176 180.247 312.932 179.786C312.254 178.51 311.657 177.18 311.142 175.823C310.952 175.335 310.165 175.552 310.355 176.04Z" fill="#878787"/>
<path d="M308.972 180.193C309.677 181.197 310.355 182.201 311.061 183.206C311.359 183.64 312.064 183.233 311.766 182.798C311.061 181.794 310.382 180.79 309.677 179.786C309.379 179.351 308.674 179.759 308.972 180.193Z" fill="#878787"/>
<path d="M311.929 180.057C311.359 180.844 311.088 181.74 311.088 182.69C311.088 183.206 311.901 183.206 311.901 182.69C311.901 181.876 312.146 181.116 312.634 180.464C312.932 180.03 312.227 179.623 311.929 180.057Z" fill="#878787"/>
<path d="M83.5155 252.634C82.7831 254.235 82.0508 255.809 81.3184 257.411C81.1014 257.872 81.8066 258.306 82.0236 257.818C82.756 256.217 83.4883 254.642 84.2207 253.041C84.4377 252.58 83.7596 252.172 83.5155 252.634Z" fill="#878787"/>
<path d="M83.6511 252.851C84.3563 254.534 85.0616 256.216 85.7668 257.899C85.9566 258.388 86.7432 258.171 86.5534 257.682C85.8482 255.999 85.1429 254.317 84.4377 252.634C84.2478 252.145 83.4612 252.362 83.6511 252.851Z" fill="#878787"/>
<path d="M81.1285 258.144C81.8609 259.582 82.5661 261.048 83.2985 262.486C83.4341 262.731 83.7596 262.731 83.9495 262.568C84.5191 262.106 84.7903 261.319 85.0887 260.695C85.5227 259.826 85.9567 258.958 86.3906 258.089C86.6348 257.628 85.9295 257.221 85.6854 257.682C85.3057 258.442 84.8988 259.202 84.5191 259.962C84.1936 260.614 83.8952 261.509 83.3256 261.971C83.5426 261.998 83.7596 262.025 83.9766 262.052C83.2442 260.614 82.539 259.148 81.8067 257.709C81.5897 257.275 80.8844 257.682 81.1285 258.144Z" fill="#878787"/>
<path d="M356.521 126.48C355.68 128.081 355.165 129.764 354.92 131.555C354.839 132.071 355.653 132.071 355.734 131.555C355.951 129.9 356.439 128.353 357.199 126.887C357.47 126.426 356.765 126.018 356.521 126.48Z" fill="#878787"/>
<path d="M356.412 127.43C357.253 129.058 358.067 130.687 358.908 132.315C359.152 132.777 359.857 132.369 359.613 131.908C358.772 130.28 357.958 128.651 357.117 127.023C356.873 126.561 356.168 126.968 356.412 127.43Z" fill="#878787"/>
<path d="M354.975 131.664C355.653 133.292 356.467 134.812 357.443 136.251C357.741 136.685 358.447 136.278 358.148 135.844C357.199 134.459 356.385 132.994 355.761 131.447C355.571 130.985 354.785 131.202 354.975 131.664Z" fill="#878787"/>
<path d="M358.664 132.017C358.175 133.537 357.768 135.084 357.497 136.685C357.416 137.201 358.202 137.418 358.284 136.902C358.555 135.328 358.935 133.781 359.45 132.234C359.613 131.745 358.826 131.528 358.664 132.017Z" fill="#878787"/>
<path d="M353.374 258.252C353.049 259.338 352.75 260.396 352.425 261.482C352.289 261.998 353.049 262.188 353.212 261.699C353.537 260.613 353.835 259.555 354.161 258.469C354.324 257.954 353.537 257.736 353.374 258.252Z" fill="#878787"/>
<path d="M353.32 258.849C353.808 259.935 354.324 261.02 354.812 262.079C355.029 262.567 355.734 262.133 355.517 261.672C355.029 260.586 354.514 259.5 354.025 258.442C353.808 257.953 353.103 258.361 353.32 258.849Z" fill="#878787"/>
<path d="M352.642 261.998C352.886 263.273 353.483 264.413 354.324 265.39C354.676 265.798 355.246 265.2 354.893 264.82C354.134 263.952 353.646 262.92 353.429 261.808C353.32 261.265 352.533 261.482 352.642 261.998Z" fill="#878787"/>
<path d="M354.785 261.889C354.432 263.029 354.269 264.196 354.297 265.363C354.324 265.879 355.137 265.879 355.11 265.363C355.083 264.25 355.219 263.165 355.571 262.106C355.734 261.618 354.948 261.401 354.785 261.889Z" fill="#878787"/>
<path d="M73.2896 115.053C72.6929 116.356 72.1233 117.659 71.5266 118.962C71.3096 119.423 72.0148 119.857 72.2318 119.369C72.8285 118.066 73.3981 116.763 73.9949 115.46C74.2119 114.999 73.5066 114.565 73.2896 115.053Z" fill="#878787"/>
<path d="M71.6351 119.64C72.2589 121.241 72.8556 122.816 73.4795 124.417C73.6694 124.905 74.456 124.688 74.2661 124.2C73.6422 122.598 73.0455 121.024 72.4217 119.423C72.2318 118.934 71.4452 119.151 71.6351 119.64Z" fill="#878787"/>
<path d="M73.2896 115.107C74.1305 116.573 74.9713 118.066 75.8122 119.531C76.0834 119.993 76.7615 119.586 76.5174 119.124C75.6766 117.659 74.8357 116.166 73.9949 114.7C73.7236 114.239 73.0184 114.646 73.2896 115.107Z" fill="#878787"/>
<path d="M76.0021 119.179C75.1341 120.807 74.3746 122.49 73.7236 124.2C73.5337 124.688 74.3204 124.905 74.5102 124.417C75.1341 122.761 75.8664 121.133 76.7073 119.586C76.9514 119.124 76.2462 118.717 76.0021 119.179Z" fill="#878787"/>
<path d="M277.752 140.078C278.294 139.046 279.325 138.341 280.519 138.395C281.495 138.422 282.227 139.101 283.095 139.426C284.614 139.969 285.076 138.992 286.215 138.259C287.761 137.228 289.253 139.535 290.907 139.508C291.857 139.481 292.643 139.019 292.67 138.015C292.453 138.123 292.263 138.259 292.046 138.368C292.887 138.802 293.728 139.236 294.542 139.698C295.003 139.942 295.41 139.236 294.949 138.992C294.108 138.558 293.267 138.123 292.453 137.662C292.182 137.526 291.857 137.689 291.829 138.015C291.748 139.942 288.005 137.201 287.3 137.119C285.699 136.902 285.076 138.883 283.692 138.666C282.227 138.422 281.305 137.363 279.732 137.635C278.539 137.852 277.562 138.585 277.02 139.67C276.83 140.132 277.508 140.539 277.752 140.078Z" fill="#727272"/>
<path d="M288.141 134.568C289.361 133.211 291.287 134.921 292.67 135.084C294.271 135.274 295.518 133.564 297.064 134.432C298.339 135.165 300.672 136.902 301.594 134.677C301.784 134.188 300.997 133.971 300.808 134.459C300.157 136.034 297.824 133.835 297.037 133.509C295.979 133.048 295.274 133.428 294.325 133.889C293.186 134.432 292.372 134.242 291.287 133.754C290.799 133.537 290.311 133.347 289.768 133.265C288.927 133.157 288.168 133.319 287.571 133.971C287.218 134.378 287.788 134.948 288.141 134.568Z" fill="#727272"/>
<path d="M266.116 70.541C266.495 69.8354 266.929 69.6454 267.418 69.9711C267.635 70.0525 267.852 70.1611 268.069 70.2968C268.313 70.4053 268.557 70.5682 268.801 70.6496C269.235 70.7853 269.669 70.8396 270.103 70.731C271.269 70.4053 271.866 68.9397 273.114 68.9668C274.28 68.994 275.121 70.1068 276.342 69.5368C276.857 69.2925 277.21 68.8583 277.698 68.5869C278.783 67.9897 280.112 68.2069 281.034 68.9668C281.441 69.2925 282.011 68.7226 281.604 68.3969C280.383 67.3926 278.701 67.0941 277.291 67.8812C276.667 68.234 276.152 68.994 275.338 68.8854C274.877 68.8311 274.47 68.5054 274.036 68.3426C273.385 68.0983 272.788 68.0169 272.137 68.3154C271.324 68.6954 270.781 69.7539 269.886 69.9439C268.747 70.1882 267.987 69.0211 266.929 68.994C265.926 68.9668 264.76 69.9439 265.438 70.9482C265.709 71.3824 266.414 70.9753 266.116 70.541Z" fill="#757575"/>
<path d="M275.121 65.737C275.446 63.9728 278.512 65.6827 279.596 65.4927C280.302 65.3841 280.817 64.8956 281.468 64.6513C282.499 64.2442 283.502 64.407 284.452 64.977C284.913 65.2484 285.32 64.5427 284.859 64.2713C284.045 63.7828 283.177 63.5385 282.255 63.6199C281.848 63.6471 281.468 63.7556 281.115 63.8913C280.03 64.3527 279.596 64.8684 278.24 64.5427C276.938 64.217 274.714 63.5656 274.361 65.5198C274.226 66.0355 275.012 66.2527 275.121 65.737Z" fill="#757575"/>
<path d="M69.7635 163.827C70.1161 162.117 72.4759 164.451 72.937 164.749C73.4524 165.102 74.022 165.347 74.6458 165.211C75.4596 165.075 76.0834 164.397 76.9243 164.207C78.2805 163.908 79.6367 164.342 80.6132 165.319C80.9929 165.699 81.5625 165.102 81.1828 164.749C80.3419 163.908 79.3112 163.392 78.1177 163.311C77.521 163.257 76.9243 163.338 76.3547 163.528C75.4596 163.827 74.7543 164.695 73.6694 164.261C72.5302 163.799 72.0962 162.632 70.7942 162.497C69.9534 162.415 69.1668 162.741 69.004 163.609C68.8684 164.125 69.655 164.342 69.7635 163.827Z" fill="#757575"/>
<path d="M78.7958 161.872C79.3926 161.058 82.1321 162.687 82.9187 162.877C84.1936 163.175 85.4955 163.175 86.7975 163.012C87.3129 162.931 87.0959 162.144 86.5805 162.225C84.3292 162.524 82.5932 161.927 80.5589 161.112C79.6367 160.76 78.7145 160.624 78.0906 161.465C77.7922 161.872 78.4975 162.279 78.7958 161.872Z" fill="#757575"/>
<path d="M144.925 218.761C145.359 218.082 146.037 217.648 146.878 217.648C147.583 217.648 148.017 218.082 148.641 218.272C149.265 218.49 149.78 218.354 150.322 218.001C151.38 217.295 151.896 216.427 153.333 216.481C154.635 216.508 155.883 217.133 157.022 217.702C157.483 217.947 157.89 217.241 157.429 216.997C155.286 215.911 152.682 214.88 150.621 216.644C150.16 217.024 150.105 217.133 149.4 217.268C148.614 217.431 148.695 217.323 148.098 217.078C147.583 216.861 147.095 216.78 146.525 216.834C145.521 216.943 144.735 217.513 144.219 218.327C143.948 218.788 144.653 219.195 144.925 218.761Z" fill="#757575"/>
<path d="M153.957 220.335C155.232 219.222 157.646 221.557 159.219 221.339C160.169 221.204 160.603 220.498 161.226 219.847C162.42 218.571 164.21 218.381 165.675 219.331C166.109 219.602 166.516 218.924 166.082 218.625C165.024 217.947 163.776 217.73 162.555 218.082C162.013 218.245 161.525 218.49 161.091 218.842C160.44 219.385 160.033 220.362 159.111 220.525C157.131 220.878 155.259 218.11 153.387 219.765C153.008 220.118 153.577 220.688 153.957 220.335Z" fill="#757575"/>
<path d="M116.96 46.2493C117.177 45.3536 117.692 44.6479 118.56 44.2679C119.319 43.9422 119.943 44.1594 120.73 44.1322C121.598 44.0779 122.249 43.6437 122.764 42.9923C123.551 42.0152 124.066 41.0109 125.178 40.3595C126.453 39.6267 127.918 39.491 129.328 39.9253C129.844 40.0881 130.033 39.301 129.545 39.1382C126.941 38.3511 124.365 39.3553 122.791 41.5538C122.167 42.4223 121.706 43.2908 120.513 43.318C119.781 43.3451 119.157 43.1823 118.451 43.4265C117.258 43.8337 116.444 44.8379 116.173 46.0321C116.037 46.5478 116.824 46.7649 116.96 46.2493Z" fill="#757575"/>
<path d="M120.784 49.3705C119.618 46.2763 125.205 46.4392 126.887 45.8421C128.976 45.1092 130.766 43.8064 132.529 42.5036C132.936 42.2051 132.529 41.4994 132.122 41.798C130.929 42.6936 129.708 43.5622 128.406 44.2678C126.779 45.1364 125.233 45.4078 123.469 45.6792C121.598 45.9778 119.157 47.2806 120.025 49.5605C120.187 50.049 120.974 49.859 120.784 49.3705Z" fill="#757575"/>
<path d="M228.956 204.973C231.017 199.572 234.516 196.044 238.124 192.379C242.87 187.575 251.686 178.646 260.664 180.057C268.313 181.251 267.472 188.607 277.969 193.954C287.869 199.029 291.667 194.008 301.54 199.463C303.005 200.278 313.339 206.167 315.699 217.295C316.675 221.909 316.431 228.233 314.397 228.831C312.091 229.509 311.305 216.21 302.082 210.999C295.03 207.009 285.32 208.936 284.533 211.786C283.692 214.798 293.43 216.78 298.936 227.256C301.35 231.816 301.865 235.969 302.598 241.669C303.276 247.043 304.035 258.062 301.54 258.713C299.478 259.256 298.366 251.901 290.799 245.875C286.811 242.7 282.553 241.397 274.036 238.792C266.36 236.457 262.481 235.317 260.393 237.217C257.3 240.04 259.687 247.205 260.121 248.481C263.159 257.601 270.917 261.4 270.347 262.378C269.588 263.599 255.429 260.071 243.874 248.752C234.001 239.063 222.961 220.634 228.956 204.973Z" fill="#515151"/>
<path d="M317.516 236.43C317.408 237.19 316.838 241.424 319.333 244.138C322.1 247.124 325.464 244.844 328.854 247.802C331.973 250.517 331.566 254.588 332.516 254.506C333.601 254.425 335.255 248.915 332.923 245.577C332.19 244.518 330.4 243.568 326.847 241.723C323.212 239.823 322.724 239.904 321.775 238.873C319.415 236.322 319.767 232.983 318.927 232.983C318.276 232.983 317.706 234.992 317.516 236.43Z" fill="#515151"/>
<path d="M294.189 268.294C292.67 270.574 292.833 273.017 292.969 275.595C293.131 278.228 293.24 280.372 294.786 282.299C296.549 284.498 299.479 285.421 299.858 284.932C300.157 284.552 298.828 283.521 297.634 281.268C297.498 280.997 295.735 277.658 295.817 273.75C295.898 268.864 298.773 265.96 298.041 265.444C297.498 265.037 295.41 266.449 294.189 268.294Z" fill="#515151"/>
<path d="M305.066 223.294C309.623 226.306 307.128 233.282 310.111 237.353C310.41 237.76 311.115 237.353 310.816 236.946C307.724 232.712 310.355 225.818 305.473 222.588C305.039 222.289 304.632 222.995 305.066 223.294Z" fill="#989899"/>
<path d="M303.439 203.643C308.321 207.389 311.712 212.736 313.068 218.734C313.176 219.249 313.963 219.032 313.854 218.517C312.444 212.301 308.918 206.819 303.873 202.965C303.412 202.612 303.005 203.317 303.439 203.643Z" fill="#989899"/>
<path d="M287.707 218.68C291.612 221.882 294.678 225.981 296.576 230.676C296.766 231.165 297.553 230.948 297.363 230.459C295.383 225.628 292.318 221.421 288.276 218.11C287.896 217.784 287.3 218.354 287.707 218.68Z" fill="#989899"/>
<path d="M298.475 235.155C299.207 237.109 299.696 239.09 299.885 241.153C299.94 241.669 300.753 241.669 300.699 241.153C300.482 239.009 299.994 236.946 299.234 234.937C299.099 234.449 298.312 234.666 298.475 235.155Z" fill="#989899"/>
<path d="M256.731 239.66C256.053 243.758 256.839 247.857 259.063 251.385C259.335 251.82 260.04 251.412 259.769 250.978C257.68 247.667 256.866 243.758 257.517 239.877C257.599 239.362 256.812 239.144 256.731 239.66Z" fill="#989899"/>
<path d="M260.148 253.611C261.125 255.402 262.373 257.004 263.864 258.388C264.244 258.741 264.814 258.171 264.434 257.818C262.996 256.461 261.803 254.914 260.854 253.204C260.61 252.742 259.904 253.149 260.148 253.611Z" fill="#989899"/>
<path d="M229.01 212.247C228.793 214.826 229.037 217.377 229.769 219.874C229.905 220.39 230.691 220.172 230.556 219.657C229.851 217.214 229.607 214.771 229.824 212.247C229.878 211.731 229.064 211.731 229.01 212.247Z" fill="#989899"/>
<path d="M230.583 222.642C231.017 224.759 231.804 226.713 232.943 228.559C233.214 228.993 233.919 228.586 233.648 228.152C232.563 226.361 231.804 224.488 231.37 222.425C231.261 221.936 230.474 222.154 230.583 222.642Z" fill="#989899"/>
<path d="M159.762 52.9802C159.002 55.043 158.08 57.8657 157.185 61.2855C156.263 64.8411 154.093 74.2049 154.31 86.5272C154.527 98.4152 156.859 107.155 159.002 114.944C162.338 127.104 166.407 135.843 168.821 140.919C168.821 140.919 176.497 157.177 189.219 174.602C191.47 177.669 194.345 181.55 194.345 181.55C196.434 184.345 198.224 186.68 199.472 188.362C200.475 189.502 201.75 190.778 203.405 191.999C206.497 194.306 209.562 195.473 211.705 196.071C215.231 193.058 218.757 190.018 222.283 187.005C223.883 188.525 225.511 190.018 227.111 191.538C229.335 189.258 231.315 187.44 232.861 186.11C239.588 180.274 245.149 177.289 246.451 176.583C247.563 175.986 248.512 175.524 249.163 175.226C248.159 173.217 247.156 171.209 246.152 169.173C247.78 167.762 249.651 166.269 251.74 164.804C254.561 162.822 257.273 161.221 259.742 159.972C259.714 157.692 259.416 154.245 257.924 150.446C256.812 147.596 255.483 145.669 254.913 144.854C248.648 135.816 267.119 160.732 242.979 126.262C233.621 112.909 228.956 106.205 226.813 103.436C220.113 94.6697 214.851 88.6714 211.108 84.4102C203.947 76.2406 200.719 73.2007 198.115 70.9751C194.562 67.8809 190.629 64.5425 184.689 61.4484C180.946 59.5213 177.854 58.4628 173.351 56.9158C167.79 55.0158 163.098 53.7673 159.762 52.9802Z" fill="#878787"/>
<path d="M158.921 53.4688C153.035 71.6265 153.035 91.2228 157.266 109.733C158.324 114.375 159.653 118.961 161.226 123.44C162.013 125.72 162.962 127.945 163.803 130.198C164.102 130.985 164.156 131.772 164.508 132.559C165.024 133.781 165.566 135.002 166.109 136.223C167.112 138.503 168.17 140.756 169.282 143.009C170.394 145.235 171.751 147.352 172.754 149.604C173.134 150.446 173.459 151.341 173.893 152.156C174.463 153.187 175.304 153.974 175.901 154.978C177.148 157.068 178.342 159.212 179.644 161.275C185.584 170.856 192.338 179.894 199.255 188.77C199.58 189.177 200.15 188.607 199.824 188.2C193.721 180.356 187.754 172.403 182.383 164.071C181.054 162.008 179.779 159.945 178.532 157.828C177.935 156.824 177.338 155.793 176.769 154.761C176.199 153.757 175.439 153.051 174.843 152.074C174.354 151.26 174.002 150.391 173.649 149.523C173.161 148.356 172.51 147.297 171.913 146.184C170.774 144.095 169.716 141.978 168.713 139.833C167.655 137.581 166.651 135.301 165.648 133.021C165.214 132.017 165.051 130.958 164.644 129.927C164.21 128.814 163.749 127.701 163.315 126.561C161.66 122.191 160.223 117.74 159.029 113.207C156.642 104.034 155.259 94.6155 155.123 85.1159C154.988 74.4493 156.452 63.7826 159.762 53.6045C159.843 53.1974 159.056 52.9803 158.921 53.4688Z" fill="#53586C"/>
<path d="M159.301 53.4688C163.83 53.8217 168.441 55.3959 172.7 56.8887C176.904 58.3815 181.054 60.01 184.906 62.2356C192.582 66.6868 199.363 72.5222 205.547 78.8733C211.922 85.4145 217.726 92.607 223.341 99.7995C228.928 106.965 234.272 114.375 239.425 121.866C245.122 130.198 250.601 138.693 255.971 147.27C256.242 147.704 256.948 147.297 256.676 146.863C246.83 131.202 236.659 115.732 225.348 101.075C214.417 86.8801 202.699 72.3865 187.347 62.7512C183.17 60.1185 178.694 58.2186 174.083 56.5087C169.418 54.7988 164.319 53.0346 159.328 52.6274C158.785 52.6274 158.785 53.4417 159.301 53.4688Z" fill="#53586C"/>
<path d="M200.421 188.525C213.061 175.633 227.274 164.315 242.653 154.87C246.993 152.21 251.387 149.713 255.89 147.379C256.351 147.134 255.944 146.429 255.483 146.673C239.507 155.033 224.534 165.319 211.054 177.289C207.202 180.708 203.459 184.264 199.851 187.955C199.472 188.335 200.041 188.905 200.421 188.525Z" fill="#53586C"/>
<path d="M199.634 189.149C202.862 192.759 207.066 195.311 211.759 196.451C212.274 196.586 212.491 195.799 211.976 195.663C207.392 194.524 203.35 192.081 200.204 188.552C199.851 188.172 199.282 188.769 199.634 189.149Z" fill="#53586C"/>
<path d="M255.754 147.596C257.87 151.314 259.091 155.412 259.362 159.674C259.389 160.189 260.203 160.189 260.176 159.674C259.904 155.25 258.629 151.043 256.459 147.189C256.215 146.727 255.51 147.134 255.754 147.596Z" fill="#53586C"/>
<path d="M212.247 196.233C226.921 182.826 242.816 170.829 259.769 160.434C260.203 160.162 259.796 159.457 259.362 159.728C242.382 170.15 226.406 182.201 211.677 195.663C211.298 196.016 211.867 196.586 212.247 196.233Z" fill="#53586C"/>
<path d="M222.473 187.494C223.965 188.96 225.457 190.425 226.948 191.918C227.111 192.081 227.382 192.081 227.518 191.918C231.912 187.25 236.849 183.124 242.246 179.677C243.548 178.836 244.877 178.049 246.234 177.289C247.102 176.8 248.756 176.339 249.272 175.416C249.814 174.493 249 173.245 248.566 172.458C247.807 171.073 246.912 169.798 245.935 168.603C245.61 168.196 245.04 168.766 245.366 169.173C246.315 170.34 247.156 171.562 247.861 172.865C248.024 173.136 248.376 173.597 248.404 173.923C248.295 174.412 248.187 174.873 248.078 175.362C247.942 175.443 247.807 175.497 247.671 175.579C247.129 175.986 246.424 176.23 245.827 176.583C243.467 177.913 241.161 179.351 238.937 180.899C234.597 183.966 230.583 187.467 226.948 191.321C227.138 191.321 227.328 191.321 227.518 191.321C226.026 189.855 224.534 188.39 223.042 186.897C222.663 186.544 222.093 187.114 222.473 187.494Z" fill="#53586C"/>
<path d="M160.847 120.59C167.519 112.719 175.331 105.906 183.333 99.4195C191.361 92.9327 199.77 86.853 209.182 82.5375C209.67 82.3203 209.236 81.6146 208.775 81.8318C199.444 86.093 191.117 92.1184 183.143 98.5238C175.005 105.092 167.058 112.013 160.277 119.993C159.924 120.427 160.494 120.997 160.847 120.59Z" fill="#53586C"/>
<path d="M209.345 86.3372C208.45 86.3915 208.07 84.8987 209.073 84.8173C209.426 84.7901 209.833 84.953 209.969 85.3058C210.158 85.8215 209.67 86.3643 209.155 86.3643C208.775 86.3643 208.748 86.9886 209.155 86.9886C209.996 86.9886 210.728 86.2015 210.592 85.3601C210.484 84.6544 209.752 84.2202 209.073 84.2473C208.341 84.3016 207.772 84.8987 207.853 85.6315C207.934 86.3643 208.585 87.0429 209.345 86.9886C209.752 86.9343 209.752 86.3101 209.345 86.3372Z" fill="#53586C"/>
<path d="M250.763 146.374C250.791 146.374 250.791 146.374 250.818 146.347C250.736 146.347 250.655 146.32 250.574 146.32C250.872 146.456 250.709 145.886 250.682 145.804C250.682 145.723 250.709 145.614 250.736 145.533C250.818 145.37 250.953 145.207 251.116 145.126C251.469 144.963 251.848 145.234 251.957 145.587C252.174 146.293 251.143 146.646 250.872 146.022C250.709 145.669 250.194 145.967 250.357 146.32C250.682 147.08 251.794 147.134 252.337 146.564C252.96 145.886 252.499 144.746 251.659 144.502C250.763 144.257 249.895 145.207 250.112 146.076C250.194 146.429 250.655 146.863 251.008 146.51C251.279 146.239 251.008 145.642 250.601 145.804C250.248 145.94 250.411 146.51 250.763 146.374Z" fill="#53586C"/>
<path opacity="0.15" d="M159.762 53.1431C164.047 55.9115 169.852 59.9827 176.199 65.4382C180.132 68.8309 190.331 77.9233 203.079 95.5653C216.912 114.7 223.829 124.254 225.212 134.921C225.918 140.485 226.894 156.335 212.925 175.823C218.703 171.426 224.507 167.002 230.285 162.605C232.807 166.758 235.303 170.91 237.825 175.063C235.113 177.071 232.4 179.053 229.688 181.061C231.017 182.663 232.346 184.237 233.675 185.838C235.303 184.264 237.256 182.581 239.507 180.926C242.979 178.374 246.315 176.556 249.19 175.226C248.105 173.136 247.047 171.019 245.962 168.929C250.628 165.862 255.293 162.768 259.959 159.701C259.714 157.394 259.145 154.055 257.653 150.31C255.917 145.913 253.72 142.982 252.879 141.842C246.803 133.618 249.76 135.599 237.039 117.713C227.898 104.848 222.853 97.6552 214.77 88.3457C209.589 82.3745 206.144 78.439 200.638 73.5807C194.779 68.3966 187.672 62.2355 176.823 57.73C169.906 54.9073 163.83 53.713 159.762 53.1431Z" fill="#494949"/>
<path opacity="0.11" d="M246.858 131.99C246.613 133.727 246.125 136.386 244.905 139.399C242.084 146.375 237.744 149.414 228.684 158.588C224.399 162.931 218.024 169.363 218.621 170.069C219.191 170.748 226.162 165.374 238.341 157.34C245.474 152.617 251.469 148.953 255.402 146.565C252.554 141.706 249.706 136.848 246.858 131.99Z" fill="#494949"/>
<path opacity="0.08" d="M255.971 147.379C255.592 147.46 256.514 150.418 255.402 154.11C254.588 156.824 253.205 158.127 249.814 162.225C248.349 163.989 246.207 166.649 243.657 170.069C248.973 166.432 254.29 162.795 259.606 159.158C257.192 149.55 256.297 147.324 255.971 147.379Z" fill="#494949"/>
<path d="M210.158 236.213C210.24 237 210.538 237.625 210.999 238.385C212.952 241.533 216.18 243.46 218.513 244.573C217.59 247.477 216.478 251.657 215.665 256.759C214.905 261.672 214.01 267.399 215.176 267.779C215.583 267.915 216.777 267.535 227.871 245.55C229.417 242.483 230.691 239.932 231.532 238.195C225.619 235.535 219.733 232.848 213.82 230.188C213.251 230.622 209.86 233.092 210.158 236.213Z" fill="#161616" stroke="#161616" stroke-width="2" stroke-miterlimit="10"/>
<path d="M197.79 176.176C192.799 179.65 189.571 183.016 186.696 186.055C185.53 187.277 179.942 193.221 174.056 202.558C171.452 206.683 169.526 210.32 168.197 213.061C168.36 214.174 168.74 215.776 169.743 217.377C170.855 219.168 172.103 219.955 174.056 221.692C176.443 223.809 177.311 225.058 178.694 226.469C181.38 229.238 185.15 231.328 192.582 235.426C201.913 240.556 206.931 242.429 208.477 242.999C210.375 243.677 211.976 244.193 213.115 244.546C213.657 242.021 214.308 239.334 215.122 236.512C215.855 233.988 216.641 231.626 217.428 229.428C211.65 225.194 205.71 220.444 199.689 215.07C197.6 213.224 195.593 211.351 193.667 209.506C195.62 207.145 198.359 204.05 201.831 200.712C202.835 199.735 204.951 197.726 207.527 195.609C210.782 192.977 215.692 189.448 222.473 186.191C223.639 178.402 222.256 171.128 217.997 168.766C212.681 165.835 204.598 171.453 197.79 176.176Z" fill="#878787"/>
<path d="M192.311 180.22C182.709 188.363 174.761 198.432 169.12 209.696C168.55 210.863 167.736 212.166 167.628 213.468C167.519 214.853 168.36 215.911 169.12 216.97C170.937 219.44 172.998 221.747 175.195 223.891C179.861 228.369 185.231 232.06 190.873 235.182C197.817 239.036 205.168 242.103 212.491 245.143C212.979 245.333 213.196 244.546 212.708 244.356C200.719 239.362 188.486 234.259 178.477 225.764C176.226 223.837 174.083 221.774 172.157 219.521C171.154 218.327 170.15 217.105 169.282 215.83C168.74 215.043 168.333 214.31 168.469 213.306C168.604 212.329 169.174 211.406 169.608 210.51C172.212 205.217 175.331 200.196 178.911 195.501C183.007 190.1 187.7 185.187 192.88 180.817C193.287 180.464 192.718 179.894 192.311 180.22Z" fill="#53586C"/>
<path d="M215.312 189.584C206.008 195.609 197.871 203.236 191.28 212.138C190.982 212.573 191.687 212.98 191.985 212.546C198.495 203.752 206.551 196.206 215.719 190.262C216.153 190.018 215.746 189.312 215.312 189.584Z" fill="#53586C"/>
<path d="M193.206 209.913C200.828 216.807 208.667 223.429 216.75 229.753C217.157 230.079 217.726 229.509 217.319 229.183C209.236 222.859 201.37 216.237 193.775 209.343C193.396 208.99 192.826 209.56 193.206 209.913Z" fill="#53586C"/>
<path d="M216.777 229.645C215.068 234.476 213.739 239.416 212.762 244.437C212.654 244.953 213.44 245.17 213.549 244.654C214.525 239.633 215.882 234.693 217.563 229.862C217.726 229.373 216.94 229.156 216.777 229.645Z" fill="#53586C"/>
<path opacity="0.11" d="M208.287 186.544C204.544 186.87 201.723 189.611 193.016 201.716C189.68 206.357 186.886 210.401 184.743 213.604C187.835 215.775 190.276 217.567 191.822 218.734C200.475 225.221 204.11 228.858 211.46 232.82C213.061 233.689 214.39 234.313 215.176 234.666C215.8 232.956 216.424 231.246 217.021 229.536C214.959 227.745 212.898 225.981 210.809 224.189C205.059 219.304 199.363 214.581 193.694 209.994C196.054 206.683 198.278 204.186 199.906 202.476C204.706 197.455 209.48 194.062 213.196 191.457C214.471 190.561 215.556 189.855 216.261 189.394C212.762 186.707 210.023 186.381 208.287 186.544Z" fill="#494949"/>
<path opacity="0.08" d="M209.372 193.628C207.039 194.171 203.92 195.229 200.746 197.346C192.989 202.53 190.385 210.456 189.625 213.17C193.803 216.427 198.115 219.711 202.591 222.995C206.931 226.198 211.243 229.238 215.448 232.169C216.072 231.273 216.695 230.35 217.292 229.455C211.515 225.248 205.52 220.39 199.526 214.825C197.627 213.088 195.81 211.324 194.074 209.587C195.023 208.339 196.054 207.063 197.139 205.76C201.207 200.929 205.385 196.939 209.372 193.628Z" fill="#494949"/>
<path d="M260.718 227.338C263.593 230.052 266.495 232.793 269.371 235.507C268.611 252.824 270.049 256.895 271.568 257.193C273.928 257.655 277.969 249.485 279.732 243.053C281.061 238.167 281.197 233.879 281.061 230.975C276.559 226.958 272.056 222.941 267.553 218.897C265.275 221.719 262.996 224.542 260.718 227.338Z" fill="#161616" stroke="#161616" stroke-width="2" stroke-miterlimit="10"/>
<path d="M204.272 178.51C204.517 183.016 207.663 185.757 207.663 185.757C209.616 187.467 211.813 187.928 212.898 188.064C213.766 188.417 214.634 188.797 215.529 189.15C216.885 191.104 218.892 193.872 221.551 197.021C225.077 201.255 229.824 206.303 241.433 215.857C247.156 220.552 254.534 226.334 263.458 232.685C264.732 232.06 266.251 231.138 267.77 229.781C271.107 226.822 272.653 223.375 273.358 221.421C271.785 219.901 269.452 217.621 266.74 214.798C254.696 202.34 246.668 191.674 240.538 183.477C236.496 178.076 231.315 170.883 225.592 162.198C212.491 165.781 203.947 172.729 204.272 178.51Z" fill="#878787"/>
<path d="M208.477 186.788C210.647 187.548 212.79 188.281 214.959 189.041C215.448 189.204 215.665 188.417 215.176 188.254C213.007 187.494 210.864 186.761 208.694 186.001C208.206 185.838 207.989 186.625 208.477 186.788Z" fill="#53586C"/>
<path d="M214.064 188.227C224.263 202.259 237.473 213.604 251.17 224.108C255.103 227.121 259.091 230.106 263.078 233.065C263.512 233.39 263.892 232.657 263.485 232.359C249.76 222.181 235.954 211.867 224.29 199.328C220.9 195.691 217.726 191.836 214.797 187.82C214.471 187.412 213.766 187.82 214.064 188.227Z" fill="#53586C"/>
<path d="M230.068 169.309C239.67 184.047 250.492 197.943 262.427 210.863C265.872 214.608 269.425 218.245 273.032 221.801C273.412 222.181 273.982 221.584 273.602 221.231C261.043 208.909 249.543 195.528 239.236 181.279C236.306 177.234 233.485 173.109 230.746 168.902C230.475 168.468 229.769 168.875 230.068 169.309Z" fill="#53586C"/>
<path d="M272.571 221.285C270.998 225.953 267.96 230.296 263.376 232.359C262.888 232.576 263.322 233.282 263.783 233.065C268.557 230.92 271.703 226.361 273.331 221.502C273.521 221.014 272.734 220.797 272.571 221.285Z" fill="#53586C"/>
<path opacity="0.09" d="M230.095 168.875C228.549 166.785 227.247 165.075 226.379 163.962C225.511 165.564 224.317 168.251 224.209 171.589C223.965 179.134 229.498 182.364 245.366 199.952C252.282 207.606 255.944 212.22 264.868 221.339C266.957 223.457 268.72 225.221 269.994 226.469C270.971 224.759 271.947 223.049 272.951 221.339C264.353 212.708 257.544 204.919 252.445 198.758C247.536 192.814 243.142 187.494 238.612 180.871C237.445 179.216 234.489 174.792 230.095 168.875Z" fill="#494949"/>
<path opacity="0.09" d="M234.896 176.502C235.275 178.374 236.062 181.55 237.608 185.241C242.084 195.772 248.702 200.223 260.609 213.387C262.888 215.911 266.414 219.901 270.537 225.058C271.486 223.701 272.436 222.371 273.385 221.014C272.517 220.2 271.134 218.924 269.452 217.295C266.36 214.31 257.978 205.977 241.975 185.648C240.239 183.477 237.798 180.329 234.896 176.502Z" fill="#494949"/>
<path d="M146.851 152.508C146.308 152.726 145.494 153.187 143.08 157.068C140.476 161.248 138.713 164.098 137.411 168.603C136.272 172.62 136.001 176.285 136.082 179.27C136.272 180.139 136.408 181.414 135.974 182.826C135.404 184.617 134.373 185.051 132.42 187.494C131.634 188.471 130.332 190.127 129.301 192.379C128.162 194.904 128.732 195.229 127.647 197.699C126.345 200.658 124.419 202.693 124.093 203.019C122.303 204.892 121.435 204.946 120.649 206.574C119.753 208.42 120.025 210.157 120.106 210.673C120.16 211.053 120.73 214.364 122.656 214.771C123.171 214.88 123.985 214.826 124.31 214.337C124.826 213.577 123.632 212.519 123.415 210.673C123.225 208.99 123.958 207.633 124.419 206.792C125.802 204.213 127.402 204.593 128.867 202.449C130.278 200.332 128.949 199.681 130.305 195.691C131.064 193.465 131.824 191.24 133.858 189.584C134.78 188.824 135.675 188.417 136.516 187.141C137.249 186.028 137.52 184.916 137.628 184.156C139.12 186.544 140.693 188.091 141.833 189.041C143.352 190.29 145.087 191.755 146.552 191.212C147.339 190.914 148.044 190.018 147.908 189.394C147.827 189.041 147.502 188.932 146.661 188.173C146.661 188.173 146.335 187.874 145.603 187.087C145.115 186.571 144.409 185.621 143.785 183.83C144.03 183.558 144.653 182.961 145.494 182.907C146.417 182.88 147.122 183.531 147.827 184.237C149.156 185.54 149.102 186.327 149.943 187.114C150.594 187.738 151.787 188.39 154.147 188.227C154.038 187.928 153.849 187.44 153.604 186.897C152.764 185.078 152.33 184.888 152.275 184.128C152.248 183.531 152.492 183.368 153.604 181.469C154.554 179.84 155.015 179.026 155.042 178.592C155.178 176.99 153.794 176.447 153.496 174.602C153.225 173.055 153.903 171.806 154.391 170.829C157.212 165.102 159.002 161.465 158.487 158.724C157.7 154.436 150.865 150.826 146.851 152.508Z" fill="#161616"/>
<path d="M145.603 153.486C141.67 157.503 139.147 162.605 137.466 167.925C135.838 173.109 134.617 179.026 137.194 184.101C137.438 184.563 138.144 184.156 137.9 183.694C135.35 178.7 136.733 172.783 138.388 167.708C140.015 162.66 142.429 157.883 146.172 154.056C146.525 153.676 145.955 153.106 145.603 153.486Z" fill="#161616"/>
<path d="M141.534 176.936C141.86 176.773 142.185 176.637 142.511 176.474C142.755 176.61 142.999 176.773 143.243 176.909C143.541 177.18 143.813 177.533 144.002 177.886C144.382 178.537 144.572 179.324 144.518 180.084C144.409 181.55 143.352 182.69 143.08 184.101C142.918 184.97 143.487 185.594 143.975 186.245C144.816 187.358 145.793 188.39 146.851 189.312C147.23 189.665 147.827 189.095 147.42 188.742C146.742 188.118 146.064 187.494 145.467 186.788C144.491 185.675 143.623 184.725 144.301 183.178C144.898 181.821 145.521 180.546 145.25 178.999C145.033 177.804 144.355 176.583 143.297 175.932C142.402 175.389 141.317 175.497 140.829 176.502C140.585 176.99 141.29 177.397 141.534 176.936Z" fill="#161616"/>
<path d="M137.249 184.21C138.822 186.734 140.992 188.824 143.623 190.208C144.409 190.615 145.901 191.565 146.851 191.158C147.746 190.778 147.583 189.692 147.339 188.96C147.176 188.471 146.389 188.688 146.552 189.177C147.176 191.158 144.545 189.774 144.03 189.503C143.189 189.068 142.402 188.553 141.643 187.955C140.151 186.788 138.93 185.377 137.927 183.776C137.683 183.369 136.977 183.776 137.249 184.21Z" fill="#161616"/>
<path d="M155.937 159.294C154.337 164.668 153.333 170.205 152.872 175.796C152.845 175.959 153.008 176.149 153.17 176.176C154.879 176.637 154.635 178.754 154.011 179.949C153.387 181.089 152.411 182.039 151.923 183.26C151.055 185.458 153.632 186.164 153.577 188.091C153.713 187.955 153.849 187.82 153.984 187.684C151.543 187.548 149.482 186.246 148.261 184.128C147.393 182.609 146.389 182.283 144.653 182.391C144.138 182.419 144.138 183.233 144.653 183.206C145.304 183.178 146.091 183.097 146.688 183.423C147.203 183.721 147.366 184.237 147.637 184.698C148.098 185.486 148.695 186.191 149.4 186.761C150.729 187.847 152.275 188.39 153.957 188.498C154.174 188.498 154.364 188.308 154.364 188.091C154.391 186.951 153.632 186.273 153.008 185.404C151.706 183.586 153.849 181.903 154.689 180.356C155.612 178.673 155.585 175.959 153.36 175.389C153.469 175.525 153.55 175.66 153.659 175.769C154.093 170.232 155.123 164.804 156.697 159.484C156.859 159.022 156.073 158.805 155.937 159.294Z" fill="#161616"/>
<path d="M135.811 179.514C136.001 181.143 135.784 182.744 134.997 184.21C134.265 185.594 133.071 186.598 131.905 187.657C129.844 189.584 128.894 191.701 128.243 194.415C127.538 197.292 126.697 199.599 124.609 201.771C123.035 203.372 121.191 204.865 120.215 206.955C119.265 208.99 119.401 211.352 120.621 213.251C121.327 214.364 123.741 216.59 124.663 214.473C125.043 213.604 124.609 212.519 124.31 211.677C124.039 210.944 123.686 210.212 123.686 209.397C123.686 208.257 124.337 207.28 125.097 206.493C126.941 204.566 129.301 203.48 130.115 200.739C130.576 199.192 130.251 197.645 130.359 196.071C130.495 194.117 131.417 192.461 132.827 191.131C134.97 189.095 137.818 187.413 137.818 184.101C137.818 183.586 137.004 183.586 137.004 184.101C136.977 187.277 133.885 188.851 131.932 190.86C130.413 192.407 129.545 194.361 129.518 196.532C129.491 197.971 129.735 199.328 129.247 200.712C128.704 202.286 127.565 203.345 126.317 204.376C124.717 205.652 122.873 207.145 122.873 209.397C122.873 210.483 123.415 211.46 123.741 212.491C123.822 212.763 124.12 213.496 123.985 213.713C123.714 213.74 123.415 213.794 123.144 213.821C122.656 214.12 122.276 214.066 122.005 213.659C121.408 213.279 120.893 212.139 120.676 211.487C119.808 208.936 121.001 206.656 122.71 204.81C124.148 203.236 125.829 201.906 127.023 200.115C128.298 198.215 128.677 195.962 129.22 193.791C129.627 192.217 130.169 190.697 131.254 189.448C132.203 188.335 133.397 187.494 134.373 186.408C136.109 184.508 136.896 182.039 136.598 179.514C136.57 178.999 135.757 178.999 135.811 179.514Z" fill="#161616"/>
<path d="M118.207 146.456C117.638 146.782 116.58 147.352 116.363 148.546C116.092 149.876 117.041 150.961 117.177 151.097C117.014 151.287 116.526 151.857 116.471 152.726C116.417 154.164 117.692 155.006 117.746 155.06C117.692 155.114 116.905 155.928 117.177 157.041C117.394 157.991 118.234 158.398 118.343 158.425C118.289 158.588 118.099 159.294 118.451 159.945C118.994 160.922 120.296 160.868 120.432 160.868C121.354 160.814 122.222 160.19 122.629 159.24C123.144 159.538 124.5 160.244 126.345 160.054C127.592 159.918 128.515 159.43 129.003 159.131C129.979 160.841 131.498 163.148 133.75 165.509C135.73 167.572 139.418 171.453 144.898 173.055C151.733 175.063 157.782 172.458 161.253 170.965C170.584 166.948 175.222 159.565 176.931 156.797C179.806 152.074 180.81 148.03 181.678 144.366C183.088 138.558 182.6 136.278 182.139 134.948C181.868 134.134 180.268 129.465 176.579 128.923C173.568 128.461 171.072 131.04 170.774 131.365C169.743 132.451 169.201 133.889 168.116 136.712C167.573 138.151 167.221 139.236 167.058 139.725C165.295 145.452 164.4 148.302 164.156 148.899C163.505 150.527 161.959 154.246 158.243 157.15C154.689 159.918 150.973 160.515 149.319 160.76C146.823 161.112 143.758 161.547 140.503 159.945C136.869 158.154 135.241 154.897 134.807 154.028C133.505 151.341 133.261 148.356 133.071 146.239C132.827 143.525 133.017 141.408 131.444 139.725C131.146 139.426 130.44 138.666 129.708 138.802C128.65 139.019 128.053 141.055 127.511 142.982C127.05 144.61 127.185 144.8 126.806 145.18C126.019 145.967 125.016 145.56 121.571 145.75C119.564 145.886 118.858 146.103 118.207 146.456Z" fill="#878787"/>
<path d="M123.822 145.289C120.893 144.746 115.739 145.506 116.146 149.523C116.499 153.133 120.784 153.757 123.361 152.183C123.795 151.911 123.388 151.206 122.954 151.477C120.811 152.78 116.933 152.427 116.933 149.17C116.933 146.022 121.354 145.669 123.605 146.076C124.12 146.184 124.337 145.397 123.822 145.289Z" fill="#53586C"/>
<path d="M116.851 150.853C113.922 154.435 120.974 158.941 123.063 154.436C123.28 153.974 122.574 153.54 122.357 154.028C120.73 157.502 115.305 154.028 117.448 151.423C117.773 151.043 117.204 150.446 116.851 150.853Z" fill="#53586C"/>
<path d="M117.014 154.49C116.39 155.901 116.824 157.693 118.262 158.425C119.672 159.158 121.435 158.48 122.167 157.123C122.412 156.661 121.706 156.254 121.462 156.715C120.92 157.665 119.699 158.208 118.668 157.72C117.638 157.231 117.258 155.901 117.719 154.897C117.936 154.436 117.231 154.028 117.014 154.49Z" fill="#53586C"/>
<path d="M117.665 158.127C117.556 159.565 118.397 160.868 119.862 161.167C121.218 161.438 122.466 160.542 122.927 159.321C123.117 158.832 122.33 158.615 122.14 159.104C121.788 160.027 120.811 160.624 119.835 160.325C118.831 160.027 118.424 159.104 118.479 158.127C118.506 157.611 117.692 157.611 117.665 158.127Z" fill="#53586C"/>
<path d="M120.242 149.251C120.947 149.17 121.679 149.197 122.276 149.604C122.846 149.984 123.171 150.744 122.846 151.368C122.601 151.83 123.307 152.237 123.551 151.776C123.985 150.934 123.795 149.957 123.144 149.279C122.412 148.491 121.245 148.329 120.215 148.437C119.726 148.519 119.726 149.333 120.242 149.251Z" fill="#53586C"/>
<path d="M122.764 159.864C124.175 159.348 125.531 160.515 126.996 160.352C128.108 160.217 129.084 159.62 130.006 159.077C130.44 158.805 130.034 158.1 129.6 158.371C128.216 159.212 127.023 159.81 125.368 159.321C124.365 159.023 123.578 158.697 122.547 159.077C122.059 159.267 122.249 160.054 122.764 159.864Z" fill="#53586C"/>
<path d="M123.605 145.995C125.016 146.483 126.914 146.565 127.701 145.017C128.135 144.149 127.864 143.09 128.053 142.168C128.27 140.919 128.976 139.888 129.952 139.101C130.359 138.775 129.789 138.205 129.383 138.531C128.325 139.399 127.565 140.593 127.294 141.95C127.158 142.71 127.348 143.606 127.131 144.339C126.643 145.805 125.016 145.615 123.876 145.207C123.334 145.045 123.117 145.832 123.605 145.995Z" fill="#53586C"/>
<path d="M129.355 139.155C131.661 139.453 131.959 143.335 132.339 145.099C132.8 147.406 133.044 149.74 133.478 152.047C134.184 155.738 136.326 158.67 139.744 160.325C143.324 162.035 147.393 161.954 151.136 160.922C154.988 159.837 158.975 157.883 161.47 154.653C161.796 154.246 161.226 153.676 160.901 154.083C158.297 157.448 154.066 159.43 149.997 160.38C145.901 161.329 141.426 160.977 138.008 158.317C134.319 155.467 134.238 151.179 133.505 146.917C133.153 144.909 132.854 142.738 132.122 140.838C131.661 139.643 130.929 138.558 129.6 138.368C129.057 138.286 128.84 139.073 129.355 139.155Z" fill="#53586C"/>
<path d="M128.759 159.62C132.041 163.637 135.214 168.224 139.554 171.182C143.813 174.059 149.075 174.358 154.011 173.543C164.047 171.861 172.564 165.048 177.447 156.254C180.24 151.26 181.895 145.723 182.627 140.051C182.682 139.535 181.868 139.535 181.814 140.051C180.566 149.74 176.335 159.24 168.794 165.645C165.078 168.794 160.657 171.155 155.91 172.295C151.001 173.489 145.332 173.652 140.856 171.019C136.082 168.224 132.746 163.229 129.328 159.023C129.003 158.643 128.433 159.213 128.759 159.62Z" fill="#53586C"/>
<path d="M176.958 128.814C174.707 127.918 172.32 129.085 170.747 130.741C168.903 132.641 167.98 135.165 167.302 137.662C166.516 140.566 165.81 143.443 164.698 146.239C163.505 149.251 161.986 152.101 160.25 154.815C159.952 155.25 160.657 155.657 160.955 155.223C163.749 150.907 165.892 146.212 167.221 141.245C167.926 138.639 168.387 135.925 169.689 133.564C170.991 131.175 173.758 128.407 176.741 129.601C177.23 129.791 177.447 129.004 176.958 128.814Z" fill="#53586C"/>
<path d="M121.462 157.693C122.222 157.747 122.059 159.023 121.923 159.484C121.761 159.972 122.547 160.19 122.71 159.701C123.063 158.67 122.818 156.987 121.462 156.878C120.947 156.851 120.947 157.665 121.462 157.693Z" fill="#53586C"/>
<path d="M121.923 155.196C122.086 155.847 121.842 156.526 121.327 156.906C120.893 157.204 121.3 157.91 121.733 157.611C122.574 157.014 122.981 155.983 122.71 154.978C122.601 154.463 121.815 154.68 121.923 155.196Z" fill="#53586C"/>
<path d="M122.384 152.373C123.117 152.726 122.629 153.893 122.276 154.354C121.95 154.761 122.656 155.168 122.981 154.761C123.605 153.947 123.931 152.21 122.791 151.667C122.33 151.45 121.923 152.156 122.384 152.373Z" fill="#53586C"/>
<path opacity="0.11" d="M116.797 152.481C117.231 152.237 117.936 153.757 119.753 154.517C120.432 154.788 121.272 154.978 125.124 154.517C126.372 154.354 127.999 154.137 129.952 153.784C130.332 155.331 131.118 157.665 132.719 160.081C133.397 161.085 136.136 164.994 141.426 167.301C147.095 169.798 152.221 168.956 154.201 168.603C155.883 168.305 160.575 167.409 164.753 163.772C167.546 161.357 169.337 158.425 171.968 150.799C173.758 145.615 175.928 138.422 177.528 129.492C178.613 130.605 180.295 132.614 181.244 135.599C181.705 137.038 182.139 139.155 181.787 142.466C181.054 149.604 177.474 155.548 175.304 158.588C173.053 161.764 169.038 167.246 161.606 170.639C160.603 171.1 154.934 173.57 147.718 173.245C146.064 173.163 144.545 173.082 142.673 172.403C140.639 171.67 138.605 169.771 134.563 166.025C132.882 164.478 131.227 162.849 129.545 160.488C129.22 160.027 128.949 159.62 128.759 159.348C128.189 159.728 127.348 160.162 126.399 160.054C125.124 159.945 124.69 159.022 123.632 159.185C122.71 159.321 122.71 160.081 121.598 160.488C120.73 160.787 119.509 160.76 118.696 160.135C118.099 159.674 118.017 159.158 117.339 156.227C116.688 153.35 116.499 152.644 116.797 152.481Z" fill="#494949"/>
<path d="M147.8 145.425C147.285 145.533 147.095 146.565 146.769 148.166C146.579 149.143 146.498 149.984 146.471 150.582C145.386 151.857 145.277 153.024 145.25 153.486C145.223 154.436 145.549 155.168 146.172 156.526C146.606 157.503 147.068 158.263 147.393 158.778C146.227 159.05 145.413 159.81 145.359 160.624C145.304 161.411 146.01 162.035 146.281 162.252C147.502 163.311 148.397 162.524 149.943 163.365C151.19 164.044 151.082 164.804 152.899 165.808C154.038 166.432 154.391 166.297 154.527 166.215C154.988 165.917 154.825 164.939 154.744 164.288C154.635 163.501 154.31 162.307 153.415 160.922C154.472 160.543 155.53 160.163 156.561 159.81C155.802 159.891 155.639 159.918 155.639 159.918C155.639 159.891 157.51 159.131 159.111 159.81C160.44 160.38 160.548 161.574 161.66 161.655C162.284 161.71 162.989 161.357 163.288 160.841C163.912 159.783 162.745 158.235 162.474 157.883C161.362 156.417 159.735 155.983 159.002 155.847C159.246 155.304 159.518 154.436 159.572 153.35C159.626 151.504 158.867 150.147 158.514 149.577C158.026 147.976 157.565 146.375 157.076 144.746C156.317 146.51 155.476 147.053 154.825 147.189C154.093 147.352 153.686 146.999 152.492 147.189C151.353 147.379 151.299 147.732 150.648 147.705C149.129 147.542 148.614 145.262 147.8 145.425Z" fill="#161616"/>
<path d="M148.478 154.001C148.939 154.544 149.671 154.897 150.404 154.707C151.055 154.544 151.489 154.001 151.57 153.35C151.597 153.078 151.19 153.078 151.163 153.35C151.109 153.92 150.621 154.327 150.051 154.354C149.536 154.381 149.102 154.083 148.776 153.703C148.586 153.513 148.315 153.811 148.478 154.001Z" fill="#878787"/>
<path d="M154.283 153.106C154.961 154.083 157.158 154.164 157.076 152.617C157.049 152.346 156.642 152.346 156.669 152.617C156.751 153.73 155.096 153.567 154.635 152.889C154.472 152.671 154.12 152.889 154.283 153.106Z" fill="#878787"/>
<path d="M153.225 156.118C153.225 156.146 153.252 156.173 153.252 156.2C153.333 156.227 153.442 156.254 153.523 156.281C153.469 156.173 153.387 156.118 153.252 156.118C153.36 156.091 153.442 156.037 153.55 156.01C153.523 155.983 153.496 155.928 153.469 155.901C153.333 155.956 153.225 156.01 153.089 156.064C153.279 156.363 153.198 156.906 153.089 157.204C152.953 157.611 152.384 158.154 152.031 157.611C151.896 157.394 151.543 157.584 151.679 157.828C152.031 158.371 152.764 158.344 153.17 157.883C153.577 157.421 153.794 156.417 153.442 155.874C153.333 155.684 153.008 155.793 153.062 156.037C153.116 156.2 153.198 156.308 153.333 156.39C153.442 156.471 153.604 156.39 153.632 156.281C153.686 156.037 153.604 155.467 153.225 155.63C152.872 155.766 153.008 156.308 153.17 156.526C153.225 156.607 153.36 156.661 153.442 156.607C153.74 156.39 153.74 155.983 153.415 155.82C153.198 155.657 153.008 156.01 153.225 156.118Z" fill="#878787"/>
<path d="M153.252 156.2C153.36 156.824 153.577 157.584 154.31 157.693C155.042 157.801 155.259 157.096 155.259 156.526C155.259 156.254 154.852 156.254 154.852 156.526C154.852 156.933 154.717 157.503 154.174 157.231C153.767 157.041 153.713 156.498 153.659 156.091C153.604 155.847 153.198 155.956 153.252 156.2Z" fill="#878787"/>
<path d="M145.766 154.137C146.281 151.314 148.315 148.899 151.082 148.084C153.849 147.27 157.049 148.383 158.324 151.043C158.541 151.504 159.246 151.097 159.029 150.636C157.646 147.786 154.255 146.51 151.245 147.216C148.044 147.976 145.576 150.717 144.979 153.92C144.898 154.435 145.684 154.653 145.766 154.137Z" fill="#161616"/>
<path d="M147.203 150.039C147.176 148.682 147.42 147.325 147.99 146.103C148.044 145.995 148.098 145.913 148.125 145.805C148.315 145.479 148.342 145.425 148.18 145.642C148.017 145.777 148.044 145.886 148.288 146.049C148.342 146.13 148.424 146.239 148.478 146.32C148.885 146.972 149.237 147.65 149.536 148.356C149.726 148.844 150.512 148.627 150.322 148.139C150.051 147.487 148.803 144.176 147.746 144.909C147.23 145.262 146.905 146.456 146.742 147.026C146.444 148.003 146.335 149.034 146.362 150.066C146.417 150.554 147.23 150.554 147.203 150.039Z" fill="#161616"/>
<path d="M155.476 147.84C155.747 147.379 156.019 146.917 156.317 146.456C156.453 146.266 156.642 146.076 156.724 145.859C156.914 145.75 156.941 145.642 156.832 145.506C156.724 145.316 156.751 145.37 156.886 145.669C157.348 146.836 157.673 147.976 157.809 149.252C157.863 149.767 158.677 149.767 158.622 149.252C158.541 148.356 158.378 147.487 158.134 146.619C157.971 146.13 157.727 145.017 157.266 144.719C156.914 144.502 156.615 144.665 156.371 144.963C155.747 145.696 155.259 146.592 154.771 147.433C154.5 147.867 155.205 148.274 155.476 147.84Z" fill="#161616"/>
<path d="M145.033 153.703C144.843 158.263 148.966 162.171 153.55 161.221C155.666 160.787 157.619 159.403 158.622 157.475C159.68 155.44 160.277 152.21 158.894 150.202C158.595 149.767 157.89 150.174 158.188 150.609C159.409 152.427 158.812 155.413 157.836 157.231C156.941 158.887 155.178 160.054 153.333 160.434C149.237 161.248 145.684 157.72 145.847 153.703C145.847 153.16 145.033 153.16 145.033 153.703Z" fill="#161616"/>
<path d="M145.603 160.868C146.254 158.452 149.509 158.588 151.218 159.647C153.035 160.732 153.957 162.849 154.147 164.885C154.201 165.455 154.418 166.025 153.469 165.672C153.116 165.536 152.655 165.021 152.384 164.749C151.896 164.261 151.462 163.745 150.919 163.338C150.322 162.877 149.699 162.605 148.966 162.469C147.827 162.252 145.766 162.388 145.657 160.759C145.63 160.244 144.816 160.244 144.843 160.759C144.925 161.818 145.603 162.524 146.579 162.877C147.339 163.148 148.18 163.094 148.966 163.284C149.943 163.528 150.594 164.044 151.272 164.749C151.95 165.428 153.116 166.948 154.283 166.731C155.259 166.541 155.042 165.428 154.961 164.695C154.662 162.089 153.279 159.511 150.729 158.507C148.586 157.665 145.494 158.154 144.843 160.678C144.681 161.167 145.467 161.384 145.603 160.868Z" fill="#161616"/>
<path d="M156.425 157.34C157.537 155.847 160.06 156.444 161.226 157.448C161.904 158.018 162.366 158.805 162.583 159.674C162.637 159.945 162.772 160.515 162.691 160.814C162.42 161.601 161.85 161.357 161.362 160.977C160.684 160.461 160.169 159.728 159.328 159.402C158.921 159.239 158.514 159.212 158.08 159.239C157.673 159.239 157.293 159.348 156.887 159.294C156.127 159.185 155.069 158.48 156.344 157.502C156.751 157.177 156.181 156.607 155.774 156.932C155.151 157.421 154.825 158.154 155.096 158.941C155.476 159.972 156.453 160.189 157.456 160.135C158.46 160.081 159.111 160.108 159.924 160.787C160.304 161.112 160.63 161.492 161.064 161.791C161.633 162.198 162.474 162.578 163.098 162.008C164.536 160.678 162.881 157.72 161.742 156.797C160.114 155.467 157.131 155.087 155.774 156.96C155.422 157.34 156.127 157.747 156.425 157.34Z" fill="#161616"/>
<path d="M147.176 158.615C148.939 158.045 151.624 159.158 152.709 160.597C152.791 160.705 152.953 160.597 152.872 160.488C151.733 158.941 149.02 157.801 147.122 158.425C146.986 158.452 147.04 158.642 147.176 158.615Z" fill="#878787"/>
<path d="M156.615 157.448C157.402 156.525 158.541 156.118 159.735 156.362C159.87 156.39 159.924 156.2 159.789 156.173C158.541 155.928 157.293 156.335 156.48 157.312C156.398 157.421 156.534 157.557 156.615 157.448Z" fill="#878787"/>
<path d="M148.18 145.886C148.451 146.592 148.641 147.297 148.722 148.03C148.776 148.003 148.831 147.976 148.885 147.949C148.749 147.813 148.614 147.732 148.451 147.65C148.369 147.623 148.288 147.65 148.288 147.732C148.288 147.976 148.261 148.193 148.261 148.437C148.315 148.41 148.369 148.383 148.424 148.356C148.044 147.922 147.746 148.899 147.637 149.089C147.583 149.197 147.746 149.306 147.8 149.197C147.827 149.143 148.18 148.383 148.261 148.492C148.315 148.573 148.424 148.492 148.424 148.41C148.424 148.166 148.451 147.949 148.451 147.704C148.397 147.732 148.342 147.759 148.288 147.786C148.451 147.84 148.559 147.922 148.668 148.057C148.722 148.112 148.858 148.084 148.831 147.976C148.722 147.216 148.559 146.483 148.261 145.777C148.315 145.723 148.125 145.777 148.18 145.886Z" fill="#878787"/>
<path d="M156.561 145.533C156.263 146.103 156.1 146.673 156.046 147.324C156.046 147.379 156.127 147.433 156.181 147.433C156.561 147.324 156.615 147.623 156.642 147.949C156.642 148.03 156.751 148.084 156.805 148.03C156.941 148.247 157.049 148.437 157.185 148.654C157.158 148.79 157.375 148.844 157.375 148.709C157.429 148.329 157.185 147.352 156.669 147.894C156.724 147.922 156.778 147.949 156.832 147.976C156.805 147.732 156.751 147.514 156.697 147.27C156.697 147.216 156.642 147.189 156.588 147.189C156.398 147.189 156.263 147.216 156.1 147.27C156.154 147.297 156.181 147.324 156.236 147.379C156.263 146.782 156.425 146.239 156.724 145.696C156.805 145.506 156.615 145.397 156.561 145.533Z" fill="#878787"/>
<path d="M173.568 129.438C173.948 132.044 174.68 136.169 176.199 141.055C179.4 151.26 183.17 155.63 188.161 167.464C189.408 170.422 191.171 174.873 192.907 180.492C196.135 181.55 202.13 182.989 209.453 181.713C221.496 179.623 228.576 171.643 230.556 169.228C226.433 161.628 222.283 153.404 218.241 144.583C214.227 135.844 210.728 127.43 207.69 119.423C205.14 118.473 198.468 116.356 190.276 118.364C180.485 120.726 175.087 127.43 173.568 129.438Z" fill="#757575"/>
<path opacity="0.13" d="M197.383 117.442C198.414 119.613 199.716 122.571 201.099 126.154C205.439 137.554 207.012 146.917 207.582 150.256C208.802 157.15 209.86 167.844 208.124 181.577C211.894 181.469 214.688 180.6 216.451 179.922C221.496 177.913 225.158 174.412 228.684 171.019C229.498 170.259 230.122 169.581 230.529 169.173C229.362 167.165 227.599 164.017 225.538 160.081C219.571 148.736 215.665 139.318 212.383 131.338C211.216 128.543 209.616 124.526 207.744 119.667C206.253 119.043 204.381 118.419 202.184 118.012C200.394 117.659 198.766 117.496 197.383 117.442Z" fill="#494949"/>
<path opacity="0.1" d="M215.339 138.965C215.8 143.823 216.18 147.894 216.451 150.826C217.482 162.307 217.672 165.482 217.753 167.518C217.97 172.322 217.97 176.257 217.943 178.836C219.625 178.239 221.795 177.262 224.046 175.687C226.867 173.706 228.766 171.535 229.986 169.933C225.104 159.592 220.222 149.279 215.339 138.965Z" fill="#494949"/>
<path d="M196.081 112.665C194.779 113.045 194.074 114.917 193.64 116.844C192.772 120.78 193.233 124.146 193.396 125.313C194.182 130.497 195.593 134.378 196.054 135.654C197.247 138.802 198.875 143.009 202.428 147.487C204.462 150.039 206.198 152.237 209.399 153.866C211.271 154.843 215.149 156.824 219.137 155.25C219.326 155.168 223.232 153.567 224.236 150.147C224.453 149.387 224.507 148.627 224.589 147.134C224.643 146.239 224.67 144.665 224.48 142.71C224.209 140.132 223.639 138.123 223.205 136.685C221.279 130.307 220.33 127.131 218.323 124.363C216.668 122.083 214.797 119.477 211.705 119.124C211.433 119.097 208.314 118.799 206.47 120.97C205.195 122.49 205.276 124.363 205.303 125.611C205.385 128 206.307 129.71 207.744 132.342C209.182 134.948 209.752 135.274 211.46 138.368C213.793 142.602 213.549 143.009 213.44 143.117C212.979 143.525 211.135 142.249 210.728 141.95C210.348 141.679 209.806 141.299 209.128 140.566C207.012 138.205 205.764 134.649 205.764 134.649C204.652 132.451 203.188 129.33 201.696 125.367C202.157 123.603 202.862 122.354 203.432 121.54C204.354 120.237 205.385 119.341 205.629 117.713C205.737 117.089 205.683 116.546 205.629 116.193C206.09 115.759 206.225 115.107 205.981 114.565C205.683 113.94 204.951 113.642 204.245 113.859C204.245 113.777 204.164 113.072 203.54 112.692C203.025 112.366 202.32 112.42 201.804 112.8C200.99 112.176 200.312 112.013 199.824 111.986C199.255 111.959 198.983 112.095 197.627 112.339C196.488 112.637 196.406 112.583 196.081 112.665Z" fill="#878787"/>
<path d="M202.889 124.119C203.622 122.3 204.544 120.644 205.547 118.962C206.063 118.093 206.659 117.007 205.954 116.057C204.354 113.995 202.184 116.627 201.506 117.985C201.262 118.446 201.967 118.853 202.211 118.392C202.618 117.577 203.079 116.573 204.028 116.302C204.3 116.166 204.571 116.166 204.869 116.247C204.951 116.872 205.032 117.496 205.14 118.12C205.059 118.473 204.571 119.043 204.381 119.369C203.513 120.807 202.808 122.327 202.157 123.874C201.913 124.39 202.699 124.58 202.889 124.119Z" fill="#53586C"/>
<path d="M194.02 127.62C193.613 124.715 193.558 121.757 193.884 118.853C194.182 116.193 194.752 112.149 198.441 112.909C198.956 113.017 199.173 112.23 198.658 112.122C195.755 111.525 193.938 113.587 193.45 116.22C192.718 120.047 192.69 123.955 193.233 127.837C193.314 128.352 194.101 128.135 194.02 127.62Z" fill="#53586C"/>
<path d="M197.41 115.107C197.708 114.402 198.034 113.669 198.604 113.126C199.58 112.176 200.828 112.692 201.886 113.207C202.347 113.452 202.754 112.746 202.292 112.502C201.18 111.932 199.933 111.389 198.739 112.013C197.708 112.556 197.166 113.669 196.732 114.673C196.515 115.189 197.22 115.596 197.41 115.107Z" fill="#53586C"/>
<path d="M199.824 115.352C200.828 114.049 202.157 112.692 203.893 113.723C204.354 113.995 204.761 113.289 204.3 113.017C202.238 111.796 200.502 113.126 199.255 114.755C198.929 115.189 199.499 115.759 199.824 115.352Z" fill="#53586C"/>
<path d="M201.641 115.949C202.157 115.406 202.699 114.836 203.405 114.565C204.245 114.212 205.791 114.429 205.466 115.705C205.357 116.22 206.117 116.437 206.253 115.922C206.524 114.809 205.791 113.777 204.679 113.587C203.188 113.316 202.021 114.402 201.072 115.379C200.719 115.759 201.289 116.329 201.641 115.949Z" fill="#53586C"/>
<path d="M201.967 123.711C201.018 125.747 202.184 127.81 202.998 129.682C204.137 132.315 205.33 134.948 206.795 137.391C208.694 140.593 212.817 146.347 217.129 143.063C217.536 142.738 217.129 142.032 216.723 142.358C212.573 145.533 208.721 139.128 207.039 136.169C206.063 134.432 205.195 132.641 204.381 130.822C203.567 129.004 201.75 126.154 202.699 124.118C202.889 123.657 202.184 123.223 201.967 123.711Z" fill="#53586C"/>
<path d="M205.466 121.648C203.079 129.764 210.403 136.061 213.088 143.009C213.278 143.497 214.064 143.28 213.874 142.792C211.271 136.061 203.947 129.709 206.253 121.866C206.388 121.35 205.602 121.133 205.466 121.648Z" fill="#53586C"/>
<path d="M193.206 127.403C194.589 135.002 197.817 142.195 202.564 148.302C204.869 151.233 207.5 154.083 211.135 155.277C214.227 156.281 218.486 156.797 221.361 154.924C224.507 152.916 224.914 148.817 225.05 145.425C225.077 144.909 224.263 144.909 224.236 145.425C224.073 149.794 223.097 154.626 217.916 155.25C213.142 155.82 208.694 153.92 205.466 150.473C199.472 144.095 195.538 135.762 193.965 127.185C193.911 126.67 193.124 126.887 193.206 127.403Z" fill="#53586C"/>
<path d="M206.008 122.734C206.876 119.26 211.054 119.016 213.657 120.536C216.316 122.083 218.133 124.878 219.462 127.565C220.845 130.388 221.849 133.428 222.825 136.413C223.938 139.833 224.778 143.416 224.209 147.026C224.127 147.541 224.914 147.759 224.995 147.243C225.646 143.117 224.616 139.128 223.287 135.219C222.066 131.664 220.873 128 218.838 124.797C217.129 122.083 214.58 119.26 211.216 118.799C208.612 118.446 205.846 119.857 205.195 122.517C205.086 123.033 205.873 123.25 206.008 122.734Z" fill="#53586C"/>
<path opacity="0.1" d="M197.085 112.312C199.255 111.443 201.37 112.393 201.886 112.637C200.367 114.646 197.139 119.504 196.868 126.371C196.461 136.142 202.292 142.629 204.354 144.936C207.012 147.894 210.484 151.748 214.959 151.206C217.482 150.907 219.869 149.224 221.09 147.08C222.31 144.936 222.229 142.602 220.764 136.576C218.513 127.457 216.044 122.11 216.397 121.947C216.75 121.784 219.679 126.371 221.876 132.125C222.093 132.722 223.91 137.553 224.561 144.203C224.968 148.301 224.616 149.984 223.775 151.477C222.473 153.784 220.357 154.815 219.543 155.168C216.261 156.553 213.115 155.575 211.623 155.06C206.28 153.268 203.432 148.926 200.556 144.556C196.135 137.798 194.915 132.017 193.748 126.452C192.935 122.598 192.392 118.12 194.426 114.836C194.779 114.157 195.566 112.936 197.085 112.312Z" fill="#494949"/>
<path d="M157.917 99.0938C157.836 100.369 158.297 101.808 159.273 104.685C160.358 107.915 161.525 111.362 164.454 114.755C166.326 116.926 168.604 119.586 172.483 120.346C175.548 120.943 178.125 120.074 179.427 119.531C179.725 120.346 180.132 121.214 180.647 122.11C182.004 124.498 183.685 126.181 185.014 127.294C186.018 127.185 187.971 126.778 189.653 125.258C190.955 124.064 191.578 122.653 191.958 121.73C192.419 120.644 192.663 119.694 192.772 119.016C191.958 118.527 191.063 117.876 190.195 116.98C187.483 114.212 186.75 110.928 186.533 109.353C186.886 106.232 187.266 103.084 187.618 99.9623C188.025 100.017 188.893 100.071 189.653 99.5552C190.493 98.9852 190.656 98.0353 190.873 96.9768C191.09 95.9183 191.334 94.5612 190.738 93.0141C190.466 92.3356 189.598 90.1642 187.754 90.0285C186.506 89.92 185.231 90.7614 184.499 92.0642C182.926 90.5442 179.562 87.8572 174.843 87.4229C166.678 86.663 158.378 93.0412 157.917 99.0938Z" fill="#DADADA"/>
<path d="M169.96 111.498C169.743 112.068 170.367 112.882 170.828 113.289C172.103 114.402 174.354 114.348 175.982 113.588C178.26 112.529 178.993 110.249 179.318 109.218C179.698 108.078 180.186 106.585 179.4 105.255C178.721 104.088 177.528 103.681 177.067 103.545C176.606 104.495 176.253 105.201 175.982 105.662C175.656 106.232 175.548 106.422 175.358 106.856C175.087 107.426 175.06 107.644 174.68 108.159C173.134 110.168 171.018 110.901 171.018 110.901C170.53 111.009 170.096 111.118 169.96 111.498Z" fill="#53586C"/>
<path d="M158.351 102.351C160.494 109.055 163.179 116.872 170.096 120.02C172.917 121.296 176.28 121.54 179.155 120.291C182.383 118.907 184.282 115.705 185.584 112.61C187.293 108.566 188.025 104.169 187.754 99.7996C187.727 99.2839 186.913 99.2839 186.94 99.7996C187.211 104.359 186.398 108.946 184.472 113.099C182.6 117.143 179.644 120.373 174.897 120.319C165.349 120.21 161.47 109.679 159.084 102.161C158.975 101.618 158.216 101.835 158.351 102.351Z" fill="#53586C"/>
<path d="M184.797 92.8241C184.824 91.1957 186.506 90.2186 187.998 90.68C189.381 91.1414 190.249 92.4984 190.548 93.8555C190.819 95.1583 190.71 96.6782 190.304 97.9268C189.978 98.9581 189.571 99.501 188.323 99.501C187.889 99.501 187.455 99.3381 186.994 99.3381C186.479 99.3381 186.479 100.152 186.994 100.152C187.917 100.152 188.812 100.587 189.707 100.125C190.358 99.7995 190.738 99.1481 191.009 98.4696C191.714 96.624 191.795 94.1269 190.9 92.3085C190.168 90.8157 188.595 89.54 186.859 89.73C185.258 89.8929 184.011 91.1956 183.984 92.797C183.984 93.3398 184.797 93.3398 184.797 92.8241Z" fill="#53586C"/>
<path d="M186.398 107.698C186.316 112.176 188.296 116.465 191.822 119.26C192.229 119.586 192.799 119.016 192.392 118.69C189.029 116.03 187.13 112.013 187.211 107.698C187.211 107.182 186.398 107.182 186.398 107.698Z" fill="#53586C"/>
<path d="M179.4 119.857C180.43 122.707 182.112 125.204 184.363 127.213C184.743 127.565 185.34 126.996 184.933 126.643C182.763 124.716 181.163 122.354 180.159 119.64C179.996 119.152 179.21 119.369 179.4 119.857Z" fill="#53586C"/>
<path d="M184.553 127.484C186.886 128.325 189.219 126.344 190.656 124.688C192.175 122.951 193.504 120.699 192.853 118.337C192.718 117.822 191.931 118.039 192.067 118.554C192.609 120.617 191.389 122.626 190.059 124.118C188.812 125.53 186.777 127.43 184.743 126.697C184.282 126.507 184.065 127.294 184.553 127.484Z" fill="#53586C"/>
<path d="M161.389 99.5011C161.036 98.4968 161.85 97.4112 162.447 96.7055C163.342 95.5927 164.725 95.2941 165.756 96.4341C166.95 97.7369 167.275 100.071 167.438 101.754C167.546 102.921 167.139 104.414 167.818 105.445C168.55 106.558 169.906 107.209 171.181 107.454C171.696 107.562 171.913 106.775 171.398 106.666C170.72 106.531 170.123 106.314 169.526 105.934C168.55 105.282 168.333 104.577 168.306 103.409C168.279 102.405 168.252 101.428 168.089 100.424C167.818 98.7682 167.356 96.6512 166 95.5384C164.861 94.5884 163.451 94.6156 162.338 95.5655C161.281 96.4884 160.06 98.2525 160.575 99.6911C160.792 100.207 161.579 99.9896 161.389 99.5011Z" fill="#53586C"/>
<path d="M168.903 93.6384C169.092 90.3543 173.188 89.1601 175.087 91.8471C175.385 92.2814 176.09 91.8742 175.792 91.44C173.432 88.0744 168.333 89.5129 168.089 93.6384C168.062 94.1541 168.875 94.1541 168.903 93.6384Z" fill="#53586C"/>
<path d="M165.214 101.672C164.834 101.157 164.617 100.587 164.59 99.9623C164.373 100.071 164.183 100.207 163.966 100.315C164.59 100.722 164.915 101.374 164.888 102.107C165.051 101.971 165.241 101.835 165.403 101.727C164.725 101.482 164.291 100.722 164.427 100.017C164.237 100.098 164.02 100.179 163.83 100.261C164.156 100.451 164.427 100.722 164.617 101.075C164.698 101.238 164.753 101.401 164.78 101.591C164.78 101.727 164.78 101.564 164.753 101.509C164.698 101.401 164.644 101.319 164.59 101.211C164.373 100.722 163.668 101.157 163.885 101.618C164.047 101.998 164.319 102.405 164.807 102.432C165.214 102.459 165.566 102.188 165.62 101.781C165.702 100.885 164.997 99.9895 164.264 99.5824C164.047 99.4466 163.722 99.5552 163.668 99.8266C163.451 100.994 164.102 102.134 165.214 102.541C165.485 102.622 165.729 102.405 165.729 102.161C165.756 101.129 165.268 100.207 164.4 99.6638C164.156 99.5009 163.776 99.7181 163.776 100.017C163.803 100.777 164.047 101.509 164.508 102.134C164.834 102.514 165.539 102.107 165.214 101.672Z" fill="#53586C"/>
<path d="M172.808 96.434C172.673 96.2711 172.564 96.0811 172.51 95.864C172.51 95.8097 172.456 95.484 172.51 95.4569C172.564 95.4297 172.7 95.864 172.727 95.8911C172.781 96.1083 172.754 96.3525 172.646 96.5425C172.836 96.4882 173.025 96.434 173.215 96.4068C172.537 96.0268 172.212 95.3212 172.32 94.5612C172.103 94.6698 171.913 94.8055 171.696 94.914C172.456 95.2397 172.89 96.0268 172.7 96.8411C172.863 96.7597 173.025 96.6511 173.188 96.5697C172.781 96.434 172.456 96.0811 172.374 95.6469C172.374 95.6197 172.374 95.3754 172.347 95.3754C172.293 95.4026 172.239 95.4297 172.157 95.4569C172.185 95.5112 172.239 95.5926 172.266 95.6469C172.374 95.9454 172.374 96.244 172.347 96.5697C172.591 96.4611 172.808 96.3797 173.053 96.2711C172.808 96.0811 172.619 95.864 172.483 95.5654C172.239 95.104 171.534 95.5111 171.778 95.9726C171.94 96.2983 172.185 96.5968 172.483 96.8411C172.781 97.0854 173.134 96.9225 173.188 96.5425C173.242 95.9997 173.188 95.2669 172.781 94.8597C172.456 94.534 171.859 94.5069 171.642 94.9955C171.208 95.9454 172.13 97.0582 172.971 97.3568C173.188 97.4382 173.432 97.2754 173.459 97.0854C173.758 95.9454 173.188 94.6969 172.076 94.2355C171.778 94.0998 171.506 94.2626 171.452 94.5883C171.317 95.6197 171.859 96.624 172.754 97.1396C172.917 97.2482 173.215 97.1939 173.324 97.0039C173.541 96.4882 173.595 95.9726 173.405 95.4569C173.242 95.0497 172.89 94.6155 172.429 94.6698C171.235 94.8055 171.751 96.5154 172.239 97.0582C172.591 97.4111 173.161 96.8139 172.808 96.434Z" fill="#53586C"/>
<path d="M179.888 119.776C179.888 119.803 179.888 119.803 179.861 119.83C180.023 119.749 180.186 119.64 180.349 119.559C180.322 119.559 180.295 119.531 180.268 119.531C180.349 119.721 180.43 119.939 180.512 120.129C180.566 120.02 181.298 119.667 181.515 119.477C182.004 119.07 182.41 118.527 182.79 118.011C183.631 116.899 184.255 115.677 184.77 114.402C184.499 114.32 184.255 114.266 183.984 114.185C183.17 116.519 182.6 119.776 180.322 121.16C180.512 121.35 180.702 121.54 180.891 121.73C181.434 120.916 181.976 120.074 182.519 119.26C182.763 118.88 182.193 118.419 181.868 118.771C181.434 119.233 180.973 119.721 180.539 120.183C180.729 120.373 180.919 120.563 181.108 120.753C181.515 120.264 181.895 119.749 182.248 119.233C182.519 118.853 181.922 118.391 181.597 118.744C181.217 119.151 180.837 119.45 180.349 119.694C180.566 119.803 180.756 119.939 180.973 120.047C180.973 119.966 180.946 119.884 180.946 119.803C180.891 119.287 180.078 119.287 180.132 119.803C180.132 119.884 180.159 119.966 180.159 120.047C180.186 120.346 180.485 120.563 180.783 120.4C181.325 120.101 181.759 119.776 182.193 119.314C181.976 119.151 181.759 118.989 181.542 118.826C181.217 119.287 180.891 119.749 180.539 120.183C180.213 120.59 180.756 121.16 181.108 120.753C181.542 120.291 182.004 119.803 182.437 119.341C182.22 119.179 182.004 119.016 181.787 118.853C181.244 119.667 180.702 120.508 180.159 121.323C179.942 121.676 180.376 122.083 180.729 121.893C183.224 120.373 183.875 117.007 184.77 114.429C184.933 113.913 184.173 113.75 183.984 114.212C183.414 115.596 182.682 116.953 181.705 118.093C181.244 118.636 180.512 118.934 180.078 119.423C179.969 119.531 179.861 119.559 179.806 119.694C179.671 119.939 179.779 120.183 180.051 120.291C180.078 120.291 180.105 120.318 180.132 120.318C180.349 120.4 180.566 120.237 180.62 120.047C180.62 120.02 180.62 120.02 180.647 119.993C180.864 119.504 180.078 119.287 179.888 119.776Z" fill="#53586C"/>
<path d="M182.899 118.962C183.143 118.69 183.305 118.419 183.387 118.093C183.522 117.605 182.899 117.442 182.655 117.767C182.085 118.527 181.515 119.287 180.946 120.047C180.62 120.454 181.325 120.861 181.651 120.454C182.221 119.694 182.79 118.934 183.36 118.174C183.116 118.066 182.871 117.957 182.627 117.849C182.573 118.039 182.492 118.202 182.356 118.364C181.976 118.799 182.573 119.369 182.899 118.962Z" fill="#53586C"/>
<path d="M170.367 112.231C169.608 110.711 170.421 110.141 171.94 109.733C172.13 109.679 172.32 109.652 172.483 109.571C173.134 109.272 173.514 108.621 173.785 107.996C174.219 107.074 174.463 106.069 175.033 105.228C176.226 103.41 178.342 103.491 179.02 105.662C179.698 107.834 178.857 110.249 177.42 111.905C176.714 112.719 175.846 113.479 174.816 113.832C173.92 114.158 173.134 114.049 172.266 113.669C171.642 113.398 170.503 112.855 170.34 112.149C170.232 111.633 169.445 111.851 169.553 112.366C169.852 113.778 171.968 114.646 173.242 114.836C174.626 115.053 175.928 114.375 176.986 113.506C179.345 111.552 180.81 108.105 179.671 105.119C178.45 101.89 175.141 103.084 173.92 105.635C173.541 106.422 173.351 107.752 172.727 108.322C171.94 109.055 170.937 108.784 170.123 109.354C168.984 110.168 169.092 111.606 169.662 112.719C169.906 113.126 170.611 112.719 170.367 112.231Z" fill="#53586C"/>
<path d="M169.825 111.389C174.029 111.28 176.063 107.372 176.986 103.789C177.121 103.274 176.335 103.057 176.199 103.572C175.385 106.775 173.622 110.466 169.825 110.575C169.309 110.602 169.309 111.416 169.825 111.389Z" fill="#53586C"/>
<path d="M158.677 101.917C158.188 102.188 155.232 98.9582 153.984 94.6427C153.062 91.4942 153.333 88.6986 153.659 86.9344C154.12 85.5231 154.771 84.0032 155.666 82.4561C159.518 75.8335 165.593 72.7123 168.74 71.3823C168.089 72.0066 167.329 72.8208 166.624 73.8522C165.648 75.2093 165.024 76.4849 164.617 77.5435C165.539 76.7564 166.597 75.9693 167.736 75.2093C170.286 73.4994 172.754 72.278 174.897 71.4095C174.571 72.7937 174.219 74.1779 173.893 75.535C174.653 75.1007 175.711 74.4765 177.013 73.8522C178.45 73.1737 181.407 71.7623 181.868 72.3866C182.004 72.5766 181.841 72.7937 181.597 73.5808C181.271 74.6122 181.163 75.4807 181.108 76.0507C181.949 75.915 182.899 75.8064 183.929 75.7793C185.069 75.725 186.099 75.7793 187.021 75.8607C186.696 77.1092 186.371 78.3306 186.045 79.5791C186.696 79.8234 187.618 80.2848 188.568 81.0447C191.117 83.1346 191.85 85.9573 192.039 87.0702C192.446 89.73 191.795 91.9556 191.307 93.177C190.005 90.4086 187.428 89.3229 185.964 90.0014C185.069 90.4086 184.038 91.7114 184.146 93.0413C184.173 93.3399 184.255 93.6113 184.336 93.8013C183.387 92.9327 181.949 91.7656 180.078 90.68C178.206 89.5943 176.118 88.3729 173.351 88.0201C168.143 87.3416 164.074 90.1914 162.989 90.9785C161.308 92.1728 158.568 94.0998 158.08 97.1668C157.592 99.7453 159.056 101.727 158.677 101.917Z" fill="#2B2B2B"/>
<path opacity="0.11" d="M179.318 90.0015C180.159 91.9014 181.298 94.8598 181.922 98.5782C182.573 102.269 183.387 107.019 181.407 112.285C180.729 114.076 179.128 117.523 175.331 120.753C176.226 120.726 177.772 120.563 179.4 119.694C182.058 118.31 183.224 116.003 183.577 115.189C184.852 116.437 186.56 118.392 187.862 121.16C188.595 122.707 189.056 124.146 189.327 125.34C190.059 124.688 191.416 123.277 192.039 121.051C192.284 120.183 192.365 119.396 192.365 118.744C190.792 117.876 189.788 116.817 189.219 116.139C188.974 115.84 186.56 112.8 186.696 108.593C186.75 107.074 187.076 107.046 187.32 104.712C187.537 102.622 187.428 100.858 187.32 99.691C188.703 100.261 189.408 99.9896 189.734 99.7996C190.358 99.4196 190.521 98.7411 191.09 95.2941C191.389 93.4485 191.551 92.5256 191.606 92.0371C191.931 89.4044 192.094 88.0744 191.931 87.0159C191.47 84.0032 189.544 81.9947 188.893 81.3705C187.808 80.3119 186.696 79.7148 185.964 79.3891C186.289 78.2492 186.588 77.0821 186.913 75.9421C185.367 77.7606 183.929 79.0091 182.953 79.8234C180.512 81.7776 179.101 82.239 177.42 84.1118C176.09 85.5774 175.331 87.0702 174.897 88.0744C176.389 88.753 177.854 89.3772 179.318 90.0015Z" fill="#494949"/>
<path opacity="0.17" d="M169.201 72.3052C168.224 72.5494 165.919 73.3094 163.993 75.4536C163.532 75.9964 162.447 77.2992 161.85 79.3348C161.199 81.5604 161.443 83.4604 161.633 84.3832C162.121 82.1847 163.261 78.6834 166.027 75.3722C167.085 74.0965 168.197 73.0651 169.201 72.3052Z" fill="#494949"/>
<path opacity="0.08" d="M187.32 99.8268C187.238 99.7997 187.076 100.098 186.479 102.161C185.665 104.957 185.231 107.019 184.987 108.051C184.635 109.543 184.038 111.661 182.926 114.212C184.852 114.592 186.777 114.972 188.703 115.325C187.998 113.778 187.157 111.552 186.832 108.784C186.316 104.034 187.591 99.8811 187.32 99.8268Z" fill="#494949"/>
</svg>
