<svg id="ico_like" xmlns="http://www.w3.org/2000/svg" width="24" height="24" viewBox="0 0 24 24">
  <rect id="長方形_499" data-name="長方形 499" width="24" height="24" fill="none"/>
  <path id="パス_39894" data-name="パス 39894" d="M12.742-4.4A2.467,2.467,0,0,1,12.5-2.68a2.646,2.646,0,0,1-.068.957,2.555,2.555,0,0,1-.4.875,2.437,2.437,0,0,1-.766,1.859,3.294,3.294,0,0,1-2.324.738h-.6A8.447,8.447,0,0,1,6.234,1.5a11.061,11.061,0,0,1-1.367-.465Q4.375.848,4.156.766A2.322,2.322,0,0,0,3.473.656a.945.945,0,0,1-.314.465.815.815,0,0,1-.533.191H.875a.841.841,0,0,1-.615-.26A.841.841,0,0,1,0,.438V-6.125A.841.841,0,0,1,.26-6.74.841.841,0,0,1,.875-7H3.582a9.6,9.6,0,0,0,.93-1.107A13.178,13.178,0,0,1,5.469-9.27a2.146,2.146,0,0,0,.246-.793,6.165,6.165,0,0,1,.492-1.422,1.337,1.337,0,0,1,1.2-.766,2.588,2.588,0,0,1,1.914.684,3.038,3.038,0,0,1,.711,2.187,3.43,3.43,0,0,1-.246,1.258h.984a2.226,2.226,0,0,1,1.668.711,2.3,2.3,0,0,1,.684,1.641A2.676,2.676,0,0,1,12.742-4.4ZM11.074-2.926a1.349,1.349,0,0,0,.424-.943,1.177,1.177,0,0,0-.287-.861q.191,0,.4-.328a1.317,1.317,0,0,0,.205-.711,1.034,1.034,0,0,0-.3-.711.963.963,0,0,0-.738-.328H7.93a1.9,1.9,0,0,1,.137-.684,3.758,3.758,0,0,1,.246-.574q.191-.383.273-.6a1.968,1.968,0,0,0,.137-.711,2.454,2.454,0,0,0-.164-1.039,1.212,1.212,0,0,0-1.148-.52,1.564,1.564,0,0,0-.246.465,5.486,5.486,0,0,0-.137.574q-.109.547-.191.82a2.041,2.041,0,0,1-.465.738,11.274,11.274,0,0,0-.793.984,10.856,10.856,0,0,1-.9,1.121,1.4,1.4,0,0,1-.875.547H3.5V-.6a4.191,4.191,0,0,1,1.012.137A10.065,10.065,0,0,1,5.5-.137q.82.273,1.258.383A5.76,5.76,0,0,0,8.2.438H9.215a1.536,1.536,0,0,0,1.176-.41,1.576,1.576,0,0,0,.3-1.395,1.07,1.07,0,0,0,.465-.67A1.15,1.15,0,0,0,11.074-2.926ZM2.406-.437A.633.633,0,0,0,2.215-.9a.633.633,0,0,0-.465-.191A.633.633,0,0,0,1.285-.9a.633.633,0,0,0-.191.465.633.633,0,0,0,.191.465A.633.633,0,0,0,1.75.219.633.633,0,0,0,2.215.027.633.633,0,0,0,2.406-.437Z" transform="translate(5 17.25)" fill="#8b9199"/>
</svg>
