<svg width="164" height="161" viewBox="0 0 164 161" fill="none" xmlns="http://www.w3.org/2000/svg">
<path d="M20.7639 123.96L99.503 144.585C105.167 146.068 110.96 142.68 112.444 137.016L140.726 29.0448" stroke="url(#paint0_linear_160_5372)" stroke-linecap="round"/>
<path d="M24.0285 132.101L100.981 158.626C106.516 160.533 112.55 157.593 114.458 152.058L150.83 46.537" stroke="url(#paint1_linear_160_5372)" stroke-linecap="round"/>
<path d="M28.639 139.521L102.811 173.044C108.146 175.455 114.425 173.085 116.837 167.75L162.805 66.0415" stroke="url(#paint2_linear_160_5372)" stroke-linecap="round"/>
<path d="M124.664 17.6391L33.0168 1.8048C27.2476 0.808038 21.7628 4.67683 20.766 10.446L1.76353 120.43" stroke="url(#paint3_linear_160_5372)" stroke-width="2.65019" stroke-linecap="round"/>
<path d="M13.2037 122.407L93.411 136.265C99.1801 137.262 104.665 133.393 105.662 127.624L124.664 17.6395" stroke="#15B3FF" stroke-width="2.65019" stroke-linecap="round"/>
<path d="M82.2569 44.1182C82.5654 43.5861 83.3694 43.725 83.4815 44.3298L84.0507 47.3999C84.1565 47.9703 84.5061 48.466 85.008 48.757L87.7092 50.3234C88.2412 50.6319 88.1023 51.4359 87.4976 51.548L84.4274 52.1172C83.857 52.223 83.3613 52.5726 83.0703 53.0745L81.5039 55.7756C81.1954 56.3077 80.3915 56.1688 80.2793 55.5641L79.7101 52.4939C79.6044 51.9235 79.2547 51.4278 78.7529 51.1368L76.0517 49.5704C75.5196 49.2619 75.6585 48.458 76.2633 48.3458L79.3334 47.7766C79.9038 47.6709 80.3995 47.3212 80.6905 46.8194L82.2569 44.1182Z" stroke="#12B4FF" stroke-width="1.3251"/>
<path d="M104.395 22.9129C104.704 22.3808 105.508 22.5197 105.62 23.1245L106.606 28.4416L107.257 28.3208L106.606 28.4416C106.712 29.012 107.061 29.5077 107.563 29.7987L112.241 32.5114C112.773 32.82 112.634 33.6239 112.03 33.736L106.713 34.7218C106.142 34.8276 105.646 35.1773 105.355 35.6791L102.643 40.3572C102.334 40.8893 101.53 40.7504 101.418 40.1456L100.432 34.8285C100.326 34.2581 99.9768 33.7624 99.475 33.4714L94.7969 30.7586C94.2648 30.4501 94.4037 29.6462 95.0085 29.5341L100.326 28.5482L100.205 27.8968L100.326 28.5482C100.896 28.4425 101.392 28.0928 101.683 27.591L104.395 22.9129Z" stroke="#DE04FF" stroke-width="1.3251"/>
<path d="M102.026 64.2206C102.335 63.6885 103.139 63.8274 103.251 64.4322L103.57 66.1541C103.676 66.7245 104.026 67.2202 104.527 67.5113L106.042 68.3898C106.574 68.6983 106.436 69.5023 105.831 69.6144L104.109 69.9337C103.538 70.0394 103.043 70.3891 102.752 70.8909L101.873 72.4059C101.565 72.938 100.761 72.7991 100.649 72.1944L100.329 70.4724C100.224 69.902 99.8739 69.4063 99.372 69.1153L97.857 68.2367C97.3249 67.9282 97.4638 67.1242 98.0686 67.0121L99.7906 66.6929C100.361 66.5871 100.857 66.2374 101.148 65.7356L102.026 64.2206Z" stroke="#12B4FF" stroke-width="1.3251"/>
<path fill-rule="evenodd" clip-rule="evenodd" d="M65.8346 53.1343C61.3602 52.3612 57.1063 55.3617 56.3332 59.8361L55.5334 64.4656C52.9766 64.0238 50.5458 65.7384 50.1041 68.2952L48.3044 78.7115C47.8626 81.2683 49.5772 83.6991 52.134 84.1408L68.3372 86.9403C70.8939 87.3821 73.3247 85.6675 73.7665 83.1107L75.5662 72.6944C76.0079 70.1376 74.2933 67.7068 71.7365 67.2651L72.5364 62.6356C73.3094 58.1612 70.3089 53.9074 65.8346 53.1343ZM69.4218 66.8652L70.2217 62.2357C70.7738 59.0397 68.6306 56.0012 65.4346 55.449C62.2387 54.8968 59.2002 57.0401 58.648 60.236L57.8481 64.8655L69.4218 66.8652Z" fill="url(#paint4_linear_160_5372)"/>
<defs>
<linearGradient id="paint0_linear_160_5372" x1="62.8875" y1="326.208" x2="-26.7269" y2="302.575" gradientUnits="userSpaceOnUse">
<stop stop-color="#12B4FF"/>
<stop offset="1" stop-color="#E100FF"/>
</linearGradient>
<linearGradient id="paint1_linear_160_5372" x1="50.7242" y1="336.956" x2="-36.8446" y2="306.609" gradientUnits="userSpaceOnUse">
<stop stop-color="#12B4FF"/>
<stop offset="1" stop-color="#E100FF"/>
</linearGradient>
<linearGradient id="paint2_linear_160_5372" x1="36.2889" y1="345.967" x2="-48.1006" y2="307.656" gradientUnits="userSpaceOnUse">
<stop stop-color="#12B4FF"/>
<stop offset="1" stop-color="#E100FF"/>
</linearGradient>
<linearGradient id="paint3_linear_160_5372" x1="54.0629" y1="-182.273" x2="156.879" y2="-164.31" gradientUnits="userSpaceOnUse">
<stop stop-color="#12B4FF"/>
<stop offset="1" stop-color="#E100FF"/>
</linearGradient>
<linearGradient id="paint4_linear_160_5372" x1="61.5777" y1="1.88731" x2="87.2208" y2="6.36371" gradientUnits="userSpaceOnUse">
<stop stop-color="#12B4FF"/>
<stop offset="1" stop-color="#E100FF"/>
</linearGradient>
</defs>
</svg>
