<svg width="772" height="181" viewBox="0 0 772 181" fill="none" xmlns="http://www.w3.org/2000/svg">
<g opacity="0.25">
<path d="M804.282 257.48C773.415 230.576 691.643 155.636 611.488 71.1054C511.295 -34.5579 473.229 -62.7038 448.179 -29.066C423.13 4.57176 461.532 174.998 484.513 270.931C507.494 366.864 499.71 402.077 476.223 386.514C452.736 370.951 353.841 295.136 311.208 240.25" stroke="url(#paint0_linear_160_5336)"/>
<path d="M795.199 262.847C764.332 235.943 682.56 161.003 602.405 76.4724C502.212 -29.191 464.146 -57.3368 439.096 -23.6991C414.047 9.93871 452.449 180.365 475.43 276.298C498.411 372.231 490.627 407.444 467.14 391.881C443.653 376.318 344.758 300.503 302.125 245.617" stroke="url(#paint1_linear_160_5336)"/>
<path d="M786.117 268.211C755.251 241.307 673.479 166.367 593.324 81.836C493.13 -23.8274 455.064 -51.9732 430.015 -18.3354C404.966 15.3024 443.367 185.729 466.348 281.662C489.329 377.594 481.545 412.808 458.059 397.245C434.572 381.681 335.676 305.866 293.044 250.98" stroke="url(#paint2_linear_160_5336)"/>
<path d="M777.037 273.575C746.17 246.671 664.399 171.73 584.244 87.1997C484.05 -18.4637 445.984 -46.6096 420.935 -12.9718C395.886 20.666 434.287 191.092 457.268 287.025C480.249 382.958 472.465 418.172 448.978 402.608C425.492 387.045 326.596 311.23 283.964 256.344" stroke="url(#paint3_linear_160_5336)"/>
<path d="M767.955 278.94C737.088 252.037 655.317 177.096 575.162 92.5655C474.968 -13.0979 436.902 -41.2437 411.853 -7.60593C386.804 26.0318 425.205 196.458 448.186 292.391C471.167 388.324 463.383 423.537 439.896 407.974C416.41 392.411 317.514 316.596 274.882 261.71" stroke="url(#paint4_linear_160_5336)"/>
<path d="M758.872 284.306C728.005 257.402 646.234 182.462 566.079 97.9314C465.885 -7.73202 427.819 -35.8779 402.77 -2.24008C377.721 31.3977 416.122 201.824 439.103 297.757C462.084 393.69 454.3 428.903 430.813 413.34C407.327 397.777 308.431 321.962 265.799 267.076" stroke="url(#paint5_linear_160_5336)"/>
<path d="M749.79 289.673C718.923 262.769 637.151 187.829 556.997 103.298C456.803 -2.36508 418.737 -30.5109 393.688 3.12686C368.638 36.7646 407.04 207.191 430.021 303.124C453.002 399.057 445.218 434.27 421.731 418.707C398.245 403.144 299.349 327.329 256.717 272.443" stroke="url(#paint6_linear_160_5336)"/>
<path d="M740.709 295.037C709.843 268.133 628.071 193.193 547.916 108.662C447.723 2.99845 409.656 -25.1474 384.607 8.49038C359.558 42.1282 397.959 212.555 420.94 308.487C443.921 404.42 436.138 439.634 412.651 424.07C389.164 408.507 290.269 332.692 247.636 277.806" stroke="url(#paint7_linear_160_5336)"/>
<path d="M731.63 300.399C700.763 273.495 618.991 198.555 538.837 114.024C438.643 8.361 400.577 -19.7848 375.528 13.8529C350.478 47.4907 388.88 217.917 411.861 313.85C434.842 409.783 427.058 444.996 403.571 429.433C380.085 413.87 281.189 338.055 238.556 283.169" stroke="url(#paint8_linear_160_5336)"/>
<path d="M722.544 305.769C691.678 278.865 609.906 203.924 529.751 119.394C429.558 13.7303 391.491 -14.4156 366.442 19.2222C341.393 52.86 379.794 223.286 402.775 319.219C425.756 415.152 417.972 450.366 394.486 434.802C370.999 419.239 272.104 343.424 229.471 288.538" stroke="url(#paint9_linear_160_5336)"/>
<path d="M713.463 311.134C682.597 284.231 600.825 209.29 520.67 124.76C420.477 19.0961 382.41 -9.04974 357.361 24.588C332.312 58.2258 370.713 228.652 393.694 324.585C416.675 420.518 408.891 455.731 385.405 440.168C361.918 424.605 263.023 348.79 220.39 293.904" stroke="url(#paint10_linear_160_5336)"/>
<path d="M704.384 316.495C673.518 289.591 591.746 214.65 511.591 130.12C411.397 24.4563 373.331 -3.68951 348.282 29.9483C323.233 63.586 361.634 234.012 384.615 329.945C407.596 425.878 399.812 461.092 376.326 445.528C352.839 429.965 253.943 354.15 211.311 299.264" stroke="url(#paint11_linear_160_5336)"/>
<path d="M695.302 321.862C664.436 294.958 582.664 220.017 502.509 135.487C402.315 29.8233 364.249 1.67744 339.2 35.3152C314.151 68.953 352.552 239.379 375.533 335.312C398.514 431.245 390.73 466.459 367.244 450.895C343.757 435.332 244.861 359.517 202.229 304.631" stroke="url(#paint12_linear_160_5336)"/>
<path d="M686.221 327.226C655.354 300.322 573.582 225.382 493.427 140.851C393.234 35.1879 355.168 7.04206 330.118 40.6798C305.069 74.3176 343.471 244.744 366.452 340.677C389.433 436.61 381.649 471.823 358.162 456.26C334.675 440.697 235.78 364.882 193.147 309.996" stroke="url(#paint13_linear_160_5336)"/>
<path d="M677.138 332.591C646.271 305.687 564.499 230.747 484.344 146.216C384.151 40.5528 346.085 12.4069 321.035 46.0447C295.986 79.6825 334.388 250.109 357.369 346.042C380.35 441.975 372.566 477.188 349.079 461.625C325.592 446.061 226.697 370.247 184.064 315.361" stroke="url(#paint14_linear_160_5336)"/>
<path d="M668.056 337.959C637.189 311.055 555.417 236.115 475.262 151.584C375.069 45.9208 337.003 17.775 311.953 51.4127C286.904 85.0505 325.306 255.477 348.287 351.41C371.267 447.343 363.484 482.556 339.997 466.993C316.51 451.43 217.615 375.615 174.982 320.729" stroke="url(#paint15_linear_160_5336)"/>
<path d="M658.975 343.322C628.108 316.418 546.336 241.477 466.181 156.947C365.988 51.2834 327.922 23.1375 302.872 56.7753C277.823 90.4131 316.225 260.839 339.205 356.772C362.186 452.705 354.403 487.919 330.916 472.355C307.429 456.792 208.534 380.977 165.901 326.091" stroke="url(#paint16_linear_160_5336)"/>
<path d="M649.891 348.689C619.025 321.785 537.253 246.844 457.098 162.314C356.904 56.6503 318.838 28.5045 293.789 62.1422C268.74 95.78 307.141 266.206 330.122 362.139C353.103 458.072 345.319 493.286 321.832 477.722C298.346 462.159 199.45 386.344 156.818 331.458" stroke="url(#paint17_linear_160_5336)"/>
<path d="M640.807 354.055C609.941 327.151 528.169 252.21 448.014 167.68C347.82 62.0163 309.754 33.8704 284.705 67.5082C259.656 101.146 298.057 271.572 321.038 367.505C344.019 463.438 336.235 498.652 312.748 483.088C289.262 467.525 190.366 391.71 147.734 336.824" stroke="url(#paint18_linear_160_5336)"/>
<path d="M631.732 359.412C600.865 332.509 519.093 257.568 438.939 173.038C338.745 67.3742 300.679 39.2283 275.63 72.8661C250.58 106.504 288.982 276.93 311.963 372.863C334.944 468.796 327.16 504.009 303.673 488.446C280.187 472.883 181.291 397.068 138.659 342.182" stroke="url(#paint19_linear_160_5336)"/>
<path d="M622.646 364.782C591.78 337.878 510.008 262.938 429.853 178.407C329.66 72.7434 291.593 44.5976 266.544 78.2354C241.495 111.873 279.896 282.3 302.877 378.232C325.858 474.165 318.075 509.379 294.588 493.815C271.101 478.252 172.206 402.437 129.573 347.551" stroke="url(#paint20_linear_160_5336)"/>
<path d="M613.565 370.145C582.698 343.242 500.926 268.301 420.772 183.77C320.578 78.1071 282.512 49.9613 257.463 83.599C232.413 117.237 270.815 287.663 293.796 383.596C316.777 479.529 308.993 514.742 285.506 499.179C262.02 483.616 163.124 407.801 120.492 352.915" stroke="url(#paint21_linear_160_5336)"/>
<path d="M604.482 375.511C573.616 348.607 491.844 273.667 411.689 189.136C311.496 83.4729 273.429 55.3271 248.38 88.9649C223.331 122.603 261.732 293.029 284.713 388.962C307.694 484.895 299.91 520.108 276.424 504.545C252.937 488.982 154.042 413.167 111.409 358.281" stroke="url(#paint22_linear_160_5336)"/>
<path d="M595.401 380.877C564.535 353.973 482.763 279.033 402.608 194.502C302.415 88.8388 264.348 60.6929 239.299 94.3307C214.25 127.968 252.651 298.395 275.632 394.328C298.613 490.261 290.829 525.474 267.343 509.911C243.856 494.347 144.961 418.533 102.328 363.647" stroke="url(#paint23_linear_160_5336)"/>
<path d="M586.32 386.242C555.453 359.338 473.681 284.398 393.526 199.867C293.333 94.2035 255.267 66.0577 230.218 99.6955C205.168 133.333 243.57 303.76 266.551 399.692C289.532 495.625 281.748 530.839 258.261 515.276C234.774 499.712 135.879 423.897 93.2464 369.011" stroke="url(#paint24_linear_160_5336)"/>
<path d="M577.236 391.607C546.369 364.703 464.597 289.763 384.442 205.232C284.249 99.5684 246.183 71.4226 221.134 105.06C196.084 138.698 234.486 309.125 257.467 405.057C280.448 500.99 272.664 536.204 249.177 520.64C225.69 505.077 126.795 429.262 84.1624 374.376" stroke="url(#paint25_linear_160_5336)"/>
</g>
<defs>
<linearGradient id="paint0_linear_160_5336" x1="1126.84" y1="-433.704" x2="1346.84" y2="-59.323" gradientUnits="userSpaceOnUse">
<stop stop-color="#12B4FF"/>
<stop offset="1" stop-color="#E100FF"/>
</linearGradient>
<linearGradient id="paint1_linear_160_5336" x1="1117.76" y1="-428.337" x2="1337.76" y2="-53.9561" gradientUnits="userSpaceOnUse">
<stop stop-color="#12B4FF"/>
<stop offset="1" stop-color="#E100FF"/>
</linearGradient>
<linearGradient id="paint2_linear_160_5336" x1="1108.68" y1="-422.974" x2="1328.68" y2="-48.5925" gradientUnits="userSpaceOnUse">
<stop stop-color="#12B4FF"/>
<stop offset="1" stop-color="#E100FF"/>
</linearGradient>
<linearGradient id="paint3_linear_160_5336" x1="1099.6" y1="-417.61" x2="1319.6" y2="-43.2288" gradientUnits="userSpaceOnUse">
<stop stop-color="#12B4FF"/>
<stop offset="1" stop-color="#E100FF"/>
</linearGradient>
<linearGradient id="paint4_linear_160_5336" x1="1090.51" y1="-412.244" x2="1310.52" y2="-37.863" gradientUnits="userSpaceOnUse">
<stop stop-color="#12B4FF"/>
<stop offset="1" stop-color="#E100FF"/>
</linearGradient>
<linearGradient id="paint5_linear_160_5336" x1="1081.43" y1="-406.878" x2="1301.43" y2="-32.4971" gradientUnits="userSpaceOnUse">
<stop stop-color="#12B4FF"/>
<stop offset="1" stop-color="#E100FF"/>
</linearGradient>
<linearGradient id="paint6_linear_160_5336" x1="1072.35" y1="-401.511" x2="1292.35" y2="-27.1302" gradientUnits="userSpaceOnUse">
<stop stop-color="#12B4FF"/>
<stop offset="1" stop-color="#E100FF"/>
</linearGradient>
<linearGradient id="paint7_linear_160_5336" x1="1063.27" y1="-396.148" x2="1283.27" y2="-21.7666" gradientUnits="userSpaceOnUse">
<stop stop-color="#12B4FF"/>
<stop offset="1" stop-color="#E100FF"/>
</linearGradient>
<linearGradient id="paint8_linear_160_5336" x1="1054.19" y1="-390.785" x2="1274.19" y2="-16.4041" gradientUnits="userSpaceOnUse">
<stop stop-color="#12B4FF"/>
<stop offset="1" stop-color="#E100FF"/>
</linearGradient>
<linearGradient id="paint9_linear_160_5336" x1="1045.1" y1="-385.416" x2="1265.11" y2="-11.0348" gradientUnits="userSpaceOnUse">
<stop stop-color="#12B4FF"/>
<stop offset="1" stop-color="#E100FF"/>
</linearGradient>
<linearGradient id="paint10_linear_160_5336" x1="1036.02" y1="-380.05" x2="1256.03" y2="-5.66899" gradientUnits="userSpaceOnUse">
<stop stop-color="#12B4FF"/>
<stop offset="1" stop-color="#E100FF"/>
</linearGradient>
<linearGradient id="paint11_linear_160_5336" x1="1026.94" y1="-374.69" x2="1246.95" y2="-0.30876" gradientUnits="userSpaceOnUse">
<stop stop-color="#12B4FF"/>
<stop offset="1" stop-color="#E100FF"/>
</linearGradient>
<linearGradient id="paint12_linear_160_5336" x1="1017.86" y1="-369.323" x2="1237.86" y2="5.05818" gradientUnits="userSpaceOnUse">
<stop stop-color="#12B4FF"/>
<stop offset="1" stop-color="#E100FF"/>
</linearGradient>
<linearGradient id="paint13_linear_160_5336" x1="1008.78" y1="-363.958" x2="1228.78" y2="10.4228" gradientUnits="userSpaceOnUse">
<stop stop-color="#12B4FF"/>
<stop offset="1" stop-color="#E100FF"/>
</linearGradient>
<linearGradient id="paint14_linear_160_5336" x1="999.696" y1="-358.594" x2="1219.7" y2="15.7877" gradientUnits="userSpaceOnUse">
<stop stop-color="#12B4FF"/>
<stop offset="1" stop-color="#E100FF"/>
</linearGradient>
<linearGradient id="paint15_linear_160_5336" x1="990.614" y1="-353.225" x2="1210.62" y2="21.1557" gradientUnits="userSpaceOnUse">
<stop stop-color="#12B4FF"/>
<stop offset="1" stop-color="#E100FF"/>
</linearGradient>
<linearGradient id="paint16_linear_160_5336" x1="981.533" y1="-347.863" x2="1201.54" y2="26.5183" gradientUnits="userSpaceOnUse">
<stop stop-color="#12B4FF"/>
<stop offset="1" stop-color="#E100FF"/>
</linearGradient>
<linearGradient id="paint17_linear_160_5336" x1="972.449" y1="-342.496" x2="1192.45" y2="31.8852" gradientUnits="userSpaceOnUse">
<stop stop-color="#12B4FF"/>
<stop offset="1" stop-color="#E100FF"/>
</linearGradient>
<linearGradient id="paint18_linear_160_5336" x1="963.365" y1="-337.13" x2="1183.37" y2="37.2512" gradientUnits="userSpaceOnUse">
<stop stop-color="#12B4FF"/>
<stop offset="1" stop-color="#E100FF"/>
</linearGradient>
<linearGradient id="paint19_linear_160_5336" x1="954.29" y1="-331.772" x2="1174.29" y2="42.6091" gradientUnits="userSpaceOnUse">
<stop stop-color="#12B4FF"/>
<stop offset="1" stop-color="#E100FF"/>
</linearGradient>
<linearGradient id="paint20_linear_160_5336" x1="945.205" y1="-326.403" x2="1165.21" y2="47.9783" gradientUnits="userSpaceOnUse">
<stop stop-color="#12B4FF"/>
<stop offset="1" stop-color="#E100FF"/>
</linearGradient>
<linearGradient id="paint21_linear_160_5336" x1="936.123" y1="-321.039" x2="1156.13" y2="53.342" gradientUnits="userSpaceOnUse">
<stop stop-color="#12B4FF"/>
<stop offset="1" stop-color="#E100FF"/>
</linearGradient>
<linearGradient id="paint22_linear_160_5336" x1="927.04" y1="-315.673" x2="1147.05" y2="58.7078" gradientUnits="userSpaceOnUse">
<stop stop-color="#12B4FF"/>
<stop offset="1" stop-color="#E100FF"/>
</linearGradient>
<linearGradient id="paint23_linear_160_5336" x1="917.959" y1="-310.308" x2="1137.96" y2="64.0737" gradientUnits="userSpaceOnUse">
<stop stop-color="#12B4FF"/>
<stop offset="1" stop-color="#E100FF"/>
</linearGradient>
<linearGradient id="paint24_linear_160_5336" x1="908.878" y1="-304.943" x2="1128.88" y2="69.4384" gradientUnits="userSpaceOnUse">
<stop stop-color="#12B4FF"/>
<stop offset="1" stop-color="#E100FF"/>
</linearGradient>
<linearGradient id="paint25_linear_160_5336" x1="899.794" y1="-299.578" x2="1119.8" y2="74.8033" gradientUnits="userSpaceOnUse">
<stop stop-color="#12B4FF"/>
<stop offset="1" stop-color="#E100FF"/>
</linearGradient>
</defs>
</svg>
