<svg width="115" height="132" viewBox="0 0 115 132" fill="none" xmlns="http://www.w3.org/2000/svg">
<path d="M90.2115 25.6924H12.6008C6.74613 25.6924 2 30.4385 2 36.2932V129.748" stroke="url(#paint0_linear_160_5304)" stroke-width="2.65019" stroke-linecap="round"/>
<path d="M11.8849 129.748L79.6112 129.748C85.4658 129.748 90.2119 125.002 90.2119 119.147L90.2119 25.6929" stroke="#15B3FF" stroke-width="2.65019" stroke-linecap="round"/>
<path d="M74.1742 35.2764C74.3876 34.6996 75.2035 34.6996 75.4169 35.2764L77.2011 40.098C77.4024 40.6421 77.8314 41.071 78.3754 41.2724L83.1971 43.0565C83.7739 43.27 83.7739 44.0858 83.1971 44.2993L78.3754 46.0834C77.8314 46.2848 77.4024 46.7137 77.2011 47.2578L75.4169 52.0794C75.2035 52.6562 74.3876 52.6562 74.1742 52.0794L72.39 47.2578C72.1887 46.7137 71.7598 46.2848 71.2157 46.0834L66.3941 44.2993C65.8172 44.0858 65.8172 43.27 66.3941 43.0565L71.2157 41.2724C71.7598 41.071 72.1887 40.6421 72.39 40.098L74.1742 35.2764Z" stroke="#12B4FF" stroke-width="1.3251"/>
<path d="M97.7263 3.5884C97.9398 3.01156 98.7556 3.01157 98.9691 3.58839L101.794 11.223C101.995 11.7671 102.424 12.196 102.968 12.3974L110.603 15.2224C111.18 15.4359 111.18 16.2517 110.603 16.4652L102.968 19.2903C102.424 19.4916 101.995 19.9205 101.794 20.4646L98.9691 28.0992C98.7556 28.6761 97.9398 28.676 97.7263 28.0992L94.9013 20.4646C94.7 19.9205 94.271 19.4916 93.7269 19.2903L86.0923 16.4652C85.5155 16.2517 85.5155 15.4359 86.0923 15.2224L93.7269 12.3974C94.271 12.196 94.7 11.7671 94.9013 11.223L97.7263 3.5884Z" stroke="#DE04FF" stroke-width="1.3251"/>
<path d="M102.436 55.4019C102.65 54.825 103.466 54.825 103.679 55.4019L104.769 58.3482C104.971 58.8922 105.4 59.3212 105.944 59.5225L108.89 60.6127C109.467 60.8262 109.467 61.642 108.89 61.8555L105.944 62.9457C105.4 63.147 104.971 63.576 104.769 64.1201L103.679 67.0664C103.466 67.6432 102.65 67.6432 102.436 67.0664L101.346 64.1201C101.145 63.576 100.716 63.147 100.172 62.9457L97.2256 61.8555C96.6488 61.642 96.6488 60.8262 97.2256 60.6127L100.172 59.5225C100.716 59.3212 101.145 58.8922 101.346 58.3482L102.436 55.4019Z" stroke="#12B4FF" stroke-width="1.3251"/>
<path d="M34.2228 90.8843V117.33H28.2312L18.6758 103.436H18.5208V117.33H11.3413V90.8843H17.4361L26.8367 104.727H27.0433V90.8843H34.2228Z" fill="url(#paint1_linear_160_5304)"/>
<path d="M39.134 117.33V90.8843H57.7284V96.6692H46.3135V101.215H56.5921V106.999H46.3135V117.33H39.134Z" fill="url(#paint2_linear_160_5304)"/>
<path d="M61.161 96.6692V90.8843H84.1458V96.6692H76.1915V117.33H69.1153V96.6692H61.161Z" fill="url(#paint3_linear_160_5304)"/>
<defs>
<linearGradient id="paint0_linear_160_5304" x1="2" y1="-131.797" x2="90.8653" y2="-131.63" gradientUnits="userSpaceOnUse">
<stop stop-color="#12B4FF"/>
<stop offset="1" stop-color="#E100FF"/>
</linearGradient>
<linearGradient id="paint1_linear_160_5304" x1="11.3413" y1="50.8588" x2="84.683" y2="51.3055" gradientUnits="userSpaceOnUse">
<stop stop-color="#12B4FF"/>
<stop offset="1" stop-color="#E100FF"/>
</linearGradient>
<linearGradient id="paint2_linear_160_5304" x1="11.3413" y1="50.8588" x2="84.683" y2="51.3055" gradientUnits="userSpaceOnUse">
<stop stop-color="#12B4FF"/>
<stop offset="1" stop-color="#E100FF"/>
</linearGradient>
<linearGradient id="paint3_linear_160_5304" x1="11.3413" y1="50.8588" x2="84.683" y2="51.3055" gradientUnits="userSpaceOnUse">
<stop stop-color="#12B4FF"/>
<stop offset="1" stop-color="#E100FF"/>
</linearGradient>
</defs>
</svg>
