<svg width="521" height="391" viewBox="0 0 521 391" fill="none" xmlns="http://www.w3.org/2000/svg">
<path d="M451.707 310.715C446.855 303.286 443.697 294.879 442.492 286.082C442.329 286.277 442.166 286.505 442.036 286.701C443.143 286.603 444.087 286.831 444.966 287.515C445.455 287.906 446.139 287.222 445.65 286.831C444.543 285.984 443.403 285.593 442.036 285.723C441.678 285.756 441.515 286.017 441.58 286.342C442.817 295.238 445.976 303.709 450.893 311.203C451.218 311.725 452.065 311.236 451.707 310.715Z" fill="#31223E"/>
<path d="M445.618 286.994C444.511 275.557 446.269 264.023 450.763 253.433C450.47 253.433 450.209 253.433 449.916 253.433C450.404 254.15 450.763 254.834 451.056 255.649C451.251 256.235 452.195 255.975 452 255.388C451.674 254.508 451.316 253.726 450.763 252.944C450.567 252.684 450.079 252.586 449.916 252.944C445.357 263.697 443.534 275.394 444.641 286.994C444.706 287.613 445.683 287.646 445.618 286.994Z" fill="#31223E"/>
<path d="M452.293 255.225C453.433 252.455 454.703 249.718 456.136 247.112C457.34 244.929 459.066 240.53 462.192 241.149C465.351 241.768 466.393 245.971 467.077 248.611C467.825 251.543 468.151 254.573 468.249 257.571C468.444 263.241 467.988 268.943 467.598 274.58C467.174 280.575 466.49 286.57 465.09 292.435C463.56 298.952 461.28 305.24 458.382 311.236C458.122 311.79 458.936 312.311 459.229 311.725C462.094 305.827 464.374 299.636 465.904 293.25C467.5 286.701 468.216 280.021 468.639 273.309C469.063 266.629 469.714 259.787 468.9 253.107C468.412 249.099 467.239 240.302 461.769 240.041C458.903 239.911 457.405 242.909 456.201 244.994C454.345 248.187 452.749 251.511 451.349 254.932C451.121 255.551 452.065 255.812 452.293 255.225Z" fill="#31223E"/>
<path d="M468.346 278.555C469.454 276.339 470.756 274.254 472.319 272.364C473.068 271.452 476.585 266.76 477.985 267.835C478.278 268.063 478.376 269.171 478.441 269.562C478.636 270.376 478.766 271.224 478.832 272.071C478.962 273.374 478.994 274.645 478.929 275.948C478.799 278.718 478.311 281.487 477.627 284.192C475.152 294.064 470.724 303.383 464.96 311.725C464.602 312.246 465.448 312.735 465.807 312.213C472.482 302.601 477.92 291.067 479.581 279.369C479.971 276.6 480.101 273.798 479.711 271.028C479.548 269.822 479.32 265.912 477.334 266.303C476.422 266.499 475.575 267.542 474.924 268.128C473.882 269.106 472.873 270.148 471.961 271.224C470.203 273.309 468.705 275.59 467.5 278.033C467.207 278.62 468.053 279.109 468.346 278.555Z" fill="#31223E"/>
<path d="M212.34 311.953C208.042 307.033 204.493 301.493 201.822 295.531C201.757 295.759 201.692 295.987 201.66 296.215C202.962 295.628 204.265 295.4 205.697 295.498C206.316 295.531 206.316 294.553 205.697 294.521C204.102 294.423 202.636 294.716 201.171 295.368C200.911 295.498 200.911 295.824 201.008 296.052C203.744 302.113 207.325 307.684 211.689 312.67C212.047 313.126 212.763 312.441 212.34 311.953Z" fill="#31223E"/>
<path d="M205.762 294.13C203.19 289.633 201.562 284.648 201.106 279.5C200.813 276.241 200.227 264.577 206.316 267.77C208.465 268.91 209.703 271.354 210.81 273.407C212.112 275.785 213.252 278.262 214.261 280.77C216.085 285.365 217.42 290.154 218.234 295.009C219.211 300.777 219.439 306.642 218.983 312.507C218.918 313.126 219.927 313.126 219.96 312.507C220.871 300.744 218.885 288.851 214.131 278.033C212.959 275.362 211.656 272.625 210.028 270.181C208.856 268.421 207.26 266.694 205.079 266.303C199.869 265.359 199.934 273.211 199.934 276.469C199.966 282.856 201.692 289.112 204.883 294.651C205.241 295.14 206.088 294.651 205.762 294.13Z" fill="#31223E"/>
<path d="M217.159 285.919C216.964 283.475 217.68 272.331 222.304 274.677C225.984 276.535 226.765 282.302 226.961 285.951C227.189 290.089 227.026 294.26 226.928 298.398C226.798 302.732 226.472 307.033 224.974 311.138C224.746 311.725 225.691 311.985 225.919 311.399C227.775 306.381 227.872 301.037 227.97 295.759C228.068 290.774 228.491 285.463 227.156 280.575C226.407 277.871 223.737 271.908 219.895 273.7C218.266 274.482 217.55 276.698 217.029 278.294C216.248 280.803 215.987 283.377 216.182 285.984C216.215 286.57 217.192 286.57 217.159 285.919Z" fill="#31223E"/>
<path d="M203.288 267.118C207.488 276.502 210.94 286.179 213.577 296.117C213.74 296.736 214.685 296.476 214.522 295.857C211.852 285.853 208.4 276.078 204.134 266.629C203.874 266.043 203.027 266.532 203.288 267.118Z" fill="#31223E"/>
<path d="M200.585 279.988C205.567 281.748 209.605 285.365 211.917 290.122C212.21 290.676 213.024 290.187 212.763 289.633C210.321 284.648 206.056 280.901 200.846 279.044C200.259 278.848 199.999 279.793 200.585 279.988Z" fill="#31223E"/>
<path d="M210.321 271.517C209.442 274.417 208.986 277.382 208.888 280.379C208.856 280.999 209.833 280.999 209.865 280.379C209.963 277.447 210.419 274.58 211.266 271.777C211.428 271.158 210.484 270.898 210.321 271.517Z" fill="#31223E"/>
<path d="M216.899 279.989C219.96 283.573 222.141 287.678 223.444 292.207C223.607 292.826 224.551 292.566 224.388 291.947C223.053 287.255 220.774 282.986 217.615 279.304C217.192 278.816 216.508 279.5 216.899 279.989Z" fill="#31223E"/>
<path d="M221.751 279.728C223.867 290.252 223.509 300.646 222.402 311.269C222.337 311.888 223.314 311.888 223.379 311.269C224.518 300.581 224.844 290.089 222.695 279.467C222.565 278.848 221.62 279.109 221.751 279.728Z" fill="#31223E"/>
<path d="M158.319 195.011C158.319 197.325 158.319 199.638 158.319 201.984C158.319 202.603 159.296 202.603 159.296 201.984C159.296 199.671 159.296 197.357 159.296 195.011C159.296 194.392 158.319 194.392 158.319 195.011Z" fill="#31223E"/>
<path d="M158.807 202.636C170.204 202.636 181.568 202.636 192.965 202.636C193.584 202.636 193.584 201.658 192.965 201.658C181.568 201.658 170.204 201.658 158.807 201.658C158.189 201.658 158.189 202.636 158.807 202.636Z" fill="#31223E"/>
<path d="M158.807 195.402C170.269 195.402 181.731 195.402 193.193 195.402C193.812 195.402 193.812 194.425 193.193 194.425C181.731 194.425 170.269 194.425 158.807 194.425C158.189 194.425 158.189 195.402 158.807 195.402Z" fill="#31223E"/>
<path d="M192.705 194.848C192.705 197.227 192.705 199.606 192.705 201.984C192.705 202.603 193.682 202.603 193.682 201.984C193.682 199.606 193.682 197.227 193.682 194.848C193.682 194.197 192.705 194.197 192.705 194.848Z" fill="#31223E"/>
<path d="M171.181 202.505C171.181 204.493 171.181 206.48 171.181 208.468C171.181 209.087 172.158 209.087 172.158 208.468C172.158 206.48 172.158 204.493 172.158 202.505C172.158 201.886 171.181 201.886 171.181 202.505Z" fill="#31223E"/>
<path d="M171.735 209.315C180.82 209.315 189.905 209.315 198.989 209.315C199.608 209.315 199.608 208.338 198.989 208.338C189.905 208.338 180.82 208.338 171.735 208.338C171.083 208.338 171.083 209.315 171.735 209.315Z" fill="#31223E"/>
<path d="M193.258 202.701C195.277 202.701 197.296 202.701 199.348 202.701C199.966 202.701 199.966 201.723 199.348 201.723C197.329 201.723 195.31 201.723 193.258 201.723C192.607 201.723 192.607 202.701 193.258 202.701Z" fill="#31223E"/>
<path d="M198.892 202.571C198.892 204.591 198.892 206.611 198.892 208.664C198.892 209.283 199.869 209.283 199.869 208.664C199.869 206.643 199.869 204.623 199.869 202.571C199.869 201.951 198.892 201.951 198.892 202.571Z" fill="#31223E"/>
<path d="M195.766 208.957C195.766 211.172 195.766 213.356 195.766 215.571C195.766 216.19 196.743 216.19 196.743 215.571C196.743 213.356 196.743 211.172 196.743 208.957C196.743 208.305 195.766 208.305 195.766 208.957Z" fill="#31223E"/>
<path d="M196.384 216.093C203.874 216.093 211.363 216.093 218.853 216.093C219.471 216.093 219.471 215.115 218.853 215.115C211.363 215.115 203.874 215.115 196.384 215.115C195.733 215.115 195.733 216.093 196.384 216.093Z" fill="#31223E"/>
<path d="M199.445 209.38C205.958 209.38 212.47 209.38 218.983 209.38C219.602 209.38 219.602 208.403 218.983 208.403C212.47 208.403 205.958 208.403 199.445 208.403C198.827 208.403 198.827 209.38 199.445 209.38Z" fill="#31223E"/>
<path d="M218.429 208.827C218.429 210.945 218.429 213.03 218.429 215.148C218.429 215.767 219.406 215.767 219.406 215.148C219.406 213.03 219.406 210.945 219.406 208.827C219.406 208.208 218.429 208.208 218.429 208.827Z" fill="#31223E"/>
<path d="M196.222 215.083C190.002 215.083 183.783 215.083 177.563 215.083C176.945 215.083 176.945 216.06 177.563 216.06C183.783 216.06 190.002 216.06 196.222 216.06C196.84 216.06 196.84 215.083 196.222 215.083Z" fill="#31223E"/>
<path d="M177.954 215.506C177.954 213.421 177.954 211.335 177.954 209.217C177.954 208.598 176.977 208.598 176.977 209.217C176.977 211.303 176.977 213.388 176.977 215.506C176.977 216.125 177.954 216.125 177.954 215.506Z" fill="#31223E"/>
<path d="M137.804 55.2939C137.804 78.8517 137.804 102.377 137.804 125.935C137.804 126.554 138.781 126.554 138.781 125.935C138.781 102.377 138.781 78.8517 138.781 55.2939C138.781 54.6748 137.804 54.6748 137.804 55.2939Z" fill="#31223E"/>
<path d="M138.228 126.651C161.152 126.651 184.076 126.651 207 126.651C213.48 126.651 219.992 126.651 226.472 126.651C227.091 126.651 227.091 125.674 226.472 125.674C203.548 125.674 180.624 125.674 157.7 125.674C151.22 125.674 144.708 125.674 138.228 125.674C137.609 125.674 137.609 126.651 138.228 126.651Z" fill="#31223E"/>
<path d="M138.456 55.2939C161.119 55.2939 183.783 55.2939 206.446 55.2939C212.861 55.2939 219.243 55.2939 225.658 55.2939C226.277 55.2939 226.277 54.3164 225.658 54.3164C202.995 54.3164 180.331 54.3164 157.668 54.3164C151.253 54.3164 144.871 54.3164 138.456 54.3164C137.837 54.3164 137.837 55.2939 138.456 55.2939Z" fill="#31223E"/>
<path d="M226.179 55.0983C226.179 78.6561 226.179 102.214 226.179 125.804C226.179 126.423 227.156 126.423 227.156 125.804C227.156 102.246 227.156 78.6887 227.156 55.0983C227.156 54.4793 226.179 54.4793 226.179 55.0983Z" fill="#31223E"/>
<path d="M142.624 58.8779C142.624 80.1548 142.624 101.432 142.624 122.676C142.624 123.295 143.601 123.295 143.601 122.676C143.601 101.399 143.601 80.1222 143.601 58.8779C143.601 58.2262 142.624 58.2262 142.624 58.8779Z" fill="#31223E"/>
<path d="M143.047 123.36C169.162 123.36 195.277 123.36 221.36 123.36C221.979 123.36 221.979 122.383 221.36 122.383C195.245 122.383 169.13 122.383 143.047 122.383C142.428 122.383 142.396 123.36 143.047 123.36Z" fill="#31223E"/>
<path d="M143.242 58.9106C169.032 58.9106 194.854 58.9106 220.644 58.9106C221.262 58.9106 221.262 57.9331 220.644 57.9331C194.854 57.9331 169.032 57.9331 143.242 57.9331C142.624 57.9331 142.624 58.9106 143.242 58.9106Z" fill="#31223E"/>
<path d="M221.034 58.6826C221.034 79.9595 221.034 101.269 221.034 122.546C221.034 123.165 222.011 123.165 222.011 122.546C222.011 101.269 222.011 79.9595 222.011 58.6826C222.011 58.0635 221.034 58.0635 221.034 58.6826Z" fill="#31223E"/>
<path d="M180.95 58.9758C180.95 69.3699 180.95 79.7314 180.95 90.1255C180.95 90.7446 181.927 90.7446 181.927 90.1255C181.927 79.7314 181.927 69.3699 181.927 58.9758C181.927 58.3241 180.95 58.3241 180.95 58.9758Z" fill="#31223E"/>
<path d="M181.438 89.604C169.032 89.604 156.593 89.604 144.187 89.604C143.568 89.604 143.568 90.5815 144.187 90.5815C156.593 90.5815 169.032 90.5815 181.438 90.5815C182.057 90.5815 182.057 89.604 181.438 89.604Z" fill="#31223E"/>
<path d="M185.802 58.9758C185.802 69.2721 185.802 79.5359 185.802 89.8322C185.802 90.4513 186.779 90.4513 186.779 89.8322C186.779 79.5359 186.779 69.2721 186.779 58.9758C186.779 58.3241 185.802 58.3241 185.802 58.9758Z" fill="#31223E"/>
<path d="M186.29 90.875C197.752 90.875 209.214 90.875 220.676 90.875C221.295 90.875 221.295 89.8975 220.676 89.8975C209.214 89.8975 197.752 89.8975 186.29 89.8975C185.639 89.8975 185.639 90.875 186.29 90.875Z" fill="#31223E"/>
<path d="M143.894 95.4365C156.365 95.4365 168.837 95.4365 181.275 95.4365C181.894 95.4365 181.894 94.459 181.275 94.459C168.804 94.459 156.333 94.459 143.894 94.459C143.275 94.459 143.242 95.4365 143.894 95.4365Z" fill="#31223E"/>
<path d="M180.787 95.0781C180.787 104.234 180.787 113.357 180.787 122.513C180.787 123.132 181.764 123.132 181.764 122.513C181.764 113.357 181.764 104.234 181.764 95.0781C181.764 94.459 180.787 94.459 180.787 95.0781Z" fill="#31223E"/>
<path d="M185.639 95.7949C185.639 104.69 185.639 113.585 185.639 122.513C185.639 123.132 186.616 123.132 186.616 122.513C186.616 113.618 186.616 104.723 186.616 95.7949C186.616 95.1758 185.639 95.1758 185.639 95.7949Z" fill="#31223E"/>
<path d="M185.997 96.4465C197.752 96.4465 209.507 96.4465 221.262 96.4465C221.881 96.4465 221.881 95.469 221.262 95.469C209.507 95.469 197.752 95.469 185.997 95.469C185.378 95.469 185.346 96.4465 185.997 96.4465Z" fill="#31223E"/>
<path d="M210.354 59.2039C203.027 67.4801 196.156 76.1472 189.709 85.1402C189.351 85.6616 190.198 86.1503 190.556 85.629C196.938 76.7012 203.776 68.0992 211.038 59.8882C211.461 59.432 210.777 58.7152 210.354 59.2039Z" fill="#31223E"/>
<path d="M210.289 71.2597C206.902 75.3652 203.516 79.4707 200.129 83.5436C199.738 84.0324 200.422 84.7166 200.813 84.2279C204.199 80.1224 207.586 76.0169 210.972 71.9439C211.363 71.4552 210.679 70.7709 210.289 71.2597Z" fill="#31223E"/>
<path d="M147.638 122.155C156.17 113.618 164.701 105.049 173.233 96.5117C173.688 96.0555 172.972 95.3713 172.549 95.8274C164.017 104.364 155.486 112.934 146.955 121.471C146.531 121.894 147.215 122.578 147.638 122.155Z" fill="#31223E"/>
<path d="M162.389 119.157C165.287 115.443 168.348 111.924 171.637 108.568C172.093 108.111 171.376 107.427 170.953 107.883C167.664 111.239 164.571 114.758 161.705 118.473C161.315 118.962 161.998 119.679 162.389 119.157Z" fill="#31223E"/>
<path d="M384.693 54.2187C384.693 77.7765 384.693 101.302 384.693 124.859C384.693 125.478 385.67 125.478 385.67 124.859C385.67 101.302 385.67 77.7765 385.67 54.2187C385.67 53.5996 384.693 53.5996 384.693 54.2187Z" fill="#31223E"/>
<path d="M385.117 125.576C408.041 125.576 430.965 125.576 453.889 125.576C460.369 125.576 466.881 125.576 473.361 125.576C473.98 125.576 473.98 124.599 473.361 124.599C450.437 124.599 427.513 124.599 404.589 124.599C398.109 124.599 391.597 124.599 385.117 124.599C384.498 124.599 384.498 125.576 385.117 125.576Z" fill="#31223E"/>
<path d="M385.345 54.2512C408.008 54.2512 430.672 54.2512 453.335 54.2512C459.75 54.2512 466.132 54.2512 472.547 54.2512C473.166 54.2512 473.166 53.2737 472.547 53.2737C449.883 53.2737 427.22 53.2737 404.557 53.2737C398.142 53.2737 391.759 53.2737 385.345 53.2737C384.726 53.2737 384.726 54.2512 385.345 54.2512Z" fill="#31223E"/>
<path d="M473.068 54.0232C473.068 77.5809 473.068 101.139 473.068 124.729C473.068 125.348 474.045 125.348 474.045 124.729C474.045 101.171 474.045 77.6135 474.045 54.0232C474.045 53.4041 473.068 53.4041 473.068 54.0232Z" fill="#31223E"/>
<path d="M389.513 57.8027C389.513 79.0796 389.513 100.357 389.513 121.601C389.513 122.22 390.489 122.22 390.489 121.601C390.489 100.324 390.489 79.047 390.489 57.8027C390.489 57.151 389.513 57.151 389.513 57.8027Z" fill="#31223E"/>
<path d="M389.936 122.285C416.051 122.285 442.166 122.285 468.249 122.285C468.867 122.285 468.867 121.308 468.249 121.308C442.134 121.308 416.019 121.308 389.936 121.308C389.285 121.308 389.285 122.285 389.936 122.285Z" fill="#31223E"/>
<path d="M390.131 57.8354C415.921 57.8354 441.743 57.8354 467.532 57.8354C468.151 57.8354 468.151 56.8579 467.532 56.8579C441.743 56.8579 415.921 56.8579 390.131 56.8579C389.513 56.8579 389.513 57.8354 390.131 57.8354Z" fill="#31223E"/>
<path d="M467.923 57.6074C467.923 78.8843 467.923 100.194 467.923 121.471C467.923 122.09 468.9 122.09 468.9 121.471C468.9 100.194 468.9 78.8843 468.9 57.6074C468.9 56.9883 467.923 56.9883 467.923 57.6074Z" fill="#31223E"/>
<path d="M427.839 57.9006C427.839 68.2947 427.839 78.6562 427.839 89.0503C427.839 89.6694 428.816 89.6694 428.816 89.0503C428.816 78.6562 428.816 68.2947 428.816 57.9006C428.816 57.2489 427.839 57.2489 427.839 57.9006Z" fill="#31223E"/>
<path d="M428.327 88.5288C415.921 88.5288 403.482 88.5288 391.076 88.5288C390.457 88.5288 390.457 89.5063 391.076 89.5063C403.482 89.5063 415.921 89.5063 428.327 89.5063C428.946 89.5063 428.946 88.5288 428.327 88.5288Z" fill="#31223E"/>
<path d="M432.691 57.9006C432.691 68.197 432.691 78.4607 432.691 88.757C432.691 89.3761 433.667 89.3761 433.667 88.757C433.667 78.4607 433.667 68.197 433.667 57.9006C433.667 57.2489 432.691 57.2489 432.691 57.9006Z" fill="#31223E"/>
<path d="M433.179 89.7995C444.641 89.7995 456.103 89.7995 467.565 89.7995C468.184 89.7995 468.184 88.822 467.565 88.822C456.103 88.822 444.641 88.822 433.179 88.822C432.528 88.822 432.528 89.7995 433.179 89.7995Z" fill="#31223E"/>
<path d="M390.783 94.3613C403.254 94.3613 415.726 94.3613 428.164 94.3613C428.783 94.3613 428.783 93.3838 428.164 93.3838C415.693 93.3838 403.221 93.3838 390.783 93.3838C390.131 93.3838 390.131 94.3613 390.783 94.3613Z" fill="#31223E"/>
<path d="M427.676 94.0354C427.676 103.191 427.676 112.315 427.676 121.471C427.676 122.09 428.653 122.09 428.653 121.471C428.653 112.315 428.653 103.191 428.653 94.0354C428.653 93.3837 427.676 93.3837 427.676 94.0354Z" fill="#31223E"/>
<path d="M432.528 94.7522C432.528 103.647 432.528 112.543 432.528 121.471C432.528 122.09 433.505 122.09 433.505 121.471C433.505 112.575 433.505 103.68 433.505 94.7522C433.505 94.1005 432.528 94.1005 432.528 94.7522Z" fill="#31223E"/>
<path d="M432.886 95.3713C444.641 95.3713 456.396 95.3713 468.151 95.3713C468.77 95.3713 468.77 94.3938 468.151 94.3938C456.396 94.3938 444.641 94.3938 432.886 94.3938C432.235 94.3938 432.235 95.3713 432.886 95.3713Z" fill="#31223E"/>
<path d="M457.243 58.1287C449.916 66.4049 443.045 75.072 436.598 84.065C436.24 84.5864 437.086 85.0751 437.445 84.5538C443.827 75.626 450.665 67.024 457.926 58.813C458.35 58.3568 457.666 57.6725 457.243 58.1287Z" fill="#31223E"/>
<path d="M457.178 70.1845C453.791 74.29 450.405 78.3955 447.018 82.4684C446.627 82.9572 447.311 83.6414 447.702 83.1527C451.088 79.0472 454.475 74.9417 457.861 70.8688C458.252 70.38 457.568 69.6957 457.178 70.1845Z" fill="#31223E"/>
<path d="M394.527 121.08C403.059 112.543 411.59 103.973 420.121 95.4365C420.577 94.9803 419.861 94.2961 419.438 94.7522C410.906 103.289 402.375 111.858 393.843 120.395C393.42 120.819 394.104 121.503 394.527 121.08Z" fill="#31223E"/>
<path d="M409.278 118.114C412.176 114.4 415.237 110.881 418.526 107.525C418.982 107.069 418.265 106.384 417.842 106.841C414.553 110.197 411.46 113.716 408.594 117.43C408.203 117.886 408.887 118.603 409.278 118.114Z" fill="#31223E"/>
<path d="M382.935 159.723C394.43 159.723 405.957 159.723 417.451 159.723C418.07 159.723 418.07 158.746 417.451 158.746C405.957 158.746 394.43 158.746 382.935 158.746C382.316 158.746 382.316 159.723 382.935 159.723Z" fill="#31223E"/>
<path d="M399.802 159.658C399.802 161.841 399.802 163.992 399.802 166.175C399.802 166.794 400.779 166.794 400.779 166.175C400.779 163.992 400.779 161.841 400.779 159.658C400.779 159.039 399.802 159.039 399.802 159.658Z" fill="#31223E"/>
<path d="M400.291 166.664C409.343 166.664 418.396 166.664 427.415 166.664C428.034 166.664 428.034 165.686 427.415 165.686C418.363 165.686 409.311 165.686 400.291 165.686C399.672 165.686 399.672 166.664 400.291 166.664Z" fill="#31223E"/>
<path d="M417.386 159.43C417.386 161.515 417.386 163.633 417.386 165.719C417.386 166.338 418.363 166.338 418.363 165.719C418.363 163.633 418.363 161.515 418.363 159.43C418.363 158.811 417.386 158.811 417.386 159.43Z" fill="#31223E"/>
<path d="M383.423 159.006C383.423 157.28 383.423 155.52 383.423 153.793C383.423 153.174 382.447 153.174 382.447 153.793C382.447 155.52 382.447 157.28 382.447 159.006C382.447 159.626 383.423 159.626 383.423 159.006Z" fill="#31223E"/>
<path d="M383.358 154.054C391.759 154.054 400.161 154.054 408.529 154.054C409.148 154.054 409.148 153.076 408.529 153.076C400.128 153.076 391.727 153.076 383.358 153.076C382.74 153.076 382.74 154.054 383.358 154.054Z" fill="#31223E"/>
<path d="M408.269 154.217C408.269 155.879 408.269 157.54 408.269 159.202C408.269 159.821 409.246 159.821 409.246 159.202C409.246 157.54 409.246 155.879 409.246 154.217C409.246 153.598 408.269 153.598 408.269 154.217Z" fill="#31223E"/>
<path d="M377.725 166.892C385.768 166.892 393.778 166.892 401.821 166.892C402.44 166.892 402.44 165.914 401.821 165.914C393.778 165.914 385.768 165.914 377.725 165.914C377.106 165.914 377.106 166.892 377.725 166.892Z" fill="#31223E"/>
<path d="M377.009 166.827C377.009 168.651 377.009 170.443 377.009 172.268C377.009 172.887 377.986 172.887 377.986 172.268C377.986 170.443 377.986 168.651 377.986 166.827C377.986 166.208 377.009 166.208 377.009 166.827Z" fill="#31223E"/>
<path d="M377.497 173.18C385.182 173.18 392.834 173.18 400.519 173.18C401.137 173.18 401.137 172.203 400.519 172.203C392.834 172.203 385.182 172.203 377.497 172.203C376.878 172.203 376.878 173.18 377.497 173.18Z" fill="#31223E"/>
<path d="M400.03 166.827C400.03 168.716 400.03 170.606 400.03 172.464C400.03 173.083 401.007 173.083 401.007 172.464C401.007 170.574 401.007 168.684 401.007 166.827C401.007 166.208 400.03 166.208 400.03 166.827Z" fill="#31223E"/>
<path d="M216.475 145.354C230.673 145.354 244.837 145.354 259.035 145.354C259.653 145.354 259.653 144.377 259.035 144.377C244.837 144.377 230.673 144.377 216.475 144.377C215.857 144.377 215.857 145.354 216.475 145.354Z" fill="#31223E"/>
<path d="M216.769 144.865C216.769 143.041 216.769 141.216 216.769 139.391C216.769 138.772 215.792 138.772 215.792 139.391C215.792 141.216 215.792 143.041 215.792 144.865C215.792 145.484 216.769 145.484 216.769 144.865Z" fill="#31223E"/>
<path d="M216.834 139.294C224.421 139.294 232.04 139.294 239.627 139.294C240.246 139.294 240.246 138.316 239.627 138.316C232.04 138.316 224.421 138.316 216.834 138.316C216.215 138.316 216.215 139.294 216.834 139.294Z" fill="#31223E"/>
<path d="M239.139 139.391C239.139 141.151 239.139 142.91 239.139 144.67C239.139 145.289 240.116 145.289 240.116 144.67C240.116 142.91 240.116 141.151 240.116 139.391C240.116 138.74 239.139 138.74 239.139 139.391Z" fill="#31223E"/>
<path d="M232.92 145.615C232.92 147.439 232.92 149.264 232.92 151.089C232.92 151.708 233.896 151.708 233.896 151.089C233.896 149.264 233.896 147.439 233.896 145.615C233.896 144.963 232.92 144.963 232.92 145.615Z" fill="#31223E"/>
<path d="M233.603 151.936C241.874 151.936 250.178 151.936 258.449 151.936C259.067 151.936 259.067 150.958 258.449 150.958C250.178 150.958 241.874 150.958 233.603 150.958C232.985 150.958 232.985 151.936 233.603 151.936Z" fill="#31223E"/>
<path d="M258.546 145.419C258.546 147.505 258.546 149.557 258.546 151.643C258.546 152.262 259.523 152.262 259.523 151.643C259.523 149.557 259.523 147.505 259.523 145.419C259.523 144.8 258.546 144.8 258.546 145.419Z" fill="#31223E"/>
<path d="M238.944 151.806C238.944 153.5 238.944 155.194 238.944 156.889C238.944 157.508 239.92 157.508 239.92 156.889C239.92 155.194 239.92 153.5 239.92 151.806C239.92 151.187 238.944 151.187 238.944 151.806Z" fill="#31223E"/>
<path d="M239.074 156.791C231.845 156.791 224.649 156.791 217.42 156.791C216.801 156.791 216.801 157.769 217.42 157.769C224.649 157.769 231.845 157.769 239.074 157.769C239.693 157.769 239.693 156.791 239.074 156.791Z" fill="#31223E"/>
<path d="M234.548 151.154C228.882 151.154 223.249 151.154 217.583 151.154C216.964 151.154 216.964 152.132 217.583 152.132C223.249 152.132 228.882 152.132 234.548 152.132C235.166 152.132 235.166 151.154 234.548 151.154Z" fill="#31223E"/>
<path d="M217.127 151.643C217.127 153.467 217.127 155.292 217.127 157.117C217.127 157.736 218.104 157.736 218.104 157.117C218.104 155.292 218.104 153.467 218.104 151.643C218.104 150.991 217.127 150.991 217.127 151.643Z" fill="#31223E"/>
<path d="M442.329 225.249C451.284 225.249 460.238 225.249 469.193 225.249C469.812 225.249 469.812 224.271 469.193 224.271C460.238 224.271 451.284 224.271 442.329 224.271C441.71 224.271 441.71 225.249 442.329 225.249Z" fill="#31223E"/>
<path d="M458.317 224.499C458.317 222.479 458.317 220.459 458.317 218.439C458.317 217.82 457.34 217.82 457.34 218.439C457.34 220.459 457.34 222.479 457.34 224.499C457.34 225.118 458.317 225.118 458.317 224.499Z" fill="#31223E"/>
<path d="M458.089 218.797C465.741 218.797 473.394 218.797 481.078 218.797C481.697 218.797 481.697 217.82 481.078 217.82C473.426 217.82 465.774 217.82 458.089 217.82C457.438 217.82 457.438 218.797 458.089 218.797Z" fill="#31223E"/>
<path d="M480.557 218.569C480.557 220.296 480.557 222.023 480.557 223.75C480.557 224.369 481.534 224.369 481.534 223.75C481.534 222.023 481.534 220.296 481.534 218.569C481.534 217.917 480.557 217.917 480.557 218.569Z" fill="#31223E"/>
<path d="M468.542 225.118C472.58 225.118 476.617 225.118 480.688 225.118C481.306 225.118 481.306 224.141 480.688 224.141C476.65 224.141 472.612 224.141 468.542 224.141C467.891 224.141 467.891 225.118 468.542 225.118Z" fill="#31223E"/>
<path d="M441.32 225.281C441.32 226.845 441.32 228.376 441.32 229.94C441.32 230.56 442.296 230.56 442.296 229.94C442.296 228.376 442.296 226.845 442.296 225.281C442.296 224.662 441.32 224.629 441.32 225.281Z" fill="#31223E"/>
<path d="M441.938 230.918C450.405 230.918 458.903 230.918 467.37 230.918C467.988 230.918 467.988 229.94 467.37 229.94C458.903 229.94 450.405 229.94 441.938 229.94C441.32 229.94 441.32 230.918 441.938 230.918Z" fill="#31223E"/>
<path d="M467.142 224.89C467.142 226.65 467.142 228.409 467.142 230.201C467.142 230.82 468.118 230.82 468.118 230.201C468.118 228.442 468.118 226.682 468.118 224.89C468.118 224.271 467.142 224.271 467.142 224.89Z" fill="#31223E"/>
<path d="M444.901 210.912C453.107 210.912 461.345 210.912 469.551 210.912C470.17 210.912 470.17 209.934 469.551 209.934C461.345 209.934 453.107 209.934 444.901 209.934C444.283 209.934 444.283 210.912 444.901 210.912Z" fill="#31223E"/>
<path d="M469.063 210.814C469.063 213.323 469.063 215.799 469.063 218.308C469.063 218.927 470.04 218.927 470.04 218.308C470.04 215.799 470.04 213.323 470.04 210.814C470.04 210.163 469.063 210.163 469.063 210.814Z" fill="#31223E"/>
<path d="M444.673 210.553C444.673 212.867 444.673 215.213 444.673 217.526C444.673 218.145 445.65 218.145 445.65 217.526C445.65 215.213 445.65 212.867 445.65 210.553C445.65 209.934 444.673 209.934 444.673 210.553Z" fill="#31223E"/>
<path d="M445.813 218.536C451.609 218.536 457.438 218.536 463.234 218.536C463.853 218.536 463.853 217.559 463.234 217.559C457.438 217.559 451.609 217.559 445.813 217.559C445.194 217.559 445.194 218.536 445.813 218.536Z" fill="#31223E"/>
<path d="M173.753 312.996C179.094 312.996 184.434 312.996 189.774 312.996C190.393 312.996 190.393 312.018 189.774 312.018C184.434 312.018 179.094 312.018 173.753 312.018C173.135 312.018 173.135 312.996 173.753 312.996Z" fill="#161616"/>
<path d="M132.692 313.061C179.289 313.061 225.854 313.061 272.45 313.061C318.787 313.061 365.156 313.061 411.492 313.061C437.64 313.061 463.788 313.061 489.935 313.061C491.205 313.061 491.205 311.106 489.935 311.106C443.338 311.106 396.774 311.106 350.177 311.106C303.841 311.106 257.472 311.106 211.135 311.106C184.988 311.106 158.84 311.106 132.692 311.106C131.422 311.106 131.422 313.061 132.692 313.061Z" fill="#161616"/>
<path d="M427.513 319.642C450.111 319.642 472.677 319.642 495.276 319.642C496.546 319.642 496.546 317.688 495.276 317.688C472.677 317.688 450.111 317.688 427.513 317.688C426.276 317.688 426.276 319.642 427.513 319.642Z" fill="#161616"/>
<path d="M195.115 344.276C220.448 344.276 245.749 344.276 271.083 344.276C272.353 344.276 272.353 342.321 271.083 342.321C245.749 342.321 220.448 342.321 195.115 342.321C193.845 342.321 193.845 344.276 195.115 344.276Z" fill="#161616"/>
<path d="M57.9612 334.729C74.8612 334.729 91.7611 334.729 108.661 334.729C109.931 334.729 109.931 332.774 108.661 332.774C91.7611 332.774 74.8612 332.774 57.9612 332.774C56.6913 332.774 56.6913 334.729 57.9612 334.729Z" fill="#161616"/>
<path d="M119.342 325.833C137.87 325.833 156.398 325.833 174.926 325.833C176.196 325.833 176.196 323.878 174.926 323.878C156.398 323.878 137.87 323.878 119.342 323.878C118.072 323.878 118.072 325.833 119.342 325.833Z" fill="#161616"/>
<path d="M107.424 299.441C132.432 285.723 156.3 269.986 179.647 253.596C203.027 237.174 225.984 220.101 249.331 203.613C262.421 194.392 275.642 185.334 289.122 176.699C289.643 176.374 289.155 175.527 288.634 175.852C264.57 191.264 241.386 207.979 218.234 224.727C195.114 241.475 171.995 258.288 148.062 273.83C134.646 282.53 121.002 290.871 106.968 298.561C106.382 298.887 106.87 299.734 107.424 299.441Z" fill="#161616"/>
<path d="M89.3189 292.729C87.3651 293.804 86.0626 295.205 85.3788 295.954C84.3368 297.095 83.6204 297.844 83.0669 298.985C82.2202 300.809 82.3179 302.862 82.5784 306.902C82.7738 309.9 82.9692 309.607 82.8389 310.291C82.1225 314.006 78.0522 314.69 78.1499 317.199C78.215 318.763 79.778 320.034 81.1131 320.49C83.1646 321.207 85.6393 320.294 87.1046 318.176C85.5416 318.958 83.2622 320.457 81.8295 323.129C81.3085 324.106 80.6247 325.377 81.0805 325.996C81.862 327.072 85.4114 325.801 88.5699 324.432C88.4071 325.182 88.3745 326.094 88.8955 326.746C90.1655 328.342 93.9102 327.072 94.887 326.746C95.9942 326.355 96.157 326.159 101.139 323.031C103.744 321.402 104.656 320.848 106.154 319.74C107.424 318.795 108.4 317.981 109.117 317.362C111.461 317.427 114.294 317.297 117.42 316.71C123.314 315.57 127.84 313.256 130.738 311.432C130.966 312.376 131.162 313.354 131.39 314.299C128.557 316.058 126.375 317.362 124.877 318.241C123.933 318.795 122.956 319.382 123.054 319.805C123.216 320.425 125.431 320.392 126.831 320.392C128.394 320.392 129.696 320.196 130.608 320.066C130.673 320.294 130.901 320.913 131.52 321.207C132.432 321.695 133.604 321.141 133.571 321.044C133.571 320.978 133.083 320.978 133.083 320.946C133.083 320.881 136.632 320.881 139.074 320.685C141.126 320.522 144.122 320.131 147.801 318.958C148.42 316.449 148.55 314.494 148.55 313.126C148.55 312.116 148.485 311.594 148.648 310.584C148.941 308.597 149.559 307.945 149.885 306.479C150.113 305.501 150.178 304.035 149.559 302.113C150.634 301.689 151.35 301.103 151.774 300.712C151.871 300.614 154.086 298.463 153.825 295.531C153.76 294.912 153.695 294.097 153.174 293.804C152.327 293.348 150.862 294.521 150.146 295.368C148.876 296.834 148.811 298.659 148.843 299.473C147.964 298.105 146.206 295.759 143.177 294.293C141.972 293.706 140.768 293.348 139.465 293.152C133.343 292.11 126.147 294.228 121.621 295.857C115.694 298.007 112.862 299.864 109.215 299.245C108.107 299.05 105.698 298.626 104.037 296.769C103.386 296.052 103.321 295.629 102.474 294.619C102.181 294.26 100.651 292.468 98.6969 291.588C94.7242 289.764 90.2306 292.24 89.3189 292.729Z" fill="#878787"/>
<path d="M105.991 298.626C105.242 300.353 104.2 301.917 102.897 303.318C102.474 303.774 103.158 304.459 103.581 304.002C104.949 302.569 106.023 300.94 106.805 299.115C107.098 298.528 106.251 298.04 105.991 298.626Z" fill="#333333"/>
<path d="M106.447 299.017C105.698 301.102 104.558 302.927 103.028 304.491C102.604 304.947 103.288 305.632 103.712 305.175C105.372 303.481 106.577 301.493 107.391 299.278C107.586 298.691 106.642 298.431 106.447 299.017Z" fill="#333333"/>
<path d="M90.3935 300.386C91.0122 304.361 91.5984 308.466 93.5195 312.083C94.8872 314.69 97.7527 317.166 100.814 315.57C103.842 313.973 104.265 310.063 104.07 307C103.842 303.644 102.67 300.418 100.227 298.04C99.7715 297.616 99.0877 298.3 99.5436 298.724C101.595 300.744 102.702 303.416 103.028 306.251C103.353 309.151 103.256 313.354 100.195 314.788C96.4827 316.482 94.1708 311.594 93.259 308.857C92.2822 306.023 91.8263 303.09 91.403 300.125C91.2402 299.506 90.2959 299.767 90.3935 300.386Z" fill="#161616"/>
<path d="M89.1561 292.207C85.4765 294.781 82.1226 298.105 81.6341 302.797C81.5364 303.905 81.6016 305.013 81.8621 306.055C82.2528 307.587 83.0994 308.857 82.1877 310.421C80.7549 312.898 78.7035 315.211 77.0102 317.525C76.6521 318.046 77.4987 318.535 77.8569 318.013C79.4524 315.83 81.1131 313.68 82.6436 311.464C83.9461 309.607 83.5879 308.369 82.9692 306.283C81.2108 300.646 85.4114 295.987 89.6771 293.022C90.1655 292.696 89.6771 291.849 89.1561 292.207Z" fill="#161616"/>
<path d="M76.9777 318.372C78.3454 319.61 79.8432 320.946 81.7644 321.141C83.5228 321.304 85.216 320.359 86.5837 319.382C89.6771 317.199 91.8914 314.103 93.3241 310.617C93.552 310.03 92.6077 309.77 92.3798 310.356C91.2401 313.158 89.4817 315.732 87.1698 317.687C85.8673 318.763 84.174 320.066 82.4157 320.164C80.4945 320.294 78.964 318.86 77.6615 317.655C77.2057 317.264 76.5219 317.948 76.9777 318.372Z" fill="#161616"/>
<path d="M83.2298 306.837C83.7182 307.749 84.2718 308.597 84.9556 309.346C85.3789 309.835 86.0627 309.118 85.6394 308.662C85.0207 307.945 84.4997 307.163 84.0764 306.348C83.7508 305.794 82.9367 306.283 83.2298 306.837Z" fill="#161616"/>
<path d="M78.4756 316.645C79.1269 317.394 79.3222 318.339 79.2245 319.284C79.1594 319.903 80.1363 319.903 80.2014 319.284C80.3317 318.078 79.9735 316.873 79.1594 315.96C78.7361 315.504 78.0523 316.189 78.4756 316.645Z" fill="#161616"/>
<path d="M77.5965 318.078C77.9872 318.372 78.3454 318.697 78.7362 318.991C79.1269 319.317 79.8433 318.893 79.5177 318.404C79.2572 318.013 79.0943 317.557 79.0943 317.068C78.8013 317.166 78.4757 317.231 78.1826 317.329C78.2803 317.459 78.378 317.59 78.4431 317.72C78.8013 318.241 79.6479 317.753 79.2897 317.231C79.192 317.101 79.0943 316.971 79.0292 316.84C78.7687 316.482 78.1175 316.58 78.1175 317.101C78.1175 317.753 78.3129 318.372 78.671 318.926C78.9315 318.73 79.192 318.535 79.4525 318.339C79.0618 318.046 78.7036 317.72 78.3128 317.427C78.1175 317.264 77.8244 317.231 77.629 317.427C77.4337 317.557 77.4011 317.915 77.5965 318.078Z" fill="#161616"/>
<path d="M96.9386 291.491C99.739 292.175 101.628 294.325 103.321 296.508C104.949 298.561 106.056 299.669 108.791 299.506C114.457 299.148 119.863 296.997 125.235 295.368C130.771 293.706 137.772 291.882 143.242 294.684C148.908 297.584 151.025 304.556 148.192 310.193C147.899 310.747 148.746 311.236 149.039 310.682C153.109 302.536 147.704 293.38 138.847 292.435C128.687 291.36 119.504 297.388 109.605 298.431C107.749 298.626 106.186 298.529 104.884 296.965C104.102 296.02 103.386 295.01 102.572 294.097C101.074 292.435 99.3482 291.067 97.134 290.513C96.5804 290.383 96.3199 291.328 96.9386 291.491Z" fill="#161616"/>
<path d="M138.521 300.809C135.981 302.829 134.125 305.469 134.32 308.857C134.516 311.855 136.307 314.429 138.977 315.798C139.53 316.091 140.019 315.244 139.465 314.95C136.958 313.647 135.265 311.203 135.297 308.303C135.33 305.371 137.023 303.22 139.205 301.493C139.693 301.135 139.009 300.418 138.521 300.809Z" fill="#161616"/>
<path d="M139.042 315.537C137.218 316.091 135.427 316.742 133.669 317.524C132.692 317.981 130.283 318.632 129.957 319.838C129.273 322.379 135.59 321.369 136.535 321.304C138.423 321.174 140.312 320.978 142.2 320.685C143.861 320.424 146.108 320.392 147.606 319.577C148.745 318.991 148.648 317.72 148.713 316.58C148.876 314.331 149.071 312.116 149.234 309.867C149.299 309.248 148.322 309.248 148.257 309.867C148.159 311.301 148.029 312.702 147.931 314.136C147.834 315.439 148.127 318.046 146.857 318.795C145.978 319.317 144.447 319.317 143.438 319.479C141.842 319.74 140.279 319.968 138.651 320.131C137.316 320.261 135.981 320.359 134.646 320.392C133.93 320.424 133.213 320.49 132.497 320.457C131.878 320.424 130.836 320.652 131.259 319.773C131.455 319.414 132.692 318.991 133.083 318.828C133.832 318.469 134.613 318.111 135.395 317.785C136.665 317.264 137.967 316.84 139.27 316.449C139.921 316.286 139.661 315.341 139.042 315.537Z" fill="#161616"/>
<path d="M103.256 308.857C103.484 314.299 99.0226 317.948 94.6592 320.294C92.8031 321.272 85.8022 323.487 88.2769 326.811C90.4586 329.743 95.8314 326.713 98.2085 325.442C102.311 323.259 105.893 320.294 109.475 317.329C109.964 316.938 109.28 316.254 108.791 316.645C105.698 319.186 102.604 321.76 99.1528 323.781C97.3944 324.823 95.5384 325.736 93.5846 326.387C92.4775 326.746 91.0122 327.332 89.9051 326.778C87.6257 325.67 89.5143 324.009 90.8168 323.292C96.6781 320.196 104.591 316.743 104.233 308.825C104.2 308.238 103.223 308.238 103.256 308.857Z" fill="#161616"/>
<path d="M84.2392 306.87C84.402 305.762 84.9882 304.752 85.9976 304.23C86.5512 303.937 86.0627 303.09 85.5092 303.383C84.2718 304.035 83.4903 305.273 83.2949 306.609C83.1972 307.228 84.1415 307.489 84.2392 306.87Z" fill="#161616"/>
<path d="M88.3095 316.189C87.7885 317.166 86.8116 317.72 85.965 318.404C85.0858 319.121 84.2392 319.903 83.4251 320.718C82.4482 321.728 80.2666 323.487 80.1689 325.019C79.9409 328.798 86.9744 325.54 88.3095 325.117C88.8956 324.921 88.6351 323.976 88.049 324.172C86.5837 324.66 85.1509 325.182 83.6531 325.605C83.2297 325.768 82.7739 325.866 82.3506 325.899C81.5365 324.954 81.5039 324.139 82.1877 323.52C82.5134 322.966 83.0995 322.477 83.5228 322.021C84.4997 320.978 85.5417 320.001 86.6488 319.089C87.5606 318.339 88.57 317.753 89.1236 316.677C89.4492 316.124 88.6026 315.635 88.3095 316.189Z" fill="#161616"/>
<path d="M109.377 317.687C118.528 317.72 127.515 314.885 134.972 309.574C135.493 309.216 135.004 308.369 134.483 308.727C127.157 313.94 118.397 316.742 109.377 316.71C108.759 316.677 108.759 317.655 109.377 317.687Z" fill="#161616"/>
<path d="M129.924 311.888C130.12 312.442 130.283 312.963 130.478 313.517C130.771 314.332 131.031 314.592 130.217 315.081C129.208 315.7 128.003 316.156 126.929 316.678C125.821 317.199 124.714 317.688 123.64 318.274C123.119 318.535 122.63 318.828 122.402 319.382C121.23 322.51 128.915 320.75 130.055 320.392C130.641 320.197 130.38 319.252 129.794 319.447C128.915 319.74 128.003 319.968 127.091 320.066C126.505 320.131 124.877 320.49 124.291 320.164C122.728 319.284 125.235 318.567 125.756 318.307C126.57 317.916 127.384 317.492 128.231 317.101C129.143 316.645 131.357 316.124 131.78 315.113C132.171 314.201 131.129 312.442 130.836 311.595C130.673 311.041 129.729 311.301 129.924 311.888Z" fill="#161616"/>
<path d="M149.299 299.343C149.266 298.072 149.494 296.867 150.178 295.759C150.471 295.303 150.895 294.684 151.416 294.455C154.151 293.315 153.662 295.889 153.434 296.801C152.848 298.887 151.22 300.581 149.429 301.689C148.876 302.015 149.397 302.862 149.918 302.536C151.676 301.493 153.109 299.995 153.988 298.105C154.542 296.867 155.095 295.042 154.021 293.934C153.044 292.924 151.481 293.185 150.471 293.967C148.876 295.205 148.29 297.421 148.355 299.376C148.355 299.962 149.332 299.995 149.299 299.343Z" fill="#161616"/>
<path d="M89.4817 293.315C91.6308 291.881 95.0499 290.415 97.5572 291.719C98.1107 292.012 98.5992 291.165 98.0456 290.871C95.1801 289.373 91.468 290.839 88.9932 292.468C88.4722 292.794 88.9607 293.641 89.4817 293.315Z" fill="#161616"/>
<path opacity="0.09" d="M100.292 297.975C101.269 298.366 103.744 299.473 105.502 302.145C106.251 303.286 108.107 306.12 107.065 309.314C106.121 312.181 103.451 313.452 102.832 313.712C103.256 312.8 103.842 311.334 103.972 309.477C104.135 307.131 103.549 305.371 102.897 303.449C102.442 302.048 101.66 300.125 100.292 297.975Z" fill="#6D6C6C"/>
<path opacity="0.13" d="M90.5237 308.173C89.612 311.725 87.9187 314.038 87.007 315.276C85.1183 317.85 83.0018 319.577 81.3737 320.652C82.611 320.49 84.402 320.033 86.258 318.926C86.779 318.6 89.1235 317.199 90.9145 314.266C91.8913 312.67 92.3798 311.203 92.6403 310.193C92.0867 307.13 91.5657 304.068 91.0122 300.972C91.2075 302.569 91.3052 305.143 90.5237 308.173Z" fill="#6D6C6C"/>
<path opacity="0.07" d="M146.857 297.095C147.15 298.626 147.476 301.005 147.02 303.872C146.238 308.955 143.568 312.279 142.363 313.745C138.553 318.404 133.832 320.262 131.618 321.011C136.763 320.848 140.931 320.392 143.991 319.936C146.075 319.642 147.41 319.382 148.225 318.307C149.592 316.482 147.964 314.527 148.713 310.161C149.201 307.196 150.081 307 150.178 304.85C150.276 302.895 149.69 300.288 146.857 297.095Z" fill="#6D6C6C"/>
<path opacity="0.14" d="M130.673 311.986C130.901 312.344 131.65 313.55 131.259 314.69C131.162 314.951 130.901 315.537 129.371 316.319C126.766 317.688 125.3 317.134 124.063 318.535C123.965 318.632 123.119 319.61 123.412 320.262C123.705 320.881 125.007 320.816 126.115 320.75C127.189 320.685 128.72 320.457 130.51 319.773C131.552 319.089 132.822 318.339 134.353 317.655C136.046 316.906 137.609 316.417 138.912 316.091C138.781 315.667 138.488 315.048 138 314.364C137.121 313.191 136.307 313.028 135.558 311.986C135.232 311.529 134.809 310.78 134.646 309.607C133.311 310.422 131.976 311.204 130.673 311.986Z" fill="#6D6C6C"/>
<path opacity="0.25" d="M153.207 294.064C153.141 294.912 152.946 296.182 152.393 297.583C151.416 300.092 149.95 301.428 150.178 301.656C150.374 301.852 151.806 300.972 152.718 299.701C153.467 298.626 153.662 297.583 153.695 297.258C153.923 295.726 153.435 294.521 153.207 294.064Z" fill="#6D6C6C"/>
<path d="M357.08 290.383C364.439 297.29 371.766 304.231 379.125 311.138C370.529 328.635 367.077 337.889 368.77 338.932C370.854 340.235 380.949 328.733 399.086 304.361C386.582 295.237 374.078 286.114 361.574 276.958C360.076 281.455 358.578 285.919 357.08 290.383Z" fill="#191919"/>
<path d="M325.56 189.505C322.825 193.675 324.388 197.488 325.951 211.889C327.546 226.487 326.211 224.955 327.514 235.056C329.728 252.13 334.612 264.479 338.52 274.156C338.52 274.156 344.023 287.874 354.801 300.483C355.094 300.842 355.778 301.559 356.755 302.243C357.732 302.927 359.816 304.361 362.258 304.002C364.83 303.644 366.784 301.461 367.565 299.473C368.445 297.225 367.403 296.182 368.542 294.358C369.389 293.054 370.138 293.25 372.287 291.621C373.785 290.448 375.706 288.982 376.618 286.505C377.627 283.703 376.846 281.162 376.618 280.412C375.934 278.262 374.632 276.893 374.273 276.47C372.678 274.743 370.203 269.888 365.254 260.178C361.411 252.684 355.387 235.708 353.466 214.431C351.773 195.533 354.703 188.853 349.33 184.78C342.981 179.958 330.086 182.597 325.56 189.505Z" fill="#878787"/>
<path d="M352.033 196.412C351.74 207.751 353.14 219.058 355.582 230.136C357.959 240.889 361.02 251.739 365.253 261.905C367.403 267.118 370.073 272.103 373.557 276.535C373.948 277.024 374.632 276.339 374.241 275.851C367.728 267.64 364.342 257.506 361.281 247.633C357.959 236.979 355.322 226.096 353.954 214.985C353.205 208.827 352.88 202.603 353.043 196.412C353.043 195.761 352.066 195.761 352.033 196.412Z" fill="#161616"/>
<path d="M325.69 210.814C325.755 228.246 328.067 245.776 333.505 262.394C336.175 270.539 339.594 278.49 343.86 285.919C346.009 289.698 348.386 293.38 350.991 296.899C353.173 299.864 355.745 303.155 359.522 304.1C363.007 304.98 366.491 303.579 367.858 300.158C369.259 296.606 368.314 291.979 371.245 289.112C371.701 288.656 371.017 287.972 370.561 288.428C368.314 290.611 368.184 293.771 367.728 296.671C367.5 298.105 367.24 299.604 366.458 300.842C365.156 302.992 362.649 303.709 360.271 303.253C356.006 302.439 353.238 298.366 350.893 295.075C348.581 291.816 346.432 288.428 344.446 284.941C336.403 270.67 331.421 254.802 328.849 238.64C327.383 229.452 326.7 220.133 326.667 210.814C326.667 210.163 325.69 210.163 325.69 210.814Z" fill="#161616"/>
<path d="M372.775 275.622C375.413 278.75 377.464 282.823 376.064 286.961C375.348 289.145 373.72 289.959 371.929 291.1C370.366 292.11 369.063 293.446 367.989 294.977C367.631 295.498 368.477 295.987 368.835 295.466C369.747 294.228 370.789 293.055 372.059 292.175C372.873 291.621 373.785 291.197 374.599 290.611C376.129 289.503 376.976 287.776 377.302 285.951C378.018 281.781 376.064 278.034 373.459 274.906C373.069 274.449 372.385 275.166 372.775 275.622Z" fill="#161616"/>
<path opacity="0.16" d="M326.309 210.065C326.244 214.366 326.374 218.862 326.7 223.587C327.872 240.237 331.421 254.671 335.491 266.466C335.491 266.466 340.604 281.096 347.409 291.328C348.158 292.435 349.591 294.293 352.489 297.975C355.485 301.819 356.364 302.764 357.96 303.449C358.187 303.546 362.258 305.241 364.993 303.253C365.742 302.732 366.328 301.461 367.533 298.952C368.77 296.378 369.389 295.009 369.682 293.087C371.278 293.022 372.45 292.142 372.613 291.132C372.808 289.894 371.375 288.851 371.245 288.786C369.291 287.45 366.589 288.558 365.384 288.786C359.425 289.861 351.968 275.655 349.721 271.354C340.441 253.335 335.784 244.342 332.496 234.372C330.574 228.214 328.197 220.003 326.309 210.065Z" fill="#6D6C6C"/>
<path opacity="0.13" d="M330.607 248.057C330.9 247.959 331.421 249.425 336.468 259.591C346.302 279.369 348.647 282.237 351.154 284.452C354.15 287.124 359.523 290.774 368.77 292.272C368.868 292.859 370.04 299.31 366.23 302.243C364.57 303.546 362.649 303.611 362.128 303.611C356.234 303.807 350.112 295.759 344.707 286.179C334.189 267.542 329.532 248.415 330.607 248.057Z" fill="#6D6C6C"/>
<path d="M285.41 292.403C281.047 301.526 276.716 310.617 272.353 319.74C253.108 316.873 243.209 316.416 242.721 318.339C242.102 320.717 256.169 326.843 284.857 336.683C289.741 321.988 294.625 307.293 299.477 292.566C294.821 292.533 290.132 292.468 285.41 292.403Z" fill="#191919"/>
<path d="M324.127 186.507C320.773 189.374 319.796 192.437 317.094 198.693C312.926 208.305 308.204 217.689 303.971 227.301C295.537 246.46 292.802 250.696 286.42 265.749C282.74 274.417 282.773 275.036 280.786 278.652C278.735 282.367 276.618 285.495 275.153 290.839C274.274 294.032 274.079 296.41 274.925 298.821C275.251 299.766 276.26 302.731 278.898 303.742C280.591 304.393 282.317 304.002 284.271 303.513C285.866 303.122 287.136 302.569 288.015 302.112C288.601 302.862 289.643 303.97 291.304 304.686C294.398 306.088 297.361 305.143 298.793 304.686C299.64 304.426 302.799 303.318 305.111 300.223C306.706 298.105 307.162 295.987 307.455 294.846C308.627 289.991 311.037 285.527 312.6 280.77C313.447 278.164 315.075 274.188 325.951 258.288C337.673 241.149 338.259 242.159 343.99 232.742C350.21 222.511 353.694 216.907 355.224 208.37C356.462 201.462 358.285 191.329 352.229 185.334C345.358 178.361 331.454 180.186 324.127 186.507Z" fill="#878787"/>
<path d="M355.387 192.828C357.439 211.596 347.279 228.637 336.631 243.169C331.226 250.533 325.527 257.669 320.61 265.326C315.531 273.211 311.591 281.683 308.367 290.48C306.739 294.944 305.697 300.679 301.301 303.351C297.621 305.566 292.802 305.403 289.383 302.797C288.894 302.406 288.406 303.253 288.894 303.644C294.723 308.043 303.027 305.599 306.153 299.213C308.204 295.009 309.409 290.317 311.135 285.984C313.088 281.129 315.303 276.339 317.843 271.777C327.416 254.736 341.809 240.823 350.275 223.098C354.768 213.649 357.536 203.287 356.364 192.795C356.299 192.209 355.322 192.176 355.387 192.828Z" fill="#161616"/>
<path d="M323.606 183.574C314.684 203.092 305.762 222.642 296.807 242.159C292.314 252.032 287.787 261.872 283.294 271.745C281.177 276.404 278.963 281.031 276.911 285.723C275.283 289.405 273.72 293.543 274.339 297.616C274.86 300.907 276.911 304.393 280.526 304.654C283.131 304.849 285.768 303.611 288.178 302.829C291.011 301.917 293.877 300.972 296.709 300.06C297.296 299.864 297.035 298.919 296.449 299.115C294.202 299.831 291.988 300.548 289.741 301.298C287.397 302.047 285.052 302.992 282.642 303.513C277.921 304.491 275.316 300.451 275.153 296.215C274.99 291.523 277.335 286.994 279.223 282.856C281.307 278.326 283.359 273.797 285.443 269.236C293.746 251.087 302.05 232.938 310.321 214.789C315.01 204.525 319.699 194.261 324.388 184.03C324.713 183.476 323.867 182.988 323.606 183.574Z" fill="#161616"/>
<path d="M288.048 303.025C288.373 303.22 288.699 303.448 288.992 303.676C289.188 303.839 289.481 303.872 289.676 303.676C289.839 303.513 289.871 303.155 289.676 302.992C289.318 302.699 288.927 302.438 288.536 302.178C288.015 301.852 287.527 302.699 288.048 303.025Z" fill="#161616"/>
<path opacity="0.09" d="M340.995 180.707C337.054 182.662 338.259 190.612 337.673 199.312C337.25 205.731 336.175 207.686 321.229 241.801C308.66 270.507 307.162 274.286 302.245 281.748C296.156 290.969 290.034 297.909 285.606 302.503C286.648 302.438 287.69 302.373 288.732 302.308C289.416 302.96 290.523 303.807 292.053 304.458C292.802 304.784 296.156 306.218 299.673 305.045C303.124 303.905 304.818 300.907 306.12 298.593C308.074 295.107 308.595 292.012 308.855 290.578C309.572 286.766 311.819 282.432 316.28 273.732C322.304 262.035 328.165 257.245 338.976 241.247C347.833 228.083 352.717 220.687 355.029 209.543C356.885 200.648 356.331 192.991 355.615 188.006C350.828 183.477 344.707 178.85 340.995 180.707Z" fill="#6D6C6C"/>
<path opacity="0.16" d="M355.061 203.613C354.508 203.385 351.773 209.967 346.27 219.677C338.683 232.971 336.045 234.209 325.918 249.425C315.693 264.804 315.856 267.378 305.176 283.084C299.64 291.229 294.756 297.681 291.467 301.884C290.523 303.416 290.685 304.132 290.881 304.426C291.695 305.827 295.798 304.882 297.719 304.426C300.194 303.839 301.464 303.546 302.799 302.666C305.632 300.809 306.25 297.909 308.269 291.914C309.344 288.688 310.711 285.56 311.786 282.334C314.13 275.427 317.452 270.572 322.922 262.752C341.678 236.066 341.613 237.565 344.837 231.635C352.554 217.559 355.843 203.939 355.061 203.613Z" fill="#6D6C6C"/>
<path d="M262.519 89.2457C261.672 90.6794 261.509 92.0479 261.444 92.667C261.119 95.3388 262.03 97.4241 262.421 98.2387C264.57 102.898 269.487 104.495 270.366 104.755C270.953 106.938 271.539 109.122 272.19 111.337C273.655 116.518 275.186 121.601 276.749 126.554C278.833 126.26 280.917 125.967 283.001 125.674C282.415 122.904 281.698 120.689 281.177 119.222C279.614 114.726 278.149 112.478 276.879 107.59C276.553 106.287 276.325 105.179 276.195 104.495C276.716 104.136 277.432 103.517 278.116 102.637C280.819 99.1185 280.168 94.8175 280.037 93.9052C279.81 92.5041 279.451 89.9626 277.302 87.8121C274.567 85.0425 271.05 84.9773 270.529 84.9773C267.371 84.8796 264.114 86.5087 262.519 89.2457Z" fill="#848484"/>
<path d="M264.408 91.885C264.277 92.276 263.919 93.6771 264.31 95.404C264.896 97.9455 266.915 100.259 269.618 101.041C271.734 101.66 274.958 101.595 276.684 99.4769C277.888 98.0107 277.856 96.2512 277.823 94.622C277.791 92.7973 277.726 89.9952 275.511 88.1705C272.841 85.9549 269.292 87.0627 269.064 87.1279C266.752 87.8773 265.026 89.7345 264.408 91.885Z" fill="#878787"/>
<path d="M270.301 112.445C270.204 112.934 270.073 113.651 270.073 114.465C270.073 114.856 270.073 115.931 270.464 117.561C270.725 118.571 270.887 118.831 271.962 121.438C273.134 124.273 273.362 125.055 274.241 125.413C274.827 125.674 275.446 125.576 275.837 125.478C274.893 123.98 274.958 123.1 275.186 122.578C275.381 122.09 275.707 121.992 275.902 121.373C275.967 121.145 276.065 120.721 275.707 119.255C275.348 117.821 275.186 117.821 275.088 116.974C274.958 115.997 275.186 115.964 275.055 115.052C275.023 114.889 274.893 114.009 274.339 112.999C273.818 112.087 273.492 111.5 272.841 111.305C271.995 111.109 271.05 111.598 270.301 112.445Z" fill="#878787"/>
<path d="M278.409 112.054C277.595 112.869 276.456 114.4 276.912 115.215C277.302 115.866 278.67 115.931 279.354 115.964C279.842 115.997 280.233 115.964 280.526 115.931C280.656 116.29 280.786 116.616 280.884 116.974C281.796 119.646 282.577 122.285 283.229 124.892C283.326 125.25 283.424 125.609 283.489 125.934C283.196 126.358 282.643 127.01 281.763 127.531C280.559 128.215 279.419 128.313 278.865 128.313C279.484 129.812 280.396 131.702 281.763 133.754C282.154 134.341 283.294 136.068 285.182 138.121C286.973 140.076 288.764 142.031 291.63 143.725C295.505 146.038 299.152 146.56 301.171 146.82C304.199 147.211 306.576 147.048 307.781 146.918C308.823 146.82 312.958 146.299 317.745 143.855C322.206 141.574 324.909 138.837 326.96 136.72C328.556 135.09 331.291 132.19 333.668 127.596C335.296 124.403 335.915 122.024 337.087 117.365C338.748 110.783 339.562 107.492 337.934 105.993C336.566 104.755 334.156 105.277 332.203 105.733C328.979 106.45 326.797 108.177 324.16 110.327C322.825 111.435 321.652 112.575 319.406 114.791C314.651 119.483 314.358 120.232 311.753 122.383C310.19 123.686 308.92 124.533 306.381 126.195C301.301 129.584 299.868 129.877 298.761 129.942C296.742 130.04 295.212 129.356 293.811 128.737C289.643 126.847 287.657 123.523 287.038 122.481C286.224 121.08 285.606 120.004 285.573 118.505C285.541 116.779 286.29 116.225 286.322 114.107C286.355 112.869 286.387 111.142 285.345 110.262C283.717 108.828 280.265 110.229 278.409 112.054Z" fill="#878787"/>
<path d="M285.02 120.298C288.08 125.576 292.802 131.115 299.575 130.301C300.194 130.236 300.194 129.258 299.575 129.323C293.128 130.105 288.764 124.794 285.834 119.809C285.541 119.255 284.694 119.744 285.02 120.298Z" fill="#161616"/>
<path d="M292.444 131.474C296.742 131.865 300.715 130.008 304.329 127.922C308.074 125.772 311.525 123.165 314.651 120.167C320.903 114.139 327.416 104.43 337.413 106.222C338.031 106.32 338.292 105.375 337.673 105.277C328.784 103.68 322.206 110.816 316.703 116.648C313.479 120.07 309.995 123.198 306.022 125.739C301.985 128.346 297.393 130.92 292.444 130.496C291.825 130.431 291.825 131.409 292.444 131.474Z" fill="#161616"/>
<path d="M277.205 126.619C281.991 135.709 287.885 144.67 298.598 146.951C308.465 149.069 318.494 145.484 325.723 138.707C329.956 134.732 333.212 129.844 335.557 124.566C335.817 124.012 334.97 123.491 334.71 124.077C330.77 132.875 324.095 140.89 314.977 144.54C305.794 148.189 294.886 147.016 287.592 140.076C283.489 136.166 280.689 131.115 278.051 126.13C277.758 125.543 276.911 126.065 277.205 126.619Z" fill="#161616"/>
<path d="M279.842 110.685C278.181 111.402 275.837 113.585 276.749 115.638C277.758 117.854 281.34 115.931 282.61 114.986C283.098 114.628 282.61 113.781 282.121 114.139C281.373 114.693 277.888 116.779 277.563 114.856C277.302 113.422 279.256 112.021 280.363 111.533C280.917 111.272 280.396 110.425 279.842 110.685Z" fill="#161616"/>
<path d="M280.037 111.598C281.275 110.653 283.229 109.154 284.792 110.523C286.061 111.663 285.801 113.651 285.573 115.117C285.28 117.007 284.531 119.646 285.736 121.34C286.094 121.862 286.941 121.373 286.582 120.852C285.41 119.19 286.485 116.192 286.68 114.367C286.843 112.999 286.778 111.598 285.996 110.457C284.303 107.981 281.438 109.317 279.549 110.751C279.061 111.142 279.549 111.989 280.037 111.598Z" fill="#161616"/>
<path d="M279.484 115.931C280.591 119.222 281.6 122.546 282.577 125.902C282.675 125.706 282.805 125.511 282.903 125.315C280.689 125.837 278.409 125.283 276.325 126.358C276.553 126.456 276.814 126.554 277.042 126.651C276.651 125.25 276.163 123.849 275.674 122.481C275.446 121.894 274.502 122.155 274.73 122.741C275.251 124.11 275.707 125.511 276.097 126.912C276.195 127.238 276.521 127.336 276.814 127.205C278.768 126.195 281.079 126.749 283.163 126.26C283.424 126.195 283.587 125.902 283.489 125.674C282.512 122.318 281.503 119.027 280.396 115.703C280.233 115.052 279.289 115.312 279.484 115.931Z" fill="#161616"/>
<path d="M276.456 126.977C277.888 129.323 282.349 128.444 283.359 126.098C283.619 125.511 282.773 125.022 282.512 125.609C281.828 127.238 278.344 128.215 277.27 126.489C276.977 125.935 276.13 126.423 276.456 126.977Z" fill="#161616"/>
<path d="M277.335 127.271C278.995 127.629 280.624 127.531 282.219 126.945C282.805 126.717 282.545 125.772 281.959 126C280.526 126.521 279.061 126.619 277.595 126.326C276.977 126.195 276.716 127.14 277.335 127.271Z" fill="#161616"/>
<path d="M277.042 127.108C278.214 125.315 280.428 124.827 282.252 125.902C282.805 126.228 283.294 125.381 282.74 125.055C280.396 123.719 277.66 124.371 276.162 126.619C275.837 127.14 276.683 127.661 277.042 127.108Z" fill="#161616"/>
<path d="M278.833 126.521C279.223 125.283 280.884 125.967 281.666 126.325C282.219 126.586 282.74 125.739 282.154 125.478C280.754 124.827 278.507 124.273 277.888 126.26C277.726 126.879 278.67 127.14 278.833 126.521Z" fill="#161616"/>
<path d="M274.762 124.99C273.916 124.436 273.362 123.491 273.395 122.448C273.427 121.992 273.557 121.568 273.753 121.177C273.851 121.014 274.762 119.841 274.99 120.004C275.479 120.395 276.162 119.711 275.674 119.32C274.437 118.343 272.939 120.33 272.613 121.405C272.06 123.132 272.809 124.859 274.274 125.837C274.795 126.163 275.283 125.315 274.762 124.99Z" fill="#161616"/>
<path d="M275.055 123.1C276.488 122.285 276.716 120.363 275.446 119.288C274.958 118.897 274.274 119.581 274.762 119.972C275.544 120.624 275.479 121.731 274.567 122.253C274.013 122.579 274.502 123.426 275.055 123.1Z" fill="#161616"/>
<path d="M273.655 125.283C274.372 126 275.511 126.163 276.358 125.609C276.879 125.283 276.39 124.436 275.869 124.762C275.381 125.087 274.762 125.022 274.339 124.599C273.916 124.143 273.232 124.827 273.655 125.283Z" fill="#161616"/>
<path d="M272.874 122.025C272.288 121.145 272.092 120.135 272.32 119.092C272.581 117.854 273.688 116.355 274.99 117.626C275.446 118.082 276.13 117.365 275.674 116.942C274.404 115.671 272.841 116.029 271.929 117.528C270.985 119.059 271.083 121.047 272.06 122.513C272.385 123.035 273.232 122.546 272.874 122.025Z" fill="#161616"/>
<path d="M271.734 119.776C271.669 119.32 271.506 118.962 271.278 118.538C270.855 117.756 270.757 117.17 270.985 116.29C271.376 114.791 272.646 113.683 274.176 114.596C274.73 114.921 275.218 114.074 274.665 113.748C273.265 112.934 271.474 113.26 270.594 114.661C270.138 115.378 269.845 116.323 269.845 117.17C269.813 118.245 270.627 118.994 270.79 120.037C270.887 120.656 271.832 120.395 271.734 119.776Z" fill="#161616"/>
<path d="M270.79 115.019C270.269 114.27 270.236 113.227 270.887 112.543C271.539 111.859 272.581 111.826 273.362 112.315C273.883 112.641 274.372 111.793 273.851 111.468C272.711 110.751 271.148 110.881 270.204 111.859C269.259 112.836 269.194 114.433 269.943 115.541C270.301 116.029 271.148 115.541 270.79 115.019Z" fill="#161616"/>
<path d="M273.818 114.465C274.534 114.824 274.795 115.834 274.241 116.453C273.818 116.909 274.502 117.626 274.925 117.137C275.869 116.094 275.609 114.27 274.306 113.618C273.753 113.357 273.232 114.172 273.818 114.465Z" fill="#161616"/>
<path d="M272.971 112.347C273.59 112.64 273.948 113.292 273.818 114.009C273.688 114.628 274.632 114.889 274.762 114.27C274.99 113.162 274.469 112.021 273.46 111.533C272.906 111.207 272.418 112.054 272.971 112.347Z" fill="#161616"/>
<path d="M274.925 118.049C275.153 118.408 275.218 118.864 275.023 119.288C274.925 119.516 274.958 119.809 275.186 119.972C275.381 120.102 275.739 120.037 275.869 119.809C276.195 119.092 276.163 118.277 275.772 117.593C275.446 117.007 274.6 117.495 274.925 118.049Z" fill="#161616"/>
<path d="M270.106 105.146C270.497 107.362 270.985 109.545 271.604 111.728C271.767 112.347 272.711 112.087 272.548 111.468C271.929 109.317 271.441 107.101 271.05 104.886C270.953 104.267 270.008 104.527 270.106 105.146Z" fill="#161616"/>
<path d="M275.576 104.625C276.358 107.232 277.139 109.806 277.888 112.413C278.084 112.999 278.995 112.771 278.833 112.152C278.051 109.545 277.27 106.971 276.521 104.364C276.325 103.745 275.381 104.006 275.576 104.625Z" fill="#161616"/>
<path d="M270.204 104.201C266.068 103.81 262.291 98.532 261.705 94.6871C260.988 90.0277 265.319 86.1829 269.617 85.3683C278.833 83.674 283.717 99.8353 275.837 104.071C275.283 104.364 275.772 105.212 276.325 104.918C283.163 101.236 281.307 89.5716 275.576 85.7593C268.673 81.1651 258.318 88.5615 261.184 96.577C262.519 100.291 266.003 104.755 270.204 105.146C270.822 105.244 270.822 104.267 270.204 104.201Z" fill="#161616"/>
<path d="M270.171 100.78C267.012 100.063 264.538 97.2939 264.57 93.9704C264.603 90.4514 267.501 87.3234 271.05 87.1931C275.316 87.0627 277.4 91.2008 277.335 94.9805C277.302 97.1636 276.977 99.2489 274.73 100.129C273.004 100.78 271.115 101.367 269.292 100.65C268.706 100.422 268.445 101.367 269.031 101.595C271.115 102.409 273.525 101.725 275.511 100.845C277.4 99.9983 277.953 98.4995 278.214 96.5119C278.735 92.1783 277.042 86.8672 272.06 86.2807C267.957 85.792 264.31 88.9852 263.724 92.9929C263.138 97.0658 266.036 100.813 269.976 101.725C270.529 101.856 270.79 100.911 270.171 100.78Z" fill="#161616"/>
<path d="M271.213 86.8345C269.878 91.0378 268.543 95.2736 267.24 99.4768C267.045 100.063 267.989 100.324 268.185 99.7375C269.52 95.5343 270.855 91.2984 272.157 87.0952C272.353 86.5087 271.408 86.248 271.213 86.8345Z" fill="#161616"/>
<path d="M273.134 91.5266C272.125 94.5568 271.018 97.5545 269.878 100.52C269.65 101.106 270.594 101.367 270.822 100.78C271.962 97.8152 273.069 94.7849 274.079 91.7873C274.274 91.1682 273.33 90.9075 273.134 91.5266Z" fill="#161616"/>
<path opacity="0.12" d="M337.608 106.124C336.175 109.741 333.668 115.117 329.37 120.852C324.746 127.075 319.503 134.113 310.06 137.176C307.716 137.925 300.715 140.108 292.314 137.502C284.987 135.221 280.591 130.529 278.865 128.476C279.679 130.659 281.21 134.015 284.075 137.339C285.573 139.066 291.076 145.289 300.552 146.853C301.724 147.049 307.846 147.994 314.977 145.257C322.825 142.259 327.058 136.687 330.021 132.745C332.105 129.975 335.817 124.892 337.315 117.202C338.194 112.641 337.966 108.731 337.608 106.124Z" fill="#6D6C6C"/>
<path opacity="0.21" d="M285.671 137.828C288.113 139.392 292.541 141.77 298.5 142.422C305.892 143.236 311.493 140.923 315.596 139.261C323.736 135.905 329.435 130.855 333.017 126.912C331.779 129.845 329.174 134.862 323.997 139.261C321.555 141.347 313.121 148.515 301.659 146.853C292.932 145.582 287.462 139.88 285.671 137.828Z" fill="#6D6C6C"/>
<path d="M331.844 102.931C326.439 106.939 324.453 112.282 322.206 118.212C318.038 129.226 318.722 137.99 319.178 151.871C319.471 160.701 319.731 173.506 319.471 189.472C325.071 190.873 332.105 192.079 340.246 192.372C346.563 192.568 352.196 192.177 356.95 191.525C359.62 179.241 362.421 169.336 364.505 162.461C371.473 139.457 378.539 122.611 372.092 109.122C371.766 108.47 371.44 107.916 371.082 107.427C363.658 96.9354 342.851 94.7523 331.844 102.931Z" fill="#474747"/>
<path opacity="0.15" d="M355.355 98.6948C354.931 101.073 354.215 104.82 353.14 109.317C347.051 134.732 340.929 136.133 339.855 150.209C338.748 164.383 344.479 169.498 339.692 180.153C337.185 185.725 333.342 189.439 330.509 191.72C335.036 192.046 339.887 192.242 345.065 192.209C349.135 192.176 352.978 192.013 356.625 191.72C358.936 181.652 361.151 173.604 362.811 167.967C363.625 165.197 364.602 161.906 366.458 155.781C369.487 145.745 370.268 143.269 371.538 138.512C373.394 131.441 374.339 127.824 374.534 124.24C374.86 118.864 375.218 112.738 371.375 107.59C368.933 104.299 365.579 102.54 363.788 101.562C360.467 99.7701 357.406 99.0207 355.355 98.6948Z" fill="#6D6C6C"/>
<path opacity="0.17" d="M368.966 143.855C368.282 143.595 364.798 152.848 358.676 165.393C352.978 177.058 347.572 186.246 343.795 192.339C348.061 192.014 352.359 191.72 356.625 191.395C357.732 187.061 359.425 180.577 361.541 172.692C366.751 153.272 369.65 144.084 368.966 143.855Z" fill="#6D6C6C"/>
<path d="M366.589 105.961C365.514 106.352 363.984 107.003 362.225 108.013C356.038 111.565 352.75 116.453 350.731 119.385C350.731 119.385 343.925 129.29 333.44 142.584C330.184 146.722 326.928 150.567 322.922 154.738C314.619 163.405 310.939 165.197 309.344 165.881C305.371 167.641 301.887 169.172 297.296 168.814C294.267 168.586 292.379 167.641 290.295 168.912C288.08 170.248 286.615 173.441 286.908 175.2C286.941 175.396 287.071 176.015 287.136 176.895C287.169 177.123 287.201 177.905 287.136 179.045C287.038 180.805 286.843 180.642 286.908 181.293C287.104 182.694 288.08 183.411 287.787 183.867C287.592 184.193 287.071 183.9 286.68 184.324C286.224 184.78 286.42 185.66 286.452 185.79C286.68 186.8 287.527 187.386 287.885 187.582C289.285 188.494 290.23 188.006 293.779 188.136C296.286 188.234 297.035 188.527 298.273 187.908C298.598 187.745 299.152 187.452 300.129 186.344C302.929 183.216 302.603 181.13 305.046 179.143C305.925 178.426 306.804 178.035 307.357 177.807C309.148 177.025 310.321 177.058 312.046 176.667C313.219 176.438 314.391 175.95 316.735 174.972C320.545 173.408 323.476 171.877 324.616 171.258C331.486 167.543 337.706 162.851 339.041 161.809C346.172 156.367 350.731 151.773 356.657 145.81C360.923 141.542 365.416 136.719 369.78 130.17C371.115 128.15 373.492 124.403 374.273 119.124C374.632 116.746 374.99 114.074 373.622 111.37C371.734 107.427 367.598 106.221 366.589 105.961Z" fill="#878787"/>
<path d="M365.612 105.668C359.457 107.59 354.768 113.162 350.926 118.049C346.563 123.621 342.623 129.486 338.389 135.123C333.863 141.151 329.174 147.048 324.062 152.588C319.21 157.801 313.902 162.949 307.357 165.947C303.548 167.674 299.347 168.651 295.179 168.293C292.802 168.097 289.774 167.511 288.308 169.922C287.983 170.443 288.829 170.965 289.155 170.411C290.034 168.944 291.858 168.977 293.356 169.107C294.919 169.205 296.449 169.401 298.012 169.335C301.105 169.173 304.166 168.39 307.032 167.185C313.121 164.611 318.201 160.18 322.759 155.455C332.593 145.289 340.669 133.689 349.005 122.318C351.349 119.125 353.759 115.997 356.527 113.162C359.197 110.425 362.225 107.786 365.97 106.613C366.458 106.417 366.198 105.472 365.612 105.668Z" fill="#161616"/>
<path d="M365.514 106.287C370.952 105.537 373.98 111.304 373.948 115.964C373.915 120.591 371.962 125.152 369.682 129.095C365.449 136.491 359.295 142.813 353.336 148.84C341.548 160.668 327.807 171.388 311.558 176.178C309.572 176.764 307.162 176.96 305.404 178.133C303.743 179.241 302.896 181.391 301.757 182.988C300.91 184.161 299.998 185.301 299.021 186.376C297.752 187.745 296.579 187.875 294.854 187.745C293.551 187.647 292.249 187.549 290.913 187.452C289.578 187.354 287.69 187.452 287.039 186.018C286.778 185.432 285.931 185.953 286.192 186.507C286.876 188.038 288.504 188.234 290.002 188.364C291.206 188.462 292.411 188.56 293.616 188.625C294.788 188.722 296.123 188.983 297.296 188.755C299.249 188.364 300.715 185.92 301.854 184.487C303.222 182.727 304.362 179.827 306.348 178.719C307.455 178.1 308.855 177.937 310.06 177.612C311.265 177.286 312.437 176.96 313.609 176.569C315.726 175.885 317.843 175.07 319.894 174.19C324.192 172.333 328.295 170.117 332.235 167.576C340.115 162.493 347.279 156.335 353.889 149.72C360.597 143.008 367.663 135.807 371.896 127.173C374.111 122.643 375.934 117.169 374.501 112.152C373.362 108.111 369.682 104.788 365.319 105.374C364.635 105.439 364.895 106.384 365.514 106.287Z" fill="#161616"/>
<path d="M287.234 174.972C287.527 172.985 292.574 173.18 293.909 173.05C295.733 172.887 297.361 172.496 298.794 171.29C299.282 170.867 298.566 170.183 298.11 170.606C296.026 172.366 293.16 172.007 290.62 172.333C289.285 172.529 286.55 173.017 286.322 174.679C286.192 175.331 287.136 175.591 287.234 174.972Z" fill="#161616"/>
<path d="M286.257 175.103C287.852 178.263 291.304 179.99 294.756 179.241C295.374 179.11 295.114 178.165 294.495 178.296C291.434 178.98 288.471 177.383 287.071 174.614C286.81 174.06 285.964 174.549 286.257 175.103Z" fill="#161616"/>
<path d="M286.713 176.015C286.062 177.709 286.811 179.599 288.243 180.642C289.871 181.847 291.988 181.717 293.877 181.391C294.495 181.293 294.235 180.348 293.616 180.446C292.151 180.707 290.49 180.837 289.122 180.055C287.787 179.306 287.104 177.709 287.625 176.276C287.885 175.689 286.941 175.428 286.713 176.015Z" fill="#161616"/>
<path d="M286.778 178.719C285.866 180.218 286.257 182.206 287.527 183.411C289.025 184.845 291.304 184.682 293.03 183.835C293.584 183.574 293.095 182.727 292.542 182.988C291.206 183.607 289.481 183.802 288.276 182.76C287.266 181.88 286.941 180.381 287.625 179.208C287.95 178.654 287.104 178.165 286.778 178.719Z" fill="#161616"/>
<path d="M287.201 186.148C286.55 185.106 287.429 183.802 288.667 184.259C289.253 184.487 289.513 183.542 288.927 183.314C286.908 182.564 285.313 184.91 286.387 186.637C286.68 187.159 287.527 186.67 287.201 186.148Z" fill="#161616"/>
<path d="M288.276 170.573C290.099 169.922 292.021 170.802 292.802 172.561C293.063 173.148 293.909 172.626 293.649 172.072C292.704 169.954 290.23 168.847 288.015 169.661C287.429 169.857 287.69 170.802 288.276 170.573Z" fill="#161616"/>
<path d="M287.918 169.987C286.615 170.932 286.648 173.18 288.113 173.962C288.667 174.256 289.155 173.408 288.601 173.115C287.82 172.692 287.625 171.356 288.406 170.834C288.927 170.443 288.439 169.596 287.918 169.987Z" fill="#161616"/>
<path d="M288.211 172.691C288.276 171.975 288.504 171.388 288.927 170.802C288.634 170.802 288.373 170.802 288.08 170.802C288.406 171.356 288.406 171.877 288.08 172.398C288.373 172.431 288.667 172.463 288.96 172.529C288.894 172.333 288.862 170.834 289.253 171.095C289.546 171.29 288.894 172.3 288.764 172.529C289.057 172.529 289.318 172.529 289.611 172.529C289.481 172.3 289.383 172.072 289.383 171.812C289.513 171.095 289.709 171.03 289.936 171.649C290.099 171.779 290.262 171.877 290.392 172.007C290.295 171.649 290.392 171.453 290.685 171.518C290.978 171.388 291.044 171.486 290.881 171.779C291.109 171.844 291.337 171.909 291.565 171.942C291.662 172.04 291.727 172.138 291.825 172.235C291.727 172.854 292.672 173.115 292.769 172.496C292.9 171.681 292.151 170.574 291.304 171.323C290.588 171.975 291.304 173.18 292.216 172.691C293.095 172.203 292.737 170.867 291.825 170.639C290.783 170.411 290.262 171.649 290.718 172.431C290.848 172.659 291.174 172.724 291.402 172.594C292.216 172.105 292.151 170.736 291.239 170.378C290.067 169.889 289.318 171.29 289.481 172.268C289.513 172.496 289.741 172.626 289.936 172.626C291.304 172.691 291.63 170.671 290.36 170.248C288.601 169.661 288.113 171.877 288.764 173.05C288.96 173.408 289.415 173.343 289.611 173.05C290.067 172.398 291.011 170.052 289.513 169.922C288.113 169.824 287.722 171.844 288.015 172.822C288.146 173.213 288.699 173.311 288.894 172.952C289.383 172.138 289.383 171.193 288.894 170.345C288.699 170.02 288.243 170.052 288.048 170.345C287.527 171.062 287.299 171.844 287.201 172.724C287.169 173.343 288.146 173.311 288.211 172.691Z" fill="#161616"/>
<path d="M287.397 173.767C289.057 174.06 293.095 174.386 293.518 171.975C293.616 171.355 292.672 171.095 292.574 171.714C292.281 173.376 288.797 173.017 287.657 172.822C287.039 172.724 286.778 173.669 287.397 173.767Z" fill="#161616"/>
<path d="M291.337 173.278C292.574 178.263 292.444 183.379 290.913 188.266C290.718 188.853 291.662 189.113 291.858 188.527C293.421 183.477 293.584 178.165 292.281 173.017C292.118 172.398 291.174 172.659 291.337 173.278Z" fill="#161616"/>
<path d="M291.141 173.343C291.369 175.82 291.5 178.263 291.565 180.74C291.63 183.118 291.793 185.562 291.011 187.843C290.816 188.429 291.76 188.69 291.955 188.103C292.704 185.92 292.607 183.64 292.574 181.359C292.509 178.687 292.379 176.015 292.151 173.343C292.053 172.724 291.076 172.724 291.141 173.343Z" fill="#161616"/>
<path d="M292.411 173.31C293.128 173.832 292.997 176.406 293.03 177.22C293.063 178.328 293.063 179.404 292.997 180.511C292.867 182.857 292.509 185.203 291.923 187.484C291.76 188.103 292.704 188.364 292.867 187.745C293.584 184.878 293.974 181.978 294.007 179.013C294.007 177.514 293.942 176.015 293.779 174.516C293.681 173.636 293.616 172.985 292.9 172.463C292.379 172.105 291.89 172.952 292.411 173.31Z" fill="#161616"/>
<path d="M292.183 173.05C292.607 175.689 292.737 178.328 292.542 180.968C292.509 181.587 293.486 181.587 293.518 180.968C293.714 178.231 293.584 175.494 293.128 172.789C293.03 172.17 292.086 172.431 292.183 173.05Z" fill="#161616"/>
<path d="M289.806 173.245C290.881 176.862 291.304 180.609 291.011 184.389C290.946 185.366 289.936 189.961 292.574 188.722C293.551 188.266 293.649 187.126 293.746 186.214C293.942 184.356 293.974 182.499 293.974 180.642C293.974 177.709 294.365 174.158 292.672 171.616C292.314 171.095 291.467 171.584 291.825 172.105C293.225 174.223 292.965 176.96 292.997 179.404C292.997 180.74 292.997 182.075 292.965 183.411C292.932 184.03 292.9 184.65 292.867 185.269C292.835 185.594 292.639 188.266 291.695 187.158C291.695 187.158 291.89 185.725 291.923 185.562C291.988 184.975 292.053 184.356 292.086 183.77C292.151 182.564 292.151 181.359 292.086 180.186C291.955 177.742 291.499 175.331 290.816 172.985C290.588 172.366 289.643 172.626 289.806 173.245Z" fill="#161616"/>
<path d="M291.011 173.115C291.207 174.679 291.369 176.243 291.565 177.774C291.63 178.393 292.607 178.393 292.542 177.774C292.346 176.21 292.183 174.646 291.988 173.115C291.89 172.496 290.913 172.496 291.011 173.115Z" fill="#161616"/>
<path d="M290.034 172.17C290.718 173.93 291.272 175.754 291.63 177.612C291.76 178.231 292.704 177.97 292.574 177.351C292.216 175.494 291.695 173.669 290.979 171.909C290.751 171.323 289.806 171.584 290.034 172.17Z" fill="#161616"/>
<path opacity="0.15" d="M372.45 109.447C371.213 109.447 370.887 116.029 369.129 121.633C367.598 126.488 364.993 130.464 353.922 141.281C338.552 156.27 330.607 163.861 317.517 170.443C311.981 173.213 307.13 175.005 303.743 176.145C302.669 177.09 299.119 179.958 293.942 179.958C291.402 179.958 289.35 179.273 288.081 178.687C287.853 178.817 287.136 179.241 286.811 180.121C286.452 181.065 286.713 182.173 287.429 182.988C287.169 183.216 286.452 183.998 286.485 185.041C286.518 186.246 287.462 186.996 287.755 187.256C288.862 188.169 290.751 188.201 294.398 188.201C295.342 188.201 296.71 188.201 298.37 188.201C298.989 187.55 299.901 186.539 300.91 185.204C303.32 181.945 303.58 180.316 305.339 178.85C307.358 177.188 309.702 177.123 310.711 176.96C319.406 175.461 330.184 168.293 336.208 164.285C345.814 157.899 351.284 151.871 362.193 139.88C362.193 139.88 367.989 133.494 372.483 123.719C373.166 122.253 374.632 118.831 374.208 114.53C373.98 112.478 373.297 109.48 372.45 109.447Z" fill="#6D6C6C"/>
<path d="M358.741 76.5707C359.001 84.4558 358.708 88.9197 360.043 96.4465C360.662 99.9655 361.411 102.8 361.965 104.69C358.611 105.765 352.977 107.069 346.074 106.319C341.548 105.83 337.868 104.625 335.231 103.517C336.436 101.236 337.901 97.8802 338.715 93.6443C339.431 89.9624 339.431 86.7692 339.269 84.3581C335.882 82.9896 332.496 81.5885 329.109 80.22C328.816 78.4931 328.556 76.7662 328.262 75.0718C327.318 74.7786 326.341 74.4853 325.397 74.1921C326.667 72.2697 328.653 69.2394 330.998 65.4597C335.394 58.324 335.654 57.2162 337.413 55.8151C342.167 51.9702 350.893 50.9927 355.42 54.9353C358.09 57.2813 358.35 63.7328 358.741 76.5707Z" fill="#878787" stroke="#161616" stroke-width="2" stroke-miterlimit="10"/>
<path d="M325.332 74.7459C327.123 75.2673 328.946 75.5931 330.802 75.7886C331.421 75.8538 331.421 74.8763 330.802 74.8111C329.044 74.6156 327.286 74.2898 325.592 73.801C324.974 73.6381 324.713 74.583 325.332 74.7459Z" fill="#161616"/>
<path d="M328.262 60.6375C329.467 60.3442 330.77 60.9959 331.226 62.1689C331.454 62.7554 332.398 62.4947 332.17 61.9082C331.519 60.2139 329.793 59.269 328.035 59.6926C327.383 59.8555 327.644 60.8004 328.262 60.6375Z" fill="#161616"/>
<path d="M335.589 63.7329C337.054 63.6677 338.389 64.5149 338.878 65.8834C339.073 66.4699 340.018 66.2092 339.822 65.6227C339.204 63.8307 337.51 62.6251 335.622 62.7228C334.97 62.788 334.97 63.7655 335.589 63.7329Z" fill="#161616"/>
<path d="M335.915 67.871C335.687 67.3823 335.784 66.9587 335.85 66.4374C335.947 66.307 335.947 66.2419 335.85 66.307C335.752 66.3396 335.752 66.4048 335.85 66.5025C335.882 66.7306 335.947 66.9587 335.98 67.1868C335.98 67.3497 335.915 67.6755 335.947 67.8059C336.012 67.871 336.077 67.9362 336.143 68.0014C336.143 67.9036 336.175 67.8059 336.175 67.7081C336.24 67.2194 336.305 66.7306 336.371 66.2093C336.436 65.7205 335.654 65.5576 335.459 65.9486C335.296 66.2745 335.231 66.5677 335.231 66.9261C335.263 67.5452 336.24 67.5452 336.208 66.9261C336.208 66.7306 336.208 66.6329 336.305 66.4374C336.012 66.3396 335.687 66.2745 335.394 66.1767C335.329 66.7632 335.166 67.3823 335.166 67.9688C335.166 68.3924 335.394 68.7508 335.817 68.816C336.892 68.9789 336.989 67.6104 336.924 66.861C336.826 66.1767 336.305 64.7105 335.361 65.4925C334.547 66.1441 334.742 67.5452 335.101 68.3598C335.329 68.9137 336.175 68.425 335.915 67.871Z" fill="#161616"/>
<path d="M335.589 57.4117C336.24 55.8803 337.543 53.4691 339.985 51.2209C340.832 50.4389 342.655 48.7771 345.097 47.9626C349.721 46.4311 355.745 48.2232 359.327 52.5568C362.844 56.7926 363.528 62.9183 361.151 68.1642C352.652 64.5801 344.12 60.9959 335.589 57.4117Z" fill="#3A3A3A"/>
<path d="M321.099 53.469C334.287 58.7801 347.474 64.0586 360.63 69.3697C362.388 70.0865 363.137 67.2518 361.411 66.535C348.223 61.2239 335.035 55.9454 321.88 50.6343C320.154 49.95 319.373 52.7848 321.099 53.469Z" fill="#161616"/>
<path d="M352.424 65.4924C349.786 65.7531 347.963 67.0238 345.814 68.5553C341.287 71.8136 341.906 73.6057 338.813 75.5607C333.896 78.6887 330.64 75.2348 326.179 78.3628C322.369 81.0347 321.555 85.7267 321.392 86.8345C321.229 87.8772 320.675 92.1456 323.313 95.8601C325.592 99.0859 329.402 100.682 329.793 100.194C329.923 100.031 329.728 99.4443 327.937 97.4241C328.458 98.0432 329.304 98.8578 330.542 99.4117C331.975 100.063 333.44 100.194 333.505 99.9656C333.57 99.8027 332.756 99.6072 332.3 98.7926C332.04 98.3039 332.007 97.8151 332.007 97.4241C332.984 98.4993 334.319 99.5746 335.85 99.542C340.05 99.3791 343.013 90.94 343.99 88.1378C347.149 79.0797 345.814 73.3124 349.917 70.9013C350.275 70.7058 351.903 69.7283 353.271 70.3799C355.029 71.1945 355.648 74.3551 354.573 76.082C353.629 77.5483 351.707 77.5157 351.74 77.8415C351.805 78.2651 355.061 78.4932 358.155 77.1247C359.295 76.6359 360.206 76.2123 360.923 75.2348C362.127 73.5079 361.867 71.0642 361.151 69.5002C359.588 66.1441 355.289 65.1992 352.424 65.4924Z" fill="#161616" stroke="#161616" stroke-width="2" stroke-miterlimit="10"/>
<path opacity="0.22" d="M352.88 78.3628C352.294 78.2651 351.447 78.0696 351.447 77.8741C351.447 77.7763 351.675 77.6786 351.675 77.6786C351.675 77.646 350.763 78.3628 349.851 78.2651C349.428 78.1999 349.102 77.9718 348.907 77.7763C349.623 81.3279 350.242 85.6289 350.275 90.5816C350.34 96.8701 349.526 102.246 348.614 106.384C350.568 106.613 353.368 106.678 356.592 105.993C358.611 105.57 360.337 104.918 361.672 104.299C359.718 98.3038 359.132 93.7421 358.969 90.7119C358.871 89.2782 358.774 85.9221 358.708 84.293C358.611 81.2953 358.513 78.819 358.48 77.1572C358.187 77.2876 357.732 77.5156 357.145 77.7437C356.364 78.0696 354.736 78.6561 352.88 78.3628Z" fill="#6D6C6C"/>
<path d="M350.47 47.6692C353.824 49.2984 355.745 52.8174 355.289 56.2712C354.736 60.3767 351.089 62.2991 350.731 62.4946C354.378 63.9609 358.025 65.3945 361.672 66.8608C361.965 66.0136 362.29 64.8406 362.453 63.3744C362.909 58.7475 361.02 55.2937 360.597 54.6094C359.946 53.5016 357.634 49.7545 353.075 48.2557C352.066 47.8647 351.154 47.7344 350.47 47.6692Z" fill="#282828"/>
</svg>
