<svg width="409" height="274" viewBox="0 0 409 274" fill="none" xmlns="http://www.w3.org/2000/svg">
<path d="M237.895 75.5254C237.895 75.5254 270.144 89.8762 284.183 121.941L244.654 123.922L237.895 75.5254Z" fill="#75C3E7"/>
<path opacity="0.44" d="M244.654 123.922L237.895 75.5254C237.895 75.5254 270.144 89.8762 284.183 121.941" fill="white"/>
<path opacity="0.3" d="M204.919 244.682C271.533 244.682 325.533 239.331 325.533 232.731C325.533 226.13 271.533 220.779 204.919 220.779C138.306 220.779 84.3051 226.13 84.3051 232.731C84.3051 239.331 138.306 244.682 204.919 244.682Z" fill="#E6E6E6"/>
<path d="M141.851 157.541H125.583V229.641H141.851V157.541Z" fill="#C1C1C1"/>
<path d="M282.793 157.541H266.525V229.641H282.793V157.541Z" fill="#C1C1C1"/>
<path d="M295.983 128.82H110.072C105.216 128.82 101.279 132.32 101.279 136.636V167.919C101.279 172.236 105.216 175.735 110.072 175.735H295.983C300.84 175.735 304.777 172.236 304.777 167.919V136.636C304.777 132.32 300.84 128.82 295.983 128.82Z" fill="#E6E6E6"/>
<path opacity="0.09" d="M153.242 175.736H267.762C267.762 175.736 259.173 166.384 261.075 155.005C262.977 143.626 277.506 133.62 277.506 133.62L251.106 127.912L207.741 132.402L167.69 130.075L153.242 175.736Z" fill="black"/>
<path d="M200.88 68.5273C200.88 68.5273 152.966 73.5351 157.261 98.6195C161.555 123.704 186.484 168.256 186.484 168.256L238.917 165.884C238.917 165.884 251.975 112.498 253.232 98.6286C254.49 84.7594 234.153 64.5556 200.88 68.5273Z" fill="#75C3E7"/>
<path d="M299.991 187.387H106.064C103.421 187.387 101.279 189.291 101.279 191.64V197.957C101.279 200.306 103.421 202.21 106.064 202.21H299.991C302.634 202.21 304.777 200.306 304.777 197.957V191.64C304.777 189.291 302.634 187.387 299.991 187.387Z" fill="#E6E6E6"/>
<path d="M212.7 47.5859L200.891 68.526L213.069 80.3684L217.537 56.2564L212.7 47.5859Z" fill="#F4A28C"/>
<path opacity="0.31" d="M217.015 60.0553C215.428 59.1857 214.163 57.9218 213.375 56.4199C213.375 56.4199 212.118 60.5643 215.727 66.0174L217.015 60.0553Z" fill="#CE8172"/>
<path d="M224.521 48.9226C224.521 48.9226 223.846 56.048 221.617 60.5105C221.17 61.3775 220.358 62.0539 219.356 62.3939C218.354 62.7339 217.242 62.7103 216.259 62.3282C213.743 61.3012 210.686 59.2563 210.523 55.3936L209.336 48.8408C209.258 47.5139 209.643 46.1978 210.439 45.0733C211.236 43.9488 212.404 43.0711 213.784 42.5606C218.815 40.4157 225.175 44.5964 224.521 48.9226Z" fill="#F4A28C"/>
<path d="M223.835 53.3848L225.523 56.4385C225.617 56.6121 225.66 56.8038 225.649 56.9961C225.639 57.1885 225.574 57.3754 225.461 57.5398C225.348 57.7043 225.191 57.841 225.003 57.9375C224.816 58.0341 224.604 58.0874 224.388 58.0926H221.259L223.835 53.3848Z" fill="#F4A28C"/>
<path d="M207.261 56.0386L207.567 46.3229C207.567 46.3229 202.005 43.8963 204.889 40.9607C207.772 38.0251 209.367 40.888 210.737 37.0072C212.107 33.1263 215.942 33.2718 217.752 36.0983C219.561 38.9248 219.388 35.5803 222.68 35.9802C225.972 36.3801 226.392 37.8615 225.748 40.0064C225.103 42.1513 230.42 41.0697 230.696 44.069C230.972 47.0682 230.287 49.7311 222.291 48.1225C214.296 46.5138 218.048 53.7483 207.261 56.0386Z" fill="#FFD200"/>
<path d="M214.929 53.6671C214.929 53.6671 215.39 50.9406 213.058 50.8042C210.727 50.6679 209.991 54.5942 213.058 55.4303L214.929 53.6671Z" fill="#F4A28C"/>
<path opacity="0.09" d="M179.612 87.4766C179.612 87.4766 194.224 98.3828 192.506 123.922C190.788 149.461 217.046 166.874 217.046 166.874L186.514 168.256C186.514 168.256 176.013 149.006 171.381 138.263C166.749 127.521 179.612 87.4766 179.612 87.4766Z" fill="black"/>
<path d="M277.588 135.118C287.21 132.737 287.956 120.577 278.611 117.441L278.365 117.369C270.267 114.787 235.666 120.504 235.666 120.504C235.666 120.504 220.666 117.778 221.351 123.322C222.036 128.866 228.631 131.365 237.271 126.739C237.22 126.739 258.345 139.872 277.588 135.118Z" fill="#F4A28C"/>
<path d="M241.991 119.985L237.471 119.623L236.652 127.712L241.172 128.073L241.991 119.985Z" fill="#24285B"/>
<path d="M152.107 111.279L136.637 182.524C136.637 182.524 126.32 182.315 126.892 187.386H147.526C147.526 187.386 179.899 128.311 179.612 109.688C179.326 91.0657 157.465 86.476 152.107 111.279Z" fill="#F4A28C"/>
<path d="M238.089 123.676C239.749 123.676 241.095 122.48 241.095 121.004C241.095 119.528 239.749 118.332 238.089 118.332C236.429 118.332 235.083 119.528 235.083 121.004C235.083 122.48 236.429 123.676 238.089 123.676Z" fill="white"/>
<path d="M156.923 89.5032C151.729 96.5196 145.88 107.817 144.367 124.203L176.749 132.383C176.749 132.383 186.708 109.662 183.559 94.2747C181.207 82.7867 164.121 79.7421 156.923 89.5032Z" fill="#75C3E7"/>
<path opacity="0.44" d="M156.923 89.5032C151.729 96.5196 145.88 107.817 144.367 124.203L176.749 132.383C176.749 132.383 186.708 109.662 183.559 94.2747C181.207 82.7867 164.121 79.7421 156.923 89.5032Z" fill="white"/>
<path d="M186.484 168.255L172.169 181.997C169.76 184.304 168.067 187.128 167.255 190.192C166.443 193.255 166.54 196.454 167.537 199.474L176.279 225.995L184.173 226.24L182.25 200.51C182.075 198.109 182.854 195.73 184.452 193.788C186.05 191.846 188.365 190.465 190.993 189.886L196.32 188.713C200.668 187.754 205.132 187.272 209.612 187.277C221.443 187.277 244.245 188.186 250.38 194.803C258.785 203.828 272.875 228.276 272.875 228.276L280.523 224.204C280.523 224.204 270.584 176.489 238.876 165.883L186.484 168.255Z" fill="#24285B"/>
<path d="M274.654 227.35L277.169 232.058L286.801 229.613C287.234 229.496 287.614 229.261 287.888 228.941C288.162 228.621 288.317 228.233 288.329 227.831C288.341 227.429 288.211 227.034 287.957 226.701C287.703 226.369 287.338 226.116 286.913 225.977C284.274 225.061 281.4 224.812 278.611 225.259L274.654 227.35Z" fill="#75C3E7"/>
<path d="M177.608 226.068C176.055 226.268 174.537 226.64 173.089 227.177C172.59 227.369 172.181 227.708 171.931 228.137C171.68 228.565 171.604 229.058 171.714 229.531C171.825 230.004 172.115 230.428 172.537 230.733C172.959 231.038 173.486 231.204 174.03 231.203H183.764L183.028 226.068H177.608Z" fill="#75C3E7"/>
<path d="M292.599 79.343C306.728 79.343 318.182 69.7685 318.182 57.9576C318.182 46.1468 306.728 36.5723 292.599 36.5723C278.47 36.5723 267.016 46.1468 267.016 57.9576C267.016 69.7685 278.47 79.343 292.599 79.343Z" fill="#24285B"/>
<path d="M278.519 62.2285L263.693 80.7783L284.674 68.6541L278.519 62.2285Z" fill="#24285B"/>
<path d="M293.089 68.5811C299.691 68.5811 305.042 63.8243 305.042 57.9566C305.042 52.0888 299.691 47.332 293.089 47.332C286.488 47.332 281.136 52.0888 281.136 57.9566C281.136 63.8243 286.488 68.5811 293.089 68.5811Z" fill="white"/>
<path d="M293.089 52.3848V58.7013L298.325 58.3287" stroke="#24285B" stroke-width="1.015" stroke-linecap="round" stroke-linejoin="round"/>
</svg>
