<svg id="figure_mint" xmlns="http://www.w3.org/2000/svg" xmlns:xlink="http://www.w3.org/1999/xlink" width="136" height="136" viewBox="0 0 136 136">
  <defs>
    <clipPath id="clip-path">
      <rect id="長方形_895" data-name="長方形 895" width="48.37" height="91.551" fill="#b9ccd5"/>
    </clipPath>
  </defs>
  <rect id="長方形_892" data-name="長方形 892" width="136" height="136" fill="none"/>
  <g id="グループ_2027" data-name="グループ 2027" transform="translate(-835.779 -3035.068)">
    <g id="グループ_2030" data-name="グループ 2030" transform="translate(847.425 3065.132)">
      <g id="グループ_2029" data-name="グループ 2029" clip-path="url(#clip-path)">
        <path id="パス_39878" data-name="パス 39878" d="M11.112,48.8a19.949,19.949,0,0,0,4.351,5.811c.14.129.286.236.425.36.025.021.045.046.068.067.129.115.265.212.394.323.319.267.635.541.962.786.383.29.78.552,1.178.809a19.907,19.907,0,0,0,1.753,1.018c.09.046.175.1.266.145.5.252,1.022.47,1.544.676.032.012.061.028.092.041v0a20.959,20.959,0,0,0,9.02,1.33c1.018-.065,1.6-.585,1.656-1.4.072-1.009-.732-1.617-2.023-1.531a17.715,17.715,0,0,1-9.112-1.841c-.176-.088-.354-.174-.527-.269-.142-.076-.282-.161-.421-.242-.236-.137-.472-.274-.7-.421-.062-.04-.122-.083-.184-.124a17.759,17.759,0,0,1-7.921-14.325c-.032-1.295-.711-2.039-1.711-1.874-.8.133-1.267.757-1.238,1.778A20.936,20.936,0,0,0,11.15,48.8Z" transform="translate(2.848 12.089)" fill="#b9ccd5"/>
        <path id="パス_39879" data-name="パス 39879" d="M48.349,85.5a5.882,5.882,0,0,0-5.807-5.752c-1.378-.026-2.757-.005-4.227-.005.436-2.491.863-4.876,1.27-7.264.915-5.391,2-10.76,2.683-16.18a27.735,27.735,0,0,0-3.626-17.213,4.545,4.545,0,0,1-.632-2.431c.038-1.448.026-2.906.02-4.39h.005a1.173,1.173,0,0,1,.283-.728,11.784,11.784,0,0,0,3.829-7.908c1.42,0,2.8.012,4.179,0a1.508,1.508,0,0,0,1.711-1.7q.026-2.077,0-4.153a7.352,7.352,0,0,0-5.344-7.057c-1.588-.472-3.2-.876-4.8-1.316q-3.047-.838-6.1-1.686c0-2,0-3.909,0-5.815C31.8.507,31.3,0,29.915,0Q27.454,0,24.994,0h0q-2.685,0-5.369,0c-1.392,0-1.891.5-1.9,1.884-.005,1.906,0,3.811,0,5.809-.365.1-.66.179-.956.254-3.693.922-7.391,1.83-11.079,2.771A7.331,7.331,0,0,0,.016,17.978C0,21.7.008,25.423.013,29.145c0,1.365.516,1.861,1.916,1.864,2.492.005,4.983,0,7.474,0,.3,0,.593.026.943.043,0,1.915-.034,3.758.014,5.6a4.556,4.556,0,0,1-.631,2.431A27.727,27.727,0,0,0,6.1,56.3c.681,5.42,1.768,10.789,2.683,16.18.407,2.388.834,4.773,1.27,7.264-1.47,0-2.849-.021-4.227.005A5.882,5.882,0,0,0,.021,85.5C-.013,86.945,0,88.391.016,89.836c.011,1.154.549,1.714,1.693,1.714q10.835.006,21.669,0h1.617q10.833,0,21.667,0c1.143,0,1.682-.56,1.693-1.714.014-1.445.029-2.891-.005-4.336M9.169,57.464A25.928,25.928,0,0,1,11.559,41.94c.047-.1.112-.192.221-.375A34.005,34.005,0,0,0,13.8,44.494a19.965,19.965,0,0,0,3.489,4.249,20.754,20.754,0,0,0,7.687,4.722l.017.008v0a19.74,19.74,0,0,0,8,.826c1.017-.088,1.6-.585,1.656-1.4.072-1.01-.731-1.617-2.023-1.531-6.615.447-12.8-3.488-16.989-9.314a25.661,25.661,0,0,1-1.963-3.289,3.525,3.525,0,0,1-.357-1.482c-.037-2.43.025-4.86-.046-7.288a2.968,2.968,0,0,0-.643-1.725A8.937,8.937,0,0,1,10.345,22.2c.005-.952.017-1.907-.005-2.86a1.476,1.476,0,1,0-2.94-.012c-.04,2.948-.207,5.919,1.479,8.68H2.964V22.277c0-1.353,0-2.705,0-4.059a4.441,4.441,0,0,1,3.613-4.681Q12.647,12,18.729,10.514c1.716-.423,1.951-.7,1.952-2.442V3.024h8.168V8.141c0,1.623.2,1.9,1.748,2.325,3.641,1,7.284,1.99,10.923,2.993a4.442,4.442,0,0,1,3.568,4.715c0,.794,0,1.588,0,2.5-1.341,0-2.62,0-3.9,0-1.525,0-2.017.466-2,1.96a8.65,8.65,0,0,1-3.3,7.093,2.242,2.242,0,0,0-.742,1.382c-.033.385-.047.771-.072,1.155,0,.929-.011,1.857-.013,2.786l.008,0a22.059,22.059,0,0,0,.888,4.891c.586,1.205,1.466,3.379,1.466,3.379l0,.026A25.668,25.668,0,0,1,39.2,57.464c-.873,5.523-1.9,11.021-2.87,16.528-.333,1.9-.685,3.8-1.027,5.7H13.065c-.342-1.9-.693-3.8-1.027-5.7-.967-5.507-2-11-2.869-16.528m36.2,31.1H3a31.194,31.194,0,0,1,.025-3.408A2.884,2.884,0,0,1,6.108,82.7c3.688-.009,7.376,0,11.065,0q3.1,0,6.2.005h1.617q3.1,0,6.2-.005c3.689,0,7.377-.007,11.065,0a2.887,2.887,0,0,1,3.085,2.462,31.534,31.534,0,0,1,.024,3.408" fill="#b9ccd5"/>
      </g>
    </g>
  </g>
  <g id="グループ_2031" data-name="グループ 2031" transform="matrix(0.899, 0.438, -0.438, 0.899, 577.557, -3195.15)">
    <path id="パス_39880" data-name="パス 39880" d="M6.569,49.336a2.72,2.72,0,0,1-1.655-1.225.467.467,0,0,0-.393-.12c-.585.093-1.164.228-1.749.327a1.473,1.473,0,0,1-1.736-1.644.708.708,0,0,1,.021-.143,1.677,1.677,0,0,0-.5-1.988A2.36,2.36,0,0,1,.749,41.31c.563-.568,1.2-1.062,1.811-1.583A1.3,1.3,0,0,0,3.1,38.556a.785.785,0,0,0-.721-.776.756.756,0,0,0-.851.618c-.033.107-.043.22-.069.329a.7.7,0,0,1-.788.608.7.7,0,0,1-.634-.772A2.222,2.222,0,0,1,1.227,36.6a.57.57,0,0,0,.344-.595q-.012-11.342,0-22.685a.571.571,0,0,0-.355-.588A2.23,2.23,0,0,1,.035,10.866a.724.724,0,0,1,.6-.852c.437-.067.7.173.845.658a1.617,1.617,0,0,0,.46.79.765.765,0,0,0,1.151-.588,1.236,1.236,0,0,0-.463-1.2c-.513-.438-1.041-.857-1.547-1.3A2.6,2.6,0,0,1,.316,5.131a2.791,2.791,0,0,1,.714-.82.492.492,0,0,0,.214-.567c-.076-.311-.14-.627-.186-.943A1.469,1.469,0,0,1,2.834,1.039c.647.108,1.29.245,1.98.378A2.4,2.4,0,0,1,6.226.141,2.519,2.519,0,0,1,8.854.756C9.415,1.3,9.891,1.935,10.4,2.533a1.365,1.365,0,0,0,1.073.554.847.847,0,0,0,.882-.721.807.807,0,0,0-.7-.889c-.078-.018-.16-.019-.238-.037a.694.694,0,0,1-.613-.828.688.688,0,0,1,.8-.595,2.223,2.223,0,0,1,1.943,1.22.525.525,0,0,0,.557.318q5.948-.009,11.9,0a.521.521,0,0,0,.558-.317,2.227,2.227,0,0,1,1.8-1.214c.52-.069.885.168.948.588.067.446-.178.737-.71.842-.65.128-.976.548-.819,1.056A.924.924,0,0,0,29.059,3a2.071,2.071,0,0,0,.679-.508c.422-.462.8-.965,1.21-1.436A2.625,2.625,0,0,1,34.277.329a8.574,8.574,0,0,1,1.159,1.062c.513-.1,1.153-.233,1.8-.342a1.478,1.478,0,0,1,1.819,1.8.564.564,0,0,1-.013.1,1.477,1.477,0,0,0,.452,1.775,2.36,2.36,0,0,1-.118,3.306c-.561.57-1.2,1.062-1.81,1.584a1.345,1.345,0,0,0-.551,1.121.846.846,0,0,0,.716.839.8.8,0,0,0,.876-.656c.013-.046.023-.094.033-.141q.191-.9.894-.751c.418.091.625.491.529,1.035a2.234,2.234,0,0,1-1.2,1.7.522.522,0,0,0-.312.563q.009,4.648,0,9.3,0,6.671-.007,13.341a.641.641,0,0,0,.385.669,2.2,2.2,0,0,1,1.151,1.837.729.729,0,0,1-.583.862c-.435.073-.733-.161-.846-.647-.043-.185-.061-.432-.185-.53a1.427,1.427,0,0,0-.773-.349c-.367-.005-.593.3-.66.659a1.221,1.221,0,0,0,.454,1.2c.511.44,1.04.859,1.546,1.3A2.594,2.594,0,0,1,39.8,44.2a2.361,2.361,0,0,1-.671.794.554.554,0,0,0-.241.686,6.886,6.886,0,0,1,.188,1.04,1.467,1.467,0,0,1-1.69,1.6c-.6-.1-1.2-.24-1.8-.336a.466.466,0,0,0-.392.121,2.727,2.727,0,0,1-1.656,1.224h-.867a3.785,3.785,0,0,1-2.169-1.564,6.956,6.956,0,0,0-.871-1.024,2.06,2.06,0,0,0-.9-.474.815.815,0,0,0-.976.7.793.793,0,0,0,.74.9c.371.063.7.16.8.568.112.436-.143.691-.475.9H28.15a2.669,2.669,0,0,1-1.686-1.384c-.039-.087-.23-.151-.351-.152q-6.056-.012-12.112,0c-.121,0-.312.065-.351.152a2.669,2.669,0,0,1-1.686,1.384H11.29c-.33-.209-.587-.463-.475-.9.105-.409.426-.529.8-.563a.464.464,0,0,0,.094-.021.791.791,0,0,0,.649-.833.824.824,0,0,0-.791-.76,1.266,1.266,0,0,0-1.1.478c-.3.338-.591.677-.861,1.034a3.784,3.784,0,0,1-2.168,1.564ZM37.663,2.427c-.681.137-1.259.269-1.843.363a.7.7,0,0,0-.606.446,2.279,2.279,0,0,1-2.089,1.3.69.69,0,0,1-.708-.655.674.674,0,0,1,.542-.749c.091-.027.19-.031.284-.051a.834.834,0,0,0,.745-.9.823.823,0,0,0-.986-.7,2.149,2.149,0,0,0-.967.55c-.542.545-.981,1.192-1.526,1.732a2.482,2.482,0,0,1-4.008-.53.553.553,0,0,0-.4-.228q-6.045-.018-12.09,0a.55.55,0,0,0-.4.229A2.485,2.485,0,0,1,9.6,3.763c-.533-.53-.978-1.148-1.491-1.7a2.125,2.125,0,0,0-.722-.527.886.886,0,0,0-1.24.547c-.137.489.18.881.815,1.007.526.1.8.422.731.835a.763.763,0,0,1-.948.6A2.337,2.337,0,0,1,4.864,3.2c-.067-.13-.173-.307-.291-.335C3.9,2.7,3.209,2.581,2.46,2.432c.062.341.127.6.155.87a.832.832,0,0,0,.6.794A2.135,2.135,0,0,1,4.531,6.2a.891.891,0,0,1-.419.621.886.886,0,0,1-.737-.115c-.162-.113-.218-.408-.275-.634a.851.851,0,0,0-.913-.737A.849.849,0,0,0,1.5,6.378a2.2,2.2,0,0,0,.554.918c.573.56,1.245,1.019,1.8,1.6a2.454,2.454,0,0,1-.5,3.85.606.606,0,0,0-.354.636q.012,6,.005,11.993c0,3.532,0,7.064.01,10.6a.71.71,0,0,0,.225.543,2.507,2.507,0,0,1,.545,4.014c-.525.516-1.118.963-1.668,1.455a2.413,2.413,0,0,0-.5.576.925.925,0,0,0,.082,1.162.991.991,0,0,0,.716.265c.461-.048.653-.413.69-.856a.325.325,0,0,1,.009-.047.717.717,0,1,1,1.426.16,2.323,2.323,0,0,1-1.462,2.083c-.126.052-.318.114-.344.208-.119.436-.189.885-.288,1.385.683-.137,1.261-.269,1.845-.363a.72.72,0,0,0,.6-.449,2.207,2.207,0,0,1,2.042-1.29.694.694,0,0,1,.755.656.7.7,0,0,1-.6.758c-.078.019-.159.021-.238.037a.81.81,0,1,0,.252,1.6,2.159,2.159,0,0,0,.965-.555c.564-.568,1.023-1.241,1.6-1.8a2.486,2.486,0,0,1,3.919.559.591.591,0,0,0,.42.266q6.045.022,12.09,0a.551.551,0,0,0,.4-.233,2.48,2.48,0,0,1,3.975-.554c.548.537,1,1.168,1.524,1.734a2.057,2.057,0,0,0,.678.51.9.9,0,0,0,1.282-.541c.133-.491-.182-.875-.821-1-.522-.1-.8-.424-.723-.84a.762.762,0,0,1,.951-.592,2.352,2.352,0,0,1,1.884,1.327c.068.13.173.3.291.332.677.161,1.363.283,2.109.431-.063-.346-.13-.609-.155-.875a.826.826,0,0,0-.6-.791,2.132,2.132,0,0,1-1.313-2.106.7.7,0,0,1,1.159-.5c.161.114.215.41.272.636a.849.849,0,0,0,.916.732.834.834,0,0,0,.685-1,2.218,2.218,0,0,0-.561-.963c-.569-.563-1.243-1.022-1.8-1.6a2.45,2.45,0,0,1,.458-3.822.678.678,0,0,0,.393-.711Q37.1,29.389,37.1,22.863c0-3.163,0-6.326-.01-9.489a.707.707,0,0,0-.227-.542,2.508,2.508,0,0,1-.541-4.015c.5-.493,1.07-.92,1.595-1.392a2.891,2.891,0,0,0,.571-.639.9.9,0,0,0-.058-1.121,1.048,1.048,0,0,0-.743-.3c-.461.04-.652.412-.689.855a.344.344,0,0,1-.009.047.717.717,0,1,1-1.426-.16,2.334,2.334,0,0,1,1.461-2.086c.143-.061.329-.172.367-.3.117-.393.173-.8.269-1.294" transform="translate(978.946 3147.925)" fill="#b9ccd5"/>
    <path id="パス_39885" data-name="パス 39885" d="M22.267,53.576c1.14,0,2.279-.009,3.418,0,.625.007,1.031.566.713,1.019a1.155,1.155,0,0,1-.8.4c-.977.048-1.958.019-2.937.019-.418,0-.836.023-1.252-.006a1.314,1.314,0,0,0-1.227.465.713.713,0,1,1-1.01-.985,1.428,1.428,0,0,0,.478-1.272c-.024-1.316-.009-2.633-.007-3.95a2.7,2.7,0,0,1,.018-.432.7.7,0,0,1,.751-.657.685.685,0,0,1,.668.735c.015,1.011.007,2.023.008,3.035,0,.153,0,.307,0,.579.58-.574,1.086-1.055,1.562-1.564.088-.094.079-.3.079-.455q0-13.224-.008-26.447a1.063,1.063,0,0,0-.251-.624c-.391-.463-.823-.891-1.239-1.333l-.143.067v1.554c0,.61.006,1.221,0,1.831-.007.548-.257.849-.7.859-.457.011-.74-.3-.744-.871-.01-1.461-.017-2.923,0-4.384a1.23,1.23,0,0,0-.388-.971,1.149,1.149,0,0,1-.336-.783.659.659,0,0,1,1.159-.366,1.756,1.756,0,0,0,1.586.541c1.284-.015,2.569-.011,3.853,0a1.441,1.441,0,0,1,.643.144.625.625,0,0,1,.282.794.7.7,0,0,1-.741.5h-3.6c.592.588,1.09,1.1,1.607,1.583.075.07.243.057.368.057q8.647,0,17.294,0a.769.769,0,0,0,.476-.148c.49-.437.953-.9,1.426-1.358l-.044-.131H42.55c-.9,0-1.8,0-2.7,0-.565,0-.881-.277-.873-.732.008-.435.315-.7.858-.708,1.445-.009,2.89-.019,4.335.006a1.254,1.254,0,0,0,1.056-.416,1.013,1.013,0,0,1,.7-.321.747.747,0,0,1,.558.423.886.886,0,0,1-.154.771,1.648,1.648,0,0,0-.52,1.5c.02,1.268.007,2.537.006,3.805a2.517,2.517,0,0,1-.022.432.686.686,0,0,1-.77.63.664.664,0,0,1-.644-.707c-.013-.963-.007-1.927-.009-2.89,0-.206,0-.413,0-.773-.588.592-1.1,1.085-1.578,1.607-.087.094-.063.3-.063.461q0,13.2.009,26.4a1.128,1.128,0,0,0,.269.664c.388.458.823.877,1.24,1.311l.123-.072q0-1.121,0-2.241c0-.434-.011-.868.01-1.3a.656.656,0,0,1,.664-.685.664.664,0,0,1,.742.6,2.47,2.47,0,0,1,.028.479c0,1.4.014,2.794-.008,4.191a.993.993,0,0,0,.384.919,1.007,1.007,0,0,1,.2.21.7.7,0,0,1-.017.964.632.632,0,0,1-.983.023,1.8,1.8,0,0,0-1.674-.561c-1.22.018-2.441.006-3.661,0a3,3,0,0,1-.385-.009.7.7,0,0,1-.686-.771.677.677,0,0,1,.743-.659c.851-.01,1.7,0,2.553,0h1.074c-.6-.593-1.1-1.108-1.63-1.6-.083-.077-.278-.043-.421-.043q-8.574,0-17.149.011a1.223,1.223,0,0,0-.7.3c-.452.373-.865.794-1.293,1.2l.1.135m1.941-3.125h17.04V24.144H24.208Z" transform="translate(966.271 3135.294)" fill="#b9ccd5"/>
    <path id="パス_39886" data-name="パス 39886" d="M22.66,56.274q0,4.042,0,8.084a3.819,3.819,0,0,1-.018.528.653.653,0,0,1-.646.6.644.644,0,0,1-.72-.506,2.025,2.025,0,0,1-.059-.522q0-8.18,0-16.36a2.093,2.093,0,0,1,.05-.475.648.648,0,0,1,.7-.537.659.659,0,0,1,.678.621,3.716,3.716,0,0,1,.016.48q0,4.042,0,8.084" transform="translate(964.701 3116.308)" fill="#b9ccd5"/>
    <path id="パス_39887" data-name="パス 39887" d="M96.484,56.294q0-4.042,0-8.084a4.335,4.335,0,0,1,.013-.48.7.7,0,0,1,1.39-.075,2.2,2.2,0,0,1,.04.477q0,8.155,0,16.311c0,.19.028.438-.076.558a1.312,1.312,0,0,1-.688.472.6.6,0,0,1-.658-.568,3.244,3.244,0,0,1-.021-.528q0-4.042,0-8.084" transform="translate(914.161 3116.306)" fill="#b9ccd5"/>
    <path id="パス_39888" data-name="パス 39888" d="M51.7,22.6c-1.234,0-2.468.006-3.7,0-.574,0-.892-.324-.833-.807.049-.4.347-.63.876-.633,1.234-.007,2.468,0,3.7,0,1.2,0,2.4-.016,3.606.013a1.192,1.192,0,0,1,.764.288.72.72,0,0,1,.1.689,1.043,1.043,0,0,1-.713.435c-1.265.043-2.532.02-3.8.02" transform="translate(947.28 3133.725)" fill="#b9ccd5"/>
    <path id="パス_39889" data-name="パス 39889" d="M51.708,124.625c1.218,0,2.436,0,3.655,0,.578,0,.9.252.911.7.014.46-.323.745-.918.746q-3.655.007-7.309,0c-.57,0-.9-.269-.914-.706-.012-.461.322-.735.921-.736,1.218,0,2.436,0,3.655,0" transform="translate(947.299 3064.245)" fill="#b9ccd5"/>
  </g>
  <g id="グループ_2032" data-name="グループ 2032" transform="translate(61.465 12)">
    <g id="グループ_2024" data-name="グループ 2024" transform="translate(22.149) rotate(45)">
      <path id="合体_65" data-name="合体 65" d="M0,19.347v-7.37C0,5.373,9.919,0,22.111,0S44.223,5.373,44.223,11.977v7.37c0,6.6-9.919,11.977-22.111,11.977S0,25.95,0,19.347ZM7.353,5.128C3.8,7.053,1.843,9.486,1.843,11.977S3.8,16.9,7.353,18.826a31.641,31.641,0,0,0,14.758,3.285A31.647,31.647,0,0,0,36.87,18.826c3.554-1.925,5.511-4.358,5.511-6.849S40.423,7.053,36.87,5.128A31.658,31.658,0,0,0,22.111,1.842,31.653,31.653,0,0,0,7.353,5.128ZM15.43,16.469l3.879-2.325,3.429,1.068,3.877-2.327L26.1,10.075l3.877-2.327,1.215,6.564-7.758,4.652ZM12.9,8.612,20.654,3.96l8,2.493L24.777,8.78,21.347,7.712,17.47,10.037l.521,2.813-3.877,2.327Zm7.43,3.882a1.881,1.881,0,0,1-.153-.169,1.407,1.407,0,0,1,.521-2.139,2.6,2.6,0,0,1,3.006.284,1.4,1.4,0,0,1-.368,2.308,2.57,2.57,0,0,1-1.318.349A2.418,2.418,0,0,1,20.327,12.494Zm1.026-1.662a.7.7,0,0,0-.186,1.154,1.3,1.3,0,0,0,1.5.139.7.7,0,0,0,.26-1.066c-.023-.028-.048-.056-.076-.085a1.21,1.21,0,0,0-.844-.316A1.289,1.289,0,0,0,21.354,10.833Z" transform="translate(0 0)" fill="#0ab4af"/>
    </g>
    <g id="グループ_2025" data-name="グループ 2025" transform="translate(31.59 51.337) rotate(-14)">
      <path id="合体_65-2" data-name="合体 65" d="M0,13.008V8.053C0,3.613,6.669,0,14.867,0S29.733,3.613,29.733,8.053v4.955c0,4.44-6.669,8.053-14.867,8.053S0,17.448,0,13.008Zm4.944-9.56C2.555,4.742,1.239,6.378,1.239,8.053s1.316,3.31,3.705,4.605a21.274,21.274,0,0,0,9.922,2.209,21.277,21.277,0,0,0,9.922-2.209c2.389-1.295,3.705-2.93,3.705-4.605s-1.316-3.31-3.705-4.605a21.284,21.284,0,0,0-9.922-2.209A21.281,21.281,0,0,0,4.944,3.448Zm5.43,7.626L12.982,9.51l2.306.718,2.607-1.564-.349-1.89,2.607-1.564.817,4.413L15.754,12.75ZM8.671,5.79l5.215-3.128,5.379,1.676L16.658,5.9l-2.306-.718L11.746,6.748l.35,1.891L9.489,10.2Zm5,2.61a1.235,1.235,0,0,1-.1-.114.946.946,0,0,1,.35-1.438,1.748,1.748,0,0,1,2.021.191.945.945,0,0,1-.248,1.552,1.728,1.728,0,0,1-.886.235A1.626,1.626,0,0,1,13.667,8.4Zm.69-1.117a.473.473,0,0,0-.125.776.876.876,0,0,0,1.012.094.471.471,0,0,0,.175-.717c-.016-.019-.032-.038-.051-.057a.813.813,0,0,0-.568-.213A.867.867,0,0,0,14.357,7.283Z" transform="translate(0 0)" fill="#0ab4af"/>
    </g>
  </g>
</svg>
