<svg id="figure_collaboration" xmlns="http://www.w3.org/2000/svg" xmlns:xlink="http://www.w3.org/1999/xlink" width="136" height="136" viewBox="0 0 136 136">
  <defs>
    <clipPath id="clip-path">
      <rect id="長方形_894" data-name="長方形 894" width="136" height="136" transform="translate(7.264 5.516)" fill="none"/>
    </clipPath>
  </defs>
  <rect id="長方形_884" data-name="長方形 884" width="136" height="136" transform="translate(0)" fill="none"/>
  <g id="マスクグループ_1088" data-name="マスクグループ 1088" transform="translate(-7.264 -5.516)" clip-path="url(#clip-path)">
    <g id="グループ_2028" data-name="グループ 2028" transform="translate(0)">
      <g id="グループ_2001" data-name="グループ 2001" transform="translate(-442.736 -3029.484)">
        <g id="グループ_1980" data-name="グループ 1980" transform="translate(552.997 3061)">
          <circle id="楕円形_65" data-name="楕円形 65" cx="5.196" cy="5.196" r="5.196" transform="translate(2.309)" fill="#b9ccd5"/>
          <path id="長方形_461" data-name="長方形 461" d="M7.505,0h0a7.505,7.505,0,0,1,7.505,7.505v8.66a0,0,0,0,1,0,0H0a0,0,0,0,1,0,0V7.505A7.505,7.505,0,0,1,7.505,0Z" transform="translate(0 11.547)" fill="#b9ccd5"/>
        </g>
        <g id="グループ_1980-2" data-name="グループ 1980" transform="translate(474.553 3052.149)">
          <circle id="楕円形_65-2" data-name="楕円形 65" cx="6.027" cy="6.027" r="6.027" transform="translate(2.679)" fill="#b9ccd5"/>
          <path id="長方形_461-2" data-name="長方形 461" d="M8.706,0h0a8.706,8.706,0,0,1,8.706,8.706V18.752a0,0,0,0,1,0,0H0a0,0,0,0,1,0,0V8.706A8.706,8.706,0,0,1,8.706,0Z" transform="translate(0 13.394)" fill="#b9ccd5"/>
        </g>
        <g id="グループ_1980-3" data-name="グループ 1980" transform="translate(516.04 3101)">
          <circle id="楕円形_65-3" data-name="楕円形 65" cx="3.741" cy="3.741" r="3.741" transform="translate(1.663)" fill="#b9ccd5"/>
          <path id="長方形_461-3" data-name="長方形 461" d="M5.4,0h0a5.4,5.4,0,0,1,5.4,5.4v6.235a0,0,0,0,1,0,0H0a0,0,0,0,1,0,0V5.4A5.4,5.4,0,0,1,5.4,0Z" transform="translate(0 8.314)" fill="#b9ccd5"/>
        </g>
        <g id="グループ_1980-4" data-name="グループ 1980" transform="translate(473.042 3130.66)">
          <circle id="楕円形_65-4" data-name="楕円形 65" cx="5.196" cy="5.196" r="5.196" transform="translate(2.309)" fill="#b9ccd5"/>
          <path id="長方形_461-4" data-name="長方形 461" d="M7.505,0h0a7.505,7.505,0,0,1,7.505,7.505v8.66a0,0,0,0,1,0,0H0a0,0,0,0,1,0,0V7.505A7.505,7.505,0,0,1,7.505,0Z" transform="translate(0 11.547)" fill="#b9ccd5"/>
        </g>
        <g id="グループ_1980-5" data-name="グループ 1980" transform="translate(549.32 3134.985)">
          <circle id="楕円形_65-5" data-name="楕円形 65" cx="4.572" cy="4.572" r="4.572" transform="translate(2.032)" fill="#b9ccd5"/>
          <path id="長方形_461-5" data-name="長方形 461" d="M6.6,0h0a6.6,6.6,0,0,1,6.6,6.6v7.621a0,0,0,0,1,0,0H0a0,0,0,0,1,0,0V6.6A6.6,6.6,0,0,1,6.6,0Z" transform="translate(0 10.161)" fill="#b9ccd5"/>
        </g>
        <path id="パス_39850" data-name="パス 39850" d="M6942.32,4228.126l-9.951-9.058" transform="translate(-6394 -1101)" fill="none" stroke="#0ab4af" stroke-width="2"/>
        <path id="パス_39851" data-name="パス 39851" d="M6963.3,4199.4l-8.729,27.972" transform="translate(-6394 -1101)" fill="none" stroke="#0ab4af" stroke-width="2"/>
        <path id="パス_39852" data-name="パス 39852" d="M6875.62,4198.306v22" transform="translate(-6394 -1101)" fill="none" stroke="#0ab4af" stroke-width="2"/>
        <path id="パス_39853" data-name="パス 39853" d="M6898.96,4241.722l32.667-4.971" transform="translate(-6394 -1101)" fill="none" stroke="#0ab4af" stroke-width="2"/>
        <path id="パス_39854" data-name="パス 39854" d="M6931.814,4187.471l-7.435,8.665" transform="translate(-6394 -1101)" fill="none" stroke="#0ab4af" stroke-width="2"/>
        <path id="パス_39855" data-name="パス 39855" d="M6902.777,4199.4l-9.752-6.06" transform="translate(-6394 -1101)" fill="none" stroke="#0ab4af" stroke-width="2"/>
        <g id="グループ_2033" data-name="グループ 2033" transform="translate(0 2)">
          <g id="グループ_1999" data-name="グループ 1999" transform="translate(-2632.452 2979.554) rotate(-77)">
            <g id="楕円形_152" data-name="楕円形 152" transform="translate(536 3124.945)" fill="none" stroke="#ccc" stroke-width="2">
              <circle cx="19.36" cy="19.36" r="19.36" stroke="none"/>
              <circle cx="19.36" cy="19.36" r="18.36" fill="none"/>
            </g>
            <path id="パス_39849" data-name="パス 39849" d="M0,44.5a22,22,0,0,0,22-22A22,22,0,0,0,0,.5" transform="translate(555.36 3122)" fill="none" stroke="#ccc" stroke-width="2"/>
          </g>
        </g>
        <g id="グループ_2034" data-name="グループ 2034" transform="translate(3500.738 4128.291) rotate(120)">
          <g id="楕円形_152-2" data-name="楕円形 152" transform="translate(536 3051)" fill="none" stroke="#ccc" stroke-width="2">
            <circle cx="22" cy="22" r="22" stroke="none"/>
            <circle cx="22" cy="22" r="21" fill="none"/>
          </g>
          <path id="パス_39849-2" data-name="パス 39849" d="M0,50.5a25,25,0,0,0,25-25A25,25,0,0,0,0,.5" transform="translate(558 3047.722)" fill="none" stroke="#ccc" stroke-width="2"/>
        </g>
        <g id="グループ_2035" data-name="グループ 2035" transform="matrix(-0.766, 0.643, -0.643, -0.766, 2825.315, 5109.748)">
          <g id="楕円形_152-3" data-name="楕円形 152" transform="translate(456 3043.444)" fill="none" stroke="#ccc" stroke-width="2">
            <circle cx="25.52" cy="25.52" r="25.52" stroke="none"/>
            <circle cx="25.52" cy="25.52" r="24.52" fill="none"/>
          </g>
          <path id="パス_39849-3" data-name="パス 39849" d="M0,58.5a29,29,0,0,0,29-29A29,29,0,0,0,0,.5" transform="translate(481.52 3039.722)" fill="none" stroke="#ccc" stroke-width="2"/>
        </g>
        <g id="グループ_2036" data-name="グループ 2036" transform="translate(-2387.719 1788.705) rotate(-56)">
          <g id="楕円形_152-4" data-name="楕円形 152" transform="translate(457.76 3113.778)" fill="none" stroke="#ccc" stroke-width="2">
            <circle cx="22" cy="22" r="22" stroke="none"/>
            <circle cx="22" cy="22" r="21" fill="none"/>
          </g>
          <path id="パス_39849-4" data-name="パス 39849" d="M0,50.5a25,25,0,0,0,25-25A25,25,0,0,0,0,.5" transform="translate(479.76 3110.5)" fill="none" stroke="#ccc" stroke-width="2"/>
        </g>
        <g id="グループ_2037" data-name="グループ 2037" transform="matrix(0.53, -0.848, 0.848, 0.53, -2389.984, 1906.355)">
          <g id="楕円形_152-5" data-name="楕円形 152" transform="translate(504.96 3092)" fill="none" stroke="#ccc" stroke-width="2">
            <circle cx="15.75" cy="15.75" r="15.75" stroke="none"/>
            <circle cx="15.75" cy="15.75" r="14.75" fill="none"/>
          </g>
          <path id="パス_39849-5" data-name="パス 39849" d="M0,36.5a18,18,0,0,0,18-18A18,18,0,0,0,0,.5" transform="translate(520.8 3089)" fill="none" stroke="#ccc" stroke-width="2"/>
        </g>
      </g>
    </g>
  </g>
</svg>
