<svg width="298" height="224" viewBox="0 0 298 224" fill="none" xmlns="http://www.w3.org/2000/svg">
<path d="M124.386 79.4395C124.386 79.4395 95.9854 82.751 85.8503 90.5101C75.7152 98.2693 77.6828 110.157 110.702 103.912C143.721 97.6678 124.386 79.4395 124.386 79.4395Z" fill="#B88BFF"/>
<path opacity="0.08" d="M124.386 79.4395C124.386 79.4395 95.9854 82.751 85.8503 90.5101C75.7152 98.2693 77.6828 110.157 110.702 103.912C143.721 97.6678 124.386 79.4395 124.386 79.4395Z" fill="black"/>
<path d="M113.145 59.9487C114.136 59.8276 115.099 59.5336 115.989 59.0799C117.474 58.3374 120.667 57.5949 120.6 60.7134C120.555 62.6959 117.474 60.3496 117.266 63.0152C117.058 65.6807 117.437 69.0517 111.935 68.2127C106.915 67.4108 108.311 60.5649 113.145 59.9487Z" fill="#F4A28C"/>
<path d="M201.576 76.5951C222.588 76.5951 239.622 62.0447 239.622 44.0959C239.622 26.1471 222.588 11.5967 201.576 11.5967C180.564 11.5967 163.53 26.1471 163.53 44.0959C163.53 62.0447 180.564 76.5951 201.576 76.5951Z" fill="#24285B"/>
<path opacity="0.45" d="M145.532 207.61C189.98 207.61 226.012 202.494 226.012 196.183C226.012 189.872 189.98 184.756 145.532 184.756C101.085 184.756 65.0527 189.872 65.0527 196.183C65.0527 202.494 101.085 207.61 145.532 207.61Z" fill="#E6E6E6"/>
<path opacity="0.58" d="M178.9 183.292C178.9 183.292 171.371 181.273 169.708 174.293C169.708 174.293 181.35 171.888 181.729 183.946L178.9 183.292Z" fill="#B88BFF"/>
<path opacity="0.73" d="M179.821 182.543C179.821 182.543 174.534 174.264 179.123 166.476C179.123 166.476 188.033 172.067 184.113 182.543H179.821Z" fill="#B88BFF"/>
<path d="M181.173 182.543C181.173 182.543 183.913 173.759 192.31 172.066C192.31 172.066 193.907 177.754 186.92 182.543H181.173Z" fill="#B88BFF"/>
<path d="M175.723 182.372L177.289 192.789H186.89L188.256 182.372H175.723Z" fill="#24285B"/>
<path d="M128.537 190.072C128.537 190.072 127.475 193.205 124.669 193.488C121.862 193.77 121.164 196.539 123.711 197.2C126.258 197.861 132.717 194.505 132.717 194.505L132.443 190.05L128.537 190.072Z" fill="#B88BFF"/>
<path d="M158.058 186.575C158.058 186.575 158.883 189.783 156.685 191.557C154.487 193.332 155.43 196.012 157.925 195.195C160.419 194.379 163.991 188.008 163.991 188.008L161.556 184.756L158.058 186.575Z" fill="#B88BFF"/>
<path d="M133.912 57.9437C133.912 57.9437 136.615 62.6882 137.291 66.3636C137.355 66.7196 137.348 67.0847 137.271 67.4381C137.193 67.7914 137.047 68.126 136.84 68.4226C136.633 68.7193 136.37 68.9721 136.065 69.1667C135.76 69.3612 135.419 69.4937 135.063 69.5564C133.214 69.8682 130.608 69.7568 128.856 67.3883L125.388 63.7352C124.771 62.9295 124.418 61.9523 124.378 60.9379C124.338 59.9235 124.613 58.9216 125.166 58.0699C127.044 54.7509 132.412 54.9662 133.912 57.9437Z" fill="#F4A28C"/>
<path d="M126.658 64.5371L126.732 82.4388L136.593 81.6889L132.68 69.2891L126.658 64.5371Z" fill="#F4A28C"/>
<path d="M135.464 61.0254L137.691 62.3025C137.823 62.3734 137.934 62.477 138.014 62.6034C138.094 62.7298 138.14 62.8747 138.147 63.0241C138.155 63.1734 138.124 63.3221 138.057 63.4559C137.99 63.5896 137.89 63.7038 137.766 63.7875L136.036 65.02L135.464 61.0254Z" fill="#F4A28C"/>
<path opacity="0.31" d="M132.791 69.6386C131.583 69.5188 130.431 69.0721 129.457 68.3467C129.457 68.3467 129.116 72.2522 133.912 73.1878L132.791 69.6386Z" fill="#CE8172"/>
<path d="M202.965 23.811C206.93 24.0412 210.041 25.296 212.298 27.5235C213.363 28.5559 214.188 29.8105 214.713 31.1978C215.237 32.5851 215.45 34.0711 215.335 35.5499C215.317 37.4593 214.805 39.3316 213.85 40.985C212.915 42.4106 212.439 43.2868 210.999 44.2669C209.917 45.0584 208.758 45.7375 207.539 46.2939C206.722 46.7171 206.173 46.9547 205.957 47.1032C203.73 48.2986 202.475 49.4421 202.356 51.5062C202.282 52.8279 201.837 53.1769 200.567 53.1026L198.451 52.9764C197.181 52.9021 196.78 52.5086 196.854 51.187C197.122 46.6874 199.082 44.6307 202.445 42.6482C202.393 42.6482 204.591 41.4528 204.673 41.4008C205.359 41.0017 206.007 40.542 206.611 40.0272C207.194 39.4597 207.694 38.8122 208.096 38.1041C208.446 37.2515 208.661 36.3498 208.734 35.4311C208.92 32.2087 206.663 29.8995 202.438 29.6545C198.362 29.4169 196.104 30.9241 194.426 34.1689C193.766 35.4608 193.335 35.6539 192.087 35.149L189.6 34.102C188.405 33.664 188.115 32.8472 188.62 31.7632C191.263 26.0608 196.045 23.41 202.965 23.811ZM199.602 55.9241C202.141 56.0726 202.935 56.971 202.787 59.503V59.9856C202.638 62.5695 201.747 63.3194 199.208 63.1709H198.785C196.245 63.0224 195.451 62.1834 195.6 59.5921V59.1169C195.748 56.5775 196.639 55.783 199.178 55.9315L199.602 55.9241Z" fill="#FFD200"/>
<path d="M132.709 78.7559H142.592C142.592 78.7559 174.245 81.4808 174.75 97.1327C175.255 112.785 154.784 144.051 154.784 144.051H120.674C120.674 144.051 81.4324 78.7559 132.709 78.7559Z" fill="#B88BFF"/>
<path opacity="0.08" d="M152.631 93.2871C152.631 93.2871 145.488 103.474 148.473 111.404C151.458 119.334 152.787 132.038 129.784 119.735L126.443 109.073L117.459 105.984L113.843 120.693L120.035 122.794C121.459 123.255 122.645 124.256 123.339 125.581C124.033 126.907 124.18 128.452 123.748 129.885C122.924 132.409 120.889 134.904 116.122 135.387L120.703 144.022H154.814L159.336 136.664L171.765 109.362L152.631 93.2871Z" fill="black"/>
<path d="M126.673 68.1159C126.673 68.1159 124.386 63.9282 121.654 62.0794C118.921 60.2306 121.156 54.2832 125.96 53.2214C129.554 52.4195 131.611 51.2389 131.64 49.2119C131.654 48.9968 131.725 48.7894 131.847 48.6115C131.968 48.4337 132.136 48.292 132.331 48.2015C132.527 48.1109 132.743 48.0749 132.957 48.0973C133.172 48.1196 133.376 48.1994 133.548 48.3283C135.197 49.5683 136.882 51.5953 136.066 54.402C135.745 55.42 135.167 56.3376 134.386 57.065C133.605 57.7925 132.649 58.305 131.611 58.5525L128.373 59.4138C128.373 59.4138 132.709 65.2573 126.673 68.1159Z" fill="#24285B"/>
<path d="M130.586 64.6114C130.586 64.6114 129.673 62.7181 128.307 63.5274C126.94 64.3367 128.24 67.0765 130.311 66.438L130.586 64.6114Z" fill="#F4A28C"/>
<path d="M171.32 53.1543L152.542 67.737L176.235 62.6954L171.32 53.1543Z" fill="#24285B"/>
<path d="M152.795 98.0164C150.181 88.4678 161.638 81.3621 169.13 87.8812C172.701 90.9997 175.745 95.0092 176.666 99.9914C179.317 114.307 187.803 126.766 174.81 135.245C161.816 143.725 131.062 124.91 131.062 124.91L135.294 117.225C135.294 117.225 150.686 123.321 160.234 122.786C166.82 122.422 156.485 111.5 152.795 98.0164Z" fill="#B88BFF"/>
<path d="M133.127 106.615L123.847 104.399L120.272 119.371L129.552 121.587L133.127 106.615Z" fill="#FFD200"/>
<path opacity="0.3" d="M152.795 98.0164C150.181 88.4678 161.638 81.3621 169.13 87.8812C172.701 90.9997 175.745 95.0092 176.666 99.9914C179.317 114.307 187.803 126.766 174.81 135.245C161.816 143.725 131.062 124.91 131.062 124.91L135.294 117.225C135.294 117.225 150.686 123.321 160.234 122.786C166.82 122.422 156.485 111.5 152.795 98.0164Z" fill="white"/>
<path d="M134.729 118.19C134.38 116.729 133.688 115.373 132.709 114.233C131.046 112.243 130.482 111.359 128.187 111.404C125.893 111.448 125.663 119.876 131.997 123.15L134.729 118.19Z" fill="#F4A28C"/>
<path d="M154.784 144.052C154.784 144.052 147.953 172.415 161.63 184.34L156.811 188.847C156.811 188.847 139.08 178.556 136.607 150.281L154.784 144.052Z" fill="#24285B"/>
<path d="M109.083 63.1562L111.934 68.1978L91.0848 101.053C87.8624 106.125 79.836 104.023 79.7617 98.0166C79.7617 95.2471 80.6007 91.9133 83.0733 87.978C92.0278 73.6775 109.083 63.1562 109.083 63.1562Z" fill="#B88BFF"/>
<path d="M106.96 53.49L106.763 54.9619L114.497 55.9967L114.694 54.5248L106.96 53.49Z" fill="#C9C9C9"/>
<path d="M112.951 44.1036L111.809 45.0527L116.796 51.0543L117.939 50.1051L112.951 44.1036Z" fill="#C9C9C9"/>
<path d="M122.725 41.6877L122.004 49.458L123.483 49.5952L124.203 41.8249L122.725 41.6877Z" fill="#C9C9C9"/>
<path d="M120.674 144.052C120.674 144.052 113.665 170.529 127.483 190.05L133.066 189.782C133.066 189.782 124.973 163.372 136.994 153.712L154.814 144.059L120.674 144.052Z" fill="#24285B"/>
</svg>
