<svg width="334" height="252" viewBox="0 0 334 252" fill="none"
    xmlns="http://www.w3.org/2000/svg">
    <path opacity="0.73" d="M239.336 185.64C239.336 185.64 236.422 179.404 240.255 177.131C244.087 174.857 250.133 178.978 248.605 182.146C248.097 183.08 247.38 183.884 246.512 184.496C245.643 185.108 244.644 185.511 243.595 185.673L239.336 185.64Z" fill="#B88BFF"/>
    <path d="M212.04 105.32C212.04 105.32 226.235 127.12 212.04 169.591" stroke="#24285B" stroke-width="8.12" stroke-linecap="round" stroke-linejoin="round"/>
    <path d="M120.373 118.477C120.373 118.477 103.314 138.538 110.562 148.569C117.81 158.599 135.996 149.906 141.933 130.489" stroke="#24285B" stroke-width="8.12" stroke-linecap="round" stroke-linejoin="round"/>
    <path d="M114.971 113.596C114.971 113.596 107.891 114.724 108.692 120.065C109.494 125.407 117.785 132.319 123.572 130.096C129.358 127.873 126.344 118.477 126.344 118.477L114.971 113.596Z" fill="#FFD200"/>
    <path opacity="0.44" d="M114.971 113.596C114.971 113.596 107.891 114.724 108.692 120.065C109.494 125.407 117.785 132.319 123.572 130.096C129.358 127.873 126.344 118.477 126.344 118.477L114.971 113.596Z" fill="white"/>
    <path d="M144.046 69.6697C144.047 68.5574 143.829 67.4558 143.404 66.428C142.98 65.4002 142.357 64.4663 141.571 63.6798C140.785 62.8933 139.852 62.2696 138.826 61.8445C137.799 61.4194 136.698 61.2011 135.587 61.2022C135.131 61.2034 134.676 61.2426 134.226 61.3192C133.254 59.5046 131.81 57.9875 130.045 56.9292C128.281 55.871 126.263 55.3111 124.206 55.3092H123.789C124.06 54.2379 124.2 53.1376 124.206 52.0326C124.206 48.439 122.78 44.9926 120.242 42.4515C117.704 39.9105 114.261 38.4829 110.671 38.4829C107.081 38.4829 103.638 39.9105 101.1 42.4515C98.5616 44.9926 97.1356 48.439 97.1356 52.0326C97.1422 53.1376 97.2824 54.2379 97.5531 55.3092H97.1356C94.165 55.3897 91.3431 56.6276 89.2705 58.7593C87.1978 60.8911 86.0381 63.7484 86.0381 66.7232C86.0381 69.698 87.1978 72.5553 89.2705 74.6871C91.3431 76.8188 94.165 78.0567 97.1356 78.1372H136.69V78.0536C138.724 77.7895 140.593 76.7929 141.947 75.2499C143.3 73.707 144.047 71.7233 144.046 69.6697Z" fill="#EFEFEF"/>
    <path d="M209.585 51.9994C209.585 50.3257 210.249 48.7205 211.432 47.537C212.614 46.3534 214.217 45.6885 215.889 45.6885C216.228 45.6893 216.566 45.7201 216.9 45.7805C217.629 44.422 218.714 43.2876 220.037 42.4984C221.361 41.7093 222.874 41.2951 224.415 41.3002H224.724C224.523 40.4991 224.419 39.6769 224.415 38.851C224.376 37.5 224.608 36.1549 225.098 34.8954C225.587 33.6358 226.325 32.4874 227.265 31.518C228.206 30.5487 229.332 29.7781 230.575 29.2519C231.819 28.7257 233.156 28.4546 234.506 28.4546C235.856 28.4546 237.192 28.7257 238.436 29.2519C239.68 29.7781 240.805 30.5487 241.746 31.518C242.687 32.4874 243.424 33.6358 243.914 34.8954C244.403 36.1549 244.635 37.5 244.597 38.851C244.594 39.6775 244.487 40.5003 244.279 41.3002H244.597C246.851 41.3002 249.013 42.1967 250.607 43.7925C252.201 45.3883 253.097 47.5526 253.097 49.8094C253.097 52.0662 252.201 54.2306 250.607 55.8264C249.013 57.4222 246.851 58.3187 244.597 58.3187H215.029V58.2936C213.513 58.0847 212.125 57.3309 211.123 56.1728C210.122 55.0146 209.575 53.5313 209.585 51.9994Z" fill="#EFEFEF"/>
    <path opacity="0.45" d="M175.509 208.067C230.446 208.067 274.982 203.46 274.982 197.777C274.982 192.094 230.446 187.487 175.509 187.487C120.571 187.487 76.0352 192.094 76.0352 197.777C76.0352 203.46 120.571 208.067 175.509 208.067Z" fill="#E6E6E6"/>
    <path d="M187.95 137.744C187.95 137.744 188.443 163.548 183.249 181.661" stroke="#24285B" stroke-width="8.12" stroke-linecap="round" stroke-linejoin="round"/>
    <path d="M193.537 163.548H175.885V197.259H209.544L191.625 186.259L193.537 163.548Z" fill="#FFD200"/>
    <path d="M160.88 137.744C160.88 137.744 155.686 163.548 160.88 181.661" stroke="#24285B" stroke-width="8.12" stroke-linecap="round" stroke-linejoin="round"/>
    <path d="M170.85 148.602C199.538 148.602 222.795 125.321 222.795 96.6018C222.795 67.8829 199.538 44.6016 170.85 44.6016C142.161 44.6016 118.904 67.8829 118.904 96.6018C118.904 125.321 142.161 148.602 170.85 148.602Z" fill="#B88BFF"/>
    <path opacity="0.09" d="M202.228 55.2593C210.248 65.14 214.367 77.6229 213.805 90.3414C213.243 103.06 208.04 115.13 199.18 124.264C190.321 133.397 178.422 138.959 165.739 139.896C153.056 140.832 140.47 137.077 130.368 129.344C134.985 135.067 140.763 139.745 147.32 143.067C153.877 146.39 161.064 148.282 168.405 148.619C175.746 148.955 183.075 147.728 189.908 145.019C196.741 142.311 202.922 138.181 208.042 132.904C213.163 127.627 217.106 121.322 219.612 114.406C222.119 107.49 223.13 100.121 222.581 92.7847C222.031 85.4484 219.933 78.3124 216.425 71.848C212.916 65.3837 208.078 59.7381 202.228 55.2844V55.2593Z" fill="black"/>
    <path d="M155.42 98.3727C158.133 97.8266 159.356 92.5263 158.152 86.534C156.949 80.5418 153.774 76.1268 151.061 76.6729C148.348 77.2189 147.125 82.5193 148.329 88.5115C149.533 94.5037 152.707 98.9187 155.42 98.3727Z" fill="#24285B"/>
    <path d="M185.421 92.3277C188.134 91.7817 189.357 86.4813 188.153 80.4891C186.95 74.4969 183.775 70.0819 181.062 70.628C178.349 71.174 177.126 76.4744 178.33 82.4666C179.534 88.4588 182.708 92.8738 185.421 92.3277Z" fill="#24285B"/>
    <path d="M201.644 123.108C201.644 123.108 196.041 103.047 173.454 108.313C150.867 113.579 154.007 132.687 154.007 132.687" stroke="#24285B" stroke-width="3.045" stroke-linecap="round" stroke-linejoin="round"/>
    <path opacity="0.36" d="M145.684 108.45C149.753 107.631 152.7 105.221 152.268 103.066C151.835 100.912 148.186 99.8296 144.117 100.649C140.048 101.468 137.1 103.878 137.533 106.033C137.965 108.187 141.615 109.269 145.684 108.45Z" fill="white"/>
    <path opacity="0.36" d="M199.278 97.6596C203.347 96.8405 206.295 94.4301 205.862 92.2758C205.43 90.1215 201.78 89.0391 197.711 89.8582C193.642 90.6773 190.695 93.0877 191.127 95.242C191.56 97.3963 195.209 98.4787 199.278 97.6596Z" fill="white"/>
    <path d="M150.074 161.792L167.493 164.71L161.931 197.961L128.74 192.402L148.221 184.512L150.074 161.792Z" fill="#FFD200"/>
    <path d="M209.092 158.767C209.092 158.767 198.487 159.502 199.439 165.303C200.391 171.104 204.984 171.096 204.984 171.096C204.984 171.096 200.809 182.347 211.012 182.606C221.216 182.865 226.56 169.951 223.537 162.094C220.515 154.236 209.092 158.767 209.092 158.767Z" fill="#FFD200"/>
    <path d="M224.983 150.751C224.983 150.751 202.079 142.985 202.847 152.539C203.615 162.093 215.957 160.614 222.77 161.985C229.584 163.356 233.341 154.646 224.983 150.751Z" fill="#FFD200"/>
    <path opacity="0.44" d="M224.983 150.751C224.983 150.751 202.079 142.985 202.847 152.539C203.615 162.093 215.957 160.614 222.77 161.985C229.584 163.356 233.341 154.646 224.983 150.751Z" fill="white"/>
    <path d="M235.554 185.64L237.19 196.824L247.469 196.866L248.989 185.699L235.554 185.64Z" fill="#24285B"/>
    <path d="M145.457 81.4643C147.307 80.3426 148.891 78.8316 150.099 77.0361C151.307 75.2405 152.111 73.2034 152.454 71.0659" stroke="#24285B" stroke-width="3.045" stroke-linecap="round" stroke-linejoin="round"/>
    <path d="M177.546 66.2764C180.333 70.1229 184.362 72.8869 188.952 74.1002" stroke="#24285B" stroke-width="3.045" stroke-linecap="round" stroke-linejoin="round"/>
    <path d="M115.063 103.072C115.063 103.072 111.205 79.7424 121.985 83.0107C128.824 85.1004 122.211 96.7693 124.49 103.072C126.77 109.374 131.721 119.121 126.836 122.665C121.952 126.209 112.992 125.649 115.063 103.072Z" fill="#FFD200"/>
    <path d="M242.267 185.674C242.267 185.674 242.034 180.408 246.935 180.048C251.836 179.689 256.245 187.872 252.479 192.779L248.638 185.807L242.267 185.674Z" fill="#B88BFF"/>
    <path opacity="0.58" d="M242.267 185.674C242.267 185.674 240.739 179.455 235.587 180.04C230.435 180.625 228.422 187.446 231.261 191.926L235.587 185.64L242.267 185.674Z" fill="#B88BFF"/>
</svg>
